<svg id="Layer_1" enable-background="new 0 0 256 256" height="512" viewBox="0 0 256 256" width="512" xmlns="http://www.w3.org/2000/svg"><path d="m104.001 226.79v-197.58c0-3.43 2.78-6.21 6.21-6.21h-32.391c-5.423 0-9.819 4.396-9.819 9.819v190.361c0 5.423 4.396 9.819 9.819 9.819h32.391c-3.43.001-6.21-2.779-6.21-6.209z" fill="#ef7f72"/><path d="m178.181 23h-32.391c3.43 0 6.21 2.78 6.21 6.21v197.58c0 3.43-2.78 6.21-6.21 6.21h32.391c5.423 0 9.819-4.396 9.819-9.819v-190.362c.001-5.423-4.396-9.819-9.819-9.819z" fill="#e8383b"/><path d="m152.001 226.79v-197.58c0-3.43-2.78-6.21-6.21-6.21h-35.579c-3.43 0-6.21 2.78-6.21 6.21v197.58c0 3.43 2.78 6.21 6.21 6.21h35.579c3.429 0 6.21-2.78 6.21-6.21z" fill="#e95947"/><path d="m178.181 236h-100.361c-7.069 0-12.82-5.751-12.82-12.819v-190.362c0-7.068 5.751-12.819 12.82-12.819h100.361c7.069 0 12.819 5.751 12.819 12.819v190.361c0 7.069-5.75 12.82-12.819 12.82zm-100.361-210c-3.76 0-6.82 3.059-6.82 6.819v190.361c0 3.76 3.059 6.819 6.819 6.819h100.361c3.76 0 6.819-3.059 6.819-6.819v-190.361c0-3.76-3.059-6.819-6.819-6.819z" fill="#1c2d6b"/><path d="m152.001 41h36v168h-36z" fill="#d3ba2a"/><path d="m68.001 41h36v168h-36z" fill="#ede49d"/><path d="m104.001 41h48v168h-48z" fill="#eee045"/><path d="m188 212h-120c-1.657 0-3-1.343-3-3v-168c0-1.657 1.343-3 3-3h120c1.657 0 3 1.343 3 3v168c0 1.657-1.343 3-3 3zm-117-6h114v-162h-114z" fill="#1c2d6b"/><path d="m134 224h-12c-1.657 0-3-1.343-3-3s1.343-3 3-3h12c1.657 0 3 1.343 3 3s-1.343 3-3 3z" fill="#1c2d6b"/><path d="m69.987 70.806h10.014v108h-10.014z" fill="#4b67b0"/><path d="m50.001 70.806h10.014v108h-10.014z" fill="#89aadb"/><path d="m60.015 70.806h9.972v108h-9.972z" fill="#6287c5"/><path d="m195.952 71.374h10.048v107.432h-10.048z" fill="#4b67b0"/><path d="m175.967 71.374h10.014v107.432h-10.014z" fill="#89aadb"/><path d="m185.981 71.374h9.972v107.432h-9.972z" fill="#6287c5"/><path d="m91.932 71.374h12.068v107.432h-12.068z" fill="#6287c5"/><path d="m151.932 71.374h12.068v107.432h-12.068z" fill="#6287c5"/><path d="m132.526 71.374h7.475v107.432h-7.475z" fill="#4b67b0"/><path d="m115.932 71.374h7.475v107.432h-7.475z" fill="#89aadb"/><path d="m123.407 71.374h9.119v107.432h-9.119z" fill="#6287c5"/><g fill="#1c2d6b"><path d="m80 181.806h-30c-1.657 0-3-1.343-3-3v-108c0-1.657 1.343-3 3-3h30c1.657 0 3 1.343 3 3v108c0 1.657-1.343 3-3 3zm-27-6h24v-102h-24z"/><path d="m104 181.806h-12.068c-1.657 0-3-1.343-3-3v-107.431c0-1.657 1.343-3 3-3h12.068c1.657 0 3 1.343 3 3v107.432c0 1.656-1.343 2.999-3 2.999zm-9.068-6h6.068v-101.431h-6.068z"/><path d="m164 181.806h-12.068c-1.657 0-3-1.343-3-3v-107.431c0-1.657 1.343-3 3-3h12.068c1.657 0 3 1.343 3 3v107.432c0 1.656-1.343 2.999-3 2.999zm-9.068-6h6.068v-101.431h-6.068z"/><path d="m140 181.806h-24.068c-1.657 0-3-1.343-3-3v-107.431c0-1.657 1.343-3 3-3h24.068c1.657 0 3 1.343 3 3v107.432c0 1.656-1.343 2.999-3 2.999zm-21.068-6h18.068v-101.431h-18.068z"/><path d="m206 181.806h-30.068c-1.657 0-3-1.343-3-3v-107.431c0-1.657 1.343-3 3-3h30.068c1.657 0 3 1.343 3 3v107.432c0 1.656-1.343 2.999-3 2.999zm-27.068-6h24.068v-101.431h-24.068z"/><path d="m38 73.999c-1.657 0-3-1.343-3-3v-12c0-1.657 1.343-3 3-3h12c1.657 0 3 1.343 3 3s-1.343 3-3 3h-9v9c0 1.656-1.344 3-3 3z"/><path d="m218 73.999c-1.657 0-3-1.343-3-3v-9h-9c-1.657 0-3-1.343-3-3s1.343-3 3-3h12c1.657 0 3 1.343 3 3v12c0 1.656-1.343 3-3 3z"/><path d="m50 193.999h-12c-1.657 0-3-1.343-3-3v-12c0-1.657 1.343-3 3-3s3 1.343 3 3v9h9c1.657 0 3 1.343 3 3s-1.344 3-3 3z"/><path d="m218 193.999h-12c-1.657 0-3-1.343-3-3s1.343-3 3-3h9v-9c0-1.657 1.343-3 3-3s3 1.343 3 3v12c0 1.656-1.343 3-3 3z"/></g></svg>