<svg aria-hidden="true" focusable="false" height="1.5em" role="img" viewBox="0 0 20 20" width="1.5em" xmlns="http://www.w3.org/2000/svg"><path d="M 3 0 v20 h14 v-20 h-14 z m 2.5 2.5 h9 v2 h-9 v-2 z m 0 4 h2 v1.75 h-2 v-1.75 z m 3.5 0 h2 v1.75 h-2 v-1.75 z m 3.5 0 h2 v1.75 h-2 v-1.75 z M 5.5 9.5 h2 v1.75 h-2 v-1.75 z m 3.5 0 h2 v1.75 h-2 v-1.75 z m 3.5 0 h2 v1.75 h-2 v-1.75 z M 5.5 12.5 h2 v1.75 h-2 v-1.75 z m 3.5 0 h2 v1.75 h-2 v-1.75 z m 3.5 0 h2 v1.75 h-2 v-1.75 z M 5.5 15.5 h2 v1.75 h-2 v-1.75 z m 3.5 0 h2 v1.75 h-2 v-1.75 z m 3.5 0 h2 v1.75 h-2 v-1.75 z "></path></svg>
