<svg
	aria-hidden="true"
	fill="currentColor"
	focusable="false"
	height="1.5em"
	width="1.5em"
	viewBox='0 0 20 20'
>
    <path d="M5.5 7c-0.83 0-1.5-0.67-1.5-1.5 0-0.82 0.67-1.5 1.5-1.5 0.82 0 1.5 0.68 1.5 1.5 0 0.83-0.68 1.5-1.5 1.5zM8 5h9v1h-9v-1zM5.5 12c-0.83 0-1.5-0.67-1.5-1.5 0-0.82 0.67-1.5 1.5-1.5 0.82 0 1.5 0.68 1.5 1.5 0 0.83-0.68 1.5-1.5 1.5zM8 10h9v1h-9v-1zM5.5 17c-0.83 0-1.5-0.67-1.5-1.5 0-0.82 0.67-1.5 1.5-1.5 0.82 0 1.5 0.68 1.5 1.5 0 0.83-0.68 1.5-1.5 1.5zM8 15h9v1h-9v-1z"></path>
</svg>
