<svg id="Layer_1" enable-background="new 0 0 256 256" height="512" viewBox="0 0 256 256" width="512" xmlns="http://www.w3.org/2000/svg"><path d="m196.015 50.275h-50.073c3.478 0 6.297 2.819 6.297 6.297v125.406c0 3.478-2.819 6.297-6.297 6.297h50.073c5.647 0 10.225-4.578 10.225-10.225v-117.55c-.001-5.647-4.578-10.225-10.225-10.225z" fill="#d3ba2a"/><path d="m86.239 181.978v-125.405c0-3.478 2.819-6.297 6.297-6.297h-50.072c-5.647 0-10.225 4.578-10.225 10.225v117.551c0 5.647 4.578 10.225 10.225 10.225h50.073c-3.478-.002-6.298-2.821-6.298-6.299z" fill="#ede49d"/><path d="m152.239 181.978v-125.405c0-3.478-2.819-6.297-6.297-6.297h-53.405c-3.478 0-6.297 2.819-6.297 6.297v125.406c0 3.478 2.819 6.297 6.297 6.297h53.406c3.477-.001 6.296-2.82 6.296-6.298z" fill="#eee045"/><path d="m92.537 50.275h-50.073c-5.647 0-10.225 4.578-10.225 10.225v13.775h54v-17.702c0-3.478 2.82-6.298 6.298-6.298z" fill="#ef7f72"/><path d="m206.239 60.5c0-5.647-4.578-10.225-10.225-10.225h-50.073c3.478 0 6.297 2.819 6.297 6.297v17.703h54v-13.775z" fill="#e8383b"/><path d="m145.942 50.275h-53.405c-3.478 0-6.297 2.819-6.297 6.297v17.703h66v-17.702c-.001-3.478-2.82-6.298-6.298-6.298z" fill="#e95947"/><path d="m196.015 191.275h-153.551c-7.292 0-13.225-5.933-13.225-13.225v-117.55c0-7.292 5.933-13.225 13.225-13.225h153.55c7.292 0 13.225 5.933 13.225 13.225v117.551c0 7.292-5.932 13.224-13.224 13.224zm-153.551-138c-3.984 0-7.225 3.241-7.225 7.225v117.551c0 3.984 3.241 7.225 7.225 7.225h153.55c3.983 0 7.225-3.241 7.225-7.225v-117.551c0-3.984-3.241-7.225-7.225-7.225z" fill="#1c2d6b"/><path d="m82.37 92.275h15.87v60h-15.87z" fill="#4b67b0"/><path d="m50.239 92.275h15.87v60h-15.87z" fill="#89aadb"/><path d="m66.109 92.275h16.261v60h-16.261z" fill="#6287c5"/><g fill="#1c2d6b"><path d="m98.239 155.275h-48c-1.657 0-3-1.343-3-3v-60c0-1.657 1.343-3 3-3h48c1.657 0 3 1.343 3 3v60c0 1.657-1.343 3-3 3zm-45-6h42v-54h-42z"/><path d="m182.239 95.275h-60c-1.657 0-3-1.343-3-3s1.343-3 3-3h60c1.657 0 3 1.343 3 3s-1.343 3-3 3z"/><path d="m182.239 113.275h-60c-1.657 0-3-1.343-3-3s1.343-3 3-3h60c1.657 0 3 1.343 3 3s-1.343 3-3 3z"/><path d="m182.239 131.275h-60c-1.657 0-3-1.343-3-3s1.343-3 3-3h60c1.657 0 3 1.343 3 3s-1.343 3-3 3z"/><circle cx="44.239" cy="62.137" r="3.798"/><circle cx="56.239" cy="62.137" r="3.798"/><circle cx="68.239" cy="62.137" r="3.798"/><path d="m182.239 173.275h-60c-1.657 0-3-1.343-3-3s1.343-3 3-3h60c1.657 0 3 1.343 3 3s-1.343 3-3 3z"/><path d="m122.241 163.738c-.848 0-1.691-.357-2.284-1.054-1.075-1.261-.924-3.154.336-4.229l24-20.463c.891-.759 2.142-.931 3.203-.441 1.062.491 1.743 1.554 1.743 2.724v12.395l13.336-8.891c1.189-.794 2.773-.637 3.785.375l12 12c1.172 1.171 1.172 3.071 0 4.242-1.172 1.172-3.07 1.172-4.242 0l-10.261-10.261-15.954 10.636c-.921.613-2.104.671-3.08.149-.975-.522-1.584-1.539-1.584-2.645v-11.5l-19.054 16.245c-.564.483-1.256.718-1.944.718z"/></g><path d="m86.239 116.275c0-6.627-5.373-12-12-12 1.88 0 3.405 5.373 3.405 12s-1.524 12-3.405 12c6.628 0 12-5.372 12-12z" fill="#419b46"/><path d="m70.835 116.275c0-6.627 1.524-12 3.405-12-6.627 0-12 5.373-12 12s5.373 12 12 12c-1.881 0-3.405-5.372-3.405-12z" fill="#a4d4a0"/><path d="m74.239 128.275c1.88 0 3.405 5.373 3.405 12v12h8.595v-12c0-6.627-5.372-12-12-12z" fill="#419b46"/><path d="m74.239 128.275c-6.627 0-12 5.373-12 12v12h8.595v-12c.001-6.627 1.525-12 3.405-12z" fill="#a4d4a0"/><ellipse cx="74.239" cy="116.275" fill="#65bc49" rx="3.405" ry="12"/><path d="m74.239 128.275c-1.88 0-3.405 5.373-3.405 12v12h6.809v-12c.001-6.627-1.523-12-3.404-12z" fill="#65bc49"/><path d="m74.239 131.275c-8.271 0-15-6.729-15-15s6.729-15 15-15 15 6.729 15 15-6.729 15-15 15zm0-24c-4.962 0-9 4.038-9 9s4.038 9 9 9 9-4.038 9-9-4.037-9-9-9z" fill="#1c2d6b"/><path d="m86.239 155.275h-24c-1.657 0-3-1.343-3-3v-12c0-8.271 6.729-15 15-15s15 6.729 15 15v12c0 1.657-1.343 3-3 3zm-21-6h18v-9c0-4.962-4.038-9-9-9s-9 4.038-9 9z" fill="#1c2d6b"/><path d="m206.466 171.46 9.411-9.412-39.159-3.222 26.908 15.474-2.994 2.994 17.294 17.295 5.835-5.835z" fill="#89aadb"/><path d="m192.192 185.734-15.474-26.908 3.223 39.159 9.555-9.555 17.294 17.295 5.736-5.737-17.294-17.294z" fill="#4b67b0"/><path d="m203.626 174.3-26.908-15.474 15.474 26.908 3.04-3.04 17.294 17.294 5.4-5.399-17.294-17.295z" fill="#6287c5"/><path d="m206.79 208.725c-.768 0-1.535-.293-2.121-.878l-15.174-15.173-7.434 7.434c-.825.826-2.055 1.099-3.154.695-1.098-.402-1.86-1.406-1.957-2.57l-3.223-39.159c-.072-.878.246-1.744.869-2.367.623-.624 1.489-.942 2.367-.869l39.159 3.222c1.165.096 2.168.859 2.57 1.957s.131 2.328-.695 3.154l-7.29 7.29 15.174 15.173c.562.563.879 1.326.879 2.122 0 .795-.316 1.559-.879 2.121l-16.971 16.971c-.585.584-1.352.877-2.12.877zm-17.295-23.295c.796 0 1.559.316 2.121.878l15.174 15.173 12.729-12.728-15.174-15.173c-.562-.563-.879-1.326-.879-2.122 0-.795.316-1.559.879-2.121l4.831-4.832-29.178-2.4 2.401 29.177 4.975-4.975c.563-.561 1.325-.877 2.121-.877z" fill="#1c2d6b"/><path d="m206.239 77.275h-174c-1.657 0-3-1.343-3-3v-13.775c0-7.292 5.933-13.225 13.225-13.225h153.551c7.292 0 13.225 5.933 13.225 13.225v13.775c-.001 1.657-1.344 3-3.001 3zm-171-6h168v-10.775c0-3.984-3.241-7.225-7.225-7.225h-153.55c-3.984 0-7.225 3.241-7.225 7.225z" fill="#1c2d6b"/></svg>