<svg id="Layer_1" enable-background="new 0 0 128 128" height="512" viewBox="0 0 128 128" width="512" xmlns="http://www.w3.org/2000/svg"><path d="m89.3 7.47h-46.6c-4.775 0-8.66 3.885-8.66 8.66v19.709 5.46 74.571c0 4.775 3.885 8.66 8.66 8.66h46.6c4.774 0 8.659-3.885 8.659-8.66v-99.74c0-4.775-3.885-8.66-8.659-8.66z" fill="#e6e7e8"/><path d="m85.3 4.47h-46.6c-4.23 0-7.66 3.429-7.66 7.66v99.74c0 4.23 3.429 7.66 7.66 7.66h46.6c4.23 0 7.66-3.429 7.66-7.66v-99.74c-.001-4.23-3.43-7.66-7.66-7.66z" fill="#6dc9f7"/><path d="m81.4 14.438h-38.799c-4.23 0-7.66 3.429-7.66 7.66v71.139c0 4.23 3.429 7.66 7.66 7.66h38.799c4.23 0 7.66-3.429 7.66-7.66v-71.14c-.001-4.23-3.43-7.659-7.66-7.659z" fill="#d4fbff"/><path d="m69.456 104.554h-14.911c-1.292 0-2.34 1.048-2.34 2.34v4.508c0 1.292 1.048 2.34 2.34 2.34h14.911c1.292 0 2.34-1.048 2.34-2.34v-4.508c0-1.292-1.048-2.34-2.34-2.34z" fill="#0089ef"/><path d="m69.456 104.554h-14.911c-1.292 0-2.34 1.048-2.34 2.34v3c0-1.292 1.048-2.34 2.34-2.34h14.911c1.292 0 2.34 1.048 2.34 2.34v-3c0-1.292-1.048-2.34-2.34-2.34z" fill="#fff"/><path d="m70.013 8.479h-16.025c-.615 0-1.113.498-1.113 1.113v1.113c0 .615.498 1.113 1.113 1.113h16.025c.615 0 1.113-.498 1.113-1.113v-1.113c-.001-.614-.499-1.113-1.113-1.113z" fill="#ffd7e5"/><path d="m74.003 8.479c-.922 0-1.669.747-1.669 1.669s.747 1.669 1.669 1.669 1.669-.747 1.669-1.669c0-.921-.747-1.669-1.669-1.669z" fill="#ffd7e5"/><path d="m44.721 51.178c0 1.378 1.117 2.494 2.494 2.494h29.57c1.378 0 2.494-1.117 2.494-2.494v-17.781h-34.558z" fill="#fff"/><path d="m76.785 25.855h-4.744v2.712c0 1.052-.853 1.905-1.905 1.905h-.184c-1.052 0-1.905-.853-1.905-1.905v-2.712h-12.094v2.712c0 1.052-.853 1.905-1.905 1.905h-.184c-1.052 0-1.905-.853-1.905-1.905v-2.712h-4.744c-1.378 0-2.494 1.117-2.494 2.494v5.047h34.559v-5.046c0-1.378-1.117-2.495-2.495-2.495z" fill="#fa759e"/><path d="m54.048 22.998h-.184c-1.052 0-1.905.853-1.905 1.905v3.664c0 1.052.853 1.905 1.905 1.905h.184c1.052 0 1.905-.853 1.905-1.905v-3.664c0-1.052-.853-1.905-1.905-1.905z" fill="#ffd7e5"/><path d="m70.136 22.998h-.184c-1.052 0-1.905.853-1.905 1.905v3.664c0 1.052.853 1.905 1.905 1.905h.184c1.052 0 1.905-.853 1.905-1.905v-3.664c0-1.052-.853-1.905-1.905-1.905z" fill="#ffd7e5"/><path d="m62.888 36.996 1.117 3.437c.125.385.483.645.888.645h3.614c.904 0 1.281 1.157.549 1.689l-2.924 2.124c-.327.238-.464.659-.339 1.044l1.117 3.437c.279.86-.705 1.576-1.437 1.044l-2.924-2.124c-.327-.238-.77-.238-1.098 0l-2.924 2.124c-.732.532-1.716-.184-1.437-1.044l1.117-3.437c.125-.385-.012-.806-.339-1.044l-2.924-2.124c-.732-.532-.356-1.689.549-1.689h3.614c.404 0 .763-.26.888-.645l1.117-3.437c.28-.86 1.497-.86 1.776 0z" fill="#fa759e"/><path d="m82.776 64.891-4.586.655.479-3.354h-37.52v6.297h41.702v-3.674z" fill="#fff"/><path d="m41.149 59.007h8.643v1.305h-8.643z" fill="#fa759e"/><path d="m41.149 71.167h8.643v1.305h-8.643z" fill="#fa759e"/><path d="m41.149 83.327h8.643v1.305h-8.643z" fill="#fa759e"/><path d="m41.149 74.367h41.702v6.298h-41.702z" fill="#fff"/><path d="m41.149 86.542h41.702v6.298h-41.702z" fill="#fff"/><path d="m89.149 54.587c-1.085-1.085-2.845-1.085-3.93 0l-6.373 6.373 3.93 3.93 6.373-6.373c1.085-1.085 1.085-2.844 0-3.93z" fill="#fa759e"/><path d="m78.845 60.96-.655 4.586 4.586-.655z" fill="#fff"/><g fill="#3a2c60"><path d="m31.041 39.299c.552 0 1-.448 1-1v-7.46c0-.552-.448-1-1-1s-1 .448-1 1v7.46c0 .552.448 1 1 1z"/><path d="m85.3 3.47h-46.599c-4.775 0-8.66 3.885-8.66 8.66v14.509c0 .552.448 1 1 1s1-.448 1-1v-14.509c0-3.672 2.987-6.66 6.66-6.66h46.599c3.673 0 6.66 2.987 6.66 6.66v99.74c0 3.672-2.987 6.66-6.66 6.66h-46.599c-3.672 0-6.66-2.987-6.66-6.66v-68.591c0-.552-.448-1-1-1s-1 .448-1 1v68.591c0 4.775 3.885 8.66 8.66 8.66h46.599c4.775 0 8.66-3.885 8.66-8.66v-99.74c0-4.775-3.885-8.66-8.66-8.66z"/><path d="m54.544 103.554c-1.842 0-3.34 1.499-3.34 3.34v4.508c0 1.842 1.498 3.34 3.34 3.34h14.912c1.842 0 3.34-1.498 3.34-3.34v-4.508c0-1.842-1.498-3.34-3.34-3.34zm16.252 3.341v4.508c0 .739-.601 1.34-1.34 1.34h-14.912c-.739 0-1.34-.601-1.34-1.34v-4.508c0-.739.601-1.34 1.34-1.34h14.912c.739-.001 1.34.6 1.34 1.34z"/><path d="m76.785 54.673c1.927 0 3.494-1.568 3.494-3.495v-17.782-2.146-2.9c0-1.927-1.567-3.495-3.494-3.495h-3.749c-.027-1.579-1.315-2.857-2.9-2.857h-.184c-1.585 0-2.874 1.278-2.9 2.857h-10.104c-.027-1.579-1.315-2.857-2.9-2.857h-.184c-1.586 0-2.874 1.278-2.9 2.857h-3.749c-1.927 0-3.494 1.568-3.494 3.495v2.9 2.146 17.782c0 1.927 1.567 3.495 3.494 3.495zm-7.738-29.769c0-.499.406-.905.905-.905h.184c.499 0 .905.406.905.905v3.664c0 .499-.406.905-.905.905h-.184c-.499 0-.905-.406-.905-.905zm-16.088 0c0-.499.406-.905.905-.905h.184c.499 0 .905.406.905.905v3.664c0 .499-.406.905-.905.905h-.184c-.499 0-.905-.406-.905-.905zm-7.238 3.446c0-.824.67-1.495 1.494-1.495h3.744v1.712c0 1.602 1.303 2.905 2.905 2.905h.184c1.602 0 2.905-1.303 2.905-2.905v-1.712h10.094v1.712c0 1.602 1.304 2.905 2.905 2.905h.184c1.602 0 2.905-1.303 2.905-2.905v-1.712h3.744c.824 0 1.494.67 1.494 1.495v2.9 1.146h-32.558v-1.146zm0 22.828v-16.782h32.559v16.782c0 .824-.67 1.495-1.494 1.495h-29.57c-.825 0-1.495-.671-1.495-1.495z"/><path d="m40.149 62.191v6.298c0 .552.448 1 1 1h41.703c.553 0 1-.448 1-1v-3.261l6.004-6.003c.714-.714 1.107-1.663 1.107-2.672s-.394-1.958-1.107-2.672c-1.428-1.428-3.917-1.428-5.345 0l-6.372 6.373c-.008.008-.01.019-.018.027-.081.086-.148.183-.194.292-.008.019-.01.039-.017.058-.022.061-.045.122-.054.188l-.053.373h-36.654c-.552-.001-1 .447-1 .999zm40.505 1.993-1.285.184.184-1.285zm5.271-8.89c.672-.671 1.845-.672 2.517 0 .336.336.521.783.521 1.258s-.186.921-.521 1.258l-5.666 5.666-1.258-1.258-1.258-1.258zm-43.776 7.897h35.367l-.316 2.213c-.044.312.061.626.283.849.188.189.443.293.707.293.047 0 .095-.003.142-.01l3.52-.503v1.457h-39.703z"/><path d="m40.149 80.665c0 .552.448 1 1 1h41.703c.553 0 1-.448 1-1v-6.298c0-.552-.447-1-1-1h-41.703c-.552 0-1 .448-1 1zm2-5.298h39.703v4.298h-39.703z"/><path d="m40.149 92.839c0 .552.448 1 1 1h41.703c.553 0 1-.448 1-1v-6.298c0-.552-.447-1-1-1h-41.703c-.552 0-1 .448-1 1zm2-5.298h39.703v4.298h-39.703z"/></g></svg>