<svg id="Layer_1" enable-background="new 0 0 256 256" height="512" viewBox="0 0 256 256" width="512" xmlns="http://www.w3.org/2000/svg"><path d="m104.614 135.797 40.399-52.281c3.917 3.027 9.547 2.305 12.574-1.612l-37.953-29.328c-5.065 6.555-14.486 7.763-21.041 2.698l-33.018 42.729c6.555 5.065 7.763 14.486 2.698 21.041l37.953 29.328c3.028-3.918 2.306-9.547-1.612-12.575z" fill="#ef7f72"/><path d="m228.832 136.956-37.953-29.328c-3.027 3.918-2.305 9.547 1.612 12.574l-40.399 52.281c-3.917-3.027-9.547-2.305-12.574 1.612l37.953 29.328c5.065-6.555 14.486-7.763 21.041-2.698l33.018-42.729c-6.556-5.065-7.763-14.485-2.698-21.04z" fill="#e8383b"/><path d="m152.091 172.484 40.399-52.281c-3.917-3.027-4.639-8.657-1.612-12.574l-33.291-25.724c-3.027 3.918-8.657 4.639-12.574 1.612l-40.399 52.281c3.918 3.027 4.639 8.657 1.612 12.574l33.291 25.724c3.027-3.917 8.657-4.639 12.574-1.612z" fill="#e95947"/><g fill="#1c2d6b"><path d="m177.469 206.424c-.641 0-1.286-.204-1.832-.626l-109.198-84.38c-1.312-1.013-1.553-2.897-.54-4.208 4.045-5.236 3.077-12.788-2.158-16.833-.63-.487-1.04-1.203-1.142-1.993-.102-.789.115-1.586.602-2.216l33.019-42.729c.486-.629 1.203-1.04 1.992-1.141.795-.102 1.588.116 2.216.602 2.537 1.96 5.688 2.813 8.863 2.407 3.18-.408 6.01-2.029 7.97-4.565 1.013-1.31 2.897-1.552 4.208-.54l109.197 84.379c1.312 1.013 1.553 2.897.54 4.208-4.046 5.236-3.078 12.787 2.157 16.833 1.312 1.013 1.553 2.897.54 4.208l-33.018 42.729c-1.012 1.311-2.897 1.553-4.208.54-5.235-4.046-12.787-3.078-16.833 2.158-.59.766-1.478 1.167-2.375 1.167zm-105.186-88.072 104.846 81.017c5.604-5.181 13.959-6.252 20.69-2.653l29.654-38.377c-5.18-5.605-6.25-13.959-2.652-20.69l-104.842-81.016c-2.727 2.528-6.162 4.143-9.924 4.625-3.763.482-7.494-.213-10.771-1.972l-29.653 38.376c5.18 5.605 6.251 13.959 2.652 20.69z"/><path d="m213.292 135.532c-.641 0-1.286-.204-1.832-.626-1.312-1.013-1.553-2.897-.54-4.208l3.669-4.748c1.013-1.311 2.898-1.553 4.208-.539 1.312 1.013 1.553 2.897.54 4.208l-3.669 4.748c-.591.764-1.479 1.165-2.376 1.165z"/><path d="m175.557 184.365c-.641 0-1.286-.204-1.832-.626-1.312-1.013-1.553-2.897-.54-4.208l6.289-8.139c1.013-1.31 2.897-1.552 4.208-.54 1.312 1.013 1.553 2.897.54 4.208l-6.289 8.139c-.591.765-1.479 1.166-2.376 1.166zm12.579-16.278c-.641 0-1.286-.204-1.832-.626-1.312-1.013-1.553-2.897-.54-4.208l6.289-8.139c1.013-1.311 2.898-1.552 4.208-.54 1.312 1.013 1.553 2.897.54 4.208l-6.289 8.139c-.591.766-1.479 1.166-2.376 1.166zm12.578-16.277c-.641 0-1.286-.204-1.832-.626-1.312-1.013-1.553-2.897-.54-4.208l6.289-8.139c1.013-1.311 2.898-1.552 4.208-.54 1.312 1.013 1.553 2.897.54 4.208l-6.289 8.139c-.591.765-1.479 1.166-2.376 1.166z"/><path d="m165.6 197.252c-.641 0-1.286-.204-1.832-.626-1.312-1.013-1.553-2.897-.54-4.208l3.668-4.748c1.014-1.311 2.897-1.553 4.208-.54 1.312 1.013 1.553 2.897.54 4.208l-3.668 4.748c-.591.765-1.479 1.166-2.376 1.166z"/></g><path d="m82.945 85.485h60v30h-60z" fill="#a4d4a0" transform="matrix(.611 -.791 .791 .611 -35.627 128.415)"/><path d="m135.169 125.84h60v30h-60z" fill="#419b46" transform="matrix(.611 -.791 .791 .611 -47.268 185.42)"/><path d="m109.057 102.663h60v36h-60z" fill="#65bc49" transform="matrix(.611 -.791 .791 .611 -41.448 156.918)"/><path d="m158.693 176.75c-.641 0-1.286-.204-1.832-.626l-75.964-58.699c-.63-.487-1.04-1.203-1.142-1.993-.102-.789.115-1.586.602-2.216l36.688-47.477c1.013-1.31 2.897-1.552 4.208-.54l75.963 58.699c1.312 1.013 1.553 2.897.54 4.208l-36.687 47.477c-.59.767-1.478 1.167-2.376 1.167zm-71.754-62.238 71.217 55.03 33.018-42.729-71.216-55.03z" fill="#1c2d6b"/><path d="m125.338 95.474-.933 4.616c-.115.568.057 1.155.46 1.571l3.274 3.385c1.014 1.048.385 2.804-1.063 2.97l-4.678.539c-.575.066-1.081.411-1.352.923l-2.208 4.16c-.684 1.288-2.547 1.233-3.154-.093l-1.958-4.283c-.241-.527-.725-.901-1.296-1.001l-4.638-.815c-1.436-.252-1.96-2.042-.886-3.028l3.468-3.186c.426-.392.633-.968.552-1.541l-.659-4.663c-.204-1.444 1.336-2.495 2.606-1.778l4.102 2.314c.504.284 1.116.303 1.636.048l4.231-2.067c1.31-.641 2.785.499 2.496 1.929z" fill="#1c2d6b"/><path d="m147.364 112.493-.933 4.616c-.115.568.057 1.155.46 1.571l3.274 3.385c1.014 1.048.385 2.804-1.063 2.97l-4.678.539c-.575.066-1.081.411-1.352.923l-2.208 4.16c-.684 1.288-2.547 1.233-3.154-.093l-1.958-4.283c-.241-.527-.725-.901-1.296-1.001l-4.638-.815c-1.436-.252-1.96-2.042-.886-3.028l3.468-3.186c.426-.392.633-.968.552-1.541l-.659-4.663c-.204-1.444 1.336-2.495 2.606-1.778l4.102 2.314c.504.284 1.116.303 1.636.048l4.231-2.067c1.309-.64 2.784.5 2.496 1.929z" fill="#1c2d6b"/><path d="m169.389 129.512-.933 4.616c-.115.568.057 1.155.46 1.571l3.274 3.385c1.014 1.048.385 2.804-1.063 2.97l-4.678.539c-.575.066-1.081.411-1.352.923l-2.208 4.16c-.684 1.288-2.547 1.233-3.154-.093l-1.958-4.283c-.241-.527-.725-.901-1.296-1.001l-4.638-.815c-1.436-.252-1.96-2.042-.886-3.028l3.468-3.186c.426-.392.633-.968.552-1.541l-.659-4.663c-.204-1.444 1.336-2.495 2.606-1.778l4.102 2.314c.504.284 1.116.303 1.636.048l4.231-2.067c1.309-.64 2.785.5 2.496 1.929z" fill="#1c2d6b"/><path d="m78.47 194.46v-66.072c4.951 0 8.964-4.013 8.964-8.964h-47.964c0 8.284-6.716 15-15 15v54c8.284 0 15 6.716 15 15h47.964c.001-4.951-4.013-8.964-8.964-8.964z" fill="#ede49d"/><path d="m177.47 119.424h-47.964c0 4.951 4.013 8.964 8.964 8.964v66.072c-4.951 0-8.964 4.013-8.964 8.964h47.964c0-8.284 6.716-15 15-15v-54c-8.284 0-15-6.716-15-15z" fill="#d3ba2a"/><path d="m138.47 194.46v-66.072c-4.951 0-8.964-4.013-8.964-8.964h-42.071c0 4.951-4.013 8.964-8.964 8.964v66.072c4.951 0 8.964 4.013 8.964 8.964h42.072c-.001-4.951 4.013-8.964 8.963-8.964z" fill="#eee045"/><path d="m177.471 206.424h-138c-1.657 0-3-1.343-3-3 0-6.617-5.383-12-12-12-1.657 0-3-1.343-3-3v-54c0-1.657 1.343-3 3-3 6.617 0 12-5.383 12-12 0-1.657 1.343-3 3-3h138c1.657 0 3 1.343 3 3 0 6.617 5.383 12 12 12 1.657 0 3 1.343 3 3v54c0 1.657-1.343 3-3 3-6.617 0-12 5.383-12 12 0 1.657-1.343 3-3 3zm-135.25-6h132.5c1.268-7.526 7.224-13.482 14.75-14.75v-48.5c-7.526-1.268-13.482-7.224-14.75-14.75h-132.5c-1.268 7.526-7.224 13.482-14.75 14.75v48.5c7.526 1.268 13.482 7.223 14.75 14.75z" fill="#1c2d6b"/><path d="m162.471 128.424c-1.657 0-3-1.343-3-3v-6c0-1.657 1.343-3 3-3s3 1.343 3 3v6c0 1.657-1.343 3-3 3z" fill="#1c2d6b"/><path d="m162.471 190.138c-1.657 0-3-1.343-3-3v-10.286c0-1.657 1.343-3 3-3s3 1.343 3 3v10.286c0 1.657-1.343 3-3 3zm0-20.572c-1.657 0-3-1.343-3-3v-10.286c0-1.657 1.343-3 3-3s3 1.343 3 3v10.286c0 1.657-1.343 3-3 3zm0-20.571c-1.657 0-3-1.343-3-3v-10.286c0-1.657 1.343-3 3-3s3 1.343 3 3v10.286c0 1.657-1.343 3-3 3z" fill="#1c2d6b"/><path d="m162.471 206.424c-1.657 0-3-1.343-3-3v-6c0-1.657 1.343-3 3-3s3 1.343 3 3v6c0 1.657-1.343 3-3 3z" fill="#1c2d6b"/><path d="m48.47 131.424h30v60h-30z" fill="#89aadb"/><path d="m114.47 131.424h30v60h-30z" fill="#4b67b0"/><path d="m78.47 131.424h36v60h-36z" fill="#6287c5"/><path d="m144.471 194.424h-96c-1.657 0-3-1.343-3-3v-60c0-1.657 1.343-3 3-3h96c1.657 0 3 1.343 3 3v60c0 1.657-1.343 3-3 3zm-93-6h90v-54h-90z" fill="#1c2d6b"/><path d="m70.213 149.88 2.084 4.223c.256.519.752.879 1.325.962l4.66.677c1.443.21 2.019 1.983.975 3.001l-3.372 3.287c-.415.404-.604.986-.506 1.557l.796 4.642c.246 1.437-1.262 2.533-2.552 1.854l-4.168-2.191c-.512-.269-1.125-.269-1.637 0l-4.168 2.191c-1.291.678-2.799-.417-2.552-1.854l.796-4.642c.098-.571-.091-1.153-.506-1.557l-3.372-3.287c-1.044-1.018-.468-2.791.975-3.001l4.66-.677c.573-.083 1.068-.443 1.325-.962l2.084-4.223c.644-1.307 2.508-1.307 3.153 0z" fill="#1c2d6b"/><path d="m98.048 149.88 2.084 4.223c.256.519.752.879 1.325.962l4.66.677c1.443.21 2.019 1.983.975 3.001l-3.372 3.287c-.415.404-.604.986-.506 1.557l.796 4.642c.246 1.437-1.262 2.533-2.552 1.854l-4.168-2.191c-.512-.269-1.125-.269-1.637 0l-4.168 2.191c-1.291.678-2.799-.417-2.552-1.854l.796-4.642c.098-.571-.091-1.153-.506-1.557l-3.372-3.287c-1.044-1.018-.468-2.791.975-3.001l4.66-.677c.573-.083 1.068-.443 1.325-.962l2.084-4.223c.643-1.307 2.508-1.307 3.153 0z" fill="#1c2d6b"/><path d="m125.883 149.88 2.084 4.223c.256.519.752.879 1.325.962l4.66.677c1.443.21 2.019 1.983.975 3.001l-3.372 3.287c-.415.404-.604.986-.506 1.557l.796 4.642c.246 1.437-1.262 2.533-2.552 1.854l-4.168-2.191c-.512-.269-1.125-.269-1.637 0l-4.168 2.191c-1.291.678-2.799-.417-2.552-1.854l.796-4.642c.098-.571-.091-1.153-.506-1.557l-3.372-3.287c-1.044-1.018-.468-2.791.975-3.001l4.66-.677c.573-.083 1.068-.443 1.325-.962l2.084-4.223c.643-1.307 2.507-1.307 3.153 0z" fill="#1c2d6b"/></svg>