<svg id="Layer_1" enable-background="new 0 0 256 256" height="512" viewBox="0 0 256 256" width="512" xmlns="http://www.w3.org/2000/svg"><path d="m179.156 111.568c-2.352-4.074-7.135-5.855-11.458-4.591l14.638 25.353c2.61.094 5.277-.505 7.706-1.907z" fill="#d3ba2a"/><path d="m156.429 113.143c.818 4.933 2.035 9.791 3.637 14.528l8.819-5.092-7.2-12.471z" fill="#ede49d"/><path d="m165.495 107.908-3.81 2.2 7.2 12.471 1.486 2.574c2.574 4.458 7.173 7.004 11.964 7.178l-14.638-25.353c-.752.219-1.492.521-2.202.93z" fill="#eee045"/><path d="m104.539 156.958 24 41.569 20.785-12 20.845 1.821-36-62.354-8.845 18.964z" fill="#eee045"/><path d="m151.248 117.728h13.771v72h-13.771z" fill="#eee045" transform="matrix(.866 -.5 .5 .866 -55.678 99.662)"/><path d="m115.901 151.36h9.529v48h-9.529z" fill="#ede49d" transform="matrix(.866 -.5 .5 .866 -71.514 83.827)"/><path d="m134.17 125.994v.002l-.001-.002-8.845 18.964-7.199 4.156 24 41.569 7.199-4.156 20.845 1.821-.001-.002.002.002 11.926-6.886-36-62.354z" fill="#d3ba2a"/><path d="m115.122 150.847-2.33 1.346 24 41.569 2.33-1.345 3.003-1.734-24-41.569z" fill="#eee045"/><path d="m128.542 201.527c-1.037 0-2.045-.538-2.601-1.501l-24-41.568c-.398-.689-.505-1.508-.3-2.276.206-.769.709-1.424 1.398-1.821l19.966-11.527 8.445-18.107c.473-1.014 1.471-1.68 2.588-1.729 1.142-.042 2.17.529 2.729 1.497l36 62.354c.56.969.533 2.168-.067 3.111-.601.944-1.685 1.477-2.791 1.377l-19.903-1.738-19.966 11.526c-.474.272-.989.402-1.498.402zm-19.905-43.471 21 36.373 18.188-10.5c.533-.309 1.148-.444 1.761-.391l15.104 1.319-30.237-52.373-6.41 13.742c-.26.558-.686 1.021-1.219 1.329z" fill="#1c2d6b"/><path d="m170.17 191.348c-.26 0-.521-.034-.776-.103-.769-.206-1.424-.708-1.821-1.397l-36-62.354c-.829-1.435-.337-3.27 1.098-4.098l11.926-6.886c.688-.398 1.506-.506 2.276-.3.769.206 1.424.708 1.821 1.397l36 62.354c.829 1.435.337 3.27-1.098 4.098l-11.926 6.886c-.46.266-.978.403-1.5.403zm-31.902-64.256 33 57.158 6.73-3.886-33-57.158z" fill="#1c2d6b"/><path d="m146.764 156.371c-8.693-15.057-18.633-28.988-28.688-40.207-11.339-12.651-22.548-28.361-32.35-45.339l-27.59 15.929c9.802 16.978 24.179 30.86 41.49 40.062 15.351 8.161 28.1 20.471 36.793 35.527l4.698 8.137 15 25.981 10.346-5.974-15-25.981z" fill="#ef7f72"/><path d="m113.683 54.684c9.802 16.978 17.803 34.541 23.09 50.686 4.688 14.317 11.783 29.892 20.476 44.948l4.698 8.137 15 25.981 10.346-5.974-15-25.981-4.698-8.137c-8.693-15.057-12.979-32.252-12.371-49.627.686-19.593-4.148-38.984-13.95-55.962z" fill="#e8383b"/><path d="m157.248 150.318c-8.693-15.057-15.788-30.631-20.476-44.948-5.286-16.145-13.287-33.708-23.09-50.686l-27.957 16.141c9.802 16.978 21.012 32.688 32.35 45.339 10.055 11.218 19.995 25.15 28.688 40.207l4.698 8.137 15 25.981 10.484-6.053-15-25.981z" fill="#e95947"/><path d="m187.292 178.462-11.03 6.368 12.039 13.834 6 10.392 18.384-10.613-6-10.393z" fill="#4b67b0"/><path d="m167.145 190.094-11.03 6.368-1.392 21.588 6 10.393 18.383-10.614-6-10.392z" fill="#89aadb"/><path d="m176.262 184.83-9.117 5.264 5.961 17.343 6 10.392 15.195-8.773-6-10.392z" fill="#6287c5"/><path d="m160.726 231.443c-1.037 0-2.045-.538-2.601-1.501l-6-10.392c-.297-.513-.435-1.102-.396-1.693l1.393-21.589c.064-1.001.625-1.903 1.494-2.404l31.177-18c.869-.501 1.933-.534 2.83-.092l19.393 9.589c.53.263.972.677 1.268 1.189l6 10.392c.398.689.506 1.508.3 2.276s-.708 1.424-1.397 1.821l-51.962 30c-.475.274-.991.404-1.499.404zm-2.951-14.106 4.045 7.008 46.766-27-4.045-7.007-17.14-8.476-28.396 16.395z" fill="#1c2d6b"/><path d="m165.522 46.694 2.496 4.344c10.42 18.129 5.413 40.996-10.893 53.274l-1.663.96c-.156-1.931-.254-3.86-.276-5.799 13.469-10.952 17.417-30.413 8.497-45.944l-12.826 7.405c-.492-1.633-1.019-3.245-1.599-4.85z" fill="#89aadb"/><path d="m168.075 37.137 5.965 10.332c13.275 22.993 5.398 52.39-17.603 65.67l-.02-.035c-.313-1.863-.565-3.738-.754-5.627l2.468-1.425c17.293-12.848 22.61-36.979 11.58-56.084l-3.465-6.001-17.684 10.21c-.582-1.569-1.213-3.122-1.884-4.663l.007-.027z" fill="#4b67b0"/><path d="m166.245 43.967 3.465 6.001c11.03 19.105 5.713 43.236-11.58 56.084l-2.468 1.425c-.075-.73-.142-1.465-.2-2.206l1.663-.96c16.306-12.278 21.313-35.145 10.893-53.274l-2.496-4.344-16.264 9.39c-.217-.637-.449-1.277-.697-1.907z" fill="#6287c5"/><path d="m156.439 116.14c-1.032 0-2.037-.534-2.595-1.489-.183-.313-.327-.692-.388-1.051-.323-1.93-.586-3.89-.78-5.823-.076-.746-.146-1.507-.205-2.272-.17-2.104-.264-4.069-.285-5.998-.01-.914.397-1.784 1.107-2.36 11.847-9.634 15.463-25.813 9.169-39.448l-10.106 5.835c-.793.456-1.753.529-2.605.19-.852-.338-1.502-1.046-1.767-1.923-.507-1.68-1.013-3.216-1.548-4.696-.221-.643-.436-1.24-.667-1.827-.561-1.509-1.174-3.026-1.844-4.565-.277-.639-.324-1.353-.134-2.021.214-.748.719-1.412 1.393-1.801l21.391-12.35c.688-.398 1.508-.505 2.276-.3.769.206 1.424.708 1.821 1.397l5.965 10.332c6.822 11.814 8.634 25.577 5.103 38.754-3.532 13.177-11.985 24.19-23.804 31.014-.472.272-.988.402-1.497.402zm1.777-15.299c.04 1.345.119 2.728.237 4.188.057.725.12 1.435.193 2.14.03.306.062.61.097.917 8.439-6.053 14.479-14.757 17.201-24.917 3.117-11.628 1.518-23.773-4.502-34.2l-4.466-7.734-16.519 9.538c.322.799.628 1.588.915 2.36.243.617.491 1.301.724 1.98.161.445.32.899.479 1.363l9.606-5.546c.689-.396 1.509-.506 2.28-.298.769.207 1.425.711 1.821 1.402 9.345 16.269 5.913 36.55-8.066 48.807z" fill="#1c2d6b"/><path d="m52.869 111.734 2.514 4.334c10.49 18.088 32.797 25.186 51.583 17.204l1.663-.96c-1.594-1.101-3.216-2.15-4.884-3.139-16.219 6.188-35.047-.123-44.037-15.614l12.826-7.405c-1.168-1.243-2.301-2.505-3.401-3.81z" fill="#89aadb"/><path d="m43.315 109.167 5.965 10.332c13.275 22.993 42.672 30.87 65.674 17.59l-.02-.035c-1.457-1.203-2.955-2.358-4.496-3.467l-2.468 1.425c-19.773 8.552-43.33 1.091-54.36-18.014l-3.465-6.002 17.684-10.21c-1.067-1.289-2.097-2.612-3.096-3.963l-.027-.007z" fill="#4b67b0"/><path d="m50.146 110.997 3.465 6.002c11.03 19.105 34.587 26.566 54.36 18.014l2.468-1.425c-.595-.43-1.198-.855-1.81-1.276l-1.663.96c-18.786 7.982-41.093.885-51.583-17.204l-2.514-4.334 16.264-9.39c-.443-.507-.882-1.027-1.303-1.557z" fill="#6287c5"/><path d="m90.99 146.555c-4.436 0-8.898-.583-13.296-1.762-13.177-3.529-24.19-11.979-31.011-23.795l-5.965-10.331c-.828-1.435-.337-3.27 1.098-4.098l21.391-12.351c.704-.408 1.542-.511 2.324-.287.636.182 1.221.576 1.615 1.108 1.001 1.353 2.009 2.643 2.995 3.834.431.54.84 1.024 1.253 1.497 1.049 1.244 2.127 2.451 3.327 3.729.627.667.915 1.585.781 2.491-.134.907-.674 1.702-1.468 2.161l-10.107 5.834c8.662 12.269 24.482 17.227 38.748 11.783.855-.325 1.812-.243 2.599.222 1.666.987 3.32 2.05 5.059 3.251.625.429 1.249.868 1.865 1.313 1.587 1.143 3.153 2.35 4.647 3.585.271.224.5.493.678.796.403.689.526 1.528.321 2.301-.204.772-.698 1.448-1.39 1.848-7.873 4.547-16.612 6.871-25.464 6.871zm-43.576-36.29 4.465 7.733c6.02 10.427 15.739 17.885 27.367 21 10.162 2.721 20.718 1.844 30.179-2.438-.245-.181-.491-.36-.738-.538-.581-.42-1.164-.83-1.755-1.236-1.209-.835-2.369-1.595-3.517-2.305-17.609 5.979-36.886-1.19-46.302-17.416-.4-.689-.509-1.509-.304-2.279s.708-1.427 1.398-1.825l9.607-5.545c-.332-.381-.656-.759-.976-1.138-.438-.502-.907-1.057-1.357-1.622-.505-.61-1.024-1.256-1.549-1.928z" fill="#1c2d6b"/><path d="m80.725 69.515-2.365-4.097c-1.004-1.738-.408-3.961 1.33-4.965l-27.555 15.909c-2.87 1.657-3.853 5.326-2.196 8.196s5.326 3.853 8.196 2.196l27.555-15.909c-1.739 1.004-3.962.408-4.965-1.33z" fill="#a4d4a0"/><path d="m135.273 28.362-27.555 15.909c1.738-1.004 3.961-.408 4.965 1.33l2.365 4.097c1.004 1.738.408 3.961-1.33 4.965l27.555-15.909c2.87-1.657 3.853-5.326 2.196-8.196s-5.326-3.853-8.196-2.196z" fill="#419b46"/><path d="m115.048 49.698-2.365-4.097c-1.004-1.738-3.227-2.334-4.965-1.33l-28.028 16.182c-1.738 1.004-2.334 3.227-1.33 4.965l2.365 4.097c1.004 1.738 3.227 2.334 4.965 1.33l28.028-16.182c1.738-1.003 2.334-3.226 1.33-4.965z" fill="#65bc49"/><path d="m55.149 90.557c-3.113 0-6.144-1.614-7.809-4.498-1.202-2.082-1.521-4.508-.899-6.83s2.111-4.263 4.193-5.464l83.139-48c2.082-1.202 4.507-1.522 6.829-.899 2.322.622 4.263 2.111 5.465 4.194 1.201 2.08 1.521 4.506.898 6.828-.622 2.322-2.11 4.263-4.192 5.465l-83.138 47.999c-1.414.816-2.96 1.204-4.486 1.205zm83.12-60c-.52 0-1.032.137-1.495.403l-83.139 48v.001c-.694.4-1.19 1.047-1.397 1.82-.208.774-.101 1.583.3 2.277.827 1.433 2.664 1.923 4.098 1.098l83.139-48c.693-.401 1.189-1.048 1.397-1.821.207-.774.101-1.582-.3-2.275-.401-.695-1.048-1.191-1.821-1.399-.26-.07-.523-.104-.782-.104zm-86.134 45.805h.01z" fill="#1c2d6b"/><path d="m110.333 93.27 2.669-3.741-4.318-11.22.862 13.216-10.398 8.202 12.836 3.264 4.587 12.424 4.957-7.85-3.952-7.802z" fill="#ede49d"/><path d="m128.41 93.507 3.591-12.748-12.303 4.904-11.014-7.354 7.558 9.35 4.575-.442 2.001 9.519 4.78 7.324 9.278-.367z" fill="#d3ba2a"/><path d="m120.817 87.217-4.575.442-7.558-9.35 4.318 11.22-2.669 3.741 7.243 6.493 3.952 7.802 2.114-3.348 3.956-.157-4.78-7.324z" fill="#eee045"/><path d="m116.572 118.415c-.104 0-.209-.006-.314-.017-1.136-.119-2.105-.873-2.501-1.944l-4.042-10.944-11.307-2.875c-1.107-.281-1.958-1.166-2.195-2.283s.18-2.272 1.077-2.979l9.16-7.227-.76-11.642c-.074-1.14.505-2.223 1.494-2.793.987-.571 2.216-.532 3.166.103l9.703 6.479 10.838-4.319c1.062-.422 2.27-.206 3.118.558.849.765 1.189 1.943.88 3.043l-3.163 11.229 7.458 8.973c.729.879.897 2.095.433 3.138-.464 1.044-1.48 1.732-2.621 1.778l-11.658.462-6.229 9.864c-.554.874-1.515 1.396-2.537 1.396zm-10.794-20.097 6.944 1.766c.957.243 1.733.941 2.075 1.868l2.482 6.722 3.826-6.059c.527-.835 1.431-1.357 2.418-1.396l7.16-.283-4.581-5.511c-.631-.76-.848-1.781-.581-2.731l1.943-6.896-6.656 2.653c-.917.364-1.956.256-2.777-.292l-5.958-3.979.466 7.15c.064.985-.36 1.939-1.136 2.551z" fill="#1c2d6b"/><path d="m156.118 199.463c-1.037 0-2.045-.538-2.601-1.501l-19.698-34.118c-8.421-14.585-20.732-26.473-35.603-34.378-17.827-9.477-32.585-23.728-42.68-41.212-.828-1.435-.337-3.27 1.098-4.098l83.139-48c.688-.398 1.509-.505 2.276-.3.769.206 1.424.708 1.821 1.397 10.095 17.484 15.057 37.392 14.351 57.567-.589 16.833 3.55 33.438 11.971 48.022l19.697 34.118c.398.689.506 1.508.3 2.276s-.708 1.424-1.397 1.821l-31.177 18c-.472.276-.988.406-1.497.406zm-93.847-111.633c9.465 15.334 22.813 27.859 38.762 36.337 15.865 8.435 29 21.117 37.982 36.677l18.198 31.521 25.981-15-18.198-31.521c-8.983-15.559-13.399-33.274-12.771-51.231.632-18.051-3.542-35.874-12.089-51.738z" fill="#1c2d6b"/><path d="m182.872 135.349c-6.011.001-11.862-3.111-15.085-8.672l-6.222 3.592c-.778.45-1.717.528-2.559.209-.841-.316-1.495-.994-1.783-1.846-1.65-4.88-2.913-9.927-3.755-14.998-.204-1.233.377-2.464 1.46-3.089l9.066-5.234c3.007-1.736 6.511-2.197 9.865-1.3 3.354.899 6.157 3.051 7.894 6.058l10.886 18.855c.398.689.506 1.508.3 2.276s-.709 1.424-1.397 1.822c-2.732 1.578-5.721 2.327-8.67 2.327zm-13.99-15.771c1.037 0 2.045.538 2.601 1.5l1.486 2.573c2.623 4.546 7.929 6.601 12.774 5.327l-9.186-15.91c-.936-1.619-2.444-2.777-4.25-3.262-1.809-.482-3.693-.234-5.312.699l-7.244 4.183c.544 2.864 1.229 5.712 2.051 8.516l5.583-3.223c.472-.273.988-.403 1.497-.403zm-3.387-11.67h.01z" fill="#1c2d6b"/><path d="m166.57 182.113c-1.988-3.444-.808-7.847 2.635-9.835l15.044-8.686c3.444-1.988 7.847-.808 9.835 2.635 1.988 3.444.808 7.847-2.635 9.835l-15.044 8.686c-3.444 1.988-7.847.808-9.835-2.635z" fill="#eee045"/><path d="m184.249 163.591-6.912 3.991c1.846-1.066 4.206-.433 5.271 1.412l3.341 5.787c1.066 1.846.433 4.205-1.412 5.271l6.912-3.991c3.444-1.988 4.624-6.392 2.635-9.835s-6.391-4.623-9.835-2.635z" fill="#d3ba2a"/><path d="m178.046 179.345-3.341-5.787c-1.058-1.832-.439-4.168 1.376-5.245l-.002-.004-6.873 3.968c-3.444 1.988-4.624 6.392-2.635 9.835s6.392 4.624 9.835 2.635l6.912-3.991c-1.846 1.066-4.206.434-5.272-1.411z" fill="#ede49d"/><path d="m174.705 173.557 3.341 5.787c1.066 1.846 3.425 2.478 5.271 1.412l1.22-.704c1.846-1.066 2.478-3.425 1.412-5.271l-3.341-5.787c-1.066-1.846-3.425-2.478-5.271-1.412l-1.22.704c-1.845 1.066-2.478 3.426-1.412 5.271z" fill="#eee045"/><path d="m177.049 151.12-6.912 3.991c1.846-1.066 4.206-.433 5.271 1.412l3.341 5.787c1.066 1.846.433 4.205-1.412 5.271l6.912-3.991c3.444-1.988 4.624-6.392 2.635-9.835s-6.391-4.623-9.835-2.635z" fill="#d3ba2a"/><path d="m170.846 166.874-3.341-5.787c-1.058-1.832-.439-4.168 1.376-5.245l-.002-.004-6.873 3.968c-3.444 1.988-4.624 6.392-2.635 9.835s6.392 4.624 9.835 2.635l6.912-3.991c-1.846 1.067-4.206.434-5.272-1.411z" fill="#ede49d"/><path d="m167.505 161.086 3.341 5.787c1.066 1.846 3.425 2.478 5.271 1.412l1.22-.704c1.846-1.066 2.478-3.425 1.412-5.271l-3.341-5.787c-1.066-1.846-3.425-2.478-5.271-1.412l-1.22.704c-1.845 1.066-2.478 3.426-1.412 5.271z" fill="#eee045"/><path d="m169.849 138.65-6.912 3.991c1.846-1.066 4.206-.433 5.271 1.412l3.341 5.787c1.066 1.846.433 4.205-1.412 5.271l6.912-3.991c3.444-1.988 4.624-6.392 2.635-9.835s-6.391-4.624-9.835-2.635z" fill="#d3ba2a"/><path d="m163.646 154.403-3.341-5.787c-1.058-1.832-.439-4.168 1.376-5.245l-.002-.004-6.873 3.968c-3.444 1.988-4.624 6.392-2.635 9.835s6.392 4.624 9.835 2.635l6.912-3.991c-1.846 1.067-4.206.435-5.272-1.411z" fill="#ede49d"/><path d="m160.305 148.616 3.341 5.787c1.066 1.846 3.425 2.478 5.271 1.412l1.22-.704c1.846-1.066 2.478-3.425 1.412-5.271l-3.341-5.787c-1.066-1.846-3.425-2.478-5.271-1.412l-1.22.704c-1.845 1.065-2.478 3.425-1.412 5.271z" fill="#eee045"/><path d="m162.649 126.179-6.912 3.991c1.846-1.066 4.206-.433 5.271 1.412l3.341 5.787c1.066 1.846.433 4.205-1.412 5.271l6.912-3.991c3.444-1.988 4.624-6.392 2.635-9.835-1.987-3.444-6.391-4.624-9.835-2.635z" fill="#d3ba2a"/><path d="m156.446 141.932-3.341-5.787c-1.058-1.832-.439-4.168 1.376-5.245l-.002-.004-6.873 3.968c-3.444 1.988-4.624 6.392-2.635 9.835 1.988 3.444 6.392 4.624 9.835 2.635l6.912-3.991c-1.846 1.067-4.206.435-5.272-1.411z" fill="#ede49d"/><path d="m153.105 136.145 3.341 5.787c1.066 1.846 3.425 2.478 5.271 1.412l1.22-.704c1.846-1.066 2.478-3.425 1.412-5.271l-3.341-5.787c-1.066-1.846-3.425-2.478-5.271-1.412l-1.22.704c-1.845 1.065-2.478 3.425-1.412 5.271z" fill="#eee045"/><g fill="#1c2d6b"><path d="m172.821 188.717c-.886 0-1.777-.116-2.656-.352-2.632-.705-4.832-2.394-6.194-4.753-1.361-2.359-1.724-5.108-1.019-7.74.706-2.631 2.394-4.83 4.753-6.192l15.044-8.687c4.869-2.812 11.122-1.138 13.934 3.733 1.362 2.359 1.725 5.108 1.02 7.74s-2.394 4.831-4.754 6.193l-15.043 8.686c-1.573.909-3.317 1.372-5.085 1.372zm15.021-23.09c-.712 0-1.434.182-2.093.562l-15.044 8.686c-.972.562-1.667 1.467-1.957 2.551s-.142 2.215.419 3.187h.001c.561.972 1.466 1.667 2.55 1.957 1.08.291 2.215.142 3.188-.42l15.044-8.686c.972-.562 1.667-1.467 1.957-2.55.291-1.084.142-2.216-.419-3.188-.778-1.345-2.193-2.099-3.646-2.099z"/><path d="m165.622 176.246c-.886 0-1.778-.116-2.657-.352-2.632-.706-4.831-2.394-6.193-4.753h-.001c-2.811-4.871-1.136-11.121 3.734-13.933l15.045-8.687c2.357-1.362 5.104-1.726 7.74-1.02 2.631.706 4.83 2.394 6.192 4.753s1.725 5.108 1.02 7.739c-.705 2.632-2.394 4.832-4.753 6.194l-15.044 8.686c-1.571.909-3.315 1.373-5.083 1.373zm-3.654-8.104c.561.972 1.467 1.667 2.55 1.957 1.084.288 2.215.141 3.188-.419l15.044-8.687c.972-.562 1.667-1.467 1.957-2.551.291-1.083.142-2.215-.419-3.187-.562-.972-1.467-1.667-2.551-1.957-1.086-.29-2.216-.141-3.187.419l-15.045 8.687c-2.005 1.158-2.695 3.733-1.537 5.738z"/><path d="m158.422 163.775c-.886 0-1.777-.116-2.657-.352-2.631-.706-4.83-2.394-6.192-4.753s-1.725-5.107-1.02-7.739 2.393-4.831 4.752-6.193l15.045-8.687c2.358-1.362 5.104-1.725 7.74-1.02 2.631.706 4.83 2.394 6.192 4.753s1.725 5.107 1.02 7.739-2.393 4.831-4.752 6.193l-15.045 8.687c-1.571.909-3.316 1.372-5.083 1.372zm15.02-23.091c-.728 0-1.445.19-2.093.563l-15.045 8.687c-.972.562-1.666 1.467-1.956 2.551-.291 1.083-.142 2.215.419 3.187.562.972 1.467 1.667 2.551 1.957 1.085.29 2.215.141 3.187-.419l15.045-8.687c.972-.562 1.666-1.467 1.956-2.551.291-1.083.142-2.215-.419-3.187-.562-.972-1.467-1.667-2.551-1.957-.362-.097-.729-.144-1.094-.144z"/><path d="m151.222 151.305c-.886 0-1.777-.116-2.657-.352-2.631-.706-4.83-2.394-6.192-4.753s-1.725-5.108-1.02-7.739c.705-2.632 2.394-4.832 4.753-6.194l15.044-8.686c2.359-1.364 5.108-1.725 7.74-1.02s4.831 2.394 6.193 4.754c1.361 2.358 1.724 5.106 1.019 7.738s-2.393 4.831-4.752 6.193l-15.045 8.687c-1.572.908-3.316 1.372-5.083 1.372zm15.02-23.093c-.728 0-1.445.191-2.093.564l-15.044 8.687c-.972.562-1.667 1.467-1.957 2.551-.291 1.083-.142 2.215.419 3.187.562.972 1.467 1.667 2.551 1.957 1.086.29 2.215.141 3.187-.419l15.045-8.687c.972-.562 1.666-1.467 1.956-2.551.291-1.083.142-2.215-.419-3.187-.562-.972-1.467-1.667-2.55-1.957-.362-.097-.73-.145-1.095-.145z"/></g><path d="m102.99 191.077h25.203v20.456h-25.203z" fill="#419b46" transform="matrix(.866 -.5 .5 .866 -85.166 84.766)"/><path d="m82.464 155.525h25.203v20.456h-25.203z" fill="#a4d4a0" transform="matrix(.866 -.5 .5 .866 -70.14 69.74)"/><path d="m92.727 173.231h25.203v20.596h-25.203z" fill="#65bc49" transform="matrix(.866 -.5 .5 .866 -77.653 77.253)"/><path d="m109.796 219.465c-1.037 0-2.045-.538-2.601-1.501l-30.755-53.268c-.398-.689-.505-1.508-.3-2.276.206-.769.709-1.424 1.398-1.821l21.827-12.602c1.436-.83 3.27-.337 4.098 1.098l30.754 53.268c.398.689.506 1.508.3 2.276s-.708 1.424-1.397 1.821l-21.827 12.602c-.473.273-.988.403-1.497.403zm-26.659-55.171 27.754 48.072 16.631-9.602-27.755-48.072z" fill="#1c2d6b"/></svg>