<svg id="Layer_1" enable-background="new 0 0 256 256" height="512" viewBox="0 0 256 256" width="512" xmlns="http://www.w3.org/2000/svg"><path d="m98.026 116c-33.137 0-60 26.863-60 60v48h36v-84c0-13.255 10.745-24 24-24z" fill="#ef7f72"/><path d="m98.026 116c13.255 0 24 10.745 24 24v84h36v-48c0-33.137-26.863-60-60-60z" fill="#e8383b"/><path d="m98.026 116c-13.255 0-24 10.745-24 24v84h48v-84c0-13.255-10.746-24-24-24z" fill="#e95947"/><path d="m149.979 146c-.942.001-1.86.1-2.757.257 1.468 8.77 2.313 18.914 2.313 29.743v48h8.49v-48c.001-10.932-2.938-21.172-8.046-30z" fill="#419b46"/><path d="m146.026 146.518c-6.896 1.768-12 8.005-12 15.452v62.03h8.49v-62.03c0-7.447 1.493-13.684 3.51-15.452z" fill="#a4d4a0"/><path d="m147.222 146.257c-.405.071-.803.16-1.197.261-2.017 1.768-3.51 8.005-3.51 15.452v62.03h7.019v-48c.001-10.828-.844-20.973-2.312-29.743z" fill="#65bc49"/><path d="m46.072 146c.942.001 1.86.1 2.757.257-1.468 8.77-2.313 18.914-2.313 29.743v48h-8.49v-48c0-10.932 2.938-21.172 8.046-30z" fill="#419b46"/><path d="m50.026 146.518c6.896 1.768 12 8.005 12 15.452v62.03h-8.49v-62.03c-.001-7.447-1.494-13.684-3.51-15.452z" fill="#a4d4a0"/><path d="m53.536 161.97v62.03h-7.02v-48c0-10.83.85-20.97 2.31-29.74.41.07.81.16 1.2.26 2.02 1.77 3.51 8 3.51 15.45z" fill="#65bc49"/><path d="m158.025 227h-120c-1.657 0-3-1.343-3-3v-48c0-34.738 28.262-63 63-63s63 28.262 63 63v48c0 1.657-1.342 3-3 3zm-117-6h114v-45c0-31.43-25.57-57-57-57s-57 25.57-57 57z" fill="#1c2d6b"/><path d="m158.025 227h-24c-1.657 0-3-1.343-3-3v-62.03c0-10.449 8.501-18.958 18.95-18.97h.003c1.07 0 2.061.57 2.597 1.498 5.528 9.553 8.45 20.446 8.45 31.502v48c0 1.657-1.342 3-3 3zm-21-6h18v-45c0-9.386-2.327-18.642-6.746-26.887-6.343.843-11.254 6.29-11.254 12.857z" fill="#1c2d6b"/><path d="m80.026 124.497 18 51.503-5.6-51.503z" fill="#a4d4a0"/><path d="m103.626 124.497-5.6 51.503 18-51.503z" fill="#419b46"/><path d="m92.426 124.497 5.6 51.503 5.6-51.503z" fill="#65bc49"/><path d="m98.025 179c-1.275 0-2.411-.806-2.832-2.01l-18-51.502c-.547-1.564.278-3.275 1.842-3.822 1.568-.545 3.275.278 3.822 1.842l15.168 43.399 15.168-43.399c.547-1.564 2.255-2.387 3.822-1.842 1.563.547 2.389 2.258 1.842 3.822l-18 51.502c-.42 1.204-1.556 2.01-2.832 2.01z" fill="#1c2d6b"/><path d="m98.025 227c-1.657 0-3-1.343-3-3v-48c0-1.657 1.343-3 3-3s3 1.343 3 3v48c0 1.657-1.342 3-3 3z" fill="#1c2d6b"/><path d="m117.437 146.632h-9.335c-.326 0-.639-.027-.87-.076l-4.131-1.176c-.448.12-1.138.199-1.921.199h-6.308c-.784 0-1.474-.079-1.921-.199l-4.131 1.176c-.231.048-.544.076-.87.076h-9.335c-.68 0-1.231-.116-1.231-.258v7.279c0 .68.551 1.231 1.231 1.231h9.335c.326 0 .639-.13.87-.36l4.131-5.606c.448.574 1.138.949 1.921.949h6.308c.784 0 1.474-.375 1.921-.949l4.131 5.606c.231.231.544.36.87.36h9.335c.68 0 1.231-.551 1.231-1.231v-7.279c0 .142-.551.258-1.231.258z" fill="#d3ba2a"/><path d="m117.437 134h-9.335c-.326 0-.639.13-.87.36l-4.082 5.314c-.445-.609-1.159-1.009-1.971-1.009h-6.308c-.812 0-1.526.4-1.971 1.009l-4.082-5.314c-.231-.231-.544-.36-.87-.36h-9.335c-.68 0-1.231.551-1.231 1.231v7.279c0-.143.551-.258 1.231-.258h9.335c.326 0 .639.027.87.076l4.082 1.115c.445-.128 1.159-.212 1.971-.212h6.308c.812 0 1.526.084 1.971.212l4.082-1.115c.231-.048.544-.076.87-.076h9.335c.68 0 1.231.116 1.231.258v-7.279c0-.68-.551-1.231-1.231-1.231z" fill="#ede49d"/><path d="m117.437 142.252h-9.335c-.326 0-.639.027-.87.076l-4.082 1.115c-.445-.128-1.159-.212-1.971-.212h-6.308c-.812 0-1.526.084-1.971.212l-4.082-1.115c-.231-.048-.544-.076-.87-.076h-9.335c-.68 0-1.231.116-1.231.258v3.864c0 .143.551.258 1.231.258h9.335c.326 0 .639-.027.87-.076l4.131-1.176c.448.12 1.138.199 1.921.199h6.308c.784 0 1.474-.079 1.921-.199l4.131 1.176c.231.048.544.076.87.076h9.335c.68 0 1.231-.116 1.231-.258v-3.864c.002-.143-.549-.258-1.229-.258z" fill="#eee045"/><g fill="#1c2d6b"><path d="m87.945 157.88h-9.33c-2.332 0-4.229-1.897-4.229-4.23v-18.42c0-2.333 1.897-4.23 4.229-4.23h9.33c1.132 0 2.195.44 2.994 1.241.091.091.176.189.255.292l4.08 5.31c.772 1.005.826 2.381.151 3.439v5.951c.713 1.046.693 2.438-.066 3.468l-4.13 5.6c-.088.12-.186.233-.29.338-.798.8-1.862 1.241-2.994 1.241zm-7.559-6h6.649l2.499-3.389c-.071-.352-.108-.71-.108-1.071v-6.31c0-.31.027-.621.081-.926l-2.446-3.184h-6.675z"/><path d="m117.436 157.88h-9.33c-1.129 0-2.19-.439-2.989-1.236-.106-.107-.206-.221-.295-.343l-4.13-5.6c-.761-1.031-.779-2.423-.065-3.47v-5.948c-.676-1.059-.622-2.435.15-3.441l4.08-5.31c.08-.104.167-.203.26-.296.799-.797 1.86-1.236 2.989-1.236h9.33c2.333 0 4.23 1.897 4.23 4.23v18.42c0 2.332-1.897 4.23-4.23 4.23zm-8.42-6h6.65v-14.88h-6.676l-2.445 3.183c.054.306.081.617.081.927v6.31c0 .361-.037.72-.108 1.072z"/><path d="m101.18 152.866h-6.308c-3.003 0-5.446-2.443-5.446-5.446v-6.308c0-3.003 2.443-5.446 5.446-5.446h6.308c3.003 0 5.446 2.443 5.446 5.446v6.308c0 3.002-2.443 5.446-5.446 5.446zm-5.754-6h5.2v-5.2h-5.2z"/><path d="m62.025 227h-24c-1.657 0-3-1.343-3-3v-48c0-11.056 2.922-21.949 8.45-31.502.536-.927 1.526-1.498 2.597-1.498h.003c10.449.012 18.95 8.521 18.95 18.97v62.03c0 1.657-1.342 3-3 3zm-21-6h18v-59.03c0-6.567-4.911-12.014-11.254-12.857-4.419 8.245-6.746 17.5-6.746 26.887z"/></g><path d="m82.026 80c0-26.51 7.163-48 16-48-26.51 0-48 21.49-48 48s21.49 48 48 48c-8.837 0-16-21.49-16-48z" fill="#ede49d"/><path d="m98.026 32c8.837 0 16 21.49 16 48s-7.163 48-16 48c26.51 0 48-21.49 48-48s-21.491-48-48-48z" fill="#d3ba2a"/><ellipse cx="98.026" cy="80" fill="#eee045" rx="16" ry="48"/><circle cx="82.026" cy="83.941" fill="#1c2d6b" r="3.941"/><circle cx="114.026" cy="83.941" fill="#1c2d6b" r="3.941"/><path d="m98.025 99c-3.912 0-7.562-2.104-9.523-5.493-.831-1.434-.342-3.269 1.092-4.1 1.436-.831 3.271-.341 4.1 1.093.894 1.542 2.553 2.5 4.332 2.5s3.438-.958 4.332-2.5c.829-1.434 2.665-1.923 4.1-1.093 1.434.831 1.923 2.666 1.092 4.1-1.963 3.389-5.612 5.493-9.525 5.493z" fill="#1c2d6b"/><path d="m98.026 32c-26.51 0-48 21.49-48 48 12.576 0 24.017-4.843 32.576-12.757 1.862-20.315 8.06-35.243 15.424-35.243z" fill="#89aadb"/><path d="m113.45 67.243c8.558 7.915 20 12.757 32.576 12.757 0-26.51-21.49-48-48-48 7.363 0 13.561 14.928 15.424 35.243z" fill="#4b67b0"/><path d="m98.026 32c0 13.933 5.942 26.474 15.424 35.243-1.863-20.315-8.061-35.243-15.424-35.243-7.364 0-13.561 14.928-15.424 35.243 9.481-8.769 15.424-21.31 15.424-35.243z" fill="#6287c5"/><path d="m146.025 83c-22.073 0-40.915-14.095-48-33.757-7.085 19.662-25.926 33.757-48 33.757-1.657 0-3-1.343-3-3 0-28.122 22.879-51 51-51s51 22.878 51 51c0 1.657-1.342 3-3 3zm-44.893-47.894c1.529 22.345 19.443 40.258 41.787 41.788-1.529-22.345-19.443-40.258-41.787-41.788zm-6.213 0c-22.344 1.53-40.258 19.443-41.787 41.788 22.344-1.53 40.258-19.443 41.787-41.788z" fill="#1c2d6b"/><path d="m98.025 131c-28.121 0-51-22.878-51-51s22.879-51 51-51 51 22.878 51 51-22.879 51-51 51zm0-96c-24.813 0-45 20.187-45 45s20.187 45 45 45 45-20.187 45-45-20.186-45-45-45z" fill="#1c2d6b"/><path d="m98.025 113h-28c-12.683 0-23-10.318-23-23v-10c0-1.657 1.343-3 3-3s3 1.343 3 3v10c0 9.374 7.626 17 17 17h28c1.657 0 3 1.343 3 3s-1.342 3-3 3z" fill="#1c2d6b"/><path d="m98.025 113h-12.058c-1.657 0-3-1.343-3-3 0-4.962 4.037-9 9-9 5.021 0 9.059 4.038 9.059 9-.001 1.657-1.343 3-3.001 3zm-6-6h.01z" fill="#1c2d6b"/><path d="m98.009 206h35.983v18h-35.983z" fill="#ede49d"/><path d="m181.991 206h35.983v18h-35.983z" fill="#d3ba2a"/><path d="m133.991 206h48v18h-48z" fill="#eee045"/><path d="m217.975 227h-119.966c-1.657 0-3-1.343-3-3v-18c0-1.657 1.343-3 3-3h119.966c1.657 0 3 1.343 3 3v18c0 1.657-1.343 3-3 3zm-116.966-6h113.966v-12h-113.966z" fill="#1c2d6b"/><path d="m157.991 140c9.941 0 18 8.059 18 18v36h29.983v-6.017c0-26.5-21.482-47.983-47.983-47.983z" fill="#4b67b0"/><path d="m157.991 140c-26.5 0-47.983 21.483-47.983 47.983v6.017h29.983v-36c0-9.941 8.059-18 18-18z" fill="#89aadb"/><path d="m157.991 140c-9.941 0-18 8.059-18 18v36h36v-36c0-9.941-8.058-18-18-18z" fill="#6287c5"/><path d="m205.975 197h-95.966c-1.657 0-3-1.343-3-3v-6.017c0-28.112 22.871-50.983 50.982-50.983 28.112 0 50.983 22.871 50.983 50.983v6.017c.001 1.657-1.342 3-2.999 3zm-92.966-6h89.966v-3.017c0-24.804-20.18-44.983-44.983-44.983s-44.982 20.179-44.982 44.983v3.017z" fill="#1c2d6b"/><path d="m205.974 194h-33.512c1.91 0 3.459 1.549 3.459 3.459v5.082c0 1.91-1.549 3.459-3.459 3.459h33.512c3.314 0 6-2.686 6-6s-2.686-6-6-6z" fill="#419b46"/><path d="m140.028 202.541v-5.082c0-1.91 1.549-3.459 3.459-3.459h-33.512c-3.314 0-6 2.686-6 6s2.686 6 6 6h33.512c-1.911 0-3.459-1.549-3.459-3.459z" fill="#a4d4a0"/><path d="m175.921 202.541v-5.082c0-1.91-1.549-3.459-3.459-3.459h-28.975c-1.91 0-3.459 1.549-3.459 3.459v5.082c0 1.91 1.549 3.459 3.459 3.459h28.975c1.91 0 3.459-1.549 3.459-3.459z" fill="#65bc49"/><path d="m205.975 209h-96c-4.963 0-9-4.038-9-9s4.037-9 9-9h96c4.963 0 9 4.038 9 9s-4.037 9-9 9zm-96-12c-1.654 0-3 1.346-3 3s1.346 3 3 3h96c1.654 0 3-1.346 3-3s-1.346-3-3-3z" fill="#1c2d6b"/><path d="m157.975 143c-1.657 0-3-1.343-3-3v-6c0-1.657 1.343-3 3-3s3 1.343 3 3v6c0 1.657-1.343 3-3 3z" fill="#1c2d6b"/></svg>