<svg id="Layer_1" enable-background="new 0 0 256 256" height="512" viewBox="0 0 256 256" width="512" xmlns="http://www.w3.org/2000/svg"><path d="m121.319 84.303c0-7.586 1.273-14.233 3.182-17.94-1.262-3.217-2.069-8.134-2.069-13.647 0-9.692 2.493-17.549 5.568-17.549-9.692 0-17.549 7.857-17.549 17.549 0 5.513 2.545 10.43 6.521 13.647-6.018 3.707-10.031 10.354-10.031 17.94v3.51 7.019h14.377v-7.019-3.51z" fill="#89aadb"/><path d="m139.028 66.363c3.976-3.217 6.521-8.134 6.521-13.647 0-9.692-7.857-17.549-17.549-17.549 3.075 0 5.568 7.857 5.568 17.549 0 5.513-.807 10.43-2.069 13.647 1.909 3.707 3.182 10.354 3.182 17.94v3.51 7.019h14.377v-7.019-3.51c0-7.586-4.013-14.233-10.03-17.94z" fill="#4b67b0"/><path d="m134.681 84.303c0-7.586-1.273-14.233-3.182-17.94 1.262-3.217 2.069-8.134 2.069-13.647 0-9.692-2.493-17.549-5.568-17.549-3.075 0-5.568 7.857-5.568 17.549 0 5.513.807 10.43 2.069 13.647-1.909 3.707-3.182 10.354-3.182 17.94v3.51 7.019h13.362v-7.019z" fill="#6287c5"/><path d="m128 73.265c-11.331 0-20.549-9.218-20.549-20.549s9.218-20.549 20.549-20.549 20.549 9.218 20.549 20.548-9.218 20.55-20.549 20.55zm0-35.098c-8.022 0-14.549 6.526-14.549 14.548s6.526 14.549 14.549 14.549 14.549-6.526 14.549-14.549c0-8.021-6.527-14.548-14.549-14.548z" fill="#1c2d6b"/><path d="m149.059 97.833h-42.117c-1.657 0-3-1.343-3-3v-10.53c0-8.413 4.283-16.074 11.458-20.494 1.082-.667 2.47-.58 3.46.222 2.614 2.115 5.775 3.233 9.141 3.233s6.526-1.118 9.141-3.233c.989-.802 2.378-.889 3.46-.222 7.175 4.42 11.458 12.081 11.458 20.494v10.529c-.001 1.657-1.344 3.001-3.001 3.001zm-39.118-6h36.117v-7.529c0-5.659-2.583-10.865-6.996-14.274-3.287 2.099-7.14 3.235-11.062 3.235s-7.775-1.137-11.062-3.235c-4.413 3.409-6.996 8.615-6.996 14.274v7.529z" fill="#1c2d6b"/><path d="m180.529 108.303c0-7.586 1.273-14.233 3.182-17.94-1.262-3.217-2.069-8.134-2.069-13.647 0-9.692 2.493-17.549 5.568-17.549-9.692 0-17.549 7.857-17.549 17.549 0 5.513 2.545 10.43 6.521 13.647-6.017 3.707-10.031 10.354-10.031 17.94v3.51 7.019h14.377v-7.019-3.51z" fill="#89aadb"/><path d="m198.238 90.363c3.976-3.217 6.521-8.134 6.521-13.647 0-9.692-7.857-17.549-17.549-17.549 3.075 0 5.568 7.857 5.568 17.549 0 5.513-.807 10.43-2.069 13.647 1.909 3.707 3.182 10.354 3.182 17.94v3.51 7.019h14.377v-7.019-3.51c.001-7.586-4.012-14.233-10.03-17.94z" fill="#4b67b0"/><path d="m193.892 108.303c0-7.586-1.273-14.233-3.182-17.94 1.262-3.217 2.069-8.134 2.069-13.647 0-9.692-2.493-17.549-5.568-17.549-3.075 0-5.568 7.857-5.568 17.549 0 5.513.807 10.43 2.069 13.647-1.909 3.707-3.182 10.354-3.182 17.94v3.51 7.019h13.362v-7.019z" fill="#6287c5"/><path d="m187.211 97.265c-11.331 0-20.549-9.218-20.549-20.549s9.218-20.548 20.549-20.548c11.33 0 20.548 9.218 20.548 20.548s-9.218 20.549-20.548 20.549zm0-35.098c-8.022 0-14.549 6.526-14.549 14.548s6.526 14.549 14.549 14.549c8.021 0 14.548-6.526 14.548-14.549 0-8.021-6.527-14.548-14.548-14.548z" fill="#1c2d6b"/><path d="m208.269 121.833h-42.116c-1.657 0-3-1.343-3-3v-10.529c0-8.414 4.283-16.075 11.457-20.494 1.082-.666 2.471-.58 3.46.222 2.614 2.115 5.775 3.233 9.142 3.233 3.365 0 6.526-1.118 9.141-3.233.989-.802 2.378-.888 3.46-.222 7.174 4.419 11.457 12.081 11.457 20.494v10.529c-.001 1.656-1.344 3-3.001 3zm-39.117-6h36.116v-7.529c0-5.659-2.582-10.865-6.995-14.274-3.287 2.099-7.14 3.235-11.062 3.235s-7.776-1.137-11.063-3.235c-4.413 3.409-6.995 8.615-6.995 14.274v7.529z" fill="#1c2d6b"/><path d="m62.108 108.303c0-7.586 1.273-14.233 3.182-17.94-1.262-3.217-2.069-8.134-2.069-13.647 0-9.692 2.493-17.549 5.568-17.549-9.692 0-17.549 7.857-17.549 17.549 0 5.513 2.544 10.43 6.521 13.647-6.018 3.707-10.031 10.354-10.031 17.94v3.51 7.019h14.377v-7.019-3.51z" fill="#a4d4a0"/><path d="m79.817 90.363c3.976-3.217 6.521-8.134 6.521-13.647 0-9.692-7.857-17.549-17.549-17.549 3.075 0 5.568 7.857 5.568 17.549 0 5.513-.807 10.43-2.069 13.647 1.909 3.707 3.182 10.354 3.182 17.94v3.51 7.019h14.377v-7.019-3.51c.001-7.586-4.012-14.233-10.03-17.94z" fill="#419b46"/><path d="m75.471 108.303c0-7.586-1.273-14.233-3.182-17.94 1.262-3.217 2.069-8.134 2.069-13.647 0-9.692-2.493-17.549-5.568-17.549-3.075 0-5.568 7.857-5.568 17.549 0 5.513.807 10.43 2.069 13.647-1.909 3.707-3.182 10.354-3.182 17.94v3.51 7.019h13.362v-7.019z" fill="#65bc49"/><path d="m68.789 97.265c-11.33 0-20.548-9.218-20.548-20.549s9.218-20.548 20.548-20.548c11.331 0 20.549 9.218 20.549 20.548s-9.218 20.549-20.549 20.549zm0-35.098c-8.021 0-14.548 6.526-14.548 14.548s6.526 14.549 14.548 14.549 14.549-6.526 14.549-14.549c0-8.021-6.526-14.548-14.549-14.548z" fill="#1c2d6b"/><path d="m89.848 121.833h-42.117c-1.657 0-3-1.343-3-3v-10.529c0-8.414 4.283-16.075 11.457-20.494 1.082-.666 2.47-.58 3.46.222 2.614 2.115 5.775 3.233 9.141 3.233s6.527-1.118 9.142-3.233c.99-.802 2.378-.888 3.46-.222 7.174 4.419 11.457 12.081 11.457 20.494v10.529c0 1.656-1.343 3-3 3zm-39.117-6h36.116v-7.529c0-5.659-2.582-10.865-6.995-14.274-3.287 2.099-7.141 3.235-11.063 3.235s-7.775-1.137-11.062-3.235c-4.413 3.409-6.995 8.615-6.995 14.274v7.529z" fill="#1c2d6b"/><path d="m101.661 142.824c0-30.279 10.761-54.824 24.035-54.824-33.156 0-60.035 24.546-60.035 54.824s26.879 54.824 60.035 54.824c-13.274 0-24.035-24.545-24.035-54.824z" fill="#ede49d"/><path d="m125.696 88c13.274 0 24.035 24.546 24.035 54.824s-10.761 54.824-24.035 54.824c33.156 0 60.035-24.546 60.035-54.824s-26.879-54.824-60.035-54.824z" fill="#d3ba2a"/><ellipse cx="125.696" cy="142.824" fill="#eee045" rx="24.035" ry="54.824"/><path d="m125.696 200.648c-34.758 0-63.035-25.94-63.035-57.824s28.277-57.824 63.035-57.824 63.035 25.94 63.035 57.824-28.277 57.824-63.035 57.824zm0-109.648c-31.449 0-57.035 23.248-57.035 51.824s25.586 51.824 57.035 51.824 57.035-23.248 57.035-51.824-25.585-51.824-57.035-51.824z" fill="#1c2d6b"/><path d="m121.319 210.303c0-7.586 1.273-14.233 3.182-17.94-1.262-3.217-2.069-8.134-2.069-13.647 0-9.692 2.493-17.549 5.568-17.549-9.692 0-17.549 7.857-17.549 17.549 0 5.513 2.545 10.43 6.521 13.647-6.018 3.707-10.031 10.354-10.031 17.94v3.51 7.019h14.377v-7.019-3.51z" fill="#89aadb"/><path d="m139.028 192.363c3.976-3.217 6.521-8.134 6.521-13.647 0-9.692-7.857-17.549-17.549-17.549 3.075 0 5.568 7.857 5.568 17.549 0 5.513-.807 10.43-2.069 13.647 1.909 3.707 3.182 10.354 3.182 17.94v3.51 7.019h14.377v-7.019-3.51c0-7.586-4.013-14.233-10.03-17.94z" fill="#4b67b0"/><path d="m134.681 210.303c0-7.586-1.273-14.233-3.182-17.94 1.262-3.217 2.069-8.134 2.069-13.647 0-9.692-2.493-17.549-5.568-17.549-3.075 0-5.568 7.857-5.568 17.549 0 5.513.807 10.43 2.069 13.647-1.909 3.707-3.182 10.354-3.182 17.94v3.51 7.019h13.362v-7.019z" fill="#6287c5"/><path d="m128 199.265c-11.331 0-20.549-9.218-20.549-20.549s9.218-20.548 20.549-20.548 20.549 9.218 20.549 20.548-9.218 20.549-20.549 20.549zm0-35.098c-8.022 0-14.549 6.526-14.549 14.548s6.526 14.549 14.549 14.549 14.549-6.526 14.549-14.549c0-8.021-6.527-14.548-14.549-14.548z" fill="#1c2d6b"/><path d="m149.059 223.833h-42.117c-1.657 0-3-1.343-3-3v-10.529c0-8.413 4.283-16.074 11.458-20.494 1.082-.666 2.47-.58 3.46.222 2.614 2.115 5.775 3.233 9.141 3.233s6.526-1.118 9.141-3.233c.989-.802 2.378-.888 3.46-.222 7.175 4.42 11.458 12.081 11.458 20.494v10.529c-.001 1.656-1.344 3-3.001 3zm-39.118-6h36.117v-7.529c0-5.659-2.583-10.865-6.996-14.274-3.287 2.099-7.14 3.235-11.062 3.235s-7.775-1.137-11.062-3.235c-4.413 3.409-6.996 8.615-6.996 14.274v7.529z" fill="#1c2d6b"/><path d="m180.529 186.303c0-7.586 1.273-14.233 3.182-17.94-1.262-3.217-2.069-8.134-2.069-13.647 0-9.692 2.493-17.549 5.568-17.549-9.692 0-17.549 7.857-17.549 17.549 0 5.513 2.545 10.43 6.521 13.647-6.017 3.707-10.031 10.354-10.031 17.94v3.51 7.019h14.377v-7.019-3.51z" fill="#89aadb"/><path d="m198.238 168.363c3.976-3.217 6.521-8.134 6.521-13.647 0-9.692-7.857-17.549-17.549-17.549 3.075 0 5.568 7.857 5.568 17.549 0 5.513-.807 10.43-2.069 13.647 1.909 3.707 3.182 10.354 3.182 17.94v3.51 7.019h14.377v-7.019-3.51c.001-7.586-4.012-14.233-10.03-17.94z" fill="#4b67b0"/><path d="m193.892 186.303c0-7.586-1.273-14.233-3.182-17.94 1.262-3.217 2.069-8.134 2.069-13.647 0-9.692-2.493-17.549-5.568-17.549-3.075 0-5.568 7.857-5.568 17.549 0 5.513.807 10.43 2.069 13.647-1.909 3.707-3.182 10.354-3.182 17.94v3.51 7.019h13.362v-7.019z" fill="#6287c5"/><path d="m187.211 175.265c-11.331 0-20.549-9.218-20.549-20.549s9.218-20.548 20.549-20.548c11.33 0 20.548 9.218 20.548 20.548s-9.218 20.549-20.548 20.549zm0-35.098c-8.022 0-14.549 6.526-14.549 14.548s6.526 14.549 14.549 14.549c8.021 0 14.548-6.526 14.548-14.549 0-8.021-6.527-14.548-14.548-14.548z" fill="#1c2d6b"/><path d="m208.269 199.833h-42.116c-1.657 0-3-1.343-3-3v-10.529c0-8.414 4.283-16.075 11.457-20.494 1.082-.667 2.471-.58 3.46.222 2.614 2.115 5.775 3.233 9.142 3.233 3.365 0 6.526-1.118 9.141-3.233.989-.802 2.378-.889 3.46-.222 7.174 4.419 11.457 12.081 11.457 20.494v10.529c-.001 1.656-1.344 3-3.001 3zm-39.117-6h36.116v-7.529c0-5.659-2.582-10.865-6.995-14.274-3.287 2.099-7.14 3.235-11.062 3.235s-7.776-1.137-11.063-3.235c-4.413 3.409-6.995 8.615-6.995 14.274v7.529z" fill="#1c2d6b"/><path d="m62.108 186.303c0-7.586 1.273-14.233 3.182-17.94-1.262-3.217-2.069-8.134-2.069-13.647 0-9.692 2.493-17.549 5.568-17.549-9.692 0-17.549 7.857-17.549 17.549 0 5.513 2.544 10.43 6.521 13.647-6.018 3.707-10.031 10.354-10.031 17.94v3.51 7.019h14.377v-7.019-3.51z" fill="#a4d4a0"/><path d="m79.817 168.363c3.976-3.217 6.521-8.134 6.521-13.647 0-9.692-7.857-17.549-17.549-17.549 3.075 0 5.568 7.857 5.568 17.549 0 5.513-.807 10.43-2.069 13.647 1.909 3.707 3.182 10.354 3.182 17.94v3.51 7.019h14.377v-7.019-3.51c.001-7.586-4.012-14.233-10.03-17.94z" fill="#419b46"/><path d="m75.471 186.303c0-7.586-1.273-14.233-3.182-17.94 1.262-3.217 2.069-8.134 2.069-13.647 0-9.692-2.493-17.549-5.568-17.549-3.075 0-5.568 7.857-5.568 17.549 0 5.513.807 10.43 2.069 13.647-1.909 3.707-3.182 10.354-3.182 17.94v3.51 7.019h13.362v-7.019z" fill="#65bc49"/><g fill="#1c2d6b"><path d="m68.789 175.265c-11.33 0-20.548-9.218-20.548-20.549s9.218-20.548 20.548-20.548c11.331 0 20.549 9.218 20.549 20.548s-9.218 20.549-20.549 20.549zm0-35.098c-8.021 0-14.548 6.526-14.548 14.548s6.526 14.549 14.548 14.549 14.549-6.526 14.549-14.549c0-8.021-6.526-14.548-14.549-14.548z"/><path d="m89.848 199.833h-42.117c-1.657 0-3-1.343-3-3v-10.529c0-8.414 4.283-16.075 11.457-20.494 1.082-.667 2.47-.58 3.46.222 2.614 2.115 5.775 3.233 9.141 3.233s6.527-1.118 9.142-3.233c.99-.802 2.378-.889 3.46-.222 7.174 4.419 11.457 12.081 11.457 20.494v10.529c0 1.656-1.343 3-3 3zm-39.117-6h36.116v-7.529c0-5.659-2.582-10.865-6.995-14.274-3.287 2.099-7.141 3.235-11.063 3.235s-7.775-1.137-11.062-3.235c-4.413 3.409-6.995 8.615-6.995 14.274v7.529z"/></g></svg>