<svg id="Layer_1" enable-background="new 0 0 256 256" height="512" viewBox="0 0 256 256" width="512" xmlns="http://www.w3.org/2000/svg"><path d="m98 230.048v-179.596c0-3.425 2.777-6.202 6.202-6.202h-44.202c-5.523 0-10 4.477-10 10v172c0 5.523 4.477 10 10 10h44.202c-3.425 0-6.202-2.777-6.202-6.202z" fill="#a4d4a0"/><path d="m196 44.25h-44.202c3.425 0 6.202 2.777 6.202 6.202v179.597c0 3.425-2.777 6.202-6.202 6.202h44.202c5.523 0 10-4.477 10-10v-172c0-5.524-4.477-10.001-10-10.001z" fill="#419b46"/><path d="m158 230.048v-179.596c0-3.425-2.777-6.202-6.202-6.202h-47.596c-3.425 0-6.202 2.777-6.202 6.202v179.597c0 3.425 2.777 6.202 6.202 6.202h47.596c3.425-.001 6.202-2.778 6.202-6.203z" fill="#65bc49"/><path d="m196 239.25h-136c-7.168 0-13-5.832-13-13v-172c0-7.168 5.832-13 13-13h136c7.168 0 13 5.832 13 13v172c0 7.168-5.832 13-13 13zm-136-192c-3.86 0-7 3.14-7 7v172c0 3.86 3.14 7 7 7h136c3.859 0 7-3.14 7-7v-172c0-3.86-3.141-7-7-7z" fill="#1c2d6b"/><path d="m104.202 221.101v-161.202c0-1.739 1.41-3.149 3.149-3.149h-34.351c-2.761 0-5 2.239-5 5v157.5c0 2.761 2.239 5 5 5h34.351c-1.739 0-3.149-1.41-3.149-3.149z" fill="#ede49d"/><path d="m183 56.75h-34.351c1.739 0 3.149 1.41 3.149 3.149v161.202c0 1.739-1.41 3.149-3.149 3.149h34.351c2.761 0 5-2.239 5-5v-157.5c0-2.761-2.239-5-5-5z" fill="#d3ba2a"/><path d="m151.798 221.101v-161.202c0-1.739-1.41-3.149-3.149-3.149h-41.299c-1.739 0-3.149 1.41-3.149 3.149v161.202c0 1.739 1.41 3.149 3.149 3.149h41.299c1.739 0 3.149-1.41 3.149-3.149z" fill="#eee045"/><path d="m183 227.25h-110c-4.411 0-8-3.589-8-8v-157.5c0-4.411 3.589-8 8-8h110c4.411 0 8 3.589 8 8v157.5c0 4.411-3.589 8-8 8zm-110-167.5c-1.103 0-2 .897-2 2v157.5c0 1.103.897 2 2 2h110c1.103 0 2-.897 2-2v-157.5c0-1.103-.897-2-2-2z" fill="#1c2d6b"/><path d="m131.054 28.541v4.209h5.446v-4.209c0-4.527-3.416-8.48-7.934-8.773-.191-.012-.378-.007-.566-.007.068 0 .135-.005.203.007 1.623.293 2.851 4.246 2.851 8.773z" fill="#4b67b0"/><path d="m124.946 28.25c0-4.567 1.294-8.291 2.917-8.49-4.63.074-8.363 3.842-8.363 8.49v4.5h5.446z" fill="#89aadb"/><path d="m114.706 32.75h-23.706c-2.761 0-5 2.239-5 5v30.5h26.91v-30.5c0-2.761.804-5 1.796-5z" fill="#89aadb"/><path d="m165 32.75h-23.706c.992 0 1.796 2.239 1.796 5v30.5h26.91v-30.5c0-2.761-2.239-5-5-5z" fill="#4b67b0"/><path d="m127.863 19.76c.045-.001.091.002.137.002-.046 0-.092-.008-.137-.002z" fill="#6287c5"/><path d="m141.294 32.75h-4.794-5.446v-4.209c0-4.527-1.227-8.48-2.851-8.773-.069-.012-.136-.007-.203-.007-.045 0-.091-.002-.137-.002-1.623.199-2.917 3.923-2.917 8.49v4.5h-5.446-4.794c-.992 0-1.796 2.239-1.796 5v30.5h30.18v-30.5c0-2.76-.804-4.999-1.796-4.999z" fill="#6287c5"/><path d="m170 71.25h-84c-1.657 0-3-1.343-3-3v-30.5c0-4.411 3.589-8 8-8h74c4.411 0 8 3.589 8 8v30.5c0 1.657-1.343 3-3 3zm-81-6h78v-27.5c0-1.103-.897-2-2-2h-74c-1.103 0-2 .897-2 2z" fill="#1c2d6b"/><path d="m136.5 35.75h-17c-1.657 0-3-1.343-3-3v-4.5c0-6.341 5.159-11.5 11.5-11.5s11.5 5.159 11.5 11.5v4.5c0 1.657-1.343 3-3 3zm-14-6h11v-1.5c0-3.033-2.468-5.5-5.5-5.5-3.033 0-5.5 2.467-5.5 5.5z" fill="#1c2d6b"/><path d="m146 125.25h-35.667c-1.313 0-2.473-.854-2.864-2.107l-11.228-36-1.113-3.893h-9.737c-1.657 0-3-1.343-3-3s1.343-3 3-3h12c1.339 0 2.517.888 2.885 2.176l1.714 6 10.55 33.824h33.46c1.657 0 3 1.343 3 3s-1.343 3-3 3z" fill="#1c2d6b"/><path d="m99.105 86.25 7.414 24h15.041l-2.353-24z" fill="#ef7f72"/><path d="m137.898 86.25-1.968 24h15.868l6.202-24z" fill="#e8383b"/><path d="m119.207 86.25 2.353 24h14.37l1.968-24z" fill="#e95947"/><g fill="#1c2d6b"><path d="m151.798 113.25h-45.279c-1.316 0-2.478-.857-2.866-2.115l-7.414-24c-.281-.91-.113-1.899.452-2.666s1.461-1.219 2.414-1.219h58.895c.928 0 1.804.43 2.372 1.163.568.734.765 1.689.532 2.587l-6.202 24c-.342 1.325-1.536 2.25-2.904 2.25zm-43.066-6h40.743l4.651-18h-50.955z"/><circle cx="112.403" cy="134.249" r="5.561"/><circle cx="138.998" cy="134.249" r="5.561"/><path d="m169.899 155.25h-59.798c-1.657 0-3-1.343-3-3s1.343-3 3-3h59.798c1.657 0 3 1.343 3 3s-1.342 3-3 3z"/><path d="m169.899 167.25h-59.798c-1.657 0-3-1.343-3-3s1.343-3 3-3h59.798c1.657 0 3 1.343 3 3s-1.342 3-3 3z"/><path d="m97.681 167.25h-11.908c-1.657 0-3-1.343-3-3v-11.908c0-1.657 1.343-3 3-3h11.908c1.657 0 3 1.343 3 3v11.908c0 1.657-1.344 3-3 3zm-8.908-6h5.908v-5.908h-5.908z"/><path d="m169.899 179.25h-59.798c-1.657 0-3-1.343-3-3s1.343-3 3-3h59.798c1.657 0 3 1.343 3 3s-1.342 3-3 3z"/><path d="m169.899 191.25h-59.798c-1.657 0-3-1.343-3-3s1.343-3 3-3h59.798c1.657 0 3 1.343 3 3s-1.342 3-3 3z"/><path d="m97.681 191.25h-11.908c-1.657 0-3-1.343-3-3v-11.908c0-1.657 1.343-3 3-3h11.908c1.657 0 3 1.343 3 3v11.908c0 1.657-1.344 3-3 3zm-8.908-6h5.908v-5.908h-5.908z"/><path d="m169.899 203.25h-59.798c-1.657 0-3-1.343-3-3s1.343-3 3-3h59.798c1.657 0 3 1.343 3 3s-1.342 3-3 3z"/><path d="m169.899 215.25h-59.798c-1.657 0-3-1.343-3-3s1.343-3 3-3h59.798c1.657 0 3 1.343 3 3s-1.342 3-3 3z"/><path d="m97.681 215.25h-11.908c-1.657 0-3-1.343-3-3v-11.908c0-1.657 1.343-3 3-3h11.908c1.657 0 3 1.343 3 3v11.908c0 1.657-1.344 3-3 3zm-8.908-6h5.908v-5.908h-5.908z"/></g></svg>