<svg id="Layer_1" enable-background="new 0 0 256 256" height="512" viewBox="0 0 256 256" width="512" xmlns="http://www.w3.org/2000/svg"><path d="m20 26h216v72h-216z" fill="#e95947"/><path d="m236 101h-216c-1.657 0-3-1.343-3-3v-72c0-1.657 1.343-3 3-3h216c1.657 0 3 1.343 3 3v72c0 1.657-1.343 3-3 3zm-213-6h210v-66h-210z" fill="#1c2d6b"/><path d="m20 146h72.071v72h-72.071z" fill="#ede49d"/><path d="m163.929 146h72.071v72h-72.071z" fill="#d3ba2a"/><path d="m92.071 146h71.859v72h-71.859z" fill="#eee045"/><path d="m236 221h-216c-1.657 0-3-1.343-3-3v-72c0-1.657 1.343-3 3-3h216c1.657 0 3 1.343 3 3v72c0 1.657-1.343 3-3 3zm-213-6h210v-66h-210z" fill="#1c2d6b"/><path d="m55.452 117.911c-1.409-4.203-2.308-10.591-2.308-17.748 0-12.658 2.812-22.919 6.28-22.919-12.658 0-22.919 10.261-22.919 22.919 0 7.158 3.284 13.545 8.425 17.748-7.807 4.852-13.008 13.502-13.008 23.371v4.718h19.967v-4.718c-.001-9.869 1.424-18.519 3.563-23.371z" fill="#89aadb"/><path d="m73.918 117.911c5.14-4.203 8.425-10.591 8.425-17.748 0-12.658-10.261-22.919-22.919-22.919 3.468 0 6.28 10.261 6.28 22.919 0 7.158-.9 13.545-2.308 17.748 2.139 4.852 3.564 13.503 3.564 23.371v4.718h19.967v-4.718c-.001-9.868-5.202-18.519-13.009-23.371z" fill="#4b67b0"/><path d="m63.395 117.911c1.409-4.203 2.308-10.591 2.308-17.748 0-12.658-2.812-22.919-6.28-22.919s-6.28 10.261-6.28 22.919c0 7.158.9 13.545 2.308 17.748-2.139 4.852-3.564 13.502-3.564 23.371v4.718h15.073v-4.718c0-9.868-1.425-18.519-3.565-23.371z" fill="#6287c5"/><path d="m86.927 149h-55.006c-1.657 0-3-1.343-3-3v-4.718c0-9.331 4.166-17.946 11.308-23.706-4.311-4.74-6.724-10.906-6.724-17.414 0-14.291 11.627-25.918 25.919-25.918s25.919 11.627 25.919 25.918c0 6.508-2.413 12.674-6.724 17.414 7.142 5.76 11.308 14.375 11.308 23.706v4.718c0 1.657-1.343 3-3 3zm-52.006-6h49.006v-1.718c0-8.528-4.334-16.312-11.592-20.823-.823-.511-1.348-1.388-1.411-2.354-.062-.967.346-1.904 1.095-2.517 4.655-3.806 7.324-9.429 7.324-15.427 0-10.982-8.936-19.918-19.919-19.918s-19.919 8.936-19.919 19.918c0 5.998 2.669 11.621 7.324 15.427.749.612 1.157 1.55 1.095 2.517-.063.966-.588 1.843-1.411 2.354-7.258 4.511-11.592 12.295-11.592 20.823z" fill="#1c2d6b"/><path d="m123.989 117.911c-1.409-4.203-2.308-10.591-2.308-17.748 0-12.658 2.812-22.919 6.28-22.919-12.658 0-22.919 10.261-22.919 22.919 0 7.158 3.284 13.545 8.425 17.748-7.807 4.852-13.008 13.502-13.008 23.371v4.718h19.967v-4.718c-.001-9.869 1.424-18.519 3.563-23.371z" fill="#89aadb"/><path d="m142.455 117.911c5.14-4.203 8.425-10.591 8.425-17.748 0-12.658-10.261-22.919-22.919-22.919 3.468 0 6.28 10.261 6.28 22.919 0 7.158-.9 13.545-2.308 17.748 2.139 4.852 3.564 13.503 3.564 23.371v4.718h19.967v-4.718c-.001-9.868-5.202-18.519-13.009-23.371z" fill="#4b67b0"/><path d="m131.932 117.911c1.409-4.203 2.308-10.591 2.308-17.748 0-12.658-2.812-22.919-6.28-22.919s-6.28 10.261-6.28 22.919c0 7.158.9 13.545 2.308 17.748-2.139 4.852-3.564 13.502-3.564 23.371v4.718h15.072v-4.718c.001-9.868-1.425-18.519-3.564-23.371z" fill="#6287c5"/><path d="m155.463 149h-55.005c-1.657 0-3-1.343-3-3v-4.718c0-9.331 4.166-17.946 11.308-23.706-4.311-4.74-6.724-10.906-6.724-17.414 0-14.291 11.627-25.918 25.919-25.918 14.291 0 25.918 11.627 25.918 25.918 0 6.507-2.413 12.674-6.723 17.414 7.141 5.76 11.307 14.375 11.307 23.706v4.718c0 1.657-1.343 3-3 3zm-52.005-6h49.005v-1.718c0-8.528-4.333-16.312-11.592-20.823-.822-.511-1.347-1.388-1.41-2.354-.062-.967.346-1.903 1.095-2.517 4.654-3.806 7.323-9.429 7.323-15.427 0-10.982-8.936-19.918-19.918-19.918-10.983 0-19.919 8.936-19.919 19.918 0 5.998 2.669 11.621 7.324 15.427.749.612 1.157 1.55 1.095 2.517-.063.966-.588 1.843-1.411 2.354-7.258 4.511-11.592 12.295-11.592 20.823z" fill="#1c2d6b"/><path d="m192.526 117.911c-1.409-4.203-2.309-10.591-2.309-17.748 0-12.658 2.812-22.919 6.28-22.919-12.658 0-22.919 10.261-22.919 22.919 0 7.158 3.284 13.545 8.425 17.748-7.807 4.852-13.008 13.502-13.008 23.371v4.718h19.967v-4.718c0-9.869 1.425-18.519 3.564-23.371z" fill="#89aadb"/><path d="m210.992 117.911c5.14-4.203 8.425-10.591 8.425-17.748 0-12.658-10.261-22.919-22.919-22.919 3.468 0 6.28 10.261 6.28 22.919 0 7.158-.9 13.545-2.308 17.748 2.139 4.852 3.564 13.503 3.564 23.371v4.718h19.966v-4.718c0-9.868-5.201-18.519-13.008-23.371z" fill="#4b67b0"/><path d="m200.469 117.911c1.409-4.203 2.308-10.591 2.308-17.748 0-12.658-2.812-22.919-6.28-22.919s-6.28 10.261-6.28 22.919c0 7.158.9 13.545 2.309 17.748-2.139 4.852-3.564 13.502-3.564 23.371v4.718h15.072v-4.718c-.001-9.868-1.426-18.519-3.565-23.371z" fill="#6287c5"/><path d="m224 149h-55.005c-1.657 0-3-1.343-3-3v-4.718c0-9.331 4.166-17.946 11.307-23.706-4.31-4.74-6.723-10.907-6.723-17.414 0-14.291 11.627-25.918 25.918-25.918 14.292 0 25.919 11.627 25.919 25.918 0 6.508-2.413 12.674-6.724 17.414 7.142 5.76 11.308 14.375 11.308 23.706v4.718c0 1.657-1.343 3-3 3zm-52.005-6h49.005v-1.718c0-8.528-4.334-16.312-11.592-20.823-.823-.511-1.348-1.388-1.411-2.354-.062-.967.346-1.904 1.095-2.517 4.655-3.806 7.324-9.429 7.324-15.427 0-10.982-8.936-19.918-19.919-19.918-10.982 0-19.918 8.936-19.918 19.918 0 5.998 2.669 11.621 7.323 15.427.749.613 1.157 1.55 1.095 2.517-.063.966-.588 1.843-1.41 2.354-7.259 4.511-11.592 12.295-11.592 20.823z" fill="#1c2d6b"/><path d="m55.452 189.911c-1.409-4.203-2.308-10.591-2.308-17.748 0-12.658 2.812-22.919 6.28-22.919-12.658 0-22.919 10.261-22.919 22.919 0 7.158 3.284 13.545 8.425 17.748-7.807 4.852-13.008 13.502-13.008 23.371v4.718h19.967v-4.718c-.001-9.869 1.424-18.519 3.563-23.371z" fill="#a4d4a0"/><path d="m73.918 189.911c5.14-4.203 8.425-10.591 8.425-17.748 0-12.658-10.261-22.919-22.919-22.919 3.468 0 6.28 10.261 6.28 22.919 0 7.158-.9 13.545-2.308 17.748 2.139 4.852 3.564 13.503 3.564 23.371v4.718h19.967v-4.718c-.001-9.868-5.202-18.519-13.009-23.371z" fill="#419b46"/><path d="m63.395 189.911c1.409-4.203 2.308-10.591 2.308-17.748 0-12.658-2.812-22.919-6.28-22.919s-6.28 10.261-6.28 22.919c0 7.158.9 13.545 2.308 17.748-2.139 4.852-3.564 13.502-3.564 23.371v4.718h15.073v-4.718c0-9.868-1.425-18.519-3.565-23.371z" fill="#65bc49"/><path d="m86.927 221h-55.006c-1.657 0-3-1.343-3-3v-4.718c0-9.331 4.166-17.946 11.308-23.706-4.311-4.74-6.724-10.906-6.724-17.414 0-14.291 11.627-25.918 25.919-25.918s25.919 11.627 25.919 25.918c0 6.508-2.413 12.674-6.724 17.414 7.142 5.76 11.308 14.375 11.308 23.706v4.718c0 1.657-1.343 3-3 3zm-52.006-6h49.006v-1.718c0-8.528-4.334-16.312-11.592-20.823-.823-.511-1.348-1.388-1.411-2.354-.062-.967.346-1.904 1.095-2.517 4.655-3.806 7.324-9.429 7.324-15.427 0-10.982-8.936-19.918-19.919-19.918s-19.919 8.936-19.919 19.918c0 5.998 2.669 11.621 7.324 15.427.749.612 1.157 1.55 1.095 2.517-.063.966-.588 1.843-1.411 2.354-7.258 4.511-11.592 12.295-11.592 20.823z" fill="#1c2d6b"/><path d="m123.989 189.911c-1.409-4.203-2.308-10.591-2.308-17.748 0-12.658 2.812-22.919 6.28-22.919-12.658 0-22.919 10.261-22.919 22.919 0 7.158 3.284 13.545 8.425 17.748-7.807 4.852-13.008 13.502-13.008 23.371v4.718h19.967v-4.718c-.001-9.869 1.424-18.519 3.563-23.371z" fill="#a4d4a0"/><path d="m142.455 189.911c5.14-4.203 8.425-10.591 8.425-17.748 0-12.658-10.261-22.919-22.919-22.919 3.468 0 6.28 10.261 6.28 22.919 0 7.158-.9 13.545-2.308 17.748 2.139 4.852 3.564 13.503 3.564 23.371v4.718h19.967v-4.718c-.001-9.868-5.202-18.519-13.009-23.371z" fill="#419b46"/><path d="m131.932 189.911c1.409-4.203 2.308-10.591 2.308-17.748 0-12.658-2.812-22.919-6.28-22.919s-6.28 10.261-6.28 22.919c0 7.158.9 13.545 2.308 17.748-2.139 4.852-3.564 13.502-3.564 23.371v4.718h15.072v-4.718c.001-9.868-1.425-18.519-3.564-23.371z" fill="#65bc49"/><path d="m155.463 221h-55.005c-1.657 0-3-1.343-3-3v-4.718c0-9.331 4.166-17.946 11.308-23.706-4.311-4.74-6.724-10.906-6.724-17.414 0-14.291 11.627-25.918 25.919-25.918 14.291 0 25.918 11.627 25.918 25.918 0 6.507-2.413 12.674-6.723 17.414 7.141 5.76 11.307 14.375 11.307 23.706v4.718c0 1.657-1.343 3-3 3zm-52.005-6h49.005v-1.718c0-8.528-4.333-16.312-11.592-20.823-.822-.511-1.347-1.388-1.41-2.354-.062-.967.346-1.903 1.095-2.517 4.654-3.806 7.323-9.429 7.323-15.427 0-10.982-8.936-19.918-19.918-19.918-10.983 0-19.919 8.936-19.919 19.918 0 5.998 2.669 11.621 7.324 15.427.749.612 1.157 1.55 1.095 2.517-.063.966-.588 1.843-1.411 2.354-7.258 4.511-11.592 12.295-11.592 20.823z" fill="#1c2d6b"/><path d="m192.526 189.911c-1.409-4.203-2.309-10.591-2.309-17.748 0-12.658 2.812-22.919 6.28-22.919-12.658 0-22.919 10.261-22.919 22.919 0 7.158 3.284 13.545 8.425 17.748-7.807 4.852-13.008 13.502-13.008 23.371v4.718h19.967v-4.718c0-9.869 1.425-18.519 3.564-23.371z" fill="#a4d4a0"/><path d="m210.992 189.911c5.14-4.203 8.425-10.591 8.425-17.748 0-12.658-10.261-22.919-22.919-22.919 3.468 0 6.28 10.261 6.28 22.919 0 7.158-.9 13.545-2.308 17.748 2.139 4.852 3.564 13.503 3.564 23.371v4.718h19.966v-4.718c0-9.868-5.201-18.519-13.008-23.371z" fill="#419b46"/><path d="m200.469 189.911c1.409-4.203 2.308-10.591 2.308-17.748 0-12.658-2.812-22.919-6.28-22.919s-6.28 10.261-6.28 22.919c0 7.158.9 13.545 2.309 17.748-2.139 4.852-3.564 13.502-3.564 23.371v4.718h15.072v-4.718c-.001-9.868-1.426-18.519-3.565-23.371z" fill="#65bc49"/><path d="m224 221h-55.005c-1.657 0-3-1.343-3-3v-4.718c0-9.331 4.166-17.946 11.307-23.706-4.31-4.74-6.723-10.907-6.723-17.414 0-14.291 11.627-25.918 25.918-25.918 14.292 0 25.919 11.627 25.919 25.918 0 6.508-2.413 12.674-6.724 17.414 7.142 5.76 11.308 14.375 11.308 23.706v4.718c0 1.657-1.343 3-3 3zm-52.005-6h49.005v-1.718c0-8.528-4.334-16.312-11.592-20.823-.823-.511-1.348-1.388-1.411-2.354-.062-.967.346-1.904 1.095-2.517 4.655-3.806 7.324-9.429 7.324-15.427 0-10.982-8.936-19.918-19.919-19.918-10.982 0-19.918 8.936-19.918 19.918 0 5.998 2.669 11.621 7.323 15.427.749.613 1.157 1.55 1.095 2.517-.063.966-.588 1.843-1.41 2.354-7.259 4.511-11.592 12.295-11.592 20.823z" fill="#1c2d6b"/><path d="m58.403 200.703h-9.437c-4.097 0-7.419 3.352-7.419 7.487v21.81h12.969v-25.374c-.001-2.167 1.74-3.923 3.887-3.923z" fill="#ef7f72"/><path d="m69.882 200.703h-9.437c2.147 0 3.888 1.757 3.888 3.923v25.374h12.969v-21.81c-.001-4.135-3.323-7.487-7.42-7.487z" fill="#e8383b"/><path d="m60.445 200.703h-2.042c-2.147 0-3.888 1.757-3.888 3.923v25.374h9.817v-25.374c0-2.167-1.74-3.923-3.887-3.923z" fill="#e95947"/><path d="m77.301 233h-35.754c-1.657 0-3-1.343-3-3v-21.844c0-5.765 4.689-10.454 10.453-10.454h20.848c5.764 0 10.453 4.689 10.453 10.454v21.844c0 1.657-1.343 3-3 3zm-32.754-6h29.754v-18.844c0-2.456-1.998-4.454-4.453-4.454h-20.848c-2.455 0-4.453 1.998-4.453 4.454z" fill="#1c2d6b"/><path d="m126.979 200.703h-9.437c-4.097 0-7.419 3.352-7.419 7.487v21.81h12.969v-25.374c-.001-2.167 1.74-3.923 3.887-3.923z" fill="#ef7f72"/><path d="m138.458 200.703h-9.437c2.147 0 3.888 1.757 3.888 3.923v25.374h12.969v-21.81c-.001-4.135-3.322-7.487-7.42-7.487z" fill="#e8383b"/><path d="m129.021 200.703h-2.042c-2.147 0-3.888 1.757-3.888 3.923v25.374h9.817v-25.374c.001-2.167-1.74-3.923-3.887-3.923z" fill="#e95947"/><path d="m145.877 233h-35.754c-1.657 0-3-1.343-3-3v-21.844c0-5.765 4.689-10.454 10.453-10.454h20.848c5.764 0 10.453 4.689 10.453 10.454v21.844c0 1.657-1.343 3-3 3zm-32.754-6h29.754v-18.844c0-2.456-1.998-4.454-4.453-4.454h-20.848c-2.455 0-4.453 1.998-4.453 4.454z" fill="#1c2d6b"/><path d="m195.555 200.703h-9.437c-4.097 0-7.419 3.352-7.419 7.487v21.81h12.969v-25.374c0-2.167 1.74-3.923 3.887-3.923z" fill="#ef7f72"/><path d="m207.034 200.703h-9.437c2.147 0 3.888 1.757 3.888 3.923v25.374h12.969v-21.81c0-4.135-3.322-7.487-7.42-7.487z" fill="#e8383b"/><path d="m197.597 200.703h-2.042c-2.147 0-3.888 1.757-3.888 3.923v25.374h9.817v-25.374c.001-2.167-1.74-3.923-3.887-3.923z" fill="#e95947"/><g fill="#1c2d6b"><path d="m214.453 233h-35.754c-1.657 0-3-1.343-3-3v-21.844c0-5.765 4.689-10.454 10.453-10.454h20.848c5.764 0 10.453 4.689 10.453 10.454v21.844c0 1.657-1.343 3-3 3zm-32.754-6h29.754v-18.844c0-2.456-1.998-4.454-4.453-4.454h-20.848c-2.455 0-4.453 1.998-4.453 4.454z"/><path d="m104 47h-54c-1.657 0-3-1.343-3-3s1.343-3 3-3h54c1.657 0 3 1.343 3 3s-1.343 3-3 3z"/><path d="m104 59h-72.079c-1.657 0-3-1.343-3-3s1.343-3 3-3h72.079c1.657 0 3 1.343 3 3s-1.343 3-3 3z"/><path d="m86 71h-54.079c-1.657 0-3-1.343-3-3s1.343-3 3-3h54.079c1.657 0 3 1.343 3 3s-1.343 3-3 3z"/><path d="m164 79.239c-.835 0-1.638-.349-2.209-.971l-22.159-24.125-9.84 7.581c-1.312 1.013-3.194.769-4.207-.545-1.012-1.312-.768-3.196.545-4.207l12.02-9.261c1.233-.949 2.988-.8 4.04.347l21.243 23.128 17.963-31.436c.429-.751 1.161-1.28 2.008-1.452.851-.171 1.729.031 2.416.555l25.359 19.336 13.245-8.178c1.411-.869 3.259-.434 4.129.977s.433 3.259-.977 4.129l-15 9.261c-1.057.651-2.407.586-3.396-.167l-24.275-18.509-18.301 32.025c-.475.831-1.318 1.386-2.27 1.493-.111.013-.223.019-.334.019z"/></g><circle cx="139.98" cy="50.088" fill="#eee045" r="5"/><path d="m139.98 58.088c-4.411 0-8-3.589-8-8s3.589-8 8-8 8 3.589 8 8-3.588 8-8 8zm0-10c-1.103 0-2 .897-2 2s.897 2 2 2 2-.897 2-2-.897-2-2-2z" fill="#1c2d6b"/><circle cx="164" cy="76.239" fill="#eee045" r="5"/><path d="m164 84.239c-4.411 0-8-3.589-8-8s3.589-8 8-8 8 3.589 8 8-3.589 8-8 8zm0-10c-1.103 0-2 .897-2 2s.897 2 2 2 2-.897 2-2-.897-2-2-2z" fill="#1c2d6b"/><circle cx="184" cy="41.239" fill="#eee045" r="5"/><path d="m184 49.239c-4.411 0-8-3.589-8-8s3.589-8 8-8 8 3.589 8 8-3.589 8-8 8zm0-10c-1.103 0-2 .897-2 2s.897 2 2 2 2-.897 2-2-.897-2-2-2z" fill="#1c2d6b"/><circle cx="211" cy="61.825" fill="#eee045" r="5"/><path d="m211 69.825c-4.411 0-8-3.589-8-8s3.589-8 8-8 8 3.589 8 8-3.589 8-8 8zm0-10c-1.103 0-2 .897-2 2s.897 2 2 2 2-.897 2-2-.897-2-2-2z" fill="#1c2d6b"/></svg>