<svg id="Layer_1" enable-background="new 0 0 256 256" height="512" viewBox="0 0 256 256" width="512" xmlns="http://www.w3.org/2000/svg"><path d="m99.99 131.977c.422-4.452 1.938-7.575 3.677-7.575h-39.859c-4.589 0-8.589 3.123-9.701 7.575l-18.883 58.741c-.905 3.622 3.534 6.135 6.174 3.496 1.438-1.438 3.768-1.438 5.206 0l6.794 6.794c1.438 1.438 3.768 1.438 5.206 0l6.794-6.794c1.438-1.438 3.768-1.438 5.206 0l6.794 6.794c1.438 1.438 3.768 1.438 5.206 0l6.794-6.794c.853-.853 2.019-1.187 3.128-1.028l5.212-42.72z" fill="#89aadb"/><path d="m220.777 190.718-18.883-58.741c-1.113-4.452-5.113-7.575-9.701-7.575h-39.859c1.739 0 3.256 3.123 3.677 7.575l7.158 58.741c.068.716.054 1.385-.015 1.983l.064.525c1.183-.257 2.466.067 3.386.987l6.794 6.794c1.438 1.438 3.768 1.438 5.206 0l6.794-6.794c1.438-1.438 3.768-1.438 5.206 0l6.794 6.794c1.438 1.438 3.768 1.438 5.206 0l6.794-6.794c1.438-1.438 3.768-1.438 5.206 0 2.639 2.641 7.078.127 6.173-3.495z" fill="#4b67b0"/><path d="m163.168 190.718-7.158-58.741c-.422-4.452-1.938-7.575-3.677-7.575h-48.666c-1.739 0-3.256 3.123-3.677 7.575l-2.253 18.489-5.212 42.72c.76.109 1.493.443 2.078 1.028l6.794 6.794c1.438 1.438 3.768 1.438 5.206 0l6.794-6.794c1.438-1.438 3.768-1.438 5.206 0l6.794 6.794c1.438 1.438 3.768 1.438 5.206 0l6.794-6.794c1.438-1.438 3.768-1.438 5.206 0l6.794 6.794c1.438 1.438 3.768 1.438 5.206 0l6.794-6.794c.518-.518 1.153-.842 1.82-.987l-.064-.525c.069-.598.083-1.268.015-1.984z" fill="#6287c5"/><path d="m200 205.083c-1.711 0-3.422-.651-4.724-1.954l-6.794-6.794c-.166-.165-.354-.2-.482-.2s-.316.035-.481.2l-6.794 6.794c-2.604 2.605-6.844 2.605-9.448 0l-6.794-6.794c-.166-.165-.354-.2-.482-.2s-.316.035-.481.2l-6.794 6.794c-2.604 2.605-6.844 2.605-9.448 0l-6.794-6.794c-.166-.165-.354-.2-.482-.2s-.316.035-.481.2l-6.794 6.794c-2.604 2.605-6.844 2.605-9.448 0l-6.794-6.794c-.166-.165-.354-.2-.482-.2s-.316.035-.481.2l-6.794 6.794c-2.604 2.605-6.844 2.605-9.448 0l-6.794-6.794c-.166-.165-.354-.2-.482-.2s-.316.035-.481.2l-6.794 6.794c-2.604 2.605-6.844 2.605-9.448 0l-6.794-6.794c-.166-.165-.354-.2-.482-.2s-.316.035-.481.2l-6.794 6.794c-2.604 2.605-6.844 2.605-9.448 0l-6.794-6.794c-.166-.165-.354-.2-.482-.2s-.316.035-.481.2c-2.15 2.149-5.371 2.586-8.016 1.09-2.646-1.498-3.927-4.485-3.19-7.435.016-.064.034-.127.055-.19l18.855-58.653c1.484-5.744 6.644-9.745 12.585-9.745h128.385c5.941 0 11.102 4.001 12.585 9.745l18.855 58.653c.021.063.039.126.055.19.737 2.949-.545 5.937-3.19 7.435-2.646 1.497-5.866 1.06-8.015-1.09-.166-.165-.354-.2-.482-.2s-.316.035-.481.2l-6.794 6.794c-1.31 1.303-3.021 1.954-4.732 1.954zm-60-14.947c1.785 0 3.463.695 4.725 1.958l6.793 6.794c.165.165.353.199.482.199s.317-.035.482-.199l6.794-6.794c1.261-1.262 2.939-1.958 4.724-1.958s3.463.695 4.725 1.958l6.793 6.794c.266.266.698.266.964 0l6.794-6.794c1.261-1.262 2.939-1.958 4.724-1.958s3.463.695 4.725 1.958l6.793 6.794c.266.266.698.266.964 0l6.794-6.794c1.261-1.262 2.939-1.958 4.724-1.958s3.463.695 4.725 1.958c.1.1.365.365.816.111.385-.218.375-.517.342-.685l-18.846-58.625c-.021-.063-.039-.126-.055-.19-.78-3.122-3.573-5.302-6.791-5.302h-128.383c-3.218 0-6.01 2.18-6.791 5.302-.016.064-.034.127-.055.19l-18.845 58.625c-.033.168-.043.466.342.685.45.254.716-.011.817-.111 1.261-1.262 2.939-1.958 4.724-1.958s3.463.695 4.725 1.958l6.793 6.794c.266.266.698.266.964 0l6.794-6.794c1.261-1.262 2.939-1.958 4.724-1.958s3.463.695 4.725 1.958l6.793 6.794c.266.266.698.266.964 0l6.794-6.794c1.261-1.262 2.939-1.958 4.724-1.958s3.463.695 4.725 1.958l6.793 6.794c.165.165.353.199.482.199s.317-.035.482-.199l6.794-6.794c1.261-1.262 2.939-1.958 4.724-1.958s3.463.695 4.725 1.958l6.793 6.794c.266.266.698.266.964 0l6.794-6.794c1.261-1.263 2.939-1.958 4.724-1.958z" fill="#1c2d6b"/><path d="m104 120.608v-4.411c0-2.096 1.699-3.795 3.795-3.795h-33.795c-3.314 0-6 2.686-6 6s2.686 6 6 6h33.795c-2.096.001-3.795-1.698-3.795-3.794z" fill="#ef7f72"/><path d="m182 112.403h-33.795c2.096 0 3.795 1.699 3.795 3.795v4.411c0 2.096-1.699 3.795-3.795 3.795h33.795c3.314 0 6-2.686 6-6s-2.686-6.001-6-6.001z" fill="#e8383b"/><path d="m152 120.608v-4.411c0-2.096-1.699-3.795-3.795-3.795h-40.411c-2.096 0-3.795 1.699-3.795 3.795v4.411c0 2.096 1.699 3.795 3.795 3.795h40.411c2.096 0 3.795-1.699 3.795-3.795z" fill="#e95947"/><path d="m182 127.402h-108c-4.962 0-9-4.038-9-9s4.038-9 9-9h108c4.962 0 9 4.038 9 9s-4.038 9-9 9zm-108-12c-1.654 0-3 1.346-3 3s1.346 3 3 3h108c1.654 0 3-1.346 3-3s-1.346-3-3-3z" fill="#1c2d6b"/><path d="m107.229 39.973-4.896-4.896c-.96-.96-2.516-.96-3.475 0l10.431-10.431c1.284-1.284 3.366-1.284 4.65 0l3.72 3.72c1.284 1.284 1.284 3.366 0 4.65l-10.431 10.431c.96-.959.96-2.514.001-3.474z" fill="#a4d4a0"/><path d="m80.456 53.479 10.431-10.431c-.96.96-.96 2.516 0 3.475l4.896 4.896c.96.96 2.515.96 3.475 0l-10.431 10.431c-1.284 1.284-3.366 1.284-4.65 0l-3.72-3.72c-1.285-1.284-1.285-3.366-.001-4.651z" fill="#419b46"/><path d="m102.333 35.078 4.896 4.896c.96.96.96 2.516 0 3.475l-7.97 7.97c-.96.96-2.516.96-3.475 0l-4.896-4.896c-.96-.96-.96-2.516 0-3.475l7.97-7.97c.959-.96 2.515-.96 3.475 0z" fill="#65bc49"/><path d="m86.502 65.813c-1.68 0-3.259-.654-4.446-1.842l-3.721-3.72c-1.188-1.188-1.842-2.767-1.842-4.447s.654-3.259 1.842-4.446l28.833-28.833c1.188-1.188 2.767-1.842 4.446-1.842s3.259.654 4.446 1.842l3.721 3.72c1.188 1.188 1.842 2.767 1.842 4.447s-.654 3.259-1.842 4.446l-28.833 28.833c-1.187 1.188-2.766 1.842-4.446 1.842zm25.112-39.13c-.079 0-.148.029-.204.084l-28.833 28.834c-.112.113-.112.295 0 .408l3.721 3.72c.112.113.295.113.408 0l28.833-28.833c.112-.113.112-.295 0-.408l-3.721-3.72c-.056-.056-.125-.085-.204-.085z" fill="#1c2d6b"/><path d="m129.725 84.245-23.215-23.216c-.547-.547-1.053-1.124-1.497-1.707l-5.901-7.756-7.029 7.029 4.323 9.335c.325.701.771 1.34 1.317 1.887l25.052 25.052 4.737 4.737c1.91 1.91 5.047 2.104 7.013.252 2.035-1.916 2.071-5.119.109-7.081 1.318 1.318 3.197 1.733 4.869 1.247z" fill="#ede49d"/><path d="m131.685 47.972-7.945-7.376-9.335-4.323-7.029 7.029 7.756 5.901 7.766 7.555 17.157 17.157 9.778 9.778c.486-1.672.071-3.551-1.247-4.869 1.962 1.962 5.165 1.926 7.081-.109 1.852-1.966 1.658-5.103-.252-7.013l-4.737-4.737z" fill="#d3ba2a"/><path d="m140.055 73.916-17.157-17.157-7.766-7.555-7.756-5.901-8.263 8.263 5.901 7.756c.443.583.95 1.161 1.497 1.707l23.216 23.216 9.778 9.778c.771-.224 1.498-.639 2.106-1.247 1.926-1.926 1.926-5.049 0-6.976 1.926 1.926 5.049 1.926 6.976 0 .608-.608 1.023-1.335 1.247-2.106z" fill="#eee045"/><path d="m131.215 104.133c-2.103 0-4.225-.807-5.824-2.407l-29.79-29.789c-.799-.799-1.444-1.723-1.918-2.749l-4.323-9.333c-.529-1.142-.289-2.492.601-3.382l22.322-22.322c.89-.89 2.24-1.13 3.382-.601l9.335 4.324c1.503.696 2.158 2.479 1.461 3.983-.696 1.503-2.477 2.159-3.983 1.461l-7.434-3.443-19.36 19.36 3.443 7.434c.177.383.418.729.716 1.026l29.79 29.789c.799.798 2.096.885 2.834.189.386-.363.603-.854.61-1.38.008-.528-.193-1.023-.565-1.396-.586-.585-.879-1.354-.879-2.121s.293-1.536.879-2.121c1.171-1.172 3.071-1.172 4.242 0 .754.753 1.98.753 2.734 0 .753-.753.753-1.979 0-2.733-.586-.585-.879-1.354-.879-2.121s.293-1.536.879-2.121c1.171-1.172 3.071-1.172 4.242 0 .754.753 1.979.753 2.733 0 .753-.754.753-1.979 0-2.733-.586-.585-.879-1.354-.879-2.121s.293-1.536.879-2.121c1.171-1.172 3.071-1.172 4.242 0 .373.373.882.579 1.396.565.527-.008 1.017-.225 1.38-.61.695-.738.609-2.037-.189-2.835l-23.73-23.73c-1.172-1.171-1.172-3.071 0-4.242 1.171-1.172 3.071-1.172 4.242 0l23.73 23.73c3.083 3.082 3.223 8.103.314 11.191-1.304 1.385-3.013 2.237-4.875 2.446-.196 1.72-.952 3.387-2.269 4.703-1.317 1.317-2.986 2.074-4.707 2.269-.195 1.721-.952 3.39-2.269 4.707-1.316 1.316-2.983 2.072-4.703 2.268-.209 1.863-1.062 3.572-2.447 4.876-1.482 1.397-3.414 2.09-5.363 2.09z" fill="#1c2d6b"/><path d="m142.085 89.275c-.768 0-1.536-.293-2.122-.879l-8.148-8.149c-1.171-1.171-1.171-3.071 0-4.243 1.171-1.171 3.071-1.171 4.243 0l8.148 8.149c1.171 1.171 1.171 3.071 0 4.243-.585.586-1.353.879-2.121.879z" fill="#1c2d6b"/><path d="m149.065 82.295c-.768 0-1.536-.293-2.121-.878l-8.149-8.148c-1.172-1.172-1.172-3.071 0-4.243s3.072-1.171 4.243 0l8.149 8.148c1.172 1.172 1.172 3.071 0 4.243-.586.585-1.354.878-2.122.878z" fill="#1c2d6b"/><path d="m135.114 96.247c-.768 0-1.536-.293-2.122-.879l-8.148-8.149c-1.171-1.171-1.171-3.071 0-4.243 1.171-1.171 3.071-1.171 4.243 0l8.148 8.149c1.171 1.171 1.171 3.071 0 4.243-.586.586-1.354.879-2.121.879z" fill="#1c2d6b"/><path d="m142.381 43.666-7.394-7.394-9.334 4.323-1.134.762-8.368 8.171c-1.925 1.925-1.925 5.046 0 6.971s5.046 1.925 6.971 0l8.562-8.528 2.308 2.308.717-.628z" fill="#ede49d"/><path d="m157.31 58.595-7.419-7.419-6.575 8.427 9.245 9.245z" fill="#d3ba2a"/><path d="m142.381 43.666-7.671 5.986-.717.628 2.3 2.3 7.023 7.023 6.575-8.427z" fill="#eee045"/><path d="m142.164 39.973 4.896-4.896c.96-.96 2.516-.96 3.475 0l-10.431-10.431c-1.284-1.284-3.366-1.284-4.65 0l-3.72 3.72c-1.284 1.284-1.284 3.366 0 4.65l10.431 10.431c-.961-.959-.961-2.514-.001-3.474z" fill="#a4d4a0"/><path d="m168.936 53.479-10.431-10.431c.96.96.96 2.516 0 3.475l-4.896 4.896c-.96.96-2.515.96-3.475 0l10.431 10.431c1.284 1.284 3.366 1.284 4.65 0l3.72-3.72c1.285-1.284 1.285-3.366.001-4.651z" fill="#419b46"/><path d="m147.059 35.078-4.896 4.896c-.96.96-.96 2.516 0 3.475l7.97 7.97c.96.96 2.516.96 3.475 0l4.896-4.896c.96-.96.96-2.516 0-3.475l-7.97-7.97c-.959-.96-2.515-.96-3.475 0z" fill="#65bc49"/><path d="m162.891 65.813c-1.68 0-3.259-.654-4.446-1.842l-28.833-28.833c-1.188-1.188-1.842-2.767-1.842-4.446s.654-3.259 1.842-4.446l3.72-3.72c1.188-1.188 2.767-1.842 4.446-1.842 1.68 0 3.259.654 4.447 1.842l28.833 28.833c1.188 1.187 1.842 2.767 1.842 4.446s-.654 3.259-1.842 4.447l-3.72 3.72c-1.189 1.187-2.768 1.841-4.447 1.841zm-25.113-39.129c-.074 0-.148.028-.205.084l-3.72 3.72c-.112.113-.112.295 0 .408l28.833 28.833c.113.112.295.112.408 0l3.72-3.72c.056-.057.084-.125.084-.204s-.028-.147-.084-.204l-28.833-28.833c-.055-.057-.129-.084-.203-.084z" fill="#1c2d6b"/><path d="m93.829 77.268 6.952-6.952c.429-.429 1.125-.429 1.554 0-1.925-1.925-5.046-1.925-6.971 0l-1.534 1.534c-1.925 1.925-1.925 5.046 0 6.971-.43-.428-.43-1.123-.001-1.553z" fill="#ede49d"/><path d="m102.334 70.317c.429.429.429 1.125 0 1.554l-6.952 6.952c-.429.429-1.125.429-1.554 0 1.925 1.925 5.046 1.925 6.971 0l1.534-1.534c1.926-1.926 1.926-5.047.001-6.972z" fill="#d3ba2a"/><path d="m95.382 78.822 6.952-6.952c.429-.429.429-1.125 0-1.554s-1.125-.429-1.554 0l-6.952 6.952c-.429.429-.429 1.125 0 1.554.43.429 1.125.429 1.554 0z" fill="#eee045"/><path d="m100.8 84.24 6.952-6.952c.429-.429 1.125-.429 1.554 0-1.925-1.925-5.046-1.925-6.971 0l-1.534 1.534c-1.925 1.925-1.925 5.046 0 6.971-.43-.429-.43-1.124-.001-1.553z" fill="#ede49d"/><path d="m109.305 77.288c.429.429.429 1.125 0 1.554l-6.952 6.952c-.429.429-1.125.429-1.554 0 1.925 1.925 5.046 1.925 6.971 0l1.534-1.534c1.926-1.926 1.926-5.047.001-6.972z" fill="#d3ba2a"/><path d="m102.354 85.793 6.952-6.952c.429-.429.429-1.125 0-1.554s-1.125-.429-1.554 0l-6.952 6.953c-.429.429-.429 1.125 0 1.554.429.428 1.125.428 1.554-.001z" fill="#eee045"/><path d="m107.771 91.211 6.952-6.952c.429-.429 1.125-.429 1.554 0-1.925-1.925-5.046-1.925-6.971 0l-1.534 1.534c-1.925 1.925-1.925 5.046 0 6.971-.43-.428-.43-1.124-.001-1.553z" fill="#ede49d"/><path d="m116.276 84.259c.429.429.429 1.125 0 1.554l-6.952 6.952c-.429.429-1.125.429-1.554 0 1.925 1.925 5.046 1.925 6.971 0l1.534-1.534c1.926-1.926 1.926-5.047.001-6.972z" fill="#d3ba2a"/><path d="m109.325 92.765 6.952-6.952c.429-.429.429-1.125 0-1.554s-1.125-.429-1.554 0l-6.952 6.952c-.429.429-.429 1.125 0 1.554s1.125.429 1.554 0z" fill="#eee045"/><path d="m114.742 98.182 6.952-6.952c.429-.429 1.125-.429 1.554 0-1.925-1.925-5.046-1.925-6.971 0l-1.534 1.534c-1.925 1.925-1.925 5.046 0 6.971-.43-.428-.43-1.124-.001-1.553z" fill="#ede49d"/><path d="m123.247 91.23c.429.429.429 1.125 0 1.554l-6.952 6.952c-.429.429-1.125.429-1.554 0 1.925 1.925 5.046 1.925 6.971 0l1.534-1.534c1.927-1.925 1.927-5.047.001-6.972z" fill="#d3ba2a"/><path d="m116.296 99.736 6.952-6.952c.429-.429.429-1.125 0-1.554s-1.125-.429-1.554 0l-6.952 6.952c-.429.429-.429 1.125 0 1.554s1.125.429 1.554 0z" fill="#eee045"/><g fill="#1c2d6b"><path d="m97.314 83.262c-2.031 0-4.061-.773-5.607-2.318-3.091-3.092-3.091-8.123 0-11.213l1.534-1.534c3.092-3.093 8.123-3.092 11.213 0 3.092 3.092 3.091 8.123 0 11.213l-1.534 1.534c-1.545 1.545-3.575 2.318-5.606 2.318zm-1.364-6.561c.753.752 1.976.752 2.729 0l1.534-1.534c.752-.752.752-1.977 0-2.729s-1.976-.752-2.729 0l-1.534 1.534c-.752.753-.752 1.976 0 2.729z"/><path d="m104.286 90.233c-2.031 0-4.061-.773-5.607-2.318-3.091-3.092-3.091-8.123 0-11.213l1.534-1.534c3.091-3.092 8.122-3.092 11.213 0 3.092 3.092 3.091 8.123 0 11.214l-1.534 1.534c-1.545 1.544-3.576 2.317-5.606 2.317zm-1.365-6.561c.753.752 1.976.752 2.729 0l1.534-1.534c.752-.752.752-1.977 0-2.729-.753-.753-1.977-.752-2.729 0l-1.534 1.534c-.752.753-.752 1.976 0 2.729z"/><path d="m118.228 104.176c-2.031 0-4.061-.773-5.607-2.318-3.091-3.092-3.091-8.123 0-11.213l1.534-1.534c1.497-1.498 3.488-2.323 5.606-2.323s4.109.825 5.607 2.323c3.091 3.091 3.092 8.122 0 11.213l-1.535 1.534c-1.544 1.545-3.575 2.318-5.605 2.318zm-1.365-6.561c.753.752 1.976.752 2.729 0l1.534-1.534c.752-.752.752-1.977 0-2.729-.73-.729-2-.729-2.729 0l-1.535 1.534c-.751.752-.751 1.976.001 2.729z"/><path d="m111.257 97.205c-2.031 0-4.061-.773-5.607-2.318-3.091-3.092-3.091-8.123 0-11.213l1.534-1.534c3.091-3.093 8.122-3.091 11.213 0s3.092 8.122 0 11.214l-1.535 1.534c-1.544 1.544-3.575 2.317-5.605 2.317zm-1.365-6.561c.753.752 1.976.752 2.729 0l1.534-1.534c.752-.752.752-1.977 0-2.729-.753-.752-1.976-.752-2.729 0l-1.534 1.534c-.752.752-.752 1.976 0 2.729z"/><path d="m152.561 71.849c-.789 0-1.554-.311-2.122-.879l-18.759-18.76-6.44 6.415c-1.494 1.494-3.485 2.318-5.603 2.318s-4.109-.825-5.607-2.323c-3.091-3.091-3.091-8.122 0-11.213l8.394-8.196c.13-.127.271-.242.423-.344l1.134-.762c.131-.088.269-.166.412-.232l9.334-4.323c1.143-.528 2.493-.288 3.382.601l22.322 22.322c.89.89 1.13 2.24.601 3.382l-4.749 10.254c-.412.89-1.232 1.521-2.197 1.693-.175.031-.351.047-.525.047zm-20.876-26.877c.768 0 1.536.293 2.122.879l17.838 17.839 2.063-4.455-19.36-19.36-7.218 3.343-.71.477-8.172 7.98c-.727.727-.727 1.951.025 2.704.729.728 1.999.728 2.729 0l8.566-8.532c.585-.584 1.351-.875 2.117-.875z"/><path d="m116.72 60.06c-.79 0-1.57-.32-2.12-.88-.56-.55-.88-1.33-.88-2.12 0-.19.02-.39.06-.58.03-.19.09-.38.17-.56.07-.18.16-.36.27-.52s.24-.32.38-.46c1.11-1.11 3.12-1.11 4.24 0 .14.14.26.3.37.46s.2.34.28.52c.07.18.13.37.17.56s.06.39.06.58c0 .79-.32 1.57-.88 2.12-.56.56-1.34.88-2.12.88z"/></g><path d="m134 220.317v-22.706l-3.397 3.397c-.408.408-.892.687-1.403.864v18.445l4.8 6v6h24v-6z" fill="#419b46"/><path d="m126.8 220.317v-18.445c-.511-.177-.995-.455-1.403-.864l-3.397-3.397v22.706l-24 6v6h24v-6z" fill="#a4d4a0"/><path d="m129.2 220.317v-18.445c-.389.134-.793.215-1.2.215s-.811-.081-1.2-.215v18.445l-4.8 6v6h12v-6z" fill="#65bc49"/><path d="m158 235.317h-60c-1.657 0-3-1.343-3-3v-6c0-1.376.937-2.577 2.272-2.911l21.728-5.431v-20.363c0-1.213.731-2.307 1.852-2.771 1.12-.465 2.411-.208 3.269.65l3.397 3.397c.266.266.698.266.964 0l3.397-3.397c.858-.859 2.148-1.116 3.269-.65 1.121.464 1.852 1.558 1.852 2.771v20.363l21.728 5.432c1.335.334 2.272 1.534 2.272 2.911v6c0 1.656-1.343 2.999-3 2.999zm-57-6h54v-.658l-21.728-5.432c-1.335-.334-2.272-1.534-2.272-2.911v-15.941c-1.881.943-4.119.943-6 0v15.941c0 1.376-.937 2.577-2.272 2.911l-21.728 5.432z" fill="#1c2d6b"/></svg>