<svg id="Layer_1" enable-background="new 0 0 256 256" height="512" viewBox="0 0 256 256" width="512" xmlns="http://www.w3.org/2000/svg"><path d="m111.204 189.811v-40.811h-31.204v35.847c0 6.712 5.441 12.153 12.153 12.153h26.24c-3.97 0-7.189-3.219-7.189-7.189z" fill="#89aadb"/><path d="m144.796 149v40.811c0 3.97-3.219 7.189-7.189 7.189h26.24c6.712 0 12.153-5.441 12.153-12.153v-35.847z" fill="#4b67b0"/><path d="m144.796 189.811v-40.811h-33.592v40.811c0 3.97 3.219 7.189 7.189 7.189h19.214c3.97 0 7.189-3.219 7.189-7.189z" fill="#6287c5"/><path d="m100.234 63.741 5.895-21.991h-9.795l-8.5 21.991c-4.353 11.262 3.958 23.384 16.032 23.384h7.487c-8.374 0-14.138-12.122-11.119-23.384z" fill="#ef7f72"/><path d="m168.757 63.741-8.5-21.991h-9.795l5.895 21.991c3.019 11.262-2.745 23.384-11.119 23.384h7.486c12.076 0 20.387-12.122 16.033-23.384z" fill="#e8383b"/><path d="m156.358 63.741-5.895-21.991h-22.167-22.167l-5.895 21.991c-3.019 11.262 2.745 23.384 11.119 23.384h16.943 16.943c8.374 0 14.138-12.122 11.119-23.384z" fill="#e95947"/><path d="m152.726 90.125h-48.86c-6.66 0-12.884-3.279-16.65-8.772s-4.581-12.481-2.18-18.693l8.5-21.991c.447-1.156 1.559-1.918 2.798-1.918h63.923c1.239 0 2.352.762 2.798 1.918l8.5 21.991c2.401 6.212 1.586 13.201-2.18 18.693-3.765 5.493-9.989 8.772-16.649 8.772zm-54.335-45.375-7.758 20.072c-1.713 4.431-1.154 9.22 1.532 13.138s6.951 6.165 11.702 6.165h48.86c4.75 0 9.015-2.247 11.701-6.165s3.245-8.707 1.532-13.138l-7.758-20.072z" fill="#1c2d6b"/><path d="m128.296 74.75c-22.782 0-41.25 18.468-41.25 41.25v33h24.75v-57.75c0-9.113 7.387-16.5 16.5-16.5z" fill="#a4d4a0"/><path d="m128.296 74.75c9.113 0 16.5 7.387 16.5 16.5v57.75h24.75v-33c0-22.782-18.468-41.25-41.25-41.25z" fill="#419b46"/><path d="m128.296 74.75c-9.113 0-16.5 7.387-16.5 16.5v57.75h33v-57.75c0-9.113-7.387-16.5-16.5-16.5z" fill="#65bc49"/><path d="m169.546 152h-82.5c-1.657 0-3-1.343-3-3v-33c0-24.399 19.851-44.25 44.25-44.25s44.25 19.851 44.25 44.25v33c0 1.657-1.343 3-3 3zm-79.5-6h76.5v-30c0-21.091-17.159-38.25-38.25-38.25s-38.25 17.159-38.25 38.25z" fill="#1c2d6b"/><path d="m115.921 80.592 12.375 23.033-3.85-23.033z" fill="#ede49d"/><path d="m132.146 80.592-3.85 23.033 12.375-23.033z" fill="#d3ba2a"/><path d="m124.446 80.592 3.85 23.033 3.85-23.033z" fill="#eee045"/><path d="m128.296 106.625c-1.104 0-2.12-.607-2.643-1.58l-12.375-23.033c-.784-1.459-.237-3.278 1.223-4.062 1.459-.784 3.278-.237 4.062 1.223l9.732 18.114 9.732-18.114c.783-1.46 2.603-2.008 4.062-1.223 1.459.784 2.007 2.603 1.223 4.062l-12.375 23.033c-.521.973-1.537 1.58-2.641 1.58z" fill="#1c2d6b"/><path d="m128.296 152c-1.657 0-3-1.343-3-3v-45.375c0-1.657 1.343-3 3-3s3 1.343 3 3v45.375c0 1.657-1.343 3-3 3z" fill="#1c2d6b"/><path d="m111.796 152c-1.657 0-3-1.343-3-3v-11.133c-5.32-5.322-8.25-12.397-8.25-19.924v-11.589c0-1.657 1.343-3 3-3s3 1.343 3 3v11.589c0 5.925 2.307 11.496 6.497 15.686l.875.875c.562.562.878 1.325.878 2.121v12.375c0 1.657-1.343 3-3 3z" fill="#1c2d6b"/><path d="m144.82 152c-1.657 0-3-1.343-3-3v-12.375c0-.795.316-1.559.879-2.121l.875-.875c4.189-4.19 6.496-9.76 6.496-15.686v-11.589c0-1.657 1.343-3 3-3s3 1.343 3 3v11.589c0 7.526-2.93 14.602-8.25 19.924v11.133c0 1.657-1.343 3-3 3z" fill="#1c2d6b"/><path d="m117.296 50c0-18.225 4.925-33 11-33-18.225 0-33 14.775-33 33s14.775 33 33 33c-6.075 0-11-14.775-11-33z" fill="#ede49d"/><path d="m128.296 17c6.075 0 11 14.775 11 33s-4.925 33-11 33c18.225 0 33-14.775 33-33s-14.775-33-33-33z" fill="#d3ba2a"/><ellipse cx="128.296" cy="50" fill="#eee045" rx="11" ry="33"/><circle cx="117.296" cy="56.836" fill="#1c2d6b" r="2.71"/><circle cx="139.296" cy="56.836" fill="#1c2d6b" r="2.71"/><path d="m124.331 62.379c-.91 0-1.363 1.134-.682 1.738 1.237 1.097 2.864 1.763 4.648 1.763s3.411-.666 4.648-1.763c.681-.604.227-1.738-.682-1.738z" fill="#1c2d6b"/><path d="m128.296 17c-18.225 0-33 14.775-33 33 8.646 0 16.512-3.329 22.396-8.771 1.281-13.966 5.542-24.229 10.604-24.229z" fill="#ef7f72"/><path d="m138.9 41.23c5.884 5.441 13.75 8.77 22.396 8.77 0-18.225-14.775-33-33-33 5.063 0 9.323 10.263 10.604 24.23z" fill="#e8383b"/><path d="m128.296 17c0 9.579 4.085 18.201 10.604 24.229-1.281-13.966-5.541-24.229-10.604-24.229-5.062 0-9.323 10.263-10.604 24.229 6.519-6.028 10.604-14.65 10.604-24.229z" fill="#e95947"/><g fill="#1c2d6b"><path d="m161.296 53c-14.739 0-27.438-8.903-33-21.614-5.563 12.711-18.261 21.614-33 21.614-1.657 0-3-1.343-3-3 0-19.851 16.149-36 36-36s36 16.149 36 36c0 1.657-1.343 3-3 3zm-29.834-32.834c1.477 14.019 12.649 25.191 26.668 26.668-1.477-14.019-12.65-25.191-26.668-26.668zm-6.332 0c-14.019 1.477-25.191 12.649-26.668 26.668 14.018-1.477 25.191-12.649 26.668-26.668z"/><path d="m128.296 86c-19.851 0-36-16.149-36-36s16.149-36 36-36 36 16.149 36 36-16.15 36-36 36zm0-66c-16.542 0-30 13.458-30 30s13.458 30 30 30 30-13.458 30-30-13.458-30-30-30z"/><circle cx="136.546" cy="132.5" r="2.71"/><circle cx="136.546" cy="142.125" r="2.71"/><path d="m128.296 127.25c-.768 0-1.536-.293-2.121-.879l-16.5-16.5c-1.172-1.171-1.172-3.071 0-4.242l2.471-2.472-11.175-18.691c-.851-1.422-.387-3.264 1.035-4.114 1.422-.851 3.264-.388 4.114 1.035l12.375 20.698c.706 1.18.519 2.688-.454 3.661l-2.003 2.004 14.378 14.379c1.172 1.171 1.172 3.071 0 4.242-.584.586-1.353.879-2.12.879z"/><path d="m128.296 127.25c-.768 0-1.536-.293-2.121-.879-1.172-1.171-1.172-3.071 0-4.242l14.378-14.379-2.003-2.004c-.972-.972-1.159-2.48-.454-3.661l12.375-20.698c.851-1.421 2.693-1.886 4.114-1.035 1.422.85 1.886 2.692 1.035 4.114l-11.175 18.691 2.471 2.472c1.172 1.171 1.172 3.071 0 4.242l-16.5 16.5c-.584.586-1.353.879-2.12.879z"/></g><path d="m68 137h36v12h-36z" fill="#ede49d"/><path d="m152 137h36v12h-36z" fill="#d3ba2a"/><path d="m104 137h48v12h-48z" fill="#eee045"/><path d="m188 152h-120c-1.657 0-3-1.343-3-3v-12c0-1.657 1.343-3 3-3h120c1.657 0 3 1.343 3 3v12c0 1.657-1.343 3-3 3zm-117-6h114v-6h-114z" fill="#1c2d6b"/><path d="m163.847 200h-71.694c-8.356 0-15.153-6.797-15.153-15.153v-35.847c0-1.657 1.343-3 3-3h96c1.657 0 3 1.343 3 3v35.847c0 8.356-6.797 15.153-15.153 15.153zm-80.847-48v32.847c0 5.047 4.106 9.153 9.153 9.153h71.694c5.047 0 9.153-4.106 9.153-9.153v-32.847z" fill="#1c2d6b"/><path d="m91.97 197 7.206 42h18.738l-2.522-42z" fill="#89aadb"/><path d="m140.597 197-2.522 42h18.718l7.207-42z" fill="#4b67b0"/><path d="m128.003 197h-.002-.013-.021-12.575l2.522 42h10.053.021.013.002 10.072l2.522-42z" fill="#6287c5"/><path d="m156.793 242h-57.617c-1.461 0-2.709-1.053-2.957-2.493l-7.207-42c-.149-.872.093-1.765.664-2.441.57-.676 1.409-1.066 2.293-1.066h72.031c.884 0 1.724.39 2.293 1.066.57.676.813 1.569.664 2.441l-7.207 42c-.247 1.44-1.496 2.493-2.957 2.493zm-55.087-6h52.559l6.177-36h-64.914z" fill="#1c2d6b"/></svg>