<svg id="Layer_1" enable-background="new 0 0 256 256" height="512" viewBox="0 0 256 256" width="512" xmlns="http://www.w3.org/2000/svg"><path d="m72.702 192.999v-58.999c0-4.971-1.461-9-3.263-9s-3.263-4.029-3.263-9c0-34.794 10.228-63 22.844-63h-1.912c-34.794 0-63 28.206-63 63 0 4.971 4.029 9 9 9s9 4.029 9 9v58.999c0 5.523 4.477 10 10 10h24.221c-2.004 0-3.627-4.478-3.627-10z" fill="#ede49d"/><path d="m93.107 53h-1.912c12.617 0 22.844 28.206 22.844 63 0 4.971-1.461 9-3.263 9s-3.263 4.029-3.263 9v58.999c0 5.523-1.623 10-3.626 10h24.221c5.523 0 10-4.477 10-10v-58.999c0-4.971 4.029-9 9-9s9-4.029 9-9c-.001-34.794-28.207-63-63.001-63z" fill="#d3ba2a"/><path d="m107.512 192.999v-58.999c0-4.971 1.461-9 3.263-9s3.263-4.029 3.263-9c0-34.794-10.228-63-22.844-63h-2.176c-12.617 0-22.844 28.206-22.844 63 0 4.971 1.461 9 3.263 9s3.263 4.029 3.263 9v58.999c0 5.523 1.623 10 3.626 10h27.558c2.005 0 3.628-4.478 3.628-10z" fill="#eee045"/><path d="m128.107 205.999h-76c-7.168 0-13-5.832-13-13v-58.999c0-3.309-2.691-6-6-6-6.617 0-12-5.383-12-12 0-36.393 29.607-66 66-66h6c36.393 0 66 29.607 66 66 0 6.617-5.383 12-12 12-3.309 0-6 2.691-6 6v58.999c0 7.168-5.832 13-13 13zm-41-149.999c-33.084 0-60 26.916-60 60 0 3.309 2.691 6 6 6 6.617 0 12 5.383 12 12v58.999c0 3.86 3.14 7 7 7h76c3.86 0 7-3.14 7-7v-58.999c0-6.617 5.383-12 12-12 3.309 0 6-2.691 6-6 0-33.084-26.916-60-60-60z" fill="#1c2d6b"/><path d="m93.107 68h-1.585c11.664 0 21.297 18.787 22.517 42.833-4.813 2.766-8.362 12.104-8.362 23.167v53.999h17.43v-53.999c0-11.063 7.523-20.402 17.724-23.167-2.587-24.046-23.003-42.833-47.724-42.833z" fill="#e8383b"/><path d="m66.175 110.833c1.22-24.046 10.853-42.833 22.517-42.833h-1.585c-24.721 0-45.137 18.787-47.724 42.833 10.2 2.766 17.724 12.104 17.724 23.167v53.999h17.43v-53.999c0-11.063-3.55-20.402-8.362-23.167z" fill="#ef7f72"/><path d="m114.039 110.833c-1.22-24.046-10.853-42.833-22.516-42.833h-2.831c-11.664 0-21.297 18.787-22.517 42.833 4.813 2.766 8.362 12.104 8.362 23.167v53.999h31.14v-53.999c0-11.063 3.55-20.402 8.362-23.167z" fill="#e95947"/><path d="m123.107 190.999h-66c-1.657 0-3-1.343-3-3v-53.999c0-9.46-6.377-17.796-15.509-20.272-1.423-.386-2.355-1.75-2.198-3.216 2.791-25.946 24.59-45.512 50.707-45.512h6c26.117 0 47.916 19.566 50.707 45.512.158 1.467-.774 2.83-2.198 3.216-9.131 2.476-15.509 10.812-15.509 20.272v53.999c0 1.656-1.343 3-3 3zm-63-6h60v-50.999c0-11.271 7.043-21.303 17.418-25.245-3.499-21.689-22.186-37.755-44.418-37.755h-6c-22.232 0-40.919 16.066-44.418 37.755 10.375 3.942 17.418 13.974 17.418 25.245z" fill="#1c2d6b"/><path d="m186.039 113v84.242c0 3.18-2.578 5.758-5.757 5.758h19.824c5.523 0 10-4.477 10-10v-80z" fill="#4b67b0"/><path d="m162.172 197.242v-84.242h-24.067v80c0 5.523 4.477 10 10 10h19.824c-3.179 0-5.757-2.578-5.757-5.758z" fill="#89aadb"/><path d="m186.039 197.242v-84.242h-23.867v84.242c0 3.18 2.578 5.758 5.757 5.758h12.352c3.18 0 5.758-2.578 5.758-5.758z" fill="#6287c5"/><path d="m200.105 206h-52c-7.168 0-13-5.832-13-13v-80c0-1.657 1.343-3 3-3h72c1.657 0 3 1.343 3 3v80c0 7.168-5.831 13-13 13zm-59-90v77c0 3.86 3.14 7 7 7h52c3.86 0 7-3.14 7-7v-77z" fill="#1c2d6b"/><path d="m210.106 131h8.594v12h-8.594z" fill="#89aadb"/><path d="m210.106 179h8.594v12h-8.594z" fill="#89aadb"/><path d="m224.107 131h-1.433c1.568 0 2.839 4.477 2.839 10v40c0 5.523-1.271 10-2.839 10h1.433c5.523 0 10-4.477 10-10v-40c0-5.523-4.477-10-10-10z" fill="#4b67b0"/><rect fill="#6287c5" height="36" width="0" x="222.107" y="143"/><path d="m225.513 181v-40c0-5.523-1.271-10-2.839-10h-3.974v12h3.407v36h-3.407v12h3.974c1.568 0 2.839-4.477 2.839-10z" fill="#6287c5"/><path d="m224.107 194h-14.001c-1.657 0-3-1.343-3-3s1.343-3 3-3h14.001c3.86 0 7-3.14 7-7v-40c0-3.86-3.14-7-7-7h-11.001v6h9.001c1.657 0 3 1.343 3 3v36c0 1.657-1.343 3-3 3h-12.001c-1.657 0-3-1.343-3-3s1.343-3 3-3h9.001v-30h-9.001c-1.657 0-3-1.343-3-3v-12c0-1.657 1.343-3 3-3h14.001c7.168 0 13 5.832 13 13v40c0 7.168-5.832 13-13 13z" fill="#1c2d6b"/><path d="m42.223 159.553c-.795-11.743 2.566-22.553 7.012-22.553h-8.206c-11.936 0-20.957 10.81-18.822 22.553l7.004 38.52c.519 2.853 3.003 4.926 5.902 4.926h6.994c1.35 0 2.591-.451 3.593-1.203-.441-.882-.764-2.181-.868-3.723z" fill="#ef7f72"/><path d="m67.184 137h-8.206c4.446 0 7.807 10.81 7.011 22.553l-2.609 38.52c-.104 1.542-.427 2.841-.868 3.723 1.002.752 2.244 1.203 3.593 1.203h6.995c2.899 0 5.384-2.073 5.902-4.926l7.004-38.52c2.135-11.743-6.887-22.553-18.822-22.553z" fill="#e8383b"/><path d="m65.989 159.553c.796-11.743-2.565-22.553-7.011-22.553h-9.743c-4.446 0-7.807 10.81-7.011 22.553l2.609 38.52c.104 1.542.427 2.841.868 3.723 1.458-1.094 2.406-2.832 2.406-4.796 0-3.313 2.686-5.999 5.999-5.999h.001c3.313 0 5.999 2.686 5.999 5.999 0 1.964.948 3.702 2.406 4.796.441-.882.764-2.181.868-3.723z" fill="#e95947"/><path d="m73.1 205.999h-6.994c-4.962 0-8.999-4.037-8.999-8.999 0-1.654-1.346-3-3-3s-3 1.345-3 2.999c0 4.962-4.037 9-9 9h-6.994c-4.352 0-8.076-3.108-8.854-7.39l-7.004-38.519c-1.177-6.475.566-13.086 4.783-18.139s10.41-7.951 16.991-7.951h26.154c6.581 0 12.774 2.898 16.991 7.951s5.96 11.664 4.783 18.139l-7.004 38.519c-.778 4.282-4.501 7.39-8.853 7.39zm-18.995-17.999c4.963 0 9.001 4.037 9.001 8.999 0 1.654 1.345 3 2.999 3h6.995c1.45 0 2.691-1.036 2.951-2.463l7.004-38.519c.858-4.72-.413-9.539-3.486-13.222-3.074-3.683-7.589-5.795-12.385-5.795h-26.155c-4.797 0-9.311 2.112-12.385 5.795-3.073 3.683-4.344 8.502-3.486 13.222l7.004 38.519c.259 1.427 1.5 2.463 2.951 2.463h6.994c1.654 0 3-1.345 3-2.999-.001-4.963 4.037-9 8.998-9z" fill="#1c2d6b"/><path d="m54.106 140c-1.657 0-3-1.343-3-3v-24c0-1.657 1.343-3 3-3s3 1.343 3 3v24c0 1.657-1.343 3-3 3z" fill="#1c2d6b"/><path d="m74.823 114.652 3.283-1.652h-4.935c-10.529 0-19.065 8.536-19.065 19.065v4.935l1.652-3.283c3.525-7.005 12.06-15.541 19.065-19.065z" fill="#a4d4a0"/><path d="m76.454 116.283c-3.524 7.005-12.06 15.54-19.065 19.065l-3.283 1.652h4.935c10.529 0 19.065-8.535 19.065-19.065v-4.935z" fill="#419b46"/><path d="m76.454 116.283 1.652-3.283-3.283 1.652c-7.005 3.524-15.54 12.06-19.065 19.065l-1.652 3.283 3.283-1.652c7.006-3.524 15.541-12.06 19.065-19.065z" fill="#65bc49"/><g fill="#1c2d6b"><path d="m59.042 140h-4.936c-1.657 0-3-1.343-3-3v-4.936c0-12.167 9.898-22.064 22.064-22.064h4.936c1.657 0 3 1.343 3 3v4.936c0 12.166-9.898 22.064-22.064 22.064zm-1.936-6h1.936c8.858 0 16.064-7.207 16.064-16.064v-1.936h-1.936c-8.858 0-16.064 7.207-16.064 16.064z"/><path d="m191.383 99.606c-.768 0-1.536-.293-2.122-.879-1.171-1.171-1.171-3.071 0-4.243 2.053-2.053 3.112-4.891 2.906-7.787s-1.656-5.556-3.978-7.298c-3.715-2.786-6.034-7.041-6.363-11.672s1.365-9.171 4.649-12.455c1.171-1.172 3.071-1.172 4.242 0 1.172 1.171 1.172 3.071 0 4.242-2.053 2.053-3.112 4.891-2.906 7.787s1.656 5.556 3.979 7.298c3.714 2.786 6.034 7.041 6.363 11.672s-1.366 9.171-4.649 12.455c-.586.587-1.354.88-2.121.88z"/><path d="m167.035 99.606c-.768 0-1.536-.293-2.122-.879-1.171-1.171-1.171-3.071 0-4.243 2.053-2.052 3.112-4.891 2.906-7.786-.206-2.896-1.656-5.556-3.979-7.298-3.714-2.786-6.034-7.041-6.363-11.672s1.365-9.171 4.649-12.455c1.171-1.172 3.071-1.172 4.242 0 1.172 1.171 1.172 3.071 0 4.242-2.053 2.053-3.112 4.891-2.906 7.787s1.656 5.556 3.979 7.298c3.715 2.786 6.034 7.041 6.363 11.673s-1.365 9.171-4.649 12.455c-.585.585-1.353.878-2.12.878z"/></g></svg>