<svg id="Layer_1" enable-background="new 0 0 256 256" height="512" viewBox="0 0 256 256" width="512" xmlns="http://www.w3.org/2000/svg"><path d="m79.672 119.703c-3.879-8.2-6.414-21.703-6.414-36.984 0-24.942 6.747-45.169 15.084-45.277-24.917.108-45.083 20.335-45.083 45.277 0 15.281 7.577 28.784 19.171 36.984-16.063 9.062-26.916 26.274-26.916 46.032v52.828h35.153v-52.828c-.001-19.758 3.631-36.971 9.005-46.032z" fill="#a4d4a0"/><path d="m114.473 119.829c11.694-8.187 19.348-21.751 19.348-37.11 0-25.008-20.273-45.281-45.281-45.281-.033 0-.066.002-.099.002 8.352.054 15.117 20.304 15.117 45.279 0 15.359-2.561 28.923-6.474 37.11 5.334 9.094 8.932 26.239 8.932 45.906v52.828h35.153v-52.828c.001-19.668-10.754-36.812-26.696-45.906z" fill="#419b46"/><path d="m88.408 37.437c-.022 0-.044.005-.066.005.033 0 .066-.002.099-.002-.011 0-.022-.003-.033-.003z" fill="#65bc49"/><path d="m97.085 119.829c3.913-8.187 6.474-21.751 6.474-37.11 0-24.975-6.765-45.225-15.117-45.279-.033 0-.066.002-.099.002-8.337.107-15.084 20.335-15.084 45.277 0 15.281 2.535 28.784 6.414 36.984-5.374 9.062-9.006 26.274-9.006 46.032v52.828h35.351v-52.828c-.001-19.668-3.6-36.812-8.933-45.906z" fill="#65bc49"/><path d="m141.17 221.563h-105.657c-1.657 0-3-1.343-3-3v-52.829c0-18.625 9.352-35.992 24.673-46.317-10.672-9.131-16.928-22.547-16.928-36.699 0-26.623 21.659-48.282 48.281-48.282s48.281 21.659 48.281 48.282c0 14.245-6.321 27.717-17.104 36.851 15.186 10.343 24.452 27.651 24.452 46.165v52.829c.002 1.657-1.341 3-2.998 3zm-102.657-6h99.657v-49.829c0-17.846-9.65-34.438-25.184-43.3-.893-.51-1.462-1.44-1.51-2.467s.434-2.007 1.276-2.596c11.314-7.921 18.069-20.875 18.069-34.652 0-23.314-18.967-42.282-42.281-42.282s-42.281 18.967-42.281 42.282c0 13.695 6.693 26.605 17.903 34.535.839.594 1.316 1.576 1.264 2.602-.052 1.027-.627 1.955-1.522 2.46-15.662 8.835-25.391 25.472-25.391 43.419z" fill="#1c2d6b"/><path d="m106.897 165.735h30.188v52.828h-30.188z" fill="#ede49d"/><path d="m167.273 165.735h30.188v52.828h-30.188z" fill="#d3ba2a"/><path d="m137.085 165.735h30.188v52.828h-30.188z" fill="#eee045"/><path d="m197.46 221.563h-90.562c-1.657 0-3-1.343-3-3v-52.829c0-1.657 1.343-3 3-3h90.562c1.657 0 3 1.343 3 3v52.829c0 1.657-1.343 3-3 3zm-87.563-6h84.562v-46.829h-84.562z" fill="#1c2d6b"/><path d="m152.179 198.922c-.58 0-1.16-.168-1.664-.504l-45.281-30.188c-1.378-.919-1.751-2.782-.832-4.16.919-1.379 2.781-1.751 4.16-.832l43.617 29.079 43.617-29.079c1.379-.917 3.242-.546 4.16.832.919 1.378.546 3.241-.832 4.16l-45.281 30.188c-.504.336-1.084.504-1.664.504z" fill="#1c2d6b"/><path d="m106.896 221.563c-.728 0-1.457-.263-2.034-.795-1.218-1.124-1.293-3.022-.17-4.239l30.188-32.705c1.124-1.218 3.021-1.294 4.239-.17s1.293 3.022.17 4.239l-30.188 32.705c-.59.64-1.396.965-2.205.965z" fill="#1c2d6b"/><path d="m197.461 221.563c-.809 0-1.614-.325-2.206-.965l-30.188-32.705c-1.124-1.217-1.048-3.115.17-4.239s3.116-1.047 4.239.17l30.188 32.705c1.124 1.217 1.048 3.115-.17 4.239-.576.532-1.306.795-2.033.795z" fill="#1c2d6b"/><path d="m172.487 85.437h12v60h-12z" fill="#4b67b0"/><path d="m184.487 85.437h12v60h-12z" fill="#89aadb"/><path d="m148.487 85.437h12v60h-12z" fill="#89aadb"/><path d="m136.487 85.437h12v60h-12z" fill="#4b67b0"/><path d="m210.487 85.437h-2v60h2c5.523 0 10-4.477 10-10v-40c0-5.523-4.477-10-10-10z" fill="#4b67b0"/><path d="m122.487 85.437c-5.523 0-10 4.477-10 10v40c0 5.523 4.477 10 10 10h2v-60z" fill="#89aadb"/><path d="m124.487 85.437h12v60h-12z" fill="#6287c5"/><path d="m160.487 85.437h12v60h-12z" fill="#6287c5"/><path d="m196.487 85.437h12v60h-12z" fill="#6287c5"/><g fill="#1c2d6b"><path d="m210.487 148.437h-88c-7.168 0-13-5.832-13-13v-40c0-7.168 5.832-13 13-13h88c7.168 0 13 5.832 13 13v40c0 7.168-5.832 13-13 13zm-88-60c-3.86 0-7 3.14-7 7v40c0 3.86 3.14 7 7 7h88c3.86 0 7-3.14 7-7v-40c0-3.86-3.14-7-7-7z"/><path d="m148.487 148.437c-1.657 0-3-1.343-3-3v-60c0-1.657 1.343-3 3-3s3 1.343 3 3v60c0 1.657-1.343 3-3 3z"/><path d="m184.487 148.437c-1.657 0-3-1.343-3-3v-60c0-1.657 1.343-3 3-3s3 1.343 3 3v60c0 1.657-1.343 3-3 3z"/><path d="m118.506 116.064c0-4.707.956-8.436 2.867-11.189 1.911-2.752 4.963-4.128 9.156-4.128 4.165 0 7.209 1.376 9.135 4.128 1.925 2.753 2.888 6.482 2.888 11.189 0 4.735-.962 8.486-2.888 11.253s-4.971 4.15-9.135 4.15c-4.193 0-7.246-1.383-9.156-4.15-1.911-2.767-2.867-6.518-2.867-11.253zm16.773 0c0-2.709-.321-4.785-.963-6.226-.642-1.44-1.904-2.161-3.787-2.161-1.911 0-3.195.728-3.851 2.182-.657 1.455-.984 3.523-.984 6.204 0 2.71.327 4.799.984 6.268.656 1.47 1.939 2.204 3.851 2.204 1.883 0 3.145-.734 3.787-2.204.642-1.468.963-3.557.963-6.267z"/><path d="m154.506 116.064c0-4.707.956-8.436 2.867-11.189 1.911-2.752 4.963-4.128 9.156-4.128 4.165 0 7.209 1.376 9.135 4.128 1.925 2.753 2.888 6.482 2.888 11.189 0 4.735-.962 8.486-2.888 11.253s-4.971 4.15-9.135 4.15c-4.193 0-7.246-1.383-9.156-4.15-1.911-2.767-2.867-6.518-2.867-11.253zm16.773 0c0-2.709-.321-4.785-.963-6.226-.642-1.44-1.904-2.161-3.787-2.161-1.911 0-3.195.728-3.851 2.182-.657 1.455-.984 3.523-.984 6.204 0 2.71.327 4.799.984 6.268.656 1.47 1.939 2.204 3.851 2.204 1.883 0 3.145-.734 3.787-2.204.642-1.468.963-3.557.963-6.267z"/><path d="m210.427 132.527c-1.67-1.65-4.15-2.48-7.43-2.48-3.13 0-5.73.93-7.78 2.78-2.06 1.86-3.17 4.62-3.34 8.3h7.14c.06-1.68.35-2.92.88-3.72s1.36-1.2 2.5-1.2c2.03 0 3.04 1.17 3.04 3.51 0 1.66-.85 3.56-2.55 5.72h7.6c.2 0 .39-.01.58-.02 1.24-2.11 1.86-4.25 1.86-6.43 0-2.65-.83-4.8-2.5-6.46z"/><path d="m201.457 96.907c3.14-1.94 5.84-4.31 8.09-7.12 1.11-1.39 1.95-2.8 2.51-4.22-.51-.09-1.03-.13-1.57-.13h-6.13c-1.84 3.29-6.01 7.25-12.52 11.9v5.48h21.56v-5.91z"/></g></svg>