<svg id="Layer_1" enable-background="new 0 0 256 256" height="512" viewBox="0 0 256 256" width="512" xmlns="http://www.w3.org/2000/svg"><path d="m131.889 77.053c-.089-.002-.177-.01-.266-.012.037.002.073.006.11.008.052.001.104.003.156.004z" fill="#eee045"/><path d="m189.748 122.203c7.325 7.239 11.772 15.879 12.231 25.194-.827-37.684-30.595-68.196-67.965-70.244 25.339 1.737 46.702 19.875 55.734 45.05z" fill="#d3ba2a"/><path d="m70.291 122.203c9.032-25.175 30.395-43.313 55.734-45.051-37.37 2.049-67.138 32.56-67.965 70.244.459-9.315 4.906-17.954 12.231-25.193z" fill="#a4d4a0"/><path d="m128.416 77.041c-.089.002-.177.01-.266.012.052-.002.104-.003.156-.004.036-.002.073-.006.11-.008z" fill="#65bc49"/><path d="m70.291 175.798c-7.325-7.239-11.772-15.879-12.231-25.194.827 37.684 30.595 68.196 67.965 70.244-25.34-1.737-46.702-19.875-55.734-45.05z" fill="#89aadb"/><path d="m128.15 220.947c.089.002.177.01.266.012-.037-.002-.073-.006-.11-.008-.052-.001-.104-.002-.156-.004z" fill="#89aadb"/><path d="m131.623 220.96c.089-.002.177-.01.266-.012-.052.002-.104.003-.156.004-.036.002-.073.006-.11.008z" fill="#89aadb"/><path d="m189.748 175.798c-9.032 25.175-30.395 43.313-55.734 45.051 37.37-2.049 67.138-32.56 67.965-70.244-.459 9.314-4.906 17.954-12.231 25.193z" fill="#4b67b0"/><path d="m66.103 140.721c.663-6.474 2.094-12.683 4.188-18.518-7.325 7.239-11.772 15.879-12.231 25.194-.012.535-.041 1.066-.041 1.604 0-2.988 2.929-5.802 8.084-8.28z" fill="#89aadb"/><path d="m193.936 157.28c-.663 6.474-2.094 12.683-4.188 18.518 7.325-7.239 11.772-15.879 12.231-25.194.012-.535.041-1.066.041-1.604-.001 2.987-2.929 5.801-8.084 8.28z" fill="#4b67b0"/><path d="m189.748 122.203c2.094 5.835 3.525 12.044 4.188 18.518 5.155 2.479 8.083 5.293 8.083 8.28 0-.538-.029-1.069-.041-1.604-.458-9.316-4.905-17.955-12.23-25.194z" fill="#e8383b"/><path d="m70.291 175.798c-2.094-5.835-3.525-12.044-4.188-18.518-5.155-2.479-8.083-5.293-8.083-8.28 0 .538.029 1.069.041 1.604.458 9.315 4.905 17.955 12.23 25.194z" fill="#ede49d"/><path d="m193.936 140.721c.278 2.719.437 5.478.437 8.28s-.158 5.561-.437 8.28c5.155-2.479 8.083-5.293 8.083-8.28 0-2.988-2.928-5.802-8.083-8.28z" fill="#4b67b0"/><path d="m66.103 157.28c-.278-2.719-.437-5.478-.437-8.28s.158-5.561.437-8.28c-5.155 2.479-8.083 5.293-8.083 8.28-.001 2.987 2.928 5.801 8.083 8.28z" fill="#89aadb"/><path d="m131.187 220.967c-.388.022-.777.033-1.168.033.538 0 1.069-.029 1.604-.041.037-.002.073-.006.11-.008-.182.006-.363.013-.546.016z" fill="#4b67b0"/><path d="m128.852 77.033c.388-.022.777-.033 1.168-.033-.538 0-1.069.029-1.604.041-.037.002-.073.006-.11.008.182-.006.363-.012.546-.016z" fill="#89aadb"/><path d="m128.306 220.952c.037.002.073.006.11.008.535.012 1.066.041 1.604.041-.391 0-.78-.011-1.168-.033-.183-.004-.364-.011-.546-.016z" fill="#ede49d"/><path d="m131.733 77.049c-.037-.002-.073-.006-.11-.008-.535-.012-1.066-.041-1.604-.041.391 0 .78.011 1.168.033.183.004.364.01.546.016z" fill="#4b67b0"/><path d="m130.019 221c.391 0 .78-.011 1.168-.033-.39.008-.776.033-1.168.033z" fill="#6287c5"/><path d="m130.019 77c-.391 0-.78.011-1.168.033.391-.007.777-.033 1.168-.033z" fill="#6287c5"/><path d="m130.019 221c-.392 0-.778-.025-1.168-.033.389.022.778.033 1.168.033z" fill="#eee045"/><path d="m130.019 77c.392 0 .778.025 1.168.033-.388-.022-.777-.033-1.168-.033z" fill="#6287c5"/><path d="m126.022 80.152c-1.574 0-2.894-1.226-2.992-2.815-.102-1.646 1.144-3.065 2.789-3.178.714-.049 1.432-.078 2.152-.102.059-.002.12-.005.179-.004 1.617 0 2.95 1.287 2.997 2.913.048 1.652-1.25 3.032-2.902 3.085-.008 0-.016 0-.023 0l-1.003.047c-.396.018-.714.031-1.031.049-.055.004-.11.005-.166.005z" fill="#1c2d6b"/><path d="m134.017 80.152c-.055 0-.11-.001-.166-.004-.317-.018-.635-.031-.953-.044-.026-.001-.052-.002-.078-.004l-1.004-.047c-.008 0-.016 0-.023 0-1.652-.054-2.95-1.433-2.902-3.085.048-1.653 1.448-2.945 3.076-2.912.034.001.067.002.1.003.72.023 1.438.053 2.153.102 1.645.113 2.891 1.532 2.789 3.178-.098 1.588-1.418 2.813-2.992 2.813z" fill="#1c2d6b"/><path d="m131.888 223.947c-1.618 0-2.951-1.288-2.997-2.914-.048-1.653 1.251-3.032 2.904-3.084h.021l.997-.046c.406-.018.723-.032 1.039-.049 1.654-.077 3.057 1.166 3.158 2.811.102 1.646-1.144 3.065-2.789 3.178-.718.049-1.441.079-2.165.102-.056.001-.113.002-.168.002z" fill="#1c2d6b"/><path d="m128.151 223.947c-.056 0-.111-.002-.167-.004-.724-.023-1.446-.053-2.164-.102-1.645-.113-2.891-1.532-2.789-3.178.101-1.646 1.499-2.897 3.158-2.811.315.018.631.031.948.044.03.001.061.003.091.005l.996.046h.021c1.653.052 2.952 1.432 2.904 3.084-.047 1.629-1.38 2.916-2.998 2.916z" fill="#1c2d6b"/><path d="m178.798 113.707c4.124 2.534 7.803 5.385 10.95 8.495-9.032-25.175-30.395-43.313-55.734-45.051-.33-.018-.661-.033-.993-.046 19.673 1.339 36.641 15.751 45.777 36.602z" fill="#eee045"/><path d="m131.916 77.062c.179.008.36.008.539.018-.189-.006-.376-.021-.565-.026-.052-.002-.104-.003-.156-.004.06.002.121.008.182.012z" fill="#eee045"/><path d="m128.123 77.062c.061-.004.121-.01.182-.013-.052.002-.104.003-.156.004-.189.005-.376.02-.565.026.179-.009.36-.009.539-.017z" fill="#65bc49"/><path d="m70.291 122.203c3.147-3.11 6.826-5.961 10.95-8.496 9.136-20.851 26.104-35.264 45.777-36.601-.331.014-.663.028-.993.046-25.34 1.738-46.702 19.876-55.734 45.051z" fill="#65bc49"/><path d="m81.241 184.293c-4.125-2.534-7.803-5.385-10.95-8.495 9.032 25.175 30.395 43.313 55.734 45.051.33.018.661.033.993.046-19.673-1.338-36.641-15.751-45.777-36.602z" fill="#6287c5"/><path d="m128.123 220.939c-.179-.008-.36-.008-.539-.018.189.006.376.021.565.026.052.002.104.003.156.004-.06-.002-.121-.009-.182-.012z" fill="#89aadb"/><path d="m189.748 175.798c-3.147 3.11-6.825 5.961-10.95 8.495-9.136 20.851-26.104 35.264-45.777 36.601.331-.014.663-.028.993-.046 25.339-1.737 46.702-19.875 55.734-45.05z" fill="#6287c5"/><path d="m131.916 220.939c-.061.004-.121.01-.182.013.052-.002.104-.003.156-.004.189-.005.376-.02.565-.026-.179.009-.36.009-.539.017z" fill="#89aadb"/><path d="m81.241 113.707c-4.124 2.534-7.803 5.385-10.95 8.496-2.093 5.835-3.525 12.044-4.188 18.518 2.422-1.165 5.33-2.256 8.672-3.255 1.065-8.513 3.295-16.521 6.466-23.759z" fill="#6287c5"/><path d="m178.798 184.293c4.125-2.534 7.803-5.385 10.95-8.495 2.094-5.835 3.525-12.044 4.188-18.518-2.422 1.165-5.33 2.256-8.671 3.255-1.066 8.513-3.296 16.521-6.467 23.758z" fill="#6287c5"/><path d="m193.936 140.721c-.663-6.474-2.094-12.683-4.188-18.518-3.147-3.11-6.826-5.961-10.95-8.495 3.171 7.237 5.4 15.245 6.466 23.759 3.342.997 6.25 2.089 8.672 3.254z" fill="#e95947"/><path d="m66.103 157.28c.663 6.474 2.094 12.683 4.188 18.518 3.147 3.11 6.826 5.961 10.95 8.495-3.171-7.237-5.4-15.245-6.466-23.759-3.342-.998-6.25-2.089-8.672-3.254z" fill="#eee045"/><path d="m193.936 140.721c-2.422-1.165-5.33-2.256-8.671-3.255.47 3.757.724 7.607.724 11.534s-.254 7.778-.724 11.534c3.342-.999 6.249-2.09 8.671-3.255.278-2.719.437-5.478.437-8.28s-.159-5.56-.437-8.278z" fill="#6287c5"/><path d="m74.05 149c0-3.927.254-7.778.724-11.534-3.342.999-6.249 2.09-8.672 3.255-.278 2.719-.437 5.478-.437 8.28s.158 5.561.437 8.28c2.422 1.165 5.33 2.256 8.672 3.255-.47-3.758-.724-7.608-.724-11.536z" fill="#6287c5"/><path d="m131.187 220.967c.182-.004.364-.01.546-.015.061-.003.121-.01.182-.013-.211.009-.422.015-.633.021-.031.001-.063.005-.095.007z" fill="#4b67b0"/><path d="m128.852 77.033c-.182.004-.364.01-.546.015-.061.003-.121.01-.182.013.211-.009.422-.015.633-.021.031-.001.063-.005.095-.007z" fill="#89aadb"/><path d="m128.306 220.952c.182.005.364.012.546.015-.032-.002-.064-.006-.096-.008-.211-.006-.422-.012-.633-.021.061.004.122.011.183.014z" fill="#ede49d"/><path d="m131.733 77.049c-.182-.005-.364-.012-.546-.015.032.002.064.006.096.008.211.006.422.012.633.021-.061-.005-.122-.011-.183-.014z" fill="#4b67b0"/><path d="m131.283 220.959c-.421.012-.84.041-1.263.041.392 0 .778-.025 1.168-.033.031-.002.063-.006.095-.008z" fill="#6287c5"/><path d="m128.756 77.041c.421-.012.84-.041 1.263-.041-.392 0-.778.025-1.168.033-.031.002-.063.006-.095.008z" fill="#6287c5"/><path d="m128.852 220.967c.39.008.776.033 1.168.033-.424 0-.842-.029-1.263-.041.031.002.063.006.095.008z" fill="#eee045"/><path d="m131.187 77.033c-.39-.008-.776-.033-1.168-.033.424 0 .842.029 1.263.041-.031-.002-.063-.006-.095-.008z" fill="#6287c5"/><path d="m133.023 80.106c-.042 0-.083-.001-.125-.002l-.606-.028c-1.642-.089-2.906-1.484-2.834-3.127.073-1.644 1.484-2.904 3.098-2.867l.257.011c.137.005.274.011.411.021 1.638.11 2.883 1.517 2.794 3.156-.088 1.596-1.41 2.836-2.995 2.836z" fill="#1c2d6b"/><path d="m127.016 80.106c-1.585 0-2.907-1.24-2.994-2.837-.089-1.639 1.156-3.046 2.793-3.156.137-.009.274-.015.412-.021l.256-.011c1.645-.033 3.026 1.224 3.098 2.867s-1.192 3.038-2.834 3.127l-.606.028c-.042.002-.084.003-.125.003z" fill="#1c2d6b"/><path d="m132.453 223.921c-1.598 0-2.924-1.259-2.995-2.868-.072-1.643 1.192-3.038 2.834-3.127l.606-.028c1.649-.05 3.028 1.193 3.119 2.831s-1.15 3.045-2.786 3.159c-.142.01-.284.016-.426.021l-.25.011c-.034 0-.068.001-.102.001z" fill="#1c2d6b"/><path d="m127.586 223.921c-.034 0-.068 0-.103-.001l-.25-.011c-.143-.006-.285-.012-.427-.021-1.636-.115-2.876-1.522-2.785-3.16.091-1.637 1.48-2.881 3.119-2.831l.606.028c1.642.089 2.907 1.484 2.834 3.127-.069 1.609-1.395 2.869-2.994 2.869z" fill="#1c2d6b"/><path d="m169.958 109.062c3.13 1.394 6.082 2.95 8.841 4.645-9.136-20.851-26.104-35.263-45.777-36.601-.189-.008-.377-.02-.567-.026-.179-.01-.36-.01-.539-.018 15.871.926 29.763 13.41 38.042 32z" fill="#ede49d"/><path d="m128.123 77.062c-.179.008-.36.008-.539.018-.19.006-.378.019-.567.026-19.673 1.338-36.641 15.75-45.777 36.601 2.758-1.695 5.71-3.251 8.841-4.645 8.279-18.59 22.171-31.074 38.042-32z" fill="#419b46"/><path d="m90.081 188.938c-3.13-1.394-6.082-2.95-8.841-4.645 9.136 20.851 26.104 35.264 45.777 36.601.189.008.377.02.567.026.179.01.36.01.539.018-15.871-.925-29.763-13.409-38.042-32z" fill="#4b67b0"/><path d="m131.916 220.939c.179-.008.36-.008.539-.018.19-.006.378-.019.567-.026 19.673-1.338 36.641-15.751 45.777-36.601-2.758 1.695-5.711 3.251-8.841 4.645-8.279 18.59-22.171 31.074-38.042 32z" fill="#89aadb"/><path d="m82.886 135.4c1.223-9.59 3.707-18.506 7.195-26.337-3.13 1.394-6.082 2.95-8.841 4.645-3.171 7.237-5.4 15.245-6.466 23.759 2.481-.742 5.192-1.434 8.112-2.067z" fill="#4b67b0"/><path d="m177.153 162.601c-1.223 9.59-3.707 18.506-7.195 26.337 3.13-1.394 6.083-2.95 8.841-4.645 3.171-7.237 5.4-15.245 6.466-23.759-2.481.742-5.192 1.434-8.112 2.067z" fill="#89aadb"/><path d="m177.153 135.4c2.921.633 5.631 1.325 8.112 2.066-1.066-8.513-3.295-16.521-6.466-23.759-2.758-1.695-5.71-3.251-8.841-4.645 3.487 7.832 5.972 16.747 7.195 26.338z" fill="#ef7f72"/><path d="m82.886 162.601c-2.921-.633-5.631-1.325-8.112-2.066 1.066 8.513 3.295 16.521 6.466 23.759 2.758 1.695 5.71 3.251 8.841 4.645-3.487-7.832-5.972-16.748-7.195-26.338z" fill="#d3ba2a"/><path d="m178.019 149c0 4.652-.305 9.195-.867 13.601 2.921-.633 5.631-1.325 8.112-2.066.47-3.757.724-7.607.724-11.534s-.254-7.778-.724-11.534c-2.481-.741-5.191-1.433-8.112-2.066.562 4.405.867 8.948.867 13.599z" fill="#89aadb"/><path d="m82.886 135.4c-2.921.633-5.631 1.325-8.112 2.066-.47 3.757-.724 7.607-.724 11.534s.254 7.778.724 11.534c2.481.741 5.191 1.433 8.112 2.066-.562-4.406-.867-8.949-.867-13.601 0-4.65.306-9.193.867-13.599z" fill="#4b67b0"/><path d="m169.958 188.938c-2.995 1.334-6.151 2.518-9.441 3.544-6.751 16.735-17.3 27.748-29.234 28.477.211-.006.422-.012.633-.021 15.871-.925 29.763-13.409 38.042-32z" fill="#4b67b0"/><path d="m90.081 109.062c2.995-1.334 6.151-2.518 9.441-3.544 6.751-16.735 17.3-27.748 29.234-28.477-.211.006-.422.012-.633.021-15.871.926-29.763 13.41-38.042 32z" fill="#89aadb"/><path d="m128.123 220.939c.211.009.422.015.633.021-11.934-.729-22.483-11.741-29.234-28.477-3.289-1.026-6.446-2.21-9.441-3.544 8.279 18.59 22.171 31.074 38.042 32z" fill="#ede49d"/><path d="m131.916 77.062c-.211-.009-.422-.015-.633-.021 11.934.729 22.483 11.741 29.234 28.477 3.289 1.026 6.446 2.21 9.441 3.544-8.279-18.59-22.171-31.074-38.042-32z" fill="#4b67b0"/><path d="m177.153 162.601c-3.036.658-6.301 1.252-9.748 1.777-1.201 10.382-3.588 19.926-6.887 28.104 3.289-1.026 6.446-2.21 9.441-3.544 3.486-7.831 5.971-16.747 7.194-26.337z" fill="#e8383b"/><path d="m177.153 135.4c-1.223-9.59-3.707-18.506-7.195-26.337-2.995-1.334-6.151-2.518-9.441-3.544 3.299 8.178 5.686 17.723 6.887 28.104 3.448.525 6.712 1.118 9.749 1.777z" fill="#4b67b0"/><path d="m82.886 162.601c1.223 9.59 3.707 18.506 7.195 26.338 2.995 1.334 6.151 2.518 9.441 3.544-3.299-8.178-5.686-17.723-6.887-28.104-3.448-.526-6.712-1.12-9.749-1.778z" fill="#89aadb"/><path d="m82.886 135.4c3.036-.658 6.301-1.252 9.748-1.777 1.201-10.382 3.588-19.926 6.887-28.104-3.289 1.026-6.446 2.21-9.441 3.544-3.486 7.831-5.971 16.746-7.194 26.337z" fill="#ef7f72"/><path d="m92.635 133.623c-3.448.525-6.712 1.119-9.748 1.777-.562 4.406-.867 8.949-.867 13.601s.305 9.195.867 13.601c3.036.658 6.301 1.252 9.748 1.777-.573-4.957-.884-10.098-.884-15.378s.31-10.422.884-15.378z" fill="#89aadb"/><path d="m177.153 135.4c-3.036-.658-6.301-1.252-9.748-1.777.573 4.957.884 10.098.884 15.378s-.31 10.421-.884 15.378c3.448-.525 6.712-1.119 9.748-1.777.562-4.406.867-8.949.867-13.601-.001-4.652-.306-9.195-.867-13.601z" fill="#4b67b0"/><path d="m160.517 192.482c-2.771.864-5.645 1.604-8.595 2.231-5.199 16.05-13.08 26.287-21.902 26.287.424 0 .842-.029 1.263-.041 11.934-.729 22.483-11.741 29.234-28.477z" fill="#6287c5"/><path d="m99.522 105.518c2.771-.864 5.645-1.604 8.595-2.231 5.2-16.05 13.08-26.287 21.902-26.287-.424 0-.842.029-1.263.041-11.934.729-22.483 11.742-29.234 28.477z" fill="#6287c5"/><path d="m108.117 194.714c-2.95-.627-5.824-1.367-8.595-2.231 6.751 16.735 17.3 27.748 29.234 28.477.421.012.84.041 1.263.041-8.822-.001-16.702-10.237-21.902-26.287z" fill="#eee045"/><path d="m151.922 103.287c2.95.627 5.824 1.367 8.595 2.231-6.751-16.735-17.3-27.748-29.234-28.477-.421-.012-.84-.041-1.263-.041 8.822 0 16.702 10.237 21.902 26.287z" fill="#6287c5"/><path d="m157.601 165.62c-1.01 10.851-2.98 20.759-5.68 29.094 2.95-.627 5.824-1.367 8.595-2.231 3.299-8.178 5.686-17.723 6.887-28.104-3.116.474-6.396.887-9.802 1.241z" fill="#e95947"/><path d="m167.404 133.623c-1.201-10.382-3.588-19.926-6.887-28.104-2.771-.864-5.645-1.604-8.595-2.231 2.7 8.334 4.67 18.242 5.68 29.094 3.405.353 6.685.766 9.802 1.241z" fill="#6287c5"/><path d="m92.635 164.378c1.201 10.382 3.588 19.926 6.887 28.104 2.771.864 5.645 1.604 8.595 2.231-2.7-8.334-4.67-18.242-5.68-29.094-3.405-.353-6.685-.766-9.802-1.241z" fill="#6287c5"/><path d="m102.438 132.381c1.01-10.851 2.98-20.759 5.68-29.094-2.95.627-5.824 1.367-8.595 2.231-3.299 8.178-5.686 17.723-6.887 28.104 3.116-.474 6.396-.887 9.802-1.241z" fill="#e95947"/><path d="m102.438 132.381c-3.405.354-6.686.767-9.803 1.242-.573 4.957-.884 10.098-.884 15.378s.31 10.421.884 15.378c3.117.475 6.398.888 9.803 1.242-.497-5.337-.768-10.897-.768-16.62s.271-11.283.768-16.62z" fill="#6287c5"/><path d="m167.404 133.623c-3.117-.475-6.398-.888-9.803-1.242.497 5.337.768 10.897.768 16.62s-.271 11.282-.768 16.62c3.405-.354 6.686-.767 9.803-1.242.573-4.957.884-10.098.884-15.378s-.31-10.422-.884-15.378z" fill="#6287c5"/><path d="m151.922 194.714c-2.704.575-5.469 1.059-8.302 1.42-3.3 15.224-8.167 24.867-13.601 24.867 8.823-.001 16.703-10.237 21.903-26.287z" fill="#89aadb"/><path d="m108.117 103.287c2.704-.575 5.469-1.059 8.302-1.42 3.3-15.224 8.167-24.867 13.6-24.867-8.822 0-16.702 10.237-21.902 26.287z" fill="#4b67b0"/><path d="m116.419 196.133c-2.832-.361-5.597-.845-8.302-1.42 5.199 16.05 13.08 26.287 21.902 26.287-5.433 0-10.3-9.642-13.6-24.867z" fill="#d3ba2a"/><path d="m143.62 101.867c2.832.361 5.597.845 8.302 1.42-5.2-16.05-13.08-26.287-21.903-26.287 5.434 0 10.301 9.643 13.601 24.867z" fill="#89aadb"/><path d="m147.483 166.464c-.695 11.148-2.04 21.258-3.863 29.669 2.832-.361 5.597-.845 8.302-1.42 2.7-8.334 4.67-18.242 5.68-29.094-3.263.34-6.633.628-10.119.845z" fill="#ef7f72"/><path d="m157.601 132.381c-1.01-10.851-2.98-20.759-5.68-29.094-2.704-.575-5.469-1.059-8.302-1.42 1.823 8.412 3.169 18.522 3.863 29.669 3.487.218 6.857.505 10.119.845z" fill="#89aadb"/><path d="m102.438 165.62c1.01 10.851 2.98 20.759 5.68 29.094 2.704.575 5.469 1.059 8.302 1.42-1.823-8.412-3.169-18.522-3.863-29.669-3.487-.218-6.857-.506-10.119-.845z" fill="#4b67b0"/><path d="m112.556 131.536c.695-11.148 2.04-21.258 3.863-29.669-2.832.361-5.597.845-8.302 1.42-2.7 8.334-4.67 18.242-5.68 29.094 3.263-.34 6.633-.627 10.119-.845z" fill="#e8383b"/><path d="m112.556 131.536c-3.486.217-6.855.505-10.118.844-.497 5.337-.768 10.897-.768 16.62s.271 11.282.768 16.62c3.263.339 6.632.627 10.118.844-.348-5.593-.536-11.44-.536-17.464s.187-11.871.536-17.464z" fill="#4b67b0"/><path d="m157.601 132.381c-3.263-.339-6.632-.627-10.118-.844.348 5.593.536 11.44.536 17.464s-.188 11.871-.536 17.464c3.486-.217 6.855-.505 10.118-.844.497-5.337.768-10.897.768-16.62s-.271-11.283-.768-16.62z" fill="#89aadb"/><path d="m116.419 101.867c2.979-.38 6.026-.631 9.122-.761 1.099-14.786 2.698-24.106 4.478-24.106-5.433 0-10.3 9.643-13.6 24.867z" fill="#ede49d"/><path d="m134.498 101.106c3.096.13 6.143.381 9.122.761-3.3-15.224-8.167-24.867-13.601-24.867 1.781 0 3.38 9.32 4.479 24.106z" fill="#d3ba2a"/><path d="m143.62 196.133c-2.979.38-6.026.631-9.122.761-1.099 14.787-2.698 24.106-4.479 24.106 5.434 0 10.301-9.642 13.601-24.867z" fill="#419b46"/><path d="m125.541 196.895c-3.096-.13-6.143-.381-9.122-.761 3.3 15.224 8.167 24.867 13.601 24.867-1.781-.001-3.38-9.32-4.479-24.106z" fill="#a4d4a0"/><path d="m112.556 166.464c.695 11.148 2.04 21.258 3.863 29.669 2.979.38 6.026.631 9.122.761-.627-8.442-1.092-18.662-1.334-29.96-3.981-.08-7.878-.235-11.651-.47z" fill="#89aadb"/><path d="m135.832 166.935c-.241 11.299-.706 21.518-1.334 29.96 3.096-.13 6.143-.381 9.122-.761 1.823-8.412 3.169-18.522 3.863-29.669-3.773.234-7.67.389-11.651.47z" fill="#4b67b0"/><path d="m147.483 131.536c-.695-11.148-2.04-21.258-3.863-29.669-2.979-.38-6.026-.631-9.122-.761.627 8.442 1.092 18.662 1.334 29.96 3.981.08 7.878.235 11.651.47z" fill="#4b67b0"/><path d="m124.207 131.066c.241-11.299.706-21.518 1.334-29.96-3.096.13-6.143.381-9.122.761-1.823 8.412-3.169 18.522-3.863 29.669 3.773-.235 7.67-.39 11.651-.47z" fill="#89aadb"/><path d="m147.483 131.536c-3.773-.235-7.67-.39-11.652-.47.122 5.734.188 11.742.188 17.934s-.065 12.201-.188 17.934c3.981-.08 7.878-.235 11.652-.47.348-5.593.536-11.44.536-17.464s-.187-11.871-.536-17.464z" fill="#419b46"/><path d="m124.207 131.066c-3.981.08-7.878.235-11.652.47-.348 5.593-.536 11.44-.536 17.464s.188 11.871.536 17.464c3.773.235 7.67.39 11.652.47-.122-5.734-.188-11.742-.188-17.934s.066-12.2.188-17.934z" fill="#a4d4a0"/><path d="m125.541 101.106c1.482-.062 2.972-.106 4.479-.106 1.506 0 2.996.043 4.479.106-1.1-14.786-2.699-24.106-4.48-24.106s-3.379 9.32-4.478 24.106z" fill="#eee045"/><path d="m134.498 196.895c-1.482.062-2.972.106-4.479.106-1.506 0-2.996-.043-4.479-.106 1.099 14.786 2.698 24.106 4.479 24.106s3.38-9.32 4.479-24.106z" fill="#65bc49"/><path d="m130.019 167c-1.96 0-3.893-.027-5.812-.066.241 11.299.706 21.518 1.334 29.96 1.482.062 2.972.106 4.479.106 1.506 0 2.996-.043 4.479-.106.627-8.442 1.092-18.662 1.334-29.96-1.921.039-3.854.066-5.814.066z" fill="#6287c5"/><path d="m130.019 131c1.96 0 3.893.027 5.812.066-.241-11.299-.706-21.518-1.334-29.96-1.482-.062-2.972-.106-4.479-.106-1.506 0-2.996.043-4.479.106-.627 8.442-1.092 18.662-1.334 29.96 1.922-.039 3.855-.066 5.814-.066z" fill="#6287c5"/><path d="m135.832 131.066c-1.92-.039-3.853-.066-5.812-.066s-3.893.027-5.812.066c-.122 5.734-.188 11.742-.188 17.934s.065 12.201.188 17.934c1.92.039 3.853.066 5.812.066s3.893-.027 5.812-.066c.122-5.734.188-11.742.188-17.934s-.066-12.2-.188-17.934z" fill="#65bc49"/><g fill="#1c2d6b"><path d="m130.02 224c-41.355 0-75-33.645-75-75s33.645-75 75-75 75 33.645 75 75-33.645 75-75 75zm0-144c-38.047 0-69 30.953-69 69s30.953 69 69 69 69-30.953 69-69-30.954-69-69-69z"/><path d="m130.02 200c-41.355 0-75-22.878-75-51s33.645-51 75-51 75 22.878 75 51-33.645 51-75 51zm0-96c-38.047 0-69 20.187-69 45s30.953 45 69 45 69-20.187 69-45-30.954-45-69-45z"/><path d="m130.02 170c-30.148 0-75-5.593-75-21s44.852-21 75-21 75 5.593 75 21-44.853 21-75 21zm0-36c-45.302 0-69 9.765-69 15s23.698 15 69 15 69-9.765 69-15-23.698-15-69-15z"/><path d="m130.02 224c-28.122 0-51-33.645-51-75s22.878-75 51-75 51 33.645 51 75-22.879 75-51 75zm0-144c-24.813 0-45 30.953-45 69s20.187 69 45 69 45-30.953 45-69-20.187-69-45-69z"/><path d="m130.02 224c-15.407 0-21-44.852-21-75s5.593-75 21-75 21 44.852 21 75-5.593 75-21 75zm0-144c-5.235 0-15 23.698-15 69s9.765 69 15 69 15-23.698 15-69-9.766-69-15-69z"/></g><path d="m132.794 29h6.224v36h-6.224z" fill="#419b46"/><path d="m121.018 29h6.224v36h-6.224z" fill="#a4d4a0"/><path d="m127.242 29h5.551v36h-5.551z" fill="#65bc49"/><path d="m139.018 68h-18c-1.657 0-3-1.343-3-3v-36c0-1.657 1.343-3 3-3h18c1.657 0 3 1.343 3 3v36c0 1.657-1.343 3-3 3zm-15-6h12v-30h-12z" fill="#1c2d6b"/><path d="m126.053 65h-10.033c-5.523 0-10 4.477-10 10v6.113c5.462-1.931 11.225-3.22 17.2-3.784v-2.329c-.001-5.523 1.268-10 2.833-10z" fill="#ef7f72"/><path d="m154.019 75c0-5.523-4.477-10-10-10h-10.033c1.565 0 2.833 4.477 2.833 10v2.329c5.975.564 11.738 1.853 17.2 3.784z" fill="#e8383b"/><path d="m133.986 65h-7.934c-1.565 0-2.833 4.477-2.833 10v2.329c2.239-.211 4.506-.329 6.8-.329 2.295 0 4.561.118 6.8.329v-2.329c.001-5.523-1.268-10-2.833-10z" fill="#e95947"/><path d="m106.02 84.113c-.612 0-1.219-.188-1.732-.55-.795-.562-1.268-1.476-1.268-2.45v-6.113c0-7.168 5.832-13 13-13h28c7.168 0 13 5.832 13 13v6.113c0 .974-.473 1.887-1.268 2.449-.795.563-1.813.703-2.732.379-7.398-2.615-15.137-3.941-23-3.941-7.864 0-15.603 1.326-23 3.941-.326.116-.664.172-1 .172zm24-10.113c7.14 0 14.186 1.006 21 2.995v-1.995c0-3.86-3.14-7-7-7h-28c-3.86 0-7 3.14-7 7v1.995c6.814-1.989 13.859-2.995 21-2.995z" fill="#1c2d6b"/><path d="m46.019 84.962h-2.613c0 1.16-.163 2.28-.44 3.354 1.711-.17 3.053-1.598 3.053-3.354z" fill="#eee045"/><path d="m49.072 88.316c-.277-1.074-.44-2.194-.44-3.354h-2.613c0 1.756 1.341 3.184 3.053 3.354z" fill="#eee045"/><path d="m29.981 98.387v5.227c5.848 0 10.809 3.746 12.65 8.965v-23.156c-1.841 5.218-6.802 8.964-12.65 8.964z" fill="#ede49d"/><path d="m49.407 89.423v23.156c1.841-5.218 6.802-8.965 12.65-8.965v-5.227c-5.848 0-10.809-3.746-12.65-8.964z" fill="#d3ba2a"/><path d="m46.019 117.039h2.613c0-1.161.163-2.28.44-3.354-1.712.17-3.053 1.597-3.053 3.354z" fill="#eee045"/><path d="m42.966 113.684c.277 1.074.44 2.194.44 3.354h2.613c0-1.756-1.342-3.183-3.053-3.354z" fill="#eee045"/><path d="m49.072 88.316c-1.711-.171-3.053-1.598-3.053-3.354 0 1.756-1.341 3.184-3.053 3.354-.097.375-.208.744-.335 1.106v23.156c.128.362.239.731.335 1.106 1.711.171 3.053 1.598 3.053 3.354 0-1.756 1.341-3.184 3.053-3.354.097-.375.208-.744.335-1.106v-23.155c-.128-.362-.239-.731-.335-1.107z" fill="#eee045"/><path d="m48.632 120.039h-5.226c-1.657 0-3-1.343-3-3 0-5.748-4.677-10.425-10.425-10.425-1.657 0-3-1.343-3-3v-5.227c0-1.657 1.343-3 3-3 5.749 0 10.425-4.677 10.425-10.425 0-1.657 1.343-3 3-3h5.226c1.657 0 3 1.343 3 3 0 5.749 4.677 10.425 10.425 10.425 1.657 0 3 1.343 3 3v5.227c0 1.657-1.343 3-3 3-5.749 0-10.425 4.677-10.425 10.425 0 1.656-1.343 3-3 3zm-15.099-19.039c6.21 1.375 11.111 6.275 12.486 12.485 1.375-6.21 6.275-11.111 12.486-12.485-6.21-1.375-11.111-6.275-12.486-12.485-1.375 6.211-6.276 11.111-12.486 12.485z" fill="#1c2d6b"/><path d="m191.541 77h-3.911c0-5.548-4.497-10.045-10.045-10.045v-3.911c5.548 0 10.045-4.497 10.045-10.045h3.911c0 5.548 4.497 10.045 10.045 10.045v3.911c-5.548.001-10.045 4.498-10.045 10.045z" fill="#eee045"/><path d="m191.542 80h-3.911c-1.657 0-3-1.343-3-3 0-3.885-3.16-7.045-7.045-7.045-1.657 0-3-1.343-3-3v-3.911c0-1.657 1.343-3 3-3 3.885 0 7.045-3.16 7.045-7.044 0-1.657 1.343-3 3-3h3.911c1.657 0 3 1.343 3 3 0 3.884 3.16 7.044 7.044 7.044 1.657 0 3 1.343 3 3v3.911c0 1.657-1.343 3-3 3-3.884 0-7.044 3.16-7.044 7.045 0 1.657-1.344 3-3 3zm-8.841-15c3.087 1.32 5.565 3.798 6.885 6.885 1.321-3.087 3.799-5.565 6.885-6.885-3.086-1.321-5.564-3.799-6.885-6.885-1.32 3.087-3.798 5.565-6.885 6.885z" fill="#1c2d6b"/><path d="m215.974 197.001h-3.911c0-5.548-4.497-10.045-10.045-10.045v-3.911c5.548 0 10.045-4.497 10.045-10.045h3.911c0 5.548 4.497 10.045 10.045 10.045v3.911c-5.547 0-10.045 4.497-10.045 10.045z" fill="#eee045"/><path d="m215.974 200.001h-3.911c-1.657 0-3-1.343-3-3 0-3.885-3.161-7.045-7.045-7.045-1.657 0-3-1.343-3-3v-3.911c0-1.657 1.343-3 3-3 3.885 0 7.045-3.161 7.045-7.045 0-1.657 1.343-3 3-3h3.911c1.657 0 3 1.343 3 3 0 3.885 3.161 7.045 7.045 7.045 1.657 0 3 1.343 3 3v3.911c0 1.657-1.343 3-3 3-3.885 0-7.045 3.161-7.045 7.045 0 1.657-1.343 3-3 3zm-8.841-15.001c3.086 1.32 5.565 3.799 6.886 6.885 1.32-3.086 3.799-5.565 6.885-6.885-3.086-1.321-5.565-3.799-6.885-6.886-1.321 3.087-3.799 5.566-6.886 6.886z" fill="#1c2d6b"/><path d="m57.464 227h-4.888c0-6.934-5.621-12.556-12.556-12.556v-4.888c6.934 0 12.556-5.621 12.556-12.556h4.888c0 6.934 5.621 12.556 12.556 12.556v4.888c-6.935 0-12.556 5.621-12.556 12.556z" fill="#eee045"/><path d="m57.463 230h-4.888c-1.657 0-3-1.343-3-3 0-5.269-4.287-9.556-9.556-9.556-1.657 0-3-1.343-3-3v-4.888c0-1.657 1.343-3 3-3 5.269 0 9.556-4.287 9.556-9.556 0-1.657 1.343-3 3-3h4.888c1.657 0 3 1.343 3 3 0 5.269 4.287 9.556 9.556 9.556 1.657 0 3 1.343 3 3v4.888c0 1.657-1.343 3-3 3-5.269 0-9.556 4.287-9.556 9.556 0 1.656-1.343 3-3 3zm-13.316-18c5.265 1.451 9.421 5.607 10.872 10.872 1.451-5.265 5.606-9.421 10.872-10.872-5.266-1.451-9.421-5.606-10.872-10.872-1.451 5.265-5.606 9.421-10.872 10.872z" fill="#1c2d6b"/><path d="m130.02 224c-28.122 0-51-33.645-51-75s22.878-75 51-75 51 33.645 51 75-22.879 75-51 75zm0-144c-24.813 0-45 30.953-45 69s20.187 69 45 69 45-30.953 45-69-20.187-69-45-69z" fill="#1c2d6b"/></svg>