<svg id="Layer_1" enable-background="new 0 0 256 256" height="512" viewBox="0 0 256 256" width="512" xmlns="http://www.w3.org/2000/svg"><path d="m81.5 29h-39.859l-24 24v174h53.859v-174z" fill="#89aadb"/><path d="m143.782 29h53.859v198h-53.859z" fill="#4b67b0"/><path d="m81.5 29-10 24v174h72.282v-198z" fill="#6287c5"/><path d="m197.642 230h-180c-1.657 0-3-1.343-3-3v-174c0-.796.316-1.559.879-2.121l24-24c.562-.563 1.325-.879 2.121-.879h156c1.657 0 3 1.343 3 3v198c0 1.657-1.343 3-3 3zm-177-6h174v-192h-151.758l-22.242 22.243z" fill="#1c2d6b"/><path d="m83.641 86c-.634 0-1.27-.2-1.809-.607l-21.908-16.561-16.154 16.281c-1.168 1.175-3.067 1.183-4.243.016s-1.184-3.066-.017-4.243l18.002-18.143c1.059-1.065 2.74-1.186 3.939-.28l21.916 16.567 28.152-28.153c.82-.821 2.041-1.093 3.13-.704l40.388 14.424 16.682-13.903c1.273-1.061 3.165-.888 4.226.384 1.061 1.273.889 3.165-.384 4.226l-17.998 15c-.817.679-1.933.877-2.93.521l-40.213-14.361-28.657 28.657c-.581.582-1.35.879-2.122.879z" fill="#1c2d6b"/><path d="m100.079 119.147h40.332v107.852h-40.332z" fill="#ede49d"/><path d="m198.027 119.147h40.332v107.852h-40.332z" fill="#d3ba2a"/><path d="m140.41 119.147h57.617v107.852h-57.617z" fill="#eee045"/><path d="m238.358 230h-138.28c-1.657 0-3-1.343-3-3v-107.853c0-1.657 1.343-3 3-3h138.28c1.657 0 3 1.343 3 3v107.853c0 1.656-1.342 3-3 3zm-135.28-6h132.28v-101.853h-132.28z" fill="#1c2d6b"/><path d="m100.079 119.147h40.332v23.852h-40.332z" fill="#ef7f72"/><path d="m198.027 119.147h40.332v23.852h-40.332z" fill="#e8383b"/><path d="m140.41 119.147h57.617v23.852h-57.617z" fill="#e95947"/><path d="m238.358 146h-138.28c-1.657 0-3-1.343-3-3v-23.852c0-1.657 1.343-3 3-3h138.28c1.657 0 3 1.343 3 3v23.852c0 1.656-1.342 3-3 3zm-135.28-6h132.28v-17.852h-132.28z" fill="#1c2d6b"/><g fill="#e95947"><path d="m208.359 160.999h12v12h-12z"/><path d="m178.359 160.999h12v12h-12z"/><path d="m148.359 160.999h12v12h-12z"/><path d="m118.359 160.999h12v12h-12z"/><path d="m148.359 196.999h12v12h-12z"/><path d="m178.359 196.999h12v12h-12z"/><path d="m208.359 196.999h12v12h-12z"/></g><path d="m190.358 212h-12c-1.657 0-3-1.343-3-3v-12c0-1.657 1.343-3 3-3h12c1.657 0 3 1.343 3 3v12c0 1.656-1.342 3-3 3zm-9-6h6v-6h-6z" fill="#1c2d6b"/><path d="m220.358 212h-12c-1.657 0-3-1.343-3-3v-12c0-1.657 1.343-3 3-3h12c1.657 0 3 1.343 3 3v12c0 1.656-1.342 3-3 3zm-9-6h6v-6h-6z" fill="#1c2d6b"/><path d="m118.359 196.999h12v12h-12z" fill="#e95947"/><path d="m220.358 176h-12c-1.657 0-3-1.343-3-3v-12c0-1.657 1.343-3 3-3h12c1.657 0 3 1.343 3 3v12c0 1.656-1.342 3-3 3zm-9-6h6v-6h-6z" fill="#1c2d6b"/><path d="m190.358 176h-12c-1.657 0-3-1.343-3-3v-12c0-1.657 1.343-3 3-3h12c1.657 0 3 1.343 3 3v12c0 1.656-1.342 3-3 3zm-9-6h6v-6h-6z" fill="#1c2d6b"/><path d="m160.358 176h-12c-1.657 0-3-1.343-3-3v-12c0-1.657 1.343-3 3-3h12c1.657 0 3 1.343 3 3v12c0 1.656-1.342 3-3 3zm-9-6h6v-6h-6z" fill="#1c2d6b"/><path d="m130.358 176h-12c-1.657 0-3-1.343-3-3v-12c0-1.657 1.343-3 3-3h12c1.657 0 3 1.343 3 3v12c0 1.656-1.342 3-3 3zm-9-6h6v-6h-6z" fill="#1c2d6b"/><path d="m160.358 212h-12c-1.657 0-3-1.343-3-3v-12c0-1.657 1.343-3 3-3h12c1.657 0 3 1.343 3 3v12c0 1.656-1.342 3-3 3zm-9-6h6v-6h-6z" fill="#1c2d6b"/><path d="m130.358 212h-12c-1.657 0-3-1.343-3-3v-12c0-1.657 1.343-3 3-3h12c1.657 0 3 1.343 3 3v12c0 1.656-1.342 3-3 3zm-9-6h6v-6h-6z" fill="#1c2d6b"/><path d="m214.359 130.999c-3.314 0-6-2.686-6-6v-12c0-3.314 2.686-6 6-6 3.314 0 6 2.686 6 6v12c0 3.314-2.686 6-6 6z" fill="#eee045"/><path d="m184.359 130.999c-3.314 0-6-2.686-6-6v-12c0-3.314 2.686-6 6-6 3.314 0 6 2.686 6 6v12c0 3.314-2.686 6-6 6z" fill="#eee045"/><path d="m154.359 130.999c-3.314 0-6-2.686-6-6v-12c0-3.314 2.686-6 6-6 3.314 0 6 2.686 6 6v12c0 3.314-2.686 6-6 6z" fill="#eee045"/><path d="m124.359 130.999c-3.314 0-6-2.686-6-6v-12c0-3.314 2.686-6 6-6 3.314 0 6 2.686 6 6v12c0 3.314-2.686 6-6 6z" fill="#eee045"/><path d="m214.358 134c-4.963 0-9-4.038-9-9v-12c0-4.962 4.037-9 9-9s9 4.038 9 9v12c0 4.962-4.037 9-9 9zm0-24c-1.654 0-3 1.346-3 3v12c0 1.654 1.346 3 3 3s3-1.346 3-3v-12c0-1.655-1.345-3-3-3z" fill="#1c2d6b"/><path d="m184.358 134c-4.963 0-9-4.038-9-9v-12c0-4.962 4.037-9 9-9s9 4.038 9 9v12c0 4.962-4.037 9-9 9zm0-24c-1.654 0-3 1.346-3 3v12c0 1.654 1.346 3 3 3s3-1.346 3-3v-12c0-1.655-1.345-3-3-3z" fill="#1c2d6b"/><path d="m154.358 134c-4.963 0-9-4.038-9-9v-12c0-4.962 4.037-9 9-9s9 4.038 9 9v12c0 4.962-4.037 9-9 9zm0-24c-1.654 0-3 1.346-3 3v12c0 1.654 1.346 3 3 3s3-1.346 3-3v-12c0-1.655-1.345-3-3-3z" fill="#1c2d6b"/><path d="m124.358 134c-4.963 0-9-4.038-9-9v-12c0-4.962 4.037-9 9-9s9 4.038 9 9v12c0 4.962-4.037 9-9 9zm0-24c-1.654 0-3 1.346-3 3v12c0 1.654 1.346 3 3 3s3-1.346 3-3v-12c0-1.655-1.345-3-3-3z" fill="#1c2d6b"/><path d="m179.642 98.126h-144c-1.657 0-3-1.343-3-3s1.343-3 3-3h144c1.657 0 3 1.343 3 3s-1.343 3-3 3z" fill="#1c2d6b"/><circle cx="59.641" cy="65" fill="#e95947" r="9"/><circle cx="113.641" cy="53" fill="#e95947" r="9"/><circle cx="155.641" cy="68.34" fill="#e95947" r="9"/><path d="m59.642 77c-6.617 0-12-5.383-12-12s5.383-12 12-12 12 5.383 12 12-5.383 12-12 12zm0-18c-3.309 0-6 2.691-6 6s2.691 6 6 6 6-2.691 6-6-2.692-6-6-6z" fill="#1c2d6b"/><path d="m113.641 65c-6.617 0-12-5.383-12-12s5.383-12 12-12 12 5.383 12 12-5.383 12-12 12zm0-18c-3.309 0-6 2.691-6 6s2.691 6 6 6 6-2.691 6-6-2.692-6-6-6z" fill="#1c2d6b"/><path d="m155.641 80.34c-6.617 0-12-5.383-12-12s5.383-12 12-12 12 5.383 12 12-5.383 12-12 12zm0-18c-3.309 0-6 2.691-6 6s2.691 6 6 6 6-2.691 6-6-2.692-6-6-6z" fill="#1c2d6b"/><path d="m35.641 113h16v35.982h-16z" fill="#65bc49"/><path d="m51.642 151.982h-16c-1.657 0-3-1.343-3-3v-35.982c0-1.657 1.343-3 3-3h16c1.657 0 3 1.343 3 3v35.982c0 1.657-1.343 3-3 3zm-13-6h10v-29.982h-10z" fill="#1c2d6b"/><path d="m51.641 121.995h16v26.986h-16z" fill="#ede49d"/><path d="m67.642 151.982h-16c-1.657 0-3-1.343-3-3v-26.986c0-1.657 1.343-3 3-3h16c1.657 0 3 1.343 3 3v26.986c0 1.657-1.343 3-3 3zm-13-6h10v-20.986h-10z" fill="#1c2d6b"/><path d="m67.641 130.991h16v18.046h-16z" fill="#ef7f72"/><path d="m83.642 152.037h-16c-1.657 0-3-1.343-3-3v-18.046c0-1.657 1.343-3 3-3h16c1.657 0 3 1.343 3 3v18.046c0 1.656-1.343 3-3 3zm-13-6h10v-12.046h-10z" fill="#1c2d6b"/><path d="m50.505 191c0-13.217 4.06-23.932 9.068-23.932-13.217 0-23.932 10.715-23.932 23.932s10.715 23.932 23.932 23.932c-5.008 0-9.068-10.715-9.068-23.932z" fill="#a4d4a0"/><path d="m59.573 167.068c5.008 0 9.068 10.715 9.068 23.932s-4.06 23.932-9.068 23.932c13.217 0 23.932-10.715 23.932-23.932s-10.715-23.932-23.932-23.932z" fill="#419b46"/><ellipse cx="59.573" cy="191" fill="#65bc49" rx="9.068" ry="23.932"/><path d="m59.573 217.932c-14.851 0-26.932-12.082-26.932-26.932s12.081-26.932 26.932-26.932 26.932 12.081 26.932 26.932-12.081 26.932-26.932 26.932zm0-47.864c-11.542 0-20.932 9.39-20.932 20.932s9.39 20.932 20.932 20.932 20.932-9.39 20.932-20.932-9.39-20.932-20.932-20.932z" fill="#1c2d6b"/><path d="m76.495 210.922c-.768 0-1.535-.293-2.121-.879l-33.845-33.845c-1.172-1.171-1.172-3.071 0-4.242 1.172-1.172 3.07-1.172 4.242 0l33.845 33.845c1.172 1.171 1.172 3.071 0 4.242-.586.586-1.353.879-2.121.879z" fill="#1c2d6b"/><path d="m55.364 174.078c1.077-4.331 2.565-7.009 4.209-7.009-6.609 0-12.592 2.679-16.922 7.009l16.922 16.922z" fill="#ede49d"/><path d="m59.573 167.068c1.644 0 3.132 2.679 4.209 7.009l-4.209 16.923 16.922-16.922c-4.33-4.331-10.313-7.01-16.922-7.01z" fill="#d3ba2a"/><path d="m63.782 174.078c-1.077-4.331-2.565-7.009-4.209-7.009s-3.132 2.679-4.209 7.009l4.209 16.922z" fill="#eee045"/><path d="m59.573 194c-.796 0-1.559-.316-2.121-.878l-16.923-16.922c-.562-.563-.879-1.326-.879-2.122 0-.795.316-1.559.879-2.121 5.086-5.087 11.85-7.888 19.044-7.888s13.958 2.801 19.043 7.888c1.172 1.171 1.172 3.071 0 4.242l-16.922 16.922c-.562.563-1.325.879-2.121.879zm-12.53-19.772 12.53 12.53 12.529-12.53c-3.597-2.7-7.95-4.159-12.529-4.159s-8.932 1.459-12.53 4.159z" fill="#1c2d6b"/><path d="m76.496 187.042c4.331 1.013 7.009 2.412 7.009 3.958 0-6.609-2.679-12.592-7.009-16.922l-16.923 16.922z" fill="#ef7f72"/><path d="m76.496 194.958-16.923-3.958 16.922 16.922c4.331-4.331 7.009-10.314 7.009-16.922.001 1.546-2.678 2.945-7.008 3.958z" fill="#e8383b"/><path d="m76.496 194.958c4.331-1.013 7.009-2.412 7.009-3.958s-2.679-2.945-7.009-3.958l-16.923 3.958z" fill="#e95947"/><path d="m76.495 210.922c-.768 0-1.535-.293-2.121-.879l-16.922-16.922c-1.172-1.171-1.172-3.071 0-4.242l16.922-16.922c1.172-1.172 3.07-1.171 4.242 0 5.087 5.086 7.889 11.85 7.889 19.044s-2.802 13.958-7.889 19.044c-.586.584-1.353.877-2.121.877zm-12.68-19.922 12.53 12.53c2.699-3.598 4.159-7.951 4.159-12.53s-1.46-8.932-4.159-12.53z" fill="#1c2d6b"/><path d="m41.64 55.999h-23.998c-1.213 0-2.308-.731-2.771-1.852-.465-1.121-.208-2.411.65-3.269l23.998-23.999c.856-.857 2.144-1.115 3.27-.65 1.121.464 1.852 1.558 1.852 2.771v23.999c-.001 1.656-1.344 3-3.001 3zm-16.756-6h13.756v-13.756z" fill="#1c2d6b"/></svg>