<svg id="Layer_1" enable-background="new 0 0 256 256" height="512" viewBox="0 0 256 256" width="512" xmlns="http://www.w3.org/2000/svg"><path d="m155.86 168.582c.022-.023.047-.042.069-.065-.018.018-.041.029-.058.048-.004.005-.007.012-.011.017z" fill="#eee045"/><path d="m138.589 160.712c-.339-.99-1.23-2.279-2.411-3.46l-19.893-19.893-8.485-8.485-19.908-19.908c-1.184-1.184-2.474-2.073-3.468-2.415-6.336-2.184-14.71-7.709-22.813-15.428-.627-.597-1.235-1.199-1.839-1.802-.031-.03-.065-.055-.095-.086l-24.002-24.002c-6.755 14.144-3.757 31.782 9.012 42.813 8.489 7.334 19.711 10.011 30.199 8.042 1.645-.309 3.338.179 4.521 1.362l19.908 19.908 8.485 8.485 19.893 19.893c1.181 1.181 1.673 2.869 1.362 4.51-2.15 11.311 1.143 23.451 9.898 32.206 11.083 11.083 27.591 13.422 40.972 7.031l-23.72-23.72c-.02-.02-.037-.043-.057-.063-.074-.074-.15-.144-.224-.218-8.756-8.756-14.999-17.947-17.335-24.77z" fill="#ede49d"/><path d="m76.709 89.163c-.022.023-.047.042-.069.065.018-.018.041-.029.058-.048.005-.005.007-.012.011-.017z" fill="#eee045"/><path d="m157.684 141.657c-1.645.309-3.338-.178-4.521-1.362l-19.908-19.908-8.485-8.485-19.893-19.893c-1.181-1.181-1.673-2.869-1.362-4.509 2.15-11.311-1.143-23.451-9.898-32.206-11.083-11.083-27.591-13.422-40.972-7.031l23.72 23.72c.02.02.037.043.057.063.074.074.15.144.224.218 8.755 8.755 14.997 17.946 17.334 24.77.339.99 1.23 2.279 2.411 3.46l19.893 19.893 8.485 8.485 19.908 19.908c1.184 1.184 2.474 2.073 3.468 2.415 6.336 2.184 14.71 7.709 22.813 15.428.627.597 1.235 1.199 1.839 1.802.031.03.065.055.095.086l24.002 24.002c6.755-14.144 3.757-31.782-9.012-42.813-8.487-7.335-19.71-10.011-30.198-8.043z" fill="#d3ba2a"/><path d="m148.146 151.196c-.994-.342-2.285-1.232-3.468-2.415l-19.908-19.908-8.485-8.485-19.893-19.893c-1.181-1.181-2.072-2.471-2.411-3.46-2.337-6.824-8.579-16.015-17.334-24.77-.074-.074-.149-.144-.224-.218 4.614 4.678 4.947 12.292.381 17.028-.03.032-.064.058-.095.089-.004.005-.007.012-.011.017-.017.019-.04.03-.058.048-4.656 4.654-12.176 4.687-16.869.093.604.602 1.212 1.204 1.839 1.802 8.104 7.719 16.478 13.244 22.813 15.428.994.343 2.285 1.232 3.468 2.415l19.908 19.908 8.485 8.485 19.893 19.893c1.181 1.181 2.072 2.471 2.411 3.46 2.337 6.824 8.579 16.015 17.334 24.77.074.074.15.144.224.218-4.614-4.678-4.947-12.292-.381-17.028.03-.032.064-.058.095-.089.004-.005.007-.012.011-.017.017-.019.04-.03.058-.048 4.656-4.654 12.176-4.687 16.869-.093-.604-.602-1.212-1.204-1.839-1.802-8.104-7.719-16.478-13.245-22.813-15.428z" fill="#eee045"/><path d="m164.445 215.987c-10.139 0-20.143-3.941-27.614-11.414-9.132-9.132-13.141-22.174-10.724-34.888.129-.68-.071-1.363-.536-1.827l-48.286-48.287c-.465-.465-1.158-.667-1.847-.535-11.809 2.215-23.733-.962-32.714-8.721-13.298-11.49-17.311-30.56-9.757-46.376.419-.879 1.24-1.499 2.2-1.664.959-.164 1.94.147 2.628.835l24.002 24.001c1.722 1.722 3.991 2.684 6.447 2.636 2.435-.022 4.708-1.001 6.4-2.756 3.38-3.506 3.2-9.288-.4-12.888l-23.72-23.721c-.689-.688-1-1.668-.836-2.628.165-.96.785-1.78 1.664-2.2 14.886-7.108 32.722-4.047 44.387 7.617 9.132 9.132 13.141 22.174 10.724 34.887-.129.68.071 1.363.536 1.828l48.286 48.286c.464.463 1.153.664 1.846.535h.001c11.81-2.216 23.733.962 32.714 8.721 13.298 11.489 17.311 30.56 9.757 46.376-.419.879-1.24 1.499-2.2 1.664-.962.162-1.941-.147-2.628-.836l-24.002-24.002c-1.722-1.722-4.026-2.703-6.447-2.635-2.435.022-4.708 1.001-6.4 2.757-3.38 3.506-3.2 9.287.4 12.888l23.72 23.72c.689.688 1 1.668.836 2.628-.165.96-.785 1.78-1.664 2.2-5.351 2.557-11.083 3.798-16.773 3.799zm-88.591-102.989c2.122 0 4.167.824 5.674 2.332l48.286 48.286c1.87 1.87 2.688 4.558 2.188 7.191-2.046 10.761 1.346 21.798 9.072 29.524 8.833 8.833 21.85 11.835 33.514 8.058l-20.504-20.505c-5.898-5.898-6.112-15.451-.478-21.295 2.819-2.924 6.607-4.555 10.665-4.592 4.032-.053 7.875 1.523 10.744 4.393l20.785 20.785c4.03-12.47.267-26.44-9.878-35.205-7.59-6.558-17.684-9.241-27.685-7.364-2.638.494-5.329-.323-7.195-2.189l-48.286-48.287c-1.87-1.87-2.688-4.558-2.188-7.19 2.046-10.761-1.346-21.798-9.072-29.525-8.833-8.833-21.85-11.834-33.514-8.058l20.504 20.505c5.898 5.897 6.112 15.45.478 21.295-2.819 2.924-6.607 4.555-10.665 4.592-4.086.035-7.875-1.523-10.744-4.393l-20.785-20.785c-4.03 12.47-.267 26.44 9.878 35.205 7.59 6.558 17.682 9.243 27.684 7.363.507-.094 1.017-.141 1.522-.141z" fill="#1c2d6b"/><path d="m137.498 153.086c-.768 0-1.536-.293-2.121-.879l-42.427-42.426c-1.172-1.171-1.172-3.071 0-4.242 1.171-1.172 3.071-1.172 4.242 0l42.427 42.426c1.172 1.171 1.172 3.071 0 4.242-.585.586-1.353.879-2.121.879z" fill="#1c2d6b"/><path d="m151.949 112.019c-.059-.06-.115-.123-.174-.183.037.04.068.086.107.125.021.021.046.037.067.058z" fill="#e95947"/><path d="m139.842 82.859-60.143 84.198 5.781 5.781 60.969-67.702c-4.337-6.773-6.544-14.516-6.607-22.277z" fill="#ef7f72"/><path d="m158.349 117.345-67.54 60.822 5.861 5.861 83.379-59.555c-7.606-.322-15.14-2.697-21.7-7.128z" fill="#e8383b"/><path d="m152.135 112.214c-.064-.064-.122-.131-.186-.195-.021-.021-.046-.037-.067-.058-.039-.039-.069-.085-.107-.125-2.037-2.087-3.811-4.334-5.326-6.7l-60.969 67.703 5.329 5.329 67.54-60.822c-2.191-1.482-4.274-3.192-6.214-5.132z" fill="#e95947"/><path d="m169.416 70.098c16.402-16.402 35.258-24.139 42.116-17.281-16.402-16.402-42.995-16.402-59.397 0s-16.402 42.995 0 59.397c-6.858-6.858.879-25.714 17.281-42.116z" fill="#89aadb"/><path d="m211.532 52.817c6.858 6.858-.879 25.714-17.281 42.116s-35.258 24.139-42.116 17.281c16.402 16.402 42.995 16.402 59.397 0s16.402-42.995 0-59.397z" fill="#4b67b0"/><ellipse cx="181.833" cy="82.516" fill="#6287c5" rx="42" ry="17.561" transform="matrix(.707 -.707 .707 .707 -5.09 152.744)"/><path d="m181.833 127.516c-12.02 0-23.32-4.681-31.82-13.181-8.499-8.499-13.18-19.799-13.18-31.819s4.681-23.32 13.181-31.82c17.545-17.546 46.094-17.546 63.639 0 8.5 8.5 13.181 19.8 13.181 31.82s-4.681 23.32-13.181 31.82c-8.499 8.498-19.799 13.18-31.82 13.18zm0-83.982c-9.987 0-19.974 3.802-27.577 11.404-7.366 7.367-11.423 17.16-11.423 27.578 0 10.417 4.057 20.211 11.423 27.577 7.366 7.367 17.16 11.423 27.577 11.423s20.211-4.057 27.577-11.423c7.366-7.366 11.423-17.16 11.423-27.577s-4.057-20.211-11.423-27.578c-7.602-7.603-17.59-11.404-27.577-11.404z" fill="#1c2d6b"/><path d="m173.787 65.983-17.719-17.719c-2.343-2.343-6.142-2.343-8.485 0s-2.343 6.142 0 8.485l17.719 17.719c1.303-1.469 2.673-2.93 4.114-4.371 1.441-1.44 2.902-2.81 4.371-4.114z" fill="#a4d4a0"/><path d="m215.464 107.661-17.099-17.099c-1.303 1.469-2.673 2.93-4.114 4.371s-2.902 2.811-4.371 4.114l17.099 17.099c2.343 2.343 6.142 2.343 8.485 0s2.343-6.142 0-8.485z" fill="#419b46"/><path d="m198.366 90.562-24.579-24.579c-1.469 1.303-2.93 2.673-4.371 4.114s-2.811 2.902-4.114 4.371l24.579 24.579c1.469-1.303 2.93-2.673 4.371-4.114s2.81-2.902 4.114-4.371z" fill="#65bc49"/><path d="m211.222 120.899c-2.305 0-4.609-.877-6.364-2.632l-59.397-59.397c-3.509-3.509-3.509-9.219 0-12.728 3.509-3.51 9.219-3.51 12.728 0l59.397 59.397c3.509 3.509 3.509 9.219 0 12.728-1.755 1.755-4.06 2.632-6.364 2.632zm-59.397-71.391c-.768 0-1.537.292-2.122.877-1.169 1.17-1.169 3.073 0 4.243l59.397 59.397c1.17 1.169 3.073 1.169 4.243 0 1.169-1.17 1.169-3.073 0-4.243l-59.397-59.397c-.585-.584-1.353-.877-2.121-.877z" fill="#1c2d6b"/><path d="m122.126 141.602c-2.343-2.343-2.343-6.142 0-8.485l8.485-8.485c2.343-2.343 6.142-2.343 8.485 0 2.343 2.343 2.343 6.142 0 8.485l-8.485 8.485c-2.343 2.343-6.142 2.343-8.485 0z" fill="#eee045"/><path d="m126.369 146.359c-2.404 0-4.664-.936-6.364-2.636s-.001-.001 0 0c-1.7-1.7-2.636-3.959-2.636-6.363s.936-4.664 2.635-6.364l8.486-8.485c3.508-3.508 9.219-3.509 12.728 0 1.7 1.699 2.636 3.959 2.636 6.363s-.936 4.665-2.636 6.364l-8.485 8.485c-1.7 1.7-3.96 2.636-6.364 2.636zm8.485-20.483c-.769 0-1.537.292-2.122.877l-8.485 8.485c-1.169 1.169-1.169 3.073 0 4.243h.001c1.132 1.132 3.108 1.133 4.242 0l8.486-8.485c.566-.567.878-1.32.878-2.122 0-.801-.312-1.554-.878-2.121-.585-.585-1.354-.877-2.122-.877z" fill="#1c2d6b"/><path d="m77.942 173.786h12v12h-12z" fill="#eee045" transform="matrix(.707 .707 -.707 .707 151.714 -6.698)"/><g fill="#1c2d6b"><path d="m83.942 191.271c-.768 0-1.536-.293-2.121-.879l-8.485-8.485c-1.172-1.171-1.172-3.071 0-4.242l8.485-8.485c1.171-1.172 3.071-1.172 4.242 0l8.485 8.485c1.172 1.171 1.172 3.071 0 4.242l-8.485 8.485c-.585.587-1.353.879-2.121.879zm-4.242-11.485 4.243 4.243 4.243-4.243-4.243-4.243z"/><path d="m71.214 218.484c-2.404 0-4.664-.936-6.364-2.636l-4.243-4.243c-1.171-1.171-1.171-3.071 0-4.243 1.171-1.171 3.071-1.171 4.243 0l4.242 4.243c1.133 1.133 3.109 1.133 4.242 0 1.17-1.17 1.17-3.073 0-4.243l-4.243-4.243c-3.509-3.508-3.509-9.218 0-12.728l8.486-8.485c1.171-1.171 3.071-1.171 4.243 0s1.171 3.071 0 4.243l-8.485 8.485c-1.169 1.169-1.169 3.073 0 4.243l4.243 4.243c3.509 3.509 3.509 9.219 0 12.728-1.699 1.7-3.959 2.636-6.364 2.636z"/><path d="m96.67 187.028c-.773 0-1.542-.298-2.122-.879l-16.971-16.971c-1.037-1.037-1.172-2.671-.32-3.865l60.143-84.197c.755-1.058 2.106-1.51 3.345-1.117 1.239.392 2.085 1.536 2.096 2.836.083 10.3 4.138 19.981 11.415 27.257 6.926 6.926 16.131 10.969 25.918 11.383 1.279.054 2.384.915 2.749 2.143s-.089 2.552-1.132 3.296l-83.379 59.555c-.524.375-1.134.559-1.742.559zm-13.053-20.295 13.376 13.376 75.119-53.655c-8.322-1.833-15.98-6.001-22.099-12.12-6.432-6.432-10.682-14.489-12.362-23.249z"/></g></svg>