<svg id="Layer_1" enable-background="new 0 0 256 256" height="512" viewBox="0 0 256 256" width="512" xmlns="http://www.w3.org/2000/svg"><path d="m98.034 116c-33.137 0-60 26.863-60 60v48h36v-84c0-13.255 10.745-24 24-24z" fill="#ef7f72"/><path d="m98.034 116c13.255 0 24 10.745 24 24v84h36v-48c0-33.137-26.863-60-60-60z" fill="#e8383b"/><path d="m98.034 116c-13.255 0-24 10.745-24 24v84h48v-84c0-13.255-10.745-24-24-24z" fill="#e95947"/><path d="m149.987 146c-.942.001-1.86.1-2.757.257 1.468 8.77 2.313 18.914 2.313 29.743v48h8.49v-48c.001-10.932-2.937-21.172-8.046-30z" fill="#4b67b0"/><path d="m146.034 146.518c-6.896 1.768-12 8.005-12 15.452v62.03h8.49v-62.03c.001-7.447 1.493-13.684 3.51-15.452z" fill="#89aadb"/><path d="m147.231 146.257c-.405.071-.803.16-1.197.261-2.017 1.768-3.51 8.005-3.51 15.452v62.03h7.019v-48c.001-10.828-.844-20.973-2.312-29.743z" fill="#6287c5"/><path d="m46.081 146c.942.001 1.86.1 2.757.257-1.468 8.77-2.313 18.914-2.313 29.743v48h-8.49v-48c-.001-10.932 2.938-21.172 8.046-30z" fill="#4b67b0"/><path d="m50.034 146.518c6.896 1.768 12 8.005 12 15.452v62.03h-8.49v-62.03c0-7.447-1.493-13.684-3.51-15.452z" fill="#89aadb"/><path d="m53.544 161.97v62.03h-7.02v-48c0-10.83.85-20.97 2.31-29.74.41.07.81.16 1.2.26 2.02 1.77 3.51 8 3.51 15.45z" fill="#6287c5"/><path d="m158.034 227h-120c-1.657 0-3-1.343-3-3v-48c0-34.738 28.262-63 63-63s63 28.262 63 63v48c0 1.657-1.343 3-3 3zm-117-6h114v-45c0-31.43-25.57-57-57-57s-57 25.57-57 57z" fill="#1c2d6b"/><path d="m158.034 227h-24c-1.657 0-3-1.343-3-3v-62.03c0-10.449 8.501-18.958 18.95-18.97h.003c1.071 0 2.06.57 2.597 1.498 5.528 9.553 8.45 20.446 8.45 31.502v48c0 1.657-1.343 3-3 3zm-21-6h18v-45c0-9.386-2.327-18.642-6.746-26.887-6.343.843-11.254 6.29-11.254 12.857z" fill="#1c2d6b"/><path d="m80.034 124.497 18 51.503-5.6-51.503z" fill="#89aadb"/><path d="m103.634 124.497-5.6 51.503 18-51.503z" fill="#4b67b0"/><path d="m92.434 124.497 5.6 51.503 5.6-51.503z" fill="#6287c5"/><path d="m98.034 179c-1.275 0-2.411-.806-2.832-2.01l-18-51.502c-.546-1.564.278-3.275 1.842-3.822 1.566-.544 3.275.278 3.822 1.842l15.168 43.399 15.168-43.399c.546-1.564 2.256-2.387 3.822-1.842 1.564.547 2.389 2.258 1.842 3.822l-18 51.502c-.421 1.204-1.556 2.01-2.832 2.01z" fill="#1c2d6b"/><path d="m98.034 227c-1.657 0-3-1.343-3-3v-48c0-1.657 1.343-3 3-3s3 1.343 3 3v48c0 1.657-1.343 3-3 3z" fill="#1c2d6b"/><path d="m117.446 146.632h-9.335c-.326 0-.639-.027-.87-.076l-4.131-1.176c-.448.12-1.138.199-1.921.199h-6.309c-.784 0-1.474-.079-1.921-.199l-4.131 1.176c-.231.048-.544.076-.87.076h-9.335c-.68 0-1.231-.116-1.231-.258v7.279c0 .68.551 1.231 1.231 1.231h9.335c.326 0 .639-.13.87-.36l4.131-5.606c.448.574 1.138.949 1.921.949h6.308c.784 0 1.474-.375 1.921-.949l4.131 5.606c.231.231.544.36.87.36h9.335c.68 0 1.231-.551 1.231-1.231v-7.279c.001.142-.55.258-1.23.258z" fill="#d3ba2a"/><path d="m117.446 134h-9.335c-.326 0-.639.13-.87.36l-4.082 5.314c-.445-.609-1.159-1.009-1.971-1.009h-6.308c-.812 0-1.526.4-1.971 1.009l-4.082-5.314c-.231-.231-.544-.36-.87-.36h-9.335c-.68 0-1.231.551-1.231 1.231v7.279c0-.143.551-.258 1.231-.258h9.335c.326 0 .639.027.87.076l4.082 1.115c.445-.128 1.159-.212 1.971-.212h6.308c.812 0 1.526.084 1.971.212l4.082-1.115c.231-.048.544-.076.87-.076h9.335c.68 0 1.231.116 1.231.258v-7.279c0-.68-.551-1.231-1.231-1.231z" fill="#ede49d"/><path d="m117.446 142.252h-9.335c-.326 0-.639.027-.87.076l-4.082 1.115c-.445-.128-1.159-.212-1.971-.212h-6.308c-.812 0-1.526.084-1.971.212l-4.082-1.115c-.231-.048-.544-.076-.87-.076h-9.335c-.68 0-1.231.116-1.231.258v3.864c0 .143.551.258 1.231.258h9.335c.326 0 .639-.027.87-.076l4.131-1.176c.448.12 1.138.199 1.921.199h6.308c.784 0 1.474-.079 1.921-.199l4.131 1.176c.231.048.544.076.87.076h9.335c.68 0 1.231-.116 1.231-.258v-3.864c.002-.143-.549-.258-1.229-.258z" fill="#eee045"/><path d="m87.954 157.88h-9.33c-2.333 0-4.23-1.897-4.23-4.23v-18.42c0-2.333 1.898-4.23 4.23-4.23h9.33c1.13 0 2.193.44 2.991 1.239.092.092.178.19.258.293l4.08 5.31c.772 1.005.826 2.382.151 3.44v5.949c.713 1.046.694 2.438-.065 3.469l-4.13 5.6c-.089.121-.187.234-.293.34-.799.8-1.862 1.24-2.992 1.24zm-7.56-6h6.649l2.499-3.389c-.072-.352-.108-.711-.108-1.071v-6.31c0-.311.027-.621.081-.927l-2.446-3.183h-6.675z" fill="#1c2d6b"/><path d="m117.444 157.88h-9.33c-1.13 0-2.193-.44-2.991-1.239-.106-.106-.204-.22-.293-.34l-4.13-5.6c-.76-1.031-.778-2.422-.065-3.469v-5.949c-.675-1.059-.622-2.435.151-3.44l4.08-5.31c.08-.104.166-.202.258-.293.798-.799 1.861-1.239 2.991-1.239h9.33c2.333 0 4.23 1.897 4.23 4.23v18.42c-.001 2.331-1.898 4.229-4.231 4.229zm-8.419-6h6.649v-14.88h-6.675l-2.446 3.183c.054.306.081.616.081.927v6.31c0 .36-.037.72-.108 1.071z" fill="#1c2d6b"/><path d="m101.188 152.866h-6.308c-3.003 0-5.446-2.443-5.446-5.446v-6.308c0-3.003 2.443-5.446 5.446-5.446h6.308c3.003 0 5.446 2.443 5.446 5.446v6.308c0 3.002-2.443 5.446-5.446 5.446zm-5.753-6h5.2v-5.2h-5.2z" fill="#1c2d6b"/><path d="m62.034 227h-24c-1.657 0-3-1.343-3-3v-48c0-11.056 2.922-21.949 8.45-31.502.537-.927 1.526-1.498 2.597-1.498h.003c10.449.012 18.95 8.521 18.95 18.97v62.03c0 1.657-1.343 3-3 3zm-21-6h18v-59.03c0-6.567-4.911-12.014-11.254-12.857-4.419 8.245-6.746 17.5-6.746 26.887z" fill="#1c2d6b"/><path d="m82.034 80c0-26.51 7.163-48 16-48-26.51 0-48 21.49-48 48s21.49 48 48 48c-8.836 0-16-21.49-16-48z" fill="#ede49d"/><path d="m98.034 32c8.837 0 16 21.49 16 48s-7.163 48-16 48c26.51 0 48-21.49 48-48s-21.49-48-48-48z" fill="#d3ba2a"/><ellipse cx="98.034" cy="80" fill="#eee045" rx="16" ry="48"/><circle cx="82.034" cy="83.941" fill="#1c2d6b" r="3.941"/><circle cx="114.034" cy="83.941" fill="#1c2d6b" r="3.941"/><path d="m98.034 99c-3.913 0-7.562-2.105-9.523-5.493-.83-1.434-.341-3.27 1.093-4.1 1.436-.831 3.27-.341 4.1 1.093.893 1.542 2.552 2.5 4.331 2.5s3.438-.958 4.332-2.5c.831-1.434 2.666-1.923 4.1-1.093 1.434.831 1.923 2.666 1.093 4.1-1.964 3.389-5.614 5.493-9.526 5.493z" fill="#1c2d6b"/><path d="m98.034 32c-26.51 0-48 21.49-48 48 12.576 0 24.017-4.843 32.576-12.757 1.863-20.315 8.061-35.243 15.424-35.243z" fill="#a4d4a0"/><path d="m113.458 67.243c8.558 7.915 20 12.757 32.576 12.757 0-26.51-21.49-48-48-48 7.364 0 13.561 14.928 15.424 35.243z" fill="#419b46"/><path d="m98.034 32c0 13.933 5.942 26.474 15.424 35.243-1.863-20.315-8.06-35.243-15.424-35.243s-13.561 14.928-15.424 35.243c9.482-8.769 15.424-21.31 15.424-35.243z" fill="#65bc49"/><g fill="#1c2d6b"><path d="m146.034 83c-22.073 0-40.916-14.095-48-33.757-7.084 19.662-25.927 33.757-48 33.757-1.657 0-3-1.343-3-3 0-28.122 22.878-51 51-51s51 22.878 51 51c0 1.657-1.343 3-3 3zm-44.894-47.894c1.53 22.345 19.443 40.258 41.788 41.788-1.53-22.345-19.443-40.258-41.788-41.788zm-6.212 0c-22.345 1.53-40.258 19.443-41.788 41.788 22.345-1.53 40.258-19.443 41.788-41.788z"/><path d="m98.034 131c-28.122 0-51-22.878-51-51s22.878-51 51-51 51 22.878 51 51-22.878 51-51 51zm0-96c-24.813 0-45 20.187-45 45s20.187 45 45 45 45-20.187 45-45-20.187-45-45-45z"/><circle cx="110.034" cy="200" r="3.941"/><circle cx="110.034" cy="214" r="3.941"/><circle cx="110.034" cy="186" r="3.941"/><path d="m98.034 113h-28c-12.682 0-23-10.318-23-23v-10c0-1.657 1.343-3 3-3s3 1.343 3 3v10c0 9.374 7.626 17 17 17h28c1.657 0 3 1.343 3 3s-1.343 3-3 3z"/><path d="m98.034 113h-12.058c-1.657 0-3-1.343-3-3 0-4.962 4.038-9 9-9 5.021 0 9.059 4.038 9.059 9-.001 1.657-1.344 3-3.001 3zm-6-6h.01z"/></g><path d="m212.966 140h-22.209c1.81 0 3.278 1.467 3.278 3.278v77.445c0 1.81-1.467 3.278-3.278 3.278h22.209c2.761 0 5-2.239 5-5v-74c0-2.762-2.239-5.001-5-5.001z" fill="#419b46"/><path d="m157.966 220.722v-77.445c0-1.81 1.467-3.278 3.278-3.278h-22.209c-2.761 0-5 2.239-5 5v74c0 2.761 2.239 5 5 5h22.209c-1.811.001-3.278-1.467-3.278-3.277z" fill="#a4d4a0"/><path d="m194.034 220.722v-77.445c0-1.81-1.467-3.278-3.278-3.278h-29.513c-1.81 0-3.278 1.467-3.278 3.278v77.445c0 1.81 1.467 3.278 3.278 3.278h29.513c1.811 0 3.278-1.468 3.278-3.278z" fill="#65bc49"/><path d="m212.966 227h-73.932c-4.411 0-8-3.589-8-8v-74c0-4.411 3.589-8 8-8h73.932c4.411 0 8 3.589 8 8v74c0 4.411-3.589 8-8 8zm-73.932-84c-1.103 0-2 .897-2 2v74c0 1.103.897 2 2 2h73.932c1.103 0 2-.897 2-2v-74c0-1.103-.897-2-2-2z" fill="#1c2d6b"/><path d="m146.034 152h18v72h-18z" fill="#89aadb"/><path d="m188.034 152h18v72h-18z" fill="#4b67b0"/><path d="m164.034 152h24v72h-24z" fill="#6287c5"/><path d="m206.034 227h-60c-1.657 0-3-1.343-3-3v-72c0-1.657 1.343-3 3-3h60c1.657 0 3 1.343 3 3v72c0 1.657-1.343 3-3 3zm-57-6h54v-66h-54z" fill="#1c2d6b"/><path d="m194.034 176.882h-36c-1.657 0-3-1.343-3-3s1.343-3 3-3h36c1.657 0 3 1.343 3 3s-1.343 3-3 3z" fill="#1c2d6b"/><path d="m194.034 188.941h-36c-1.657 0-3-1.343-3-3s1.343-3 3-3h36c1.657 0 3 1.343 3 3s-1.343 3-3 3z" fill="#1c2d6b"/><path d="m194.034 201h-36c-1.657 0-3-1.343-3-3s1.343-3 3-3h36c1.657 0 3 1.343 3 3s-1.343 3-3 3z" fill="#1c2d6b"/><path d="m194.034 213.059h-36c-1.657 0-3-1.343-3-3s1.343-3 3-3h36c1.657 0 3 1.343 3 3s-1.343 3-3 3z" fill="#1c2d6b"/><path d="m182.034 134v18.227c0 3.189-.862 5.773-1.924 5.773h8.151c3.189 0 5.773-2.585 5.773-5.773v-18.227z" fill="#d3ba2a"/><path d="m174.034 132.146c0-3.314.895-6 2-6-3.314 0-6 2.686-6 6v1.854h4z" fill="#ede49d"/><path d="m178.034 132.146v1.854h4v-1.854c0-3.314-2.686-6-6-6 1.105 0 2 2.687 2 6z" fill="#d3ba2a"/><path d="m170.034 152.227v-18.227h-12v18.227c0 3.189 2.585 5.773 5.773 5.773h8.151c-1.062 0-1.924-2.585-1.924-5.773z" fill="#ede49d"/><path d="m182.034 152.227v-18.227h-4v-1.854c0-3.314-.895-6-2-6s-2 2.686-2 6v1.854h-4v18.227c0 3.189.862 5.773 1.924 5.773h8.151c1.064 0 1.925-2.585 1.925-5.773z" fill="#eee045"/><path d="m188.261 161h-24.453c-4.838 0-8.773-3.936-8.773-8.773v-18.227c0-1.657 1.343-3 3-3h9.073c.565-4.423 4.353-7.854 8.927-7.854s8.362 3.43 8.927 7.854h9.073c1.657 0 3 1.343 3 3v18.227c-.001 4.837-3.936 8.773-8.774 8.773zm-27.227-24v15.227c0 1.529 1.244 2.773 2.773 2.773h24.453c1.529 0 2.773-1.244 2.773-2.773v-15.227h-9c-1.657 0-3-1.343-3-3v-1.854c0-1.654-1.346-3-3-3s-3 1.346-3 3v1.854c0 1.657-1.343 3-3 3z" fill="#1c2d6b"/></svg>