<svg id="Layer_1" enable-background="new 0 0 256 256" height="512" viewBox="0 0 256 256" width="512" xmlns="http://www.w3.org/2000/svg"><path d="m150.131 110.161c0-19.882 6.462-36 14.434-36-19.882 0-36 16.118-36 36s16.118 36 36 36c-7.971 0-14.434-16.118-14.434-36z" fill="#ef7f72"/><path d="m164.566 74.161c7.972 0 14.434 16.118 14.434 36s-6.462 36-14.434 36c19.882 0 36-16.118 36-36s-16.118-36-36-36z" fill="#e8383b"/><ellipse cx="164.566" cy="110.161" fill="#e95947" rx="14.434" ry="36"/><g fill="#1c2d6b"><path d="m164.566 149.161c-21.505 0-39-17.495-39-39s17.495-39 39-39 39 17.495 39 39-17.495 39-39 39zm0-72c-18.196 0-33 14.804-33 33s14.804 33 33 33 33-14.804 33-33-14.804-33-33-33z"/><path d="m143.93 113.161c-1.657 0-3-1.343-3-3 0-13.033 10.603-23.636 23.636-23.636 1.657 0 3 1.343 3 3s-1.343 3-3 3c-9.725 0-17.636 7.911-17.636 17.636 0 1.657-1.343 3-3 3z"/><path d="m164.566 133.797c-1.657 0-3-1.343-3-3s1.343-3 3-3c9.724 0 17.635-7.911 17.635-17.636 0-1.657 1.343-3 3-3s3 1.343 3 3c0 13.033-10.602 23.636-23.635 23.636z"/></g><path d="m66.698 43.524c-1.123.421-2.312.637-3.511.637h-16.187v42h18 15.189c.957 0 1.901.144 2.811.411v-49.161z" fill="#ede49d"/><path d="m141.167 109.382c3.411-5.117 1.92-12.041-3.294-15.3l-7.039-4.557v24.631c3.948.457 7.991-1.261 10.333-4.774z" fill="#d3ba2a"/><path d="m166.714 47.647-35.881-14.352v24.509l24.167 10.357v15c0 4.97 4.029 9 9 9 4.97 0 9-4.029 9-9v-26.229c0-4.089-2.49-7.766-6.286-9.285z" fill="#d3ba2a"/><path d="m116.597 27.6c-2.314-.926-4.891-.954-7.225-.079l-26.372 9.89v49.161c.837.245 1.645.594 2.397 1.052l41.083 25.061c1.372.823 2.856 1.299 4.354 1.472v-24.631l-20.937-13.554c-1.894-1.184-3.425-2.868-4.425-4.866l-.559-1.117c-2.337-4.674-1.421-10.32 2.274-14.015 3.51-3.51 8.804-4.53 13.367-2.574l10.278 4.405v-24.511z" fill="#eee045"/><path d="m86.373 193.442c-7.337-1.759-14.39 3.802-14.39 11.348 0 5.397 3.701 10.09 8.949 11.348l44.068 11.422v-24.014z" fill="#ede49d"/><path d="m181.667 157.115h-8.667v72h8.667c2.164 0 4.269-.702 6-2l21.333-16v-36l-21.333-16c-1.731-1.298-3.837-2-6-2z" fill="#d3ba2a"/><path d="m149 157.115c-6.702 0-12.121 5.494-11.998 12.225.121 6.606 5.789 11.775 12.396 11.775h11.601c6.627 0 12 5.373 12 12 0 6.627-5.373 12-12 12h-29.998l-6-1.569v24.014l4.766 1.235c.819.212 1.663.32 2.509.32h34.724 6v-72z" fill="#eee045"/><path d="m17 38.161h10.805v54h-10.805z" fill="#89aadb"/><path d="m36.195 38.161h10.805v54h-10.805z" fill="#4b67b0"/><path d="m27.805 38.161h8.389v54h-8.389z" fill="#6287c5"/><path d="m47 95.161h-30c-1.657 0-3-1.343-3-3v-54c0-1.657 1.343-3 3-3h30c1.657 0 3 1.343 3 3v54c0 1.657-1.343 3-3 3zm-27-6h24v-48h-24z" fill="#1c2d6b"/><path d="m209 166.115h10.805v54h-10.805z" fill="#a4d4a0"/><path d="m228.195 166.115h10.805v54h-10.805z" fill="#419b46"/><path d="m219.805 166.115h8.389v54h-8.389z" fill="#65bc49"/><path d="m239 223.115h-30c-1.657 0-3-1.343-3-3v-54c0-1.657 1.343-3 3-3h30c1.657 0 3 1.343 3 3v54c0 1.657-1.343 3-3 3zm-27-6h24v-48h-24z" fill="#1c2d6b"/><path d="m132.09 117.246c-2.441 0-4.911-.644-7.153-1.989l-41.103-25.071c-1.098-.67-2.358-1.024-3.645-1.024h-33.189c-1.657 0-3-1.343-3-3v-42c0-1.657 1.343-3 3-3h16.187c.842 0 1.669-.15 2.458-.445l42.674-16.003c3.041-1.142 6.377-1.104 9.393.103l50.117 20.046c4.964 1.985 8.172 6.724 8.172 12.07v26.227c0 6.617-5.383 12-12 12s-12-5.383-12-12v-13.021l-32.627-13.981c-3.455-1.483-7.407-.721-10.064 1.938-2.787 2.787-3.476 7.027-1.713 10.552l.559 1.117c.753 1.506 1.905 2.772 3.331 3.664l28.016 18.136c3.176 1.985 5.386 5.134 6.185 8.842.798 3.707.079 7.485-2.024 10.641-2.675 4.01-7.074 6.197-11.574 6.198zm-82.09-34.085h30.189c2.39 0 4.731.657 6.77 1.902l41.083 25.06c3.605 2.165 8.283 1.112 10.628-2.405 1.196-1.794 1.604-3.942 1.151-6.05-.454-2.108-1.711-3.899-3.54-5.042l-28.014-18.136c-2.323-1.451-4.231-3.55-5.478-6.043l-.559-1.117c-2.919-5.838-1.78-12.861 2.836-17.478 4.403-4.404 10.947-5.663 16.67-3.211l34.445 14.761c1.104.473 1.819 1.558 1.819 2.758v15c0 3.309 2.691 6 6 6 3.308 0 6-2.691 6-6v-26.228c0-2.879-1.727-5.431-4.4-6.5l-50.117-20.046c-1.625-.649-3.421-.67-5.058-.056l-42.674 16.003c-1.465.55-3 .828-4.564.828h-13.187z" fill="#1c2d6b"/><path d="m181.667 232.115h-49.392c-1.102 0-2.2-.141-3.264-.417l-48.833-12.656c-6.57-1.576-11.196-7.441-11.196-14.252 0-4.521 2.036-8.72 5.586-11.52s8.107-3.802 12.503-2.745l44.313 11.59h29.613c4.962 0 9-4.037 9-9s-4.038-9-9-9h-11.997c-4.059 0-7.86-1.595-10.704-4.491-2.843-2.896-4.368-6.727-4.294-10.788.149-8.117 7.055-14.721 15.396-14.721h32.269c2.794 0 5.564.923 7.8 2.6l21.333 16c.756.567 1.2 1.456 1.2 2.4v36c0 .944-.444 1.833-1.2 2.4l-21.333 16c-2.237 1.677-5.007 2.6-7.8 2.6zm-98.03-36.004c-1.908 0-3.794.643-5.353 1.871-2.098 1.654-3.301 4.136-3.301 6.808 0 4.024 2.734 7.491 6.648 8.431l48.887 12.67c.573.149 1.164.225 1.756.225h49.392c1.504 0 2.996-.497 4.2-1.4l20.133-15.1v-33l-20.133-15.1c-1.204-.903-2.696-1.4-4.2-1.4h-32.269c-5.092 0-9.307 3.961-9.396 8.83-.044 2.438.87 4.737 2.576 6.475s3.987 2.695 6.422 2.695h11.999c8.271 0 15 6.729 15 15s-6.729 15-15 15h-29.998c-.256 0-.511-.033-.759-.098l-44.627-11.673c-.653-.157-1.317-.234-1.977-.234z" fill="#1c2d6b"/></svg>