<svg id="Layer_1" enable-background="new 0 0 256 256" height="512" viewBox="0 0 256 256" width="512" xmlns="http://www.w3.org/2000/svg"><path d="m193.177 226.893c0-7.748 1.3-14.538 3.25-18.324-1.289-3.286-2.113-8.308-2.113-13.939 0-9.899 2.546-17.924 5.687-17.924-9.899 0-17.924 8.025-17.924 17.924 0 5.631 2.599 10.653 6.66 13.939-6.146 3.786-10.245 10.575-10.245 18.324v3.585 7.17h14.685v-7.17z" fill="#89aadb"/><path d="m211.265 208.569c4.061-3.286 6.66-8.308 6.66-13.939 0-9.899-8.025-17.924-17.924-17.924 3.141 0 5.687 8.025 5.687 17.924 0 5.631-.825 10.653-2.113 13.939 1.95 3.786 3.25 10.575 3.25 18.324v3.585 7.17h14.685v-7.17-3.585c0-7.749-4.099-14.538-10.245-18.324z" fill="#4b67b0"/><path d="m206.825 226.893c0-7.748-1.3-14.538-3.25-18.324 1.289-3.286 2.113-8.308 2.113-13.939 0-9.899-2.546-17.924-5.687-17.924-3.141 0-5.687 8.025-5.687 17.924 0 5.631.825 10.653 2.113 13.939-1.95 3.786-3.25 10.575-3.25 18.324v3.585 7.17h13.648v-7.17z" fill="#6287c5"/><path d="m200.001 215.554c-11.537 0-20.924-9.386-20.924-20.924s9.387-20.924 20.924-20.924 20.924 9.386 20.924 20.924-9.387 20.924-20.924 20.924zm0-35.848c-8.229 0-14.924 6.695-14.924 14.924s6.694 14.924 14.924 14.924 14.924-6.695 14.924-14.924-6.695-14.924-14.924-14.924z" fill="#1c2d6b"/><path d="m221.51 240.647h-43.018c-1.657 0-3-1.343-3-3v-10.754c0-8.571 4.363-16.376 11.672-20.878 1.081-.666 2.47-.58 3.46.222 2.683 2.17 5.925 3.317 9.377 3.317s6.694-1.147 9.377-3.317c.99-.802 2.378-.889 3.46-.222 7.309 4.502 11.672 12.307 11.672 20.878v10.754c0 1.657-1.343 3-3 3zm-40.018-6h37.018v-7.754c0-5.815-2.661-11.165-7.206-14.658-3.355 2.152-7.293 3.319-11.303 3.319s-7.947-1.167-11.303-3.319c-4.545 3.493-7.206 8.842-7.206 14.658z" fill="#1c2d6b"/><path d="m190.021 239.827v-8.713c0-1.2.973-2.173 2.173-2.173h-16.377c-2.003 0-3.627 1.624-3.627 3.627v5.804c0 2.003 1.624 3.627 3.627 3.627h16.377c-1.2.001-2.173-.972-2.173-2.172z" fill="#ede49d"/><path d="m224.183 228.941h-16.377c1.2 0 2.173.973 2.173 2.173v8.713c0 1.2-.973 2.173-2.173 2.173h16.377c2.003 0 3.627-1.624 3.627-3.627v-5.804c0-2.004-1.624-3.628-3.627-3.628z" fill="#d3ba2a"/><path d="m209.979 239.827v-8.713c0-1.2-.973-2.173-2.173-2.173h-15.611c-1.2 0-2.173.973-2.173 2.173v8.713c0 1.2.973 2.173 2.173 2.173h15.611c1.2 0 2.173-.973 2.173-2.173z" fill="#eee045"/><path d="m224.183 245h-48.365c-3.654 0-6.628-2.973-6.628-6.627v-5.804c0-3.654 2.974-6.627 6.628-6.627h48.365c3.654 0 6.628 2.973 6.628 6.627v5.804c0 3.654-2.974 6.627-6.628 6.627zm-48.366-13.059c-.347 0-.628.281-.628.627v5.804c0 .346.281.627.628.627h48.365c.347 0 .628-.281.628-.627v-5.804c0-.346-.281-.627-.628-.627z" fill="#1c2d6b"/><path d="m121.177 226.893c0-7.748 1.3-14.538 3.25-18.324-1.289-3.286-2.113-8.308-2.113-13.939 0-9.899 2.546-17.924 5.687-17.924-9.899 0-17.924 8.025-17.924 17.924 0 5.631 2.599 10.653 6.66 13.939-6.146 3.786-10.245 10.575-10.245 18.324v3.585 7.17h14.685v-7.17z" fill="#a4d4a0"/><path d="m139.265 208.569c4.061-3.286 6.66-8.308 6.66-13.939 0-9.899-8.025-17.924-17.924-17.924 3.141 0 5.687 8.025 5.687 17.924 0 5.631-.825 10.653-2.113 13.939 1.95 3.786 3.25 10.575 3.25 18.324v3.585 7.17h14.685v-7.17-3.585c0-7.749-4.099-14.538-10.245-18.324z" fill="#419b46"/><path d="m134.825 226.893c0-7.748-1.3-14.538-3.25-18.324 1.289-3.286 2.113-8.308 2.113-13.939 0-9.899-2.546-17.924-5.687-17.924-3.141 0-5.687 8.025-5.687 17.924 0 5.631.825 10.653 2.113 13.939-1.95 3.786-3.25 10.575-3.25 18.324v3.585 7.17h13.648v-7.17z" fill="#65bc49"/><path d="m128.001 215.554c-11.537 0-20.924-9.386-20.924-20.924s9.387-20.924 20.924-20.924 20.924 9.386 20.924 20.924-9.387 20.924-20.924 20.924zm0-35.848c-8.229 0-14.924 6.695-14.924 14.924s6.694 14.924 14.924 14.924 14.924-6.695 14.924-14.924-6.695-14.924-14.924-14.924z" fill="#1c2d6b"/><path d="m149.51 240.647h-43.018c-1.657 0-3-1.343-3-3v-10.754c0-8.571 4.363-16.376 11.672-20.878 1.082-.666 2.47-.58 3.46.222 2.683 2.17 5.925 3.317 9.377 3.317s6.694-1.147 9.377-3.317c.99-.802 2.379-.889 3.46-.222 7.309 4.502 11.672 12.307 11.672 20.878v10.754c0 1.657-1.343 3-3 3zm-40.018-6h37.018v-7.754c0-5.815-2.661-11.165-7.206-14.658-3.355 2.152-7.293 3.319-11.303 3.319s-7.947-1.167-11.303-3.319c-4.545 3.493-7.206 8.842-7.206 14.658z" fill="#1c2d6b"/><path d="m118.021 239.827v-8.713c0-1.2.973-2.173 2.173-2.173h-16.377c-2.003 0-3.627 1.624-3.627 3.627v5.804c0 2.003 1.624 3.627 3.627 3.627h16.377c-1.2.001-2.173-.972-2.173-2.172z" fill="#ede49d"/><path d="m152.183 228.941h-16.377c1.2 0 2.173.973 2.173 2.173v8.713c0 1.2-.973 2.173-2.173 2.173h16.377c2.003 0 3.627-1.624 3.627-3.627v-5.804c0-2.004-1.624-3.628-3.627-3.628z" fill="#d3ba2a"/><path d="m137.979 239.827v-8.713c0-1.2-.973-2.173-2.173-2.173h-15.611c-1.2 0-2.173.973-2.173 2.173v8.713c0 1.2.973 2.173 2.173 2.173h15.611c1.2 0 2.173-.973 2.173-2.173z" fill="#eee045"/><path d="m152.183 245h-48.365c-3.654 0-6.628-2.973-6.628-6.627v-5.804c0-3.654 2.974-6.627 6.628-6.627h48.365c3.654 0 6.628 2.973 6.628 6.627v5.804c0 3.654-2.974 6.627-6.628 6.627zm-48.366-13.059c-.347 0-.628.281-.628.627v5.804c0 .346.281.627.628.627h48.365c.347 0 .628-.281.628-.627v-5.804c0-.346-.281-.627-.628-.627z" fill="#1c2d6b"/><path d="m49.177 226.893c0-7.748 1.3-14.538 3.25-18.324-1.289-3.286-2.113-8.308-2.113-13.939 0-9.899 2.546-17.924 5.687-17.924-9.899 0-17.924 8.025-17.924 17.924 0 5.631 2.599 10.653 6.66 13.939-6.146 3.786-10.245 10.575-10.245 18.324v3.585 7.17h14.685v-7.17z" fill="#89aadb"/><path d="m67.265 208.569c4.061-3.286 6.66-8.308 6.66-13.939 0-9.899-8.025-17.924-17.924-17.924 3.141 0 5.687 8.025 5.687 17.924 0 5.631-.825 10.653-2.113 13.939 1.95 3.786 3.25 10.575 3.25 18.324v3.585 7.17h14.685v-7.17-3.585c0-7.749-4.099-14.538-10.245-18.324z" fill="#4b67b0"/><path d="m62.825 226.893c0-7.748-1.3-14.538-3.25-18.324 1.289-3.286 2.113-8.308 2.113-13.939 0-9.899-2.546-17.924-5.687-17.924-3.141 0-5.687 8.025-5.687 17.924 0 5.631.825 10.653 2.113 13.939-1.95 3.786-3.25 10.575-3.25 18.324v3.585 7.17h13.648v-7.17z" fill="#6287c5"/><path d="m56.001 215.554c-11.537 0-20.924-9.386-20.924-20.924s9.387-20.924 20.924-20.924 20.924 9.386 20.924 20.924-9.387 20.924-20.924 20.924zm0-35.848c-8.229 0-14.924 6.695-14.924 14.924s6.694 14.924 14.924 14.924 14.924-6.695 14.924-14.924-6.695-14.924-14.924-14.924z" fill="#1c2d6b"/><path d="m77.51 240.647h-43.018c-1.657 0-3-1.343-3-3v-10.754c0-8.571 4.363-16.376 11.672-20.878 1.082-.666 2.47-.58 3.46.222 2.683 2.17 5.925 3.317 9.377 3.317s6.694-1.147 9.377-3.317c.99-.802 2.378-.889 3.46-.222 7.309 4.502 11.672 12.307 11.672 20.878v10.754c0 1.657-1.343 3-3 3zm-40.018-6h37.018v-7.754c0-5.815-2.661-11.165-7.206-14.658-3.355 2.152-7.293 3.319-11.303 3.319s-7.947-1.167-11.303-3.319c-4.545 3.493-7.206 8.842-7.206 14.658z" fill="#1c2d6b"/><path d="m46.021 239.827v-8.713c0-1.2.973-2.173 2.173-2.173h-16.377c-2.003 0-3.627 1.624-3.627 3.627v5.804c0 2.003 1.624 3.627 3.627 3.627h16.377c-1.2.001-2.173-.972-2.173-2.172z" fill="#ede49d"/><path d="m80.183 228.941h-16.377c1.2 0 2.173.973 2.173 2.173v8.713c0 1.2-.973 2.173-2.173 2.173h16.377c2.003 0 3.627-1.624 3.627-3.627v-5.804c0-2.004-1.624-3.628-3.627-3.628z" fill="#d3ba2a"/><path d="m65.979 239.827v-8.713c0-1.2-.973-2.173-2.173-2.173h-15.612c-1.2 0-2.173.973-2.173 2.173v8.713c0 1.2.973 2.173 2.173 2.173h15.611c1.201 0 2.174-.973 2.174-2.173z" fill="#eee045"/><path d="m80.183 245h-48.366c-3.654 0-6.628-2.973-6.628-6.627v-5.804c0-3.654 2.974-6.627 6.628-6.627h48.365c3.654 0 6.628 2.973 6.628 6.627v5.804c.001 3.654-2.973 6.627-6.627 6.627zm-48.366-13.059c-.347 0-.628.281-.628.627v5.804c0 .346.281.627.628.627h48.365c.347 0 .628-.281.628-.627v-5.804c0-.346-.281-.627-.628-.627z" fill="#1c2d6b"/><path d="m157.177 154.187c0-7.748 1.3-14.538 3.25-18.324-1.289-3.286-2.113-8.308-2.113-13.939 0-9.899 2.546-17.924 5.687-17.924-9.899 0-17.924 8.025-17.924 17.924 0 5.631 2.599 10.653 6.66 13.939-6.146 3.786-10.245 10.575-10.245 18.324v3.585 7.17h14.685v-7.17z" fill="#89aadb"/><path d="m175.265 135.863c4.061-3.286 6.66-8.308 6.66-13.939 0-9.899-8.025-17.924-17.924-17.924 3.141 0 5.687 8.025 5.687 17.924 0 5.631-.825 10.653-2.113 13.939 1.95 3.786 3.25 10.575 3.25 18.324v3.585 7.17h14.685v-7.17-3.585c0-7.749-4.099-14.538-10.245-18.324z" fill="#4b67b0"/><path d="m170.825 154.187c0-7.748-1.3-14.538-3.25-18.324 1.289-3.286 2.113-8.308 2.113-13.939 0-9.899-2.546-17.924-5.687-17.924-3.141 0-5.687 8.025-5.687 17.924 0 5.631.825 10.653 2.113 13.939-1.95 3.786-3.25 10.575-3.25 18.324v3.585 7.17h13.648v-7.17z" fill="#6287c5"/><path d="m164.001 142.848c-11.537 0-20.924-9.386-20.924-20.924s9.387-20.924 20.924-20.924 20.924 9.386 20.924 20.924-9.387 20.924-20.924 20.924zm0-35.848c-8.229 0-14.924 6.695-14.924 14.924s6.694 14.924 14.924 14.924 14.924-6.695 14.924-14.924-6.695-14.924-14.924-14.924z" fill="#1c2d6b"/><path d="m185.51 167.941h-43.018c-1.657 0-3-1.343-3-3v-10.754c0-8.572 4.363-16.376 11.672-20.878 1.082-.667 2.47-.58 3.46.222 2.683 2.17 5.925 3.317 9.377 3.317s6.694-1.147 9.377-3.317c.991-.802 2.378-.89 3.46-.222 7.309 4.502 11.672 12.307 11.672 20.878v10.754c0 1.657-1.343 3-3 3zm-40.018-6h37.018v-7.754c0-5.816-2.661-11.165-7.206-14.658-3.355 2.152-7.293 3.319-11.303 3.319s-7.947-1.167-11.303-3.319c-4.545 3.493-7.206 8.842-7.206 14.658z" fill="#1c2d6b"/><path d="m154.021 167.121v-8.713c0-1.2.973-2.173 2.173-2.173h-16.377c-2.003 0-3.627 1.624-3.627 3.627v5.804c0 2.003 1.624 3.627 3.627 3.627h16.377c-1.2.001-2.173-.972-2.173-2.172z" fill="#ede49d"/><path d="m188.183 156.235h-16.377c1.2 0 2.173.973 2.173 2.173v8.713c0 1.2-.973 2.173-2.173 2.173h16.377c2.003 0 3.627-1.624 3.627-3.627v-5.804c0-2.004-1.624-3.628-3.627-3.628z" fill="#d3ba2a"/><path d="m173.979 167.121v-8.713c0-1.2-.973-2.173-2.173-2.173h-15.611c-1.2 0-2.173.973-2.173 2.173v8.713c0 1.2.973 2.173 2.173 2.173h15.611c1.2 0 2.173-.973 2.173-2.173z" fill="#eee045"/><path d="m188.183 172.294h-48.365c-3.654 0-6.628-2.973-6.628-6.627v-5.804c0-3.654 2.974-6.627 6.628-6.627h48.365c3.654 0 6.628 2.973 6.628 6.627v5.804c0 3.654-2.974 6.627-6.628 6.627zm-48.366-13.059c-.347 0-.628.281-.628.627v5.804c0 .346.281.627.628.627h48.365c.347 0 .628-.281.628-.627v-5.804c0-.346-.281-.627-.628-.627z" fill="#1c2d6b"/><path d="m85.177 154.187c0-7.748 1.3-14.538 3.25-18.324-1.289-3.286-2.113-8.308-2.113-13.939 0-9.899 2.546-17.924 5.687-17.924-9.899 0-17.924 8.025-17.924 17.924 0 5.631 2.599 10.653 6.66 13.939-6.146 3.786-10.245 10.575-10.245 18.324v3.585 7.17h14.685v-7.17z" fill="#a4d4a0"/><path d="m103.265 135.863c4.061-3.286 6.66-8.308 6.66-13.939 0-9.899-8.025-17.924-17.924-17.924 3.141 0 5.687 8.025 5.687 17.924 0 5.631-.825 10.653-2.113 13.939 1.95 3.786 3.25 10.575 3.25 18.324v3.585 7.17h14.685v-7.17-3.585c0-7.749-4.099-14.538-10.245-18.324z" fill="#419b46"/><path d="m98.825 154.187c0-7.748-1.3-14.538-3.25-18.324 1.289-3.286 2.113-8.308 2.113-13.939 0-9.899-2.546-17.924-5.687-17.924-3.141 0-5.687 8.025-5.687 17.924 0 5.631.825 10.653 2.113 13.939-1.95 3.786-3.25 10.575-3.25 18.324v3.585 7.17h13.648v-7.17z" fill="#65bc49"/><path d="m92.001 142.848c-11.537 0-20.924-9.386-20.924-20.924s9.387-20.924 20.924-20.924 20.924 9.386 20.924 20.924-9.387 20.924-20.924 20.924zm0-35.848c-8.229 0-14.924 6.695-14.924 14.924s6.694 14.924 14.924 14.924 14.924-6.695 14.924-14.924-6.695-14.924-14.924-14.924z" fill="#1c2d6b"/><path d="m113.51 167.941h-43.018c-1.657 0-3-1.343-3-3v-10.754c0-8.572 4.363-16.376 11.672-20.878 1.081-.667 2.47-.58 3.46.222 2.683 2.17 5.925 3.317 9.377 3.317s6.694-1.147 9.377-3.317c.989-.802 2.378-.89 3.46-.222 7.309 4.502 11.672 12.307 11.672 20.878v10.754c0 1.657-1.343 3-3 3zm-40.018-6h37.018v-7.754c0-5.816-2.661-11.165-7.206-14.658-3.355 2.152-7.293 3.319-11.303 3.319s-7.947-1.167-11.303-3.319c-4.545 3.493-7.206 8.842-7.206 14.658z" fill="#1c2d6b"/><path d="m82.021 167.121v-8.713c0-1.2.973-2.173 2.173-2.173h-16.377c-2.003 0-3.627 1.624-3.627 3.627v5.804c0 2.003 1.624 3.627 3.627 3.627h16.377c-1.2.001-2.173-.972-2.173-2.172z" fill="#ede49d"/><path d="m116.183 156.235h-16.377c1.2 0 2.173.973 2.173 2.173v8.713c0 1.2-.973 2.173-2.173 2.173h16.377c2.003 0 3.627-1.624 3.627-3.627v-5.804c0-2.004-1.624-3.628-3.627-3.628z" fill="#d3ba2a"/><path d="m101.979 167.121v-8.713c0-1.2-.973-2.173-2.173-2.173h-15.612c-1.2 0-2.173.973-2.173 2.173v8.713c0 1.2.973 2.173 2.173 2.173h15.611c1.201 0 2.174-.973 2.174-2.173z" fill="#eee045"/><path d="m116.183 172.294h-48.366c-3.654 0-6.628-2.973-6.628-6.627v-5.804c0-3.654 2.974-6.627 6.628-6.627h48.365c3.654 0 6.628 2.973 6.628 6.627v5.804c.001 3.654-2.973 6.627-6.627 6.627zm-48.366-13.059c-.347 0-.628.281-.628.627v5.804c0 .346.281.627.628.627h48.365c.347 0 .628-.281.628-.627v-5.804c0-.346-.281-.627-.628-.627z" fill="#1c2d6b"/><path d="m121.178 64.187c0-7.748 1.3-14.538 3.25-18.324-1.289-3.286-2.113-8.308-2.113-13.939 0-9.899 2.546-17.924 5.687-17.924-9.899 0-17.924 8.025-17.924 17.924 0 5.631 2.599 10.653 6.66 13.939-6.146 3.786-10.245 10.575-10.245 18.324v3.585 24.228h14.685v-24.228z" fill="#ef7f72"/><path d="m139.266 45.863c4.061-3.286 6.66-8.308 6.66-13.939 0-9.899-8.025-17.924-17.924-17.924 3.141 0 5.687 8.025 5.687 17.924 0 5.631-.825 10.653-2.113 13.939 1.95 3.786 3.25 10.575 3.25 18.324v3.585 24.228h14.685v-24.228-3.585c0-7.749-4.099-14.538-10.245-18.324z" fill="#e8383b"/><path d="m134.826 64.187c0-7.748-1.3-14.538-3.25-18.324 1.289-3.286 2.113-8.308 2.113-13.939 0-9.899-2.546-17.924-5.687-17.924-3.141 0-5.687 8.025-5.687 17.924 0 5.631.825 10.653 2.113 13.939-1.95 3.786-3.25 10.575-3.25 18.324v3.585 24.228h13.648v-24.228z" fill="#e95947"/><g fill="#1c2d6b"><path d="m128.002 52.848c-11.537 0-20.924-9.386-20.924-20.924s9.387-20.924 20.924-20.924 20.924 9.386 20.924 20.924-9.387 20.924-20.924 20.924zm0-35.848c-8.229 0-14.924 6.695-14.924 14.924s6.694 14.924 14.924 14.924 14.924-6.695 14.924-14.924-6.695-14.924-14.924-14.924z"/><path d="m149.511 95h-43.018c-1.657 0-3-1.343-3-3v-27.813c0-8.572 4.363-16.376 11.672-20.878 1.082-.666 2.471-.58 3.46.222 2.683 2.17 5.925 3.317 9.377 3.317s6.694-1.147 9.377-3.317c.99-.802 2.379-.89 3.46-.222 7.309 4.502 11.672 12.307 11.672 20.878v27.813c0 1.657-1.343 3-3 3zm-40.018-6h37.018v-24.813c0-5.816-2.661-11.165-7.206-14.658-3.355 2.152-7.293 3.319-11.303 3.319s-7.947-1.167-11.303-3.319c-4.545 3.493-7.206 8.842-7.206 14.658z"/><path d="m130.138 50h-4.273c-1.622 0-2.57 1.83-1.633 3.155l2.695 3.812c.489.692.489 1.617 0 2.309l-4.275 6.046c-.404.571-.48 1.312-.2 1.954l3.715 8.52c.698 1.601 2.968 1.601 3.666 0l3.717-8.52c.28-.642.204-1.383-.2-1.954l-4.275-6.046c-.489-.692-.489-1.617 0-2.309l2.695-3.812c.938-1.325-.009-3.155-1.632-3.155z"/></g></svg>