<svg id="Layer_1" enable-background="new 0 0 256 256" height="512" viewBox="0 0 256 256" width="512" xmlns="http://www.w3.org/2000/svg"><path d="m154.314 226.174-24.779-42.923c3.962-.133 7.796-.761 11.454-1.807l17.286 29.941z" fill="#a4d4a0"/><path d="m159.225 171.494 22.449 38.88-14.785-3.96-16.594-28.741c3.214-1.721 6.212-3.793 8.93-6.179z" fill="#419b46"/><path d="m155.604 205.797v.002-.001z" fill="#419b46"/><path d="m140.989 181.445c1.634-.467 3.235-1.012 4.792-1.645.976-.397 1.932-.831 2.875-1.289.553-.269 1.098-.548 1.639-.838l16.594 28.741-6.792-1.819-.001-.001v.001h-.001l-1.819 6.791z" fill="#65bc49"/><path d="m101.569 226.174 24.779-42.923c-3.962-.133-7.796-.761-11.454-1.807l-17.286 29.941z" fill="#419b46"/><path d="m96.658 171.494-22.449 38.88 14.785-3.96 16.594-28.741c-3.213-1.721-6.212-3.793-8.93-6.179z" fill="#a4d4a0"/><path d="m100.28 205.797-.001.002.001-.001z" fill="#419b46"/><path d="m114.895 181.445c-1.634-.467-3.235-1.012-4.792-1.645-.976-.397-1.932-.831-2.875-1.289-.553-.269-1.098-.548-1.639-.838l-16.594 28.741 6.792-1.819.001-.001v.001h.001l1.819 6.791z" fill="#65bc49"/><path d="m154.313 229.174c-1.062 0-2.057-.563-2.597-1.5l-24.779-42.922c-.527-.913-.537-2.035-.025-2.956.512-.922 1.469-1.507 2.522-1.542 10.235-.345 20.113-4.256 27.812-11.015.676-.592 1.578-.854 2.468-.705.886.146 1.66.682 2.109 1.46l22.448 38.881c.607 1.051.521 2.363-.218 3.326-.737.962-1.98 1.387-3.156 1.071l-18.682-5.004-5.004 18.682c-.313 1.172-1.303 2.039-2.506 2.198-.13.017-.262.026-.392.026zm-19.815-43.325 18.793 32.552 3.905-14.582c.205-.769.708-1.424 1.397-1.821.688-.398 1.506-.507 2.276-.3l14.585 3.906-17.066-29.559c-6.971 5.277-15.233 8.663-23.89 9.804z" fill="#1c2d6b"/><path d="m101.57 229.174c-.13 0-.262-.009-.393-.025-1.203-.159-2.192-1.026-2.506-2.198l-5.005-18.682-18.681 5.004c-1.171.315-2.418-.109-3.156-1.071-.739-.963-.825-2.275-.218-3.326l22.448-38.881c.449-.778 1.224-1.313 2.109-1.46.891-.149 1.792.113 2.468.705 7.698 6.759 17.576 10.67 27.812 11.015 1.054.035 2.011.62 2.522 1.542.512.921.502 2.043-.025 2.956l-24.779 42.922c-.539.935-1.534 1.499-2.596 1.499zm-5.779-27.58c1.324 0 2.537.884 2.896 2.225l3.906 14.582 18.793-32.552c-8.657-1.141-16.919-4.526-23.891-9.804l-17.066 29.559 14.584-3.906c.259-.071.521-.104.778-.104z" fill="#1c2d6b"/><path d="m118.469 81.363c1.924 4.93 5.422 2.735 6.036-3.787.406-4.313 1.921-6.469 3.437-6.469-3.549 0-7.098 2.156-8.048 6.469-.289 1.313-.861 2.441-1.613 3.381.062.139.128.252.188.406z" fill="#e95947"/><path d="m124.505 194.175c-.613-6.522-4.112-8.717-6.036-3.787v.001c-.06.153-.126.266-.188.405.752.939 1.324 2.067 1.613 3.38.95 4.312 4.499 6.469 8.048 6.469-1.516.001-3.032-2.155-3.437-6.468z" fill="#e95947"/><path d="m112.515 182.341c.862-6.367-1.699-12.363-4.418-10.346-3.596 2.668-6.222-7.982-3.437-13.94 2.106-4.505 1.168-12.696-1.617-14.132-3.684-1.899-3.684-14.197 0-16.096 2.785-1.436 3.723-9.627 1.617-14.132-2.785-5.957-.158-16.607 3.437-13.94 2.719 2.017 5.28-3.979 4.418-10.345v-.001c-.267-1.976-.213-3.818.047-5.409-2.403.219-4.921-.582-6.8-2.638l-.001-.001c-5.957-6.52-16.607-.371-13.94 8.048v.001c2.017 6.366-3.979 12.362-10.345 10.345h-.001c-8.419-2.668-14.568 7.982-8.048 13.94h.001c4.93 4.505 2.736 12.696-3.787 14.132-8.625 1.899-8.625 14.197 0 16.096 6.522 1.436 8.717 9.627 3.787 14.132-6.52 5.957-.371 16.607 8.048 13.94 6.366-2.017 12.362 3.979 10.345 10.345v.001c-2.668 8.419 7.982 14.568 13.94 8.048l.001-.001c1.879-2.056 4.396-2.857 6.8-2.638-.26-1.591-.315-3.432-.047-5.409z" fill="#ef7f72"/><path d="m131.379 77.576c.613 6.522 4.112 8.717 6.036 3.787v-.001c.06-.153.126-.266.188-.405-.752-.94-1.324-2.067-1.613-3.381-.95-4.313-4.499-6.469-8.048-6.469 1.516 0 3.032 2.156 3.437 6.469z" fill="#e95947"/><path d="m186.242 127.828c-6.522-1.436-8.717-9.627-3.787-14.132 6.52-5.957.371-16.607-8.048-13.94-6.366 2.017-12.362-3.979-10.345-10.345v-.001c2.668-8.419-7.982-14.568-13.94-8.048l-.001.001c-1.879 2.056-4.396 2.857-6.8 2.638.26 1.592.314 3.433.047 5.409v.001c-.862 6.366 1.699 12.362 4.418 10.345 3.596-2.668 6.222 7.982 3.437 13.94-2.106 4.505-1.168 12.696 1.617 14.132 3.684 1.899 3.684 14.197 0 16.096-2.785 1.436-3.723 9.627-1.617 14.132 2.785 5.957.158 16.607-3.437 13.94-2.719-2.017-5.28 3.979-4.418 10.345v.001c.267 1.976.213 3.818-.047 5.409 2.403-.219 4.921.582 6.8 2.638l.001.001c5.957 6.52 16.607.371 13.939-8.048v-.001c-2.017-6.366 3.979-12.362 10.345-10.345h.001c8.419 2.668 14.568-7.982 8.048-13.94-4.93-4.505-2.736-12.696 3.787-14.132 8.625-1.899 8.625-14.197 0-16.096z" fill="#e8383b"/><path d="m137.415 190.389c-1.924-4.93-5.422-2.735-6.036 3.787-.405 4.312-1.921 6.469-3.437 6.469 3.549 0 7.098-2.156 8.048-6.469.289-1.313.861-2.441 1.613-3.38-.062-.141-.128-.253-.188-.407z" fill="#e95947"/><path d="m143.369 182.341c-.862-6.367 1.699-12.363 4.418-10.346 3.596 2.668 6.222-7.982 3.437-13.94-2.106-4.505-1.168-12.696 1.617-14.132 3.684-1.899 3.684-14.197 0-16.096-2.785-1.436-3.723-9.627-1.617-14.132 2.785-5.957.158-16.607-3.437-13.94-2.719 2.017-5.28-3.979-4.418-10.345.267-1.976.213-3.817-.047-5.409-2.2-.201-4.294-1.264-5.719-3.044-.062.14-.128.252-.188.405v.001c-1.924 4.93-5.422 2.735-6.036-3.787-.405-4.313-1.921-6.469-3.437-6.469s-3.032 2.156-3.437 6.469c-.613 6.522-4.112 8.717-6.036 3.787v-.001c-.06-.153-.126-.266-.188-.406-1.425 1.781-3.519 2.844-5.719 3.044-.26 1.592-.315 3.433-.047 5.409v.001c.862 6.366-1.699 12.362-4.418 10.345-3.596-2.668-6.222 7.982-3.437 13.94 2.106 4.505 1.168 12.696-1.617 14.132-3.684 1.899-3.684 14.197 0 16.096 2.785 1.436 3.723 9.627 1.617 14.132-2.785 5.957-.158 16.607 3.437 13.94 2.719-2.017 5.28 3.979 4.418 10.345v.001c-.267 1.976-.213 3.817.047 5.409 2.2.201 4.294 1.264 5.719 3.044.062-.14.128-.252.188-.405v-.001c1.924-4.93 5.422-2.735 6.036 3.787.406 4.312 1.921 6.469 3.437 6.469s3.032-2.156 3.437-6.469c.613-6.522 4.112-8.717 6.036-3.787v.001c.06.153.126.266.188.406 1.425-1.781 3.519-2.844 5.719-3.044.259-1.592.314-3.433.047-5.41z" fill="#e95947"/><path d="m127.942 92.305c8.726 0 15.8 19.507 15.8 43.571s-7.074 43.571-15.8 43.571c24.063 0 43.571-19.507 43.571-43.571s-19.508-43.571-43.571-43.571z" fill="#d3ba2a"/><path d="m112.142 135.876c0-24.063 7.074-43.571 15.8-43.571-24.063 0-43.571 19.507-43.571 43.571s19.507 43.571 43.571 43.571c-8.726-.001-15.8-19.508-15.8-43.571z" fill="#ede49d"/><ellipse cx="127.942" cy="135.876" fill="#eee045" rx="15.8" ry="43.571"/><path d="m127.941 182.446c-25.679 0-46.57-20.892-46.57-46.57 0-25.68 20.892-46.571 46.57-46.571 25.68 0 46.571 20.892 46.571 46.571.001 25.679-20.891 46.57-46.571 46.57zm0-87.141c-22.37 0-40.57 18.2-40.57 40.571 0 22.37 18.2 40.57 40.57 40.57 22.371 0 40.571-18.2 40.571-40.57.001-22.371-18.2-40.571-40.571-40.571z" fill="#1c2d6b"/><path d="m127.942 203.645c-5.404 0-9.816-3.546-10.979-8.823-.429-1.948-1.835-3.42-3.762-3.937-1.921-.514-3.879.055-5.226 1.527-3.646 3.99-9.238 4.856-13.92 2.153-4.68-2.701-6.728-7.978-5.096-13.13.604-1.901.121-3.879-1.29-5.29-1.409-1.41-3.385-1.893-5.288-1.29-5.152 1.63-10.429-.415-13.131-5.096s-1.837-10.273 2.153-13.919c1.472-1.346 2.043-3.299 1.526-5.226-.516-1.926-1.987-3.333-3.936-3.762-5.277-1.162-8.823-5.574-8.823-10.979s3.546-9.815 8.824-10.977c1.948-.43 3.419-1.836 3.936-3.764.516-1.926-.055-3.879-1.527-5.224-3.99-3.646-4.855-9.24-2.153-13.92 2.703-4.682 7.98-6.729 13.131-5.095 1.901.599 3.879.12 5.29-1.291 1.41-1.41 1.892-3.387 1.29-5.288-1.633-5.152.415-10.429 5.095-13.131 4.683-2.702 10.274-1.837 13.919 2.152 1.347 1.473 3.304 2.042 5.226 1.527 1.927-.517 3.333-1.987 3.762-3.935 1.162-5.278 5.574-8.824 10.979-8.824 5.403 0 9.815 3.546 10.978 8.823.429 1.948 1.835 3.42 3.762 3.936 1.928.515 3.879-.054 5.225-1.527 3.646-3.99 9.241-4.854 13.92-2.153 4.681 2.702 6.728 7.979 5.095 13.131-.603 1.901-.12 3.879 1.29 5.29 1.41 1.409 3.388 1.89 5.29 1.29 5.147-1.636 10.428.414 13.131 5.095 2.702 4.681 1.837 10.273-2.153 13.919-1.473 1.346-2.043 3.299-1.527 5.226.517 1.927 1.987 3.333 3.935 3.762 5.278 1.162 8.825 5.574 8.825 10.979 0 5.403-3.546 9.815-8.823 10.978l-.646-2.93.645 2.93c-1.948.429-3.419 1.836-3.936 3.763-.516 1.926.055 3.879 1.527 5.225 3.989 3.646 4.854 9.239 2.152 13.919-2.701 4.68-7.976 6.73-13.13 5.095-1.903-.599-3.88-.119-5.29 1.292-1.41 1.41-1.893 3.387-1.29 5.288 1.633 5.151-.415 10.429-5.095 13.131-4.68 2.704-10.273 1.838-13.919-2.152-1.346-1.472-3.296-2.044-5.227-1.527-1.926.517-3.332 1.987-3.761 3.935-1.162 5.278-5.574 8.824-10.978 8.824zm-16.114-18.942c.974 0 1.957.126 2.928.387 4.07 1.091 7.162 4.325 8.067 8.44.668 3.033 3.082 4.114 5.119 4.114 2.036 0 4.45-1.081 5.118-4.114.905-4.115 3.997-7.35 8.067-8.44 4.071-1.089 8.365.164 11.208 3.275 2.095 2.293 4.726 2.021 6.49 1.004 1.764-1.019 3.313-3.161 2.376-6.122-1.273-4.017-.214-8.363 2.767-11.344 2.979-2.98 7.325-4.04 11.344-2.769 2.964.941 5.104-.612 6.122-2.375 1.019-1.764 1.29-4.395-1.003-6.489-3.111-2.843-4.366-7.137-3.276-11.207 1.091-4.071 4.325-7.163 8.44-8.069 3.034-.668 4.115-3.082 4.115-5.119 0-2.036-1.081-4.449-4.113-5.117-4.117-.906-7.352-3.999-8.442-8.07-1.09-4.07.165-8.364 3.276-11.206 2.293-2.096 2.022-4.727 1.004-6.49s-3.16-3.314-6.122-2.376c-4.017 1.273-8.364.214-11.345-2.767s-4.04-7.327-2.767-11.344c.938-2.962-.612-5.104-2.376-6.123-1.766-1.019-4.396-1.288-6.489 1.004-2.844 3.112-7.14 4.366-11.209 3.276-4.07-1.091-7.162-4.325-8.067-8.441-.668-3.032-3.082-4.113-5.118-4.113-2.037 0-4.451 1.081-5.119 4.114-.905 4.115-3.997 7.349-8.068 8.439-4.066 1.093-8.365-.163-11.208-3.275-2.094-2.292-4.725-2.021-6.489-1.003s-3.313 3.16-2.376 6.121c1.273 4.018.213 8.364-2.767 11.345-2.98 2.98-7.328 4.039-11.345 2.767-2.964-.938-5.104.611-6.122 2.376-1.019 1.764-1.289 4.395 1.003 6.489 3.111 2.843 4.367 7.137 3.276 11.208s-4.325 7.163-8.441 8.068c-3.032.668-4.113 3.082-4.113 5.118 0 2.037 1.081 4.451 4.114 5.119 4.115.906 7.35 3.998 8.44 8.068s-.164 8.365-3.275 11.208c-2.293 2.095-2.021 4.726-1.004 6.489s3.157 3.312 6.122 2.376c4.015-1.276 8.364-.213 11.344 2.768 2.98 2.979 4.041 7.326 2.769 11.344-.938 2.961.611 5.104 2.375 6.123 1.762 1.017 4.394 1.29 6.488-1.004 2.165-2.37 5.173-3.663 8.282-3.663z" fill="#1c2d6b"/><path d="m121.721 153.11.539-8.711c.1-1.622-.094-3.277-.519-4.426l-2.283-6.169c-1.071-2.893-.48-7.932 1-8.529l3.155-1.271c.588-.237 1.095-1.26 1.358-2.735l1.411-7.925c.331-1.858.974-2.787 1.618-2.787-1.783 0-3.567.929-4.484 2.787l-3.911 7.925c-.728 1.476-2.136 2.499-3.765 2.735l-8.746 1.271c-4.101.596-5.739 5.636-2.771 8.529l6.329 6.169c1.178 1.149 1.716 2.804 1.438 4.426l-1.494 8.711c-.701 4.084 3.587 7.199 7.255 5.271l4.047-2.128c-.172-.91-.248-1.985-.177-3.143z" fill="#89aadb"/><path d="m151.677 133.805c2.968-2.893 1.33-7.932-2.771-8.529l-8.746-1.271c-1.629-.237-3.036-1.26-3.765-2.735l-3.911-7.925c-.917-1.858-2.7-2.787-4.484-2.787.643 0 1.287.929 1.618 2.787l1.411 7.925c.263 1.476.771 2.499 1.358 2.735l3.155 1.271c1.479.596 2.07 5.636 1 8.529l-2.283 6.169c-.425 1.149-.619 2.804-.519 4.426l.539 8.711c.072 1.159-.005 2.233-.177 3.143l4.047 2.128c3.668 1.928 7.955-1.186 7.255-5.271l-1.494-8.711c-.278-1.622.26-3.277 1.438-4.426z" fill="#4b67b0"/><path d="m134.279 153.11-.539-8.711c-.1-1.622.094-3.277.519-4.426l2.283-6.169c1.071-2.893.48-7.932-1-8.529l-3.155-1.271c-.588-.237-1.095-1.26-1.358-2.735l-1.411-7.925c-.331-1.858-.974-2.787-1.618-2.787-.643 0-1.287.929-1.618 2.787l-1.411 7.925c-.263 1.476-.771 2.499-1.358 2.735l-3.155 1.271c-1.479.596-2.07 5.636-1 8.529l2.283 6.169c.425 1.149.619 2.804.519 4.426l-.539 8.711c-.072 1.159.005 2.233.177 3.143l3.775-1.985c.728-.383 1.528-.574 2.327-.574s1.598.191 2.327.574l3.775 1.985c.172-.91.248-1.985.177-3.143z" fill="#6287c5"/><path d="m140.483 161.964c-1.271 0-2.549-.307-3.729-.928l-7.823-4.113c-.581-.306-1.277-.308-1.862 0l-7.821 4.113c-2.717 1.429-5.944 1.193-8.426-.609s-3.7-4.801-3.183-7.824l1.494-8.71c.111-.649-.104-1.312-.575-1.771l-6.328-6.168c-2.197-2.142-2.973-5.283-2.024-8.201.947-2.917 3.423-5.004 6.458-5.444l8.746-1.271c.652-.095 1.215-.504 1.506-1.094l3.911-7.925c1.357-2.751 4.106-4.46 7.174-4.46s5.816 1.709 7.174 4.459v.001l3.911 7.926c.291.589.854.998 1.505 1.093l8.747 1.271c3.035.44 5.511 2.527 6.458 5.444.948 2.918.173 6.06-2.024 8.201l-6.329 6.169c-.471.459-.686 1.121-.574 1.77l1.494 8.711c.518 3.023-.701 6.021-3.183 7.824-1.404 1.017-3.045 1.536-4.697 1.536zm-12.483-11.271c1.279 0 2.558.306 3.723.919l7.823 4.113c.991.524 1.804.067 2.105-.152.303-.22.985-.851.796-1.957l-1.494-8.71c-.445-2.595.415-5.242 2.3-7.08l6.33-6.17c.804-.783.621-1.694.506-2.05s-.504-1.2-1.615-1.361l-8.746-1.271c-2.605-.378-4.857-2.014-6.023-4.375l-3.911-7.927c-.496-1.006-1.419-1.114-1.793-1.114s-1.297.108-1.793 1.115l-3.911 7.925c-1.166 2.362-3.418 3.998-6.024 4.376l-8.745 1.271c-1.111.161-1.5 1.006-1.615 1.361s-.298 1.267.506 2.05l6.329 6.169c1.886 1.839 2.746 4.486 2.301 7.082l-1.494 8.709c-.189 1.106.493 1.737.796 1.957.303.219 1.113.674 2.106.152l7.821-4.113c1.164-.612 2.444-.919 3.722-.919z" fill="#1c2d6b"/><path d="m124.082 56.376.336-5.435c.063-1.012-.058-2.045-.324-2.761l-1.425-3.849c-.668-1.805-.299-4.949.624-5.321l1.969-.793c.367-.148.683-.786.847-1.707l.88-4.945c.206-1.159.608-1.739 1.009-1.739-1.113 0-2.225.58-2.798 1.739l-2.44 4.945c-.454.921-1.333 1.559-2.349 1.707l-5.457.793c-2.559.372-3.581 3.517-1.729 5.321l3.949 3.849c.735.717 1.071 1.749.897 2.761l-.932 5.435c-.437 2.548 2.238 4.492 4.527 3.289l2.525-1.328c-.105-.568-.153-1.238-.109-1.961z" fill="#89aadb"/><path d="m142.773 44.33c1.852-1.805.83-4.949-1.729-5.321l-5.457-.793c-1.016-.148-1.895-.786-2.349-1.707l-2.44-4.945c-.572-1.159-1.685-1.739-2.798-1.739.401 0 .803.58 1.009 1.739l.88 4.945c.164.921.481 1.559.847 1.707l1.969.793c.923.372 1.292 3.517.624 5.321l-1.425 3.849c-.265.717-.386 1.749-.324 2.761l.336 5.435c.045.723-.003 1.394-.11 1.961l2.525 1.328c2.289 1.203 4.964-.74 4.527-3.289l-.932-5.435c-.174-1.012.162-2.045.897-2.761z" fill="#4b67b0"/><path d="m131.918 56.376-.336-5.435c-.063-1.012.058-2.045.324-2.761l1.425-3.849c.668-1.805.299-4.949-.624-5.321l-1.969-.793c-.367-.148-.683-.786-.847-1.707l-.88-4.945c-.206-1.159-.608-1.739-1.009-1.739s-.803.58-1.009 1.739l-.88 4.945c-.164.921-.481 1.559-.847 1.707l-1.969.793c-.923.372-1.292 3.517-.624 5.321l1.425 3.849c.265.717.386 1.749.324 2.761l-.336 5.435c-.045.723.003 1.394.11 1.961l2.355-1.238c.454-.239.953-.358 1.452-.358s.997.119 1.452.358l2.355 1.238c.104-.568.152-1.238.108-1.961z" fill="#6287c5"/><path d="m120.209 63.029c-1.262 0-2.517-.396-3.589-1.174-1.899-1.379-2.833-3.673-2.437-5.986l.933-5.436c.007-.038-.006-.078-.034-.105l-3.949-3.85c-1.68-1.637-2.273-4.04-1.549-6.272.725-2.231 2.618-3.828 4.94-4.166l5.457-.793c.039-.006.072-.029.09-.064l2.44-4.945c1.039-2.104 3.142-3.411 5.488-3.411s4.449 1.307 5.488 3.41v.001l2.44 4.945c.018.035.051.059.089.064l5.458.793c2.322.338 4.216 1.935 4.94 4.166.725 2.232.131 4.636-1.55 6.272l-3.947 3.85c-.029.027-.042.067-.035.107l.933 5.434c.396 2.313-.537 4.607-2.437 5.986-1.898 1.378-4.368 1.555-6.444.464l-4.879-2.565c-.035-.018-.077-.019-.114.001l-4.88 2.564c-.901.476-1.878.71-2.852.71zm7.791-30.203c-.075 0-.086.021-.107.066l-2.44 4.944c-.891 1.807-2.613 3.059-4.608 3.348l-5.456.793c-.049.007-.074.011-.097.082-.023.07-.005.087.03.122l3.949 3.85c1.44 1.405 2.099 3.43 1.76 5.414l-.933 5.438c-.009.049-.013.073.048.117.059.043.081.032.124.009l4.883-2.565c1.784-.938 3.914-.936 5.694-.001l4.882 2.566c.047.023.067.034.126-.009.061-.044.057-.068.048-.117l-.933-5.436c-.339-1.986.319-4.011 1.761-5.416l3.947-3.85c.036-.035.055-.052.031-.122-.022-.071-.048-.075-.097-.082l-5.457-.793c-1.994-.289-3.717-1.541-4.607-3.348l-2.44-4.944c-.022-.044-.033-.066-.108-.066z" fill="#1c2d6b"/><path d="m207.638 132.097 5.435.336c1.012.063 2.045-.058 2.761-.324l3.849-1.425c1.805-.668 4.949-.299 5.321.624l.793 1.969c.148.367.786.683 1.707.847l4.945.88c1.159.206 1.739.608 1.739 1.009 0-1.113-.58-2.225-1.739-2.798l-4.945-2.44c-.921-.454-1.559-1.333-1.707-2.349l-.793-5.457c-.372-2.559-3.517-3.581-5.321-1.729l-3.849 3.949c-.717.735-1.749 1.071-2.761.897l-5.435-.932c-2.548-.437-4.492 2.238-3.289 4.527l1.328 2.525c.568-.106 1.239-.154 1.961-.109z" fill="#89aadb"/><path d="m219.684 150.787c1.805 1.852 4.949.83 5.321-1.729l.793-5.457c.148-1.016.786-1.895 1.707-2.349l4.945-2.44c1.159-.572 1.739-1.685 1.739-2.798 0 .401-.58.803-1.739 1.009l-4.945.88c-.921.164-1.559.481-1.707.847l-.793 1.969c-.372.923-3.517 1.292-5.321.624l-3.849-1.425c-.717-.265-1.749-.386-2.761-.324l-5.435.336c-.723.045-1.394-.003-1.961-.11l-1.328 2.525c-1.203 2.289.74 4.964 3.289 4.527l5.435-.932c1.012-.174 2.045.162 2.761.897z" fill="#4b67b0"/><path d="m207.638 139.932 5.435-.336c1.012-.063 2.045.058 2.761.324l3.849 1.425c1.805.668 4.949.299 5.321-.624l.793-1.969c.148-.367.786-.683 1.707-.847l4.945-.88c1.159-.206 1.739-.608 1.739-1.009s-.58-.803-1.739-1.009l-4.945-.88c-.921-.164-1.559-.481-1.707-.847l-.793-1.969c-.372-.923-3.517-1.292-5.321-.624l-3.849 1.425c-.717.265-1.749.386-2.761.324l-5.435-.336c-.723-.045-1.394.003-1.961.11l1.238 2.355c.239.454.358.953.358 1.452s-.119.997-.358 1.452l-1.238 2.355c.568.105 1.239.153 1.961.108z" fill="#6287c5"/><path d="m221.901 154.733c-1.619 0-3.19-.646-4.366-1.853l-3.849-3.948c-.026-.027-.062-.048-.105-.034l-5.436.932c-2.314.396-4.605-.536-5.985-2.434-1.379-1.898-1.558-4.368-.466-6.445l2.566-4.882c.019-.034.018-.076-.001-.112l-2.565-4.879c-1.092-2.078-.913-4.548.466-6.446 1.379-1.897 3.669-2.831 5.986-2.434l5.434.932c.04.007.079-.006.106-.033l3.849-3.949c1.638-1.682 4.041-2.273 6.273-1.549 2.231.725 3.827 2.618 4.165 4.94l.793 5.457c.006.038.03.072.065.09l4.945 2.44c2.104 1.039 3.412 3.143 3.411 5.489 0 2.346-1.308 4.448-3.411 5.486l-4.944 2.44c-.035.018-.061.051-.066.09l-.793 5.458c-.338 2.322-1.934 4.215-4.165 4.939-.628.206-1.272.305-1.907.305zm-8.299-11.837c1.635 0 3.22.656 4.382 1.849l3.849 3.948c.033.034.05.053.123.03.07-.023.074-.048.081-.097l.793-5.457c.289-1.992 1.54-3.715 3.347-4.607l4.945-2.441h.001c.045-.022.066-.033.066-.106 0-.074-.022-.086-.066-.107l-4.945-2.44c-1.807-.891-3.059-2.614-3.348-4.608l-.793-5.456c-.007-.05-.011-.074-.082-.098-.07-.023-.089-.005-.122.03l-3.849 3.949c-1.407 1.442-3.433 2.097-5.418 1.76l-5.434-.932c-.051-.011-.075-.013-.118.047-.043.061-.031.083-.009.127l2.566 4.88c.938 1.785.938 3.914 0 5.696l-2.566 4.881c-.022.043-.034.065.009.126.044.059.069.057.117.047l5.436-.932c.344-.06.691-.089 1.035-.089z" fill="#1c2d6b"/><path d="m48.362 139.932-5.435-.336c-1.012-.063-2.045.058-2.761.324l-3.849 1.425c-1.805.668-4.949.299-5.321-.624l-.793-1.969c-.148-.367-.786-.683-1.707-.847l-4.945-.88c-1.159-.206-1.739-.608-1.739-1.009 0 1.113.58 2.225 1.739 2.798l4.945 2.44c.921.454 1.559 1.333 1.707 2.349l.793 5.457c.372 2.559 3.517 3.581 5.321 1.729l3.849-3.949c.717-.735 1.749-1.071 2.761-.897l5.435.932c2.548.437 4.492-2.238 3.289-4.527l-1.328-2.525c-.568.106-1.239.154-1.961.109z" fill="#89aadb"/><path d="m36.316 121.241c-1.805-1.852-4.949-.83-5.321 1.729l-.793 5.457c-.148 1.016-.786 1.895-1.707 2.349l-4.945 2.44c-1.159.572-1.739 1.685-1.739 2.798 0-.401.58-.803 1.739-1.009l4.945-.88c.921-.164 1.559-.481 1.707-.847l.793-1.969c.372-.923 3.517-1.292 5.321-.624l3.849 1.425c.717.265 1.749.386 2.761.324l5.435-.336c.723-.045 1.394.003 1.961.11l1.328-2.525c1.203-2.289-.74-4.964-3.289-4.527l-5.435.932c-1.012.174-2.045-.162-2.761-.897z" fill="#4b67b0"/><path d="m48.362 132.097-5.435.336c-1.012.063-2.045-.058-2.761-.324l-3.849-1.425c-1.805-.668-4.949-.299-5.321.624l-.793 1.969c-.148.367-.786.683-1.707.847l-4.945.88c-1.159.206-1.739.608-1.739 1.009s.58.803 1.739 1.009l4.945.88c.921.164 1.559.481 1.707.847l.793 1.969c.372.923 3.517 1.292 5.321.624l3.849-1.425c.717-.265 1.749-.386 2.761-.324l5.435.336c.723.045 1.394-.003 1.961-.11l-1.238-2.355c-.239-.454-.358-.953-.358-1.452s.119-.997.358-1.452l1.238-2.355c-.568-.105-1.239-.153-1.961-.108z" fill="#6287c5"/><path d="m34.099 154.733c-.635 0-1.277-.1-1.907-.304-2.231-.725-3.827-2.617-4.165-4.939l-.793-5.457c-.006-.04-.031-.073-.067-.092l-4.943-2.439c-2.104-1.037-3.411-3.14-3.411-5.486-.001-2.347 1.307-4.45 3.412-5.489l4.943-2.44c.036-.018.061-.052.066-.089l.793-5.458c.338-2.322 1.934-4.216 4.165-4.94 2.233-.724 4.636-.132 6.273 1.549l3.849 3.949c.027.027.068.047.105.033l5.436-.932c2.312-.398 4.604.535 5.985 2.434 1.379 1.898 1.558 4.368.466 6.445l-2.566 4.882c-.018.034-.019.076 0 .11l2.566 4.881c1.092 2.078.913 4.548-.466 6.446-1.379 1.897-3.67 2.831-5.986 2.434l-5.434-.932c-.039-.006-.079.006-.106.034l-3.849 3.948c-1.176 1.207-2.747 1.852-4.366 1.852zm-.001-31.438c-.014 0-.03.003-.052.01-.071.023-.075.048-.082.098l-.793 5.457c-.289 1.993-1.541 3.717-3.349 4.607l-4.943 2.44s0 0-.001 0c-.044.021-.066.033-.066.107 0 .073.021.084.066.106l4.945 2.44c1.808.894 3.059 2.616 3.348 4.609l.793 5.456c.007.049.011.073.081.097.073.022.09.004.123-.03l3.849-3.948c1.407-1.444 3.431-2.098 5.418-1.761l5.434.932c.05.009.073.012.118-.047.043-.061.031-.083.009-.127l-2.566-4.88c-.938-1.782-.938-3.911-.001-5.694l2.567-4.883c.022-.043.034-.065-.009-.126-.044-.06-.069-.057-.117-.047l-5.436.932c-1.99.342-4.011-.316-5.417-1.76l-3.849-3.949c-.023-.023-.039-.039-.07-.039zm-10.547 9.922h.01z" fill="#1c2d6b"/><path d="m68.917 82.472-3.605-4.081c-.671-.76-1.487-1.404-2.181-1.724l-3.729-1.714c-1.749-.804-3.711-3.288-3.322-4.204l.831-1.953c.155-.364-.072-1.039-.608-1.806l-2.874-4.119c-.674-.966-.8-1.659-.516-1.943-.787.787-1.164 1.984-.749 3.208l1.771 5.222c.33.972.16 2.045-.454 2.868l-3.298 4.419c-1.546 2.072-.045 5.018 2.54 4.985l5.514-.07c1.027-.013 1.994.48 2.587 1.318l3.184 4.502c1.493 2.111 4.759 1.594 5.526-.875l.847-2.724c-.476-.326-.984-.767-1.464-1.309z" fill="#89aadb"/><path d="m73.616 60.738c.033-2.585-2.913-4.087-4.985-2.54l-4.419 3.298c-.823.614-1.895.784-2.868.454l-5.222-1.771c-1.224-.415-2.421-.038-3.208.749.284-.284.978-.158 1.943.516l4.119 2.874c.767.535 1.442.762 1.806.608l1.953-.831c.916-.39 3.4 1.573 4.204 3.322l1.714 3.729c.319.694.964 1.51 1.724 2.181l4.081 3.605c.543.48.983.988 1.309 1.465l2.724-.847c2.469-.768 2.986-4.033.875-5.526l-4.502-3.184c-.838-.593-1.331-1.56-1.318-2.587z" fill="#4b67b0"/><path d="m74.457 76.931-4.081-3.605c-.76-.671-1.404-1.487-1.724-2.181l-1.714-3.729c-.804-1.749-3.288-3.711-4.204-3.322l-1.953.831c-.364.155-1.039-.072-1.806-.608l-4.119-2.874c-.966-.674-1.659-.8-1.943-.516s-.158.978.516 1.943l2.874 4.119c.535.767.762 1.442.608 1.806l-.831 1.953c-.39.916 1.573 3.4 3.322 4.204l3.729 1.714c.694.319 1.51.964 2.181 1.724l3.605 4.081c.48.543.988.983 1.465 1.309l.79-2.541c.152-.49.421-.927.773-1.28.353-.353.79-.621 1.28-.773l2.541-.79c-.326-.477-.766-.985-1.309-1.465z" fill="#6287c5"/><path d="m66.538 91.7c-1.967 0-3.814-.942-4.979-2.588l-3.185-4.502c-.024-.034-.074-.06-.101-.051l-5.513.07c-.026 0-.054 0-.081 0-2.313 0-4.396-1.274-5.449-3.342-1.065-2.091-.855-4.558.548-6.438l3.298-4.418c.023-.032.03-.073.018-.11l-1.771-5.223c-.754-2.221-.191-4.633 1.467-6.292 1.66-1.659 4.073-2.225 6.293-1.469h.001l5.223 1.771c.037.011.078.005.107-.017l4.422-3.299c1.879-1.403 4.346-1.615 6.437-.549 2.091 1.064 3.372 3.184 3.343 5.53l-.071 5.516c-.001.037.019.076.051.099l4.502 3.184c1.916 1.354 2.878 3.637 2.511 5.954s-1.987 4.189-4.228 4.887l-5.266 1.637c-.037.011-.066.041-.078.079l-1.637 5.267c-.697 2.24-2.569 3.86-4.887 4.228-.326.051-.652.076-.975.076zm-8.263-13.14c1.987 0 3.852.963 4.999 2.587l3.184 4.501c.029.041.036.062.117.05.073-.012.08-.036.096-.083l1.636-5.266c.599-1.924 2.104-3.43 4.027-4.028l5.266-1.637c.048-.015.071-.021.083-.095s-.009-.088-.05-.117l-4.502-3.184c-1.645-1.163-2.61-3.06-2.586-5.073l.071-5.516c.001-.049.001-.074-.065-.107-.066-.034-.087-.019-.125.011l-4.421 3.297c-1.614 1.206-3.719 1.536-5.626.891l-5.221-1.771c-.047-.014-.07-.023-.124.029-.052.053-.044.076-.028.123l1.771 5.223c.647 1.906.314 4.01-.891 5.625l-3.298 4.419c-.029.04-.045.06-.011.126.033.066.053.065.108.065l5.514-.07z" fill="#1c2d6b"/><path d="m181.543 76.931 4.081-3.605c.76-.671 1.404-1.487 1.724-2.181l1.714-3.729c.804-1.749 3.288-3.711 4.204-3.322l1.953.831c.364.155 1.039-.072 1.806-.608l4.119-2.874c.966-.674 1.659-.8 1.943-.516-.787-.787-1.984-1.164-3.208-.749l-5.222 1.771c-.972.33-2.045.16-2.868-.454l-4.419-3.298c-2.072-1.546-5.018-.045-4.985 2.54l.07 5.514c.013 1.027-.48 1.994-1.318 2.587l-4.502 3.184c-2.111 1.493-1.594 4.759.875 5.526l2.724.847c.326-.476.766-.984 1.309-1.464z" fill="#89aadb"/><path d="m203.276 81.63c2.585.033 4.087-2.913 2.54-4.985l-3.298-4.419c-.614-.823-.784-1.895-.454-2.868l1.771-5.222c.415-1.224.038-2.421-.749-3.208.284.284.158.978-.516 1.943l-2.874 4.119c-.535.767-.762 1.442-.608 1.806l.831 1.953c.39.916-1.573 3.4-3.322 4.204l-3.729 1.714c-.694.319-1.51.964-2.181 1.724l-3.605 4.081c-.48.543-.988.983-1.465 1.309l.847 2.724c.768 2.469 4.033 2.986 5.526.875l3.184-4.502c.593-.838 1.56-1.331 2.587-1.318z" fill="#4b67b0"/><path d="m187.083 82.472 3.605-4.081c.671-.76 1.487-1.404 2.181-1.724l3.729-1.714c1.749-.804 3.711-3.288 3.322-4.204l-.831-1.953c-.155-.364.072-1.039.608-1.806l2.874-4.119c.674-.966.8-1.659.516-1.943s-.978-.158-1.943.516l-4.119 2.874c-.767.535-1.442.762-1.806.608l-1.953-.831c-.916-.39-3.4 1.573-4.204 3.322l-1.714 3.729c-.319.694-.964 1.51-1.724 2.181l-4.081 3.605c-.543.48-.983.988-1.309 1.465l2.541.79c.49.152.927.421 1.28.773s.621.79.773 1.28l.79 2.541c.477-.326.985-.767 1.465-1.309z" fill="#6287c5"/><path d="m189.462 91.7c-.323 0-.648-.025-.976-.077-2.317-.367-4.189-1.987-4.886-4.228l-1.638-5.266c-.012-.038-.041-.068-.078-.079l-5.266-1.637c-2.24-.697-3.86-2.569-4.228-4.887s.595-4.6 2.511-5.954l4.502-3.184c.032-.022.052-.062.051-.101l-.071-5.512c-.029-2.349 1.252-4.468 3.343-5.532 2.091-1.066 4.557-.854 6.438.549l4.419 3.298c.031.022.071.03.108.018l5.224-1.771c2.224-.757 4.634-.19 6.294 1.469 1.658 1.659 2.221 4.07 1.467 6.292l-1.771 5.222c-.013.038-.006.079.018.111l3.298 4.419c1.403 1.88 1.613 4.347.548 6.438-1.053 2.067-3.136 3.342-5.449 3.342-.027 0-.055 0-.081 0l-5.514-.07c-.058.001-.076.017-.099.05l-3.186 4.503c-1.164 1.645-3.011 2.587-4.978 2.587zm-3.951-31.128c-.016 0-.035.006-.062.02-.066.033-.066.059-.065.109l.071 5.512c.024 2.016-.941 3.912-2.586 5.075l-4.502 3.184c-.041.029-.062.043-.05.117.012.073.035.08.083.095l5.266 1.637c1.924.599 3.429 2.104 4.027 4.028l1.637 5.266c.015.047.021.071.095.083.081.012.089-.009.117-.05l3.185-4.502c1.161-1.644 3.031-2.631 5.073-2.586l5.515.07c.044-.003.074.002.108-.065.034-.066.019-.086-.011-.125l-3.298-4.42c-1.205-1.615-1.538-3.719-.891-5.626l1.771-5.221c0-.001 0-.001 0-.001.016-.047.023-.07-.028-.123-.054-.053-.078-.043-.124-.029l-5.222 1.771c-1.906.647-4.011.315-5.627-.892l-4.418-3.297c-.024-.017-.041-.03-.064-.03z" fill="#1c2d6b"/></svg>