<svg id="Layer_1" enable-background="new 0 0 256 256" height="512" viewBox="0 0 256 256" width="512" xmlns="http://www.w3.org/2000/svg"><path d="m16.707 68.815v100c0 5.523 4.477 10 10 10h50v-120h-50c-5.523 0-10 4.477-10 10z" fill="#ef7f72"/><path d="m136.707 58.815v120h50c5.523 0 10-4.477 10-10v-100c0-5.523-4.477-10-10-10z" fill="#e8383b"/><path d="m76.707 58.815h60v120h-60z" fill="#e95947"/><path d="m26.708 58.815c-5.523 0-10 4.477-10 10l-.001 34.001c0 5.523 4.477 10 10 10h50v-54.001z" fill="#ef7f72"/><path d="m186.708 58.815h-50.292v54.001h50.292c5.523 0 10-4.477 10-10l.001-34.001c-.001-5.523-4.478-10-10.001-10z" fill="#e8383b"/><rect fill="#e95947" height="0" width="59.708" x="76.707" y="58.815"/><path d="m76.707 58.815h59.708v54.001h-59.708z" fill="#e95947"/><path d="m186.708 181.814h-160c-7.168 0-13-5.832-13-13v-100c0-7.168 5.832-13 13-13h160c7.168 0 13 5.832 13 13v100c0 7.168-5.832 13-13 13zm-160-120c-3.86 0-7 3.141-7 7v100c0 3.859 3.14 7 7 7h160c3.86 0 7-3.141 7-7v-100c0-3.859-3.14-7-7-7z" fill="#1c2d6b"/><path d="m186.707 115.816h-160c-3.473 0-6.737-1.353-9.192-3.808-2.456-2.456-3.808-5.721-3.808-9.192v-34.002c0-7.168 5.833-13 13-13h160c3.473 0 6.737 1.353 9.193 3.808 2.455 2.456 3.808 5.721 3.807 9.193v34.001c0 7.168-5.832 13-13 13zm-166.999-47.002v34.002c0 1.87.728 3.628 2.05 4.949 1.322 1.322 3.081 2.051 4.95 2.051h160c3.859 0 7-3.141 7-7v-34.001c0-1.87-.728-3.628-2.05-4.95s-3.08-2.051-4.95-2.051h-160c-3.86 0-7 3.141-7 7z" fill="#1c2d6b"/><path d="m97.279 22.815h-12.572c-11.046 0-20 8.955-20 20v16h18v-13c0-2.761 2.239-5 5-5h1.043c.431-10.106 4.084-18 8.529-18z" fill="#89aadb"/><path d="m128.707 22.815h-12.571c4.445 0 8.098 7.894 8.528 18h1.043c2.761 0 5 2.239 5 5v13h18v-16c0-11.046-8.954-20-20-20z" fill="#4b67b0"/><path d="m116.136 22.815h-18.857c-4.445 0-8.098 7.894-8.528 18h9.814 16.286 9.814c-.431-10.106-4.085-18-8.529-18z" fill="#6287c5"/><path d="m148.708 61.814h-18c-1.657 0-3-1.343-3-3v-13c0-1.103-.897-2-2-2h-38c-1.103 0-2 .897-2 2v13c0 1.657-1.343 3-3 3h-18c-1.657 0-3-1.343-3-3v-16c0-12.683 10.318-23 23-23h44c12.682 0 23 10.317 23 23v16c0 1.658-1.344 3-3 3zm-15-6h12v-13c0-9.374-7.626-17-17-17h-44c-9.374 0-17 7.626-17 17v13h12v-10c0-4.411 3.589-8 8-8h38c4.411 0 8 3.589 8 8z" fill="#1c2d6b"/><path d="m130.708 61.814h-48c-1.657 0-3-1.343-3-3v-13c0-4.411 3.589-8 8-8h38c4.411 0 8 3.589 8 8v13c0 1.658-1.344 3-3 3zm-45-6h42v-10c0-1.103-.897-2-2-2h-38c-1.103 0-2 .897-2 2z" fill="#1c2d6b"/><path d="m57.725 58.815h6.982v120h-6.982z" fill="#419b46"/><path d="m46.707 58.815h6.982v120h-6.982z" fill="#a4d4a0"/><path d="m53.689 58.815h4.036v120h-4.036z" fill="#65bc49"/><path d="m64.708 181.814h-18c-1.657 0-3-1.343-3-3v-120c0-1.657 1.343-3 3-3h18c1.657 0 3 1.343 3 3v120c0 1.658-1.344 3-3 3zm-15-6h12v-114h-12z" fill="#1c2d6b"/><path d="m159.951 58.815h6.982v120h-6.982z" fill="#419b46"/><path d="m148.933 58.815h6.982v120h-6.982z" fill="#a4d4a0"/><path d="m155.915 58.815h4.036v120h-4.036z" fill="#65bc49"/><path d="m166.933 181.814h-18c-1.657 0-3-1.343-3-3v-120c0-1.657 1.343-3 3-3h18c1.657 0 3 1.343 3 3v120c0 1.658-1.343 3-3 3zm-15-6h12v-114h-12z" fill="#1c2d6b"/><path d="m40.707 100.816h10.489v30h-10.489z" fill="#ede49d"/><path d="m60.219 100.816h10.489v30h-10.489z" fill="#d3ba2a"/><path d="m51.196 100.816h9.023v30h-9.023z" fill="#eee045"/><path d="m142.933 100.816h10.489v30h-10.489z" fill="#ede49d"/><path d="m162.444 100.816h10.489v30h-10.489z" fill="#d3ba2a"/><path d="m153.422 100.816h9.023v30h-9.023z" fill="#eee045"/><path d="m70.708 133.816h-30c-1.657 0-3-1.343-3-3v-30c0-1.657 1.343-3 3-3h30c1.657 0 3 1.343 3 3v30c0 1.658-1.344 3-3 3zm-27-6h24v-24h-24z" fill="#1c2d6b"/><path d="m172.933 133.816h-30c-1.657 0-3-1.343-3-3v-30c0-1.657 1.343-3 3-3h30c1.657 0 3 1.343 3 3v30c0 1.658-1.343 3-3 3zm-27-6h24v-24h-24z" fill="#1c2d6b"/><path d="m133.436 224.861v-91.721c4.597 0 8.324-3.727 8.324-8.324h-44.538c0 7.693-6.236 13.929-13.929 13.929v80.512c7.693 0 13.929 6.236 13.929 13.929h44.538c0-4.598-3.727-8.325-8.324-8.325z" fill="#89aadb"/><path d="m225.365 124.816h-44.538c0 4.597 3.727 8.324 8.324 8.324v91.721c-4.597 0-8.324 3.727-8.324 8.324h44.538c0-7.693 6.236-13.929 13.929-13.929v-80.512c-7.693.001-13.929-6.235-13.929-13.928z" fill="#4b67b0"/><path d="m189.15 224.861v-91.721c-4.597 0-8.324-3.727-8.324-8.324h-39.066c0 4.597-3.727 8.324-8.324 8.324v91.721c4.597 0 8.324 3.727 8.324 8.324h39.066c0-4.597 3.727-8.324 8.324-8.324z" fill="#6287c5"/><path d="m225.365 236.186h-128.143c-1.657 0-3-1.343-3-3 0-6.026-4.903-10.929-10.929-10.929-1.657 0-3-1.343-3-3v-80.512c0-1.657 1.343-3 3-3 6.026 0 10.929-4.902 10.929-10.929 0-1.657 1.343-3 3-3h128.143c1.657 0 3 1.343 3 3 0 6.026 4.902 10.929 10.928 10.929 1.657 0 3 1.343 3 3v80.512c0 1.657-1.343 3-3 3-6.026 0-10.928 4.902-10.928 10.929 0 1.657-1.344 3-3 3zm-125.409-6h122.675c1.245-6.936 6.727-12.418 13.662-13.662v-75.045c-6.935-1.244-12.417-6.727-13.662-13.662h-122.675c-1.245 6.936-6.728 12.418-13.663 13.662v75.045c6.935 1.244 12.417 6.726 13.663 13.662z" fill="#1c2d6b"/><path d="m211.436 133.816c-1.657 0-3-1.343-3-3v-6c0-1.657 1.343-3 3-3s3 1.343 3 3v6c0 1.658-1.343 3-3 3z" fill="#1c2d6b"/><path d="m211.436 219.478c-1.657 0-3-1.343-3-3v-10.708c0-1.657 1.343-3 3-3s3 1.343 3 3v10.708c0 1.657-1.343 3-3 3zm0-21.416c-1.657 0-3-1.343-3-3v-10.707c0-1.657 1.343-3 3-3s3 1.343 3 3v10.707c0 1.657-1.343 3-3 3zm0-21.416c-1.657 0-3-1.343-3-3v-10.708c0-1.657 1.343-3 3-3s3 1.343 3 3v10.708c0 1.658-1.343 3-3 3zm0-21.415c-1.657 0-3-1.343-3-3v-10.708c0-1.657 1.343-3 3-3s3 1.343 3 3v10.708c0 1.658-1.343 3-3 3z" fill="#1c2d6b"/><path d="m211.436 236.186c-1.657 0-3-1.343-3-3v-6c0-1.657 1.343-3 3-3s3 1.343 3 3v6c0 1.657-1.343 3-3 3z" fill="#1c2d6b"/><path d="m148.511 166.099h-8.13v-28.83h4.22z" fill="#ede49d"/><path d="m163.161 166.099h-9.19l-7.05-28.83h3.13z" fill="#d3ba2a"/><path d="m153.971 166.099h-5.46l-3.91-28.83h2.32z" fill="#eee045"/><path d="m138.146 183.011-1.73-16.908h-8.933l-17.912-22.57h-11.465l10.144 39.478c1.831 7.127 8.256 12.109 15.614 12.109h34.07-13.569c-2.931 0-5.49-4.983-6.219-12.109z" fill="#ede49d"/><path d="m201.639 166.102h-26.299c3.546 0 6.421 7.218 6.421 16.121v7.523c0 2.967-.958 5.372-2.139 5.373h32.765c2.968 0 5.374-2.406 5.374-5.374v-7.523c0-8.902-7.218-16.12-16.122-16.12z" fill="#d3ba2a"/><path d="m179.62 195.12h.001-21.688z" fill="#eee045"/><path d="m181.761 189.747v-7.523c0-8.903-2.875-16.121-6.421-16.121h-29.535-9.39l1.73 16.908c.729 7.127 3.288 12.109 6.219 12.109h13.569 21.688c1.182-.001 2.14-2.406 2.14-5.373z" fill="#eee045"/><g fill="#1c2d6b"><path d="m212.387 198.12h-88.523c-8.731 0-16.347-5.906-18.52-14.363l-10.144-39.477c-.23-.898-.033-1.853.535-2.586.568-.732 1.443-1.161 2.371-1.161h11.464c.916 0 1.781.418 2.35 1.135l17.011 21.435h72.708c10.543 0 19.121 8.578 19.121 19.121v7.523c.001 4.617-3.756 8.373-8.373 8.373zm-110.413-51.587 9.182 35.73c1.491 5.804 6.716 9.856 12.708 9.856h88.523c1.309 0 2.374-1.064 2.374-2.373v-7.523c0-7.235-5.886-13.121-13.121-13.121h-74.158c-.916 0-1.781-.418-2.35-1.135l-17.011-21.435h-6.147z"/><path d="m163.242 169.103h-22.863c-1.657 0-3-1.343-3-3v-29.019c0-1.657 1.343-3 3-3h9.672c1.176 0 2.244.688 2.731 1.759l13.191 29.019c.422.929.344 2.008-.208 2.865s-1.503 1.376-2.523 1.376zm-19.863-6h15.204l-10.463-23.019h-4.74v23.019z"/><circle cx="133.931" cy="176.581" r="4.03"/><circle cx="153.276" cy="176.581" r="4.03"/><circle cx="172.621" cy="176.581" r="4.03"/></g><path d="m198.706 176.85v-10.748h-9.963v10.748c0 2.968 2.406 5.374 5.374 5.374h6.273c-.93-.001-1.684-2.406-1.684-5.374z" fill="#ef7f72"/><path d="m203.252 166.184c2.552.809 4.546 7.68 4.546 16.04h9.963c0-8.36-6.363-15.231-14.509-16.04z" fill="#e8383b"/><path d="m202.746 166.102h-1.107c.544 0 1.082.029 1.612.082-.166-.053-.334-.082-.505-.082z" fill="#6287c5"/><path d="m203.252 166.184c-.53-.053-1.068-.082-1.612-.082h-2.934v10.748c0 2.968.754 5.374 1.684 5.374h7.408c-.001-8.36-1.994-15.231-4.546-16.04z" fill="#e95947"/><path d="m217.761 185.224h-23.645c-4.617 0-8.374-3.757-8.374-8.374v-10.747c0-1.657 1.343-3 3-3h12.897c10.543 0 19.121 8.578 19.121 19.121.001 1.657-1.343 3-2.999 3zm-26.018-16.121v7.747c0 1.309 1.065 2.374 2.374 2.374h20.298c-1.36-5.794-6.572-10.121-12.775-10.121z" fill="#1c2d6b"/><path d="m140.379 185.448v35.466h4.224l4.81-35.466z" fill="#ede49d"/><path d="m155.587 185.448-8.669 35.466h3.133l16.122-35.466z" fill="#d3ba2a"/><path d="m149.413 185.448-4.81 35.466h2.315l8.669-35.466z" fill="#eee045"/><path d="m150.051 223.914h-9.672c-1.657 0-3-1.343-3-3v-35.466c0-1.657 1.343-3 3-3h25.794c1.02 0 1.97.519 2.522 1.376s.631 1.937.208 2.865l-16.122 35.466c-.486 1.072-1.554 1.759-2.73 1.759zm-6.672-6h4.74l13.395-29.466h-18.135z" fill="#1c2d6b"/></svg>