<svg id="Layer_1" enable-background="new 0 0 256 256" height="512" viewBox="0 0 256 256" width="512" xmlns="http://www.w3.org/2000/svg"><path d="m43.859 58.859v-29.718c0-3.392 2.75-6.141 6.141-6.141h-6.275c-6.476 0-11.725 5.249-11.725 11.725v18.551c0 6.475 5.249 11.724 11.725 11.724h6.275c-3.391 0-6.141-2.749-6.141-6.141z" fill="#89aadb"/><path d="m56.275 23h-6.275c3.391 0 6.141 2.749 6.141 6.141v29.718c0 3.392-2.75 6.141-6.141 6.141h6.275c6.476 0 11.725-5.249 11.725-11.725v-18.55c0-6.476-5.249-11.725-11.725-11.725z" fill="#4b67b0"/><path d="m56.141 58.859v-29.718c0-3.392-2.75-6.141-6.141-6.141s-6.141 2.749-6.141 6.141v29.718c0 3.392 2.75 6.141 6.141 6.141s6.141-2.749 6.141-6.141z" fill="#6287c5"/><path d="m56.275 68h-12.55c-8.12 0-14.725-6.605-14.725-14.725v-18.55c0-8.12 6.605-14.725 14.725-14.725h12.551c8.119 0 14.724 6.605 14.724 14.725v18.551c0 8.119-6.605 14.724-14.725 14.724zm-12.55-42c-4.811 0-8.725 3.914-8.725 8.725v18.551c0 4.81 3.914 8.724 8.725 8.724h12.551c4.81 0 8.724-3.914 8.724-8.725v-18.55c0-4.811-3.914-8.725-8.725-8.725z" fill="#1c2d6b"/><path d="m38 65h8.807v36h-8.807z" fill="#ef7f72"/><path d="m53.193 65h8.807v36h-8.807z" fill="#e8383b"/><path d="m46.807 65h6.387v36h-6.387z" fill="#e95947"/><path d="m62 104h-24c-1.657 0-3-1.343-3-3v-36c0-1.657 1.343-3 3-3h24c1.657 0 3 1.343 3 3v36c0 1.657-1.343 3-3 3zm-21-6h18v-30h-18z" fill="#1c2d6b"/><path d="m26 77h16.221v12h-16.221z" fill="#a4d4a0"/><path d="m57.779 77h16.221v12h-16.221z" fill="#419b46"/><path d="m42.221 77h15.558v12h-15.558z" fill="#65bc49"/><path d="m74 71h12v24h-12z" fill="#a4d4a0"/><path d="m98 71h12v24h-12z" fill="#419b46"/><path d="m86 71h12v24h-12z" fill="#65bc49"/><g fill="#1c2d6b"><path d="m74 92h-48c-1.657 0-3-1.343-3-3v-12c0-1.657 1.343-3 3-3h48c1.657 0 3 1.343 3 3v12c0 1.657-1.343 3-3 3zm-45-6h42v-6h-42z"/><path d="m110 98h-36c-1.657 0-3-1.343-3-3v-24c0-1.657 1.343-3 3-3h36c1.657 0 3 1.343 3 3v24c0 1.657-1.343 3-3 3zm-33-6h30v-18h-30z"/><path d="m98 88.698c-1.657 0-3-1.343-3-3v-6c0-1.657 1.343-3 3-3s3 1.343 3 3v6c0 1.657-1.343 3-3 3z"/><path d="m86 88.698c-1.657 0-3-1.343-3-3v-6c0-1.657 1.343-3 3-3s3 1.343 3 3v6c0 1.657-1.343 3-3 3z"/><path d="m125.001 164c-9.928 0-18.002-8.075-18.002-18v-18c0-6.617-5.383-12-12-12-6.616 0-11.999 5.383-11.999 12v18c0 9.925-8.074 18-17.999 18-9.926 0-18.001-8.075-18.001-18v-42.751c0-1.657 1.343-3 3-3s3 1.343 3 3v42.751c0 6.617 5.383 12 11.999 12 6.617 0 12.001-5.383 12.001-12v-18c0-9.925 8.074-18 17.999-18s18 8.075 18 18v18c0 6.617 5.383 12 11.999 12 6.619 0 12.002-5.383 12.002-12v-90c0-9.925 8.074-18 17.999-18s18 8.074 18 17.999l.001 57.001c0 1.657-1.343 3-3 3s-3-1.343-3-3l-.001-57.001c0-6.616-5.383-11.999-12-11.999-6.616 0-11.999 5.383-11.999 12v90c0 9.925-8.074 18-17.999 18z"/></g><path d="m171.193 113h4.81v24h-4.81z" fill="#d3ba2a"/><path d="m164.001 113h4.809v24h-4.809z" fill="#ede49d"/><path d="m168.811 113h2.382v24h-2.382z" fill="#eee045"/><path d="m176.003 140h-12.002c-1.657 0-3-1.343-3-3v-24c0-1.657 1.343-3 3-3h12.002c1.657 0 3 1.343 3 3v24c0 1.657-1.343 3-3 3zm-9.002-6h6.002v-18h-6.002z" fill="#1c2d6b"/><path d="m176 226.798v-83.597c0-3.425 2.777-6.202 6.202-6.202h-20.202c-5.523 0-10 4.477-10 10v76c0 5.523 4.477 10 10 10h20.202c-3.425.001-6.202-2.776-6.202-6.201z" fill="#89aadb"/><path d="m220 137h-20.202c3.425 0 6.202 2.777 6.202 6.202v83.597c0 3.425-2.777 6.202-6.202 6.202h20.202c5.523 0 10-4.477 10-10v-76c0-5.524-4.477-10.001-10-10.001z" fill="#4b67b0"/><path d="m206 226.798v-83.597c0-3.425-2.777-6.202-6.202-6.202h-17.597c-3.425 0-6.202 2.777-6.202 6.202v83.597c0 3.425 2.777 6.202 6.202 6.202h17.597c3.425 0 6.202-2.777 6.202-6.202z" fill="#6287c5"/><path d="m220 236h-58c-7.168 0-13-5.832-13-13v-76c0-7.168 5.832-13 13-13h58c7.168 0 13 5.832 13 13v76c0 7.168-5.832 13-13 13zm-58-96c-3.859 0-7 3.14-7 7v76c0 3.86 3.141 7 7 7h58c3.859 0 7-3.14 7-7v-76c0-3.86-3.141-7-7-7z" fill="#1c2d6b"/><path d="m206 65-6.001 72h6.448l4.579-72z" fill="#a4d4a0"/><path d="m212.973 65-1.421 72h6.448v-72z" fill="#419b46"/><path d="m211.026 65-4.579 72h5.105l1.421-72z" fill="#65bc49"/><path d="m218 140h-18.001c-.839 0-1.64-.351-2.208-.969-.567-.617-.852-1.444-.781-2.28l6.001-72c.129-1.555 1.428-2.751 2.989-2.751h12c1.657 0 3 1.343 3 3v72c0 1.657-1.343 3-3 3zm-14.74-6h11.74v-66h-6.239z" fill="#1c2d6b"/><path d="m218 152h-54c-1.657 0-3-1.343-3-3s1.343-3 3-3h54c1.657 0 3 1.343 3 3s-1.343 3-3 3z" fill="#1c2d6b"/><path d="m218 164h-54c-1.657 0-3-1.343-3-3s1.343-3 3-3h54c1.657 0 3 1.343 3 3s-1.343 3-3 3z" fill="#1c2d6b"/><path d="m218 176h-54c-1.657 0-3-1.343-3-3s1.343-3 3-3h54c1.657 0 3 1.343 3 3s-1.343 3-3 3z" fill="#1c2d6b"/><path d="m218 188h-54c-1.657 0-3-1.343-3-3s1.343-3 3-3h54c1.657 0 3 1.343 3 3s-1.343 3-3 3z" fill="#1c2d6b"/><path d="m170 197h15.007v12h-15.007z" fill="#ede49d"/><path d="m196.993 197h15.007v12h-15.007z" fill="#d3ba2a"/><path d="m185.007 197h11.985v12h-11.985z" fill="#eee045"/><path d="m212 212h-42c-1.657 0-3-1.343-3-3v-12c0-1.657 1.343-3 3-3h42c1.657 0 3 1.343 3 3v12c0 1.657-1.343 3-3 3zm-39-6h36v-6h-36z" fill="#1c2d6b"/></svg>