<svg id="Layer_1" enable-background="new 0 0 256 256" height="512" viewBox="0 0 256 256" width="512" xmlns="http://www.w3.org/2000/svg"><path d="m170 37.001h28v69.999h-28z" fill="#d3ba2a"/><path d="m107.001 37.001h28v69.999h-28z" fill="#ede49d"/><path d="m135.001 37.001h35v69.999h-35z" fill="#eee045"/><path d="m198 110h-90.999c-1.657 0-3-1.343-3-3v-69.999c0-1.657 1.343-3 3-3h90.999c1.657 0 3 1.343 3 3v69.999c0 1.657-1.343 3-3 3zm-87.999-6h84.999v-63.999h-84.999z" fill="#1c2d6b"/><path d="m142.001 37.083h8.185v27.918h-8.185z" fill="#ef7f72"/><path d="m154.815 37.083h8.185v27.918h-8.185z" fill="#e8383b"/><path d="m150.186 37.083h4.63v27.918h-4.63z" fill="#e95947"/><path d="m163 68.001h-21c-1.657 0-3-1.343-3-3v-27.918c0-1.657 1.343-3 3-3h21c1.657 0 3 1.343 3 3v27.918c0 1.657-1.343 3-3 3zm-18-6h15v-21.918h-15z" fill="#1c2d6b"/><path d="m170 107h28v69.999h-28z" fill="#d3ba2a"/><path d="m107.001 107h28v69.999h-28z" fill="#ede49d"/><path d="m135.001 107h35v69.999h-35z" fill="#eee045"/><path d="m198 180h-90.999c-1.657 0-3-1.343-3-3v-70c0-1.657 1.343-3 3-3h90.999c1.657 0 3 1.343 3 3v70c0 1.657-1.343 3-3 3zm-87.999-6h84.999v-64h-84.999z" fill="#1c2d6b"/><path d="m142.001 107.082h8.185v27.918h-8.185z" fill="#ef7f72"/><path d="m154.815 107.082h8.185v27.918h-8.185z" fill="#e8383b"/><path d="m150.186 107.082h4.63v27.918h-4.63z" fill="#e95947"/><path d="m163 138h-21c-1.657 0-3-1.343-3-3v-27.918c0-1.657 1.343-3 3-3h21c1.657 0 3 1.343 3 3v27.918c0 1.657-1.343 3-3 3zm-18-6h15v-21.918h-15z" fill="#1c2d6b"/><path d="m93.001 190.999v-143.498c0-13.531-10.969-24.5-24.5-24.5-13.531 0-24.5 10.969-24.5 24.499l-.001 24.501h5.833l.001-24.5c0-10.293 8.374-18.666 18.666-18.666 10.293 0 18.667 8.374 18.667 18.666v149.332h124.833v-5.833h-118.999z" fill="#89aadb"/><path d="m84.835 47.502c0-9.006-7.327-16.334-16.334-16.334s-16.334 7.328-16.334 16.334v24.499h5.833v-24.499c0-5.799 4.701-10.501 10.501-10.501 5.799 0 10.501 4.701 10.501 10.501v157.498h132.998v-5.833h-127.165z" fill="#4b67b0"/><path d="m87.168 47.501c0-10.293-8.374-18.666-18.667-18.666s-18.666 8.374-18.666 18.666l-.001 24.5h2.333v-24.499c0-9.006 7.327-16.334 16.334-16.334 9.006 0 16.334 7.328 16.334 16.334v151.664h127.165v-2.333h-124.832z" fill="#6287c5"/><path d="m212 207.999h-132.999c-1.657 0-3-1.343-3-3v-157.497c0-4.136-3.365-7.501-7.501-7.501s-7.5 3.365-7.5 7.501v24.499c0 1.657-1.343 3-3 3h-14c-.796 0-1.559-.316-2.122-.879-.562-.562-.878-1.325-.878-2.121l.001-24.501c0-15.163 12.337-27.499 27.5-27.499 15.164 0 27.5 12.337 27.5 27.5v140.498h115.999c1.657 0 3 1.343 3 3v14c0 1.657-1.343 3-3 3zm-129.999-6h126.999v-8h-115.999c-1.657 0-3-1.343-3-3v-143.498c0-11.855-9.645-21.5-21.5-21.5-11.854 0-21.5 9.645-21.5 21.499l-.001 21.501h8v-21.499c0-7.444 6.056-13.501 13.5-13.501s13.501 6.057 13.501 13.501z" fill="#1c2d6b"/><path d="m69.871 204.999c0-15.464 4.088-28 9.131-28-15.464 0-28 12.536-28 28s12.536 28 28 28c-5.043 0-9.131-12.536-9.131-28z" fill="#ef7f72"/><path d="m79.001 177c5.043 0 9.131 12.536 9.131 28s-4.088 28-9.131 28c15.464 0 28-12.536 28-28s-12.536-28-28-28z" fill="#e8383b"/><ellipse cx="79.001" cy="204.999" fill="#e95947" rx="9.131" ry="28"/><path d="m79.001 235.999c-17.093 0-31-13.906-31-31 0-17.093 13.907-30.999 31-30.999s31 13.906 31 30.999c0 17.094-13.906 31-31 31zm0-55.999c-13.785 0-25 11.215-25 24.999 0 13.785 11.215 25 25 25s25-11.215 25-25c0-13.784-11.215-24.999-25-24.999z" fill="#1c2d6b"/><path d="m74.66 204.999c0-7.732 1.944-14 4.341-14-7.732 0-14 6.268-14 14s6.268 14 14 14c-2.397 0-4.341-6.268-4.341-14z" fill="#a4d4a0"/><path d="m79.001 190.999c2.398 0 4.341 6.268 4.341 14s-1.944 14-4.341 14c7.732 0 14-6.268 14-14s-6.268-14-14-14z" fill="#419b46"/><ellipse cx="79.001" cy="204.999" fill="#65bc49" rx="4.341" ry="14"/><path d="m79.001 221.999c-9.374 0-17-7.626-17-17s7.626-17 17-17 17 7.626 17 17-7.626 17-17 17zm0-28c-6.065 0-11 4.935-11 11s4.935 11 11 11 11-4.935 11-11-4.935-11-11-11z" fill="#1c2d6b"/></svg>