<svg id="Layer_1" enable-background="new 0 0 256 256" height="512" viewBox="0 0 256 256" width="512" xmlns="http://www.w3.org/2000/svg"><path d="m128 221.142c-1.657 0-3-1.343-3-3v-180c0-1.657 1.343-3 3-3s3 1.343 3 3v180c0 1.656-1.343 3-3 3z" fill="#1c2d6b"/><path d="m218 131.142h-180c-1.657 0-3-1.343-3-3s1.343-3 3-3h180c1.657 0 3 1.343 3 3s-1.343 3-3 3z" fill="#1c2d6b"/><path d="m64.36 194.781c-.768 0-1.535-.293-2.121-.879-1.172-1.171-1.172-3.071 0-4.242l127.28-127.279c1.172-1.172 3.07-1.172 4.242 0 1.172 1.171 1.172 3.071 0 4.242l-127.28 127.279c-.585.586-1.353.879-2.121.879z" fill="#1c2d6b"/><path d="m191.64 194.781c-.768 0-1.535-.293-2.121-.879l-127.28-127.279c-1.172-1.171-1.172-3.071 0-4.242 1.172-1.172 3.07-1.172 4.242 0l127.28 127.279c1.172 1.171 1.172 3.071 0 4.242-.586.586-1.354.879-2.121.879z" fill="#1c2d6b"/><path d="m60.118 68.745c-7.029-7.029-10.828-14.627-8.485-16.971-7.029 7.029-7.029 18.426 0 25.456s18.426 7.029 25.456 0c-2.344 2.343-9.942-1.456-16.971-8.485z" fill="#ede49d"/><path d="m51.632 51.774c2.343-2.343 9.941 1.456 16.971 8.485s10.828 14.627 8.485 16.971c7.029-7.029 7.029-18.426 0-25.456s-18.426-7.029-25.456 0z" fill="#d3ba2a"/><ellipse cx="64.36" cy="64.502" fill="#eee045" rx="6" ry="18" transform="matrix(.707 -.707 .707 .707 -26.759 64.402)"/><path d="m187.347 195.902c-7.029-7.029-10.828-14.627-8.485-16.971-7.029 7.029-7.029 18.426 0 25.456s18.426 7.029 25.456 0c-2.344 2.344-9.942-1.455-16.971-8.485z" fill="#ede49d"/><path d="m178.862 178.932c2.343-2.343 9.941 1.456 16.971 8.485 7.029 7.029 10.828 14.627 8.485 16.971 7.029-7.029 7.029-18.426 0-25.456s-18.427-7.03-25.456 0z" fill="#d3ba2a"/><ellipse cx="191.59" cy="191.66" fill="#eee045" rx="6" ry="18" transform="matrix(.707 -.707 .707 .707 -79.409 191.61)"/><path d="m38.142 134c-9.941 0-18-2.686-18-6 0 9.941 8.059 18 18 18s18-8.059 18-18c0 3.314-8.059 6-18 6z" fill="#ede49d"/><path d="m20.142 128c0-3.314 8.059-6 18-6s18 2.686 18 6c0-9.941-8.059-18-18-18s-18 8.059-18 18z" fill="#d3ba2a"/><ellipse cx="38.142" cy="128" fill="#eee045" rx="18" ry="6"/><path d="m217.858 134c-9.941 0-18-2.686-18-6 0 9.941 8.059 18 18 18s18-8.059 18-18c0 3.314-8.059 6-18 6z" fill="#ede49d"/><path d="m199.858 128c0-3.314 8.059-6 18-6s18 2.686 18 6c0-9.941-8.059-18-18-18s-18 8.059-18 18z" fill="#d3ba2a"/><ellipse cx="217.858" cy="128" fill="#eee045" rx="18" ry="6"/><path d="m187.347 60.239c7.029-7.029 14.627-10.828 16.971-8.485-7.029-7.029-18.426-7.029-25.456 0-7.029 7.029-7.029 18.426 0 25.456-2.344-2.344 1.455-9.942 8.485-16.971z" fill="#ede49d"/><path d="m204.317 51.753c2.343 2.343-1.456 9.941-8.485 16.971s-14.627 10.828-16.971 8.485c7.029 7.029 18.426 7.029 25.456 0s7.03-18.426 0-25.456z" fill="#d3ba2a"/><ellipse cx="191.59" cy="64.481" fill="#eee045" rx="18" ry="6" transform="matrix(.707 -.707 .707 .707 10.52 154.36)"/><path d="m60.118 187.537c7.029-7.029 14.627-10.828 16.971-8.485-7.029-7.029-18.426-7.029-25.456 0-7.029 7.029-7.029 18.426 0 25.456-2.344-2.343 1.455-9.941 8.485-16.971z" fill="#ede49d"/><path d="m77.088 179.052c2.343 2.343-1.456 9.941-8.485 16.971s-14.627 10.828-16.971 8.485c7.029 7.029 18.426 7.029 25.456 0s7.03-18.427 0-25.456z" fill="#d3ba2a"/><ellipse cx="64.36" cy="191.78" fill="#eee045" rx="18" ry="6" transform="matrix(.707 -.707 .707 .707 -116.758 101.681)"/><g fill="#1c2d6b"><path d="m217.858 149c-11.579 0-21-9.42-21-21s9.421-21 21-21 21 9.42 21 21-9.42 21-21 21zm0-36c-8.271 0-15 6.729-15 15s6.729 15 15 15 15-6.729 15-15-6.728-15-15-15z"/><path d="m38.142 149c-11.579 0-21-9.42-21-21s9.421-21 21-21 21 9.42 21 21-9.421 21-21 21zm0-36c-8.271 0-15 6.729-15 15s6.729 15 15 15 15-6.729 15-15-6.729-15-15-15z"/><path d="m64.36 85.502c-11.579 0-21-9.42-21-21s9.421-21 21-21 21 9.42 21 21-9.421 21-21 21zm0-36c-8.271 0-15 6.729-15 15s6.729 15 15 15 15-6.729 15-15-6.728-15-15-15z"/><path d="m191.59 85.481c-11.579 0-21-9.42-21-21s9.421-21 21-21 21 9.42 21 21-9.421 21-21 21zm0-36c-8.271 0-15 6.729-15 15s6.729 15 15 15 15-6.729 15-15-6.729-15-15-15z"/><path d="m64.36 212.78c-11.579 0-21-9.42-21-21s9.421-21 21-21 21 9.42 21 21-9.421 21-21 21zm0-36c-8.271 0-15 6.729-15 15s6.729 15 15 15 15-6.729 15-15-6.728-15-15-15z"/><path d="m191.59 212.66c-11.579 0-21-9.42-21-21s9.421-21 21-21 21 9.42 21 21-9.421 21-21 21zm0-36c-8.271 0-15 6.729-15 15s6.729 15 15 15 15-6.729 15-15-6.729-15-15-15z"/></g><path d="m108.894 128.142c0-28.164 8.554-50.994 19.106-50.994-28.163 0-50.994 22.831-50.994 50.994s22.831 50.994 50.994 50.994c-10.552 0-19.106-22.831-19.106-50.994z" fill="#ef7f72"/><path d="m128 77.147c10.552 0 19.106 22.831 19.106 50.994s-8.554 50.994-19.106 50.994c28.163 0 50.994-22.831 50.994-50.994s-22.831-50.994-50.994-50.994z" fill="#e8383b"/><ellipse cx="128" cy="128.142" fill="#e95947" rx="19.106" ry="50.994"/><path d="m128 182.136c-29.772 0-53.994-24.222-53.994-53.995 0-29.772 24.222-53.994 53.994-53.994s53.994 24.222 53.994 53.994c0 29.774-24.222 53.995-53.994 53.995zm0-101.989c-26.464 0-47.994 21.53-47.994 47.994s21.53 47.995 47.994 47.995 47.994-21.53 47.994-47.995c0-26.463-21.53-47.994-47.994-47.994z" fill="#1c2d6b"/><path d="m120.404 150.089c0-8.625 1.448-16.182 3.618-20.397-1.434-3.658-2.352-9.248-2.352-15.516 0-11.019 2.834-19.952 6.33-19.952-11.019 0-19.952 8.933-19.952 19.952 0 6.268 2.893 11.858 7.414 15.516-6.842 4.214-11.404 11.772-11.404 20.397v3.99 7.981h16.346v-7.981z" fill="#89aadb"/><path d="m140.538 129.692c4.521-3.658 7.414-9.248 7.414-15.516 0-11.019-8.933-19.952-19.952-19.952 3.496 0 6.33 8.933 6.33 19.952 0 6.268-.918 11.858-2.352 15.516 2.171 4.214 3.618 11.772 3.618 20.397v3.99 7.981h16.346v-7.981-3.99c0-8.626-4.563-16.183-11.404-20.397z" fill="#4b67b0"/><path d="m135.596 150.089c0-8.625-1.448-16.182-3.618-20.397 1.434-3.658 2.352-9.248 2.352-15.516 0-11.019-2.834-19.952-6.33-19.952-3.496 0-6.33 8.933-6.33 19.952 0 6.268.918 11.858 2.352 15.516-2.171 4.214-3.618 11.772-3.618 20.397v3.99 7.981h15.192v-7.981z" fill="#6287c5"/><path d="m128 137.127c-12.656 0-22.952-10.296-22.952-22.952s10.296-22.951 22.952-22.951 22.952 10.296 22.952 22.952-10.296 22.951-22.952 22.951zm0-39.903c-9.348 0-16.952 7.604-16.952 16.952s7.604 16.952 16.952 16.952 16.952-7.604 16.952-16.952-7.604-16.952-16.952-16.952z" fill="#1c2d6b"/><path d="m151.942 165.06h-47.885c-1.657 0-3-1.343-3-3v-11.971c0-9.422 4.797-18.002 12.831-22.951 1.082-.667 2.47-.58 3.46.222 3.047 2.465 6.73 3.768 10.651 3.768s7.604-1.303 10.651-3.768c.991-.802 2.378-.889 3.46-.222 8.034 4.949 12.831 13.529 12.831 22.951v11.971c.001 1.656-1.341 3-2.999 3zm-44.884-6h41.885v-8.971c0-6.661-3.086-12.782-8.346-16.731-3.724 2.444-8.119 3.77-12.597 3.77s-8.873-1.326-12.597-3.77c-5.26 3.949-8.346 10.07-8.346 16.731v8.971z" fill="#1c2d6b"/><path d="m122 38.142c0-9.941 2.686-18 6-18-9.941 0-18 8.059-18 18s8.059 18 18 18c-3.314 0-6-8.059-6-18z" fill="#ede49d"/><path d="m128 20.142c3.314 0 6 8.059 6 18s-2.686 18-6 18c9.941 0 18-8.059 18-18s-8.059-18-18-18z" fill="#d3ba2a"/><ellipse cx="128" cy="38.142" fill="#eee045" rx="6" ry="18"/><path d="m128 59.142c-11.579 0-21-9.42-21-21s9.421-21 21-21 21 9.42 21 21-9.421 21-21 21zm0-36c-8.271 0-15 6.729-15 15s6.729 15 15 15 15-6.729 15-15-6.729-15-15-15z" fill="#1c2d6b"/><path d="m122 217.858c0-9.941 2.686-18 6-18-9.941 0-18 8.059-18 18s8.059 18 18 18c-3.314 0-6-8.059-6-18z" fill="#ede49d"/><path d="m128 199.858c3.314 0 6 8.059 6 18s-2.686 18-6 18c9.941 0 18-8.059 18-18s-8.059-18-18-18z" fill="#d3ba2a"/><ellipse cx="128" cy="217.858" fill="#eee045" rx="6" ry="18"/><path d="m128 238.858c-11.579 0-21-9.42-21-21s9.421-21 21-21 21 9.42 21 21-9.421 21-21 21zm0-36c-8.271 0-15 6.729-15 15s6.729 15 15 15 15-6.729 15-15-6.729-15-15-15z" fill="#1c2d6b"/></svg>