<svg id="Layer_1" enable-background="new 0 0 256 256" height="512" viewBox="0 0 256 256" width="512" xmlns="http://www.w3.org/2000/svg"><path d="m167.655 53h54v126h-54z" fill="#e8383b"/><path d="m29.655 53h54v126h-54z" fill="#ef7f72"/><path d="m83.655 53h84v126h-84z" fill="#e95947"/><path d="m221.654 182h-192c-1.657 0-3-1.343-3-3v-126c0-1.657 1.343-3 3-3h192c1.657 0 3 1.343 3 3v126c0 1.657-1.342 3-3 3zm-189-6h186v-120h-186z" fill="#1c2d6b"/><path d="m41.655 65h48.07v102h-48.07z" fill="#ede49d"/><path d="m161.585 65h48.07v102h-48.07z" fill="#d3ba2a"/><path d="m89.725 65h71.86v102h-71.86z" fill="#eee045"/><path d="m209.654 170h-168c-1.657 0-3-1.343-3-3v-102c0-1.657 1.343-3 3-3h168c1.657 0 3 1.343 3 3v102c0 1.657-1.342 3-3 3zm-165-6h162v-96h-162z" fill="#1c2d6b"/><path d="m95.655 179h21.043v24h-21.043z" fill="#ef7f72"/><path d="m134.612 179h21.043v24h-21.043z" fill="#e8383b"/><path d="m116.697 179h17.915v24h-17.915z" fill="#e95947"/><path d="m83.655 203-6 18h30l2.25-18z" fill="#ef7f72"/><path d="m167.655 203h-26.25l2.25 18h30z" fill="#e8383b"/><path d="m109.905 203-2.25 18h36l-2.25-18z" fill="#e95947"/><path d="m155.654 206h-60c-1.657 0-3-1.343-3-3v-24c0-1.657 1.343-3 3-3h60c1.657 0 3 1.343 3 3v24c0 1.657-1.342 3-3 3zm-57-6h54v-18h-54z" fill="#1c2d6b"/><path d="m173.654 224h-96c-.964 0-1.87-.463-2.434-1.246-.564-.782-.718-1.788-.412-2.703l6-18c.408-1.225 1.555-2.051 2.846-2.051h84c1.291 0 2.438.826 2.846 2.051l6 18c.306.915.152 1.92-.412 2.703s-1.47 1.246-2.434 1.246zm-91.838-6h87.676l-4-12h-79.676z" fill="#1c2d6b"/><path d="m149.655 83.302h36v60h-36z" fill="#419b46"/><path d="m65.655 83.302h36v60h-36z" fill="#a4d4a0"/><path d="m101.655 83.302h48v60h-48z" fill="#65bc49"/><path d="m185.654 146.302h-120c-1.657 0-3-1.343-3-3v-60c0-1.657 1.343-3 3-3h120c1.657 0 3 1.343 3 3v60c0 1.657-1.342 3-3 3zm-117-6h114v-54h-114z" fill="#1c2d6b"/><path d="m185.654 146.302h-120c-1.31 0-2.468-.849-2.861-2.098-.394-1.249.068-2.609 1.141-3.359l60-42c1.033-.724 2.408-.724 3.441 0l60 42c1.072.75 1.534 2.111 1.141 3.359-.394 1.249-1.552 2.098-2.862 2.098zm-110.482-6h100.965l-50.482-35.338z" fill="#1c2d6b"/><path d="m101.654 121.103c-.751 0-1.503-.28-2.085-.843l-36-34.8c-1.191-1.151-1.224-3.051-.072-4.242 1.153-1.192 3.052-1.224 4.242-.072l36 34.8c1.191 1.151 1.224 3.051.072 4.242-.588.608-1.373.915-2.157.915z" fill="#1c2d6b"/><path d="m149.654 121.103c-.784 0-1.568-.306-2.157-.915-1.151-1.191-1.119-3.09.072-4.242l36-34.8c1.19-1.151 3.089-1.121 4.242.072 1.151 1.191 1.119 3.09-.072 4.242l-36 34.8c-.582.562-1.334.843-2.085.843z" fill="#1c2d6b"/><path d="m110.889 35h-27.234v65.702l18 17.4 12.315-8.62-3.081-8.18z" fill="#89aadb"/><path d="m140.421 35v66.302l-3.081 8.18 12.315 8.62 18-16.8v-66.302z" fill="#4b67b0"/><path d="m140.421 35h-29.532v66.302l3.081 8.18 11.685-8.18 11.685 8.18 3.081-8.18z" fill="#6287c5"/><g fill="#1c2d6b"><path d="m101.655 121.103c-.757 0-1.509-.286-2.086-.843l-18-17.4c-.585-.565-.915-1.343-.915-2.157v-65.703c0-1.657 1.343-3 3-3h84c1.657 0 3 1.343 3 3v66.302c0 .832-.345 1.626-.953 2.193l-18 16.8c-1.034.966-2.605 1.078-3.768.264l-22.279-15.596-22.279 15.596c-.52.365-1.121.544-1.72.544zm23.999-22.801c.602 0 1.204.181 1.721.542l22.009 15.407 15.271-14.253v-61.998h-78v61.43l15.307 14.796 21.973-15.381c.515-.362 1.118-.543 1.719-.543zm42 3h.01z"/><path d="m102.808 65-4.04-7.05h-1.029v7.05h-4.516v-18.668h7.711c1.479 0 2.728.255 3.749.766s1.786 1.211 2.297 2.1.767 1.905.767 3.05c0 1.355-.375 2.508-1.123 3.459-.748.95-1.835 1.602-3.261 1.954l4.436 7.339zm-5.07-10.14h2.799c.897 0 1.558-.198 1.98-.594.423-.396.634-.981.634-1.756 0-.739-.216-1.32-.647-1.743-.431-.422-1.087-.634-1.967-.634h-2.799z"/><path d="m122.677 62.465c-.501.828-1.24 1.487-2.218 1.98-.977.493-2.161.74-3.552.74-2.095 0-3.819-.511-5.175-1.532-1.355-1.021-2.096-2.447-2.218-4.278h4.806c.069.705.32 1.259.752 1.664s.981.607 1.65.607c.581 0 1.039-.158 1.373-.475s.502-.739.502-1.268c0-.475-.154-.872-.462-1.188-.309-.317-.691-.577-1.148-.779-.458-.202-1.092-.444-1.901-.726-1.18-.405-2.144-.796-2.892-1.175s-1.391-.942-1.928-1.69-.806-1.721-.806-2.918c0-1.109.282-2.068.846-2.878.562-.81 1.342-1.43 2.337-1.862.994-.431 2.134-.647 3.419-.647 2.077 0 3.728.493 4.951 1.479s1.914 2.341 2.072 4.066h-4.885c-.088-.616-.312-1.104-.673-1.466-.361-.36-.85-.541-1.466-.541-.528 0-.955.141-1.28.422-.326.282-.488.696-.488 1.241 0 .44.145.814.436 1.122.29.308.655.559 1.096.752.439.194 1.073.44 1.901.739 1.196.405 2.174.806 2.931 1.202s1.408.973 1.954 1.729c.545.757.818 1.743.818 2.958.001.988-.25 1.895-.752 2.722z"/><path d="m129.424 46.332 4.568 14.047 4.568-14.047h4.832l-6.496 18.668h-5.835l-6.47-18.668z"/><path d="m149.649 58.452v6.548h-4.516v-18.668h7.314c2.218 0 3.908.55 5.069 1.65 1.162 1.101 1.743 2.583 1.743 4.449 0 1.162-.26 2.196-.779 3.103-.52.907-1.289 1.62-2.311 2.139-1.021.52-2.262.779-3.723.779zm5.017-6.021c0-1.637-.906-2.456-2.72-2.456h-2.297v4.858h2.297c1.814.001 2.72-.8 2.72-2.402z"/></g><path d="m126.915 107.207h84v7.017h-84z" fill="#89aadb" transform="matrix(.707 -.707 .707 .707 -28.814 151.869)"/><path d="m134.68 114.973h84v7.017h-84z" fill="#4b67b0" transform="matrix(.707 -.707 .707 .707 -32.031 159.635)"/><path d="m130.798 112.616h84v3.965h-84z" fill="#6287c5" transform="matrix(.707 -.707 .707 .707 -30.423 155.752)"/><path d="m149.463 153.662c-.796 0-1.559-.316-2.121-.879l-12.728-12.728c-1.172-1.171-1.172-3.071 0-4.242l59.396-59.397c1.172-1.172 3.07-1.171 4.242 0l12.729 12.728c.562.563.879 1.326.879 2.122 0 .795-.316 1.559-.879 2.121l-59.397 59.397c-.563.562-1.325.878-2.121.878zm-8.485-15.728 8.485 8.485 55.154-55.154-8.485-8.485z" fill="#1c2d6b"/><path d="m136.735 137.934-10.607 23.334 23.335-10.607z" fill="#eee045"/><path d="m126.13 164.268c-.78 0-1.547-.304-2.122-.879-.885-.884-1.128-2.224-.61-3.362l10.606-23.334c.407-.896 1.228-1.535 2.196-1.71.967-.178 1.961.135 2.656.831l12.728 12.728c.696.696 1.006 1.688.831 2.656-.176.968-.815 1.789-1.711 2.196l-23.334 10.606c-.398.18-.821.268-1.24.268zm11.545-21.152-5.505 12.11 12.11-5.505z" fill="#1c2d6b"/><path d="m140.421 154.771-7.796-7.795-6.497 14.292z" fill="#1c2d6b"/><path d="m204.622 81.032h12v7.017h-12z" fill="#419b46" transform="matrix(.707 -.707 .707 .707 1.91 173.693)"/><path d="m196.856 73.266h12v7.017h-12z" fill="#a4d4a0" transform="matrix(.707 -.707 .707 .707 5.127 165.928)"/><path d="m200.739 78.675h12v3.965h-12z" fill="#65bc49" transform="matrix(.707 -.707 .707 .707 3.519 169.811)"/><path d="m208.86 94.265c-.768 0-1.535-.293-2.121-.878l-12.729-12.728c-.562-.563-.879-1.326-.879-2.122 0-.795.316-1.559.879-2.121l8.485-8.485c1.172-1.172 3.07-1.171 4.242 0l12.729 12.728c.562.563.879 1.326.879 2.122 0 .795-.316 1.559-.879 2.121l-8.485 8.485c-.585.585-1.353.878-2.121.878zm-8.485-15.728 8.485 8.485 4.242-4.243-8.485-8.485z" fill="#1c2d6b"/><path d="m223.709 63.687c-3.515-3.515-9.213-3.515-12.728 0l-6.364 6.364 4.962 4.962 11.326-11.326c.775-.774 2.03-.774 2.804 0z" fill="#ef7f72"/><path d="m223.709 63.687c.774.774.774 2.03 0 2.804l-11.326 11.326 4.962 4.962 6.364-6.364c3.515-3.514 3.515-9.213 0-12.728z" fill="#e8383b"/><path d="m223.709 63.687c-.774-.774-2.03-.774-2.804 0l-11.326 11.326 2.804 2.804 11.326-11.326c.774-.774.774-2.029 0-2.804z" fill="#e95947"/><path d="m217.346 85.779c-.796 0-1.559-.316-2.121-.878l-12.729-12.728c-.562-.563-.879-1.326-.879-2.122s.316-1.559.879-2.122l6.364-6.364c2.266-2.267 5.279-3.515 8.484-3.515 3.206 0 6.22 1.248 8.485 3.515 4.679 4.679 4.679 12.291 0 16.97l-6.363 6.364c-.562.564-1.324.88-2.12.88zm-8.486-15.728 8.485 8.485 4.242-4.243c2.339-2.339 2.339-6.146 0-8.485-1.134-1.133-2.641-1.757-4.243-1.757s-3.108.624-4.242 1.757z" fill="#1c2d6b"/></svg>