<svg id="Layer_1" enable-background="new 0 0 256 256" height="512" viewBox="0 0 256 256" width="512" xmlns="http://www.w3.org/2000/svg"><path d="m103.7 197c-.527 0-1.03.19-1.5.523.638-.226 1.305-.388 2-.464-.164-.037-.331-.059-.5-.059z" fill="#eee045"/><path d="m103.7 215c.169 0 .336-.022.5-.059-.695-.077-1.362-.239-2-.464.47.333.974.523 1.5.523z" fill="#eee045"/><path d="m114.201 187.049v-60.549-12-85.5c-2.045 0-4.048.179-6 .507v84.993 12 60.549c3.544 3.373 6 10.579 6 18.951 0 11.244-4.419 20.424-9.974 20.974 12.04.542 21.972-9.054 21.972-20.974.001-8.372-4.91-15.578-11.998-18.951z" fill="#d3ba2a"/><path d="m93.201 206.327c-.065-8.512 2.409-15.863 6-19.279v-51.548c0-4.971-2.015-9-4.5-9-2.485 0-4.5-4.029-4.5-9v-52.5c0-15.673 5.01-29 12.001-33.943-13.982 4.943-24.001 18.27-24.001 33.943v52.5c0 4.971 4.029 9 9 9s9 4.029 9 9v51.547c-7.181 3.416-12.129 10.767-11.999 19.279.157 10.289 7.969 19 17.998 20.451-5.014-1.451-8.921-10.161-8.999-20.45z" fill="#ede49d"/><path d="m102.2 226.778c.3.087.603.156.91.19.377.041.749.042 1.117.006-.069-.003-.138-.002-.207-.006-.614-.034-1.22-.103-1.82-.19z" fill="#eee045"/><path d="m114.201 206c0-8.372-2.456-15.578-6-18.951v-60.549-12-84.993c-2.065.346-4.071.867-6.001 1.549-6.99 4.944-12 18.271-12 33.944v52.5c0 4.971 2.015 9 4.5 9 2.485 0 4.5 4.029 4.5 9v51.547c-3.591 3.416-6.065 10.767-6 19.279.078 10.289 3.985 19 9 20.451.6.087 1.205.156 1.82.19.069.004.138.003.207.006 5.555-.549 9.974-9.729 9.974-20.973zm-10.501 9c-.527 0-1.03-.19-1.5-.523-3.494-1.237-6.001-4.56-6.001-8.477s2.507-7.241 6.001-8.477c.47-.333.973-.523 1.5-.523.169 0 .336.022.5.059.329-.036.661-.059 1-.059 4.971 0 9 4.029 9 9 0 4.97-4.029 9-9 9-.338 0-.671-.022-1-.059-.164.037-.331.059-.5.059z" fill="#eee045"/><path d="m105.217 230.001c-.452 0-.905-.013-1.361-.038-12.512-.684-22.462-11.046-22.654-23.59-.132-8.71 4.521-16.806 11.999-21.134v-49.739c0-3.309-2.691-6-6-6-6.617 0-12-5.383-12-12v-52.5c0-21.505 17.495-39 39-39 1.657 0 3 1.343 3 3v156.241c7.347 4.261 11.999 12.21 11.999 20.759 0 6.659-2.664 12.85-7.501 17.43-4.506 4.265-10.314 6.57-16.482 6.571zm5.984-197.866c-16.796 1.521-30 15.68-30 32.865v52.5c0 3.309 2.691 6 6 6 6.617 0 12 5.383 12 12v51.548c0 1.157-.666 2.212-1.711 2.709-6.356 3.023-10.395 9.51-10.288 16.524.144 9.407 7.603 17.178 16.982 17.691 5.004.269 9.763-1.467 13.389-4.899 3.628-3.437 5.627-8.079 5.627-13.073 0-6.893-4.038-13.268-10.288-16.242-1.045-.497-1.711-1.552-1.711-2.709zm-6.001 185.865c-6.617 0-12-5.383-12-12s5.383-12 12-12 12 5.383 12 12-5.384 12-12 12zm0-18c-3.309 0-6 2.691-6 6s2.691 6 6 6 6-2.691 6-6-2.692-6-6-6z" fill="#1c2d6b"/><path d="m59.816 171.663c.263.456.35.987.297 1.56-.123-.665-.317-1.324-.598-1.964.114.125.217.258.301.404z" fill="#eee045"/><path d="m44.228 180.663c-.085-.146-.149-.302-.199-.462.414.563.888 1.06 1.402 1.5-.523-.241-.94-.581-1.203-1.038z" fill="#eee045"/><path d="m63.184 157.594 52.437-30.274 10.392-6 74.045-42.75c1.023 1.771 1.868 3.595 2.561 5.45l-73.606 42.496-10.392 6-52.437 30.274c-4.693-1.383-12.162.094-19.412 4.28-9.738 5.622-15.478 14.039-13.177 19.124-6.49-10.156-3.145-23.556 7.177-29.515 7.25-4.187 15.947-3.537 22.412.915z" fill="#d3ba2a"/><path d="m56.989 185.42c7.404-4.2 12.533-10.018 13.696-14.836l44.641-25.774c4.305-2.485 8.802-2.755 10.044-.603 1.243 2.152 5.74 1.883 10.044-.603l45.466-26.25c13.574-7.837 22.61-18.839 23.395-27.365 2.709 14.579-3.823 29.919-17.396 37.756l-45.466 26.25c-4.305 2.485-9.809 1.01-12.294-3.294-2.485-4.305-7.989-5.78-12.294-3.294l-44.641 25.774c.632 7.927-3.26 15.887-10.697 20.031-8.989 5.009-20.439 2.598-26.71-5.361 3.765 3.618 13.262 2.645 22.212-2.431z" fill="#ede49d"/><path d="m34.778 187.851c-.225-.216-.437-.444-.619-.693-.224-.306-.411-.628-.564-.964.037.058.071.118.109.177.336.515.699 1.004 1.074 1.48z" fill="#eee045"/><path d="m33.595 186.194c.037.058.071.118.109.177.336.515.699 1.005 1.074 1.481 3.764 3.617 13.261 2.645 22.211-2.431 7.404-4.2 12.533-10.018 13.696-14.836l44.641-25.774c4.305-2.485 8.802-2.755 10.044-.603 1.243 2.152 5.74 1.883 10.044-.603l45.466-26.25c13.574-7.837 22.61-18.839 23.395-27.365-.374-2.013-.926-4.01-1.659-5.972l-73.606 42.496-10.392 6-52.434 30.276c-4.693-1.383-12.162.094-19.412 4.28-9.738 5.622-15.479 14.039-13.177 19.124zm10.433-5.993c-.196-.266-.381-.543-.551-.836-2.485-4.305-1.01-9.809 3.294-12.294 4.305-2.485 9.809-1.01 12.294 3.294.169.293.316.592.449.895.114.124.216.257.301.404.263.456.35.987.297 1.56.676 3.644-.948 7.477-4.341 9.435-3.392 1.959-7.524 1.449-10.342-.958-.523-.241-.939-.581-1.203-1.037-.083-.147-.147-.302-.198-.463z" fill="#eee045"/><path d="m51.324 198.851c-7.874.001-15.575-3.857-20.132-10.841-3.651-5.594-4.811-12.241-3.264-18.717 1.548-6.48 5.577-11.883 11.344-15.212 7.403-4.274 16.614-4.221 23.977.011l135.309-78.12c.69-.397 1.51-.505 2.276-.3.769.206 1.424.708 1.822 1.397 5.208 9.021 6.592 19.532 3.896 29.594s-9.15 18.473-18.171 23.681l-45.466 26.25c-5.73 3.311-13.083 1.34-16.392-4.392-.801-1.388-2.095-2.381-3.643-2.796-1.551-.413-3.166-.201-4.553.6l-43.075 24.869c-.01 8.641-4.695 16.719-12.304 20.959-3.666 2.042-7.667 3.017-11.624 3.017zm-.093-41.96c-3.098 0-6.197.791-8.959 2.386-4.326 2.498-7.347 6.55-8.508 11.41-1.16 4.856-.289 9.844 2.452 14.044 5.134 7.866 15.593 10.443 23.812 5.861 6.128-3.414 9.726-10.154 9.167-17.172-.092-1.153.488-2.258 1.491-2.836l44.641-25.773c2.776-1.604 6.01-2.029 9.106-1.199 3.096.829 5.684 2.814 7.287 5.591 1.653 2.864 5.331 3.85 8.196 2.196l45.466-26.25c7.634-4.407 13.094-11.523 15.376-20.038 2.021-7.541 1.333-15.379-1.913-22.376l-134.161 77.456c-1.002.58-2.248.529-3.201-.127-3.063-2.108-6.656-3.173-10.252-3.173zm-10.459-.212h.01zm10.52 30.191c-1.042 0-2.091-.137-3.125-.414-3.096-.829-5.684-2.814-7.287-5.591-3.309-5.73-1.338-13.084 4.392-16.393 2.775-1.603 6.009-2.026 9.106-1.199 3.096.83 5.684 2.815 7.287 5.592 3.308 5.73 1.338 13.084-4.393 16.392-1.849 1.068-3.901 1.613-5.98 1.613zm-3.02-17.202c-2.865 1.654-3.85 5.332-2.196 8.197.801 1.388 2.095 2.381 3.643 2.796 1.548.412 3.165.201 4.553-.6 2.865-1.654 3.851-5.331 2.196-8.196s-5.331-3.851-8.196-2.197z" fill="#1c2d6b"/><circle cx="103.285" cy="145.947" fill="#e95947" r="5.965"/><path d="m103.271 154.915c-1.554 0-3.087-.407-4.468-1.205-2.074-1.197-3.558-3.13-4.177-5.443-.62-2.312-.302-4.729.896-6.803s3.131-3.558 5.444-4.178c2.314-.62 4.729-.301 6.803.896s3.557 3.131 4.177 5.443c.62 2.313.301 4.729-.896 6.803s-3.13 3.558-5.443 4.178c-.774.207-1.558.309-2.336.309zm.019-11.936c-.258 0-.517.034-.772.103-.765.205-1.405.695-1.801 1.382s-.501 1.485-.296 2.25.696 1.404 1.382 1.801c.687.396 1.486.501 2.25.296.765-.205 1.404-.695 1.8-1.382.396-.686.501-1.484.296-2.25-.205-.765-.696-1.404-1.381-1.801-.457-.264-.965-.399-1.478-.399z" fill="#1c2d6b"/><path d="m78.2 117.501v-24.63h-15.956v24.63c0 2.02.216 3.88.582 5.37h17.154c-1.12-1.49-1.78-3.35-1.78-5.37z" fill="#e8383b"/><path d="m29 92.871 8.577 15-8.577 15h17.154v-30z" fill="#ef7f72"/><path d="m62.244 92.871h-16.09v30h16.673c-.366-1.49-.582-3.35-.582-5.37v-24.63z" fill="#e95947"/><path d="m191 92.871v30h36l-8.577-15 8.577-15z" fill="#e8383b"/><path d="m114.201 92.871h36v30h-36z" fill="#ef7f72"/><path d="m150.201 92.871h40.799v30h-40.799z" fill="#e95947"/><g fill="#1c2d6b"><path d="m79.98 125.871h-50.98c-1.069 0-2.058-.569-2.595-1.494-.537-.926-.541-2.066-.01-2.995l7.726-13.511-7.725-13.511c-.531-.929-.527-2.069.01-2.995.537-.925 1.525-1.494 2.595-1.494h49.2c1.657 0 3 1.343 3 3v24.63c0 1.309.407 2.542 1.178 3.567.683.909.794 2.126.286 3.143-.509 1.018-1.548 1.66-2.685 1.66zm-45.809-6h41.261c-.153-.771-.231-1.564-.231-2.37v-21.63h-41.03l6.01 10.511c.527.923.527 2.056 0 2.979z"/><path d="m227 125.871h-112.799c-1.657 0-3-1.343-3-3v-30c0-1.657 1.343-3 3-3h112.799c1.069 0 2.058.569 2.595 1.494.537.926.541 2.066.01 2.995l-7.726 13.511 7.726 13.511c.531.929.527 2.069-.01 2.995-.537.925-1.526 1.494-2.595 1.494zm-109.799-6h104.628l-6.01-10.511c-.527-.923-.527-2.056 0-2.979l6.01-10.511h-104.628z"/></g></svg>