<svg id="Layer_1" enable-background="new 0 0 256 256" height="512" viewBox="0 0 256 256" width="512" xmlns="http://www.w3.org/2000/svg"><path d="m92.068 186.919v-70.919h-48.068v64c0 11.046 8.954 20 20 20h41.149c-7.225 0-13.081-5.856-13.081-13.081z" fill="#a4d4a0"/><path d="m163.932 116v70.919c0 7.224-5.856 13.081-13.081 13.081h41.149c11.046 0 20-8.954 20-20v-64z" fill="#419b46"/><path d="m163.932 186.919v-70.919h-71.864v70.919c0 7.224 5.856 13.081 13.081 13.081h45.703c7.224 0 13.08-5.856 13.08-13.081z" fill="#65bc49"/><path d="m192 203h-128c-12.682 0-23-10.317-23-23v-64c0-1.657 1.343-3 3-3h168c1.657 0 3 1.343 3 3v64c0 12.683-10.318 23-23 23zm-145-84v61c0 9.374 7.626 17 17 17h128c9.374 0 17-7.626 17-17v-61z" fill="#1c2d6b"/><path d="m95.116 89.862 20.051-15.863 1.591-11.16c.582-4.084 2.217-6.838 4.058-6.838h-9.61c-4.304 0-8.126 2.754-9.487 6.838l-3.719 11.16-46.874 15.863c-4.229 1.269-7.126 5.162-7.126 9.578v16.56h48.068v-16.56c0-4.416 1.239-8.309 3.048-9.578z" fill="#ef7f72"/><path d="m211.597 100.018c-.1-3.961-2.529-7.49-6.194-8.997l-35.403-17.022-3.722-11.162c-1.361-4.083-5.183-6.837-9.487-6.837h-16.476c1.841 0 3.476 2.754 4.058 6.837l1.592 11.162 15.144 17.022c1.568 1.507 2.607 5.036 2.65 8.997l.173 15.982h48.068z" fill="#e8383b"/><path d="m161.11 91.021-15.144-17.022-1.592-11.162c-.582-4.083-2.217-6.837-4.058-6.837h-19.5c-1.841 0-3.476 2.754-4.058 6.838l-1.591 11.16-20.051 15.864c-1.809 1.269-3.048 5.162-3.048 9.578v16.56h71.864l-.172-15.982c-.043-3.962-1.082-7.49-2.65-8.997z" fill="#e95947"/><path d="m212 119h-168c-1.657 0-3-1.343-3-3v-16.56c0-5.768 3.7-10.758 9.211-12.436l45.414-15.369 3.248-9.746c1.772-5.317 6.729-8.89 12.333-8.89h45.585c5.604 0 10.56 3.572 12.333 8.888l3.32 9.958 34.185 16.436c4.714 1.978 7.838 6.545 7.967 11.661l.403 15.982c.021.809-.287 1.591-.851 2.17-.565.58-1.339.906-2.148.906zm-165-6h161.923l-.325-12.907c-.07-2.771-1.771-5.243-4.336-6.298-.054-.021-.107-.046-.159-.07l-35.403-17.022c-.731-.353-1.29-.985-1.546-1.755l-3.722-11.162c-.954-2.863-3.623-4.786-6.641-4.786h-45.585c-3.018 0-5.687 1.924-6.641 4.786l-3.72 11.161c-.297.892-.995 1.592-1.884 1.894l-46.873 15.863c-.033.011-.067.021-.1.032-2.984.895-4.988 3.589-4.988 6.704z" fill="#1c2d6b"/><path d="m116.115 134c0-26.51 8.008-48 17.885-48-26.51 0-48 21.49-48 48s21.49 48 48 48c-9.878 0-17.885-21.49-17.885-48z" fill="#89aadb"/><path d="m134 86c9.878 0 17.885 21.49 17.885 48s-8.008 48-17.885 48c26.51 0 48-21.49 48-48s-21.49-48-48-48z" fill="#4b67b0"/><ellipse cx="134" cy="134" fill="#6287c5" rx="17.885" ry="48"/><path d="m134 185c-28.122 0-51-22.879-51-51s22.878-51 51-51 51 22.879 51 51-22.878 51-51 51zm0-96c-24.813 0-45 20.187-45 45s20.187 45 45 45 45-20.187 45-45-20.187-45-45-45z" fill="#1c2d6b"/><path d="m122 134c0-19.882 5.373-36 12-36-19.882 0-36 16.118-36 36s16.118 36 36 36c-6.627 0-12-16.118-12-36z" fill="#ede49d"/><path d="m134 98c6.627 0 12 16.118 12 36s-5.373 36-12 36c19.882 0 36-16.118 36-36s-16.118-36-36-36z" fill="#d3ba2a"/><ellipse cx="134" cy="134" fill="#eee045" rx="12" ry="36"/><path d="m134 173c-21.505 0-39-17.495-39-39s17.495-39 39-39 39 17.495 39 39-17.495 39-39 39zm0-72c-18.196 0-33 14.804-33 33s14.804 33 33 33 33-14.804 33-33-14.804-33-33-33z" fill="#1c2d6b"/><path d="m134 116c3.314 0 6 8.059 6 18s-2.686 18-6 18c9.941 0 18-8.059 18-18s-8.059-18-18-18z" fill="#4b67b0"/><path d="m128 134c0-9.941 2.686-18 6-18-9.941 0-18 8.059-18 18s8.059 18 18 18c-3.314 0-6-8.059-6-18z" fill="#89aadb"/><ellipse cx="134" cy="134" fill="#6287c5" rx="6" ry="18"/><path d="m134 155c-11.58 0-21-9.421-21-21s9.42-21 21-21 21 9.421 21 21-9.42 21-21 21zm0-36c-8.271 0-15 6.729-15 15s6.729 15 15 15 15-6.729 15-15-6.729-15-15-15z" fill="#1c2d6b"/><path d="m65.315 104c1.794 0 3.248 5.373 3.248 12s-1.454 12-3.248 12c6.627 0 12-5.373 12-12s-5.372-12-12-12z" fill="#d3ba2a"/><path d="m62.067 116c0-6.627 1.454-12 3.248-12-6.627 0-12 5.373-12 12s5.373 12 12 12c-1.794 0-3.248-5.373-3.248-12z" fill="#ede49d"/><path d="m68.564 116c0-6.627-1.454-12-3.248-12s-3.248 5.373-3.248 12 1.454 12 3.248 12 3.248-5.373 3.248-12z" fill="#eee045"/><g fill="#1c2d6b"><path d="m65.315 131c-8.271 0-15-6.729-15-15s6.729-15 15-15 15 6.729 15 15-6.729 15-15 15zm0-24c-4.962 0-9 4.037-9 9s4.038 9 9 9 9-4.037 9-9-4.037-9-9-9z"/><path d="m200 107h-12c-1.657 0-3-1.343-3-3s1.343-3 3-3h12c1.657 0 3 1.343 3 3s-1.343 3-3 3z"/><path d="m149 74h-30c-1.657 0-3-1.343-3-3 0-1.657 1.343-3 3-3h30c1.657 0 3 1.343 3 3 0 1.657-1.343 3-3 3z"/></g></svg>