<svg id="Layer_1" enable-background="new 0 0 256 256" height="512" viewBox="0 0 256 256" width="512" xmlns="http://www.w3.org/2000/svg"><path d="m101 116c-33.137 0-60 26.863-60 60v48h36v-84c0-13.255 10.745-24 24-24z" fill="#a4d4a0"/><path d="m101 116c13.255 0 24 10.745 24 24v84h36v-48c0-33.137-26.863-60-60-60z" fill="#419b46"/><path d="m101 116c-13.255 0-24 10.745-24 24v84h48v-84c0-13.255-10.745-24-24-24z" fill="#65bc49"/><path d="m161 227h-120c-1.657 0-3-1.343-3-3v-48c0-34.738 28.262-63 63-63s63 28.262 63 63v48c0 1.657-1.343 3-3 3zm-117-6h114v-45c0-31.43-25.57-57-57-57s-57 25.57-57 57z" fill="#1c2d6b"/><path d="m83 124.497 18 51.503-5.6-51.503z" fill="#89aadb"/><path d="m106.6 124.497-5.6 51.503 18-51.503z" fill="#4b67b0"/><path d="m95.4 124.497 5.6 51.503 5.6-51.503z" fill="#6287c5"/><path d="m101 179c-1.275 0-2.411-.806-2.832-2.01l-18-51.502c-.546-1.564.278-3.275 1.842-3.822 1.566-.546 3.275.278 3.822 1.842l15.168 43.399 15.168-43.399c.547-1.564 2.256-2.389 3.822-1.842 1.564.547 2.389 2.258 1.842 3.822l-18 51.502c-.421 1.204-1.557 2.01-2.832 2.01z" fill="#1c2d6b"/><path d="m137 227c-1.657 0-3-1.343-3-3v-48c0-1.657 1.343-3 3-3s3 1.343 3 3v48c0 1.657-1.343 3-3 3z" fill="#1c2d6b"/><path d="m65 227c-1.657 0-3-1.343-3-3v-48c0-1.657 1.343-3 3-3s3 1.343 3 3v48c0 1.657-1.343 3-3 3z" fill="#1c2d6b"/><path d="m85 80c0-26.51 7.163-48 16-48-26.51 0-48 21.49-48 48s21.49 48 48 48c-8.837 0-16-21.49-16-48z" fill="#ede49d"/><path d="m101 32c8.837 0 16 21.49 16 48s-7.163 48-16 48c26.51 0 48-21.49 48-48s-21.49-48-48-48z" fill="#d3ba2a"/><ellipse cx="101" cy="80" fill="#eee045" rx="16" ry="48"/><circle cx="85" cy="89.943" fill="#1c2d6b" r="3.941"/><circle cx="117" cy="89.943" fill="#1c2d6b" r="3.941"/><path d="m101 105.002c-3.912 0-7.562-2.104-9.524-5.493-.83-1.434-.341-3.269 1.093-4.1 1.433-.83 3.269-.341 4.1 1.093.893 1.542 2.553 2.5 4.332 2.5s3.438-.958 4.332-2.5c.831-1.434 2.667-1.922 4.1-1.093 1.434.831 1.923 2.666 1.093 4.1-1.964 3.388-5.614 5.493-9.526 5.493z" fill="#1c2d6b"/><path d="m101 32c-26.51 0-48 21.49-48 48 12.576 0 24.017-4.843 32.576-12.757 1.863-20.315 8.06-35.243 15.424-35.243z" fill="#89aadb"/><path d="m116.424 67.243c8.559 7.914 20 12.757 32.576 12.757 0-26.51-21.49-48-48-48 7.364 0 13.561 14.928 15.424 35.243z" fill="#4b67b0"/><path d="m101 32c0 13.933 5.942 26.474 15.424 35.243-1.863-20.315-8.06-35.243-15.424-35.243s-13.561 14.928-15.424 35.243c9.482-8.769 15.424-21.31 15.424-35.243z" fill="#6287c5"/><g fill="#1c2d6b"><path d="m149 83c-22.073 0-40.916-14.095-48-33.757-7.084 19.662-25.927 33.757-48 33.757-1.657 0-3-1.343-3-3 0-28.122 22.878-51 51-51s51 22.878 51 51c0 1.657-1.343 3-3 3zm-44.894-47.894c1.53 22.345 19.443 40.258 41.788 41.788-1.53-22.345-19.443-40.258-41.788-41.788zm-6.212 0c-22.345 1.53-40.258 19.443-41.788 41.788 22.345-1.53 40.258-19.443 41.788-41.788z"/><path d="m101 131c-28.122 0-51-22.878-51-51s22.878-51 51-51 51 22.878 51 51-22.878 51-51 51zm0-96c-24.813 0-45 20.187-45 45s20.187 45 45 45 45-20.187 45-45-20.187-45-45-45z"/><circle cx="113" cy="200" r="3.941"/><circle cx="113" cy="214" r="3.941"/><circle cx="113" cy="186" r="3.941"/><path d="m101 227c-1.657 0-3-1.343-3-3v-46.146l-22.342-11.171c-1.016-.508-1.658-1.547-1.658-2.683v-10.797l-17.169-17.975c-1.145-1.198-1.101-3.097.097-4.242s3.098-1.101 4.242.097l18 18.844c.533.559.83 1.301.83 2.073v10.146l22.342 11.171c1.016.508 1.658 1.547 1.658 2.683v48c0 1.657-1.343 3-3 3z"/><path d="m101 227c-1.657 0-3-1.343-3-3v-48c0-1.136.642-2.175 1.658-2.683l22.342-11.171v-10.146c0-.772.297-1.514.831-2.072l18-18.844c1.144-1.197 3.043-1.242 4.242-.097s1.242 3.043.097 4.242l-17.17 17.974v10.797c0 1.136-.642 2.175-1.658 2.683l-22.342 11.171v46.146c0 1.657-1.343 3-3 3z"/></g><path d="m199.679 155.999-17.04 4.715v50.569l17.04 4.716z" fill="#4b67b0"/><path d="m146.054 170.837v30.323l17.307 4.789v-39.901z" fill="#89aadb"/><path d="m163.361 166.048v39.901l19.278 5.334v-50.569z" fill="#6287c5"/><path d="m133.042 197.396v-22.795c0-2.079 1.685-3.764 3.764-3.764h-4.059c-4.279 0-7.748 3.469-7.748 7.748v14.827c0 4.279 3.469 7.748 7.748 7.748h4.059c-2.078 0-3.764-1.685-3.764-3.764z" fill="#ede49d"/><path d="m138.011 170.837h8.042v30.322h-8.042z" fill="#d3ba2a"/><path d="m136.806 170.837c-2.079 0-3.764 1.685-3.764 3.764v22.795c0 2.079 1.685 3.764 3.764 3.764h1.205v-30.322h-1.205z" fill="#eee045"/><path d="m146.054 204.16h-13.306c-5.926 0-10.748-4.821-10.748-10.748v-14.827c0-5.926 4.821-10.748 10.748-10.748h13.306c1.657 0 3 1.343 3 3v30.322c0 1.657-1.344 3.001-3 3.001zm-13.306-30.323c-2.618 0-4.748 2.13-4.748 4.748v14.827c0 2.618 2.13 4.748 4.748 4.748h10.306v-24.322h-10.306z" fill="#1c2d6b"/><path d="m199.679 218.999c-.268 0-.537-.036-.8-.109l-53.625-14.839c-1.3-.359-2.2-1.542-2.2-2.891v-30.322c0-1.349.9-2.532 2.2-2.891l53.625-14.839c.901-.251 1.871-.064 2.617.503s1.184 1.451 1.184 2.388v60c0 .937-.438 1.82-1.184 2.388-.529.401-1.168.612-1.817.612zm-50.625-20.122 47.625 13.179v-52.114l-47.625 13.179z" fill="#1c2d6b"/><path d="m199.679 155.999h5.858v60h-5.858z" fill="#ede49d"/><path d="m210 155.999h-3.284c1.339 0 2.425 1.086 2.425 2.425v55.149c0 1.34-1.086 2.425-2.425 2.425h3.284c2.761 0 5-2.239 5-5v-50c0-2.761-2.239-4.999-5-4.999z" fill="#d3ba2a"/><path d="m209.142 213.573v-55.149c0-1.339-1.086-2.425-2.425-2.425h-1.18v60h1.18c1.339 0 2.425-1.086 2.425-2.426z" fill="#eee045"/><path d="m210 218.999h-10.321c-1.657 0-3-1.343-3-3v-60c0-1.657 1.343-3 3-3h10.321c4.411 0 8 3.589 8 8v50c0 4.411-3.589 8-8 8zm-7.321-6h7.321c1.103 0 2-.897 2-2v-50c0-1.103-.897-2-2-2h-7.321z" fill="#1c2d6b"/><path d="m153.545 214.946h-6.491c-.552 0-1-.448-1-1v-12.786h-9.054v12.84c0 5.523 4.477 10 10 10h10.234c-1.929 0-3.513-3.975-3.689-9.054z" fill="#ef7f72"/><path d="m180.473 210.684v3.262c0 .552-.448 1-1 1h-6.491c-.177 5.079-1.76 9.054-3.69 9.054h10.234c5.523 0 10-4.477 10-10v-.811z" fill="#e8383b"/><path d="m172.982 214.946h-3.709-12.019-3.709c.177 5.079 1.76 9.054 3.69 9.054h12.059c1.928 0 3.511-3.975 3.688-9.054z" fill="#e95947"/><path d="m179.527 227h-32.527c-7.168 0-13-5.832-13-13v-12.84c0-1.657 1.343-3 3-3h9.054c1.657 0 3 1.343 3 3v10.787h28.419v-1.262c0-.937.438-1.82 1.184-2.388s1.713-.753 2.617-.503l9.054 2.505c1.3.359 2.2 1.542 2.2 2.891v.81c-.001 7.168-5.833 13-13.001 13zm-39.527-22.84v9.84c0 3.86 3.14 7 7 7h32.527c3.369 0 6.19-2.393 6.853-5.569l-2.962-.819c-.318 1.89-1.966 3.334-3.945 3.334h-32.419c-2.206 0-4-1.794-4-4v-9.787h-3.054z" fill="#1c2d6b"/><path d="m120.412 146.322h-9.335c-.326 0-.639-.027-.87-.076l-4.131-1.176c-.448.12-1.138.199-1.921.199h-6.308c-.784 0-1.474-.079-1.921-.199l-4.131 1.176c-.231.048-.544.076-.87.076h-9.335c-.68 0-1.231-.116-1.231-.258v7.279c0 .68.551 1.231 1.231 1.231h9.335c.326 0 .639-.13.87-.36l4.131-5.606c.448.574 1.138.949 1.921.949h6.308c.784 0 1.474-.375 1.921-.949l4.131 5.606c.231.231.544.36.87.36h9.335c.68 0 1.231-.551 1.231-1.231v-7.279c-.001.142-.552.258-1.231.258z" fill="#e8383b"/><path d="m120.412 133.69h-9.335c-.326 0-.639.13-.87.36l-4.082 5.314c-.445-.609-1.159-1.009-1.971-1.009h-6.308c-.812 0-1.526.4-1.971 1.009l-4.082-5.314c-.231-.231-.544-.36-.87-.36h-9.335c-.68 0-1.231.551-1.231 1.231v7.279c0-.143.551-.258 1.231-.258h9.335c.326 0 .639.027.87.076l4.082 1.115c.445-.128 1.159-.212 1.971-.212h6.308c.812 0 1.526.084 1.971.212l4.082-1.115c.231-.048.544-.076.87-.076h9.335c.68 0 1.231.116 1.231.258v-7.279c-.001-.68-.552-1.231-1.231-1.231z" fill="#ef7f72"/><path d="m120.412 141.942h-9.335c-.326 0-.639.027-.87.076l-4.082 1.115c-.445-.128-1.159-.212-1.971-.212h-6.308c-.812 0-1.526.084-1.971.212l-4.082-1.115c-.231-.048-.544-.076-.87-.076h-9.335c-.68 0-1.231.116-1.231.258v3.864c0 .143.551.258 1.231.258h9.335c.326 0 .639-.027.87-.076l4.131-1.176c.448.12 1.138.199 1.921.199h6.308c.784 0 1.474-.079 1.921-.199l4.131 1.176c.231.048.544.076.87.076h9.335c.68 0 1.231-.116 1.231-.258v-3.864c.001-.143-.55-.258-1.229-.258z" fill="#e95947"/><path d="m90.92 157.57h-9.33c-2.333 0-4.23-1.898-4.23-4.23v-18.42c0-2.333 1.897-4.23 4.23-4.23h9.33c1.129 0 2.19.439 2.989 1.236.093.093.18.191.26.296l4.08 5.31c.772 1.005.826 2.382.151 3.44v5.949c.713 1.046.694 2.438-.065 3.469l-4.13 5.6c-.089.121-.187.234-.293.34-.8.8-1.862 1.24-2.992 1.24zm-7.56-6h6.649l2.499-3.389c-.072-.352-.108-.711-.108-1.072v-6.31c0-.311.027-.621.081-.927l-2.446-3.183h-6.675zm14.94-10.451s0 .001 0 0z" fill="#1c2d6b"/><path d="m120.41 157.57h-9.33c-1.13 0-2.192-.44-2.991-1.239-.106-.106-.204-.22-.293-.34l-4.13-5.6c-.76-1.031-.778-2.422-.065-3.469v-5.949c-.675-1.059-.622-2.435.151-3.44l4.08-5.31c.08-.104.167-.203.26-.296.799-.797 1.86-1.236 2.989-1.236h9.33c2.333 0 4.23 1.897 4.23 4.23v18.42c-.001 2.331-1.898 4.229-4.231 4.229zm-8.419-6h6.649v-14.88h-6.675l-2.446 3.183c.054.306.081.616.081.927v6.31c0 .36-.037.72-.108 1.072zm-8.291-10.451s0 .001 0 0z" fill="#1c2d6b"/><path d="m104.154 152.556h-6.308c-3.003 0-5.446-2.443-5.446-5.446v-6.308c0-3.003 2.443-5.446 5.446-5.446h6.308c3.003 0 5.446 2.443 5.446 5.446v6.308c0 3.003-2.443 5.446-5.446 5.446zm-5.754-6h5.2v-5.2h-5.2z" fill="#1c2d6b"/></svg>