<svg id="Layer_1" enable-background="new 0 0 256 256" height="512" viewBox="0 0 256 256" width="512" xmlns="http://www.w3.org/2000/svg"><path d="m207.377 203.4v-60.318c0-3.226 2.615-5.841 5.841-5.841h-7.7c-5.523 0-10 4.477-10 10v52c0 5.523 4.477 10 10 10h7.7c-3.226-.001-5.841-2.616-5.841-5.841z" fill="#89aadb"/><path d="m219.658 137.24h11.859v72h-11.859z" fill="#4b67b0"/><path d="m213.218 137.24c-3.226 0-5.841 2.615-5.841 5.841v60.319c0 3.226 2.615 5.841 5.841 5.841h6.44v-72h-6.44z" fill="#6287c5"/><path d="m231.518 212.24h-26c-7.168 0-13-5.832-13-13v-52c0-7.168 5.832-13 13-13h26c1.657 0 3 1.343 3 3v72c0 1.657-1.343 3-3 3zm-26-72c-3.859 0-7 3.141-7 7v52c0 3.859 3.141 7 7 7h23v-66z" fill="#1c2d6b"/><path d="m142.52 134.329-16.971 16.97 33.941 33.941h.716l-13.486-46.711z" fill="#ede49d"/><path d="m171.518 161.24h24v24h-24z" fill="#d3ba2a"/><path d="m169.431 161.24-22.711-22.711 13.486 46.711h11.312v-24z" fill="#eee045"/><path d="m195.518 188.24h-36.028c-.796 0-1.559-.316-2.121-.879l-33.941-33.941c-.562-.562-.879-1.325-.879-2.121s.316-1.559.879-2.121l16.971-16.97c1.172-1.172 3.07-1.172 4.242 0l26.033 26.032h24.844c1.657 0 3 1.343 3 3v24c0 1.657-1.343 3-3 3zm-34.786-6h31.785v-18h-23.086c-.796 0-1.559-.316-2.121-.879l-24.791-24.79-12.728 12.728z" fill="#1c2d6b"/><path d="m66.866 155.756h47.859v24h-47.859z" fill="#a4d4a0" transform="matrix(.866 -.5 .5 .866 -71.714 67.873)"/><path d="m150.126 107.686h47.859v24h-47.859z" fill="#419b46" transform="matrix(.866 -.5 .5 .866 -36.524 103.063)"/><path d="m108.285 131.721h48.281v24h-48.281z" fill="#65bc49" transform="matrix(.866 -.5 .5 .866 -54.119 85.468)"/><path d="m76.075 193.114c-1.037 0-2.045-.538-2.601-1.501l-12-20.784c-.398-.689-.506-1.508-.3-2.276s.708-1.424 1.397-1.821l124.707-72c1.438-.829 3.27-.337 4.098 1.098l12 20.784c.398.689.506 1.508.3 2.276s-.708 1.424-1.397 1.821l-124.707 72c-.472.273-.988.403-1.497.403zm-7.905-22.687 9 15.589 119.512-69-9-15.589z" fill="#1c2d6b"/><path d="m136.387 58.544h60v48h-60z" fill="#e8383b" transform="matrix(.866 -.5 .5 .866 -18.981 94.252)"/><path d="m24.482 136.76 39.59 32.569 41.568-24-29.196-38.569z" fill="#ef7f72"/><path d="m76.444 106.76 29.196 38.569 46.766-27-24-41.569z" fill="#e95947"/><path d="m64.073 172.329c-.681 0-1.357-.231-1.907-.684l-39.59-32.568c-.76-.625-1.165-1.583-1.084-2.563s.638-1.859 1.49-2.351l155.886-90.001c.689-.397 1.509-.506 2.276-.3.769.206 1.424.708 1.821 1.397l24 41.569c.829 1.435.337 3.27-1.098 4.098l-140.296 81c-.466.27-.983.403-1.498.403zm-34.342-35.135 34.642 28.497 135.897-78.46-21-36.374z" fill="#1c2d6b"/><path d="m133.303 87.426h20.743v14.071h-20.743z" fill="#ede49d" transform="matrix(.866 -.5 .5 .866 -27.982 84.493)"/><path d="m172.497 64.797h20.743v14.071h-20.743z" fill="#d3ba2a" transform="matrix(.866 -.5 .5 .866 -11.417 101.058)"/><path d="m151.014 76.112h24.515v14.071h-24.515z" fill="#eee045" transform="matrix(.866 -.5 .5 .866 -19.7 92.775)"/><path d="m138.21 108.74c-.26 0-.521-.034-.776-.103-.769-.206-1.424-.708-1.821-1.397l-7.035-12.186c-.829-1.435-.337-3.27 1.098-4.098l57.157-33c1.437-.83 3.271-.337 4.098 1.098l7.036 12.186c.398.688.506 1.508.3 2.276s-.708 1.424-1.397 1.821l-57.158 33c-.462.267-.98.403-1.502.403zm-2.938-14.088 4.035 6.99 51.962-30-4.035-6.99z" fill="#1c2d6b"/><path d="m38.218 150.412h8.491v42h-8.491z" fill="#ede49d" transform="matrix(.866 -.5 .5 .866 -80.017 44.197)"/><path d="m39.328 148.974-.459.265 17.85 24.335 6 10.393 7.353-4.246-6-10.392z" fill="#d3ba2a"/><path d="m38.869 149.239-3.229 1.864 21 36.373 6.079-3.509-6-10.393z" fill="#eee045"/><path d="m49.29 194.722c-1.037 0-2.045-.538-2.601-1.501l-21-36.373c-.398-.689-.506-1.508-.3-2.276s.708-1.424 1.397-1.821l11.041-6.374c1.085-.626 2.441-.513 3.406.281l24.744 20.355c.277.229.512.505.691.816l6 10.392c.398.689.506 1.508.3 2.276s-.708 1.424-1.397 1.821l-20.785 12c-.472.274-.987.404-1.496.404zm-16.905-38.276 18 31.177 15.589-9-4.228-7.322-22.719-18.689z" fill="#1c2d6b"/></svg>