<svg id="Layer_1" enable-background="new 0 0 256 256" height="512" viewBox="0 0 256 256" width="512" xmlns="http://www.w3.org/2000/svg"><path d="m11.187 133.953h48.069v17.337h-48.069z" fill="#ef7f72"/><path d="m131.118 133.953h48.069v17.337h-48.069z" fill="#e8383b"/><path d="m59.256 133.953h71.862v17.337h-71.862z" fill="#e95947"/><path d="m125.688 37.953h48.159v96h-48.159z" fill="#d3ba2a"/><path d="m17.331 37.953h48.159v96h-48.159z" fill="#ede49d"/><path d="m65.49 37.953h60.198v96h-60.198z" fill="#eee045"/><path d="m173.847 136.953h-156.516c-1.657 0-3-1.343-3-3v-96c0-1.657 1.343-3 3-3h156.516c1.657 0 3 1.343 3 3v96c0 1.656-1.343 3-3 3zm-153.516-6h150.516v-90h-150.516z" fill="#1c2d6b"/><path d="m179.188 154.29h-168c-1.657 0-3-1.343-3-3v-17.337c0-1.657 1.343-3 3-3h168c1.657 0 3 1.343 3 3v17.337c0 1.657-1.343 3-3 3zm-165.001-6h162v-11.337h-162v11.337z" fill="#1c2d6b"/><path d="m197.33 80.841c-21.616 0-39.138 17.523-39.138 39.138v31.311h15.655v12.663h5.341v-43.974c-.001-21.615 8.122-39.138 18.142-39.138z" fill="#a4d4a0"/><path d="m197.33 80.841c10.02 0 18.142 17.523 18.142 39.138v43.974h5.341v-12.663h15.655v-31.311c0-21.615-17.523-39.138-39.138-39.138z" fill="#419b46"/><path d="m197.33 80.841c-10.02 0-18.143 17.523-18.143 39.138v43.974h36.285v-43.974c0-21.615-8.122-39.138-18.142-39.138z" fill="#65bc49"/><path d="m236.468 154.29h-15.655c-1.657 0-3-1.343-3-3s1.343-3 3-3h12.655v-28.311c0-19.927-16.211-36.139-36.138-36.139s-36.139 16.212-36.139 36.139v28.311h12.655c1.657 0 3 1.343 3 3s-1.343 3-3 3h-15.655c-1.657 0-3-1.343-3-3v-31.311c0-23.235 18.903-42.139 42.139-42.139 23.234 0 42.138 18.903 42.138 42.139v31.311c0 1.657-1.343 3-3 3z" fill="#1c2d6b"/><path d="m185.588 86.384 11.742 33.595-3.653-33.595z" fill="#ef7f72"/><path d="m200.983 86.384-3.653 33.595 11.741-33.595z" fill="#e8383b"/><path d="m193.677 86.384 3.653 33.595 3.653-33.595z" fill="#e95947"/><path d="m197.33 122.979c-1.275 0-2.411-.806-2.832-2.01l-11.742-33.596c-.547-1.564.278-3.275 1.842-3.822 1.568-.546 3.275.278 3.822 1.842l8.91 25.493 8.909-25.493c.547-1.563 2.256-2.388 3.822-1.842 1.563.546 2.389 2.258 1.842 3.822l-11.741 33.596c-.421 1.204-1.557 2.01-2.832 2.01z" fill="#1c2d6b"/><path d="m197.33 166.953c-1.657 0-3-1.343-3-3v-43.973c0-1.657 1.343-3 3-3s3 1.343 3 3v43.973c0 1.656-1.343 3-3 3z" fill="#1c2d6b"/><path d="m220.812 166.953h-46.966c-1.657 0-3-1.343-3-3v-43.973c0-1.657 1.343-3 3-3s3 1.343 3 3v40.973h40.966v-40.973c0-1.657 1.343-3 3-3s3 1.343 3 3v43.973c0 1.656-1.342 3-3 3z" fill="#1c2d6b"/><path d="m186.893 57.358c0-17.292 4.673-31.311 10.437-31.311-17.292 0-31.311 14.018-31.311 31.311s14.018 31.311 31.311 31.311c-5.764 0-10.437-14.019-10.437-31.311z" fill="#ede49d"/><path d="m197.33 26.047c5.764 0 10.437 14.018 10.437 31.311s-4.673 31.311-10.437 31.311c17.293 0 31.311-14.018 31.311-31.311s-14.019-31.311-31.311-31.311z" fill="#d3ba2a"/><ellipse cx="197.33" cy="57.358" fill="#eee045" rx="10.437" ry="31.311"/><circle cx="186.893" cy="63.844" fill="#1c2d6b" r="2.571"/><circle cx="207.767" cy="63.844" fill="#1c2d6b" r="2.571"/><path d="m197.33 73.21c-2.389 0-4.618-1.286-5.817-3.355-.415-.716-.171-1.634.546-2.05.715-.415 1.635-.171 2.05.546.664 1.146 1.899 1.859 3.222 1.859s2.557-.712 3.221-1.858c.415-.718 1.333-.959 2.05-.547.717.415.961 1.333.546 2.05-1.2 2.069-3.428 3.355-5.818 3.355z" fill="#1c2d6b"/><path d="m197.33 26.047c-17.292 0-31.311 14.018-31.311 31.311 8.204 0 15.667-3.159 21.249-8.322 1.216-13.251 5.258-22.989 10.062-22.989z" fill="#89aadb"/><path d="m207.391 49.036c5.583 5.163 13.046 8.322 21.249 8.322 0-17.292-14.018-31.311-31.311-31.311 4.804 0 8.847 9.738 10.062 22.989z" fill="#4b67b0"/><path d="m197.33 26.047c0 9.089 3.876 17.269 10.061 22.989-1.215-13.251-5.258-22.989-10.061-22.989s-8.846 9.738-10.061 22.989c6.184-5.72 10.061-13.9 10.061-22.989z" fill="#6287c5"/><g fill="#1c2d6b"><path d="m228.641 60.358c-13.925 0-25.938-8.337-31.311-20.283-5.373 11.946-17.387 20.283-31.312 20.283-1.657 0-3-1.343-3-3 0-18.919 15.393-34.311 34.312-34.311s34.311 15.392 34.311 34.311c0 1.657-1.343 3-3 3zm-34.488-31.133c-13.078 1.467-23.49 11.878-24.958 24.956 13.078-1.467 23.491-11.879 24.958-24.956zm6.354 0c1.467 13.078 11.879 23.489 24.957 24.956-1.467-13.078-11.879-23.49-24.957-24.956z"/><path d="m197.33 91.668c-18.919 0-34.312-15.392-34.312-34.311s15.393-34.311 34.312-34.311 34.311 15.392 34.311 34.311-15.392 34.311-34.311 34.311zm0-62.621c-15.611 0-28.312 12.7-28.312 28.311s12.7 28.311 28.312 28.311c15.61 0 28.311-12.7 28.311-28.311s-12.701-28.311-28.311-28.311z"/><circle cx="205.157" cy="135.635" r="2.571"/><circle cx="205.157" cy="144.767" r="2.571"/><circle cx="205.157" cy="126.502" r="2.571"/></g><path d="m173.847 163.953h15.655v54h-15.655z" fill="#89aadb"/><path d="m205.157 163.953h15.655v54h-15.655z" fill="#4b67b0"/><path d="m189.502 163.953h15.655v54h-15.655z" fill="#6287c5"/><path d="m220.812 220.953h-46.966c-1.657 0-3-1.343-3-3v-54c0-1.657 1.343-3 3-3h46.966c1.657 0 3 1.343 3 3v54c0 1.656-1.342 3-3 3zm-43.965-6h40.966v-48h-40.966z" fill="#1c2d6b"/><path d="m197.331 220.953c-1.65 0-2.992-1.333-3-2.986l-.259-54c-.008-1.657 1.329-3.006 2.985-3.014h.015c1.65 0 2.992 1.333 3 2.986l.259 54c.008 1.657-1.329 3.006-2.985 3.014-.005 0-.01 0-.015 0z" fill="#1c2d6b"/><path d="m185.459 217.953h-6.128c-6.627 0-12 5.373-12 12h11.931v-5.803c0-3.423 2.774-6.197 6.197-6.197z" fill="#ef7f72"/><path d="m187.262 217.953h10.069v12h-10.069z" fill="#e8383b"/><path d="m185.459 217.953c-3.422 0-6.197 2.774-6.197 6.197v5.803h8v-12z" fill="#e95947"/><path d="m209.203 217.953h6.128c6.627 0 12 5.373 12 12h-11.931v-5.803c0-3.423-2.774-6.197-6.197-6.197z" fill="#ef7f72"/><path d="m197.331 217.953h10.069v12h-10.069z" fill="#e8383b"/><path d="m209.203 217.953c3.422 0 6.197 2.774 6.197 6.197v5.803h-8v-12z" fill="#e95947"/><path d="m197.331 232.953h-30c-1.657 0-3-1.343-3-3 0-8.271 6.729-15 15-15h18c1.657 0 3 1.343 3 3v12c0 1.656-1.343 3-3 3zm-26.486-6h23.486v-6h-15c-3.911 0-7.248 2.507-8.486 6z" fill="#1c2d6b"/><path d="m227.331 232.953h-30c-1.657 0-3-1.343-3-3v-12c0-1.657 1.343-3 3-3h18c8.271 0 15 6.729 15 15 0 1.656-1.343 3-3 3zm-27-6h23.486c-1.238-3.492-4.575-6-8.486-6h-15z" fill="#1c2d6b"/><path d="m165.251 151.29h-2.742c-6.994 0-12.663 5.669-12.663 12.663h10.352v-7.61c0-2.791 2.263-5.053 5.053-5.053z" fill="#ede49d"/><path d="m165.251 151.29h8.596v12.663h-8.596z" fill="#d3ba2a"/><path d="m160.198 156.343v7.61h5.053v-12.663c-2.79 0-5.053 2.262-5.053 5.053z" fill="#eee045"/><path d="m173.847 166.953h-24c-1.657 0-3-1.343-3-3 0-8.636 7.026-15.663 15.663-15.663h11.337c1.657 0 3 1.343 3 3v12.663c0 1.656-1.343 3-3 3zm-20.524-6h17.523v-6.663h-8.337c-4.28 0-7.921 2.799-9.186 6.663z" fill="#1c2d6b"/><path d="m229.408 151.29h2.742c6.994 0 12.663 5.669 12.663 12.663h-10.352v-7.61c0-2.791-2.262-5.053-5.053-5.053z" fill="#ede49d"/><path d="m220.813 151.29h8.596v12.663h-8.596z" fill="#d3ba2a"/><path d="m234.461 156.343v7.61h-5.053v-12.663c2.791 0 5.053 2.262 5.053 5.053z" fill="#eee045"/><path d="m244.812 166.953h-24c-1.657 0-3-1.343-3-3v-12.663c0-1.657 1.343-3 3-3h11.338c8.636 0 15.662 7.026 15.662 15.663 0 1.656-1.342 3-3 3zm-21-6h17.523c-1.265-3.864-4.904-6.663-9.186-6.663h-8.338v6.663z" fill="#1c2d6b"/><path d="m197.328 122.98c-.406 0-.819-.083-1.215-.259l-17.774-7.888c-1.06-.47-1.753-1.508-1.782-2.667l-.205-8.131-7.175-12.149c-.843-1.426-.369-3.266 1.058-4.108 1.427-.841 3.267-.369 4.108 1.058l7.571 12.82c.26.44.403.939.416 1.45l.177 7.013 16.04 7.119c1.515.672 2.197 2.445 1.525 3.959-.497 1.118-1.593 1.783-2.744 1.783z" fill="#1c2d6b"/><path d="m197.332 122.98c-1.15 0-2.247-.665-2.744-1.784-.672-1.514.011-3.287 1.525-3.959l16.039-7.118.177-7.013c.013-.511.156-1.01.416-1.45l7.571-12.82c.843-1.426 2.683-1.9 4.108-1.058 1.427.842 1.9 2.682 1.058 4.108l-7.175 12.149-.205 8.131c-.029 1.158-.723 2.196-1.782 2.667l-17.773 7.888c-.396.176-.809.259-1.215.259z" fill="#1c2d6b"/><path d="m68.331 151.29-24 78h12l24-78z" fill="#65bc49"/><path d="m122.331 151.29 24 78h-12l-24-78z" fill="#65bc49"/><path d="m56.331 232.29h-12c-.952 0-1.848-.452-2.413-1.218-.566-.766-.734-1.754-.454-2.665l24-78c.387-1.259 1.55-2.118 2.867-2.118h12c.952 0 1.848.452 2.413 1.218.566.766.734 1.754.454 2.665l-24 78c-.387 1.259-1.55 2.118-2.867 2.118zm-7.938-6h5.722l22.154-72h-5.722z" fill="#1c2d6b"/><path d="m146.331 232.29h-12c-1.317 0-2.48-.859-2.867-2.118l-24-78c-.28-.91-.112-1.899.454-2.665.565-.766 1.461-1.218 2.413-1.218h12c1.317 0 2.48.859 2.867 2.118l24 78c.28.91.111 1.899-.454 2.665s-1.461 1.218-2.413 1.218zm-9.784-6h5.723l-22.154-72h-5.722z" fill="#1c2d6b"/><path d="m158.191 119.065h-122.86c-1.657 0-3-1.343-3-3s1.343-3 3-3h122.86c1.657 0 3 1.343 3 3s-1.342 3-3 3z" fill="#1c2d6b"/><path d="m35.333 106.953c-.898 0-1.788-.402-2.378-1.169-1.011-1.312-.767-3.196.545-4.208l30-23.112c1.047-.806 2.497-.833 3.573-.066l21.299 15.187 22.354-39.12c.516-.903 1.462-1.474 2.502-1.51 1.011-.057 2.022.469 2.599 1.334l22.394 33.589 15.534-9.59c1.411-.871 3.258-.433 4.129.977.87 1.41.433 3.258-.977 4.128l-18 11.112c-1.375.85-3.176.456-4.072-.889l-21.308-31.961-21.591 37.786c-.421.736-1.133 1.26-1.961 1.442-.831.182-1.695.004-2.385-.487l-22.19-15.821-28.238 21.754c-.545.421-1.19.624-1.829.624z" fill="#1c2d6b"/><circle cx="65.331" cy="80.84" fill="#e95947" r="6"/><path d="m65.331 89.84c-4.962 0-9-4.038-9-9s4.038-9 9-9 9 4.038 9 9-4.038 9-9 9zm0-12c-1.654 0-3 1.346-3 3s1.346 3 3 3 3-1.346 3-3-1.346-3-3-3z" fill="#1c2d6b"/><circle cx="89.331" cy="97.953" fill="#e95947" r="6"/><path d="m89.331 106.953c-4.962 0-9-4.038-9-9s4.038-9 9-9 9 4.038 9 9-4.038 9-9 9zm0-12c-1.654 0-3 1.346-3 3s1.346 3 3 3 3-1.346 3-3-1.346-3-3-3z" fill="#1c2d6b"/><circle cx="113.331" cy="55.953" fill="#e95947" r="6"/><path d="m113.331 64.953c-4.962 0-9-4.038-9-9s4.038-9 9-9 9 4.038 9 9-4.038 9-9 9zm0-12c-1.654 0-3 1.346-3 3s1.346 3 3 3 3-1.346 3-3-1.346-3-3-3z" fill="#1c2d6b"/><circle cx="137.331" cy="91.953" fill="#e95947" r="6"/><path d="m137.331 100.953c-4.963 0-9-4.038-9-9s4.037-9 9-9 9 4.038 9 9-4.037 9-9 9zm0-12c-1.654 0-3 1.346-3 3s1.346 3 3 3 3-1.346 3-3-1.346-3-3-3z" fill="#1c2d6b"/></svg>