<svg id="Layer_1" enable-background="new 0 0 256 256" height="512" viewBox="0 0 256 256" width="512" xmlns="http://www.w3.org/2000/svg"><path d="m179.864 207.417-6.334-8.607c-12.407 10.141-28.256 16.23-45.53 16.23-17.487 0-33.514-6.238-45.988-16.605l-6.202 8.248c15.39 11.234 33.77 17.357 52.517 17.357 18.617 0 36.281-5.723 51.537-16.623z" fill="#ef7f72"/><path d="m72.205 211.477-4.63 6.157c16.501 13.383 37.525 21.406 60.425 21.406 22.599 0 43.37-7.813 59.771-20.879l-4.35-5.912c-16.291 11.664-35.175 17.791-55.093 17.791-20.051 0-39.696-6.55-56.123-18.563z" fill="#e8383b"/><path d="m128.327 224.04c-18.747 0-37.127-6.123-52.517-17.357l-3.605 4.794c16.427 12.013 36.071 18.563 56.122 18.563 19.918 0 38.802-6.127 55.093-17.791l-3.556-4.832c-15.256 10.9-32.92 16.623-51.537 16.623z" fill="#e95947"/><path d="m86.696 65.5-4.082-7.07c-23.447 12.604-41.05 34.667-47.706 61.084l7.536 1.419c7.404-23.18 23.197-42.991 44.252-55.433z" fill="#ef7f72"/><path d="m49.378 122.239 9.194 1.731c5.324-19.424 18.571-35.56 36.058-44.726l-4.435-7.681c-19.298 11.422-33.834 29.504-40.817 50.676z" fill="#e8383b"/><path d="m90.196 71.562-3.5-6.062c-21.055 12.442-36.849 32.253-44.252 55.433l6.934 1.305c6.983-21.171 21.519-39.253 40.818-50.676z" fill="#e95947"/><path d="m169.751 65.5 4.082-7.07c23.447 12.604 41.05 34.667 47.706 61.084l-7.536 1.419c-7.404-23.18-23.197-42.991-44.252-55.433z" fill="#ef7f72"/><path d="m207.069 122.239-9.194 1.731c-5.324-19.424-18.571-35.56-36.058-44.726l4.435-7.681c19.298 11.422 33.833 29.504 40.817 50.676z" fill="#e8383b"/><path d="m166.251 71.562 3.5-6.062c21.055 12.442 36.849 32.253 44.252 55.433l-6.934 1.305c-6.984-21.171-21.519-39.253-40.818-50.676z" fill="#e95947"/><path d="m40.093 186.344c0-7.586 1.273-14.233 3.182-17.94-1.262-3.217-2.069-8.134-2.069-13.647 0-9.692 2.493-17.549 5.568-17.549-9.692 0-17.549 7.857-17.549 17.549 0 5.513 2.545 10.43 6.521 13.647-6.017 3.707-10.031 10.354-10.031 17.94v3.51 7.019h14.377v-7.019-3.51z" fill="#89aadb"/><path d="m57.802 168.404c3.976-3.217 6.521-8.134 6.521-13.647 0-9.692-7.857-17.549-17.549-17.549 3.075 0 5.568 7.857 5.568 17.549 0 5.513-.807 10.43-2.069 13.647 1.909 3.707 3.182 10.354 3.182 17.94v3.51 7.019h14.377v-7.019-3.51c.001-7.587-4.012-14.234-10.03-17.94z" fill="#4b67b0"/><path d="m53.455 186.344c0-7.586-1.273-14.233-3.182-17.94 1.262-3.217 2.069-8.134 2.069-13.647 0-9.692-2.493-17.549-5.568-17.549-3.075 0-5.568 7.857-5.568 17.549 0 5.513.807 10.43 2.069 13.647-1.909 3.707-3.182 10.354-3.182 17.94v3.51 7.019h13.362v-7.019z" fill="#6287c5"/><path d="m46.774 175.305c-11.331 0-20.549-9.218-20.549-20.548s9.218-20.549 20.549-20.549 20.549 9.218 20.549 20.549-9.218 20.548-20.549 20.548zm0-35.097c-8.022 0-14.549 6.526-14.549 14.549 0 8.022 6.526 14.548 14.549 14.548s14.549-6.526 14.549-14.548c0-8.023-6.526-14.549-14.549-14.549z" fill="#1c2d6b"/><path d="m67.833 199.873h-42.117c-1.657 0-3-1.343-3-3v-10.529c0-8.413 4.283-16.075 11.457-20.495 1.082-.667 2.47-.579 3.46.222 2.615 2.116 5.776 3.234 9.142 3.234s6.526-1.118 9.141-3.233c.99-.802 2.378-.889 3.46-.222 7.175 4.42 11.458 12.081 11.458 20.495v10.529c-.001 1.656-1.344 2.999-3.001 2.999zm-39.117-6h36.117v-7.529c0-5.659-2.583-10.865-6.996-14.274-3.287 2.099-7.14 3.235-11.062 3.235s-7.775-1.137-11.063-3.235c-4.412 3.409-6.995 8.616-6.995 14.274v7.529z" fill="#1c2d6b"/><path d="m202.545 186.344c0-7.586 1.273-14.233 3.182-17.94-1.262-3.217-2.069-8.134-2.069-13.647 0-9.692 2.493-17.549 5.568-17.549-9.692 0-17.549 7.857-17.549 17.549 0 5.513 2.544 10.43 6.521 13.647-6.018 3.707-10.031 10.354-10.031 17.94v3.51 7.019h14.377v-7.019-3.51z" fill="#89aadb"/><path d="m220.253 168.404c3.976-3.217 6.521-8.134 6.521-13.647 0-9.692-7.857-17.549-17.549-17.549 3.075 0 5.568 7.857 5.568 17.549 0 5.513-.807 10.43-2.069 13.647 1.909 3.707 3.182 10.354 3.182 17.94v3.51 7.019h14.377v-7.019-3.51c.001-7.587-4.012-14.234-10.03-17.94z" fill="#4b67b0"/><path d="m215.907 186.344c0-7.586-1.273-14.233-3.182-17.94 1.262-3.217 2.069-8.134 2.069-13.647 0-9.692-2.493-17.549-5.568-17.549-3.075 0-5.568 7.857-5.568 17.549 0 5.513.807 10.43 2.069 13.647-1.909 3.707-3.182 10.354-3.182 17.94v3.51 7.019h13.362v-7.019z" fill="#6287c5"/><path d="m209.226 175.305c-11.331 0-20.549-9.218-20.549-20.548s9.218-20.549 20.549-20.549 20.549 9.218 20.549 20.549-9.218 20.548-20.549 20.548zm0-35.097c-8.022 0-14.549 6.526-14.549 14.549 0 8.022 6.526 14.548 14.549 14.548s14.549-6.526 14.549-14.548c-.001-8.023-6.527-14.549-14.549-14.549z" fill="#1c2d6b"/><path d="m230.284 199.873h-42.117c-1.657 0-3-1.343-3-3v-10.529c0-8.414 4.283-16.075 11.458-20.495 1.082-.667 2.471-.58 3.46.222 2.614 2.115 5.775 3.233 9.141 3.233s6.526-1.118 9.142-3.234c.989-.801 2.378-.888 3.46-.222 7.174 4.42 11.457 12.082 11.457 20.495v10.529c-.001 1.658-1.344 3.001-3.001 3.001zm-39.117-6h36.117v-7.529c0-5.659-2.583-10.865-6.995-14.274-3.288 2.098-7.142 3.235-11.063 3.235-3.923 0-7.775-1.137-11.062-3.235-4.413 3.409-6.996 8.616-6.996 14.274v7.529z" fill="#1c2d6b"/><path d="m121.772 66.096c0-7.586 1.273-14.233 3.182-17.94-1.262-3.217-2.069-8.134-2.069-13.647 0-9.692 2.493-17.549 5.568-17.549-9.692 0-17.549 7.857-17.549 17.549 0 5.513 2.544 10.43 6.521 13.647-6.018 3.707-10.031 10.354-10.031 17.94v3.51 7.019h14.377v-7.019-3.51z" fill="#89aadb"/><path d="m139.481 48.156c3.976-3.217 6.521-8.134 6.521-13.647 0-9.692-7.857-17.549-17.549-17.549 3.075 0 5.568 7.857 5.568 17.549 0 5.513-.807 10.43-2.069 13.647 1.909 3.707 3.182 10.354 3.182 17.94v3.51 7.019h14.377v-7.019-3.51c.001-7.586-4.012-14.233-10.03-17.94z" fill="#4b67b0"/><path d="m135.134 66.096c0-7.586-1.273-14.233-3.182-17.94 1.262-3.217 2.069-8.134 2.069-13.647 0-9.692-2.493-17.549-5.568-17.549-3.075 0-5.568 7.857-5.568 17.549 0 5.513.807 10.43 2.069 13.647-1.909 3.707-3.182 10.354-3.182 17.94v3.51 7.019h13.362v-7.019z" fill="#6287c5"/><g fill="#1c2d6b"><path d="m128.453 55.057c-11.331 0-20.549-9.218-20.549-20.549s9.218-20.548 20.549-20.548 20.549 9.218 20.549 20.548-9.218 20.549-20.549 20.549zm0-35.097c-8.022 0-14.549 6.526-14.549 14.548s6.526 14.549 14.549 14.549 14.549-6.526 14.549-14.549c0-8.022-6.526-14.548-14.549-14.548z"/><path d="m149.512 79.625h-42.117c-1.657 0-3-1.343-3-3v-10.529c0-8.414 4.283-16.075 11.458-20.494 1.081-.667 2.47-.58 3.46.222 2.614 2.115 5.775 3.233 9.141 3.233s6.527-1.118 9.142-3.233c.99-.802 2.379-.89 3.46-.222 7.174 4.418 11.457 12.08 11.457 20.494v10.529c-.001 1.657-1.344 3-3.001 3zm-39.117-6h36.117v-7.529c0-5.659-2.582-10.865-6.995-14.274-3.287 2.099-7.141 3.235-11.063 3.235s-7.775-1.137-11.062-3.235c-4.413 3.409-6.996 8.615-6.996 14.274v7.529z"/><path d="m58.575 126.97c-.185 0-.371-.017-.558-.052l-23.664-4.455c-.813-.153-1.527-.635-1.973-1.332s-.584-1.547-.382-2.349c6.77-26.867 24.7-49.828 49.195-62.994 1.427-.766 3.208-.262 4.018 1.143l12.017 20.813c.409.708.511 1.551.283 2.335-.227.785-.765 1.442-1.488 1.822-16.928 8.873-29.523 24.495-34.558 42.862-.362 1.322-1.564 2.207-2.89 2.207zm-19.925-9.804 17.811 3.353c5.612-17.822 17.827-33.041 34.042-42.425l-9.009-15.604c-20.787 12.027-36.196 31.697-42.844 54.676z"/><path d="m197.871 126.97c-1.326 0-2.527-.884-2.891-2.208-5.033-18.366-17.629-33.989-34.558-42.862-.724-.379-1.262-1.037-1.489-1.822s-.125-1.628.284-2.335l12.018-20.813c.809-1.404 2.586-1.912 4.019-1.143 24.495 13.167 42.425 36.128 49.193 62.994.202.802.063 1.652-.382 2.349s-1.159 1.179-1.973 1.332l-23.664 4.455c-.186.036-.372.053-.557.053zm-31.928-48.876c16.216 9.385 28.432 24.604 34.042 42.425l17.811-3.353c-6.646-22.979-22.056-42.649-42.843-54.677z"/><path d="m128 242.04c-22.631 0-44.762-7.84-62.313-22.076-1.254-1.017-1.479-2.843-.508-4.133l14.436-19.199c.493-.656 1.233-1.082 2.049-1.177.82-.097 1.635.148 2.266.672 12.346 10.262 27.998 15.913 44.07 15.913 15.866 0 31.361-5.523 43.632-15.553.638-.521 1.455-.755 2.274-.654.815.103 1.553.536 2.04 1.198l14.24 19.351c.956 1.299.714 3.12-.547 4.125-17.681 14.087-38.995 21.533-61.639 21.533zm-56.261-24.951c16.104 12.242 35.967 18.951 56.261 18.951 20.306 0 39.472-6.373 55.617-18.461l-10.672-14.502c-12.916 9.671-28.753 14.964-44.945 14.964-16.418 0-32.433-5.425-45.443-15.338z"/></g><path d="m149.152 179.68c.021-2.182.302-4.167.751-5.693.2-.677.324-1.524.324-2.428v-1.001c0-1.943-.525-3.518-1.172-3.518h-4.9v-48h-16.155v48h14.708c1.943 0 3.518 1.575 3.518 3.518v1.001c0 .904-.373 1.751-.972 2.428-1.35 1.526-2.191 3.511-2.255 5.693-.144 4.896 3.85 9.136 8.747 9.271.098.003.194-.006.292-.007-1.618-.183-2.933-4.397-2.886-9.264z" fill="#a4d4a0"/><path d="m160.298 119.04v48h-4.901c-.647 0-1.172 1.575-1.172 3.518v1.544c0 .817.099 1.596.269 2.234.41 1.539.657 3.488.657 5.613 0 4.897-1.303 8.869-2.925 8.991 4.867-.122 8.779-4.094 8.779-8.991 0-2.125-.739-4.074-1.971-5.613-.51-.638-.808-1.417-.808-2.234v-1.544c0-1.943 1.575-3.518 3.518-3.518h14.71v-48z" fill="#419b46"/><path d="m152.066 188.95c.054.005.107-.007.16-.011-.063.001-.126.004-.189.004.01.002.02.007.029.007z" fill="#65bc49"/><path d="m155.151 179.948c0-2.125-.246-4.074-.657-5.613-.17-.638-.269-1.417-.269-2.234v-1.544c0-1.943.525-3.518 1.172-3.518h4.901v-48h-16.142v48h4.9c.647 0 1.172 1.575 1.172 3.518v1.001c0 .904-.124 1.751-.324 2.428-.45 1.526-.73 3.511-.751 5.693-.048 4.867 1.267 9.081 2.885 9.264.063 0 .126-.003.189-.004 1.621-.122 2.924-4.094 2.924-8.991z" fill="#65bc49"/><path d="m152.004 191.954c-.113 0-.228-.001-.342-.004-3.167-.087-6.135-1.431-8.356-3.783-2.225-2.356-3.399-5.401-3.307-8.575.083-2.799 1.151-5.496 3.009-7.594.137-.154.219-.319.219-.439v-1c0-.286-.232-.518-.519-.518h-14.708c-1.657 0-3-1.343-3-3v-48c0-1.657 1.343-3 3-3h48.453c1.657 0 3 1.343 3 3v48c0 1.657-1.343 3-3 3h-14.709c-.285 0-.518.232-.518.518v1.543c0 .111.054.239.15.36 1.695 2.117 2.629 4.776 2.629 7.487 0 3.27-1.291 6.326-3.635 8.606-2.261 2.199-5.221 3.399-8.366 3.399zm-21.004-27.914h11.708c3.595 0 6.519 2.924 6.519 6.518v1c0 1.589-.612 3.157-1.725 4.415-.93 1.05-1.464 2.397-1.505 3.794-.046 1.569.547 3.089 1.671 4.278 1.12 1.186 2.597 1.862 4.16 1.905 1.642.051 3.187-.558 4.359-1.698 1.173-1.141 1.818-2.67 1.818-4.305 0-1.372-.454-2.665-1.313-3.738-.945-1.182-1.466-2.641-1.466-4.109v-1.543c0-3.594 2.924-6.518 6.518-6.518h11.709v-42h-42.453z" fill="#1c2d6b"/><path d="m101.508 119.04c.508 0 .92-1.575.92-3.518v-1.543c0-.817-.078-1.597-.211-2.234-.322-1.539-.515-3.488-.515-5.613 0-4.896 1.022-8.866 2.294-8.99-4.865.125-8.774 4.095-8.774 8.99 0 2.125.739 4.074 1.971 5.613.51.638.808 1.417.808 2.234v1.543c0 1.943-1.575 3.518-3.518 3.518h-14.483v48h17.721v-48z" fill="#ede49d"/><path d="m104.123 97.131c-.043-.004-.086.007-.128.011.051-.001.102-.003.154-.003-.009-.002-.018-.007-.026-.008z" fill="#eee045"/><path d="m140.931 134.261c-2.084-.005-4 .701-5.527 1.885-.717.556-1.578.894-2.485.894h-.548c-2.163 0-3.917-1.754-3.917-3.917v-14.083h-14.936c-1.943 0-3.518-1.575-3.518-3.518v-1c0-.904.373-1.75.972-2.427 1.349-1.525 2.19-3.51 2.255-5.691.145-4.896-3.846-9.136-8.743-9.273-.114-.003-.224.007-.337.008 1.268.191 2.298 4.402 2.26 9.265-.017 2.181-.237 4.166-.59 5.691-.157.677-.254 1.524-.254 2.427v1c0 1.943.412 3.518.92 3.518h3.905v11.3 2.783 19.834 4.857 9.226h18.064v-14.083c0-2.163 1.754-3.917 3.917-3.917.986 0 1.912.399 2.658 1.044 1.577 1.363 3.632 2.188 5.88 2.188 5.064 0 9.152-4.18 9.001-9.278-.14-4.784-4.191-8.722-8.977-8.733z" fill="#d3ba2a"/><path d="m110.389 133.123v-2.783-11.3h-3.905c-.508 0-.92-1.575-.92-3.518v-1c0-.904.098-1.75.254-2.427.353-1.525.573-3.51.59-5.691.038-4.863-.992-9.074-2.26-9.265-.052 0-.103.002-.154.003-1.272.125-2.294 4.095-2.294 8.99 0 2.125.193 4.074.515 5.613.134.638.211 1.417.211 2.234v1.543c0 1.943-.412 3.518-.92 3.518h-3.786v48h12.668v-9.226-4.857-19.834z" fill="#eee045"/><path d="m128.453 170.04h-48.453c-1.657 0-3-1.343-3-3v-48c0-1.657 1.343-3 3-3h14.482c.285 0 .518-.232.518-.518v-1.543c0-.111-.054-.238-.15-.359-1.695-2.119-2.629-4.778-2.629-7.488 0-3.271 1.292-6.328 3.637-8.608s5.435-3.472 8.712-3.393c3.166.089 6.133 1.434 8.354 3.787 2.225 2.356 3.397 5.402 3.304 8.575-.083 2.795-1.151 5.491-3.009 7.589-.136.154-.218.319-.218.439v1c0 .285.232.518.518.518h14.936c1.657 0 3 1.343 3 3v14.083c0 .506.411.917.917.917h.549c.197 0 .427-.094.646-.264 2.119-1.646 4.659-2.516 7.343-2.516h.029.001c6.411.016 11.781 5.239 11.971 11.644.097 3.277-1.106 6.375-3.387 8.724s-5.34 3.643-8.614 3.643c-2.879 0-5.664-1.036-7.842-2.917-.135-.117-.406-.314-.696-.314-.506 0-.917.412-.917.917v14.083c-.002 1.658-1.345 3.001-3.002 3.001zm-45.453-6h42.453v-11.083c0-3.814 3.103-6.917 6.917-6.917 1.655 0 3.295.63 4.619 1.774 1.088.94 2.479 1.458 3.919 1.458 1.638 0 3.169-.647 4.31-1.823 1.141-1.175 1.742-2.726 1.693-4.367-.093-3.147-2.835-5.813-5.988-5.821-.004 0-.009 0-.014 0-1.34 0-2.607.434-3.665 1.255-1.285.997-2.78 1.524-4.325 1.524h-.549c-3.814 0-6.917-3.103-6.917-6.917v-11.083h-11.936c-3.594 0-6.518-2.924-6.518-6.518v-1c0-1.589.612-3.157 1.724-4.415.93-1.05 1.464-2.396 1.505-3.792.047-1.57-.546-3.089-1.669-4.279-1.119-1.186-2.596-1.863-4.158-1.907-1.651-.049-3.189.557-4.361 1.696-1.173 1.141-1.819 2.67-1.819 4.306 0 1.373.454 2.665 1.312 3.738.945 1.18 1.467 2.64 1.467 4.109v1.543c0 3.594-2.924 6.518-6.518 6.518h-11.482z" fill="#1c2d6b"/></svg>