<svg id="Layer_1" enable-background="new 0 0 256 256" height="512" viewBox="0 0 256 256" width="512" xmlns="http://www.w3.org/2000/svg"><path d="m212 122v-72l-72-.001c0 39.765 27.631 72.001 61.716 72.001z" fill="#e95947"/><path d="m170 50-30-.001c0 33.116 19.169 60.991 45.264 69.394-8.799-8.403-15.263-36.278-15.264-69.393z" fill="#ef7f72"/><path d="m185.264 50h9.016v71.461c2.439.342 4.917.539 7.436.539h10.284v-72z" fill="#e8383b"/><path d="m170 49.999v.001h15.264z" fill="#e95947"/><path d="m185.264 50h-15.264c0 33.115 6.464 60.991 15.264 69.393 2.924.942 5.935 1.637 9.016 2.069v-71.462z" fill="#e95947"/><path d="m212 125h-10.284c-35.685 0-64.716-33.645-64.716-75.001 0-.796.316-1.559.879-2.122.562-.562 1.325-.878 2.121-.878l72 .001c1.657 0 3 1.343 3 3v72c0 1.657-1.343 3-3 3zm-68.945-72.001c1.341 36.661 27.14 66.001 58.661 66.001h7.284v-66z" fill="#1c2d6b"/><path d="m212 209h-168c-1.657 0-3-1.343-3-3v-156c0-1.657 1.343-3 3-3h168c1.657 0 3 1.343 3 3v156c0 1.657-1.343 3-3 3zm-165-6h162v-150h-162z" fill="#1c2d6b"/><path d="m199.861 134.001h12.139v72h-12.139z" fill="#e8383b"/><path d="m194.859 134s-24.858 12-24.858 72h18c0-60 7.02-72 7.02-72z" fill="#ef7f72"/><path d="m188.001 206.001h11.86v-.001z" fill="#e8383b"/><path d="m195.02 134.001s-7.02 12-7.02 72h11.861v-72z" fill="#e95947"/><path d="m170 209c-1.657 0-3-1.343-3-3 0-61.18 25.47-74.178 26.555-74.702.406-.196.853-.298 1.304-.298h17.141c1.657 0 3 1.343 3 3v72c0 1.657-1.343 3-3 3h-41.962c-.013 0-.025 0-.038 0zm3.021-6h35.979v-66h-13.337c-3.309 2.118-21.919 16.243-22.642 66z" fill="#1c2d6b"/><path d="m194 122h6.911v12h-6.911z" fill="#ede49d"/><path d="m205.089 122h6.911v12h-6.911z" fill="#d3ba2a"/><path d="m200.912 122h4.177v12h-4.177z" fill="#eee045"/><path d="m212 137h-18c-1.657 0-3-1.343-3-3v-12c0-1.657 1.343-3 3-3h18c1.657 0 3 1.343 3 3v12c0 1.657-1.343 3-3 3zm-15-6h12v-6h-12z" fill="#1c2d6b"/><path d="m44 122v-72l72-.001c0 39.765-27.631 72.001-61.715 72.001z" fill="#e95947"/><path d="m86 50 30-.001c0 33.116-19.169 60.991-45.264 69.394 8.8-8.403 15.264-36.278 15.264-69.393z" fill="#ef7f72"/><path d="m70.736 50h-9.016v71.461c-2.439.342-4.917.539-7.436.539h-10.284v-72z" fill="#e8383b"/><path d="m86 49.999v.001h-15.264z" fill="#e95947"/><path d="m70.736 50h15.264c0 33.115-6.464 60.991-15.264 69.393-2.924.942-5.935 1.637-9.016 2.069v-71.462z" fill="#e95947"/><path d="m54.285 125h-10.285c-1.657 0-3-1.343-3-3v-72c0-1.657 1.343-3 3-3l72-.001c.795 0 1.559.316 2.121.878.563.563.879 1.326.879 2.122 0 41.356-29.031 75.001-64.715 75.001zm-7.285-6h7.285c31.52 0 57.319-29.341 58.661-66.001l-65.946.001z" fill="#1c2d6b"/><path d="m44 134.001h12.139v72h-12.139z" fill="#e8383b"/><path d="m61.142 134s24.858 12 24.858 72h-18c0-60-7.02-72-7.02-72z" fill="#ef7f72"/><path d="m68 206.001h-11.861v-.001z" fill="#e8383b"/><path d="m60.98 134.001s7.02 12 7.02 72h-11.861v-72z" fill="#e95947"/><path d="m86 209c-.013 0-.025 0-.038 0h-41.962c-1.657 0-3-1.343-3-3v-72c0-1.657 1.343-3 3-3h17.142c.452 0 .897.102 1.304.298 1.085.524 26.554 13.523 26.554 74.702 0 1.657-1.343 3-3 3zm-39-6h35.978c-.409-28.042-6.515-44.485-11.667-53.419-4.695-8.143-9.424-11.601-10.973-12.581h-13.338z" fill="#1c2d6b"/><path d="m55.089 122h6.911v12h-6.911z" fill="#ede49d"/><path d="m44 122h6.911v12h-6.911z" fill="#d3ba2a"/><path d="m50.912 122h4.177v12h-4.177z" fill="#eee045"/><path d="m62 137h-18c-1.657 0-3-1.343-3-3v-12c0-1.657 1.343-3 3-3h18c1.657 0 3 1.343 3 3v12c0 1.657-1.343 3-3 3zm-15-6h12v-6h-12z" fill="#1c2d6b"/><path d="m169.924 169.572h-1.124c3.344 0 6.054 2.711 6.054 6.054v30.374h14.346v-17.152c0-10.646-8.63-19.276-19.276-19.276z" fill="#419b46"/><path d="m168.8 169.572h-1.124c-10.646 0-19.276 8.63-19.276 19.276v17.152h14.346v-30.374c0-3.343 2.71-6.054 6.054-6.054z" fill="#a4d4a0"/><path d="m168.8 169.572c-3.344 0-6.054 2.711-6.054 6.054v30.374h12.109v-30.374c0-3.343-2.711-6.054-6.055-6.054z" fill="#65bc49"/><path d="m129.124 169.572h-1.124c3.344 0 6.054 2.711 6.054 6.054v30.374h14.346v-17.152c0-10.646-8.63-19.276-19.276-19.276z" fill="#419b46"/><path d="m128 169.572h-1.124c-10.646 0-19.276 8.63-19.276 19.276v17.152h14.346v-30.374c0-3.343 2.711-6.054 6.054-6.054z" fill="#a4d4a0"/><path d="m128 169.572c-3.344 0-6.054 2.711-6.054 6.054v30.374h12.109v-30.374c0-3.343-2.711-6.054-6.055-6.054z" fill="#65bc49"/><path d="m88.324 169.572h-1.124c3.344 0 6.054 2.711 6.054 6.054v30.374h14.346v-17.152c0-10.646-8.63-19.276-19.276-19.276z" fill="#419b46"/><path d="m87.2 169.572h-1.124c-10.646 0-19.276 8.63-19.276 19.276v17.152h14.346v-30.374c-.001-3.343 2.71-6.054 6.054-6.054z" fill="#a4d4a0"/><path d="m87.2 169.572c-3.344 0-6.054 2.711-6.054 6.054v30.374h12.109v-30.374c-.001-3.343-2.711-6.054-6.055-6.054z" fill="#65bc49"/><path d="m47.524 169.572h-1.124c3.344 0 6.054 2.711 6.054 6.054v30.374h14.346v-17.152c0-10.646-8.63-19.276-19.276-19.276z" fill="#419b46"/><path d="m46.4 169.572h-1.124c-10.646 0-19.276 8.63-19.276 19.276v17.152h14.346v-30.374c-.001-3.343 2.71-6.054 6.054-6.054z" fill="#a4d4a0"/><path d="m46.4 169.572c-3.344 0-6.054 2.711-6.054 6.054v30.374h12.109v-30.374c-.001-3.343-2.711-6.054-6.055-6.054z" fill="#65bc49"/><path d="m66.8 209h-40.8c-1.657 0-3-1.343-3-3v-17.152c0-12.283 9.993-22.276 22.276-22.276h2.248c12.283 0 22.276 9.993 22.276 22.276v17.152c0 1.657-1.343 3-3 3zm-37.8-6h34.8v-14.152c0-8.975-7.302-16.276-16.276-16.276h-2.248c-8.975 0-16.276 7.302-16.276 16.276z" fill="#1c2d6b"/><path d="m107.6 209h-40.8c-1.657 0-3-1.343-3-3v-17.152c0-12.283 9.993-22.276 22.276-22.276h2.248c12.283 0 22.276 9.993 22.276 22.276v17.152c0 1.657-1.343 3-3 3zm-37.8-6h34.8v-14.152c0-8.975-7.302-16.276-16.276-16.276h-2.248c-8.975 0-16.276 7.302-16.276 16.276z" fill="#1c2d6b"/><path d="m148.4 209h-40.8c-1.657 0-3-1.343-3-3v-17.152c0-12.283 9.993-22.276 22.276-22.276h2.248c12.283 0 22.276 9.993 22.276 22.276v17.152c0 1.657-1.342 3-3 3zm-37.8-6h34.8v-14.152c0-8.975-7.302-16.276-16.276-16.276h-2.248c-8.975 0-16.276 7.302-16.276 16.276z" fill="#1c2d6b"/><path d="m189.2 209h-40.8c-1.657 0-3-1.343-3-3v-17.152c0-12.283 9.993-22.276 22.276-22.276h2.247c12.283 0 22.276 9.993 22.276 22.276v17.152c.001 1.657-1.342 3-2.999 3zm-37.8-6h34.8v-14.152c0-8.975-7.302-16.276-16.276-16.276h-2.247c-8.975 0-16.276 7.302-16.276 16.276v14.152z" fill="#1c2d6b"/><path d="m210.724 169.572h-1.124c3.344 0 6.054 2.711 6.054 6.054v30.374h14.346v-17.152c0-10.646-8.63-19.276-19.276-19.276z" fill="#419b46"/><path d="m209.6 169.572h-1.124c-10.646 0-19.276 8.63-19.276 19.276v17.152h14.346v-30.374c0-3.343 2.71-6.054 6.054-6.054z" fill="#a4d4a0"/><path d="m209.6 169.572c-3.344 0-6.054 2.711-6.054 6.054v30.374h12.109v-30.374c0-3.343-2.711-6.054-6.055-6.054z" fill="#65bc49"/><path d="m230 209h-40.8c-1.657 0-3-1.343-3-3v-17.152c0-12.283 9.993-22.276 22.276-22.276h2.247c12.283 0 22.276 9.993 22.276 22.276v17.152c.001 1.657-1.342 3-2.999 3zm-37.8-6h34.8v-14.152c0-8.975-7.302-16.276-16.276-16.276h-2.247c-8.975 0-16.276 7.302-16.276 16.276v14.152z" fill="#1c2d6b"/><path d="m206 50h-15c0 11.598 9.402 21 21 21-3.314 0-6-9.402-6-21z" fill="#89aadb"/><path d="m218 50c0 11.598-2.686 21-6 21 11.598 0 21-9.402 21-21z" fill="#4b67b0"/><path d="m218 50h-12c0 11.598 2.686 21 6 21s6-9.402 6-21z" fill="#6287c5"/><path d="m164 50h-15c0 11.598 9.402 21 21 21-3.313 0-6-9.402-6-21z" fill="#89aadb"/><path d="m176.001 50c0 11.598-2.686 21-6 21 11.598 0 21-9.402 21-21z" fill="#4b67b0"/><path d="m176.001 50h-12.001c0 11.598 2.686 21 6 21s6.001-9.402 6.001-21z" fill="#6287c5"/><path d="m122 50h-15c0 11.598 9.402 21 21 21-3.313 0-6-9.402-6-21z" fill="#89aadb"/><path d="m134.001 50c0 11.598-2.686 21-6 21 11.598 0 21-9.402 21-21z" fill="#4b67b0"/><path d="m134.001 50h-12.001c0 11.598 2.686 21 6 21 3.315 0 6.001-9.402 6.001-21z" fill="#6287c5"/><path d="m80.001 50h-15c0 11.598 9.402 21 21 21-3.314 0-6-9.402-6-21z" fill="#89aadb"/><path d="m92.002 50c0 11.598-2.686 21-6 21 11.598 0 21-9.402 21-21z" fill="#4b67b0"/><path d="m92.002 50h-12.001c0 11.598 2.686 21 6 21s6.001-9.402 6.001-21z" fill="#6287c5"/><path d="m38.001 50h-15c0 11.598 9.402 21 21 21-3.313 0-6-9.402-6-21z" fill="#89aadb"/><path d="m50.002 50c0 11.598-2.686 21-6 21 11.598 0 21-9.402 21-21z" fill="#4b67b0"/><path d="m50.002 50h-12.001c0 11.598 2.686 21 6 21 3.315 0 6.001-9.402 6.001-21z" fill="#6287c5"/><g fill="#1c2d6b"><path d="m44 74c-13.234 0-24-10.766-24-24 0-1.657 1.343-3 3-3h42c1.657 0 3 1.343 3 3 0 13.234-10.766 24-24 24zm-17.75-21c1.433 8.502 8.847 15 17.75 15s16.317-6.498 17.75-15z"/><path d="m86 74c-13.234 0-24-10.766-24-24 0-1.657 1.343-3 3-3h42c1.657 0 3 1.343 3 3 0 13.234-10.766 24-24 24zm-17.75-21c1.433 8.502 8.847 15 17.75 15s16.317-6.498 17.75-15z"/><path d="m128 74c-13.234 0-24-10.766-24-24 0-1.657 1.343-3 3-3h42c1.657 0 3 1.343 3 3 0 13.234-10.767 24-24 24zm-17.75-21c1.433 8.502 8.847 15 17.75 15s16.317-6.498 17.75-15z"/><path d="m170 74c-13.233 0-24-10.766-24-24 0-1.657 1.343-3 3-3h42c1.657 0 3 1.343 3 3 0 13.234-10.767 24-24 24zm-17.75-21c1.433 8.502 8.847 15 17.75 15s16.317-6.498 17.75-15z"/><path d="m212 74c-13.233 0-24-10.766-24-24 0-1.657 1.343-3 3-3h42c1.657 0 3 1.343 3 3 0 13.234-10.767 24-24 24zm-17.75-21c1.433 8.502 8.847 15 17.75 15s16.317-6.498 17.75-15z"/></g><path d="m113.171 127.698v-18.001h-12v18.001c0 9.941 8.059 24 18 24-3.314 0-6-14.059-6-24z" fill="#ede49d"/><path d="m125.171 109.696v18.001c0 9.941-2.686 24-6 24 9.941 0 18-14.059 18-24v-18.001z" fill="#d3ba2a"/><path d="m125.171 127.698v-18.001h-12v18.001c0 9.941 2.686 24 6 24s6-14.059 6-24z" fill="#eee045"/><path d="m119.171 154.698c-12.182 0-21-16.127-21-27v-18.001c0-1.657 1.343-3 3-3h36c1.657 0 3 1.343 3 3v18.001c0 10.872-8.818 27-21 27zm-15-42.002v15.001c0 8.975 7.416 21 15 21s15-12.025 15-21v-15.001z" fill="#1c2d6b"/><path d="m116.786 124.893c-1.899-3.684-5.331-3.684-7.23 0z" fill="#1c2d6b"/><path d="m128.786 124.893c-1.899-3.684-5.331-3.684-7.23 0z" fill="#1c2d6b"/><path d="m113.171 135.291c3.314 3.314 8.686 3.314 12 0z" fill="#1c2d6b"/><path d="m145.77 133.486 12.729-12.729-8.485-8.485-12.729 12.729c-7.029 7.029-11.272 22.669-4.243 29.698-2.343-2.343 5.698-14.183 12.728-21.213z" fill="#ede49d"/><path d="m166.984 129.243-12.729 12.729c-7.029 7.029-18.87 15.071-21.213 12.728 7.029 7.029 22.669 2.787 29.698-4.243l12.729-12.729z" fill="#d3ba2a"/><path d="m154.255 141.972 12.729-12.729-8.485-8.485-12.729 12.729c-7.029 7.029-15.071 18.87-12.728 21.213s14.183-5.699 21.213-12.728z" fill="#eee045"/><path d="m143.142 161.292c-4.665 0-9.053-1.303-12.221-4.472-8.614-8.614-3.446-26.253 4.242-33.941l12.729-12.729c.562-.562 1.325-.878 2.121-.878.796 0 1.559.316 2.121.879l25.455 25.456c1.172 1.171 1.172 3.071 0 4.242l-12.729 12.729c-4.859 4.86-13.698 8.714-21.718 8.714zm6.872-44.777-10.608 10.608c-6.347 6.346-9.604 20.093-4.242 25.456s19.109 2.104 25.456-4.243l10.607-10.608z" fill="#1c2d6b"/><path d="m150.309 134.059c1.263-3.948-1.165-6.375-5.113-5.112z" fill="#1c2d6b"/><path d="m158.794 142.545c1.263-3.948-1.165-6.375-5.113-5.112z" fill="#1c2d6b"/><path d="m147.128 149.098c0-4.686-3.799-8.485-8.485-8.485z" fill="#1c2d6b"/></svg>