<svg id="Layer_1" enable-background="new 0 0 256 256" height="512" viewBox="0 0 256 256" width="512" xmlns="http://www.w3.org/2000/svg"><path d="m130.493 118.997c-15.462-20.712-35.113-40.622-55.795-56.528l-3.431-2.639c-2.446-1.881-4.712-2.541-5.618-1.635l-.017.017.029-.029c2.277-2.277 5.759-2.834 8.633-1.38l4.03 2.039c24.296 12.292 43.752 32.398 55.24 57.084 1.321 2.838.727 6.199-1.487 8.413l-.13.13.039-.039c.882-.881.285-3.051-1.493-5.433z" fill="#ef7f72"/><path d="m65.62 58.225.013-.013c-.906.906-.247 3.172 1.635 5.618l2.639 3.431c15.906 20.682 35.816 40.333 56.529 55.795 2.381 1.778 4.552 2.375 5.432 1.494l.052-.052.017-.017.013-.013-.042.042-.13.13c-2.214 2.214-5.575 2.808-8.413 1.487-24.686-11.488-44.791-30.944-57.084-55.24l-2.039-4.03c-1.456-2.873-.899-6.355 1.378-8.632z" fill="#e8383b"/><path d="m131.919 124.498-.052.052c-.881.881-3.051.284-5.432-1.494-20.712-15.462-40.622-35.114-56.529-55.795l-2.639-3.431c-1.881-2.446-2.541-4.712-1.635-5.618l.017-.017c.906-.906 3.172-.247 5.618 1.635l3.431 2.639c20.682 15.906 40.333 35.816 55.795 56.529 1.778 2.381 2.375 4.552 1.494 5.432l-.039.039-.013.013z" fill="#e95947"/><path d="m130.545 126.065c-.768 0-1.535-.293-2.121-.879l-57.25-57.249c-1.172-1.171-1.172-3.071 0-4.242 1.172-1.172 3.07-1.172 4.242 0l57.25 57.249c1.172 1.171 1.172 3.071 0 4.242-.586.586-1.354.879-2.121.879z" fill="#1c2d6b"/><path d="m126.49 129.817c-1.489 0-2.989-.316-4.393-.97-25.18-11.717-45.954-31.821-58.494-56.605l-2.039-4.03c-2.045-4.04-1.267-8.906 1.936-12.108.007-.007.014-.015.021-.021s.015-.014.021-.021c3.202-3.203 8.069-3.98 12.108-1.936l4.03 2.039c24.782 12.54 44.886 33.313 56.605 58.495 1.845 3.966 1.007 8.707-2.086 11.8l-.302.302c-1.998 1.999-4.685 3.055-7.407 3.055zm-58.727-69.492c-.007.007-.015.014-.021.021-1.363 1.364-1.695 3.437-.824 5.157l2.039 4.03c11.936 23.589 31.707 42.722 55.673 53.875 1.688.784 3.708.429 5.026-.889l.302-.302c1.317-1.317 1.674-3.338.889-5.026-11.154-23.966-30.288-43.738-53.875-55.673l-4.03-2.039c-1.719-.871-3.793-.539-5.157.824-.009.008-.015.015-.022.022z" fill="#1c2d6b"/><path d="m129.664 118.997c15.462-20.712 35.114-40.622 55.795-56.529l3.431-2.639c2.446-1.881 4.712-2.541 5.618-1.635l.017.017-.029-.029c-2.277-2.277-5.759-2.834-8.633-1.38l-4.03 2.039c-24.296 12.292-43.752 32.398-55.24 57.084-1.321 2.838-.727 6.199 1.487 8.413l.13.13-.039-.039c-.881-.88-.285-3.05 1.493-5.432z" fill="#ef7f72"/><path d="m194.537 58.225-.013-.013c.906.906.247 3.172-1.635 5.618l-2.639 3.431c-15.906 20.682-35.816 40.333-56.529 55.795-2.381 1.778-4.552 2.375-5.432 1.494l-.052-.052-.017-.017-.013-.013.042.042.13.13c2.214 2.214 5.575 2.808 8.413 1.487 24.686-11.488 44.791-30.944 57.084-55.24l2.039-4.03c1.456-2.873.899-6.355-1.378-8.632z" fill="#e8383b"/><path d="m128.239 124.498.052.052c.881.881 3.051.284 5.432-1.494 20.712-15.462 40.622-35.114 56.529-55.795l2.639-3.431c1.881-2.446 2.541-4.712 1.635-5.618l-.017-.017c-.906-.906-3.172-.247-5.618 1.635l-3.431 2.639c-20.682 15.906-40.333 35.816-55.795 56.529-1.778 2.381-2.375 4.552-1.494 5.432l.039.039.013.013z" fill="#e95947"/><path d="m129.612 126.065c-.768 0-1.535-.293-2.121-.879-1.172-1.171-1.172-3.071 0-4.242l57.25-57.249c1.172-1.172 3.07-1.172 4.242 0 1.172 1.171 1.172 3.071 0 4.242l-57.25 57.249c-.586.586-1.353.879-2.121.879z" fill="#1c2d6b"/><path d="m133.666 129.817c-2.722 0-5.408-1.057-7.406-3.056l-.302-.302c-3.094-3.093-3.931-7.835-2.085-11.801 11.719-25.181 31.821-45.954 56.604-58.494l4.03-2.039c4.042-2.046 8.909-1.267 12.109 1.936.007.007.014.014.021.021s.014.015.021.021c3.202 3.202 3.98 8.068 1.936 12.108l-2.039 4.03c-12.539 24.783-33.312 44.887-58.495 56.605-1.404.655-2.904.971-4.394.971zm55.563-70.819c-.683 0-1.371.157-2.012.481l-4.03 2.039c-23.588 11.936-42.721 31.707-53.874 55.673-.786 1.689-.43 3.709.888 5.026l.295.294c1.325 1.325 3.346 1.682 5.033.896 23.967-11.153 43.739-30.287 55.673-53.875l2.039-4.03c.871-1.721.539-3.793-.824-5.157-.007-.007-.015-.014-.021-.021-.007-.008-.014-.015-.021-.021-.857-.856-1.993-1.305-3.146-1.305z" fill="#1c2d6b"/><path d="m127.505 124.117c-1.156-.416-2.148-2.448-2.556-5.356-3.99-28.434-4.186-59.531-.557-88.29l.602-4.771c.376-2.983 1.362-5.116 2.527-5.597-.005-.021-.008-.043-.011-.065-3.374.201-6.315 2.418-7.379 5.662l-1.565 4.771c-9.435 28.759-8.924 59.856 1.449 88.29 1.159 3.177 4.132 5.304 7.493 5.422-.002-.022-.004-.043-.003-.066z" fill="#a4d4a0"/><path d="m137.502 30.472-1.565-4.771c-1.074-3.275-4.062-5.507-7.478-5.67-.002.018-.006.035-.009.053 1.206.402 2.237 2.554 2.623 5.617l.602 4.771c3.629 28.759 3.433 59.856-.557 88.29-.419 2.987-1.455 5.039-2.652 5.375 0 .019-.006.036-.008.055 3.403-.077 6.423-2.22 7.594-5.43 10.374-28.434 10.885-59.531 1.45-88.29z" fill="#419b46"/><path d="m128.046 20h-.026-.001.028z" fill="#a4d4a0"/><path d="m124.993 25.701-.602 4.771c-3.629 28.759-3.433 59.856.557 88.29.459 3.269 1.655 5.444 2.993 5.444h.079.025.079c1.339 0 2.534-2.175 2.993-5.444 3.99-28.434 4.186-59.531.557-88.29l-.602-4.771c-.429-3.4-1.65-5.699-3.026-5.701h-.028c-1.375.002-2.596 2.3-3.025 5.701z" fill="#65bc49"/><path d="m128.001 125c-1.657 0-3-1.343-3-3v-90c0-1.657 1.343-3 3-3s3 1.343 3 3v90c0 1.657-1.343 3-3 3z" fill="#1c2d6b"/><path d="m128.271 127.206h-.476c-4.723 0-8.981-2.98-10.6-7.416-10.557-28.934-11.082-60.986-1.481-90.254l1.565-4.771c1.523-4.645 5.831-7.766 10.721-7.766.021.001.043.001.065 0 4.89 0 9.197 3.121 10.721 7.767l1.565 4.77c9.601 29.268 9.075 61.32-1.481 90.254-1.617 4.436-5.876 7.416-10.599 7.416zm-.237-104.206c-.012 0-.022 0-.033 0-2.289 0-4.307 1.461-5.02 3.636l-1.565 4.771c-9.184 27.993-8.681 58.651 1.417 86.326.758 2.077 2.752 3.473 4.963 3.473h.476c2.211 0 4.205-1.396 4.963-3.473 10.098-27.675 10.601-58.333 1.417-86.326l-1.565-4.771c-.717-2.185-2.749-3.648-5.053-3.636z" fill="#1c2d6b"/><path d="m86.153 163.127c-3.727-3.105-6.154-10.387-6.154-18.461v-14.666c0-11.046 4.477-20 10-20h-37.998c-11.046 0-20 8.954-20 20v14.666c0 8.074 4.855 15.356 12.307 18.461l56 23.334c2.437 1.016 5.052 1.539 7.692 1.539 2.346 0 4.593-.414 6.684-1.156-.177-.125-.357-.237-.531-.382z" fill="#89aadb"/><path d="m204 110h-37.999c5.523 0 10 8.954 10 20v14.666c0 8.074-2.427 15.356-6.154 18.462l-27.913 23.261c-.2.167-.403.322-.607.468 2.99 1.06 6.308 1.429 9.762.912 1.644-.246 3.243-.74 4.778-1.379l55.825-23.261c7.453-3.106 12.308-10.388 12.308-18.462v-14.667c-.001-11.046-8.955-20-20-20z" fill="#4b67b0"/><path d="m169.847 163.127c3.727-3.106 6.154-10.388 6.154-18.462v-14.665c0-11.046-4.477-20-10-20h-18.001c-7.643 0-14.276 4.291-17.642 10.592-.465.869-1.372 1.408-2.358 1.408-.986 0-1.893-.539-2.357-1.408-3.366-6.301-9.999-10.592-17.642-10.592h-18.002c-5.523 0-10 8.954-10 20v14.666c0 8.074 2.427 15.356 6.154 18.461l28.001 23.334c.174.145.354.257.531.382 6.617-2.351 11.63-8.083 12.956-15.124h.18.359.18c1.327 7.046 6.343 12.789 12.967 15.136.204-.145.407-.301.607-.468z" fill="#6287c5"/><path d="m99.334 139.124c0-5.59-1.875-10.121-4.188-10.124h11.062c5.591 0 10.124 4.533 10.124 10.124v14.971c0 7.149-7.21 12.046-13.856 9.411l-4.566-1.811c.861-1.823 1.424-4.498 1.424-7.601z" fill="#ede49d"/><path d="m68.456 129h11.063c-2.313.003-4.188 4.534-4.188 10.124 0 4.151 1.048 7.881 2.645 9.411l9.357 8.966-22.609-8.966c-3.858-1.53-6.392-5.26-6.392-9.411 0-5.591 4.533-10.124 10.124-10.124z" fill="#d3ba2a"/><path d="m79.521 129h15.624.002-15.628z" fill="#eee045"/><path d="m75.332 139.124c0-5.59 1.875-10.121 4.188-10.124h15.627c2.313.003 4.188 4.534 4.188 10.124v14.971c0 3.103-.563 5.778-1.424 7.601l-10.577-4.194-9.357-8.966c-1.597-1.531-2.645-5.261-2.645-9.412z" fill="#eee045"/><path d="m157.997 139.124c0-5.59 1.875-10.121 4.188-10.124h-11.062c-5.591 0-10.124 4.533-10.124 10.124v14.971c0 7.149 7.21 12.046 13.856 9.411l4.566-1.811c-.861-1.823-1.424-4.498-1.424-7.601z" fill="#ede49d"/><path d="m188.875 129h-11.063c2.313.003 4.188 4.534 4.188 10.124 0 4.151-1.048 7.881-2.645 9.411l-9.357 8.966 22.609-8.966c3.858-1.53 6.392-5.26 6.392-9.411 0-5.591-4.532-10.124-10.124-10.124z" fill="#d3ba2a"/><path d="m177.811 129h-15.624-.002 15.627z" fill="#eee045"/><path d="m182 139.124c0-5.59-1.875-10.121-4.188-10.124h-15.627c-2.313.003-4.188 4.534-4.188 10.124v14.971c0 3.103.563 5.778 1.424 7.601l10.577-4.194 9.357-8.966c1.597-1.531 2.645-5.261 2.645-9.412z" fill="#eee045"/><g fill="#1c2d6b"><path d="m106.391 167.22c-1.634 0-3.275-.305-4.839-.925l-37.753-14.971c-5.034-1.997-8.286-6.786-8.286-12.2 0-7.236 5.888-13.124 13.124-13.124h37.752c7.236 0 13.124 5.888 13.124 13.124v14.971c0 4.353-2.149 8.41-5.75 10.856-2.208 1.5-4.781 2.269-7.372 2.269zm-37.754-35.22c-3.928 0-7.124 3.196-7.124 7.124 0 2.939 1.766 5.539 4.498 6.622l37.752 14.971c2.23.885 4.646.618 6.629-.729s3.121-3.495 3.121-5.893v-14.971c0-3.928-3.196-7.124-7.124-7.124z"/><path d="m151.122 167.22c-2.593 0-5.165-.769-7.374-2.27-3.6-2.445-5.749-6.504-5.749-10.855v-14.971c0-7.236 5.888-13.124 13.124-13.124h37.753c7.236 0 13.123 5.888 13.123 13.124 0 5.415-3.252 10.203-8.285 12.2l-37.753 14.971c-1.564.62-3.206.925-4.839.925zm.001-35.22c-3.928 0-7.124 3.196-7.124 7.124v14.971c0 2.397 1.138 4.545 3.121 5.893 1.983 1.347 4.399 1.612 6.63.729l37.752-14.971c2.731-1.083 4.497-3.683 4.497-6.622 0-3.928-3.195-7.124-7.123-7.124z"/><path d="m108.001 191c-3.053 0-6.029-.595-8.847-1.769l-56-23.335c-8.598-3.583-14.153-11.916-14.153-21.23v-14.666c0-12.683 10.317-23 23-23h56c8.302 0 15.91 4.45 19.999 11.654 4.091-7.205 11.698-11.654 19.999-11.654h56.001c12.682 0 22.999 10.317 22.999 23v14.666c0 9.314-5.556 17.647-14.153 21.23l-55.825 23.262c-1.904.794-3.7 1.31-5.487 1.577-9.761 1.461-18.971-3.295-23.54-11.374-3.994 7.028-11.541 11.639-19.993 11.639zm-56-78c-9.374 0-17 7.626-17 17v14.666c0 6.885 4.106 13.044 10.462 15.691l56 23.335c2.081.868 4.281 1.308 6.538 1.308 8.162 0 15.182-5.818 16.691-13.836.267-1.417 1.506-2.444 2.948-2.444h.719c1.442 0 2.682 1.027 2.948 2.445 1.697 9.016 10.189 15.002 19.337 13.637 1.294-.193 2.624-.58 4.067-1.182l55.825-23.263c6.355-2.647 10.462-8.807 10.462-15.691v-14.666c0-9.374-7.626-17-16.999-17h-56.001c-6.282 0-12.028 3.451-14.995 9.006-.985 1.847-2.902 2.994-5.003 2.994-2.099 0-4.016-1.147-5.003-2.993-2.968-5.557-8.713-9.007-14.996-9.007z"/></g><path d="m211.692 163.127-5.691 2.371v70.502h11.999v-77.06c-1.786 1.752-3.91 3.188-6.308 4.187z" fill="#65bc49"/><path d="m217.999 239h-11.998c-1.657 0-3-1.343-3-3v-70.501c0-1.211.728-2.303 1.846-2.77l5.69-2.372h.001c1.999-.833 3.802-2.029 5.359-3.559.862-.845 2.146-1.094 3.263-.625 1.114.468 1.839 1.559 1.839 2.767v77.06c0 1.657-1.343 3-3 3zm-8.998-6h5.998v-68.135c-.697.38-1.416.724-2.154 1.031l-3.844 1.603z" fill="#1c2d6b"/></svg>