<svg id="Layer_1" enable-background="new 0 0 256 256" height="512" viewBox="0 0 256 256" width="512" xmlns="http://www.w3.org/2000/svg"><path d="m56 83h48v90h-48z" fill="#ede49d"/><path d="m158 83h48v90h-48z" fill="#d3ba2a"/><path d="m104 83h54v90h-54z" fill="#eee045"/><path d="m206 176h-150c-1.657 0-3-1.343-3-3v-90c0-1.657 1.343-3 3-3h150c1.657 0 3 1.343 3 3v90c0 1.657-1.343 3-3 3zm-147-6h144v-84h-144z" fill="#1c2d6b"/><path d="m154.818 150.302c0-7.586 1.273-14.233 3.182-17.94-1.262-3.217-2.069-8.134-2.069-13.647 0-9.692 2.493-17.549 5.568-17.549-9.692 0-17.549 7.857-17.549 17.549 0 5.513 2.545 10.43 6.521 13.647-6.018 3.707-10.031 10.354-10.031 17.94v3.51 7.019h14.377v-7.019-3.51z" fill="#89aadb"/><path d="m172.527 132.362c3.976-3.217 6.521-8.134 6.521-13.647 0-9.692-7.857-17.549-17.549-17.549 3.075 0 5.568 7.857 5.568 17.549 0 5.513-.807 10.43-2.069 13.647 1.909 3.707 3.182 10.354 3.182 17.94v3.51 7.019h14.377v-7.019-3.51c0-7.586-4.013-14.233-10.03-17.94z" fill="#4b67b0"/><path d="m168.18 150.302c0-7.586-1.273-14.233-3.182-17.94 1.262-3.217 2.069-8.134 2.069-13.647 0-9.692-2.493-17.549-5.568-17.549-3.075 0-5.568 7.857-5.568 17.549 0 5.513.807 10.43 2.069 13.647-1.909 3.707-3.182 10.354-3.182 17.94v3.51 7.019h13.362v-7.019z" fill="#6287c5"/><path d="m161.499 139.264c-11.331 0-20.548-9.218-20.548-20.549s9.218-20.549 20.548-20.549 20.549 9.218 20.549 20.549-9.219 20.549-20.549 20.549zm0-35.098c-8.022 0-14.548 6.526-14.548 14.549s6.526 14.549 14.548 14.549 14.549-6.526 14.549-14.549-6.527-14.549-14.549-14.549z" fill="#1c2d6b"/><path d="m182.557 163.831h-42.117c-1.657 0-3-1.343-3-3v-10.529c0-8.414 4.283-16.075 11.457-20.494 1.083-.667 2.47-.579 3.459.222 2.616 2.116 5.777 3.234 9.142 3.234 3.366 0 6.526-1.118 9.141-3.233.989-.801 2.375-.89 3.46-.223 7.174 4.419 11.458 12.08 11.458 20.494v10.529c0 1.657-1.343 3-3 3zm-39.117-6h36.117v-7.529c0-5.659-2.583-10.865-6.996-14.273-3.287 2.099-7.14 3.235-11.063 3.235-3.921 0-7.774-1.137-11.062-3.235-4.413 3.408-6.996 8.614-6.996 14.273z" fill="#1c2d6b"/><path d="m20 65h6.7v156h-6.7z" fill="#ef7f72"/><path d="m31.3 65h6.7v156h-6.7z" fill="#e8383b"/><path d="m26.7 65h4.601v156h-4.601z" fill="#e95947"/><path d="m218 65h6.7v156h-6.7z" fill="#ef7f72"/><path d="m229.3 65h6.7v156h-6.7z" fill="#e8383b"/><path d="m224.7 65h4.601v156h-4.601z" fill="#e95947"/><path d="m38 224h-18c-1.657 0-3-1.343-3-3v-156c0-1.657 1.343-3 3-3h18c1.657 0 3 1.343 3 3v156c0 1.657-1.343 3-3 3zm-15-6h12v-150h-12z" fill="#1c2d6b"/><path d="m236 224h-18c-1.657 0-3-1.343-3-3v-156c0-1.657 1.343-3 3-3h18c1.657 0 3 1.343 3 3v156c0 1.657-1.343 3-3 3zm-15-6h12v-150h-12z" fill="#1c2d6b"/><path d="m68 160.831h42v60.169h-42z" fill="#a4d4a0"/><path d="m152 160.831h42v60.169h-42z" fill="#419b46"/><path d="m110 160.831h42v60.169h-42z" fill="#65bc49"/><path d="m194 224h-126c-1.657 0-3-1.343-3-3v-60.169c0-1.657 1.343-3 3-3h126c1.657 0 3 1.343 3 3v60.169c0 1.657-1.343 3-3 3zm-123-6h120v-54.169h-120z" fill="#1c2d6b"/><path d="m44 65h-24c0 9.941 16.118 18 36 18-6.628 0-12-8.059-12-18z" fill="#a4d4a0"/><path d="m68 65c0 9.941-5.373 18-12 18 19.882 0 36-8.059 36-18z" fill="#419b46"/><path d="m68 65h-24c0 9.941 5.373 18 12 18s12-8.059 12-18z" fill="#65bc49"/><path d="m115.998 65h-24c0 9.941 16.118 18 36 18-6.627 0-12-8.059-12-18z" fill="#a4d4a0"/><path d="m139.999 65c0 9.941-5.373 18-12 18 19.882 0 36-8.059 36-18z" fill="#419b46"/><path d="m139.999 65h-24c0 9.941 5.373 18 12 18s12-8.059 12-18z" fill="#65bc49"/><path d="m187.997 65h-24c0 9.941 16.118 18 36 18-6.627 0-12-8.059-12-18z" fill="#a4d4a0"/><path d="m211.997 65c0 9.941-5.373 18-12 18 19.882 0 36-8.059 36-18z" fill="#419b46"/><path d="m211.997 65h-24c0 9.941 5.373 18 12 18s12-8.059 12-18z" fill="#65bc49"/><g fill="#1c2d6b"><path d="m56 86c-21.869 0-39-9.225-39-21 0-1.657 1.343-3 3-3s3 1.343 3 3c0 8.84 17.392 15 33 15s33-6.16 33-15c0-1.657 1.343-3 3-3s3 1.343 3 3c0 11.775-17.131 21-39 21z"/><path d="m127.999 86c-21.869 0-39-9.225-39-21 0-1.657 1.343-3 3-3s3 1.343 3 3c0 8.84 17.392 15 33 15s33-6.16 33-15c0-1.657 1.343-3 3-3s3 1.343 3 3c0 11.775-17.131 21-39 21z"/><path d="m199.997 86c-21.869 0-39-9.225-39-21 0-1.657 1.343-3 3-3s3 1.343 3 3c0 8.84 17.391 15 33 15s33-6.16 33-15c0-1.657 1.343-3 3-3s3 1.343 3 3c0 11.775-17.131 21-39 21z"/></g><path d="m164 35h72v30h-72z" fill="#e8383b"/><path d="m20 35h72v30h-72z" fill="#ef7f72"/><path d="m92 35h72v30h-72z" fill="#e95947"/><path d="m236 68h-216c-1.657 0-3-1.343-3-3v-30c0-1.657 1.343-3 3-3h216c1.657 0 3 1.343 3 3v30c0 1.657-1.343 3-3 3zm-213-6h210v-24h-210z" fill="#1c2d6b"/></svg>