<svg id="Layer_1" enable-background="new 0 0 256 256" height="512" viewBox="0 0 256 256" width="512" xmlns="http://www.w3.org/2000/svg"><path d="m116 116c-33.137 0-60 26.863-60 60v48h36v-84c0-13.255 10.745-24 24-24z" fill="#a4d4a0"/><path d="m116 116c13.255 0 24 10.745 24 24v84h36v-48c0-33.137-26.863-60-60-60z" fill="#419b46"/><path d="m116 116c-13.255 0-24 10.745-24 24v84h48v-84c0-13.255-10.745-24-24-24z" fill="#65bc49"/><path d="m176 227h-120c-1.657 0-3-1.343-3-3v-48c0-34.738 28.262-63 63-63s63 28.262 63 63v48c0 1.657-1.343 3-3 3zm-117-6h114v-45c0-31.43-25.57-57-57-57s-57 25.57-57 57z" fill="#1c2d6b"/><path d="m98 124.497 18 51.503-5.6-51.503z" fill="#ef7f72"/><path d="m121.6 124.497-5.6 51.503 18-51.503z" fill="#e8383b"/><path d="m110.4 124.497 5.6 51.503 5.6-51.503z" fill="#e95947"/><path d="m116 179c-1.275 0-2.411-.806-2.832-2.01l-18-51.502c-.546-1.564.278-3.275 1.842-3.822 1.566-.544 3.275.278 3.822 1.842l15.168 43.399 15.168-43.399c.547-1.564 2.256-2.387 3.822-1.842 1.563.547 2.389 2.258 1.842 3.822l-18 51.502c-.421 1.204-1.557 2.01-2.832 2.01z" fill="#1c2d6b"/><path d="m116 227c-1.657 0-3-1.343-3-3v-48c0-1.657 1.343-3 3-3s3 1.343 3 3v48c0 1.657-1.343 3-3 3z" fill="#1c2d6b"/><path d="m135.412 146.632h-9.335c-.326 0-.639-.027-.87-.076l-4.131-1.176c-.448.12-1.138.199-1.921.199h-6.308c-.784 0-1.474-.079-1.921-.199l-4.131 1.176c-.231.048-.544.076-.87.076h-9.335c-.68 0-1.231-.116-1.231-.258v7.279c0 .68.551 1.231 1.231 1.231h9.335c.326 0 .639-.13.87-.36l4.131-5.606c.448.574 1.138.949 1.921.949h6.308c.784 0 1.474-.375 1.921-.949l4.131 5.606c.231.231.544.36.87.36h9.335c.68 0 1.231-.551 1.231-1.231v-7.279c-.001.142-.552.258-1.231.258z" fill="#d3ba2a"/><path d="m135.412 134h-9.335c-.326 0-.639.13-.87.36l-4.082 5.314c-.445-.609-1.159-1.009-1.971-1.009h-6.308c-.812 0-1.526.4-1.971 1.009l-4.082-5.314c-.231-.231-.544-.36-.87-.36h-9.335c-.68 0-1.231.551-1.231 1.231v7.279c0-.143.551-.258 1.231-.258h9.335c.326 0 .639.027.87.076l4.082 1.115c.445-.128 1.159-.212 1.971-.212h6.308c.812 0 1.526.084 1.971.212l4.082-1.115c.231-.048.544-.076.87-.076h9.335c.68 0 1.231.116 1.231.258v-7.279c-.001-.68-.552-1.231-1.231-1.231z" fill="#ede49d"/><path d="m135.412 142.252h-9.335c-.326 0-.639.027-.87.076l-4.082 1.115c-.445-.128-1.159-.212-1.971-.212h-6.308c-.812 0-1.526.084-1.971.212l-4.082-1.115c-.231-.048-.544-.076-.87-.076h-9.335c-.68 0-1.231.116-1.231.258v3.864c0 .143.551.258 1.231.258h9.335c.326 0 .639-.027.87-.076l4.131-1.176c.448.12 1.138.199 1.921.199h6.308c.784 0 1.474-.079 1.921-.199l4.131 1.176c.231.048.544.076.87.076h9.335c.68 0 1.231-.116 1.231-.258v-3.864c.001-.143-.55-.258-1.229-.258z" fill="#eee045"/><g fill="#1c2d6b"><path d="m105.92 157.88h-9.33c-2.333 0-4.23-1.897-4.23-4.23v-18.42c0-2.333 1.897-4.23 4.23-4.23h9.33c1.13 0 2.193.44 2.991 1.239.092.092.178.19.258.293l4.08 5.31c.772 1.005.826 2.382.151 3.44v5.949c.713 1.046.694 2.438-.065 3.469l-4.13 5.6c-.089.121-.187.234-.293.34-.799.8-1.862 1.24-2.992 1.24zm-7.56-6h6.649l2.499-3.389c-.072-.352-.108-.711-.108-1.071v-6.31c0-.311.027-.621.081-.927l-2.446-3.183h-6.675z"/><path d="m135.41 157.88h-9.33c-1.13 0-2.193-.44-2.991-1.239-.106-.106-.204-.22-.293-.34l-4.13-5.6c-.76-1.031-.778-2.422-.065-3.469v-5.949c-.675-1.059-.622-2.435.151-3.44l4.08-5.31c.08-.104.166-.202.258-.293.798-.799 1.861-1.239 2.991-1.239h9.33c2.332 0 4.229 1.897 4.229 4.23v18.42c0 2.331-1.898 4.229-4.23 4.229zm-8.419-6h6.649v-14.88h-6.675l-2.446 3.183c.054.306.081.616.081.927v6.31c0 .36-.037.72-.108 1.071z"/><path d="m119.154 152.866h-6.308c-3.003 0-5.446-2.443-5.446-5.446v-6.308c0-3.003 2.443-5.446 5.446-5.446h6.308c3.003 0 5.446 2.443 5.446 5.446v6.308c0 3.002-2.443 5.446-5.446 5.446zm-5.754-6h5.199v-5.2h-5.199z"/><path d="m152 227c-1.657 0-3-1.343-3-3v-48c0-1.657 1.343-3 3-3s3 1.343 3 3v48c0 1.657-1.343 3-3 3z"/><path d="m80 227c-1.657 0-3-1.343-3-3v-48c0-1.657 1.343-3 3-3s3 1.343 3 3v48c0 1.657-1.343 3-3 3z"/></g><path d="m100 80c0-26.51 7.163-48 16-48-26.51 0-48 21.49-48 48s21.49 48 48 48c-8.837 0-16-21.49-16-48z" fill="#ede49d"/><path d="m116 32c8.837 0 16 21.49 16 48s-7.163 48-16 48c26.51 0 48-21.49 48-48s-21.49-48-48-48z" fill="#d3ba2a"/><ellipse cx="116" cy="80" fill="#eee045" rx="16" ry="48"/><circle cx="100" cy="89.943" fill="#1c2d6b" r="3.941"/><circle cx="132" cy="89.943" fill="#1c2d6b" r="3.941"/><path d="m116 105.002c-3.912 0-7.562-2.104-9.524-5.493-.83-1.434-.341-3.269 1.093-4.1 1.434-.83 3.269-.341 4.1 1.093.893 1.542 2.553 2.5 4.332 2.5s3.438-.958 4.332-2.5c.83-1.434 2.667-1.922 4.1-1.093 1.434.831 1.923 2.666 1.093 4.1-1.964 3.388-5.614 5.493-9.526 5.493z" fill="#1c2d6b"/><path d="m116 32c-26.51 0-48 21.49-48 48 12.576 0 24.017-4.843 32.576-12.757 1.863-20.315 8.06-35.243 15.424-35.243z" fill="#89aadb"/><path d="m131.424 67.243c8.559 7.914 20 12.757 32.576 12.757 0-26.51-21.49-48-48-48 7.364 0 13.561 14.928 15.424 35.243z" fill="#4b67b0"/><path d="m116 32c0 13.933 5.942 26.474 15.424 35.243-1.863-20.315-8.06-35.243-15.424-35.243s-13.561 14.928-15.424 35.243c9.482-8.769 15.424-21.31 15.424-35.243z" fill="#6287c5"/><path d="m164 83c-22.073 0-40.916-14.095-48-33.757-7.084 19.662-25.927 33.757-48 33.757-1.657 0-3-1.343-3-3 0-28.122 22.878-51 51-51 28.121 0 51 22.878 51 51 0 1.657-1.343 3-3 3zm-44.894-47.894c1.53 22.345 19.444 40.258 41.788 41.788-1.53-22.345-19.444-40.258-41.788-41.788zm-6.212 0c-22.345 1.53-40.258 19.443-41.788 41.788 22.345-1.53 40.258-19.443 41.788-41.788z" fill="#1c2d6b"/><path d="m116 131c-28.122 0-51-22.878-51-51s22.878-51 51-51c28.121 0 51 22.878 51 51s-22.879 51-51 51zm0-96c-24.813 0-45 20.187-45 45s20.187 45 45 45 45-20.187 45-45-20.187-45-45-45z" fill="#1c2d6b"/><circle cx="128" cy="200" fill="#1c2d6b" r="3.941"/><circle cx="128" cy="214" fill="#1c2d6b" r="3.941"/><circle cx="128" cy="186" fill="#1c2d6b" r="3.941"/><path d="m182 172.462h18v51.538h-18z" fill="#e8383b"/><path d="m140 172.462h18v51.538h-18z" fill="#ef7f72"/><path d="m158 172.462h24v51.538h-24z" fill="#e95947"/><path d="m155.721 218.13c-1.657 0-3-1.343-3-3v-33.13c0-1.657 1.343-3 3-3s3 1.343 3 3v33.13c0 1.657-1.343 3-3 3z" fill="#1c2d6b"/><path d="m184.299 218.13c-1.657 0-3-1.343-3-3v-11.562h-25.578c-1.657 0-3-1.343-3-3s1.343-3 3-3h28.578c1.657 0 3 1.343 3 3v14.562c0 1.657-1.343 3-3 3z" fill="#1c2d6b"/><path d="m200 227h-60c-1.657 0-3-1.343-3-3v-51.538c0-1.657 1.343-3 3-3h60c1.657 0 3 1.343 3 3v51.538c0 1.657-1.343 3-3 3zm-57-6h54v-45.538h-54z" fill="#1c2d6b"/></svg>