<svg id="Layer_1" enable-background="new 0 0 256 256" height="512" viewBox="0 0 256 256" width="512" xmlns="http://www.w3.org/2000/svg"><path d="m127.775 234.542-37.71-132h-16.525l37.71 132z" fill="#89aadb"/><path d="m42.065 102.542 37.71 132h16.915l-37.71-132z" fill="#4b67b0"/><path d="m96.69 234.542h14.56l-37.71-132h-14.56z" fill="#6287c5"/><path d="m127.775 234.542 37.71-132h16.525l-37.71 132z" fill="#4b67b0"/><path d="m213.485 102.542-37.71 132h-16.915l37.71-132z" fill="#89aadb"/><path d="m158.86 234.542h-14.56l37.71-132h14.56z" fill="#6287c5"/><path d="m175.775 237.542h-48c-.941 0-1.828-.442-2.395-1.193s-.748-1.726-.49-2.631l37.71-132c.368-1.288 1.545-2.176 2.885-2.176h48c.941 0 1.828.442 2.395 1.193s.748 1.726.49 2.631l-37.71 132c-.368 1.288-1.546 2.176-2.885 2.176zm-44.023-6h41.76l35.996-126h-41.76z" fill="#1c2d6b"/><path d="m127.775 237.542h-48c-1.339 0-2.517-.888-2.885-2.176l-37.71-132c-.258-.905-.077-1.879.49-2.631s1.454-1.193 2.395-1.193h48c1.339 0 2.517.888 2.885 2.176l37.71 132c.258.905.077 1.879-.49 2.631s-1.454 1.193-2.395 1.193zm-45.737-6h41.76l-35.996-126h-41.76z" fill="#1c2d6b"/><path d="m144.3 54.544h31.475v36h-31.475z" fill="#89aadb"/><path d="m79.775 54.544h31.475v36h-31.475z" fill="#4b67b0"/><path d="m111.25 54.544h33.051v36h-33.051z" fill="#6287c5"/><path d="m175.775 93.543h-96c-1.657 0-3-1.343-3-3v-36c0-1.657 1.343-3 3-3h96c1.657 0 3 1.343 3 3v36c0 1.657-1.343 3-3 3zm-93-6h90v-30h-90z" fill="#1c2d6b"/><path d="m151.775 18.545c3.314 0 6 2.686 6 6v18h12v-6c0-9.941-8.059-18-18-18z" fill="#4b67b0"/><path d="m151.775 18.545c-9.941 0-18 8.059-18 18v6h12v-18c0-3.314 2.686-6 6-6z" fill="#89aadb"/><path d="m151.775 18.545c-3.314 0-6 2.686-6 6v18h12v-18c0-3.314-2.686-6-6-6z" fill="#6287c5"/><path d="m169.775 45.545h-36c-1.657 0-3-1.343-3-3v-6c0-11.58 9.42-21 21-21s21 9.42 21 21v6c0 1.657-1.343 3-3 3zm-33-6h30v-3c0-8.271-6.729-15-15-15s-15 6.729-15 15z" fill="#1c2d6b"/><path d="m103.775 18.545c3.314 0 6 2.686 6 6v18h12v-6c0-9.941-8.059-18-18-18z" fill="#4b67b0"/><path d="m103.775 18.545c-9.941 0-18 8.059-18 18v6h12v-18c0-3.314 2.686-6 6-6z" fill="#89aadb"/><path d="m103.775 18.545c-3.314 0-6 2.686-6 6v18h12v-18c0-3.314-2.686-6-6-6z" fill="#6287c5"/><path d="m121.775 45.545h-36c-1.657 0-3-1.343-3-3v-6c0-11.58 9.42-21 21-21s21 9.42 21 21v6c0 1.657-1.343 3-3 3zm-33-6h30v-3c0-8.271-6.729-15-15-15s-15 6.729-15 15z" fill="#1c2d6b"/><path d="m215.911 224.425c-.916 3.185-4.24 5.024-7.424 4.108l-17.299-4.974-3.316 11.533 5.766 1.658c9.554 2.747 19.526-2.771 22.273-12.325z" fill="#4b67b0"/><path d="m215.912 224.425c2.747-9.554-2.771-19.526-12.325-22.273l-5.766-1.658-3.316 11.533 17.298 4.973c3.185.916 5.024 4.24 4.109 7.425z" fill="#89aadb"/><path d="m215.911 224.425c.916-3.185-.924-6.509-4.108-7.424l-17.299-4.974-3.316 11.533 17.299 4.974c3.185.915 6.509-.925 7.424-4.109z" fill="#6287c5"/><path d="m198.604 240.453c-1.917 0-3.863-.265-5.795-.82l-5.766-1.658c-1.592-.458-2.512-2.12-2.054-3.712l9.948-34.598c.22-.765.735-1.411 1.431-1.796.697-.385 1.519-.478 2.282-.258l5.767 1.658c11.128 3.2 17.579 14.857 14.379 25.986-2.646 9.195-11.067 15.198-20.192 15.198zm-7.02-7.416 2.883.829c7.949 2.287 16.275-2.322 18.561-10.271s-2.322-16.275-10.271-18.561l-2.883-.829z" fill="#1c2d6b"/><path d="m229.814 175.6c-.916 3.185-4.24 5.024-7.424 4.108l-17.299-4.974-3.316 11.533 5.766 1.658c9.553 2.747 19.526-2.771 22.273-12.325z" fill="#4b67b0"/><path d="m229.814 175.6c2.747-9.554-2.771-19.526-12.325-22.273l-5.766-1.658-3.316 11.533 17.299 4.974c3.184.915 5.023 4.239 4.108 7.424z" fill="#89aadb"/><path d="m229.814 175.6c.916-3.185-.924-6.509-4.108-7.424l-17.299-4.974-3.316 11.533 17.299 4.974c3.184.915 6.508-.925 7.424-4.109z" fill="#6287c5"/><path d="m212.545 191.635c-1.949 0-3.909-.274-5.834-.828l-5.766-1.658c-.765-.22-1.411-.734-1.796-1.431s-.478-1.517-.258-2.282l9.949-34.598c.458-1.592 2.118-2.513 3.712-2.054l5.766 1.658c11.128 3.2 17.579 14.857 14.379 25.986-1.55 5.391-5.107 9.855-10.015 12.571-3.156 1.747-6.627 2.636-10.137 2.636zm-7.059-7.423 2.883.829c3.852 1.108 7.903.648 11.408-1.291 3.506-1.94 6.046-5.129 7.154-8.979 2.286-7.949-2.322-16.275-10.271-18.561l-2.883-.829z" fill="#1c2d6b"/><path d="m243.695 126.775c-.916 3.185-4.24 5.024-7.424 4.108l-17.299-4.974-3.316 11.533 5.766 1.658c9.554 2.747 19.526-2.771 22.273-12.325z" fill="#4b67b0"/><path d="m243.695 126.775c2.747-9.554-2.771-19.526-12.325-22.273l-5.766-1.658-3.316 11.533 17.299 4.974c3.184.915 5.024 4.239 4.108 7.424z" fill="#89aadb"/><path d="m243.695 126.775c.916-3.185-.924-6.509-4.108-7.424l-17.299-4.974-3.316 11.533 17.299 4.974c3.184.915 6.508-.925 7.424-4.109z" fill="#6287c5"/><path d="m226.426 142.81c-1.949 0-3.909-.274-5.833-.827l-5.767-1.658c-1.592-.458-2.512-2.12-2.054-3.712l9.949-34.598c.22-.765.735-1.411 1.431-1.796.697-.385 1.518-.479 2.282-.258l5.766 1.658c5.391 1.55 9.855 5.107 12.571 10.015s3.358 10.58 1.808 15.971-5.107 9.855-10.015 12.571c-3.156 1.745-6.628 2.634-10.138 2.634zm-7.058-7.423 2.883.829c3.851 1.108 7.901.648 11.407-1.291 3.506-1.94 6.046-5.129 7.153-8.98s.649-7.902-1.291-11.407c-1.939-3.506-5.129-6.046-8.979-7.153l-2.883-.829z" fill="#1c2d6b"/><path d="m40.089 224.425c.916 3.185 4.24 5.024 7.424 4.108l17.299-4.974 3.316 11.533-5.766 1.658c-9.554 2.747-19.526-2.771-22.273-12.325z" fill="#4b67b0"/><path d="m40.088 224.425c-2.747-9.554 2.771-19.526 12.325-22.273l5.766-1.658 3.316 11.533-17.298 4.973c-3.185.916-5.024 4.24-4.109 7.425z" fill="#89aadb"/><path d="m40.089 224.425c-.916-3.185.924-6.509 4.108-7.424l17.299-4.974 3.316 11.533-17.299 4.974c-3.185.915-6.509-.925-7.424-4.109z" fill="#6287c5"/><path d="m57.396 240.453c-9.125 0-17.546-6.001-20.191-15.199-3.2-11.129 3.25-22.786 14.379-25.986l5.767-1.658c.764-.221 1.585-.127 2.282.258.696.385 1.21 1.031 1.431 1.796l9.948 34.598c.458 1.592-.462 3.254-2.054 3.712l-5.766 1.658c-1.932.556-3.88.821-5.796.821zm-1.271-36.247-2.883.829c-7.949 2.286-12.556 10.612-10.271 18.561s10.613 12.558 18.561 10.271l2.883-.829z" fill="#1c2d6b"/><path d="m26.186 175.6c.916 3.185 4.24 5.024 7.424 4.108l17.299-4.974 3.316 11.533-5.766 1.658c-9.553 2.747-19.526-2.771-22.273-12.325z" fill="#4b67b0"/><path d="m26.186 175.6c-2.747-9.554 2.771-19.526 12.325-22.273l5.766-1.658 3.316 11.533-17.299 4.974c-3.184.915-5.023 4.239-4.108 7.424z" fill="#89aadb"/><path d="m26.186 175.6c-.916-3.185.924-6.509 4.108-7.424l17.299-4.974 3.316 11.533-17.299 4.974c-3.184.915-6.508-.925-7.424-4.109z" fill="#6287c5"/><path d="m43.455 191.635c-3.51 0-6.98-.889-10.137-2.635-4.908-2.716-8.465-7.18-10.015-12.571-3.2-11.128 3.251-22.786 14.379-25.986l5.766-1.658c1.593-.458 3.254.462 3.712 2.054l9.949 34.598c.22.765.127 1.585-.258 2.282s-1.031 1.211-1.796 1.431l-5.767 1.658c-1.924.553-3.885.827-5.833.827zm-1.232-36.255-2.883.829c-7.949 2.286-12.557 10.612-10.271 18.561 1.107 3.851 3.648 7.04 7.154 8.979 3.505 1.94 7.557 2.399 11.407 1.291l2.883-.829z" fill="#1c2d6b"/><path d="m12.305 126.775c.916 3.185 4.24 5.024 7.424 4.108l17.299-4.974 3.316 11.533-5.766 1.658c-9.554 2.747-19.526-2.771-22.273-12.325z" fill="#4b67b0"/><path d="m12.305 126.775c-2.747-9.554 2.771-19.526 12.325-22.273l5.766-1.658 3.316 11.533-17.299 4.974c-3.184.915-5.024 4.239-4.108 7.424z" fill="#89aadb"/><path d="m12.305 126.775c-.916-3.185.924-6.509 4.108-7.424l17.299-4.974 3.316 11.533-17.299 4.974c-3.184.915-6.508-.925-7.424-4.109z" fill="#6287c5"/><path d="m29.574 142.81c-3.51 0-6.981-.889-10.137-2.635-4.908-2.716-8.464-7.181-10.015-12.571s-.908-11.062 1.808-15.971c2.716-4.908 7.18-8.464 12.571-10.015l5.766-1.658c.764-.22 1.585-.127 2.282.258.696.385 1.21 1.031 1.431 1.796l9.949 34.598c.458 1.592-.462 3.254-2.054 3.712l-5.767 1.658c-1.925.554-3.886.828-5.834.828zm-1.232-36.254-2.883.829c-3.851 1.107-7.04 3.647-8.979 7.153-1.94 3.505-2.398 7.557-1.291 11.407 1.107 3.851 3.647 7.04 7.153 8.98 3.505 1.939 7.557 2.398 11.407 1.291l2.883-.829z" fill="#1c2d6b"/></svg>