<svg id="Layer_1" enable-background="new 0 0 256 256" height="512" viewBox="0 0 256 256" width="512" xmlns="http://www.w3.org/2000/svg"><path d="m51.479 99.987 8.574-31.987h-14.246l-12.364 31.987c-6.332 16.381 5.757 34.013 23.319 34.013h10.889c-12.18 0-20.564-17.632-16.172-34.013z" fill="#ef7f72"/><path d="m151.149 99.987-12.364-31.987h-14.247l8.575 31.987c4.391 16.381-3.992 34.013-16.173 34.013h10.889c17.563 0 29.652-17.632 23.32-34.013z" fill="#e8383b"/><path d="m133.114 99.987-8.575-31.987h-32.243-32.243l-8.575 31.987c-4.391 16.381 3.993 34.013 16.173 34.013h24.645 24.645c12.18 0 20.564-17.632 16.173-34.013z" fill="#e95947"/><path d="m127.831 137h-71.069c-9.237 0-17.871-4.548-23.094-12.167-5.224-7.619-6.354-17.311-3.023-25.927l12.364-31.987c.446-1.157 1.558-1.919 2.798-1.919h92.979c1.239 0 2.352.762 2.798 1.918l12.364 31.987c3.331 8.616 2.2 18.308-3.023 25.927-5.224 7.619-13.857 12.168-23.094 12.168zm-79.968-66-11.622 30.068c-2.656 6.871-1.79 14.296 2.375 20.372s10.779 9.56 18.145 9.56h71.069c7.366 0 13.98-3.484 18.145-9.56 4.166-6.076 5.031-13.501 2.375-20.372l-11.621-30.068z" fill="#1c2d6b"/><path d="m92.296 116c-33.137 0-60 26.863-60 60v48h36v-84c0-13.255 10.745-24 24-24z" fill="#a4d4a0"/><path d="m92.296 116c13.255 0 24 10.745 24 24v84h36v-48c0-33.137-26.863-60-60-60z" fill="#419b46"/><path d="m92.296 116c-13.255 0-24 10.745-24 24v84h48v-84c0-13.255-10.745-24-24-24z" fill="#65bc49"/><path d="m152.296 227h-120c-1.657 0-3-1.343-3-3v-48c0-34.738 28.262-63 63-63s63 28.262 63 63v48c0 1.657-1.343 3-3 3zm-117-6h114v-45c0-31.43-25.57-57-57-57s-57 25.57-57 57z" fill="#1c2d6b"/><path d="m74.296 124.497 18 33.503-5.6-33.503z" fill="#ede49d"/><path d="m97.896 124.497-5.6 33.503 18-33.503z" fill="#d3ba2a"/><path d="m86.696 124.497 5.6 33.503 5.6-33.503z" fill="#eee045"/><path d="m92.296 161c-1.104 0-2.12-.607-2.643-1.58l-18-33.502c-.784-1.459-.237-3.278 1.223-4.062 1.459-.784 3.278-.237 4.062 1.223l15.357 28.584 15.357-28.584c.784-1.46 2.604-2.007 4.062-1.223 1.459.784 2.007 2.603 1.223 4.062l-18 33.502c-.521.973-1.537 1.58-2.641 1.58z" fill="#1c2d6b"/><path d="m92.296 227c-1.657 0-3-1.343-3-3v-66c0-1.657 1.343-3 3-3s3 1.343 3 3v66c0 1.657-1.343 3-3 3z" fill="#1c2d6b"/><path d="m68.296 227c-1.657 0-3-1.343-3-3v-16.757l-.394-.394c-7.485-7.485-11.606-17.437-11.606-28.022v-16.857c0-1.657 1.343-3 3-3s3 1.343 3 3v16.856c0 8.982 3.498 17.428 9.849 23.78l1.272 1.272c.563.562.879 1.326.879 2.121v18c0 1.658-1.343 3.001-3 3.001z" fill="#1c2d6b"/><path d="m116.331 227c-1.657 0-3-1.343-3-3v-18c0-.795.316-1.559.879-2.121l1.272-1.272c6.351-6.352 9.849-14.797 9.849-23.78v-16.857c0-1.657 1.343-3 3-3s3 1.343 3 3v16.856c0 10.585-4.122 20.537-11.606 28.022l-.394.394v16.758c0 1.657-1.343 3-3 3z" fill="#1c2d6b"/><path d="m76.296 80c0-26.51 7.163-48 16-48-26.51 0-48 21.49-48 48s21.49 48 48 48c-8.837 0-16-21.49-16-48z" fill="#ede49d"/><path d="m92.296 32c8.837 0 16 21.49 16 48s-7.163 48-16 48c26.51 0 48-21.49 48-48s-21.49-48-48-48z" fill="#d3ba2a"/><ellipse cx="92.296" cy="80" fill="#eee045" rx="16" ry="48"/><circle cx="76.296" cy="89.943" fill="#1c2d6b" r="3.941"/><circle cx="108.296" cy="89.943" fill="#1c2d6b" r="3.941"/><path d="m92.296 105.002c-3.912 0-7.561-2.104-9.523-5.493-.83-1.434-.341-3.269 1.093-4.1 1.434-.83 3.269-.341 4.1 1.093.893 1.542 2.552 2.5 4.331 2.5s3.438-.958 4.332-2.5c.831-1.434 2.666-1.922 4.1-1.093 1.434.831 1.923 2.666 1.093 4.1-1.965 3.388-5.614 5.493-9.526 5.493z" fill="#1c2d6b"/><path d="m92.296 32c-26.51 0-48 21.49-48 48 12.576 0 24.017-4.843 32.576-12.757 1.863-20.315 8.06-35.243 15.424-35.243z" fill="#ef7f72"/><path d="m107.72 67.243c8.558 7.915 20 12.757 32.576 12.757 0-26.51-21.49-48-48-48 7.364 0 13.561 14.928 15.424 35.243z" fill="#e8383b"/><path d="m92.296 32c0 13.933 5.942 26.474 15.424 35.243-1.863-20.315-8.06-35.243-15.424-35.243s-13.561 14.928-15.424 35.243c9.482-8.769 15.424-21.31 15.424-35.243z" fill="#e95947"/><g fill="#1c2d6b"><path d="m140.296 83c-22.073 0-40.916-14.095-48-33.757-7.085 19.662-25.927 33.757-48 33.757-1.657 0-3-1.343-3-3 0-28.122 22.878-51 51-51s51 22.878 51 51c0 1.657-1.343 3-3 3zm-44.894-47.894c1.53 22.345 19.443 40.258 41.788 41.788-1.53-22.345-19.443-40.258-41.788-41.788zm-6.212 0c-22.345 1.53-40.258 19.443-41.788 41.788 22.345-1.53 40.258-19.443 41.788-41.788z"/><path d="m92.296 131c-28.122 0-51-22.878-51-51s22.878-51 51-51 51 22.878 51 51-22.879 51-51 51zm0-96c-24.813 0-45 20.187-45 45s20.187 45 45 45 45-20.187 45-45-20.187-45-45-45z"/><circle cx="104.296" cy="200" r="3.941"/><circle cx="104.296" cy="214" r="3.941"/><path d="m92.296 191c-.768 0-1.536-.293-2.121-.879l-24-24c-1.172-1.171-1.172-3.071 0-4.242l4.346-4.347-16.8-28.099c-.851-1.422-.387-3.264 1.035-4.114 1.422-.852 3.264-.387 4.114 1.035l18 30.106c.706 1.18.519 2.688-.454 3.661l-3.877 3.879 21.878 21.879c1.172 1.171 1.172 3.071 0 4.242-.585.586-1.354.879-2.121.879z"/><path d="m92.296 191c-.768 0-1.536-.293-2.121-.879-1.172-1.171-1.172-3.071 0-4.242l21.878-21.879-3.878-3.879c-.972-.972-1.159-2.48-.454-3.661l18-30.106c.85-1.421 2.693-1.886 4.114-1.035 1.422.85 1.886 2.692 1.035 4.114l-16.8 28.099 4.346 4.347c1.172 1.171 1.172 3.071 0 4.242l-24 24c-.584.586-1.353.879-2.12.879z"/></g><path d="m164.262 220.722v-77.445c0-1.81 1.467-3.278 3.278-3.278h-22.21c-2.761 0-5 2.239-5 5v74c0 2.761 2.239 5 5 5h22.209c-1.81.001-3.277-1.467-3.277-3.277z" fill="#89aadb"/><path d="m219.262 140h-22.209c1.81 0 3.278 1.467 3.278 3.278v77.445c0 1.81-1.468 3.278-3.278 3.278h22.209c2.761 0 5-2.239 5-5v-74c0-2.762-2.239-5.001-5-5.001z" fill="#4b67b0"/><path d="m200.33 220.722v-77.445c0-1.81-1.468-3.278-3.278-3.278h-29.513c-1.81 0-3.278 1.467-3.278 3.278v77.445c0 1.81 1.467 3.278 3.278 3.278h29.513c1.811 0 3.278-1.468 3.278-3.278z" fill="#6287c5"/><path d="m219.262 227h-73.932c-4.411 0-8-3.589-8-8v-74c0-4.411 3.589-8 8-8h73.932c4.411 0 8 3.589 8 8v74c0 4.411-3.589 8-8 8zm-73.932-84c-1.103 0-2 .897-2 2v74c0 1.103.897 2 2 2h73.932c1.103 0 2-.897 2-2v-74c0-1.103-.897-2-2-2z" fill="#1c2d6b"/><path d="m152.33 152h18.034v72h-18.034z" fill="#ede49d"/><path d="m194.296 152h18.034v72h-18.034z" fill="#d3ba2a"/><path d="m170.365 152h23.932v72h-23.932z" fill="#eee045"/><path d="m212.33 227h-60c-1.657 0-3-1.343-3-3v-72c0-1.657 1.343-3 3-3h60c1.657 0 3 1.343 3 3v72c0 1.657-1.343 3-3 3zm-57-6h54v-66h-54z" fill="#1c2d6b"/><path d="m176.432 152.227v-18.227h3.932v-1.854c0-3.314.88-6 1.966-6-3.314 0-6 2.686-6 6v1.854h-12v18.227c0 3.189 2.585 5.773 5.773 5.773h8.22c-1.044 0-1.891-2.585-1.891-5.773z" fill="#ef7f72"/><path d="m188.33 134v-1.854c0-3.314-2.686-6-6-6 1.086 0 1.966 2.686 1.966 6v1.854h3.932v18.227c0 3.189-.847 5.773-1.892 5.773h8.22c3.189 0 5.773-2.585 5.773-5.773v-18.227z" fill="#e8383b"/><path d="m188.228 152.227v-18.227h-3.932v-1.854c0-3.314-.88-6-1.966-6s-1.966 2.686-1.966 6v1.854h-3.932v18.227c0 3.189.847 5.773 1.892 5.773h8.012c1.045 0 1.892-2.585 1.892-5.773z" fill="#e95947"/><path d="m194.557 161h-24.453c-4.838 0-8.774-3.936-8.774-8.773v-18.227c0-1.657 1.343-3 3-3h9.073c.565-4.423 4.353-7.854 8.927-7.854s8.362 3.43 8.927 7.854h9.073c1.657 0 3 1.343 3 3v18.227c0 4.837-3.935 8.773-8.773 8.773zm-27.227-24v15.227c0 1.529 1.244 2.773 2.774 2.773h24.453c1.529 0 2.773-1.244 2.773-2.773v-15.227h-9c-1.657 0-3-1.343-3-3v-1.854c0-1.654-1.346-3-3-3s-3 1.346-3 3v1.854c0 1.657-1.343 3-3 3z" fill="#1c2d6b"/><path d="m179.587 168.029c-2.855 0-5.17 2.315-5.17 5.17l-.007 2.233-.007-2.233c0-2.855-2.315-5.17-5.17-5.17s-5.17 2.315-5.17 5.17c0 2.196 1.371 4.067 3.302 4.817l7.022 4.081v.026l.022-.013.022.013v-.026l7.022-4.081c1.931-.749 3.302-2.621 3.302-4.817.002-2.855-2.313-5.17-5.168-5.17z" fill="#1c2d6b"/><path d="m174.41 210.971c-8.78 0-15.924-7.144-15.924-15.924s7.144-15.924 15.924-15.924c8.781 0 15.924 7.144 15.924 15.924s-7.144 15.924-15.924 15.924zm0-25.849c-5.472 0-9.924 4.452-9.924 9.924s4.452 9.924 9.924 9.924 9.924-4.452 9.924-9.924-4.452-9.924-9.924-9.924z" fill="#1c2d6b"/><path d="m189.912 210.971c-8.781 0-15.924-7.144-15.924-15.924s7.144-15.924 15.924-15.924 15.924 7.144 15.924 15.924-7.144 15.924-15.924 15.924zm0-25.849c-5.472 0-9.924 4.452-9.924 9.924s4.452 9.924 9.924 9.924 9.924-4.452 9.924-9.924-4.452-9.924-9.924-9.924z" fill="#1c2d6b"/></svg>