<svg id="Layer_1" enable-background="new 0 0 256 256" height="512" viewBox="0 0 256 256" width="512" xmlns="http://www.w3.org/2000/svg"><path d="m152 43.999h-18v18l30 30-12-30z" fill="#89aadb"/><path d="m176 43.999v18l-12 30 30-30v-18z" fill="#4b67b0"/><path d="m176 43.999h-24v18l12 30 12-30z" fill="#6287c5"/><g fill="#1c2d6b"><path d="m194 64.999h-60c-1.657 0-3-1.343-3-3v-18c0-1.657 1.343-3 3-3h60c1.657 0 3 1.343 3 3v18c0 1.657-1.343 3-3 3zm-57-6h54v-12h-54z"/><path d="m164 94.999c-.768 0-1.535-.293-2.121-.879l-30-30c-.858-.857-1.115-2.148-.65-3.27.464-1.121 1.558-1.852 2.771-1.852h60c1.214 0 2.308.73 2.771 1.852.465 1.121.208 2.412-.65 3.27l-30 30c-.586.586-1.353.879-2.121.879zm-22.758-30 22.758 22.758 22.758-22.758z"/><path d="m164 64.999h-24c-1.106 0-2.123-.609-2.646-1.584-.521-.976-.465-2.159.149-3.08l12-18c.557-.835 1.493-1.336 2.496-1.336s1.939.501 2.496 1.336l12 18c.614.921.671 2.104.149 3.08-.521.975-1.538 1.584-2.644 1.584zm-18.395-6h12.789l-6.394-9.592z"/><path d="m187.999 64.999h-24c-1.106 0-2.123-.609-2.646-1.584-.521-.976-.465-2.159.149-3.08l12-18c.557-.835 1.493-1.336 2.496-1.336s1.939.501 2.496 1.336l12 18c.614.921.671 2.104.149 3.08-.521.975-1.538 1.584-2.644 1.584zm-18.395-6h12.789l-6.395-9.592z"/><path d="m163.999 94.999c-1.657 0-3-1.343-3-3v-30c0-1.657 1.343-3 3-3s3 1.343 3 3v30c0 1.657-1.343 3-3 3z"/></g><path d="m164 91.001c-30.327 0-55 24.673-55 55 0 13.412 4.883 26.332 13.749 36.379l.437.495 15.289 11.859.59.301c7.662 3.903 16.284 5.966 24.936 5.966 30.327 0 55-24.673 55-55s-24.674-55-55.001-55zm0 103c-7.832 0-15.227-1.876-21.758-5.203l-14.245-11.05c-7.466-8.461-11.997-19.575-11.997-31.747 0-26.51 21.49-48 48-48s48 21.49 48 48-21.49 48-48 48z" fill="#d3ba2a"/><path d="m164 80.001c-36.451 0-66 29.549-66 66 0 15.956 5.662 30.589 15.086 42l14.914 13.326c10.353 6.751 22.719 10.674 36 10.674 36.451 0 66-29.549 66-66s-29.549-66-66-66zm0 125c-11.308 0-22.272-3.199-31.743-9.258l-14.1-12.599c-8.489-10.465-13.157-23.634-13.157-37.143 0-32.532 26.468-59 59-59s59 26.468 59 59-26.468 59-59 59z" fill="#ede49d"/><path d="m164 87.001c-32.532 0-59 26.468-59 59 0 13.51 4.668 26.679 13.157 37.144l14.1 12.599c9.471 6.059 20.436 9.258 31.743 9.258 32.532 0 59-26.468 59-59s-26.468-59.001-59-59.001zm0 114c-8.651 0-17.273-2.062-24.936-5.966l-.59-.301-15.289-11.859-.437-.495c-8.865-10.047-13.748-22.967-13.748-36.379 0-30.327 24.673-55 55-55s55 24.673 55 55-24.673 55-55 55z" fill="#eee045"/><path d="m164 215.001c-13.424 0-26.439-3.859-37.638-11.161-1.388-.904-1.78-2.763-.875-4.151.906-1.386 2.763-1.779 4.152-.874 10.222 6.664 22.104 10.187 34.361 10.187 34.738 0 63-28.262 63-63s-28.262-63-63-63-63 28.262-63 63c0 14.609 5.114 28.847 14.399 40.09 1.055 1.277.875 3.168-.403 4.224-1.276 1.055-3.167.876-4.223-.403-10.171-12.317-15.773-27.912-15.773-43.912 0-38.047 30.953-69 69-69s69 30.953 69 69-30.953 69-69 69zm0-18c-8.138 0-15.916-1.86-23.119-5.53-1.477-.752-2.063-2.559-1.312-4.034.752-1.479 2.562-2.063 4.034-1.312 6.353 3.235 13.214 4.876 20.396 4.876 24.813 0 45-20.187 45-45s-20.187-45-45-45-45 20.187-45 45c0 10.973 3.994 21.543 11.247 29.762 1.097 1.243.978 3.139-.265 4.234-1.242 1.097-3.139.979-4.234-.264-8.22-9.316-12.747-21.295-12.747-33.732 0-28.121 22.879-51 51-51s51 22.879 51 51-22.879 51-51 51z" fill="#1c2d6b"/><path d="m92 197.001c-1.657 0-3-1.343-3-3s1.343-3 3-3c7.181 0 14.042-1.641 20.395-4.875 15.177-7.73 24.605-23.105 24.605-40.125 0-1.657 1.343-3 3-3s3 1.343 3 3c0 19.288-10.684 36.711-27.882 45.471-7.204 3.669-14.982 5.529-23.118 5.529z" fill="#1c2d6b"/><path d="m92 215.001c-1.657 0-3-1.343-3-3s1.343-3 3-3c34.738 0 63-28.262 63-63 0-1.657 1.343-3 3-3s3 1.343 3 3c0 38.047-30.953 69-69 69z" fill="#1c2d6b"/><path d="m132.99 109.371c-1.78 1.5-3.45 3.14-4.99 4.89 7.47 8.46 12 19.57 12 31.74s-4.53 23.28-12.01 31.74c-1.53 1.76-3.21 3.4-5 4.91-.93.79-1.88 1.54-2.87 2.25-1.97 1.43-4.05 2.71-6.22 3.83-6.57 3.37-14.01 5.27-21.9 5.27-26.51 0-48-21.49-48-48s21.49-48 48-48c7.83 0 15.23 1.87 21.76 5.2 1.57-1.84 3.23-3.59 4.99-5.24-7.92-4.43-17.05-6.96-26.75-6.96-30.33 0-55 24.67-55 55s24.67 55 55 55c9.97 0 19.34-2.67 27.42-7.34 2.09-1.2 4.1-2.55 6.01-4.02 1.08-.82 2.12-1.69 3.13-2.6 1.76-1.55 3.42-3.23 4.96-5.01 8.39-9.65 13.48-22.26 13.48-36.03 0-14.05-5.3-26.91-14.01-36.63z" fill="#d3ba2a"/><path d="m142.24 103.201c-2.13 1.09-4.17 2.33-6.1 3.71 9.24 10.41 14.86 24.11 14.86 39.09 0 14.69-5.4 28.15-14.32 38.49-1.53 1.78-3.17 3.46-4.9 5.04-1.07.98-2.17 1.92-3.32 2.82-1.88 1.49-3.85 2.86-5.91 4.1-8.92 5.43-19.38 8.55-30.55 8.55-32.53 0-59-26.47-59-59s26.47-59 59-59c10.9 0 21.13 2.98 29.91 8.17 1.94-1.61 3.97-3.11 6.09-4.49-10.35-6.75-22.72-10.68-36-10.68-36.45 0-66 29.55-66 66s29.55 66 66 66c13.28 0 25.64-3.92 35.99-10.68 2.12-1.37 4.15-2.86 6.08-4.47 1.15-.94 2.26-1.93 3.34-2.95 1.7-1.61 3.31-3.31 4.83-5.1 9.82-11.52 15.76-26.47 15.76-42.8s-5.94-31.28-15.76-42.8z" fill="#ede49d"/><path d="m136.14 106.911c-1.08.77-2.14 1.59-3.15 2.46 8.71 9.72 14.01 22.58 14.01 36.63 0 13.77-5.09 26.38-13.48 36.03-1.54 1.78-3.2 3.46-4.96 5.01-1.01.91-2.05 1.78-3.13 2.6-1.91 1.47-3.92 2.82-6.01 4.02-8.08 4.67-17.45 7.34-27.42 7.34-30.33 0-55-24.67-55-55s24.67-55 55-55c9.7 0 18.83 2.53 26.75 6.96 1.02-.97 2.08-1.9 3.16-2.79-8.78-5.19-19.01-8.17-29.91-8.17-32.53 0-59 26.47-59 59s26.47 59 59 59c11.17 0 21.63-3.12 30.55-8.55 2.06-1.24 4.03-2.61 5.91-4.1 1.15-.9 2.25-1.84 3.32-2.82 1.73-1.58 3.37-3.26 4.9-5.04 8.92-10.34 14.32-23.8 14.32-38.49 0-14.98-5.62-28.68-14.86-39.09z" fill="#eee045"/><path d="m92 215.001c-38.047 0-69-30.953-69-69s30.953-69 69-69c13.426 0 26.441 3.859 37.639 11.161 1.388.904 1.779 2.764.874 4.151s-2.764 1.779-4.151.874c-10.221-6.664-22.103-10.186-34.362-10.186-34.738 0-63 28.262-63 63s28.262 63 63 63 63-28.262 63-63c0-14.972-5.342-29.481-15.041-40.855-1.075-1.261-.925-3.154.336-4.229 1.259-1.076 3.154-.926 4.229.336 10.624 12.458 16.476 28.351 16.476 44.748 0 38.047-30.953 69-69 69zm0-18c-28.122 0-51-22.879-51-51s22.878-51 51-51c7.97 0 15.604 1.788 22.691 5.314 1.483.737 2.087 2.539 1.35 4.022-.738 1.482-2.538 2.088-4.022 1.349-6.249-3.109-12.984-4.686-20.018-4.686-24.813 0-45 20.187-45 45s20.187 45 45 45 45-20.187 45-45c0-10.976-3.995-21.546-11.249-29.765-1.096-1.242-.978-3.139.264-4.234 1.242-1.098 3.138-.979 4.235.264 8.222 9.316 12.75 21.297 12.75 33.735-.001 28.122-22.879 51.001-51.001 51.001z" fill="#1c2d6b"/><path d="m116 149.001c-1.657 0-3-1.343-3-3 0-28.121 22.879-51 51-51 1.657 0 3 1.343 3 3s-1.343 3-3 3c-24.813 0-45 20.187-45 45 0 1.657-1.343 3-3 3z" fill="#1c2d6b"/><path d="m98 149.001c-1.657 0-3-1.343-3-3 0-38.047 30.953-69 69-69 1.657 0 3 1.343 3 3s-1.343 3-3 3c-34.738 0-63 28.262-63 63 0 1.657-1.343 3-3 3z" fill="#1c2d6b"/></svg>