<svg id="Layer_1" enable-background="new 0 0 128 128" height="512" viewBox="0 0 128 128" width="512" xmlns="http://www.w3.org/2000/svg"><path d="m110.255 26.127h-88.51c-6.312 0-11.447 5.135-11.447 11.447v56.851c0 6.312 5.135 11.447 11.447 11.447h88.511c6.312 0 11.447-5.135 11.447-11.447v-56.85c-.001-6.312-5.136-11.448-11.448-11.448z" fill="#e6e7e8"/><path d="m17.745 100.873c-5.76 0-10.447-4.687-10.447-10.447v-56.851c0-5.761 4.687-10.447 10.447-10.447h88.511c5.76 0 10.447 4.687 10.447 10.447v56.851c0 5.761-4.687 10.447-10.447 10.447z" fill="#d4fbff"/><path d="m106.255 28.128h-88.51c-3.008 0-5.447 2.439-5.447 5.447v56.851c0 3.008 2.439 5.447 5.447 5.447h88.511c3.008 0 5.447-2.439 5.447-5.447v-56.852c-.001-3.008-2.44-5.446-5.448-5.446z" fill="#6dc9f7"/><path d="m12.298 80.553v9.872c0 3.008 2.439 5.447 5.447 5.447h88.511c3.008 0 5.447-2.439 5.447-5.447v-9.872z" fill="#fa759e"/><path d="m74.994 42.143c0-.933-.757-1.69-1.69-1.69h-7.547-2.82c-.933 0-1.69.757-1.69 1.69v4.572 9.142c-1.157-.548-2.47-.862-3.866-.862-4.626 0-8.376 3.403-8.376 7.601s3.75 7.601 8.376 7.601 8.376-3.403 8.376-7.601v-15.88h7.547c.933 0 1.69-.757 1.69-1.69z" fill="#fa759e"/><path d="m52.006 62.597c0-3.724 2.952-6.816 6.847-7.469-.479-.078-.967-.132-1.471-.132-4.626 0-8.376 3.403-8.376 7.601s3.75 7.601 8.376 7.601c.513 0 1.013-.048 1.5-.128-3.909-.642-6.876-3.74-6.876-7.473z" fill="#fff"/><g fill="#3a2c60"><path d="m106.255 22.127h-88.51c-6.312 0-11.447 5.135-11.447 11.447v56.851c0 6.312 5.135 11.447 11.447 11.447h88.511c6.312 0 11.447-5.135 11.447-11.447v-56.85c-.001-6.312-5.136-11.448-11.448-11.448zm9.447 68.298c0 5.209-4.238 9.447-9.447 9.447h-88.51c-5.209 0-9.447-4.238-9.447-9.447v-56.85c0-5.209 4.238-9.447 9.447-9.447h88.511c5.209 0 9.447 4.238 9.447 9.447v56.85z"/><path d="m106.255 27.127h-88.51c-3.555 0-6.447 2.892-6.447 6.447v46.979 9.872c0 3.555 2.892 6.447 6.447 6.447h88.511c3.555 0 6.447-2.892 6.447-6.447v-9.872-46.978c-.001-3.555-2.893-6.448-6.448-6.448zm-88.51 2h88.511c2.452 0 4.447 1.995 4.447 4.447v45.979h-97.405v-45.978c0-2.452 1.994-4.448 4.447-4.448zm92.957 61.298c0 2.452-1.995 4.447-4.447 4.447h-88.51c-2.452 0-4.447-1.995-4.447-4.447v-8.872h97.404z"/><path d="m63.383 89.213h42.788c.552 0 1-.448 1-1s-.448-1-1-1h-42.788c-.552 0-1 .448-1 1s.448 1 1 1z"/><path d="m50.404 89.213h6.979c.552 0 1-.448 1-1s-.448-1-1-1h-6.979c-.552 0-1 .448-1 1s.448 1 1 1z"/><path d="m17.83 89.213h4.646v3.04c0 .458.492.747.892.525l6.43-3.565h14.118c.552 0 1-.448 1-1s-.448-1-1-1h-14.118l-6.43-3.566c-.4-.222-.892.068-.892.525v3.041h-4.646c-.552 0-1 .448-1 1s.447 1 1 1z"/><path d="m57.382 71.199c5.169 0 9.375-3.859 9.375-8.602v-14.881h6.547c1.483 0 2.69-1.207 2.69-2.69v-2.883c0-1.483-1.207-2.689-2.69-2.689h-10.367c-1.483 0-2.689 1.207-2.689 2.689v12.264c-.921-.273-1.88-.411-2.866-.411-5.17 0-9.376 3.858-9.376 8.601s4.206 8.602 9.376 8.602zm0-15.203c1.208 0 2.365.258 3.438.766.31.147.673.125.962-.059.29-.183.465-.502.465-.845v-13.715c0-.38.309-.689.689-.689h10.367c.38 0 .69.309.69.689v2.883c0 .38-.31.69-.69.69h-7.547c-.552 0-1 .448-1 1v15.881c0 3.64-3.309 6.602-7.375 6.602s-7.376-2.961-7.376-6.602c.001-3.639 3.31-6.601 7.377-6.601z"/></g></svg>