<svg id="Layer_1" enable-background="new 0 0 128 128" height="512" viewBox="0 0 128 128" width="512" xmlns="http://www.w3.org/2000/svg"><path d="m94.083 83.165c-.029-.042-.055-.085-.09-.123-.137-.145-.285-.275-.424-.417-.212-.216-.429-.427-.648-.637-.461-.444-.934-.87-1.418-1.281-.135-.114-.269-.229-.405-.34-1.052-.861-2.156-1.644-3.307-2.349-.082-.05-.165-.099-.248-.149-.669-.401-1.352-.774-2.05-1.12-.159-.079-.316-.16-.476-.237-.348-.165-.698-.325-1.053-.477-.448-.193-.9-.374-1.359-.545-.267-.099-.537-.191-.807-.282-.483-.165-.972-.317-1.466-.458-.161-.045-.32-.094-.482-.137-.128-.034-.256-.068-.385-.101-.01-.003-.017-.011-.027-.013-.237-.059-.479-.105-.718-.159-.225-.051-.449-.104-.675-.149-.109-.022-.217-.043-.327-.063-.012-.002-.023-.006-.035-.008-.005-.001-.01.001-.015 0-.093-.017-.187-.03-.28-.046-.314-.056-.628-.11-.945-.156-.125-.018-.251-.033-.377-.049 6.461-3.057 11.316-8.962 12.946-16.084.306.09.617.149.93.149 2.45 0 4.369-2.528 4.369-5.756 0-2.75-1.395-4.987-3.322-5.59v-14.68c0-10.417-8.444-18.861-18.861-18.861h-.517c.26-.657.596-1.409 1-2.065.271-.44.651-.923 1.036-1.37.571-.664.08-1.677-.796-1.651-1.327.039-3.048.207-4.656.723-3.25 1.042-5.417 2.833-5.417 2.833s.251-1.534.844-2.969c.263-.636.622-1.296.971-1.877.442-.735-.187-1.642-1.032-1.494-1.932.339-4.891 1.064-7.908 2.589-5.563 2.813-14.634 10.125-14.634 23.146v.996 2.167 12.512c-1.927.604-3.322 2.84-3.322 5.59 0 3.228 1.919 5.756 4.369 5.756.313 0 .623-.059.929-.149 1.63 7.122 6.485 13.026 12.945 16.083-.128.017-.256.032-.383.05-.317.046-.631.101-.945.156-.219.038-.439.074-.656.117-.227.046-.451.099-.676.15-.239.053-.48.1-.717.159-.01.002-.017.011-.027.013-.179.045-.355.095-.533.143-.149.04-.296.084-.443.126-.552.159-1.099.332-1.638.522-.222.078-.443.158-.663.241-.458.174-.91.358-1.358.553-.298.129-.593.263-.887.401-.287.136-.569.282-.851.427-.52.267-1.031.548-1.534.845-.192.114-.384.229-.574.346-.546.339-1.079.698-1.603 1.073-.196.14-.394.276-.586.42-.288.217-.571.442-.852.67-.269.217-.532.441-.794.668-.299.26-.595.524-.885.797-.351.329-.694.666-1.029 1.012-.094.098-.196.185-.289.284-.024.025-.04.055-.061.082-5.044 5.379-8.142 12.603-8.142 20.541v20.173c0 1.654 1.346 3 3 3h14.98 36.42 14.973c1.654 0 3-1.346 3-3v-20.173c0-7.915-3.083-15.123-8.104-20.498z" fill="#e6e7e8"/><path d="m68.125 70.603h-1.288c-1.557.339-3.173.523-4.832.523s-3.275-.184-4.832-.523h-1.297c-16.05 0-29.062 13.011-29.062 29.062v20.173c0 1.105.895 2 2 2h66.373c1.105 0 2-.895 2-2v-20.173c-.001-16.05-13.012-29.062-29.062-29.062z" fill="#d4fbff"/><path d="m34.744 79.728c1.004-1.067 2.091-2.056 3.246-2.96-6.8 5.319-11.177 13.595-11.177 22.898v20.173c0 1.105.895 2 2 2h1v-22.174c0-7.205 2.627-13.792 6.969-18.87-.645-.402-1.324-.761-2.038-1.067z" fill="#fff"/><path d="m62.614 75.771h-1.228l-2.787 2.993 1.695 4.407h3.329l1.719-4.47z" fill="#fa759e"/><path d="m62.004 96.218 1.781-3.891-.162-9.156h-3.329l-.16 9.038z" fill="#fa759e"/><path d="m75.187 71.49-5.489 11.888-1.218-1.308-6.476 14.148-6.562-14.064-1.14 1.224-5.487-11.884c-5.47 1.368-10.33 4.26-14.071 8.234 5.49 2.35 9.05 7.73 9.05 13.71v28.4h36.42v-28.4c0-5.98 3.57-11.36 9.05-13.71-3.742-3.976-8.605-6.871-14.077-8.238z" fill="#0089ef"/><path d="m69.052 70.623-7.052 4.489 7.698 8.266 5.498-11.908c-1.976-.493-4.032-.78-6.144-.847z" fill="#d4fbff"/><path d="m48.804 71.47 5.498 11.908 7.698-8.266-7.052-4.489c-2.112.067-4.168.354-6.144.847z" fill="#d4fbff"/><path d="m62.007 71.127c-3.031 0-5.921-.601-8.563-1.683l1.503 1.179 7.053 4.489 7.052-4.489 1.527-1.183c-2.644 1.085-5.537 1.687-8.572 1.687z" fill="#fff"/><path d="m67.014 96.257h10.486v4.96h-10.486z" fill="#fa759e"/><path d="m85.943 43.421c-.473 0-.922.14-1.33.388v4.709c0 1.289-.114 2.552-.321 3.782.49.392 1.048.634 1.651.634 1.861 0 3.369-2.13 3.369-4.757s-1.509-4.756-3.369-4.756z" fill="#fff"/><path d="m39.396 48.518v-4.709c-.408-.248-.857-.388-1.33-.388-1.861 0-3.369 2.13-3.369 4.757s1.508 4.757 3.369 4.757c.603 0 1.161-.242 1.651-.634-.207-1.231-.321-2.493-.321-3.783z" fill="#fff"/><path d="m82.034 33.997-5.778-9.287c-2.29-3.133-5.937-4.984-9.817-4.984h-8.869c-3.88 0-7.527 1.852-9.817 4.984l-5.778 9.287c-1.685 2.709-2.579 5.836-2.579 9.027v5.494c0 12.486 10.122 22.608 22.608 22.608s22.608-10.122 22.608-22.608v-5.494c.001-3.191-.893-6.318-2.578-9.027z" fill="#fff"/><g fill="#3a2c60"><path d="m80.214 108.71c-.553 0-1 .448-1 1v4.283c0 .552.447 1 1 1s1-.448 1-1v-4.283c0-.552-.447-1-1-1z"/><path d="m62 97.833c-.72 0-1.304.584-1.304 1.304s.584 1.304 1.304 1.304 1.304-.584 1.304-1.304-.584-1.304-1.304-1.304z"/><path d="m62 105.712c-.72 0-1.304.584-1.304 1.304s.584 1.304 1.304 1.304 1.304-.584 1.304-1.304-.584-1.304-1.304-1.304z"/><path d="m62 113.591c-.72 0-1.304.584-1.304 1.304s.584 1.304 1.304 1.304 1.304-.584 1.304-1.304-.584-1.304-1.304-1.304z"/><path d="m75.496 70.529c-.021-.007-.036-.023-.057-.029-.755-.189-1.523-.34-2.298-.467-.103-.017-.204-.037-.307-.053-.165-.025-.332-.045-.498-.068-.094-.013-.188-.026-.282-.038 6.465-3.055 11.324-8.959 12.957-16.083.306.093.618.142.931.142 2.45 0 4.369-2.528 4.369-5.756 0-2.75-1.395-4.987-3.322-5.59v-14.679c0-10.417-8.444-18.861-18.861-18.861h-.517c.26-.657.596-1.409 1-2.065.271-.44.651-.923 1.036-1.37.571-.664.08-1.677-.796-1.651-1.327.039-3.048.207-4.656.723-3.25 1.042-5.417 2.833-5.417 2.833s.251-1.534.844-2.969c.263-.636.622-1.296.971-1.877.442-.735-.187-1.642-1.032-1.494-1.932.339-4.891 1.064-7.908 2.589-5.563 2.812-14.634 10.125-14.634 23.146v.996 2.167 12.512c-1.927.604-3.322 2.84-3.322 5.59 0 3.228 1.919 5.756 4.369 5.756.313 0 .625-.049.93-.142 1.632 7.123 6.491 13.027 12.955 16.081-.101.013-.201.027-.301.041-.158.022-.318.04-.476.064-.107.017-.213.038-.319.056-.774.127-1.541.278-2.295.466-.021.005-.036.022-.056.028-13.023 3.295-22.692 15.104-22.692 29.137v20.173c0 1.654 1.346 3 3 3h66.373c1.654 0 3-1.346 3-3v-20.172c.002-14.032-9.667-25.841-22.689-29.136zm-25.193 1.632c.646-.13 1.301-.233 1.961-.317.097-.013.195-.026.292-.037.701-.082 1.407-.142 2.118-.172l5.775 3.676-5.864 6.296-4.354-9.433c.024-.005.048-.008.072-.013zm12.634 10.01h-1.957l-1.224-3.183 2.065-2.217h.358l2.006 2.154zm2.235-10.263-3.172 2.018-3.173-2.02c1.04.141 2.099.22 3.177.22 1.075 0 2.131-.079 3.168-.218zm-6.932 8.709 1.051 2.731-.08 4.518-2.577-5.524zm3.036 3.554h1.364l.141 7.946-.786 1.718-.857-1.837zm3.431 3.738-.081-4.561 1.075-2.794 1.591 1.709zm-1.156-12.599 5.775-3.676c.711.03 1.417.091 2.118.172.098.012.195.025.292.037.66.084 1.315.188 1.961.317.024.005.048.008.072.013l-4.354 9.433zm24.761-27.132c0 2.33-1.438 4.291-2.932 3.63.004-.028.005-.055.009-.083.063-.462.112-.929.148-1.399.008-.097.016-.194.022-.29.032-.503.054-1.008.054-1.518v-4.057c1.38-.342 2.699 1.505 2.699 3.717zm-49.683 3.63c-1.491.661-2.932-1.3-2.932-3.63 0-2.037 1.085-3.757 2.369-3.757.109 0 .22.013.329.04v4.058c0 .512.022 1.019.054 1.522.006.091.014.181.021.272.037.49.088.975.154 1.456.003.013.003.026.005.039zm1.767-3.29v-5.494c0-3.007.84-5.945 2.428-8.499l5.737-9.226c2.093-2.864 5.461-4.574 9.01-4.574h8.868c3.548 0 6.916 1.71 8.969 4.512l5.778 9.287c1.588 2.552 2.427 5.491 2.427 8.499v5.494c0 11.915-9.693 21.608-21.608 21.608s-21.609-9.692-21.609-21.607zm-12.583 71.32v-20.173c0-7.186 2.718-13.747 7.176-18.716 4.761 2.328 7.805 7.151 7.805 12.489v27.4h-13.98c-.552 0-1.001-.449-1.001-1zm68.374 0c0 .551-.448 1-1 1h-13.973v-2.753c0-.552-.447-1-1-1s-1 .448-1 1v2.753h-34.42v-27.4c0-5.887-3.231-11.233-8.344-13.995.12-.115.239-.231.361-.344.163-.152.329-.299.495-.447.85-.752 1.743-1.454 2.68-2.099.111-.077.222-.154.334-.229.295-.197.593-.389.896-.575.158-.097.319-.19.478-.283.341-.201.686-.396 1.036-.583.371-.197.745-.39 1.125-.569.15-.071.303-.137.454-.206.416-.187.834-.368 1.26-.535.075-.03.151-.06.226-.089.806-.308 1.632-.569 2.469-.803l5.132 11.116c.14.303.421.516.75.568.053.009.105.013.158.013.275 0 .541-.114.731-.318l.13-.139 5.935 12.72c.164.352.518.577.906.577h.004c.39-.001.743-.229.905-.584l5.854-12.789.2.214c.19.205.456.318.731.318.053 0 .105-.004.158-.013.329-.053.61-.266.75-.568l5.131-11.115c.833.233 1.655.491 2.457.797.09.035.18.071.269.106.393.155.781.323 1.166.495.188.085.378.166.563.255.228.108.45.227.675.341.576.295 1.144.604 1.696.937.044.027.089.052.133.079 1.5.915 2.908 1.969 4.206 3.14.046.041.092.082.137.124.175.16.343.326.513.49-5.111 2.766-8.34 8.11-8.34 13.991v12.083c0 .552.447 1 1 1s1-.448 1-1v-12.081c0-5.331 3.041-10.152 7.8-12.486 4.456 4.969 7.173 11.529 7.173 18.713z"/><path d="m77.5 95.258h-10.486c-.553 0-1 .448-1 1v4.959c0 .552.447 1 1 1h10.486c.553 0 1-.448 1-1v-4.959c0-.553-.447-1-1-1zm-1 4.959h-8.486v-2.959h8.486z"/><path d="m52.03 43.093c-1.249 0-2.261 1.012-2.261 2.261s1.012 2.261 2.261 2.261 2.261-1.012 2.261-2.261-1.012-2.261-2.261-2.261z"/><path d="m71.979 43.093c-1.249 0-2.261 1.012-2.261 2.261s1.012 2.261 2.261 2.261 2.261-1.012 2.261-2.261c-.001-1.249-1.013-2.261-2.261-2.261z"/><path d="m62.004 56.417c1.969 0 3.571-1.602 3.571-3.571v-1.507c0-.552-.447-1-1-1s-1 .448-1 1v1.507c0 .866-.705 1.571-1.571 1.571s-1.57-.705-1.57-1.571v-1.507c0-.552-.447-1-1-1s-1 .448-1 1v1.507c0 1.969 1.601 3.571 3.57 3.571z"/><path d="m70.258 40.975 4.428.771c.059.01.116.015.173.015.478 0 .899-.342.984-.828.095-.544-.27-1.062-.813-1.157l-4.428-.771c-.552-.09-1.063.27-1.157.813-.095.544.269 1.062.813 1.157z"/><path d="m53.407 39.004-4.428.771c-.544.095-.908.613-.813 1.157.085.486.507.828.984.828.057 0 .114-.005.173-.015l4.428-.771c.544-.095.908-.613.813-1.157-.094-.543-.605-.903-1.157-.813z"/><path d="m66.583 61.056c.332-.438.246-1.058-.189-1.393-.434-.334-1.062-.255-1.399.178-.044.056-1.086 1.357-2.99 1.357-1.935 0-2.922-1.269-2.975-1.338-.325-.443-.946-.542-1.392-.22-.448.323-.549.948-.226 1.396.063.088 1.594 2.162 4.592 2.162 2.923.001 4.513-2.055 4.579-2.142z"/></g></svg>