<svg id="Layer_1" enable-background="new 0 0 128 128" height="512" viewBox="0 0 128 128" width="512" xmlns="http://www.w3.org/2000/svg"><circle cx="67" cy="66" fill="#e6e7e8" r="40.648"/><path d="m23.364 21.875h-.03c-1.554 0-2.817 1.264-2.817 2.817v15.196c0 .24-.436.24-.436 0v-15.196c0-1.554-1.264-2.817-2.817-2.817-1.554 0-2.817 1.264-2.817 2.817v15.196c0 .24-.436.24-.436 0v-15.196c0-1.554-1.264-2.817-2.847-2.817-1.554 0-2.817 1.264-2.817 2.817v22.463c0 1.597 1.694 4.365 4.217 5.94.032.02.065.081.065.159v53.465c0 2.582 1.927 4.706 4.387 4.834.084.004.168.007.252.007 1.192 0 2.316-.447 3.186-1.272.918-.872 1.445-2.097 1.445-3.363v-53.667c0-.079.032-.14.064-.16 2.523-1.572 4.217-4.342 4.217-5.943v-22.463c.001-1.554-1.263-2.817-2.816-2.817z" fill="#e6e7e8"/><path d="m123.654 23.287c0-1.288-.832-2.388-2.07-2.737-1.248-.351-2.538.156-3.216 1.262-1.36 2.22-5.293 13.537-6.421 24.454-1.072 10.372.53 20.586 2.191 23.704v36.638c0 2.556 1.904 4.723 4.335 4.935.138.012.275.018.413.018 1.189 0 2.346-.444 3.225-1.25.98-.899 1.543-2.178 1.543-3.508z" fill="#e6e7e8"/><path d="m62.999 25.354c-21.4 0-38.83 16.94-39.62 38.15.79 21.2 18.22 38.14 39.62 38.14s38.83-16.94 39.62-38.14c-.79-21.21-18.22-38.15-39.62-38.15z" fill="#0089ef"/><ellipse cx="63" cy="62" fill="#d4fbff" rx="33.154" ry="33.154" transform="matrix(.383 -.924 .924 .383 -18.389 96.478)"/><path d="m63 35.09-5.96 6.401 2.887 8.131h6.146l2.887-8.131z" fill="#fa759e"/><path d="m67.792 83.36-4.79 4.79-4.8-4.81 1.72-33.72h6.15z" fill="#fa759e"/><path d="m78.717 32.812-5.91 12.808-3.847-4.132-5.958-6.396 8.198-5.219c2.646.674 5.171 1.664 7.517 2.939z" fill="#ffd7e5"/><path d="m63.002 35.093-5.966 6.396-3.847 4.132-5.91-12.801c2.354-1.274 4.878-2.273 7.525-2.946z" fill="#ffd7e5"/><path d="m19.334 18.875c-1.004 0-1.817.814-1.817 1.817v15.197c0 .673-.545 1.218-1.218 1.218s-1.218-.545-1.218-1.218v-15.197c0-1.004-.814-1.817-1.817-1.817-1.004 0-1.817.814-1.817 1.817v15.197c0 .673-.545 1.218-1.218 1.218s-1.218-.545-1.218-1.218v-15.197c0-1.004-.814-1.817-1.817-1.817h-.031c-1.004 0-1.817.814-1.817 1.817v22.463c0 1.205 1.504 3.691 3.747 5.091.343.214.535.604.535 1.008v53.465c0 1.968 1.474 3.733 3.44 3.836 2.096.11 3.831-1.558 3.831-3.63v-53.667c0-.404.193-.794.536-1.008 2.245-1.399 3.746-3.887 3.746-5.094v-22.464c0-1.004-.814-1.817-1.817-1.817z" fill="#6dc9f7"/><path d="m115.221 18.334c-1.202 1.962-5.141 13.023-6.279 24.035-1.069 10.348.569 20.653 2.191 23.327.004.006.005.012.005.019v1.651 35.242c0 1.982 1.447 3.767 3.422 3.938 2.227.194 4.094-1.557 4.094-3.743v-83.516c0-1.872-2.455-2.55-3.433-.953z" fill="#6dc9f7"/><g fill="#3a2c60"><path d="m79.206 31.943c-.005-.003-.007-.007-.012-.01-.125-.068-.256-.126-.383-.193-.402-.211-.806-.417-1.217-.612-.249-.118-.501-.229-.752-.341-.334-.149-.67-.293-1.009-.431-.245-.1-.491-.198-.739-.292-.403-.153-.81-.296-1.22-.434-.183-.062-.365-.128-.549-.186-.618-.196-1.242-.378-1.874-.539-.002 0-.003-.001-.005-.001 0 0-.001 0-.002 0-2.702-.69-5.531-1.059-8.445-1.059-3.611 0-7.091.568-10.36 1.611-.11.035-.219.075-.329.112-.509.168-1.012.347-1.51.538-.153.059-.304.119-.456.18-.482.193-.958.397-1.429.611-.123.056-.246.109-.368.167-11.626 5.453-19.701 17.267-19.701 30.936 0 18.833 15.322 34.154 34.154 34.154 18.833 0 34.155-15.322 34.155-34.154 0-12.972-7.27-24.276-17.949-30.057zm-11.391 9.785-2.447 6.892h-4.736l-2.447-6.892.952-1.022 3.865-4.146.659.708zm-6.943 8.894h4.25l1.649 32.345-3.768 3.768-3.779-3.787zm-7.4-6.774-4.884-10.579c.043-.022.086-.045.129-.066.353-.176.709-.342 1.068-.505.134-.061.267-.123.402-.182.347-.151.697-.293 1.049-.432.15-.059.299-.121.451-.178.342-.129.688-.248 1.034-.365.163-.055.324-.113.487-.165.351-.113.706-.215 1.06-.315.124-.035.246-.072.371-.105l6.809 4.334-3.116 3.346zm11.081-8.558 6.81-4.335c.163.044.324.092.486.138.299.085.598.171.894.265.258.082.513.172.768.26.235.081.47.161.703.248.297.111.591.23.884.349.188.076.376.151.561.231.307.132.611.272.913.413.176.083.353.164.528.25.103.05.203.105.305.156l-4.882 10.582zm4.046-4.946-5.597 3.563-5.598-3.564c1.819-.321 3.687-.498 5.596-.498 1.91 0 3.779.177 5.599.499zm-5.599 63.81c-17.73 0-32.154-14.424-32.154-32.154 0-11.836 6.433-22.192 15.982-27.774l5.453 11.813c.14.303.421.516.75.568.053.009.106.013.158.013.275 0 .541-.114.732-.318l2.727-2.926 2.266 6.381-1.71 33.532c-.015.282.091.557.291.757l4.8 4.81c.188.188.442.293.708.293.265 0 .52-.105.707-.293l4.79-4.79c.2-.2.306-.476.292-.758l-1.71-33.536 2.271-6.396 2.724 2.925c.191.205.457.318.732.318.052 0 .105-.004.158-.013.329-.053.61-.266.75-.568l5.451-11.816c9.551 5.582 15.987 15.939 15.987 27.778 0 17.73-14.425 32.154-32.155 32.154z"/><path d="m63 21.352c-22.414 0-40.648 18.234-40.648 40.648s18.234 40.648 40.648 40.648 40.648-18.235 40.648-40.648-18.234-40.648-40.648-40.648zm0 79.296c-21.311 0-38.648-17.337-38.648-38.648s17.337-38.648 38.648-38.648 38.648 17.337 38.648 38.648-17.337 38.648-38.648 38.648z"/><path d="m19.364 17.875h-.03c-1.554 0-2.817 1.264-2.817 2.817v15.196c0 .24-.436.24-.436 0v-15.196c0-1.554-1.264-2.817-2.817-2.817-1.554 0-2.817 1.264-2.817 2.817v15.196c0 .24-.436.24-.436 0v-15.196c0-1.554-1.264-2.817-2.847-2.817-1.554 0-2.817 1.264-2.817 2.817v22.463c0 1.597 1.694 4.365 4.217 5.94.032.02.065.081.065.159v53.465c0 2.582 1.927 4.706 4.387 4.834.084.004.168.007.252.007 1.192 0 2.316-.447 3.186-1.272.918-.872 1.445-2.097 1.445-3.363v-53.667c0-.079.032-.14.064-.16 2.523-1.572 4.217-4.342 4.217-5.943v-22.463c.001-1.554-1.263-2.817-2.816-2.817zm.817 25.28c0 .777-1.244 2.979-3.275 4.246-.621.387-1.007 1.099-1.007 1.857v53.667c0 .73-.292 1.409-.822 1.912-.529.502-1.22.758-1.957.719-1.374-.072-2.492-1.345-2.492-2.837v-53.465c0-.758-.386-1.469-1.006-1.856-2.032-1.268-3.276-3.468-3.276-4.243v-22.463c0-.451.367-.817.847-.817.451 0 .817.367.817.817v15.196c0 1.223.995 2.218 2.218 2.218s2.218-.995 2.218-2.218v-15.196c0-.451.367-.817.817-.817s.817.367.817.817v15.196c0 1.223.995 2.218 2.218 2.218s2.218-.995 2.218-2.218v-15.196c0-.451.367-.817.817-.817h.03c.45 0 .817.367.817.817v22.463z"/><path d="m117.584 16.55c-1.248-.351-2.538.156-3.216 1.262-1.36 2.22-5.293 13.537-6.421 24.454-1.072 10.372.53 20.586 2.191 23.704v36.638c0 2.556 1.904 4.723 4.335 4.935.138.012.275.018.413.018 1.189 0 2.346-.444 3.225-1.25.98-.899 1.543-2.178 1.543-3.508v-7.636c0-.552-.448-1-1-1s-1 .448-1 1v7.636c0 .771-.326 1.512-.895 2.034-.576.529-1.327.781-2.112.714-1.407-.123-2.508-1.415-2.508-2.942v-36.894c0-.183-.056-.381-.15-.538-1.532-2.525-3.093-12.626-2.052-22.706 1.109-10.731 4.995-21.75 6.137-23.615.318-.517.82-.423.968-.382.144.041.613.219.613.813v59.213c0 .552.448 1 1 1s1-.448 1-1v-59.213c-.001-1.288-.833-2.388-2.071-2.737z"/><path d="m118.654 82.666c-.552 0-1 .448-1 1v6.667c0 .552.448 1 1 1s1-.448 1-1v-6.667c0-.552-.448-1-1-1z"/></g></svg>