<svg id="Layer_1" enable-background="new 0 0 128 128" height="512" viewBox="0 0 128 128" width="512" xmlns="http://www.w3.org/2000/svg"><path d="m45.247 89.304h-19.718c-2.085 0-3.782 1.696-3.782 3.782v11.159c0 2.085 1.696 3.782 3.782 3.782h19.718c2.085 0 3.782-1.696 3.782-3.782v-11.16c0-2.085-1.696-3.781-3.782-3.781z" fill="#e6e7e8"/><path d="m38.731 110.005h-6.687c-1.402 0-2.543 1.141-2.543 2.543v6.687c0 .547.178 1.052.473 1.467-.293.387-.473.863-.473 1.384 0 1.272 1.036 2.308 2.308 2.308h7.158c1.272 0 2.308-1.036 2.308-2.308 0-.521-.18-.997-.473-1.384.295-.415.473-.919.473-1.467v-6.687c-.001-1.402-1.141-2.543-2.544-2.543z" fill="#e6e7e8"/><path d="m75.859 89.304h-19.718c-2.085 0-3.782 1.696-3.782 3.782v11.159c0 2.085 1.696 3.782 3.782 3.782h19.718c2.085 0 3.782-1.696 3.782-3.782v-11.16c0-2.085-1.697-3.781-3.782-3.781z" fill="#e6e7e8"/><path d="m69.343 110.005h-6.687c-1.402 0-2.543 1.141-2.543 2.543v6.687c0 .547.178 1.052.473 1.467-.293.387-.473.863-.473 1.384 0 1.272 1.035 2.308 2.308 2.308h7.158c1.272 0 2.308-1.036 2.308-2.308 0-.521-.18-.997-.473-1.384.295-.415.473-.919.473-1.467v-6.687c0-1.402-1.141-2.543-2.544-2.543z" fill="#e6e7e8"/><path d="m106.471 89.304h-19.718c-2.085 0-3.782 1.696-3.782 3.782v11.159c0 2.085 1.696 3.782 3.782 3.782h19.718c2.085 0 3.782-1.696 3.782-3.782v-11.16c0-2.085-1.696-3.781-3.782-3.781z" fill="#e6e7e8"/><path d="m99.956 110.005h-6.687c-1.402 0-2.543 1.141-2.543 2.543v6.687c0 .547.178 1.052.473 1.467-.293.387-.473.863-.473 1.384 0 1.272 1.036 2.308 2.308 2.308h7.158c1.272 0 2.308-1.036 2.308-2.308 0-.521-.18-.997-.473-1.384.295-.415.473-.919.473-1.467v-6.687c-.001-1.402-1.142-2.543-2.544-2.543z" fill="#e6e7e8"/><path d="m45.247 52.422h-19.718c-2.085 0-3.782 1.696-3.782 3.782v11.159c0 2.085 1.696 3.782 3.782 3.782h19.718c2.085 0 3.782-1.696 3.782-3.782v-11.159c0-2.085-1.696-3.782-3.782-3.782z" fill="#e6e7e8"/><path d="m31.809 87.513h7.158c1.272 0 2.308-1.035 2.308-2.308 0-.521-.18-.997-.473-1.384.295-.415.473-.919.473-1.467v-6.688c0-1.402-1.141-2.543-2.543-2.543h-6.687c-1.402 0-2.543 1.141-2.543 2.543v6.688c0 .547.178 1.052.473 1.467-.293.387-.473.863-.473 1.384-.001 1.273 1.035 2.308 2.307 2.308z" fill="#e6e7e8"/><path d="m45.247 24.294h-19.718c-2.085 0-3.782 1.696-3.782 3.782v11.159c0 2.085 1.696 3.782 3.782 3.782h19.718c2.085 0 3.782-1.696 3.782-3.782v-11.159c0-2.085-1.696-3.782-3.782-3.782z" fill="#e6e7e8"/><path d="m32.044 22.315h6.687c1.402 0 2.543-1.141 2.543-2.543v-6.687c0-.547-.178-1.052-.473-1.467.293-.387.473-.863.473-1.384 0-1.272-1.035-2.308-2.308-2.308h-7.158c-1.272 0-2.308 1.035-2.308 2.308 0 .521.18.997.473 1.384-.295.415-.473.92-.473 1.467v6.687c.001 1.402 1.142 2.543 2.544 2.543z" fill="#e6e7e8"/><path d="m75.859 52.422h-19.718c-2.085 0-3.782 1.696-3.782 3.782v11.159c0 2.085 1.696 3.782 3.782 3.782h19.718c2.085 0 3.782-1.696 3.782-3.782v-11.159c0-2.085-1.697-3.782-3.782-3.782z" fill="#e6e7e8"/><path d="m62.421 87.513h7.158c1.272 0 2.308-1.035 2.308-2.308 0-.521-.18-.997-.473-1.384.295-.415.473-.919.473-1.467v-6.688c0-1.402-1.141-2.543-2.543-2.543h-6.687c-1.402 0-2.543 1.141-2.543 2.543v6.688c0 .547.178 1.052.473 1.467-.293.387-.473.863-.473 1.384-.001 1.273 1.034 2.308 2.307 2.308z" fill="#e6e7e8"/><path d="m106.471 52.422h-19.718c-2.085 0-3.782 1.696-3.782 3.782v11.159c0 2.085 1.696 3.782 3.782 3.782h19.718c2.085 0 3.782-1.696 3.782-3.782v-11.159c0-2.085-1.696-3.782-3.782-3.782z" fill="#e6e7e8"/><path d="m93.033 87.513h7.158c1.272 0 2.308-1.035 2.308-2.308 0-.521-.18-.997-.473-1.384.295-.415.473-.919.473-1.467v-6.688c0-1.402-1.141-2.543-2.543-2.543h-6.687c-1.402 0-2.543 1.141-2.543 2.543v6.688c0 .547.178 1.052.473 1.467-.293.387-.473.863-.473 1.384-.001 1.273 1.035 2.308 2.307 2.308z" fill="#e6e7e8"/><path d="m56.295 15.477h9.322 4.408 36.292c2.17 0 3.936-1.766 3.936-3.936s-1.766-3.937-3.936-3.937h-50.022c-2.17 0-3.937 1.766-3.937 3.937s1.767 3.936 3.937 3.936z" fill="#e6e7e8"/><path d="m41.247 86.304h-19.718c-1.536 0-2.782 1.245-2.782 2.782v11.159c0 1.536 1.245 2.782 2.782 2.782h19.718c1.536 0 2.782-1.246 2.782-2.782v-11.159c0-1.537-1.246-2.782-2.782-2.782z" fill="#fa759e"/><path d="m34.731 107.005h-6.687c-.852 0-1.543.691-1.543 1.543v6.687c0 .852.691 1.543 1.543 1.543h6.687c.852 0 1.543-.691 1.543-1.543v-6.687c.001-.852-.69-1.543-1.543-1.543z" fill="#6dc9f7"/><path d="m34.967 116.779h-7.158c-.722 0-1.308.586-1.308 1.308s.586 1.308 1.308 1.308h7.158c.722 0 1.308-.586 1.308-1.308s-.586-1.308-1.308-1.308z" fill="#0089ef"/><path d="m71.859 86.304h-19.718c-1.536 0-2.782 1.245-2.782 2.782v11.159c0 1.536 1.245 2.782 2.782 2.782h19.718c1.536 0 2.782-1.246 2.782-2.782v-11.159c0-1.537-1.246-2.782-2.782-2.782z" fill="#fa759e"/><path d="m65.343 107.005h-6.687c-.852 0-1.543.691-1.543 1.543v6.687c0 .852.691 1.543 1.543 1.543h6.687c.852 0 1.543-.691 1.543-1.543v-6.687c.001-.852-.69-1.543-1.543-1.543z" fill="#6dc9f7"/><path d="m65.579 116.779h-7.158c-.722 0-1.308.586-1.308 1.308s.586 1.308 1.308 1.308h7.158c.722 0 1.308-.586 1.308-1.308s-.586-1.308-1.308-1.308z" fill="#0089ef"/><path d="m102.471 86.304h-19.718c-1.536 0-2.782 1.245-2.782 2.782v11.159c0 1.536 1.245 2.782 2.782 2.782h19.718c1.536 0 2.782-1.246 2.782-2.782v-11.159c0-1.537-1.246-2.782-2.782-2.782z" fill="#fa759e"/><path d="m95.956 107.005h-6.687c-.852 0-1.543.691-1.543 1.543v6.687c0 .852.691 1.543 1.543 1.543h6.687c.852 0 1.543-.691 1.543-1.543v-6.687c0-.852-.691-1.543-1.543-1.543z" fill="#6dc9f7"/><path d="m96.191 116.779h-7.158c-.722 0-1.308.586-1.308 1.308s.586 1.308 1.308 1.308h7.158c.722 0 1.308-.586 1.308-1.308s-.586-1.308-1.308-1.308z" fill="#0089ef"/><path d="m41.247 49.422h-19.718c-1.536 0-2.782 1.245-2.782 2.782v11.159c0 1.536 1.245 2.782 2.782 2.782h19.718c1.536 0 2.782-1.245 2.782-2.782v-11.159c0-1.536-1.246-2.782-2.782-2.782z" fill="#fa759e"/><path d="m34.731 70.124h-6.687c-.852 0-1.543.691-1.543 1.543v6.687c0 .852.691 1.543 1.543 1.543h6.687c.852 0 1.543-.691 1.543-1.543v-6.687c.001-.852-.69-1.543-1.543-1.543z" fill="#6dc9f7"/><path d="m34.967 79.897h-7.158c-.722 0-1.308.586-1.308 1.308s.586 1.308 1.308 1.308h7.158c.722 0 1.308-.586 1.308-1.308s-.586-1.308-1.308-1.308z" fill="#0089ef"/><path d="m41.247 21.294h-19.718c-1.536 0-2.782 1.245-2.782 2.782v11.159c0 1.536 1.245 2.782 2.782 2.782h19.718c1.536 0 2.782-1.245 2.782-2.782v-11.159c0-1.536-1.246-2.782-2.782-2.782z" fill="#fa759e"/><path d="m21.747 35.235v-11.159c0-1.536 1.245-2.782 2.782-2.782h-3c-1.536 0-2.782 1.245-2.782 2.782v11.159c0 1.536 1.245 2.782 2.782 2.782h3c-1.537 0-2.782-1.246-2.782-2.782z" fill="#fff"/><path d="m34.731 7.541h-6.687c-.852 0-1.543.691-1.543 1.543v6.687c0 .852.691 1.543 1.543 1.543h6.687c.852 0 1.543-.691 1.543-1.543v-6.687c.001-.852-.69-1.543-1.543-1.543z" fill="#6dc9f7"/><path d="m34.967 4.925h-7.158c-.722 0-1.308.586-1.308 1.308s.586 1.308 1.308 1.308h7.158c.722 0 1.308-.586 1.308-1.308s-.586-1.308-1.308-1.308z" fill="#0089ef"/><path d="m71.859 49.422h-19.718c-1.536 0-2.782 1.245-2.782 2.782v11.159c0 1.536 1.245 2.782 2.782 2.782h19.718c1.536 0 2.782-1.245 2.782-2.782v-11.159c0-1.536-1.246-2.782-2.782-2.782z" fill="#fa759e"/><path d="m65.343 70.124h-6.687c-.852 0-1.543.691-1.543 1.543v6.687c0 .852.691 1.543 1.543 1.543h6.687c.852 0 1.543-.691 1.543-1.543v-6.687c.001-.852-.69-1.543-1.543-1.543z" fill="#6dc9f7"/><path d="m65.579 79.897h-7.158c-.722 0-1.308.586-1.308 1.308s.586 1.308 1.308 1.308h7.158c.722 0 1.308-.586 1.308-1.308s-.586-1.308-1.308-1.308z" fill="#0089ef"/><path d="m102.471 49.422h-19.718c-1.536 0-2.782 1.245-2.782 2.782v11.159c0 1.536 1.245 2.782 2.782 2.782h19.718c1.536 0 2.782-1.245 2.782-2.782v-11.159c0-1.536-1.246-2.782-2.782-2.782z" fill="#fa759e"/><path d="m95.956 70.124h-6.687c-.852 0-1.543.691-1.543 1.543v6.687c0 .852.691 1.543 1.543 1.543h6.687c.852 0 1.543-.691 1.543-1.543v-6.687c0-.852-.691-1.543-1.543-1.543z" fill="#6dc9f7"/><path d="m96.191 79.897h-7.158c-.722 0-1.308.586-1.308 1.308s.586 1.308 1.308 1.308h7.158c.722 0 1.308-.586 1.308-1.308s-.586-1.308-1.308-1.308z" fill="#0089ef"/><path d="m102.317 4.605h-50.022c-1.622 0-2.936 1.315-2.936 2.936 0 1.622 1.315 2.936 2.936 2.936h50.021c1.622 0 2.936-1.315 2.936-2.936.001-1.621-1.314-2.936-2.935-2.936z" fill="#fa759e"/><g fill="#3a2c60"><path d="m41.247 85.304h-19.718c-2.085 0-3.782 1.696-3.782 3.782v11.159c0 2.085 1.696 3.782 3.782 3.782h19.718c2.085 0 3.782-1.696 3.782-3.782v-11.159c0-2.086-1.697-3.782-3.782-3.782zm1.782 14.94c0 .982-.799 1.782-1.782 1.782h-19.718c-.982 0-1.782-.799-1.782-1.782v-11.158c0-.982.799-1.782 1.782-1.782h19.718c.982 0 1.782.799 1.782 1.782z"/><path d="m34.731 106.005h-6.687c-1.402 0-2.543 1.141-2.543 2.543v6.687c0 .547.178 1.052.473 1.467-.293.387-.473.863-.473 1.384 0 1.272 1.036 2.308 2.308 2.308h7.158c1.272 0 2.308-1.035 2.308-2.308 0-.521-.18-.997-.473-1.384.295-.415.473-.919.473-1.467v-6.687c-.001-1.401-1.141-2.543-2.544-2.543zm-7.23 2.544c0-.3.244-.543.543-.543h6.687c.299 0 .543.244.543.543v6.687c0 .299-.244.543-.543.543h-6.687c-.3 0-.543-.244-.543-.543zm7.466 9.846h-7.158c-.17 0-.308-.138-.308-.308s.138-.308.308-.308h.235 6.687.235c.169 0 .308.138.308.308 0 .169-.138.308-.307.308z"/><path d="m71.859 85.304h-19.718c-2.085 0-3.782 1.696-3.782 3.782v11.159c0 2.085 1.696 3.782 3.782 3.782h19.718c2.085 0 3.782-1.696 3.782-3.782v-11.159c0-2.086-1.697-3.782-3.782-3.782zm1.782 14.94c0 .982-.799 1.782-1.782 1.782h-19.718c-.982 0-1.782-.799-1.782-1.782v-11.158c0-.982.799-1.782 1.782-1.782h19.718c.982 0 1.782.799 1.782 1.782z"/><path d="m65.344 106.005h-6.688c-1.402 0-2.543 1.141-2.543 2.543v6.687c0 .547.178 1.052.473 1.467-.293.387-.473.863-.473 1.384 0 1.272 1.036 2.308 2.308 2.308h7.157c1.272 0 2.308-1.035 2.308-2.308 0-.521-.18-.997-.473-1.384.295-.415.473-.92.473-1.467v-6.687c.001-1.401-1.14-2.543-2.542-2.543zm-7.231 2.544c0-.3.244-.543.543-.543h6.688c.299 0 .543.244.543.543v6.687c0 .299-.244.543-.543.543h-6.688c-.299 0-.543-.244-.543-.543zm7.466 9.846h-7.157c-.17 0-.308-.138-.308-.308s.138-.308.308-.308h.235 6.688.235c.17 0 .308.138.308.308-.001.169-.139.308-.309.308z"/><path d="m102.471 85.304h-19.718c-2.085 0-3.782 1.696-3.782 3.782v11.159c0 2.085 1.696 3.782 3.782 3.782h19.718c2.085 0 3.782-1.696 3.782-3.782v-11.159c0-2.086-1.696-3.782-3.782-3.782zm1.782 14.94c0 .982-.799 1.782-1.782 1.782h-19.718c-.982 0-1.782-.799-1.782-1.782v-11.158c0-.982.799-1.782 1.782-1.782h19.718c.982 0 1.782.799 1.782 1.782z"/><path d="m95.956 106.005h-6.687c-1.402 0-2.543 1.141-2.543 2.543v6.687c0 .547.178 1.052.473 1.467-.293.387-.473.863-.473 1.384 0 1.272 1.035 2.308 2.308 2.308h7.158c1.272 0 2.308-1.035 2.308-2.308 0-.521-.18-.997-.473-1.384.295-.415.473-.919.473-1.467v-6.687c-.001-1.401-1.142-2.543-2.544-2.543zm-7.23 2.544c0-.3.244-.543.543-.543h6.687c.3 0 .543.244.543.543v6.687c0 .299-.244.543-.543.543h-6.687c-.299 0-.543-.244-.543-.543zm7.465 9.846h-7.158c-.169 0-.308-.138-.308-.308s.138-.308.308-.308h.235 6.687.235c.17 0 .308.138.308.308.001.169-.137.308-.307.308z"/><path d="m41.247 48.422h-19.718c-2.085 0-3.782 1.696-3.782 3.782v11.158c0 2.085 1.696 3.782 3.782 3.782h19.718c2.085 0 3.782-1.696 3.782-3.782v-11.158c0-2.085-1.697-3.782-3.782-3.782zm1.782 14.94c0 .982-.799 1.782-1.782 1.782h-19.718c-.982 0-1.782-.799-1.782-1.782v-11.158c0-.982.799-1.782 1.782-1.782h19.718c.982 0 1.782.799 1.782 1.782z"/><path d="m27.809 83.513h7.158c1.272 0 2.308-1.036 2.308-2.308 0-.521-.18-.997-.473-1.384.295-.415.473-.92.473-1.467v-6.687c0-1.402-1.141-2.543-2.543-2.543h-6.687c-1.402 0-2.543 1.141-2.543 2.543v6.687c0 .547.178 1.052.473 1.467-.293.387-.473.863-.473 1.384-.001 1.273 1.035 2.308 2.307 2.308zm7.158-2h-7.158c-.17 0-.308-.138-.308-.308 0-.169.138-.308.308-.308h.235 6.687.235c.169 0 .308.138.308.308s-.138.308-.307.308zm-7.466-9.846c0-.299.244-.543.543-.543h6.687c.299 0 .543.244.543.543v6.687c0 .3-.244.543-.543.543h-6.687c-.3 0-.543-.244-.543-.543z"/><path d="m41.247 20.294h-19.718c-2.085 0-3.782 1.696-3.782 3.782v11.159c0 2.085 1.696 3.782 3.782 3.782h19.718c2.085 0 3.782-1.696 3.782-3.782v-11.159c0-2.085-1.697-3.782-3.782-3.782zm1.782 14.941c0 .982-.799 1.782-1.782 1.782h-19.718c-.982 0-1.782-.799-1.782-1.782v-11.159c0-.982.799-1.782 1.782-1.782h19.718c.982 0 1.782.799 1.782 1.782z"/><path d="m28.044 18.315h6.687c1.402 0 2.543-1.141 2.543-2.543v-6.687c0-.547-.178-1.052-.473-1.467.293-.387.473-.863.473-1.384 0-1.272-1.035-2.308-2.308-2.308h-7.158c-1.272 0-2.308 1.036-2.308 2.308 0 .521.18.997.473 1.384-.295.415-.473.92-.473 1.467v6.687c.001 1.402 1.142 2.543 2.544 2.543zm7.23-2.543c0 .299-.244.543-.543.543h-6.687c-.3 0-.543-.244-.543-.543v-6.687c0-.3.244-.543.543-.543h6.687c.299 0 .543.244.543.543zm-7.465-9.847h7.158c.169 0 .308.138.308.308 0 .169-.138.308-.308.308h-.235-6.687-.235c-.17 0-.308-.138-.308-.308-.001-.169.137-.308.307-.308z"/><path d="m71.859 48.422h-19.718c-2.085 0-3.782 1.696-3.782 3.782v11.158c0 2.085 1.696 3.782 3.782 3.782h19.718c2.085 0 3.782-1.696 3.782-3.782v-11.158c0-2.085-1.697-3.782-3.782-3.782zm1.782 14.94c0 .982-.799 1.782-1.782 1.782h-19.718c-.982 0-1.782-.799-1.782-1.782v-11.158c0-.982.799-1.782 1.782-1.782h19.718c.982 0 1.782.799 1.782 1.782z"/><path d="m58.421 83.513h7.157c1.272 0 2.308-1.036 2.308-2.308 0-.521-.18-.997-.473-1.384.295-.415.473-.92.473-1.467v-6.687c0-1.402-1.141-2.543-2.543-2.543h-6.688c-1.402 0-2.543 1.141-2.543 2.543v6.687c0 .547.178 1.052.473 1.467-.293.387-.473.863-.473 1.384.001 1.273 1.037 2.308 2.309 2.308zm7.158-2h-7.157c-.17 0-.308-.138-.308-.308 0-.169.138-.308.308-.308h.235 6.688.235c.17 0 .308.138.308.308-.001.17-.139.308-.309.308zm-7.466-9.846c0-.299.244-.543.543-.543h6.688c.299 0 .543.244.543.543v6.687c0 .3-.244.543-.543.543h-6.688c-.299 0-.543-.244-.543-.543z"/><path d="m102.471 48.422h-19.718c-2.085 0-3.782 1.696-3.782 3.782v11.158c0 2.085 1.696 3.782 3.782 3.782h19.718c2.085 0 3.782-1.696 3.782-3.782v-11.158c0-2.085-1.696-3.782-3.782-3.782zm1.782 14.94c0 .982-.799 1.782-1.782 1.782h-19.718c-.982 0-1.782-.799-1.782-1.782v-11.158c0-.982.799-1.782 1.782-1.782h19.718c.982 0 1.782.799 1.782 1.782z"/><path d="m89.033 83.513h7.158c1.272 0 2.308-1.036 2.308-2.308 0-.521-.18-.997-.473-1.384.295-.415.473-.92.473-1.467v-6.687c0-1.402-1.141-2.543-2.543-2.543h-6.687c-1.402 0-2.543 1.141-2.543 2.543v6.687c0 .547.178 1.052.473 1.467-.293.387-.473.863-.473 1.384 0 1.273 1.035 2.308 2.307 2.308zm7.158-2h-7.158c-.169 0-.308-.138-.308-.308 0-.169.138-.308.308-.308h.235 6.687.235c.17 0 .308.138.308.308.001.17-.137.308-.307.308zm-7.465-9.846c0-.299.244-.543.543-.543h6.687c.3 0 .543.244.543.543v6.687c0 .3-.244.543-.543.543h-6.687c-.299 0-.543-.244-.543-.543z"/><path d="m61.617 9.478c-.552 0-1 .448-1 1s.448 1 1 1h4.408c.552 0 1-.448 1-1s-.448-1-1-1z"/><path d="m52.295 11.478h4.454c.552 0 1-.448 1-1s-.448-1-1-1h-4.454c-1.067 0-1.936-.869-1.936-1.937 0-1.067.869-1.936 1.936-1.936h50.021c1.067 0 1.936.869 1.936 1.936 0 1.068-.869 1.937-1.936 1.937h-31.973c-.552 0-1 .448-1 1s.448 1 1 1h31.974c2.17 0 3.936-1.766 3.936-3.937s-1.766-3.936-3.936-3.936h-50.022c-2.17 0-3.936 1.766-3.936 3.936s1.766 3.937 3.936 3.937z"/></g></svg>