<svg id="Layer_1" enable-background="new 0 0 128 128" height="512" viewBox="0 0 128 128" width="512" xmlns="http://www.w3.org/2000/svg"><path d="m110.031 104.876v-24.172c0-2.106-1.714-3.82-3.82-3.82h-21.505c-.664-1.459-1.434-2.572-2.026-3.302l3.536-1.825c.341-.176.55-.533.539-.917s-.241-.729-.592-.885c-.205-.092-5.045-2.322-6.183-8.175-.458-2.36-.001-5.585.529-9.319.826-5.819 1.854-13.061-.572-19.665-4.464-12.153-12.155-17.163-15.56-18.86-.109-.176-.232-.339-.37-.49-2.178-2.366-7.59-2.81-10.622-2.864-5.059-.092-11.478.81-13.637 2.996-.179.181-.333.374-.473.574-3.287 1.733-10.792 6.809-15.139 18.644-2.418 6.582-1.443 12.143-.583 17.049.536 3.058 1 5.699.54 8.066-1.178 6.058-5.291 10.007-5.333 10.046-.271.256-.377.642-.275 1 .103.358.395.631.759.707l2.177.451c-1.394 2.443-4.143 8.064-3.514 13.436.163 1.392.603 2.753 1.137 3.979-1.51 3.516-2.349 7.385-2.349 11.447v19.445c0 1.654 1.346 3 3 3h34.852c.008 0 .016.002.024.002h55.326c2.981 0 5.407-2.425 5.407-5.407v-5.741c.001-2.936-2.353-5.328-5.273-5.4z" fill="#e6e7e8"/><path d="m24.44 89.509c-2.558-2.432-3.25-7.536-3.25-7.536l-2.34 5.924s-1.54-1.857-2.712-4.379c-1.566 3.501-2.443 7.376-2.443 11.459v19.445c0 1.105.895 2 2 2h11.517v-25.062c-.939-.432-1.902-1.024-2.772-1.851z" fill="#fff"/><path d="m47.759 113.607v-33.264c-.011 0-.022.002-.033.002-4.739 0-8.581-3.842-8.581-8.581v-4.699l-.391.001c-.935 9.723-5.958 10.488-8.034 15.589-1.644 4.039 1.209 9.836 1.209 9.836s-2.273-.006-4.717-1.131v25.062h23.362c-1.555-.001-2.815-1.261-2.815-2.815z" fill="#fa759e"/><path d="m64.716 29.995c-1.417-.733-2.907-1.65-4.114-2.728-2.491-2.224-4.3-5.282-5.083-6.746-3.729 1.403-11.807 1.751-15.576.171-.632 1.34-2.042 3.772-4.687 5.91-1.467 1.186-3.165 2.251-4.71 3.118-2.887 1.62-4.686 4.654-4.686 7.965v7.899c0 12.076 9.79 21.866 21.866 21.866 12.076 0 21.866-9.79 21.866-21.866v-7.522c.001-3.388-1.867-6.511-4.876-8.067z" fill="#fff"/><path d="m47.759 76.7c0-1.555 1.26-2.815 2.815-2.815h5.458c.173-.68.275-1.387.275-2.121v-6.064c-2.635 1.125-5.534 1.75-8.581 1.75-3.046 0-5.946-.624-8.581-1.75v6.064c0 4.739 3.842 8.581 8.581 8.581.011 0 .022-.002.033-.002z" fill="#fff"/><path d="m60.602 27.267c1.207 1.078 2.697 1.994 4.114 2.728 3.009 1.556 4.876 4.68 4.876 8.067v7.522c0 9.03-5.475 16.781-13.286 20.116.127 3.562.858 6.149 1.854 8.184h21.887c-1.207-2.985-2.984-4.593-2.984-4.593l4.694-2.423s-5.5-2.426-6.757-8.898c-1.258-6.472 3.836-18.388 0-28.83-4.477-12.186-12.253-16.97-15.357-18.454 1.12 2.221-.242 6.81-2.585 8.985-.339.314-.871.599-1.54.85.784 1.464 2.593 4.522 5.084 6.746z" fill="#ffd7e5"/><path d="m38.865 65.574c-7.66-3.401-13.005-11.069-13.005-19.99v-7.899c0-3.311 1.798-6.344 4.686-7.965 1.545-.867 3.243-1.932 4.71-3.118 2.645-2.137 4.055-4.57 4.687-5.91-.666-.279-1.2-.617-1.549-1.021-2.436-2.824-3.762-6.526-2.408-8.765-3.351 1.709-10.637 6.598-14.912 18.235-3.836 10.441 1.258 18.489 0 24.961s-5.628 10.583-5.628 10.583l3.564.738s-4.894 7.322-4.11 14.011c.506 4.323 3.949 8.463 3.949 8.463l2.34-5.924s.692 5.104 3.251 7.536c3.137 2.982 7.489 2.982 7.489 2.982s-2.853-5.797-1.209-9.836c2.178-5.352 7.604-5.924 8.145-17.081z" fill="#ffd7e5"/><path d="m70.879 40.654c-.457 0-.891.135-1.286.375v4.555c0 1.247-.11 2.468-.311 3.658.474.379 1.013.613 1.597.613 1.8 0 3.258-2.06 3.258-4.6 0-2.541-1.459-4.601-3.258-4.601z" fill="#fff"/><path d="m25.86 45.584v-4.555c-.395-.24-.829-.375-1.286-.375-1.8 0-3.258 2.06-3.258 4.6 0 2.541 1.459 4.6 3.258 4.6.583 0 1.123-.234 1.597-.613-.201-1.189-.311-2.41-.311-3.657z" fill="#fff"/><path d="m64.716 29.995c-1.417-.733-2.907-1.65-4.114-2.728-2.491-2.224-4.3-5.282-5.083-6.746-3.729 1.403-11.807 1.751-15.576.171-.632 1.34-2.042 3.772-4.687 5.91-1.467 1.186-3.165 2.251-4.71 3.118-2.887 1.62-4.686 4.654-4.686 7.965v7.899c0 12.076 9.79 21.866 21.866 21.866 12.076 0 21.866-9.79 21.866-21.866v-7.522c.001-3.388-1.867-6.511-4.876-8.067z" fill="#fff"/><path d="m60.197 46.929c-1.073 0-1.942.548-1.942 1.224s.87 1.224 1.942 1.224c1.073 0 1.942-.548 1.942-1.224s-.87-1.224-1.942-1.224z" fill="#ffd7e5"/><path d="m35.256 46.657c-1.073 0-1.942.548-1.942 1.224s.87 1.224 1.942 1.224c1.073 0 1.942-.548 1.942-1.224s-.869-1.224-1.942-1.224z" fill="#ffd7e5"/><path d="m47.727 58.992c-3.357 0-5.067-2.316-5.139-2.415-.33-.457-.227-1.095.23-1.425.456-.328 1.089-.228 1.421.225.053.069 1.208 1.574 3.487 1.574 2.231 0 3.45-1.528 3.501-1.593.347-.441.986-.526 1.43-.184s.532.976.193 1.423c-.074.097-1.852 2.395-5.123 2.395z" fill="#fa759e"/><path d="m59.272 10.124c-3.471-3.772-19.646-3.046-22.812.158-2.091 2.116-.743 6.287 1.934 9.39s16.102 2.377 18.664 0c2.562-2.378 3.96-7.651 2.214-9.548z" fill="#ffd7e5"/><path d="m41.31 86.926c-.935 0-1.693.758-1.693 1.693s.758 1.693 1.693 1.693 1.693-.758 1.693-1.693-.758-1.693-1.693-1.693z" fill="#fff"/><path d="m37.678 84.347c-.935 0-1.693.758-1.693 1.693s.758 1.693 1.693 1.693 1.693-.758 1.693-1.693-.759-1.693-1.693-1.693z" fill="#fff"/><path d="m36.705 82.655c0-.935-.758-1.693-1.693-1.693s-1.693.758-1.693 1.693.758 1.693 1.693 1.693 1.693-.758 1.693-1.693z" fill="#fff"/><circle cx="45.543" cy="90.312" fill="#fff" r="1.693"/><path d="m102.213 73.885h-51.639c-1.555 0-2.815 1.26-2.815 2.815v36.907c0 1.555 1.26 2.815 2.815 2.815h51.638c1.555 0 2.815-1.26 2.815-2.815v-36.907c0-1.555-1.26-2.815-2.814-2.815z" fill="#fff"/><path d="m105.031 79.704v33.9c0 1.56-1.26 2.82-2.82 2.82h-51.64c-1.55 0-2.81-1.26-2.81-2.82v-33.9c0-1.56 1.26-2.82 2.81-2.82h51.64c1.56 0 2.82 1.26 2.82 2.82z" fill="#d4fbff"/><path d="m92.179 96.647c-.547.942-1.564 1.577-2.731 1.577-1.257 0-2.34-.736-2.848-1.8-.39.104-.793.106-1.191.058v10.812l4.208-3 4.292 3v-10.538c-.573.124-1.174.087-1.73-.109z" fill="#ffd7e5"/><path d="m98.081 90.011c0-1.167-.635-2.184-1.577-2.731.392-1.111.148-2.398-.741-3.287-.825-.825-1.994-1.096-3.046-.816-.508-1.063-1.591-1.8-2.848-1.8-1.167 0-2.184.635-2.731 1.577-1.111-.392-2.398-.148-3.287.741-.825.826-1.096 1.994-.816 3.046-1.063.508-1.8 1.591-1.8 2.848 0 1.167.635 2.184 1.577 2.731-.392 1.111-.148 2.398.741 3.287.826.826 1.994 1.096 3.046.816.508 1.063 1.591 1.8 2.848 1.8 1.167 0 2.184-.635 2.731-1.577 1.111.392 2.398.148 3.287-.741.825-.825 1.096-1.994.816-3.046 1.064-.508 1.8-1.591 1.8-2.848z" fill="#fa759e"/><circle cx="89.658" cy="89.8" fill="#6dc9f7" r="4.5"/><path d="m105.898 101.869h-2.87c-4.019 0-7.277 3.258-7.277 7.277s3.258 7.277 7.277 7.277h2.87c2.434 0 4.407-1.973 4.407-4.407v-5.741c0-2.433-1.973-4.406-4.407-4.406z" fill="#fff"/><g fill="#3a2c60"><path d="m38.08 40.337c-1.208 0-2.187.979-2.187 2.187s.979 2.187 2.187 2.187 2.187-.979 2.187-2.187c-.001-1.208-.98-2.187-2.187-2.187z"/><path d="m57.373 40.337c-1.208 0-2.187.979-2.187 2.187s.979 2.187 2.187 2.187 2.187-.979 2.187-2.187-.979-2.187-2.187-2.187z"/><path d="m51.213 49.77v-1.458c0-.552-.447-1-1-1s-1 .448-1 1v1.458c0 .82-.667 1.487-1.486 1.487-.82 0-1.487-.667-1.487-1.487v-1.458c0-.552-.447-1-1-1s-1 .448-1 1v1.458c0 1.923 1.564 3.487 3.487 3.487s3.486-1.565 3.486-3.487z"/><path d="m55.703 38.321 4.282.746c.059.01.116.015.173.015.478 0 .899-.342.984-.828.095-.544-.27-1.062-.813-1.157l-4.282-.746c-.551-.093-1.062.27-1.157.813-.095.544.269 1.062.813 1.157z"/><path d="m39.405 36.35-4.281.746c-.544.095-.908.613-.813 1.157.085.486.507.828.984.828.057 0 .114-.005.173-.015l4.281-.746c.544-.095.908-.613.813-1.157-.094-.543-.604-.906-1.157-.813z"/><path d="m105.031 83.347c-.553 0-1 .448-1 1v4.943c0 .552.447 1 1 1s1-.448 1-1v-4.943c0-.552-.447-1-1-1z"/><path d="m59.807 81.39c.376 0 .693.088.948.264.256.176.478.442.669.798.113.215.217.367.311.455.092.088.232.132.418.132.167 0 .309-.064.427-.191.117-.127.176-.274.176-.441 0-.304-.122-.626-.364-.967-.241-.341-.589-.627-1.042-.859s-.971-.348-1.551-.348c-.477 0-.926.085-1.347.255s-.788.417-1.101.742-.555.716-.723 1.172c-.168.457-.252.974-.252 1.552 0 .356.034.692.101 1.009s.167.615.301.893c.134.28.295.532.484.757.213.248.445.448.698.6.253.151.534.263.845.335s.655.108 1.034.108c.498 0 .936-.08 1.312-.24.375-.16.683-.368.925-.624.242-.257.418-.518.532-.783.112-.266.169-.513.169-.742 0-.18-.063-.329-.188-.451-.123-.121-.271-.181-.445-.181-.203 0-.35.059-.441.179-.091.119-.168.273-.231.462-.146.402-.364.706-.653.913-.288.208-.642.311-1.059.311-.386 0-.722-.092-1.01-.274-.287-.183-.509-.46-.666-.83s-.235-.834-.235-1.393c0-.836.178-1.48.532-1.934.353-.452.83-.679 1.426-.679z"/><path d="m69.791 87.452c.124.137.283.206.474.206.207 0 .371-.069.492-.206.123-.137.185-.343.185-.617v-5.68c0-.313-.083-.525-.246-.634-.162-.109-.383-.164-.66-.164h-.451c-.271 0-.467.025-.59.073-.122.049-.213.137-.271.264s-.126.334-.201.622l-1.042 3.932-1.042-3.932c-.076-.287-.143-.495-.201-.622-.059-.127-.15-.215-.271-.264-.123-.049-.319-.073-.59-.073h-.451c-.277 0-.498.055-.66.164-.164.11-.246.321-.246.634v5.68c0 .278.063.484.188.619.123.136.283.204.478.204.203 0 .365-.069.488-.206.122-.137.183-.343.183-.617v-4.955l1.15 4.573c.039.15.078.294.116.433s.088.266.154.38.157.208.274.282c.117.073.262.11.431.11.225 0 .402-.057.529-.171s.214-.241.262-.379c.048-.139.109-.357.185-.654l1.15-4.573v4.955c-.003.273.059.479.183.616z"/><path d="m77.743 81.586c-.11-.274-.273-.506-.487-.695s-.467-.325-.761-.406c-.298-.085-.722-.127-1.273-.127h-1.866c-.32 0-.554.069-.7.206-.148.137-.221.366-.221.685v5.533c0 .287.067.505.201.653.133.149.309.223.529.223.208 0 .38-.075.518-.225s.207-.371.207-.661v-2.032h1.332c.89 0 1.561-.188 2.012-.566.451-.376.676-.931.676-1.662-.001-.344-.057-.652-.167-.926zm-1.489 1.596c-.12.163-.297.281-.526.353-.231.072-.518.108-.859.108h-.979v-2.194h.979c.649 0 1.079.106 1.287.318.186.199.28.457.28.774 0 .264-.061.478-.182.641z"/><path d="m76.396 92.29h-22.6c-.553 0-1 .448-1 1s.447 1 1 1h22.6c.553 0 1-.448 1-1s-.448-1-1-1z"/><path d="m77.396 100.169c0-.552-.447-1-1-1h-22.6c-.553 0-1 .448-1 1s.447 1 1 1h22.6c.552 0 1-.447 1-1z"/><path d="m53.796 106.048c-.553 0-1 .448-1 1s.447 1 1 1h16.032c.553 0 1-.448 1-1s-.447-1-1-1z"/><path d="m84.95 108.183c.333.171.734.142 1.038-.075l3.634-2.59 3.713 2.596c.172.12.372.18.573.18.158 0 .316-.038.462-.113.331-.172.538-.514.538-.887v-9.824c.465-.203.896-.489 1.265-.857.859-.859 1.29-2.054 1.203-3.249 1.055-.775 1.705-2.022 1.705-3.353 0-1.215-.54-2.365-1.445-3.147.198-1.294-.225-2.636-1.165-3.578-.861-.858-2.046-1.291-3.249-1.203-.774-1.055-2.021-1.706-3.353-1.706-1.216 0-2.365.54-3.148 1.446-1.294-.198-2.637.225-3.576 1.165-.859.859-1.291 2.054-1.203 3.249-1.056.775-1.706 2.022-1.706 3.353 0 1.216.54 2.366 1.446 3.148-.198 1.294.224 2.636 1.165 3.577.445.446.983.77 1.562.973v10.007c-.001.373.208.716.541.888zm5.239-4.709c-.173-.12-.373-.18-.573-.18-.203 0-.407.062-.58.186l-2.628 1.874v-7.457c.776.831 1.876 1.328 3.039 1.328 1.216 0 2.365-.54 3.148-1.446.104.016.208.021.313.029v7.568zm-6.433-10.82c.16-.454-.025-.957-.441-1.198-.666-.386-1.079-1.101-1.079-1.866 0-.837.472-1.583 1.231-1.946.434-.208.658-.694.535-1.159-.197-.744.016-1.542.557-2.083.591-.591 1.451-.787 2.246-.505.453.159.956-.024 1.198-.441.386-.665 1.102-1.079 1.866-1.079.824 0 1.588.483 1.945 1.23.207.434.688.659 1.159.536.747-.197 1.542.017 2.083.557.592.592.785 1.453.505 2.247-.159.453.025.956.441 1.198.665.386 1.078 1.102 1.078 1.866 0 .837-.472 1.583-1.231 1.946-.434.208-.658.694-.535 1.159.197.745-.016 1.542-.556 2.083-.593.592-1.455.787-2.247.506-.449-.159-.956.025-1.198.441-.386.666-1.102 1.079-1.866 1.079-.837 0-1.582-.472-1.945-1.231-.17-.354-.524-.568-.902-.568-.085 0-.171.011-.257.033-.739.199-1.541-.015-2.082-.557-.592-.593-.786-1.454-.505-2.248z"/><path d="m106.031 100.876v-6.879c0-.552-.447-1-1-1s-1 .448-1 1v6.873h-1.004c-4.564 0-8.277 3.713-8.277 8.277 0 2.51 1.127 4.758 2.897 6.277h-47.076c-.998 0-1.811-.816-1.811-1.82v-36.9c0-1.003.813-1.82 1.811-1.82h51.64c1.004 0 1.82.816 1.82 1.82v3c0 .552.447 1 1 1s1-.448 1-1v-3c0-2.106-1.714-3.82-3.82-3.82h-21.526c-.66-1.45-1.416-2.576-2.004-3.302l3.536-1.825c.341-.176.55-.533.539-.917s-.241-.729-.592-.885c-.205-.092-5.045-2.322-6.183-8.175-.458-2.36-.001-5.585.529-9.319.826-5.819 1.854-13.061-.572-19.665-4.464-12.153-12.155-17.163-15.56-18.86-.109-.176-.232-.339-.37-.49-2.178-2.366-7.59-2.81-10.622-2.864-5.059-.092-11.478.81-13.637 2.996-.179.181-.333.374-.473.574-3.287 1.733-10.792 6.809-15.139 18.644-2.418 6.582-1.443 12.143-.583 17.049.536 3.058 1 5.699.54 8.066-1.178 6.058-5.291 10.007-5.333 10.046-.271.256-.377.642-.275 1 .103.358.395.631.759.707l2.177.451c-1.394 2.443-4.143 8.064-3.514 13.436.163 1.395.604 2.757 1.139 3.985-1.509 3.515-2.351 7.38-2.351 11.441v19.445c0 1.654 1.346 3 3 3h34.852c.008 0 .016.002.024.002h51.64c.096 0 .186-.02.28-.027.178.011.355.027.536.027h2.87c2.981 0 5.407-2.425 5.407-5.407v-5.741c0-2.936-2.354-5.328-5.274-5.4zm-74.101-7.385c.345 0 .666-.178.849-.471s.201-.66.049-.97c-.026-.054-2.634-5.449-1.181-9.018.685-1.682 1.757-2.888 2.892-4.165 1.305-1.468 2.707-3.046 3.751-5.507.711 4.213 4.171 7.504 8.471 7.936v32.308c0 .661.184 1.275.48 1.818h-19.029v-22.597c1.993.648 3.604.666 3.718.666zm5.755-29.626c-.505-.278-.996-.579-1.474-.897-.107-.071-.212-.145-.318-.218-.445-.308-.879-.631-1.299-.972-.063-.052-.129-.101-.192-.153-.964-.802-1.852-1.691-2.658-2.651-.085-.101-.167-.205-.25-.307-.315-.389-.614-.791-.9-1.203-.077-.111-.157-.218-.232-.33-.331-.496-.642-1.005-.93-1.529-.072-.131-.134-.268-.204-.4-.207-.396-.401-.798-.583-1.208-.092-.207-.179-.416-.264-.627-.155-.384-.297-.775-.429-1.17-.062-.185-.131-.367-.188-.554-.168-.553-.312-1.115-.435-1.686-.041-.189-.07-.38-.106-.57-.064-.347-.114-.699-.161-1.052-.033-.247-.07-.495-.094-.741-.004-.041-.01-.082-.014-.123-.056-.623-.096-1.251-.096-1.889v-4.555-3.344c0-2.929 1.6-5.647 4.175-7.092 1.897-1.065 3.528-2.146 4.849-3.213.327-.264.632-.533.924-.804.097-.09.186-.18.279-.27.19-.184.375-.367.549-.551.097-.103.19-.204.283-.306.159-.175.311-.349.457-.522.083-.099.166-.197.245-.295.15-.185.289-.367.424-.548.059-.079.121-.158.177-.236.182-.252.351-.498.506-.735.032-.049.057-.093.088-.14.122-.192.238-.378.343-.557.047-.08.088-.154.132-.231.048-.084.101-.173.145-.253.09.028.189.051.282.078.135.038.267.077.405.112.178.045.363.084.549.124.209.044.416.086.627.123.228.04.457.079.694.112.125.017.247.031.371.046.226.028.453.055.685.077.089.008.174.015.262.023.265.023.531.043.802.059.012.001.026.002.038.003.01.001.021 0 .031.001 2.933.164 6.135-.084 8.619-.636.005-.001.01-.002.015-.003.034-.008.068-.015.102-.023.063-.014.128-.028.19-.043.177-.042.348-.087.517-.132.062-.017.123-.033.184-.05.079-.022.163-.042.24-.065.127.223.267.46.417.708.025.042.055.088.081.13.134.218.274.442.424.675.064.099.134.201.201.302.123.185.248.37.38.56.083.118.168.237.255.357.13.18.263.36.402.543.095.125.191.249.289.374.144.183.293.364.446.546.102.122.202.242.307.363.17.195.347.385.526.576.096.103.189.207.288.308.281.288.571.569.873.838.281.25.582.499.904.744.964.737 2.109 1.449 3.417 2.125 2.675 1.384 4.337 4.135 4.337 7.179v2.967 4.555c0 .644-.039 1.279-.097 1.908-.001.011-.003.023-.004.034-.026.27-.067.54-.103.811-.05.378-.102.755-.172 1.126-.03.158-.055.317-.089.474-.131.615-.284 1.221-.468 1.815-.015.048-.034.095-.049.143-.179.561-.382 1.112-.606 1.651-.044.106-.089.211-.135.316-.244.561-.505 1.113-.795 1.647-.003.005-.006.011-.009.016-1.6 2.94-3.887 5.452-6.643 7.325-.032.022-.064.043-.096.064-.507.341-1.031.658-1.568.953-.049.027-.097.056-.147.083-2.945 1.592-6.312 2.498-9.888 2.498-3.585 0-6.962-.91-9.912-2.51-.043-.026-.084-.054-.128-.078zm-12.825-18.281c0 .495.021.984.052 1.471.002.036.002.072.004.108.006.088.017.175.024.264.034.427.079.852.137 1.272.002.015.003.031.005.046-1.413.605-2.767-1.271-2.768-3.491 0-1.952 1.034-3.601 2.259-3.601.096 0 .191.011.286.032v3.899zm45.512 3.146c.002-.012.002-.025.004-.037.055-.405.099-.813.133-1.224.008-.1.02-.2.027-.301.003-.038.002-.075.005-.113.031-.487.052-.977.052-1.471v-3.898c1.304-.287 2.545 1.464 2.545 3.569 0 2.219-1.35 4.093-2.768 3.491.001-.006.001-.011.002-.016zm-23.611 27.974v2.573c-3.725-.477-6.615-3.66-6.615-7.512v-4.602c.086.03.174.05.26.079.491.166.988.32 1.493.454.04.01.079.024.119.034.571.147 1.152.266 1.739.369.067.012.135.025.202.036.59.098 1.187.173 1.791.225.038.003.076.006.113.009.615.05 1.235.082 1.863.082s1.249-.032 1.864-.082c.037-.003.073-.005.11-.008.606-.052 1.204-.127 1.796-.226.065-.011.129-.023.194-.035.59-.104 1.174-.223 1.747-.371.034-.009.067-.02.101-.029.513-.135 1.018-.292 1.517-.461.083-.028.168-.047.251-.076v4.602c0 .381-.032.754-.088 1.12h-4.648c-2.1-.001-3.809 1.712-3.809 3.819zm32.93-9.894-3.087 1.593c-.29.15-.488.434-.531.758s.076.65.317.871c.019.018 1.079 1.021 2.067 2.853h-19.66c-.749-1.706-1.296-3.804-1.46-6.547.073-.034.141-.074.213-.108.319-.152.634-.313.944-.479.293-.156.579-.321.863-.489.12-.071.24-.142.359-.216 2.207-1.359 4.138-3.063 5.738-5.028.558 1.781 1.804 4.294 4.572 5.844.154.086.322.127.487.127.351 0 .69-.184.873-.511.271-.482.099-1.091-.384-1.361-3.319-1.859-3.912-5.637-3.987-6.244.086-.135.161-.276.244-.412.023-.037.044-.076.067-.113.3-.5.58-1.011.841-1.532.069-.137.14-.274.206-.413.108-.228.211-.458.312-.689.099-.227.193-.457.285-.688.073-.184.15-.367.219-.553.15-.407.287-.821.414-1.238.044-.147.084-.295.126-.443.097-.343.186-.69.267-1.039.002-.01.006-.021.008-.031.288.082.58.136.874.136 1.573 0 2.917-1.071 3.654-2.696-.001.007-.002.014-.003.021-.555 3.913-1.035 7.292-.512 9.982.904 4.641 3.799 7.341 5.674 8.645zm-5.629-37.324c1.756 4.782 1.565 9.893 1 14.704-.369-2.614-2.073-4.536-4.182-4.536-.096 0-.191.012-.286.02v-1.612c0-.949-.13-1.875-.377-2.757-.159-.57-.384-1.112-.638-1.64.75.574 1.452 1.279 1.943 2.138.185.323.521.504.869.504.168 0 .339-.042.495-.132.479-.274.646-.885.372-1.364-1.939-3.391-6.157-4.798-7.014-5.054-.341-.234-.694-.457-1.068-.65h-.001c-1.595-.825-2.91-1.695-3.907-2.585-.271-.242-.531-.495-.784-.754-.083-.084-.161-.172-.242-.257-.169-.179-.335-.36-.495-.544-.086-.099-.17-.198-.254-.298-.15-.179-.297-.359-.439-.539-.076-.096-.152-.192-.226-.289-.153-.201-.3-.401-.442-.6-.051-.071-.105-.143-.155-.214-.186-.265-.362-.526-.528-.779-.05-.076-.094-.148-.142-.223-.113-.177-.225-.353-.327-.521-.064-.104-.123-.204-.182-.304-.044-.074-.086-.146-.128-.217.323-.179.593-.371.815-.576.216-.201.423-.425.624-.661.087-.101.17-.206.253-.312.095-.122.188-.248.279-.377.022-.031.046-.06.068-.092.853 1.204 2.37 2.876 4.877 4.28.154.086.322.127.487.127.351 0 .69-.184.873-.511.271-.482.099-1.091-.384-1.361-2.938-1.646-4.295-3.706-4.748-4.526.078-.181.149-.362.219-.546.008-.02.014-.04.022-.06.151-.405.278-.813.383-1.223.03-.116.064-.232.09-.349.031-.137.054-.273.08-.409.039-.209.072-.417.098-.624.011-.09.023-.18.031-.27.03-.309.048-.613.046-.91 3.58 2.175 9.399 7.033 13.025 16.903zm-25.395-20.91c.228 0 .456.002.684.006 4.479.079 8 .929 9.186 2.218.075.082.141.178.199.286.007.016.008.034.016.05.108.214.181.466.229.74.007.045.01.095.016.141.027.196.034.407.035.624-.001.165-.009.335-.023.511-.012.145-.028.293-.049.443-.025.179-.056.361-.093.547-.051.245-.108.491-.18.74-.016.057-.03.114-.047.171-.341 1.103-.876 2.208-1.54 3.081-.004.005-.008.01-.012.015-.221.289-.455.552-.701.781-.002.002-.005.005-.007.007-.054.05-.124.099-.195.149-.046.032-.095.064-.158.101-.017.01-.035.02-.053.03-.185.105-.437.226-.779.357-.02.007-.041.015-.061.022-.039.015-.085.028-.126.042.394-1.444.853-3.546.853-5.529 0-.552-.447-1-1-1s-1 .448-1 1c0 2.351-.759 5.006-1.112 6.113-.11.021-.221.042-.334.062-.094.016-.187.033-.283.048-.162.027-.328.052-.496.076-.042.006-.086.011-.128.017v-.593c0-.552-.447-1-1-1s-1 .448-1 1v.803c-.436.032-.876.056-1.318.071l-.586-2.12c-.146-.533-.702-.842-1.23-.697-.532.147-.845.698-.697 1.23l.441 1.597c-.143-.004-.288-.005-.43-.011-.03-.001-.06-.002-.09-.004-.256-.011-.507-.028-.757-.045-.131-.009-.262-.019-.389-.03-.208-.018-.413-.038-.615-.061-.131-.015-.26-.031-.388-.047-.548-1.039-1.612-3.349-1.612-4.797 0-.552-.447-1-1-1s-1 .448-1 1c0 1.368.599 3.041 1.145 4.283-.22-.07-.43-.145-.625-.226-.023-.01-.046-.02-.069-.029-.195-.084-.368-.172-.524-.262-.056-.033-.116-.065-.166-.099-.057-.037-.107-.075-.157-.113-.108-.084-.211-.168-.287-.257-.261-.303-.498-.613-.725-.924-.075-.105-.148-.21-.22-.317-.127-.185-.243-.371-.357-.558-.145-.24-.282-.482-.408-.726-.046-.089-.092-.178-.135-.267-.127-.26-.239-.521-.34-.78-.046-.118-.092-.236-.132-.353-.048-.139-.094-.279-.134-.416-.069-.246-.127-.487-.167-.721-.012-.068-.022-.134-.032-.201-.039-.28-.062-.553-.056-.811 0-.007.001-.015.001-.022.016-.572.144-1.082.395-1.497.003-.004.003-.009.005-.014.093-.152.196-.297.324-.426 1.364-1.382 6.329-2.409 11.494-2.409zm-26.653 20.91c3.442-9.372 8.93-14.237 12.424-16.521-.001.055.009.112.01.167.003.134.013.271.024.407.043.582.157 1.175.334 1.771.016.055.032.11.049.165.066.209.136.416.216.624.021.054.044.108.065.162.096.239.195.476.307.711-.452.82-1.807 2.879-4.748 4.526-.482.27-.654.879-.384 1.361.183.327.522.511.873.511.165 0 .333-.041.487-.127 2.529-1.417 4.05-3.105 4.899-4.311.09.132.185.261.279.39.063.087.125.174.189.259.193.253.391.502.598.743.157.181.35.35.56.513.066.051.136.1.206.148.065.045.12.093.189.136-.026.047-.049.091-.077.139-.035.061-.072.125-.11.188-.083.141-.174.288-.27.439-.039.061-.076.121-.117.184-.139.212-.288.431-.452.656-.002.003-.003.005-.005.007-.164.225-.344.457-.535.691-.055.068-.115.137-.173.205-.141.168-.289.338-.445.508-.075.082-.152.165-.231.247-.159.167-.327.334-.5.501-.079.076-.155.151-.236.227-.258.239-.527.476-.815.709-1.233.997-2.771 2.015-4.57 3.024-3.205 1.799-5.196 5.185-5.196 8.836v1.989c-.095-.008-.19-.02-.286-.02-1.525 0-2.837 1.006-3.587 2.55-.536-3.816-.694-8.027 1.028-12.715zm-2.171 36.492c.184-.276.219-.627.093-.935s-.396-.532-.722-.6l-1.849-.383c1.461-1.772 3.803-5.194 4.691-9.768.273-1.405.266-2.867.123-4.38.678.597 1.5.942 2.394.942.294 0 .586-.055.875-.136.092.397.193.791.305 1.18.013.046.026.093.04.139.245.832.531 1.647.866 2.438-.214.438-1.131 2.227-2.663 4.042-.356.422-.304 1.053.118 1.409.188.158.417.236.645.236.285 0 .567-.121.765-.354.972-1.15 1.712-2.279 2.216-3.132.18.324.368.642.563.956.072.115.146.228.22.342.183.283.372.561.567.835.091.129.18.258.274.385.215.29.438.574.666.853.094 1.295.288 7.609-4.158 13.919-.318.451-.21 1.075.241 1.393.176.124.376.183.575.183.314 0 .624-.147.818-.424 3.535-5.017 4.376-9.988 4.528-12.923.008.008.017.016.025.024.271.255.547.503.831.746.159.136.319.271.482.403.19.154.381.305.576.453.226.171.457.336.69.499.236.165.475.326.717.482.255.164.512.325.773.479.156.092.312.183.471.271.383.214.77.421 1.166.613.02.01.039.022.06.031-.447 6.464-2.651 8.943-4.784 11.343-1.197 1.347-2.435 2.739-3.248 4.74-1.247 3.062-.222 6.895.561 9.031-1.42-.266-3.537-.919-5.226-2.525-2.27-2.157-2.943-6.899-2.949-6.947-.063-.45-.42-.803-.871-.857-.041-.004-.081-.007-.121-.007-.405 0-.777.247-.929.632l-1.671 4.23c-.997-1.505-2.4-4.004-2.695-6.518-.729-6.237 3.904-13.27 3.951-13.34zm-5.148 48.443v-19.444c0-3.184.555-6.239 1.569-9.079.91 1.534 1.746 2.553 1.817 2.639.226.271.58.407.927.348.349-.056.643-.292.771-.62l1.174-2.971c.538 1.667 1.416 3.627 2.798 4.94.779.741 1.622 1.307 2.461 1.749v23.439h-10.517c-.551-.001-1-.449-1-1.001zm94.61-2.404c0 1.878-1.528 3.407-3.407 3.407h-2.87c-3.461 0-6.277-2.816-6.277-6.277s2.816-6.277 6.277-6.277h2.87c1.879 0 3.407 1.528 3.407 3.407z"/></g><path d="m72.389 47.408c-.937 0-1.697.76-1.697 1.697s.76 1.697 1.697 1.697 1.697-.76 1.697-1.697-.759-1.697-1.697-1.697z" fill="#0089ef"/><path d="m23.063 47.408c-.937 0-1.697.76-1.697 1.697s.76 1.697 1.697 1.697 1.697-.76 1.697-1.697c.001-.937-.759-1.697-1.697-1.697z" fill="#0089ef"/></svg>