<svg id="Layer_1" enable-background="new 0 0 128 128" height="512" viewBox="0 0 128 128" width="512" xmlns="http://www.w3.org/2000/svg"><path d="m80.247 38.886c-2.294-2.12-5.139-3.486-8.229-3.949-.943-.142-1.716-.258-2.349-.354 2.843-2.126 4.471-5.618 4.129-9.296-.273-2.948-1.795-5.651-4.176-7.415-2.378-1.762-5.422-2.428-8.342-1.825-4.762.982-8.245 5.227-8.28 10.093-.03 4.197 2.365 7.852 5.981 9.537-.617.245-1.263.499-1.829.721-.464.023-.927-.059-1.35-.238-.389-.165-1.526-.875-3.688-3.911-1.744-2.449-2.995-5.199-3.717-8.173l-2.473-10.166c-.22-1.38-.964-2.592-2.095-3.413s-2.512-1.15-3.895-.931c-1.295.207-2.435.908-3.209 1.976-.774 1.067-1.087 2.369-.881 3.664.007.043.017.086.029.128l4.836 16.265c2.282 7.989 10.979 14.625 11.348 14.904.047.036.098.067.15.094.661.335 1.178.896 1.458 1.579.089.218.361.882.385 1.139l2.454 26.476c.154 1.665-.333 3.303-1.371 4.614l-6.575 8.306c-1.828 2.608-1.531 4.873-.96 6.313l7.852 19.808c.526 1.328 1.542 2.372 2.86 2.941 1.317.57 2.774.592 4.103.066l.131-.052c2.748-1.09 4.097-4.213 3.008-6.962l-6.036-15.228c-.525-1.324-.302-2.84.583-3.957l5.771-7.288c1.305-.126 3.013-.292 4.051-.398l9.411 34.351c.68 2.483 2.935 4.196 5.347 4.196.279 0 .56-.022.841-.07 1.512-.254 2.854-1.142 3.68-2.435.829-1.296 1.072-2.886.674-4.338 0 0-10.462-42.691-10.501-42.987l-2.895-23.271 4.589 4.092c.729.65 1.109 1.619 1.016 2.592l-1.125 11.75c-.145 1.516.39 3.003 1.469 4.081 1.079 1.077 2.581 1.61 4.121 1.458 2.389-.233 4.298-2.229 4.539-4.745l1.217-12.698c.194-2.027.122-5.793-2.538-8.247-1.02-.941-6.074-5.613-9.519-8.797z" fill="#e6e7e8"/><path d="m47.347 60.495c0-1.293-1.052-2.345-2.346-2.345h-8.255c-1.293 0-2.345 1.052-2.345 2.345v9.497c-.672-.175-1.367-.263-2.078-.263-4.229 0-7.669 3.164-7.669 7.053s3.44 7.053 7.669 7.053 7.669-3.164 7.669-7.053v-11.646h5.009c1.293 0 2.346-1.052 2.346-2.346z" fill="#e6e7e8"/><path d="m99.677 27.729c-.711 0-1.406.088-2.078.263v-9.497c0-1.293-1.052-2.345-2.345-2.345h-8.255c-1.293 0-2.346 1.052-2.346 2.345v2.295c0 1.293 1.052 2.346 2.346 2.346h5.009v11.646c0 3.889 3.44 7.053 7.669 7.053s7.669-3.164 7.669-7.053-3.44-7.053-7.669-7.053z" fill="#e6e7e8"/><path d="m36.092 6.555c2.308-.368 4.478 1.205 4.845 3.513l2.489 10.243c.743 3.058 2.049 5.954 3.875 8.517 1.383 1.942 2.939 3.755 4.112 4.252.619.262 1.293.366 1.963.304 0 0 4.56-1.783 4.56-1.841-4.451-.709-7.971-4.556-7.936-9.395.032-4.37 3.202-8.238 7.483-9.12 5.604-1.155 10.808 2.816 11.321 8.352.406 4.376-2.255 8.319-6.212 9.732.003.019 2.722.431 5.278.815 2.879.432 5.56 1.719 7.698 3.695 3.445 3.184 8.5 7.856 9.519 8.796 1.969 1.817 2.476 4.749 2.22 7.416l-1.217 12.697c-.188 1.965-1.676 3.653-3.64 3.845-2.65.259-4.739-1.938-4.498-4.448l1.126-11.75c.124-1.294-.376-2.569-1.346-3.434l-5.787-5.161c-.275-.245-.707-.016-.657.35l3.093 24.859c.119 1.283 10.523 43.105 10.523 43.105.684 2.496-.932 5.105-3.549 5.545-2.28.384-4.447-1.174-5.058-3.404l-9.636-35.173c-.242.042-.485.083-.733.106l-4.577.424-6.036 7.622c-1.109 1.4-1.387 3.286-.728 4.947l6.036 15.228c.884 2.23-.217 4.779-2.446 5.664l-.132.052c-2.231.886-4.779-.215-5.664-2.447l-7.852-19.808c-.422-1.064-.808-3.007.849-5.371l6.54-8.259c1.193-1.506 1.759-3.414 1.582-5.327l-2.454-26.476c-.034-.364-.245-.912-.455-1.425-.371-.908-1.057-1.65-1.931-2.093 0 0-8.772-6.622-10.989-14.38l-4.839-16.275c-.339-2.13 1.128-4.153 3.26-4.492z" fill="#fa759e"/><path d="m42.346 56.495c0-.743-.602-1.346-1.346-1.346h-6.009-2.245c-.743 0-1.346.602-1.346 1.346v3.641 7.28c-.921-.436-1.967-.686-3.078-.686-3.683 0-6.669 2.71-6.669 6.053s2.986 6.053 6.669 6.053 6.669-2.71 6.669-6.053v-12.647h6.009c.743 0 1.346-.602 1.346-1.346z" fill="#ffd7e5"/><path d="m81.653 14.495c0-.743.602-1.346 1.346-1.346h6.009 2.245c.743 0 1.346.602 1.346 1.346v3.641 7.28c.921-.436 1.967-.686 3.078-.686 3.683 0 6.669 2.71 6.669 6.053s-2.986 6.053-6.669 6.053-6.669-2.71-6.669-6.053v-12.647h-6.009c-.743 0-1.346-.602-1.346-1.346z" fill="#fff"/><path d="m95.677 33.835c3.112 0 5.718-1.937 6.454-4.553-.736-2.616-3.343-4.553-6.454-4.553-1.111 0-2.157.25-3.078.686v-7.28-3.641c0-.743-.602-1.346-1.345-1.346h-2.245-6.009c-.743 0-1.346.602-1.346 1.346v2.295c0 .743.602 1.346 1.346 1.346h6.009v8.698.947c-.001 3.345 2.985 6.055 6.668 6.055z" fill="#6dc9f7"/><g fill="#3a2c60"><path d="m76.247 34.886c-2.294-2.12-5.14-3.486-8.229-3.949-.94-.141-1.713-.258-2.349-.354 2.843-2.126 4.47-5.618 4.129-9.296-.273-2.948-1.795-5.651-4.176-7.415-2.379-1.762-5.419-2.428-8.342-1.825-4.762.982-8.245 5.226-8.28 10.093-.031 4.197 2.364 7.852 5.981 9.537-.617.245-1.263.499-1.829.721-.463.021-.926-.059-1.35-.238-.389-.165-1.526-.875-3.688-3.911-1.745-2.45-2.995-5.2-3.717-8.174l-2.473-10.165c-.22-1.38-.964-2.592-2.095-3.413s-2.511-1.15-3.895-.931c-1.294.208-2.434.909-3.208 1.977-.774 1.067-1.087 2.369-.881 3.664.007.043.017.086.029.128l4.836 16.265c2.282 7.989 10.979 14.625 11.348 14.903.047.035.097.067.15.093.661.335 1.179.896 1.458 1.58.089.219.361.885.385 1.139l2.454 26.477c.154 1.665-.333 3.303-1.371 4.614l-6.575 8.306c-1.828 2.608-1.531 4.873-.96 6.313l7.852 19.808c.526 1.327 1.542 2.372 2.86 2.941 1.319.57 2.776.593 4.104.066l.131-.053c2.748-1.091 4.096-4.214 3.007-6.961l-6.036-15.228c-.525-1.324-.302-2.84.583-3.957l5.772-7.288c1.305-.126 3.013-.292 4.051-.398l9.411 34.351c.68 2.483 2.935 4.196 5.347 4.196.279 0 .56-.022.841-.07 1.512-.254 2.854-1.142 3.68-2.435.829-1.296 1.072-2.886.674-4.338 0 0-2.057-8.269-4.353-17.565-.132-.536-.673-.864-1.21-.731-.536.132-.863.674-.731 1.21 2.295 9.299 4.354 17.569 4.359 17.592.254.93.1 1.935-.425 2.756-.53.83-1.356 1.376-2.326 1.539-1.715.291-3.437-.89-3.928-2.682l-9.636-35.173c-.133-.486-.625-.798-1.121-.724-.263.038-3.36.34-5.25.522-.271.026-.52.162-.688.375l-6.037 7.622c-1.326 1.675-1.661 3.95-.874 5.936l6.036 15.228c.683 1.723-.163 3.681-1.887 4.366l-.131.052c-.83.331-1.744.314-2.571-.043-.828-.358-1.465-1.012-1.794-1.843l-7.852-19.808c-.567-1.431-.319-2.92.704-4.382l6.541-8.259c1.358-1.716 1.996-3.86 1.793-6.04l-2.454-26.477c-.042-.458-.232-.993-.524-1.71-.449-1.098-1.27-2.004-2.317-2.561-.781-.607-8.563-6.793-10.57-13.819l-4.819-16.207c-.103-.748.085-1.497.534-2.115.46-.635 1.137-1.052 1.905-1.174.854-.135 1.708.068 2.405.575.699.507 1.159 1.255 1.31 2.187l2.489 10.242c.782 3.222 2.139 6.203 4.032 8.862 1.807 2.538 3.333 4.083 4.537 4.593.767.325 1.612.457 2.446.378.093-.008.185-.03.272-.064 5.202-2.034 5.202-2.034 5.196-2.781-.004-.488-.36-.902-.843-.979-4.141-.66-7.124-4.193-7.093-8.4.028-3.929 2.84-7.356 6.684-8.148 2.402-.494 4.798.028 6.748 1.473 1.924 1.425 3.154 3.609 3.375 5.992.354 3.828-1.929 7.404-5.552 8.697-.46.165-.735.637-.648 1.119.131.729.131.729 6.114 1.627 2.69.404 5.169 1.594 7.168 3.44 3.445 3.185 8.5 7.857 9.519 8.796 1.479 1.365 2.173 3.765 1.903 6.586l-1.217 12.698c-.147 1.541-1.327 2.807-2.742 2.945-.953.093-1.85-.22-2.514-.883-.655-.653-.98-1.555-.892-2.475l1.126-11.75c.154-1.604-.473-3.203-1.676-4.275l-5.787-5.16c-.44-.394-1.063-.469-1.586-.191-.522.278-.808.836-.729 1.41l3.089 24.828c.02.217.062.668 3.063 12.945.131.537.673.864 1.208.734.537-.131.865-.672.734-1.208-2.536-10.372-2.978-12.39-3.018-12.686l-2.895-23.271 4.589 4.092c.729.65 1.109 1.619 1.016 2.592l-1.126 11.75c-.145 1.516.391 3.003 1.47 4.081 1.079 1.077 2.579 1.612 4.121 1.458 2.388-.233 4.297-2.229 4.539-4.745l1.217-12.698c.194-2.027.122-5.793-2.538-8.247-1.018-.941-6.073-5.613-9.517-8.797z"/><path d="m78.087 84.321c-.537.132-.865.673-.733 1.209l1.322 5.374c.112.456.521.761.97.761.08 0 .16-.009.24-.029.536-.132.864-.674.731-1.21l-1.321-5.372c-.131-.537-.673-.863-1.209-.733z"/><path d="m43.346 56.495c0-1.293-1.052-2.346-2.345-2.346h-8.255c-1.293 0-2.345 1.052-2.345 2.346v9.497c-.672-.175-1.367-.263-2.078-.263-4.229 0-7.669 3.164-7.669 7.053s3.44 7.053 7.669 7.053 7.669-3.164 7.669-7.053v-11.646h5.009c1.293 0 2.345-1.052 2.345-2.345zm-2 2.296c0 .19-.155.345-.345.345h-6.009c-.552 0-1 .448-1 1v12.646c0 2.786-2.543 5.053-5.669 5.053s-5.669-2.267-5.669-5.053 2.543-5.053 5.669-5.053c.93 0 1.822.199 2.65.59.31.147.674.125.963-.059.29-.183.465-.502.465-.845v-10.92c0-.19.155-.346.345-.346h8.255c.19 0 .345.155.345.346z"/><path d="m95.677 23.729c-.711 0-1.406.088-2.078.263v-9.497c0-1.293-1.052-2.346-2.346-2.346h-8.254c-1.293 0-2.346 1.052-2.346 2.346v2.295c0 1.293 1.052 2.345 2.346 2.345h5.009v11.646c0 3.889 3.44 7.053 7.669 7.053s7.669-3.164 7.669-7.053-3.44-7.052-7.669-7.052zm0 12.106c-3.126 0-5.669-2.267-5.669-5.053v-12.646c0-.552-.448-1-1-1h-6.009c-.19 0-.346-.155-.346-.345v-2.295c0-.19.155-.346.346-.346h8.254c.19 0 .346.155.346.346v10.92c0 .343.175.662.465.845.289.184.653.206.962.059.828-.392 1.72-.59 2.65-.59 3.126 0 5.669 2.267 5.669 5.053s-2.542 5.052-5.668 5.052z"/></g></svg>