<svg id="Layer_1" enable-background="new 0 0 128 128" height="512" viewBox="0 0 128 128" width="512" xmlns="http://www.w3.org/2000/svg"><path d="m91.438 121.552-7.11-32.663-.178-.82-.946-4.345-3.046-13.991c-1.501-6.894-.341-14.038 3.181-19.6 1.605-2.533 1.781-5.779.46-8.47l-4.084-8.321c.004-.047.014-.092.014-.14v-1.534c1.7 1.038 3.443 2.266 5.232 3.755.513.427 1.164.662 1.832.662.855 0 1.659-.376 2.205-1.033 1.011-1.215.845-3.026-.37-4.036-3.061-2.547-6.034-4.483-8.898-5.927v-1.099c0-.938-.763-1.701-1.701-1.701-.803 0-1.474.561-1.651 1.311-3.079-1.183-6.014-1.811-8.772-2.019v-1.213c4.257-.056 7.702-3.535 7.702-7.805 0-4.304-3.502-7.806-7.805-7.806h-3.999c-1.321 0-2.396 1.075-2.396 2.396s1.075 2.396 2.396 2.396h3.999c1.662 0 3.014 1.352 3.014 3.014s-1.352 3.014-3.014 3.014c-2.585 0-4.688 2.103-4.688 4.688v1.36c-2.674.251-5.133.863-7.342 1.666-.268-.589-.858-1.001-1.546-1.001-.938 0-1.701.763-1.701 1.701v.69c-5.753 2.835-9.134 6.552-9.215 6.643-1.043 1.182-.93 2.994.25 4.04 1.179 1.045 2.993.937 4.044-.242.208-.234 1.949-2.134 4.921-4.014v2.092c0 .048.01.093.014.14l-4.084 8.321c-1.319 2.687-1.16 5.906.415 8.4 3.601 5.701 4.794 12.47 3.359 19.06l-11.413 52.43c-.06.275.001.563.167.791 2.609 3.569 15.251 4.846 25.302 4.855 10.032-.009 22.674-1.286 25.285-4.855.166-.227.226-.515.167-.79zm-15.112-91.72v3.368c0 .031.008.061.009.091-.84 5.782-4.849 10.32-9.822 10.725-.348.027-.713.028-1.073 0-4.973-.405-8.983-4.943-9.823-10.725.002-.031.009-.06.009-.091v-3.914c5.071-2.253 12.205-3.428 20.7.546z" fill="#e6e7e8"/><path d="m59.564 4.625h3.999c2.205 0 3.999 1.794 3.999 3.999s-1.794 3.999-3.999 3.999c-2.042 0-3.703 1.661-3.703 3.703v2.27c.917-.055 1.858-.065 2.823-.023v-2.247c0-.486.395-.881.881-.881 3.761 0 6.821-3.06 6.821-6.821s-3.06-6.821-6.821-6.821h-3.999c-.78 0-1.411.632-1.411 1.411-.001.779.631 1.411 1.41 1.411z" fill="#d4fbff"/><path d="m82.854 31.161c-.424 0-.851-.143-1.203-.435-22.271-18.533-38.347-.957-39.021-.199-.69.774-1.878.848-2.655.159-.777-.688-.851-1.873-.165-2.652.189-.214 19.123-21.108 44.248-.202.799.665.907 1.851.243 2.65-.372.448-.908.679-1.447.679z" fill="#6dc9f7"/><path d="m86.537 117.823-11.28-51.82c-1.514-6.954-.495-14.324 3.313-20.336 1.433-2.263 1.587-5.107.407-7.51l-5.424-11.052c0 7.402-4.81 13.459-10.898 13.955-.204.017-.408.019-.612.019-.002 0-.005 0-.007 0-.204 0-.409-.002-.612-.019-6.088-.496-10.898-6.552-10.898-13.955l-5.424 11.052c-1.167 2.378-1.051 5.201.364 7.441 3.717 5.885 4.969 12.995 3.489 19.795l-11.413 52.43c2.128 2.911 13.341 4.442 24.49 4.452h.008.008c11.147-.01 22.36-1.541 24.489-4.452z" fill="#fa759e"/><path d="m40.494 117.823 11.413-52.43c1.48-6.8.228-13.91-3.489-19.795-1.414-2.239-1.53-5.063-.363-7.441l3.145-6.407c-.429-1.455-.674-3.014-.674-4.644l-5.424 11.052c-1.167 2.378-1.051 5.201.363 7.441 3.717 5.885 4.969 12.995 3.489 19.795l-11.413 52.43c2.128 2.911 13.341 4.442 24.49 4.452h.008.008c.49 0 .979-.008 1.469-.014-10.648-.138-20.987-1.656-23.022-4.439z" fill="#fff"/><g fill="#3a2c60"><path d="m79.035 83.362c-.539.117-.882.65-.765 1.189l.916 4.21c.103.468.517.788.977.788.07 0 .142-.007.214-.023.539-.117.882-.65.765-1.189l-.916-4.21c-.119-.54-.645-.883-1.191-.765z"/><path d="m87.514 117.61-5.363-24.64c-.118-.539-.647-.881-1.19-.764-.539.117-.882.65-.765 1.19l5.256 24.143c-2.319 2.141-12.114 3.726-23.42 3.735-11.292-.01-21.086-1.595-23.406-3.735l11.304-51.933c1.546-7.102.26-14.397-3.621-20.542-1.209-1.915-1.329-4.393-.312-6.466l3.751-7.643c.071.01.142.021.216.022 1.377 6.032 5.878 10.633 11.376 11.08.453.037.925.038 1.394 0 5.497-.447 9.998-5.047 11.376-11.08.074-.001.145-.012.216-.022l3.751 7.643c1.019 2.077.884 4.58-.354 6.534-3.8 6-5.056 13.685-3.445 21.084l3.045 13.991c.118.54.644.88 1.19.765.539-.117.882-.65.765-1.19l-3.044-13.992c-1.5-6.889-.341-14.029 3.18-19.588 1.606-2.538 1.783-5.789.459-8.485l-4.081-8.317c.004-.046.014-.091.014-.138v-1.506c1.692 1.034 3.427 2.257 5.207 3.739.517.43 1.171.666 1.841.666.859 0 1.667-.378 2.217-1.039 1.016-1.221.849-3.042-.372-4.058-3.059-2.545-6.03-4.48-8.893-5.924v-1.09c0-.946-.771-1.716-1.717-1.716-.804 0-1.476.558-1.661 1.306-3.069-1.177-5.995-1.803-8.746-2.012v-1.184c4.257-.064 7.702-3.547 7.702-7.82 0-4.313-3.509-7.821-7.821-7.821h-3.999c-1.33 0-2.411 1.082-2.411 2.411s1.082 2.412 2.411 2.412h3.999c1.653 0 2.999 1.345 2.999 2.999s-1.345 2.999-2.999 2.999c-2.594 0-4.704 2.11-4.704 4.703v1.348c-2.664.251-5.115.861-7.317 1.66-.273-.588-.865-.999-1.554-.999-.946 0-1.716.77-1.716 1.716v.682c-5.75 2.835-9.131 6.549-9.211 6.641-1.048 1.188-.935 3.01.252 4.062 1.186 1.051 3.009.942 4.065-.244.207-.233 1.938-2.123 4.895-3.997v2.068c0 .047.01.091.014.137l-4.082 8.317c-1.322 2.692-1.163 5.917.416 8.415 3.599 5.699 4.791 12.463 3.357 19.049l-11.413 52.43c-.061.28.001.572.17.803 2.613 3.574 15.26 4.853 25.314 4.861 10.037-.009 22.683-1.287 25.296-4.861.168-.233.229-.525.169-.805zm-15.141-95.809v1.872c-3.991-1.745-7.699-2.428-11.056-2.428-3.649 0-6.881.807-9.613 1.926v-1.718c5.408-2.057 12.506-2.951 20.669.348zm-9.8 18.262c-.347.028-.709.029-1.07 0-4.965-.404-8.968-4.935-9.809-10.708.002-.031.009-.061.009-.093v-3.906c5.065-2.248 12.187-3.416 20.669.548v3.358c0 .031.008.06.009.09-.838 5.776-4.842 10.307-9.808 10.711zm20.846-11.462c.374.311.425.869.114 1.242-.168.203-.416.318-.68.318-.145 0-.36-.036-.563-.204-2.225-1.851-4.388-3.342-6.485-4.543v-2.003c2.461 1.315 5.003 3.018 7.614 5.19zm-22.56-12.276c0-1.491 1.213-2.703 2.704-2.703 2.756 0 4.999-2.242 4.999-4.999s-2.242-4.999-4.999-4.999h-3.999c-.227 0-.411-.185-.411-.412s.185-.411.411-.411h3.999c3.209 0 5.821 2.611 5.821 5.821s-2.611 5.821-5.821 5.821c-1.037 0-1.881.844-1.881 1.88v1.222c-.276-.002-.551.001-.823.007zm-18.976 13.537c-.323.363-.881.398-1.245.076-.363-.322-.398-.879-.081-1.239.071-.08 2.884-3.144 7.714-5.693v1.861c-3.855 2.231-6.139 4.715-6.388 4.995z"/></g></svg>