<svg id="Layer_1" enable-background="new 0 0 128 128" height="512" viewBox="0 0 128 128" width="512" xmlns="http://www.w3.org/2000/svg"><path d="m94.035 78.868c-.042-.052-.084-.1-.136-.142-3.628-3.815-8.242-6.68-13.432-8.182-.017-.006-.028-.021-.046-.026-.144-.041-.293-.072-.439-.112-.177-.048-.354-.097-.532-.142-.005-.001-.008-.005-.013-.007-.1-.025-.203-.043-.303-.067-.227-.054-.452-.108-.68-.157-.166-.036-.332-.071-.5-.104-.098-.019-.197-.035-.295-.053-.093-.017-.187-.034-.28-.05-.135-.024-.269-.056-.404-.078-.031-.005-.064-.007-.095-.012-.178-.028-.357-.053-.536-.078-.048-.007-.096-.012-.144-.018-.001 0-.003 0-.004-.001 6.389-3.072 11.185-8.939 12.809-16.004.3.083.612.129.934.129 2.45 0 4.369-2.528 4.369-5.756 0-1.652-.504-3.117-1.323-4.158v-15.244c0-5.695-3.486-10.588-8.435-12.664-1.67-6.489-9.347-11.411-18.55-11.411-9.204 0-16.881 4.922-18.55 11.412-4.949 2.076-8.434 6.969-8.434 12.663v15.246c-.819 1.04-1.323 2.506-1.323 4.158 0 3.228 1.919 5.756 4.369 5.756.322 0 .634-.046.934-.129 1.623 7.065 6.419 12.932 12.808 16.004-.004 0-.008.001-.011.001-.045.006-.089.011-.134.017-.181.026-.362.05-.542.079-.031.005-.062.006-.092.011-.132.021-.263.053-.395.076-.1.018-.201.035-.301.054-.093.017-.186.032-.279.05-.169.033-.337.069-.504.105-.229.049-.456.104-.683.158-.099.024-.2.042-.299.066-.005.001-.008.005-.012.006-.181.045-.36.095-.54.144-.143.039-.29.069-.432.11-.017.005-.028.02-.045.026-5.192 1.502-9.807 4.367-13.435 8.184-.049.04-.09.087-.131.137-5.051 5.38-8.154 12.61-8.154 20.554v20.172c0 1.654 1.346 3 3 3h26.371 13.631 7.756l1.016 2.401c.646 1.531 2.163 2.477 3.756 2.477.417 0 .84-.065 1.253-.201l.989-.326c1.845-.607 2.972-2.461 2.743-4.351h8.859c1.654 0 3-1.346 3-3v-20.172c-.002-7.943-3.105-15.171-8.154-20.551z" fill="#e6e7e8"/><path d="m79.685 12.687c-1.264-6.308-8.689-11.156-17.685-11.156-8.997 0-16.421 4.848-17.685 11.156-4.843 1.8-8.299 6.45-8.299 11.92v15.648c.569-.619 1.273-1.002 2.047-1.002.475 0 .922.151 1.33.402v-8.398c0-4.698 2.776-8.739 6.771-10.6 2.996 4.152 8.959 6.986 15.837 6.986s12.841-2.834 15.837-6.986c3.995 1.861 6.771 5.902 6.771 10.6v8.397c.408-.251.855-.402 1.33-.402.774 0 1.478.383 2.047 1.002v-15.648c-.001-5.469-3.458-10.119-8.301-11.919z" fill="#fa759e"/><path d="m85.938 39.253c-.473 0-.922.14-1.33.388v4.709c0 1.289-.114 2.552-.321 3.782.49.392 1.048.634 1.651.634 1.861 0 3.369-2.13 3.369-4.757s-1.508-4.756-3.369-4.756z" fill="#fff"/><path d="m39.392 44.35v-4.709c-.408-.248-.857-.388-1.33-.388-1.861 0-3.369 2.13-3.369 4.757s1.508 4.757 3.369 4.757c.603 0 1.161-.242 1.651-.634-.208-1.232-.321-2.494-.321-3.783z" fill="#fff"/><path d="m68.124 66.357h-.954c-1.661.389-3.391.601-5.171.601-1.78 0-3.509-.212-5.171-.601h-.954c-16.05 0-29.062 13.011-29.062 29.062v22.173h70.373v-22.173c.001-16.051-13.01-29.062-29.061-29.062z" fill="#6dc9f7"/><path d="m69.698 79.135-7.698-8.266-7.698 8.266-1.81-3.92 2.693 17.467v24.909h13.63v-24.909l2.693-17.467z" fill="#fff"/><path d="m48.808 67.236c-.319.08-.64.153-.954.243l-4.064 12.23 6.877 3.473-2.292 5.292 6.81 11.735v-7.527l-2.693-17.467z" fill="#6dc9f7"/><path d="m77.577 81.039 2.633-1.33-4.064-12.23c-.314-.09-.636-.163-.954-.243l-3.684 7.979-.396 2.569c2.532.051 4.916 1.252 6.465 3.255z" fill="#6dc9f7"/><path d="m69.052 66.38-7.052 4.489 7.698 8.266 5.498-11.908c-1.976-.493-4.032-.78-6.144-.847z" fill="#fff"/><path d="m48.804 67.228 5.498 11.908 7.698-8.267-7.052-4.489c-2.112.067-4.168.354-6.144.848z" fill="#fff"/><path d="m62 66.958c-3.031 0-5.921-.601-8.563-1.683v.138l8.563 5.456 8.571-5.456v-.142c-2.644 1.085-5.537 1.687-8.571 1.687z" fill="#fff"/><path d="m77.837 20.657c-2.996 4.152-8.959 6.986-15.837 6.986s-12.841-2.834-15.837-6.986c-3.995 1.861-6.771 5.902-6.771 10.6v13.093c0 12.486 10.122 22.608 22.608 22.608 12.486 0 22.608-10.122 22.608-22.608v-13.093c0-4.698-2.775-8.739-6.771-10.6z" fill="#fff"/><path d="m66.901 93.156 11.421-3.76.126.524c.956-1.912 1.188-4.187.467-6.377-1.449-4.402-6.193-6.796-10.596-5.347-4.402 1.449-6.796 6.193-5.347 10.596.716 2.176 2.239 3.858 4.126 4.831z" fill="#fa759e"/><path d="m63.09 89.095c.01-3.516 2.24-6.788 5.764-7.947 4.298-1.415 8.913.839 10.478 5.043.002-.877-.127-1.769-.417-2.648-1.449-4.402-6.193-6.796-10.596-5.347-4.402 1.449-6.796 6.193-5.347 10.596.034.104.08.201.118.303z" fill="#fff"/><path d="m85.291 118.37-6.969-28.974-11.421 3.76 11.607 27.448c.62 1.467 2.263 2.213 3.776 1.715l.989-.326c1.513-.498 2.391-2.074 2.018-3.623z" fill="#0089ef"/><path d="m77.919 103.125-1.462-4.442c-.231-.701-.986-1.082-1.687-.851s-1.082.986-.851 1.687l1.462 4.442c.231.701.986 1.082 1.687.851s1.082-.986.851-1.687z" fill="#d4fbff"/><path d="m87.231 112.4-1.486-6.415c-.444-1.915-2.355-3.107-4.27-2.663l-3.207.743c-3.686.854-5.982 4.534-5.128 8.22s4.534 5.982 8.22 5.128l3.207-.743c1.915-.443 3.108-2.355 2.664-4.27z" fill="#fff"/><g fill="#3a2c60"><path d="m90.022 74.849c-.038-.044-.075-.085-.119-.121-3.621-3.807-8.229-6.664-13.407-8.168-.027-.01-.046-.035-.074-.043-.184-.053-.373-.093-.559-.142-.014-.004-.028-.007-.042-.011-.114-.03-.228-.058-.343-.087-.015-.004-.026-.017-.041-.02-.112-.028-.226-.049-.339-.076-.246-.058-.491-.114-.738-.166-.218-.045-.437-.086-.656-.126-.243-.046-.485-.101-.728-.14-.019-.003-.037.004-.056.002 0 0 0 0-.001 0-.147-.023-.296-.042-.443-.062-.098-.014-.196-.028-.295-.042 6.397-3.071 11.2-8.942 12.824-16.013.3.085.612.132.934.132 2.45 0 4.369-2.528 4.369-5.756 0-1.652-.504-3.117-1.323-4.158v-15.246c0-5.693-3.487-10.581-8.434-12.657-1.667-6.493-9.345-11.418-18.551-11.418-9.207 0-16.885 4.926-18.551 11.418-4.947 2.077-8.433 6.964-8.433 12.657v15.246c-.819 1.04-1.323 2.506-1.323 4.158 0 3.228 1.919 5.756 4.369 5.756.322 0 .634-.047.934-.132 1.624 7.071 6.426 12.942 12.823 16.013-.103.014-.206.028-.308.043-.142.02-.284.038-.425.06-.002 0-.004 0-.006.001-.018.002-.036-.005-.055-.002-.246.04-.49.096-.736.142-.215.04-.429.079-.642.124-.251.053-.5.109-.75.169-.111.026-.224.047-.334.075-.015.004-.026.016-.04.02-.11.028-.219.055-.328.083-.021.006-.042.01-.063.016-.184.049-.371.089-.553.141-.028.008-.046.032-.073.042-5.18 1.504-9.789 4.362-13.411 8.171-.042.035-.078.074-.114.116-5.061 5.38-8.167 12.62-8.167 20.573v20.172c0 1.654 1.346 3 3 3h26.371 13.631 7.756l-.263-.622 1.279 3.023c.646 1.531 2.163 2.477 3.756 2.477.417 0 .84-.065 1.253-.201l.989-.326c1.845-.607 2.972-2.461 2.743-4.351h8.859c1.654 0 3-1.346 3-3v-20.174c-.001-7.952-3.106-15.19-8.166-20.57zm-2.455.364c-3.555 1.915-6.201 5.074-7.484 8.806.009.039.014.077.022.116-.067-.302-.141-.604-.24-.904-.212-.644-.491-1.248-.821-1.811l1.618-.817c.442-.223.654-.737.498-1.208l-3.438-10.345c3.71 1.353 7.052 3.474 9.845 6.163zm-12.019-6.364 3.442 10.356-1.163.587c-1.466-1.578-3.437-2.606-5.564-2.913l.212-1.375zm2.406 19.615-11.285 3.715c-1.245-.88-2.234-2.144-2.747-3.701-1.274-3.872.839-8.059 4.71-9.333.765-.251 1.541-.371 2.306-.371 3.105 0 6.004 1.975 7.027 5.081.512 1.557.468 3.161-.011 4.609zm-4.184-20.534-4.129 8.944c-.197.028-.394.058-.591.099l-5.499-5.905 5.775-3.677c.736.031 1.468.092 2.194.179.037.005.074.01.112.014.719.089 1.433.202 2.138.346zm-11.77 1.754-3.026-1.927c.992.128 2 .201 3.026.201s2.034-.073 3.026-.201zm25.303-28.714c.602.689 1.005 1.803 1.005 3.039 0 2.036-1.085 3.756-2.369 3.756-.195 0-.382-.054-.564-.131.15-1.074.234-2.17.234-3.285v-4.031c.686-.153 1.3.243 1.64.613.015.017.037.023.054.039zm-49.241 6.796c-1.284 0-2.369-1.72-2.369-3.756 0-1.23.4-2.337.996-3.027.02-.019.045-.031.064-.051.34-.37.953-.766 1.64-.612v4.031c0 1.115.083 2.211.234 3.285-.184.075-.37.13-.565.13zm.33-16.509v7.012c-.052-.005-.103.003-.155.001-.059-.003-.115-.017-.175-.017-.103 0-.203.011-.303.02-.029.003-.058.002-.088.006-.222.025-.438.074-.649.139-.002.001-.004.001-.006.001v-13.813c0-4.429 2.473-8.286 6.106-10.28-.002.088-.018.173-.018.261 0 .552.447 1 1 1s1-.448 1-1c0-6.648 7.58-12.056 16.896-12.056s16.896 5.408 16.896 12.056c0 .552.447 1 1 1s1-.448 1-1c0-.088-.016-.174-.018-.262 3.634 1.994 6.107 5.851 6.107 10.281v13.812c-.002-.001-.005-.001-.007-.002-.147-.046-.297-.082-.45-.108-.027-.005-.053-.012-.081-.016-.167-.024-.336-.04-.508-.04-.11 0-.221.005-.33.017v-7.012c0-5.016-2.932-9.348-7.164-11.41-.003-.002-.005-.006-.008-.008-.448-.324-1.074-.221-1.396.227-2.921 4.057-8.685 6.577-15.041 6.577-6.355 0-12.119-2.52-15.041-6.576-.312-.433-.903-.534-1.349-.248-.001 0-.001.001-.002.001-.014.009-.031.01-.045.02-.002.002-.004.005-.006.006-4.233 2.063-7.165 6.395-7.165 11.411zm2 13.093v-4.695-8.397c0-.82.093-1.619.269-2.387.683-2.98 2.619-5.483 5.217-6.94 3.418 4.159 9.498 6.713 16.123 6.713s12.704-2.555 16.122-6.714c2.152 1.207 3.852 3.13 4.758 5.45.47 1.202.728 2.51.728 3.878v8.397 4.695c0 11.915-9.693 21.608-21.608 21.608s-21.609-9.693-21.609-21.608zm11.98 23.233c.035-.004.07-.009.105-.013.727-.087 1.46-.148 2.197-.179l5.775 3.677-5.864 6.296-4.355-9.434c.706-.144 1.421-.258 2.142-.347zm1.813 49.008h-9.396v-6.915c0-.552-.447-1-1-1s-1 .448-1 1v6.915h-13.976c-.552 0-1-.449-1-1v-20.172c0-7.181 2.714-13.738 7.167-18.707 4.764 2.319 7.809 7.137 7.809 12.479v6.109c0 .552.447 1 1 1s1-.448 1-1v-6.109c0-5.892-3.238-11.228-8.354-13.981 2.792-2.687 6.133-4.807 9.843-6.161l-3.438 10.345c-.156.471.056.985.498 1.208l6.037 3.048-1.918 4.427c-.126.291-.106.625.053.899l6.675 11.503zm0-20.098-4.691-8.084 2.092-4.829c.21-.486.005-1.051-.467-1.29l-6.108-3.084 3.442-10.356 3.073 6.657.754 4.894 1.905 12.359zm13.63 20.098h-11.63v-16.383-7.526c0-.051-.004-.102-.012-.152l-.525-3.408-1.386-8.989c.013 0 .027.003.04.003.275 0 .541-.114.731-.318l6.967-7.481 4.964 5.33c-4.244 1.984-6.442 6.88-4.942 11.437.756 2.295 2.327 4.088 4.278 5.198l1.516 3.584v18.705zm.429-22.825 9.359-3.081 2.85 11.848-2.41.558c-1.861.431-3.462 1.504-4.572 3.035zm1.571 22.825v-13.975l2.483 5.871c-.39 1.294-.446 2.672-.132 4.025.371 1.602 1.219 3.009 2.423 4.08h-4.774zm13.145 4.452-.989.326c-1.015.332-2.129-.175-2.542-1.155l-.718-1.698c.36.051.723.077 1.088.077.595 0 1.193-.068 1.787-.206l2.539-.588.194.805c.249 1.035-.348 2.106-1.359 2.439zm1.382-5.347-3.207.743c-1.521.353-3.091.092-4.417-.736-1.326-.827-2.25-2.121-2.603-3.644-.354-1.522-.092-3.091.735-4.417s2.121-2.25 3.644-2.603l3.207-.743c.193-.045.389-.067.582-.067.473 0 .938.132 1.35.389.58.362.984.928 1.138 1.593l1.486 6.415c.318 1.374-.541 2.751-1.915 3.07zm-3.131-18.568v-7.937c0-5.341 3.045-10.16 7.809-12.478 4.453 4.968 7.167 11.525 7.167 18.706v20.172c0 .551-.448 1-1 1h-8.405c1.201-1.074 1.813-2.739 1.424-4.417l-1.486-6.415c-.275-1.186-.995-2.194-2.028-2.839-.688-.428-1.46-.642-2.248-.67"/><path d="m43.789 98.963c-.553 0-1 .448-1 1v5.714c0 .552.447 1 1 1s1-.448 1-1v-5.714c0-.552-.447-1-1-1z"/><path d="m52.026 38.924c-1.249 0-2.261 1.012-2.261 2.261s1.012 2.261 2.261 2.261 2.261-1.012 2.261-2.261c-.001-1.248-1.013-2.261-2.261-2.261z"/><path d="m71.974 38.924c-1.249 0-2.261 1.012-2.261 2.261s1.012 2.261 2.261 2.261 2.261-1.012 2.261-2.261c0-1.248-1.012-2.261-2.261-2.261z"/><path d="m62 52.248c1.969 0 3.571-1.602 3.571-3.571v-1.507c0-.552-.447-1-1-1s-1 .448-1 1v1.507c0 .866-.705 1.571-1.571 1.571s-1.571-.705-1.571-1.571v-1.507c0-.552-.447-1-1-1s-1 .448-1 1v1.507c0 1.969 1.602 3.571 3.571 3.571z"/><path d="m70.254 36.807 4.427.771c.059.01.116.015.173.015.478 0 .899-.342.984-.828.095-.544-.27-1.062-.813-1.157l-4.427-.771c-.553-.093-1.063.27-1.157.813-.095.544.269 1.061.813 1.157z"/><path d="m53.402 34.836-4.427.771c-.544.095-.908.613-.813 1.157.085.486.507.828.984.828.057 0 .114-.005.173-.015l4.427-.771c.544-.095.908-.613.813-1.157-.094-.543-.604-.907-1.157-.813z"/><path d="m67.807 55.447c.332-.438.246-1.06-.189-1.395-.437-.334-1.063-.254-1.4.182-.062.079-1.526 1.923-4.217 1.923-2.743 0-4.133-1.811-4.202-1.904-.323-.444-.946-.543-1.393-.221-.448.323-.549.948-.226 1.396.08.112 2.013 2.729 5.82 2.729 3.71 0 5.723-2.599 5.807-2.71z"/><path d="m62.004 91.601c-.72 0-1.304.584-1.304 1.304s.584 1.304 1.304 1.304 1.304-.584 1.304-1.304c0-.721-.584-1.304-1.304-1.304z"/><path d="m62.004 101.852c-.72 0-1.304.584-1.304 1.304s.584 1.304 1.304 1.304 1.304-.584 1.304-1.304-.584-1.304-1.304-1.304z"/></g></svg>