<svg id="Layer_1" enable-background="new 0 0 128 128" height="512" viewBox="0 0 128 128" width="512" xmlns="http://www.w3.org/2000/svg"><path d="m89.3 7.47h-46.6c-4.775 0-8.66 3.885-8.66 8.66v14.509 5.2 5.46 5.98 68.591c0 4.775 3.885 8.66 8.66 8.66h46.6c4.775 0 8.66-3.885 8.66-8.66v-99.74c-.001-4.775-3.885-8.66-8.66-8.66z" fill="#e6e7e8"/><path d="m85.3 4.47h-46.6c-4.23 0-7.66 3.429-7.66 7.66v99.74c0 4.23 3.429 7.66 7.66 7.66h46.6c4.23 0 7.66-3.429 7.66-7.66v-99.74c-.001-4.23-3.43-7.66-7.66-7.66z" fill="#6dc9f7"/><path d="m81.4 14.438h-38.8c-4.23 0-7.66 3.429-7.66 7.66v71.139c0 4.23 3.429 7.66 7.66 7.66h38.8c4.23 0 7.66-3.429 7.66-7.66v-71.14c-.001-4.23-3.43-7.659-7.66-7.659z" fill="#d4fbff"/><path d="m69.456 104.554h-14.912c-1.292 0-2.34 1.048-2.34 2.34v4.508c0 1.292 1.048 2.34 2.34 2.34h14.911c1.292 0 2.34-1.048 2.34-2.34v-4.508c.001-1.292-1.047-2.34-2.339-2.34z" fill="#0089ef"/><path d="m69.456 104.554h-14.912c-1.292 0-2.34 1.048-2.34 2.34v3c0-1.292 1.048-2.34 2.34-2.34h14.911c1.292 0 2.34 1.048 2.34 2.34v-3c.001-1.292-1.047-2.34-2.339-2.34z" fill="#fff"/><path d="m70.013 8.479h-16.026c-.615 0-1.113.498-1.113 1.113v1.113c0 .615.498 1.113 1.113 1.113h16.025c.615 0 1.113-.498 1.113-1.113v-1.113c0-.614-.498-1.113-1.112-1.113z" fill="#ffd7e5"/><path d="m74.003 8.479c-.922 0-1.669.747-1.669 1.669s.747 1.669 1.669 1.669 1.669-.747 1.669-1.669c0-.921-.747-1.669-1.669-1.669z" fill="#ffd7e5"/><path d="m44.72 74.843c0 1.378 1.117 2.494 2.494 2.494h29.57c1.378 0 2.494-1.117 2.494-2.494v-17.782h-34.558z" fill="#fff"/><path d="m76.785 49.52h-4.744v2.712c0 1.052-.853 1.905-1.905 1.905h-.184c-1.052 0-1.905-.853-1.905-1.905v-2.712h-12.094v2.712c0 1.052-.853 1.905-1.905 1.905h-.184c-1.052 0-1.905-.853-1.905-1.905v-2.712h-4.744c-1.378 0-2.494 1.117-2.494 2.494v5.047h34.559v-5.047c0-1.377-1.117-2.494-2.495-2.494z" fill="#fa759e"/><path d="m54.048 46.663h-.184c-1.052 0-1.905.853-1.905 1.905v3.664c0 1.052.853 1.905 1.905 1.905h.184c1.052 0 1.905-.853 1.905-1.905v-3.664c0-1.052-.853-1.905-1.905-1.905z" fill="#ffd7e5"/><path d="m70.136 46.663h-.184c-1.052 0-1.905.853-1.905 1.905v3.664c0 1.052.853 1.905 1.905 1.905h.184c1.052 0 1.905-.853 1.905-1.905v-3.664c0-1.052-.853-1.905-1.905-1.905z" fill="#ffd7e5"/><g fill="#3a2c60"><path d="m31.041 39.5c.552 0 1-.448 1-1v-7.46c0-.552-.448-1-1-1s-1 .448-1 1v7.46c0 .552.447 1 1 1z"/><path d="m85.3 3.47h-46.6c-4.775 0-8.66 3.885-8.66 8.66v14.509c0 .552.448 1 1 1s1-.448 1-1v-14.509c0-3.672 2.987-6.66 6.66-6.66h46.6c3.672 0 6.66 2.987 6.66 6.66v99.74c0 3.672-2.987 6.66-6.66 6.66h-46.6c-3.672 0-6.66-2.987-6.66-6.66v-68.591c0-.552-.448-1-1-1s-1 .448-1 1v68.591c0 4.775 3.885 8.66 8.66 8.66h46.6c4.775 0 8.66-3.885 8.66-8.66v-99.74c-.001-4.775-3.885-8.66-8.66-8.66z"/><path d="m54.544 103.554c-1.842 0-3.34 1.499-3.34 3.34v4.508c0 1.842 1.498 3.34 3.34 3.34h14.911c1.842 0 3.34-1.498 3.34-3.34v-4.508c0-1.842-1.498-3.34-3.34-3.34zm16.251 3.341v4.508c0 .739-.601 1.34-1.34 1.34h-14.911c-.739 0-1.34-.601-1.34-1.34v-4.508c0-.739.601-1.34 1.34-1.34h14.911c.739-.001 1.34.6 1.34 1.34z"/><path d="m80.28 74.843v-17.782-1.811-3.236c0-1.927-1.568-3.494-3.495-3.494h-3.749c-.026-1.579-1.315-2.857-2.9-2.857h-.184c-1.586 0-2.874 1.278-2.9 2.857h-10.104c-.026-1.579-1.315-2.857-2.9-2.857h-.184c-1.585 0-2.874 1.278-2.9 2.857h-3.749c-1.927 0-3.495 1.567-3.495 3.494v3.236 1.811 17.782c0 1.927 1.568 3.495 3.495 3.495h29.57c1.927-.001 3.495-1.568 3.495-3.495zm-11.233-26.275c0-.499.406-.905.905-.905h.184c.499 0 .905.406.905.905v3.664c0 .499-.406.905-.905.905h-.184c-.499 0-.905-.406-.905-.905zm-16.088 0c0-.499.406-.905.905-.905h.184c.499 0 .905.406.905.905v3.664c0 .499-.406.905-.905.905h-.184c-.499 0-.905-.406-.905-.905zm-7.239 3.446c0-.824.67-1.494 1.495-1.494h3.744v1.712c0 1.602 1.303 2.905 2.905 2.905h.184c1.602 0 2.905-1.303 2.905-2.905v-1.712h10.094v1.712c0 1.602 1.303 2.905 2.905 2.905h.184c1.602 0 2.905-1.303 2.905-2.905v-1.712h3.744c.824 0 1.495.67 1.495 1.494v3.236.811h-32.56v-.811zm0 22.829v-16.782h32.56v16.782c0 .824-.67 1.495-1.495 1.495h-29.57c-.824-.001-1.495-.671-1.495-1.495z"/></g><path d="m62.888 60.661 1.117 3.437c.125.385.483.645.888.645h3.614c.904 0 1.281 1.157.549 1.689l-2.924 2.124c-.327.238-.464.659-.339 1.044l1.117 3.437c.279.86-.705 1.576-1.437 1.044l-2.924-2.124c-.327-.238-.77-.238-1.098 0l-2.924 2.124c-.732.532-1.716-.184-1.437-1.044l1.117-3.437c.125-.385-.012-.806-.339-1.044l-2.924-2.124c-.732-.532-.356-1.689.549-1.689h3.614c.404 0 .763-.26.888-.645l1.117-3.437c.28-.861 1.496-.861 1.776 0z" fill="#fa759e"/></svg>