<svg id="Layer_1" enable-background="new 0 0 128 128" height="512" viewBox="0 0 128 128" width="512" xmlns="http://www.w3.org/2000/svg"><path d="m110.696 11.329h-58.373c-5.204 0-9.438 4.234-9.438 9.438v8.107h-2.25c-2.511 0-4.554 2.11-4.554 4.703v82.391c0 1.49-1.146 2.703-2.553 2.703h-6.919c-1.118 0-2.061-.77-2.405-1.832.703-.265 1.218-.921 1.262-1.711l.069-1.209c1.552-.425 2.728-1.789 2.824-3.468l.34-5.967v-.001l1.875-32.89 2.101-3.491c.007-.01.016-.017.022-.027.891-1.421 1.42-2.962 1.634-4.519.064-.132.108-.276.108-.433 0-.056-.023-.105-.032-.158.328-3.906-1.382-7.84-4.81-10.206-2.477-1.71-5.478-2.345-8.451-1.784-2.969.559-5.553 2.241-7.275 4.736-1.495 2.166-2.158 4.728-1.99 7.245-.01.057-.034.108-.034.168 0 .139.029.272.08.392.185 1.583.702 3.135 1.559 4.545.004.006.009.01.013.017l2.141 3.535 1.014 17.034.944 15.85v.001l.355 5.966c.024.398.123.771.258 1.127.037.097.062.199.106.291.008.017.021.032.029.049.31.627.783 1.159 1.366 1.534.266.171.56.296.864.397l.075 1.271c.053.874.679 1.581 1.498 1.776.424 2.143 2.263 3.76 4.461 3.76h6.919c2.511 0 4.553-2.109 4.553-4.703v-82.388c0-1.491 1.146-2.703 2.554-2.703h2.25v80.358c0 5.204 4.234 9.438 9.438 9.438h58.374c5.205 0 9.438-4.234 9.438-9.438v-90.466c-.001-5.204-4.235-9.438-9.44-9.438z" fill="#e6e7e8"/><path d="m115.139 16.768v90.46c0 4.67-3.78 8.44-8.44 8.44h-58.38c-4.66 0-8.43-3.77-8.43-8.44v-90.46c0-4.66 3.77-8.44 8.43-8.44h58.38c4.66 0 8.44 3.78 8.44 8.44z" fill="#fff"/><path d="m115.139 19.768v87.46c0 4.67-3.78 8.44-8.44 8.44h-58.38c-4.66 0-8.43-3.77-8.43-8.44v-87.46c0-4.66 3.77-8.44 8.43-8.44h58.38c4.66 0 8.44 3.78 8.44 8.44z" fill="#0089ef"/><ellipse cx="77.51" cy="35.441" fill="#d4fbff" rx="19.366" ry="19.366" transform="matrix(.707 -.707 .707 .707 -2.359 65.188)"/><ellipse cx="77.51" cy="84.686" fill="#d4fbff" rx="23.239" ry="23.239" transform="matrix(.973 -.23 .23 .973 -17.383 20.074)"/><path d="m77.51 66.98c-9.763 0-17.706 7.943-17.706 17.706s7.943 17.706 17.706 17.706 17.706-7.943 17.706-17.706-7.944-17.706-17.706-17.706zm0 28.772c-6.102 0-11.066-4.965-11.066-11.066 0-6.102 4.964-11.066 11.066-11.066s11.066 4.965 11.066 11.066-4.965 11.066-11.066 11.066z" fill="#6dc9f7"/><path d="m12.623 67.306 2.327 39.099c.089 1.5 1.333 2.671 2.836 2.669l2.745-.003c1.503-.002 2.744-1.175 2.829-2.676l2.23-39.105z" fill="#6dc9f7"/><path d="m14.595 100.439.355 5.966c.089 1.5 1.333 2.671 2.836 2.669l2.745-.003c1.503-.002 2.744-1.175 2.829-2.676l.34-5.967z" fill="#d4fbff"/><path d="m17.53 109.075.119 2c.03.503.447.895.951.895l.92-.001c.504-.001.92-.394.948-.897l.114-2z" fill="#d4fbff"/><path d="m25.029 49.583c-4.665-3.219-11.086-2.011-14.335 2.697-2.388 3.46-2.397 7.845-.383 11.204h-.002l.011.018c.008.013.013.027.02.04h.004l2.279 3.765 12.967-.017 2.254-3.745h.006c2.925-4.667 1.714-10.833-2.821-13.962z" fill="#fa759e"/><g fill="#3a2c60"><path d="m106.696 7.329h-58.373c-5.204 0-9.438 4.234-9.438 9.438v8.107h-2.25c-2.511 0-4.554 2.11-4.554 4.703v82.391c0 1.49-1.146 2.703-2.553 2.703h-6.918c-1.119 0-2.061-.77-2.406-1.832.702-.265 1.217-.921 1.263-1.711l.069-1.208c1.552-.426 2.728-1.789 2.823-3.468l.34-5.967v-.001l.665-11.66c.031-.552-.39-1.024-.941-1.056-.56-.023-1.024.391-1.056.941l-.611 10.719-7.219.009-1.853-31.133 10.84-.014-.486 7.643c-.035.551.383 1.026.935 1.062.545.03 1.026-.384 1.062-.935l.538-8.464 2.077-3.45c.017-.023.034-.046.049-.071 3.232-5.158 1.871-11.886-3.101-15.316-5.112-3.528-12.168-2.205-15.727 2.953-1.52 2.202-2.168 4.822-1.97 7.375 0 .013-.008.024-.008.037 0 .019.01.034.011.053.142 1.665.64 3.301 1.521 4.77.014.029.039.077.055.105.016.026.032.051.05.076l2.11 3.486 1.958 32.885v.001l.355 5.966c.095 1.603 1.175 2.915 2.623 3.399l.075 1.271c.053.874.679 1.581 1.498 1.776.424 2.143 2.263 3.76 4.461 3.76h6.918c2.511 0 4.553-2.109 4.553-4.703v-82.391c0-1.491 1.146-2.703 2.554-2.703h2.25v80.358c0 5.204 4.234 9.438 9.438 9.438h58.374c5.205 0 9.438-4.234 9.438-9.438v-90.466c0-5.204-4.234-9.438-9.439-9.438zm-87.148 102.744-.03.896-.872.047-.056-.942zm-8.032-57.225c2.933-4.248 8.739-5.344 12.945-2.442 2.62 1.808 4.011 4.733 3.977 7.719h-18.571c.013-1.848.557-3.693 1.649-5.277zm-.326 10.162c-.008-.016-.016-.03-.022-.04-.535-.893-.887-1.857-1.096-2.846h18.125c-.224.967-.596 1.916-1.143 2.808-.024.031-.046.063-.066.097l-1.963 3.261-11.839.015-1.986-3.282c-.004-.004-.007-.008-.01-.013zm4.758 43.336-.292-4.908 6.986-.008-.28 4.909c-.055.97-.86 1.731-1.832 1.733l-2.745.003s-.001 0-.002 0c-.972 0-1.777-.759-1.835-1.729zm98.187.887c0 4.102-3.337 7.438-7.438 7.438h-58.374c-4.102 0-7.438-3.336-7.438-7.438v-90.466c0-4.102 3.336-7.438 7.438-7.438h58.374c4.102 0 7.438 3.336 7.438 7.438z"/><path d="m77.51 55.807c11.229 0 20.366-9.136 20.366-20.366s-9.136-20.366-20.366-20.366-20.366 9.136-20.366 20.366 9.136 20.366 20.366 20.366zm0-38.732c10.127 0 18.366 8.239 18.366 18.366s-8.239 18.366-18.366 18.366-18.366-8.239-18.366-18.366 8.239-18.366 18.366-18.366z"/><circle cx="77.51" cy="35.441" r="10.513"/><path d="m77.51 60.447c-13.366 0-24.239 10.874-24.239 24.239 0 13.366 10.874 24.239 24.239 24.239s24.239-10.874 24.239-24.239c-.001-13.366-10.874-24.239-24.239-24.239zm0 46.478c-12.263 0-22.239-9.977-22.239-22.239s9.977-22.239 22.239-22.239 22.239 9.976 22.239 22.239-9.977 22.239-22.239 22.239z"/><circle cx="77.51" cy="84.686" r="11.066"/><path d="m49.429 15.522c-2.139 0-3.873 1.734-3.873 3.873s1.734 3.873 3.873 3.873 3.873-1.734 3.873-3.873-1.734-3.873-3.873-3.873z"/><path d="m105.867 15.522c-2.139 0-3.873 1.734-3.873 3.873s1.734 3.873 3.873 3.873 3.873-1.734 3.873-3.873-1.734-3.873-3.873-3.873z"/><path d="m105.867 102.945c-2.139 0-3.873 1.734-3.873 3.873s1.734 3.873 3.873 3.873 3.873-1.734 3.873-3.873-1.734-3.873-3.873-3.873z"/><path d="m49.429 102.945c-2.139 0-3.873 1.734-3.873 3.873s1.734 3.873 3.873 3.873 3.873-1.734 3.873-3.873-1.734-3.873-3.873-3.873z"/><path d="m24.938 78.718c-.559-.021-1.024.391-1.056.941l-.283 4.969c-.031.552.39 1.024.941 1.056.02.001.039.001.058.001.526 0 .967-.411.998-.943l.283-4.969c.032-.551-.389-1.023-.941-1.055z"/><path d="m19.489 72.152-.753.001c-.688.001-1.245.559-1.244 1.248l.006 4.926c.001.688.559 1.245 1.248 1.244l.753-.001c.688-.001 1.245-.559 1.244-1.248l-.006-4.926c-.001-.688-.56-1.245-1.248-1.244z"/></g></svg>