<svg id="Layer_1" enable-background="new 0 0 128 128" height="512" viewBox="0 0 128 128" width="512" xmlns="http://www.w3.org/2000/svg"><path d="m117.613 87.808c-.008-.146-.023-.292-.033-.438-.022-.305-.047-.608-.081-.91-.02-.178-.044-.356-.068-.534-.035-.264-.074-.528-.118-.79-.033-.197-.068-.393-.105-.588-.046-.238-.097-.475-.15-.71-.031-.141-.055-.283-.089-.423-.003-.013-.013-.023-.017-.036-.443-1.807-1.09-3.534-1.913-5.158-.01-.023-.008-.047-.019-.069-.061-.121-.135-.235-.198-.354-.14-.264-.287-.523-.437-.781-.209-.361-.427-.715-.653-1.064-.123-.19-.248-.379-.376-.565-.174-.252-.349-.502-.531-.747-.122-.163-.25-.32-.376-.479-.312-.397-.635-.785-.972-1.163-.127-.142-.257-.282-.387-.421-.165-.177-.32-.362-.49-.534-.015-.015-.036-.02-.052-.035-1.486-1.491-3.167-2.785-4.997-3.853-.022-.016-.036-.039-.06-.053-.147-.085-.3-.158-.448-.24-.12-.066-.242-.13-.363-.194-.267-.141-.534-.282-.806-.413-.359-.174-.724-.338-1.093-.495-.186-.078-.375-.148-.562-.222-.269-.106-.539-.209-.812-.305-.169-.059-.338-.117-.508-.172-.338-.111-.679-.213-1.023-.31-.108-.03-.216-.064-.325-.092-.471-.125-.947-.236-1.429-.333-.054-.011-.108-.018-.161-.029-.421-.081-.846-.151-1.274-.21-.129-.018-.257-.033-.386-.049-.367-.045-.736-.081-1.107-.109-.131-.01-.262-.022-.394-.03-.485-.029-.973-.048-1.465-.048-.222 0-.441.011-.662.017v-22.394-11.146c0-3.589-2.92-6.509-6.509-6.509h-9.477v-1.102c0-2.872-2.336-5.208-5.208-5.208h-.406c-2.872 0-5.208 2.336-5.208 5.208v1.102h-24.71v-1.102c0-2.872-2.336-5.208-5.208-5.208h-.406c-2.872 0-5.208 2.336-5.208 5.208v1.102h-9.477c-3.589 0-6.509 2.92-6.509 6.509v11.146 39.271c0 3.589 2.92 6.509 6.509 6.509h48.181c-.011.304-.023.609-.023.916 0 13.41 10.909 24.319 24.319 24.319s24.319-10.909 24.319-24.319c.001-.458-.014-.911-.039-1.363z" fill="#e6e7e8"/><path d="m82.163 21.82h-10.477v5.99c0 2.324-1.884 4.208-4.208 4.208h-.406c-2.324 0-4.208-1.884-4.208-4.208v-5.99h-26.71v5.99c0 2.324-1.884 4.208-4.208 4.208h-.406c-2.324 0-4.208-1.884-4.208-4.208v-5.99h-10.476c-3.043 0-5.509 2.466-5.509 5.509v50.417c0 3.043 2.466 5.509 5.509 5.509h49.243c.931-11.434 10.104-20.529 21.572-21.338v-34.588c.001-3.043-2.466-5.509-5.508-5.509z" fill="#fff"/><path d="m82.163 21.82h-10.477v5.99c0 2.324-1.884 4.208-4.208 4.208h-.406c-2.324 0-4.208-1.884-4.208-4.208v-5.99h-26.71v5.99c0 2.324-1.884 4.208-4.208 4.208h-.406c-2.324 0-4.208-1.884-4.208-4.208v-5.99h-10.476c-3.043 0-5.509 2.466-5.509 5.509v11.146h76.324v-11.146c.001-3.043-2.466-5.509-5.508-5.509z" fill="#fa759e"/><path d="m27.333 21.82h-10.477c-3.043 0-5.509 2.466-5.509 5.509v3c0-3.043 2.466-5.509 5.509-5.509h10.477z" fill="#fff"/><path d="m36.154 21.82h26.71v3h-26.71z" fill="#fff"/><path d="m82.163 21.82h-10.477v3h10.477c3.043 0 5.509 2.466 5.509 5.509v-3c0-3.043-2.467-5.509-5.509-5.509z" fill="#fff"/><path d="m31.947 15.51h-.406c-2.324 0-4.208 1.884-4.208 4.208v8.092c0 2.324 1.884 4.208 4.208 4.208h.406c2.324 0 4.208-1.884 4.208-4.208v-8.092c-.001-2.324-1.884-4.208-4.208-4.208z" fill="#ffd7e5"/><path d="m67.478 15.51h-.406c-2.324 0-4.208 1.884-4.208 4.208v8.092c0 2.324 1.884 4.208 4.208 4.208h.406c2.324 0 4.208-1.884 4.208-4.208v-8.092c0-2.324-1.884-4.208-4.208-4.208z" fill="#ffd7e5"/><path d="m51.471 46.425 2.467 7.592c.276.85 1.068 1.425 1.961 1.425h7.982c1.998 0 2.828 2.556 1.212 3.73l-6.458 4.692c-.723.525-1.025 1.456-.749 2.305l2.467 7.592c.617 1.9-1.557 3.48-3.173 2.305l-6.458-4.692c-.723-.525-1.701-.525-2.424 0l-6.458 4.692c-1.616 1.174-3.79-.406-3.173-2.305l2.467-7.592c.276-.85-.026-1.78-.749-2.305l-6.458-4.692c-1.616-1.174-.786-3.73 1.212-3.73h7.982c.893 0 1.685-.575 1.961-1.425l2.467-7.592c.617-1.9 3.304-1.9 3.922 0z" fill="#fa759e"/><path d="m89.334 61.852c-12.879 0-23.319 10.44-23.319 23.319s10.44 23.319 23.319 23.319 23.319-10.44 23.319-23.319-10.441-23.319-23.319-23.319zm0 27.73c-2.437 0-4.412-1.975-4.412-4.412s1.975-4.412 4.412-4.412 4.412 1.975 4.412 4.412c-.001 2.437-1.976 4.412-4.412 4.412z" fill="#6dc9f7"/><path d="m89.334 75.298c5.263 0 9.552 4.122 9.844 9.313h13.461c-.298-12.619-10.614-22.759-23.305-22.759z" fill="#d4fbff"/><path d="m89.339 108.49v-13.447c-.001 0-.001 0-.002 0s-.002 0-.003 0c-.067 0-.131-.009-.198-.01-.264-.005-.527-.014-.785-.04-.179-.018-.353-.051-.529-.078-.142-.022-.286-.037-.426-.065-.205-.041-.404-.097-.604-.15-.105-.028-.213-.05-.317-.081-.22-.067-.434-.147-.648-.229-.077-.029-.156-.054-.232-.085-.231-.095-.455-.203-.677-.314-.052-.026-.107-.049-.159-.076-.238-.125-.467-.262-.693-.404-.031-.02-.064-.037-.095-.058-.241-.157-.474-.325-.7-.501-.011-.009-.023-.017-.035-.026-2.158-1.699-3.583-4.276-3.747-7.195h-13.455c.224 9.464 6.082 17.534 14.35 20.977.004.002.008.003.012.005.34.141.683.275 1.031.4.016.006.032.01.047.016.336.121.676.234 1.019.34.033.01.066.018.099.028.328.099.658.193.992.277.047.012.095.021.143.033.321.079.643.155.969.221.065.013.132.023.198.035.31.06.621.117.935.165.086.013.173.021.26.033.296.041.592.082.891.112.128.013.257.019.385.029.261.022.522.046.785.059.258.013.519.015.779.02.136.002.27.01.406.01.003-.001.003-.001.004-.001z" fill="#d4fbff"/><g fill="#3a2c60"><path d="m109.236 75.059c.176.347.528.546.892.546.152 0 .307-.035.453-.109.492-.25.688-.853.438-1.345-1.146-2.253-2.634-4.308-4.42-6.109-.389-.391-1.021-.394-1.415-.005-.392.389-.394 1.022-.005 1.415 1.639 1.653 3.005 3.539 4.057 5.607z"/><path d="m112.967 79.416c-.13-.537-.674-.869-1.208-.736-.537.13-.866.671-.736 1.208.417 1.719.629 3.497.629 5.284 0 12.307-10.012 22.319-22.319 22.319s-22.319-10.012-22.319-22.319 10.012-22.319 22.319-22.319c3.922 0 7.78 1.031 11.155 2.983.478.277 1.09.113 1.366-.365s.113-1.09-.365-1.366c-3.68-2.127-7.883-3.251-12.156-3.251-.222 0-.441.011-.662.017v-22.396-2.141-9.004c0-3.589-2.92-6.509-6.509-6.509h-9.477v-1.102c0-2.872-2.336-5.208-5.208-5.208h-.406c-2.872 0-5.208 2.336-5.208 5.208v1.102h-24.71v-1.102c0-2.872-2.336-5.208-5.208-5.208h-.406c-2.872 0-5.208 2.336-5.208 5.208v1.102h-9.477c-3.589 0-6.509 2.92-6.509 6.509v11.146 39.271c0 3.589 2.92 6.509 6.509 6.509h48.181c-.011.304-.023.609-.023.916 0 13.41 10.909 24.319 24.319 24.319s24.319-10.909 24.319-24.319c.003-1.947-.228-3.883-.683-5.756zm-49.103-59.698c0-1.769 1.439-3.208 3.208-3.208h.406c1.769 0 3.208 1.439 3.208 3.208v8.092c0 1.769-1.439 3.208-3.208 3.208h-.406c-1.769 0-3.208-1.439-3.208-3.208zm-35.53 0c0-1.769 1.439-3.208 3.208-3.208h.406c1.769 0 3.208 1.439 3.208 3.208v8.092c0 1.769-1.439 3.208-3.208 3.208h-.406c-1.769 0-3.208-1.439-3.208-3.208zm-15.987 7.611c0-2.486 2.023-4.509 4.509-4.509h9.477v4.99c0 2.872 2.336 5.208 5.208 5.208h.406c2.872 0 5.208-2.336 5.208-5.208v-4.99h24.71v4.99c0 2.872 2.336 5.208 5.208 5.208h.406c2.872 0 5.208-2.336 5.208-5.208v-4.99h9.477c2.486 0 4.509 2.023 4.509 4.509v9.004 1.141h-74.326zm4.509 54.926c-2.486 0-4.509-2.022-4.509-4.509v-38.271h74.325v21.525c-11.202 1.225-20.135 10.088-21.476 21.255z"/><path d="m83.922 85.171c0 2.984 2.428 5.412 5.412 5.412s5.412-2.428 5.412-5.412-2.428-5.412-5.412-5.412-5.412 2.428-5.412 5.412zm8.823 0c0 1.881-1.53 3.412-3.412 3.412s-3.412-1.53-3.412-3.412 1.53-3.412 3.412-3.412 3.412 1.531 3.412 3.412z"/><path d="m78.461 85.171c0 5.995 4.877 10.872 10.872 10.872s10.873-4.877 10.873-10.872-4.877-10.873-10.873-10.873-10.872 4.878-10.872 10.873zm19.745 0c0 4.892-3.98 8.872-8.873 8.872-4.892 0-8.872-3.98-8.872-8.872 0-4.893 3.98-8.873 8.872-8.873 4.893 0 8.873 3.98 8.873 8.873z"/></g></svg>