<svg id="Layer_1" enable-background="new 0 0 128 128" height="512" viewBox="0 0 128 128" width="512" xmlns="http://www.w3.org/2000/svg"><path d="m73.517 33.312c2.068 2.091 4.799 3.239 7.699 3.239h.094c6.048-.051 10.928-5.14 10.878-11.344-.024-3.001-1.184-5.813-3.267-7.92-2.09-2.113-4.839-3.231-7.793-3.239-6.048.051-10.928 5.14-10.878 11.344.024 3.001 1.184 5.814 3.267 7.92z" fill="#e6e7e8"/><path d="m81.219 11.832c.552 0 1-.447 1-1v-3.201c0-.553-.448-1-1-1s-1 .447-1 1v3.201c0 .553.448 1 1 1z" fill="#e6e7e8"/><path d="m80.219 39.768v3.201c0 .553.448 1 1 1s1-.447 1-1v-3.201c0-.553-.448-1-1-1s-1 .448-1 1z" fill="#e6e7e8"/><path d="m95.687 26.301h3.202c.552 0 1-.447 1-1s-.448-1-1-1h-3.202c-.552 0-1 .447-1 1s.448 1 1 1z" fill="#e6e7e8"/><path d="m63.549 26.301h3.202c.552 0 1-.447 1-1s-.448-1-1-1h-3.202c-.552 0-1 .447-1 1s.448 1 1 1z" fill="#e6e7e8"/><path d="m93.713 38.795c.256 0 .512-.098.707-.293.391-.391.391-1.023 0-1.414l-2.264-2.264c-.391-.391-1.023-.391-1.414 0s-.391 1.023 0 1.414l2.264 2.264c.196.195.452.293.707.293z" fill="#e6e7e8"/><path d="m70.282 15.777c.195.195.451.293.707.293s.512-.098.707-.293c.391-.391.391-1.023 0-1.414l-2.264-2.265c-.391-.391-1.023-.391-1.414 0s-.391 1.023 0 1.414z" fill="#e6e7e8"/><path d="m91.449 16.07c.256 0 .512-.098.707-.293l2.264-2.265c.391-.391.391-1.023 0-1.414s-1.023-.391-1.414 0l-2.264 2.265c-.391.391-.391 1.023 0 1.414.196.195.451.293.707.293z" fill="#e6e7e8"/><path d="m70.282 34.824-2.264 2.264c-.391.391-.391 1.023 0 1.414.195.195.451.293.707.293s.512-.098.707-.293l2.264-2.264c.391-.391.391-1.023 0-1.414s-1.024-.391-1.414 0z" fill="#e6e7e8"/><path d="m95.91 56.222c0 .297.019.593.056.886-1.358.388-2.492 1.322-3.129 2.599h-.692c-2.03 0-3.682 1.652-3.682 3.683 0 2.03 1.652 3.683 3.684 3.683l10.058-.017h.002l5.518-.016c.938-.001 1.831-.238 2.58-.685 1.533-.912 2.485-2.585 2.485-4.366 0-2.024-1.179-3.806-2.963-4.618.088-.534.115-1.079.078-1.629-.234-3.489-3.043-6.289-6.533-6.511-1.963-.127-3.823.543-5.249 1.881-1.406 1.32-2.213 3.183-2.213 5.11z" fill="#e6e7e8"/><path d="m17.387 40.657c.693.413 1.518.632 2.383.633l4.997.014h.002l9.11.015c1.891 0 3.429-1.538 3.429-3.429s-1.538-3.429-3.429-3.429h-.569c-.581-1.129-1.585-1.961-2.788-2.326.028-.244.042-.489.042-.734 0-1.771-.741-3.482-2.033-4.695-1.311-1.229-3.025-1.847-4.824-1.729-3.208.204-5.789 2.777-6.003 5.983-.033.48-.013.957.06 1.426-1.612.764-2.672 2.391-2.672 4.237-.001 1.644.879 3.19 2.295 4.034z" fill="#e6e7e8"/><path d="m126.128 123.37h-8.53c-.485-3.19-3.238-5.645-6.561-5.645h-13.224c.869-1.006 1.399-2.312 1.402-3.742l.03-18.875c.002-1.531-.595-2.976-1.682-4.065-1.087-1.091-2.529-1.693-4.06-1.695l-7.862-.013v-2.007c0-1.22-.993-2.213-2.213-2.213h-8.936c-1.22 0-2.213.993-2.213 2.213v1.985l-7.813-.013c-.003 0-.005 0-.009 0-3.167 0-5.747 2.574-5.752 5.742l-.01 6.051c0 .009-.005.017-.005.027 0 .019.005.036.005.055l-.02 12.742c-.003 1.46.547 2.792 1.445 3.809h-25.969c.583-6.419 4.153-39.323 16.88-53.83.235.141.48.265.739.365l3.094 11.66c.169.636.634 1.162 1.243 1.408l2.467 1.032c.011.027.009.055-.004.082l-1.629 3.257c-.229.459-.283.984-.151 1.479l.833 3.138c.223.841.928 1.448 1.795 1.547.082.009.163.014.244.014.778 0 1.49-.424 1.859-1.123 4.791-9.085 5.927-16.592 3.377-22.312-1.304-2.926-3.39-4.988-5.587-6.447l12.308.044h.006c.657 0 1.284-.313 1.677-.835l1.638-2.113c.025-.011.055.005.077.024l2.721 2.419c.382.341.876.53 1.39.532l3.248.012h.006c.867 0 1.632-.522 1.952-1.332.321-.814.116-1.725-.524-2.319-7.528-6.987-14.481-10.035-20.667-9.061-2.11.333-3.94 1.101-5.514 2.092.519-1.658.795-3.481.645-5.454-.474-6.245-5.039-12.312-13.569-18.033-.726-.486-1.659-.478-2.378.024-.716.498-1.047 1.366-.844 2.211l.757 3.158c.119.497.416.934.835 1.229l2.981 2.094.575-.818-.555.966-1.658 2.001c-.42.507-.58 1.191-.425 1.831l3.354 13.98c-.089.021-.173.053-.26.078-2.331-2.221-5.575-4.283-9.744-4.6-6.229-.463-12.929 3.124-19.87 10.693-.59.644-.722 1.566-.336 2.354.358.729 1.083 1.177 1.88 1.177.06 0 .12-.002.18-.008l3.235-.272c.512-.043.988-.271 1.341-.641l2.52-2.631-.722-.691.87.694 1.73 1.942c.437.491 1.089.748 1.745.695l13.293-1.12c-.532.769-.848 1.698-.851 2.7-.001.211.032.416.058.622-17.723 18.659-21.176 50.316-21.666 56.096-3.227.104-5.873 2.513-6.348 5.634h-8.53c-.552 0-1 .447-1 1s.448 1 1 1h9.447 101.362 9.447c.552 0 1-.447 1-1s-.448-1-1-1zm-51.849-36.042c0-.117.096-.213.213-.213h8.936c.117 0 .213.096.213.213v2.004l-9.362-.015z" fill="#e6e7e8"/><path d="m46.693 58.357c-.539 1.447-1.924 2.48-3.558 2.475-1.78-.006-3.258-1.242-3.661-2.897-19.756 20.254-21.796 56.778-21.796 56.778l11.382.041s2.823-40.117 17.833-56.194c-.069-.066-.135-.133-.2-.203z" fill="#fa759e"/><path d="m79.128 51.16c-14.645-13.594-23.741-9.003-28.383-3.966-.697 1.077-1.454 2.01-2.162 2.783-.149.228-.292.451-.42.662.039.221.067.447.066.679-.001.336-.06.656-.143.966.435-.178.906-.285 1.405-.284.969.004 1.843.381 2.511.981l15.619.056c.346.001.673-.161.882-.437l1.568-2.075c.387-.512 1.129-.586 1.609-.159l2.723 2.42c.2.178.459.277.727.278l3.248.012c1.001.005 1.484-1.234.75-1.916z" fill="#6dc9f7"/><path d="m52.538 53.572c.458.63.736 1.398.733 2.237-.008 2.095-1.712 3.788-3.808 3.78-.3-.001-.587-.045-.867-.112l3.233 12.185c.089.335.33.608.651.738l2.411.975c.596.241.859.938.572 1.513l-1.629 3.258c-.12.24-.148.515-.079.774l.833 3.139c.257.968 1.579 1.112 2.046.227 9.602-18.206 2.098-25.713-4.096-28.714z" fill="#6dc9f7"/><path d="m40.641 51.292c.005-1.512.902-2.804 2.184-3.409-4.848-4.892-14.516-9.764-28.617 5.613-.677.738-.096 1.935.902 1.851l3.236-.273c.267-.023.517-.142.703-.336l2.519-2.631c.444-.464 1.19-.45 1.617.029l1.729 1.942c.23.259.569.394.914.365l15.31-1.29c-.309-.553-.5-1.182-.497-1.861z" fill="#6dc9f7"/><path d="m42.846 29.473-1.659 2.002c-.221.267-.304.622-.223.959l3.621 15.091c1.737.069 3.168 1.298 3.541 2.937 4.454-4.585 12.038-16.236-7.978-29.659-.832-.558-1.927.197-1.693 1.171l.758 3.158c.063.261.218.49.438.644l2.981 2.094c.524.369.624 1.108.214 1.603z" fill="#6dc9f7"/><path d="m45.933 54.476c.376-1.008 1.167-1.806 2.162-2.201.082-.305.132-.624.133-.955.008-2.095-1.685-3.8-3.78-3.808s-3.8 1.685-3.808 3.78c-.003.895.317 1.708.833 2.358.511-.254 1.08-.409 1.69-.407 1.175.004 2.206.557 2.898 1.399-.044-.054-.08-.115-.128-.166z" fill="#ffd7e5"/><path d="m49.491 52.001c-1.634-.006-3.018 1.028-3.558 2.475.625.679 1.014 1.579 1.01 2.575-.002.461-.098.897-.25 1.306.69.75 1.671 1.229 2.77 1.233 2.095.007 3.8-1.685 3.808-3.78.008-2.096-1.685-3.801-3.78-3.809z" fill="#ffd7e5"/><path d="m43.163 53.243c-2.095-.007-3.8 1.685-3.808 3.78s1.685 3.8 3.78 3.808c2.095.007 3.8-1.685 3.808-3.781.008-2.094-1.685-3.799-3.78-3.807z" fill="#ffd7e5"/><path d="m87.189 21.22c0 .55-.03 1.08-.11 1.61 0 0 .01.01 0 .02-.72 4.89-4.8 8.66-9.78 8.7-5.04.05-9.24-3.77-9.94-8.78 0-.01 0-.01 0-.02-.07-.44-.11-.9-.11-1.37-.04-5.66 4.38-10.29 9.89-10.33 5.5-.05 10 4.5 10.05 10.17z" fill="#fff"/><path d="m87.079 22.83s.01.01 0 .02c-.72 4.89-4.8 8.66-9.78 8.7-5.04.05-9.24-3.77-9.94-8.78 0-.01 0-.01 0-.02.72-4.89 4.8-8.66 9.78-8.7 5.04-.05 9.24 3.77 9.94 8.78z" fill="#ffd7e5"/><path d="m98.205 62.055 5.519-.015c.725-.001 1.447-.173 2.07-.544 1.195-.711 1.996-2.015 1.996-3.507 0-1.931-1.342-3.544-3.143-3.97.217-.691.312-1.436.26-2.21-.2-2.978-2.62-5.39-5.599-5.58-3.495-.222-6.399 2.546-6.399 5.993 0 .589.086 1.157.244 1.695-1.708.093-3.135 1.231-3.651 2.789h-1.359c-1.482 0-2.683 1.201-2.683 2.683 0 1.482 1.201 2.683 2.683 2.683l6.344-.012 1.121-.002 1.426-.003z" fill="#d4fbff"/><path d="m20.77 36.303-4.997-.013c-.657-.001-1.31-.157-1.875-.493-1.082-.644-1.808-1.825-1.808-3.176 0-1.748 1.215-3.209 2.846-3.594-.196-.626-.282-1.301-.235-2.001.181-2.697 2.372-4.881 5.069-5.052 3.164-.201 5.794 2.306 5.794 5.427 0 .533-.078 1.048-.221 1.535 1.546.084 2.839 1.115 3.305 2.525h1.23c1.341 0 2.429 1.087 2.429 2.429 0 1.341-1.087 2.429-2.429 2.429l-5.745-.011-1.015-.002-1.291-.002h-1.057z" fill="#d4fbff"/><path d="m112.681 120.37h-101.362c0-3.118 2.527-5.645 5.645-5.645h90.071c3.118 0 5.646 2.527 5.646 5.645z" fill="#fa759e"/><path d="m89.456 114.725h-29.038c-2.613-.004-4.748-2.192-4.744-4.806l.03-18.874c.004-2.613 2.146-4.748 4.759-4.744l29.038.047c2.613.004 4.748 2.146 4.744 4.759l-.03 18.874c-.004 2.613-2.146 4.748-4.759 4.744z" fill="#6dc9f7"/><path d="m66.912 96.757c-.838-.001-1.525.683-1.526 1.521l-.007 4.23c-.001.838.683 1.525 1.521 1.526s1.525-.683 1.526-1.521l.007-4.23c.002-.838-.683-1.524-1.521-1.526z" fill="#fa759e"/><path d="m83.132 96.783c-.838-.001-1.525.683-1.526 1.521l-.007 4.23c-.001.838.683 1.525 1.521 1.526s1.525-.683 1.526-1.521l.007-4.23c.002-.838-.683-1.524-1.521-1.526z" fill="#fa759e"/><g fill="#3a2c60"><path d="m69.517 29.312c2.068 2.092 4.799 3.24 7.699 3.24h.093c6.048-.052 10.928-5.141 10.878-11.344-.024-3.001-1.184-5.813-3.267-7.92-2.089-2.114-4.859-3.243-7.792-3.24-6.048.052-10.927 5.141-10.878 11.345.024 3 1.184 5.812 3.267 7.919zm7.628-17.264h.076c2.362 0 4.588.938 6.277 2.646 1.714 1.734 2.669 4.053 2.689 6.529.041 5.102-3.949 9.286-8.895 9.328-2.403.001-4.646-.919-6.354-2.646-1.714-1.733-2.669-4.053-2.689-6.528-.04-5.102 3.951-9.287 8.896-9.329z"/><path d="m77.219 7.832c.552 0 1-.447 1-1v-3.202c0-.553-.448-1-1-1s-1 .447-1 1v3.202c0 .553.448 1 1 1z"/><path d="m76.219 35.768v3.202c0 .553.448 1 1 1s1-.447 1-1v-3.202c0-.553-.448-1-1-1s-1 .447-1 1z"/><path d="m91.687 22.3h3.202c.552 0 1-.447 1-1s-.448-1-1-1h-3.202c-.552 0-1 .447-1 1s.448 1 1 1z"/><path d="m59.55 22.3h3.201c.552 0 1-.447 1-1s-.448-1-1-1h-3.201c-.552 0-1 .447-1 1s.447 1 1 1z"/><path d="m89.713 34.794c.256 0 .512-.098.707-.293.391-.391.391-1.023 0-1.414l-2.264-2.264c-.391-.391-1.023-.391-1.414 0s-.391 1.023 0 1.414l2.264 2.264c.196.196.451.293.707.293z"/><path d="m66.282 11.777c.195.195.451.293.707.293s.512-.098.707-.293c.391-.391.391-1.023 0-1.414l-2.264-2.264c-.391-.391-1.023-.391-1.414 0s-.391 1.023 0 1.414z"/><path d="m87.45 12.07c.256 0 .512-.098.707-.293l2.264-2.264c.391-.391.391-1.023 0-1.414s-1.023-.391-1.414 0l-2.264 2.264c-.391.391-.391 1.023 0 1.414.195.195.451.293.707.293z"/><path d="m66.282 30.823-2.264 2.264c-.391.391-.391 1.023 0 1.414.195.195.451.293.707.293s.512-.098.707-.293l2.264-2.264c.391-.391.391-1.023 0-1.414s-1.024-.39-1.414 0z"/><path d="m91.91 52.223c0 .296.019.592.056.886-1.359.388-2.492 1.322-3.129 2.599h-.692c-2.031 0-3.683 1.651-3.683 3.682s1.652 3.683 3.685 3.683l10.058-.017h.002l5.519-.015c.938-.003 1.831-.239 2.579-.685 1.533-.911 2.485-2.585 2.485-4.366 0-2.025-1.179-3.807-2.963-4.618.088-.535.115-1.08.078-1.63-.234-3.489-3.042-6.288-6.533-6.51-1.966-.128-3.824.543-5.25 1.882-1.405 1.319-2.212 3.181-2.212 5.109zm7.335-4.995c2.492.158 4.497 2.156 4.665 4.647.023.34.006.677-.038 1.009-.6-.033-1.381.032-2.18.4-.501.231-.72.825-.489 1.327.169.366.531.581.909.581.14 0 .283-.029.418-.092.87-.401 1.784-.137 1.816-.128.013.004.025.001.037.004.013.004.022.013.035.016 1.396.329 2.372 1.562 2.372 2.996 0 1.097-.563 2.086-1.507 2.647-.441.263-.981.401-1.562.403l-15.576.031c-.928 0-1.683-.755-1.683-1.683s.755-1.682 1.683-1.682h1.358c.431 0 .814-.276.949-.686.394-1.191 1.501-2.037 2.755-2.105.008 0 .015-.006.023-.007.01-.001.02.004.03.003.334-.033 1.349-.029 2.015.408.169.111.359.164.548.164.326 0 .645-.158.837-.451.303-.462.175-1.082-.287-1.385-.812-.533-1.739-.694-2.414-.735-.032-.229-.05-.46-.05-.691 0-1.397.562-2.694 1.581-3.651 1.02-.952 2.352-1.426 3.755-1.34z"/><path d="m13.388 36.656c.692.412 1.516.631 2.383.634l4.997.013h.002l9.109.016c1.891 0 3.429-1.538 3.429-3.429 0-1.892-1.538-3.43-3.429-3.43h-.571c-.581-1.111-1.595-1.95-2.786-2.321.028-.245.042-.491.042-.738 0-1.771-.741-3.483-2.034-4.696-1.311-1.229-3.025-1.838-4.823-1.729-3.207.204-5.788 2.776-6.003 5.983-.032.48-.012.957.06 1.425-1.612.765-2.672 2.391-2.672 4.237-.001 1.647.879 3.193 2.296 4.035zm1.778-6.655c.013-.003.022-.013.034-.016s.024 0 .036-.003c.008-.004.815-.241 1.579.11.135.063.278.092.418.092.378 0 .74-.216.909-.581.231-.502.012-1.096-.49-1.327-.703-.324-1.389-.391-1.933-.371-.03-.267-.038-.538-.02-.812.148-2.209 1.926-3.98 4.136-4.121 1.239-.081 2.424.344 3.328 1.19.904.849 1.402 1.999 1.402 3.238 0 .18-.017.359-.039.538-.616.046-1.43.202-2.149.674-.461.303-.59.923-.287 1.385.192.292.511.451.837.451.188 0 .378-.053.548-.164.578-.379 1.464-.384 1.762-.355.01.001.019-.004.029-.003.008.001.015.006.024.007 1.097.061 2.066.8 2.411 1.842.135.409.518.686.949.686h1.23c.788 0 1.429.642 1.429 1.43s-.641 1.429-1.427 1.429l-9.111-.016-4.994-.013c-.509-.002-.981-.123-1.366-.353-.826-.491-1.319-1.357-1.319-2.316-.001-1.256.853-2.333 2.074-2.621z"/><path d="m35.833 119.37h-7.08c-.552 0-1 .447-1 1s.448 1 1 1h7.08c.552 0 1-.447 1-1s-.447-1-1-1z"/><path d="m122.127 119.37h-8.53c-.485-3.19-3.238-5.646-6.561-5.646h-13.226c.87-1.006 1.403-2.311 1.405-3.742l.031-18.874c.005-3.171-2.571-5.756-5.743-5.762l-7.862-.013v-2.007c0-1.22-.993-2.213-2.212-2.213h-8.937c-1.22 0-2.213.993-2.213 2.213v1.985l-7.814-.011c-.003 0-.005 0-.009 0-3.167 0-5.747 2.574-5.752 5.742l-.01 6.051c0 .009-.005.017-.005.027 0 .018.005.035.005.053l-.02 12.745c-.002 1.457.536 2.787 1.417 3.808h-25.94c.579-6.376 4.153-39.306 16.893-53.822.233.14.474.264.726.362l3.092 11.654c.169.636.634 1.162 1.243 1.408l2.467 1.033c.011.027.009.054-.004.08l-1.63 3.26c-.229.458-.282.982-.151 1.478l.833 3.139c.223.84.927 1.446 1.794 1.545.082.009.164.014.244.014.778 0 1.49-.423 1.859-1.122 4.791-9.085 5.927-16.592 3.378-22.312-1.304-2.926-3.39-4.988-5.587-6.447l12.307.044h.006c.655 0 1.282-.312 1.677-.835l1.638-2.113c.026-.011.054.005.077.024l2.724 2.422c.383.339.875.526 1.387.528l3.247.012h.008c.866 0 1.631-.521 1.95-1.33.322-.814.116-1.726-.524-2.319-7.527-6.988-14.482-10.035-20.666-9.062-2.109.332-3.937 1.1-5.509 2.09.518-1.656.789-3.48.64-5.453-.473-6.244-5.038-12.311-13.568-18.03-.725-.485-1.658-.478-2.377.022-.716.498-1.049 1.366-.846 2.213l.757 3.156c.119.498.416.935.835 1.23l2.981 2.094s.019.146.02.146l-1.658 2.002c-.42.506-.579 1.19-.425 1.831l3.354 13.98c-.091.021-.177.054-.266.08-2.33-2.222-5.566-4.285-9.737-4.601-6.253-.479-12.93 3.123-19.872 10.693-.59.643-.722 1.566-.336 2.353.358.729 1.083 1.178 1.88 1.178.06 0 .12-.002.18-.008l3.236-.273c.51-.043.986-.27 1.341-.64l2.519-2.631-.722-.691.871.694 1.729 1.941c.436.49 1.083.753 1.745.696l13.292-1.12c-.546.789-.846 1.72-.85 2.7-.001.22.035.43.063.642-17.724 18.673-21.179 50.329-21.666 56.075-3.226.103-5.873 2.514-6.348 5.635h-8.53c-.552 0-1 .447-1 1s.448 1 1 1h9.447 12.815c.552 0 1-.447 1-1s-.448-1-1-1h-11.706c.458-2.083 2.318-3.646 4.537-3.646h90.071c2.218 0 4.078 1.563 4.537 3.646h-70.932c-.552 0-1 .447-1 1s.448 1 1 1h72.04 9.447c.552 0 1-.447 1-1s-.448-1.001-1.001-1.001zm-51.848-36.043c0-.117.096-.213.213-.213h8.937c.117 0 .212.096.212.213v2.004l-9.362-.015zm-9.823 3.973h.006l8.814.014h.002s.001 0 .002 0l20.219.033c2.069.004 3.749 1.689 3.746 3.758l-.01 6.051c0 .009-.005.017-.005.026-.002 1.3-1.061 2.356-2.36 2.356-.001 0-.002 0-.004 0l-5.215-.009.002-1.219c.001-.673-.261-1.307-.738-1.784-.477-.479-1.109-.742-1.782-.743-.001 0-.002 0-.003 0-1.39 0-2.521 1.129-2.524 2.519l-.002 1.219-11.173-.018.002-1.219c.001-.672-.261-1.306-.737-1.784-.477-.479-1.11-.742-1.783-.743-.001 0-.002 0-.003 0-.671 0-1.303.262-1.781.738-.479.477-.742 1.109-.743 1.781l-.002 1.219-5.339-.009c-1.283-.002-2.323-1.034-2.351-2.31l.01-6.13c.004-2.067 1.687-3.746 3.752-3.746zm23.197 11.007-.007 4.23c0 .187-.097.312-.155.369-.058.058-.182.153-.367.153-.001 0-.001 0-.002 0-.186 0-.311-.097-.368-.155-.058-.058-.154-.183-.154-.368l.007-4.23c0-.283.24-.522.524-.522h.001c.186 0 .311.098.368.155s.154.182.153.368zm-16.22-.026-.007 4.229c0 .284-.24.523-.523.523-.284-.001-.524-.241-.523-.524l.007-4.23c0-.186.097-.311.155-.368.058-.058.183-.154.369-.154h.001c.186 0 .31.098.368.155s.153.183.153.369zm-10.759 11.64.015-9.14c.68.44 1.485.704 2.354.705l5.339.009-.002 1.011c-.002 1.391 1.127 2.525 2.519 2.528h.004c1.39 0 2.521-1.13 2.524-2.52l.002-1.011 11.173.018-.002 1.011c-.001.673.261 1.307.738 1.784.477.479 1.109.742 1.781.743h.006c.67 0 1.302-.262 1.779-.737.478-.477.742-1.109.743-1.781l.002-1.011 5.215.009h.007c.87 0 1.678-.263 2.36-.704l-.015 9.144c-.003 2.067-1.686 3.746-3.752 3.746h-.007-29.037c-2.034-.004-3.749-1.746-3.746-3.804zm-15.033-58.625c.003-.747.296-1.447.826-1.974.527-.522 1.225-.811 1.968-.811h.011c.747.002 1.447.296 1.973.825s.814 1.232.812 1.979c0 .099-.014.195-.025.291-.397.211-.776.46-1.105.787-.175.174-.323.365-.465.561-.738-.451-1.58-.708-2.467-.711-.006 0-.012 0-.019 0-.435 0-.855.078-1.265.19-.157-.348-.246-.731-.244-1.137zm7.837 7.293c-.004 0-.007 0-.011 0-.598-.002-1.161-.198-1.634-.545.069-.322.109-.652.11-.989.004-.985-.293-1.922-.838-2.717.114-.187.244-.366.404-.525.527-.523 1.226-.812 1.968-.812h.011c1.541.006 2.79 1.264 2.784 2.804-.003.747-.296 1.447-.826 1.974-.527.522-1.225.81-1.968.81zm-8.297-3.535c.527-.522 1.225-.811 1.967-.811h.011c.747.003 1.447.296 1.973.825s.814 1.232.811 1.979c-.002.747-.296 1.447-.825 1.974-.527.522-1.226.811-1.968.811-.004 0-.007 0-.011 0-1.541-.006-2.79-1.264-2.784-2.804.003-.747.296-1.448.826-1.974zm17.89 6.202c2.287 5.131 1.169 12.049-3.321 20.564-.011.021-.029.063-.108.054-.07-.008-.08-.046-.086-.071l-.826-3.21 1.629-3.258c.261-.522.292-1.135.086-1.682s-.636-.985-1.178-1.205l-2.47-1.043-2.881-10.859c1.107-.101 2.14-.556 2.939-1.349.909-.902 1.412-2.104 1.417-3.385 0-.038-.01-.073-.011-.11 1.907 1.28 3.698 3.06 4.81 5.554zm.383-17.914c5.545-.871 11.939 2.002 18.994 8.551.019.018.053.049.024.12-.025.065-.059.063-.091.064l-3.314-.036-2.723-2.42c-.437-.388-1.016-.578-1.603-.521-.582.058-1.117.357-1.469.824l-1.648 2.114-15.269-.055c-.799-.605-1.782-.979-2.859-.983-.099.002-.195.025-.293.032-.003-.051-.01-.101-.014-.151.057-.091.113-.18.173-.273.736-.804 1.501-1.755 2.208-2.84 1.881-2.015 4.478-3.889 7.884-4.426zm-15.839-13.23c.373-.449.543-1.04.465-1.619s-.396-1.104-.875-1.44l-3.021-2.153-.757-3.156c-.006-.026-.016-.064.043-.105.061-.042.101-.018.121-.004 7.995 5.361 12.264 10.92 12.688 16.521.333 4.406-1.771 8.024-3.87 10.473-.168-.248-.356-.483-.571-.7-.675-.68-1.517-1.132-2.434-1.318l-3.446-14.496zm-17.953 23.301-1.729-1.94c-.388-.438-.946-.693-1.53-.704-.591-.042-1.152.226-1.557.647l-2.583 2.661-3.236.273c-.024 0-.064.005-.096-.059-.034-.067-.002-.102.015-.12 6.142-6.698 11.956-10.087 17.3-10.087.316 0 .632.012.945.036 3.341.254 6.02 1.828 8.04 3.64-.056.051-.121.089-.175.143-.909.902-1.412 2.104-1.417 3.385-.001.334.044.655.11.968zm13.555 6.35c.837 1.203 2.207 1.999 3.769 2.053-11.335 16.323-14.35 45.998-14.847 51.909h-6.969l-2.412-.009c.52-5.976 3.937-35.908 20.459-53.953z"/></g></svg>