<svg id="Layer_1" enable-background="new 0 0 128 128" height="512" viewBox="0 0 128 128" width="512" xmlns="http://www.w3.org/2000/svg"><path d="m34.224 26.934c.212.071.433.108.658.129v28.295c0 3.146 2.56 5.706 5.706 5.706h50.824c3.146 0 5.706-2.56 5.706-5.706v-28.3c.702-.065 1.353-.354 1.846-.852.572-.566.888-1.324.888-2.134 0-.325-.051-.642-.147-.926-.399-1.249-1.551-2.088-2.866-2.088h-27.554c.001-.016.009-.03.009-.046v-.546c0-.532-.435-.966-.966-.966h-4.657c-.531 0-.966.435-.966.966v.546c0 .016.009.03.009.046h-27.552c-.811 0-1.568.315-2.125.878-.573.565-.889 1.323-.889 2.135 0 1.315.839 2.467 2.076 2.863z" fill="#e6e7e8"/><circle cx="29.483" cy="72.816" fill="#e6e7e8" r="8.036"/><circle cx="47.742" cy="72.816" fill="#e6e7e8" r="8.036"/><circle cx="66" cy="72.816" fill="#e6e7e8" r="8.036"/><circle cx="84.258" cy="72.816" fill="#e6e7e8" r="8.036"/><circle cx="102.517" cy="72.816" fill="#e6e7e8" r="8.036"/><path d="m112.871 96.557v-.561c3.85-.593 6.811-3.919 6.811-7.933 0-4.431-3.605-8.036-8.036-8.036-2.006 0-3.839.744-5.249 1.965-1.2-.487-2.508-.761-3.88-.761-1.354 0-2.658.283-3.864.776-1.412-1.229-3.251-1.979-5.266-1.979-2.014 0-3.853.75-5.265 1.979-1.206-.492-2.51-.776-3.864-.776s-2.658.283-3.864.776c-1.412-1.229-3.251-1.979-5.265-1.979s-3.853.75-5.265 1.979c-1.206-.492-2.51-.776-3.864-.776s-2.658.283-3.864.776c-1.412-1.229-3.251-1.979-5.265-1.979s-3.853.75-5.265 1.979c-1.206-.492-2.51-.776-3.864-.776-1.355 0-2.658.283-3.864.776-1.412-1.229-3.25-1.979-5.265-1.979s-3.854.75-5.266 1.979c-1.206-.492-2.51-.776-3.864-.776-1.372 0-2.68.274-3.88.761-1.41-1.221-3.242-1.965-5.249-1.965-4.431 0-8.036 3.605-8.036 8.036 0 4.013 2.961 7.339 6.811 7.933v.561c-5.133.609-9.129 4.981-9.129 10.276v4.667c0 .552.447 1 1 1h110c.553 0 1-.448 1-1v-4.667c0-5.295-3.996-9.667-9.129-10.276z" fill="#e6e7e8"/><path d="m31.882 22.083v29.274c0 2.599 2.107 4.706 4.705 4.706h50.825c2.599 0 4.705-2.107 4.705-4.706v-29.274z" fill="#fff"/><path d="m31.882 19.083v29.274c0 2.599 2.107 4.706 4.705 4.706h50.825c2.599 0 4.705-2.107 4.705-4.706v-29.274z" fill="#ffd7e5"/><path d="m94.852 20.07c0 .556-.224 1.061-.591 1.423-.362.366-.867.591-1.423.591h-61.676c-1.112 0-2.014-.901-2.014-2.014 0-.556.224-1.061.591-1.423.362-.367.867-.591 1.423-.591h61.676c1.113 0 2.014.901 2.014 2.014z" fill="#fa759e"/><ellipse cx="25.484" cy="68.816" fill="#6dc9f7" rx="7.036" ry="7.036" transform="matrix(.973 -.23 .23 .973 -15.129 7.696)"/><ellipse cx="43.742" cy="68.816" fill="#6dc9f7" rx="7.036" ry="7.036" transform="matrix(.973 -.23 .23 .973 -14.64 11.891)"/><circle cx="62" cy="68.816" fill="#6dc9f7" r="7.036"/><circle cx="80.258" cy="68.816" fill="#6dc9f7" r="7.036"/><ellipse cx="98.516" cy="68.816" fill="#6dc9f7" rx="7.036" ry="7.036" transform="matrix(.973 -.23 .23 .973 -13.175 24.475)"/><path d="m107.871 93.489v-2.401c3.781-.12 6.811-3.215 6.811-7.025 0-3.886-3.15-7.036-7.036-7.036-1.985 0-3.775.825-5.054 2.147-1.233-.599-2.612-.944-4.075-.944-1.464 0-2.845.341-4.078.941-1.279-1.32-3.068-2.144-5.051-2.144s-3.772.824-5.051 2.144c-1.233-.6-2.614-.941-4.078-.941-1.464 0-2.845.341-4.078.941-1.279-1.32-3.068-2.144-5.051-2.144s-3.772.824-5.051 2.144c-1.233-.6-2.614-.941-4.078-.941s-2.845.341-4.078.941c-1.279-1.32-3.068-2.144-5.051-2.144s-3.772.824-5.051 2.144c-1.233-.6-2.614-.941-4.078-.941s-2.845.341-4.078.941c-1.279-1.32-3.068-2.144-5.051-2.144s-3.772.824-5.051 2.144c-1.233-.6-2.614-.941-4.078-.941-1.463 0-2.842.345-4.075.944-1.279-1.322-3.069-2.147-5.054-2.147-3.886 0-7.036 3.15-7.036 7.036 0 3.81 3.03 6.905 6.811 7.025v2.401c-5.063.121-9.131 4.253-9.131 9.343v4.668h110v-4.668c0-5.09-4.068-9.222-9.129-9.343z" fill="#6dc9f7"/><g fill="#3a2c60"><path d="m45.629 23.085h6.686c.553 0 1-.448 1-1s-.447-1-1-1h-6.686c-.553 0-1 .448-1 1s.447 1 1 1z"/><path d="m30.224 22.934c.212.071.433.108.658.129v28.295c0 3.146 2.56 5.706 5.706 5.706h50.824c3.146 0 5.706-2.56 5.706-5.706v-28.3c.702-.065 1.353-.354 1.846-.852.572-.566.888-1.324.888-2.134 0-.325-.051-.641-.147-.926-.399-1.249-1.551-2.088-2.866-2.088h-27.554c.001-.016.009-.03.009-.046v-.546c0-.531-.435-.966-.966-.966h-4.657c-.531 0-.966.435-.966.966v.546c0 .016.009.03.009.046h-27.552c-.811 0-1.568.315-2.125.879-.573.565-.889 1.324-.889 2.135 0 1.314.839 2.467 2.076 2.862zm.226-3.582c.188-.189.44-.293.712-.293h61.676c.441 0 .828.28.967.711.03.092.047.197.047.302 0 .271-.104.524-.302.72-.188.189-.44.293-.712.293h-36.808c-.553 0-1 .448-1 1s.447 1 1 1h35.088v28.272c0 2.043-1.662 3.706-3.706 3.706h-50.824c-2.044 0-3.706-1.662-3.706-3.706v-28.272h8.79c.553 0 1-.448 1-1s-.447-1-1-1h-10.51c-.105 0-.211-.017-.316-.051-.417-.134-.697-.521-.697-.962-.001-.272.104-.525.301-.72z"/><path d="m25.483 76.852c4.431 0 8.036-3.605 8.036-8.036s-3.605-8.036-8.036-8.036-8.036 3.605-8.036 8.036 3.606 8.036 8.036 8.036zm0-14.073c3.328 0 6.036 2.708 6.036 6.036s-2.708 6.036-6.036 6.036-6.036-2.708-6.036-6.036 2.708-6.036 6.036-6.036z"/><path d="m35.706 68.815c0 4.431 3.605 8.036 8.036 8.036s8.036-3.605 8.036-8.036-3.605-8.036-8.036-8.036-8.036 3.605-8.036 8.036zm14.072 0c0 3.328-2.708 6.036-6.036 6.036s-6.036-2.708-6.036-6.036 2.708-6.036 6.036-6.036 6.036 2.708 6.036 6.036z"/><path d="m53.964 68.815c0 4.431 3.605 8.036 8.036 8.036s8.036-3.605 8.036-8.036-3.605-8.036-8.036-8.036-8.036 3.605-8.036 8.036zm14.072 0c0 3.328-2.708 6.036-6.036 6.036s-6.036-2.708-6.036-6.036 2.708-6.036 6.036-6.036 6.036 2.708 6.036 6.036z"/><path d="m80.258 60.779c-4.431 0-8.036 3.605-8.036 8.036s3.605 8.036 8.036 8.036 8.036-3.605 8.036-8.036-3.606-8.036-8.036-8.036zm0 14.073c-3.328 0-6.036-2.708-6.036-6.036s2.708-6.036 6.036-6.036 6.036 2.708 6.036 6.036-2.708 6.036-6.036 6.036z"/><path d="m90.48 68.815c0 4.431 3.605 8.036 8.036 8.036s8.036-3.605 8.036-8.036-3.605-8.036-8.036-8.036-8.036 3.605-8.036 8.036zm8.037-6.036c3.328 0 6.036 2.708 6.036 6.036s-2.708 6.036-6.036 6.036-6.036-2.708-6.036-6.036 2.707-6.036 6.036-6.036z"/><path d="m16.354 92.099c4.431 0 8.036-3.605 8.036-8.036 0-1.647-.5-3.178-1.353-4.454.774-.24 1.593-.378 2.445-.378.845 0 1.665.137 2.444.38-.852 1.276-1.352 2.806-1.352 4.452 0 4.431 3.605 8.036 8.037 8.036 4.431 0 8.036-3.605 8.036-8.036 0-1.646-.499-3.177-1.352-4.452.779-.243 1.6-.38 2.444-.38.845 0 1.665.137 2.444.38-.852 1.276-1.351 2.806-1.351 4.452 0 4.431 3.605 8.036 8.036 8.036s8.036-3.605 8.036-8.036c0-1.646-.499-3.177-1.351-4.452.779-.243 1.6-.38 2.444-.38s1.665.137 2.444.38c-.852 1.276-1.351 2.806-1.351 4.452 0 4.431 3.605 8.036 8.036 8.036s8.036-3.605 8.036-8.036c0-1.646-.499-3.177-1.351-4.452.779-.243 1.6-.38 2.444-.38.845 0 1.665.137 2.444.38-.852 1.276-1.352 2.806-1.352 4.452 0 4.431 3.605 8.036 8.036 8.036 4.432 0 8.037-3.605 8.037-8.036 0-1.646-.499-3.177-1.352-4.452.779-.243 1.6-.38 2.444-.38.853 0 1.671.138 2.445.378-.853 1.276-1.353 2.807-1.353 4.454 0 4.431 3.605 8.036 8.036 8.036s8.036-3.605 8.036-8.036-3.605-8.036-8.036-8.036c-2.008 0-3.841.745-5.251 1.967-1.199-.487-2.506-.763-3.878-.763-1.353 0-2.652.288-3.854.785-1.413-1.234-3.256-1.988-5.275-1.988s-3.861.754-5.274 1.988c-1.202-.497-2.501-.784-3.855-.784-1.353 0-2.652.288-3.854.785-1.413-1.234-3.256-1.988-5.275-1.988s-3.861.754-5.275 1.988c-1.197-.499-2.496-.787-3.849-.787s-2.652.288-3.854.785c-1.413-1.234-3.256-1.988-5.275-1.988s-3.861.754-5.275 1.988c-1.202-.497-2.501-.785-3.854-.785-1.354 0-2.652.288-3.855.784-1.413-1.234-3.256-1.988-5.274-1.988-2.019 0-3.862.754-5.275 1.988-1.202-.497-2.501-.785-3.854-.785-1.372 0-2.679.276-3.878.763-1.41-1.222-3.244-1.967-5.251-1.967-4.431 0-8.036 3.605-8.036 8.036s3.605 8.038 8.035 8.038zm97.328-8.036c0 3.328-2.708 6.036-6.036 6.036s-6.036-2.708-6.036-6.036 2.708-6.036 6.036-6.036 6.036 2.708 6.036 6.036zm-24.295-6.036c3.329 0 6.037 2.708 6.037 6.036s-2.708 6.036-6.037 6.036c-3.328 0-6.036-2.708-6.036-6.036s2.708-6.036 6.036-6.036zm-18.258 0c3.328 0 6.036 2.708 6.036 6.036s-2.708 6.036-6.036 6.036-6.036-2.708-6.036-6.036 2.708-6.036 6.036-6.036zm-18.258 0c3.328 0 6.036 2.708 6.036 6.036s-2.708 6.036-6.036 6.036-6.036-2.708-6.036-6.036 2.708-6.036 6.036-6.036zm-18.258 0c3.328 0 6.036 2.708 6.036 6.036s-2.708 6.036-6.036 6.036c-3.329 0-6.037-2.708-6.037-6.036s2.708-6.036 6.037-6.036zm-18.259 0c3.328 0 6.036 2.708 6.036 6.036s-2.708 6.036-6.036 6.036-6.036-2.708-6.036-6.036 2.708-6.036 6.036-6.036z"/><path d="m107.646 92.478c-3.862 0-7.359 2.193-9.129 5.485-1.771-3.292-5.269-5.485-9.13-5.485s-7.358 2.193-9.129 5.485c-1.77-3.292-5.267-5.485-9.129-5.485-3.861 0-7.358 2.193-9.129 5.486-1.771-3.293-5.268-5.486-9.129-5.486-3.862 0-7.359 2.193-9.129 5.485-1.771-3.292-5.268-5.485-9.129-5.485s-7.359 2.193-9.13 5.485c-1.77-3.292-5.267-5.485-9.129-5.485-5.709 0-10.354 4.645-10.354 10.355v4.667c0 .552.447 1 1 1h110c.553 0 1-.448 1-1v-4.667c0-5.71-4.645-10.355-10.354-10.355zm8.354 14.022h-108v-3.667c0-4.606 3.748-8.354 8.354-8.354 3.887 0 7.315 2.753 8.152 6.546.102.458.507.785.977.785.469 0 .875-.326.977-.784.838-3.793 4.267-6.547 8.153-6.547s7.314 2.753 8.152 6.547c.102.458.508.784.977.784.47 0 .875-.326.977-.785.837-3.793 4.266-6.546 8.152-6.546s7.314 2.753 8.152 6.547c.102.458.508.784.977.784s.875-.326.977-.784c.838-3.793 4.266-6.547 8.152-6.547s7.315 2.753 8.152 6.546c.102.458.507.785.977.785.469 0 .875-.326.977-.784.838-3.793 4.266-6.547 8.152-6.547s7.315 2.753 8.153 6.547c.102.458.508.784.977.784.47 0 .875-.326.977-.785.837-3.793 4.266-6.546 8.152-6.546 4.606 0 8.354 3.748 8.354 8.354z"/></g></svg>