<svg id="Layer_1" enable-background="new 0 0 128 128" height="512" viewBox="0 0 128 128" width="512" xmlns="http://www.w3.org/2000/svg"><path d="m111.533 26.565h-13.609v-1.931c0-3.787-3.081-6.867-6.867-6.867h-.567c-3.786 0-6.867 3.081-6.867 6.867v1.931h-35.246v-1.931c0-3.787-3.081-6.867-6.867-6.867h-.566c-3.787 0-6.867 3.081-6.867 6.867v1.931h-13.61c-4.787 0-8.682 3.895-8.682 8.682v15.543 54.762c0 4.787 3.895 8.682 8.682 8.682h91.066c4.788 0 8.683-3.895 8.683-8.682v-54.762-15.543c0-4.787-3.895-8.682-8.683-8.682z" fill="#e6e7e8"/><path d="m115.214 46.79h-106.43v54.761c0 4.243 3.439 7.682 7.682 7.682h91.067c4.243 0 7.682-3.439 7.682-7.682z" fill="#fff"/><path d="m107.534 23.57h-14.61v8.348c0 3.24-2.627 5.867-5.867 5.867h-.567c-3.24 0-5.867-2.627-5.867-5.867v-8.348h-37.246v8.348c0 3.24-2.627 5.867-5.867 5.867h-.566c-3.24 0-5.867-2.627-5.867-5.867v-8.348h-14.613c-4.24 0-7.68 3.43-7.68 7.68v15.54h106.43v-15.54c0-4.25-3.44-7.68-7.68-7.68z" fill="#fff"/><path d="m107.534 26.57h-14.61v5.348c0 3.24-2.627 5.867-5.867 5.867h-.567c-3.24 0-5.867-2.627-5.867-5.867v-5.348h-37.246v5.348c0 3.24-2.627 5.867-5.867 5.867h-.566c-3.24 0-5.867-2.627-5.867-5.867v-5.348h-14.613c-4.24 0-7.68 3.43-7.68 7.68v12.54h106.43v-12.54c0-4.25-3.44-7.68-7.68-7.68z" fill="#fa759e"/><path d="m37.509 14.767h-.566c-3.24 0-5.867 2.627-5.867 5.867v11.284c0 3.24 2.627 5.867 5.867 5.867h.566c3.24 0 5.867-2.627 5.867-5.867v-11.284c.001-3.241-2.626-5.867-5.867-5.867z" fill="#ffd7e5"/><path d="m87.056 14.767h-.566c-3.24 0-5.867 2.627-5.867 5.867v11.284c0 3.24 2.627 5.867 5.867 5.867h.566c3.24 0 5.867-2.627 5.867-5.867v-11.284c.001-3.241-2.626-5.867-5.867-5.867z" fill="#ffd7e5"/><path d="m107.533 22.565h-13.609v-1.931c0-3.787-3.081-6.867-6.867-6.867h-.567c-3.786 0-6.867 3.081-6.867 6.867v1.931h-35.246v-1.931c0-3.787-3.081-6.867-6.867-6.867h-.566c-3.787 0-6.868 3.081-6.868 6.867v1.931h-13.61c-4.787 0-8.682 3.895-8.682 8.682v12.586 2.956 54.762c0 4.787 3.895 8.682 8.682 8.682h91.067c4.788 0 8.683-3.895 8.683-8.682v-54.761-2.956-12.587c0-4.787-3.895-8.682-8.683-8.682zm-25.91-1.931c0-2.684 2.184-4.867 4.867-4.867h.566c2.684 0 4.867 2.184 4.867 4.867v11.284c0 2.684-2.184 4.868-4.867 4.868h-.566c-2.684 0-4.867-2.184-4.867-4.868zm-49.547 0c0-2.684 2.184-4.867 4.868-4.867h.566c2.684 0 4.867 2.184 4.867 4.867v11.284c0 2.684-2.184 4.868-4.867 4.868h-.566c-2.684 0-4.868-2.184-4.868-4.868zm82.14 25.156h-24.291c-.553 0-1 .448-1 1s.447 1 1 1h24.291v53.762c0 3.685-2.998 6.682-6.683 6.682h-91.067c-3.684 0-6.682-2.998-6.682-6.682v-53.762h60.642c.553 0 1-.448 1-1s-.447-1-1-1h-60.642v-1.956-12.587c0-3.685 2.998-6.682 6.682-6.682h13.61v7.353c0 3.787 3.081 6.868 6.868 6.868h.566c3.787 0 6.867-3.081 6.867-6.868v-7.353h35.246v7.353c0 3.787 3.081 6.868 6.867 6.868h.566c3.786 0 6.867-3.081 6.867-6.868v-7.353h13.609c3.685 0 6.683 2.998 6.683 6.682v12.586 1.957z" fill="#3a2c60"/><path d="m84.463 45.79h-8.044c-.553 0-1 .448-1 1s.447 1 1 1h8.044c.553 0 1-.448 1-1s-.448-1-1-1z" fill="#3a2c60"/><path d="m62 85.251c-2.896 0-5.567-.94-7.746-2.518-.41.552-.468 1.352.05 1.964l4.511 5.328c.242.285.374.647.374 1.021v5.066c0 .873.707 1.58 1.58 1.58h2.464c.873 0 1.58-.707 1.58-1.58v-5.066c0-.374.133-.735.374-1.021l4.511-5.328c.518-.612.459-1.412.05-1.964-2.181 1.578-4.852 2.518-7.748 2.518z" fill="#fa759e"/><ellipse cx="62" cy="72.009" fill="#6dc9f7" rx="13.242" ry="13.243" transform="matrix(.998 -.071 .071 .998 -4.949 4.576)"/><path d="m67.022 68.589c-.967 0-1.751.784-1.751 1.751s.784 1.75 1.751 1.75 1.751-.784 1.751-1.75c-.001-.967-.784-1.751-1.751-1.751z" fill="#fff"/><path d="m67.896 63.125c-.967 0-1.751.784-1.751 1.75 0 .967.784 1.751 1.751 1.751s1.751-.784 1.751-1.751c-.001-.966-.784-1.75-1.751-1.75z" fill="#fff"/><path d="m71.795 66.711c-.967 0-1.751.784-1.751 1.751s.784 1.75 1.751 1.75 1.751-.784 1.751-1.75c-.001-.968-.785-1.751-1.751-1.751z" fill="#fff"/><g fill="#fa759e"><path d="m76.933 55.45c-.868-.903-3.275-.869-3.275-.869s-.17 2.362.698 3.266c.868.903 2.148 1.099 2.86.437s.585-1.93-.283-2.834z"/><path d="m77.874 100.557s-.27-.389-.67-.796-.925-.835-1.428-.915c-.252-.04-.496-.042-.724-.009-.229.029-.452.075-.645.16-.386.166-.673.455-.784.833-.108.382-.028.761.222 1.098.251.338.656.59 1.182.695.262.052.576.017.9-.065.161-.041.325-.093.486-.152.156-.067.307-.143.45-.219.575-.307 1.011-.63 1.011-.63z"/><path d="m74.159 94.925s.256.398.482.911.416 1.143.278 1.612c-.068.234-.174.448-.305.632-.132.181-.301.316-.475.423-.352.21-.752.27-1.101.125-.705-.303-.929-1.29-.647-2.178.072-.221.22-.422.402-.597.091-.088.191-.169.294-.244.099-.083.199-.162.299-.232.398-.284.773-.452.773-.452z"/><path d="m82.368 96.968s-.347-.325-.824-.64-1.079-.624-1.585-.596c-.498.038-.972.177-1.31.425-.342.243-.55.597-.586.98-.036.38.131.746.445 1.019.311.27.785.464 1.312.446.529-.014 1.197-.397 1.702-.803.492-.422.846-.831.846-.831z"/><path d="m77.538 92.224s.335.337.665.792c.33.456.652 1.035.62 1.525-.022.499-.248.904-.543 1.187-.299.279-.667.433-1.047.353-.382-.082-.682-.354-.871-.716-.192-.366-.261-.804-.224-1.277.04-.47.408-.908.748-1.255.325-.363.652-.609.652-.609z"/><path d="m86.003 92.537s-.408-.246-.94-.456c-.532-.209-1.185-.386-1.67-.253-.494.129-.924.366-1.196.681-.138.157-.241.331-.301.515-.061.184-.096.365-.07.558.093.761.971 1.298 2.041 1.082.515-.122 1.069-.647 1.489-1.14.209-.247.357-.504.473-.685.11-.183.174-.302.174-.302z"/><path d="m80.272 88.89s.399.26.82.639c.421.378.86.88.936 1.368.07.482-.061.928-.284 1.269-.113.169-.253.31-.412.409s-.352.144-.544.146c-.779 0-1.397-.813-1.482-1.715-.06-.468.189-.984.459-1.386.134-.202.246-.393.345-.521.096-.131.162-.209.162-.209z"/><path d="m88.618 87.451s-.452-.156-1.015-.25c-.282-.047-.591-.079-.885-.071-.295.008-.568.059-.806.168-.938.445-1.394 1.318-1.161 2.038.259.729 1.226 1.07 2.225.636.256-.105.479-.32.679-.578.202-.258.382-.559.532-.845.075-.143.142-.282.2-.41.056-.129.093-.252.129-.353.066-.205.102-.335.102-.335z"/><path d="m82.236 85.074s.446.172.94.455c.247.142.505.312.725.506.219.193.405.411.479.636.315.902-.045 1.89-.825 2.037-.755.164-1.539-.507-1.816-1.373-.062-.214-.072-.466-.041-.719.032-.252.107-.504.192-.729.043-.113.088-.219.133-.314.039-.098.075-.186.105-.261.061-.148.108-.238.108-.238z"/><path d="m90.091 81.936s-.475-.059-1.044-.033c-.568.026-1.252.127-1.653.443-.403.317-.67.712-.779 1.112-.139.392-.119.792.089 1.124.417.661 1.433.793 2.305.158.214-.159.413-.409.557-.703.137-.295.244-.628.324-.94s.134-.602.167-.813c.018-.106.028-.192.029-.253.003-.062.005-.095.005-.095z"/><path d="m83.343 80.938s.473.075 1.018.25c.547.175 1.141.451 1.401.862.258.41.352.874.299 1.277-.084.396-.312.728-.66.887-.695.319-1.608-.175-2.076-.966-.12-.199-.157-.437-.178-.689-.027-.254-.014-.517.017-.756s.078-.454.119-.61c.022-.078.038-.141.045-.186.009-.044.015-.069.015-.069z"/><path d="m90.351 76.248s-.478.039-1.035.181-1.195.38-1.517.771c-.161.196-.283.404-.368.615-.088.211-.157.424-.177.631-.044.413.07.8.35 1.081.56.56 1.577.478 2.278-.322.175-.199.299-.485.386-.801.044-.158.078-.324.105-.49.019-.166.026-.333.03-.493.016-.641-.052-1.173-.052-1.173z"/><path d="m83.539 76.652s.478-.023 1.042.037 1.214.208 1.559.557c.172.174.308.37.406.572.094.203.13.413.138.615.011.405-.132.778-.433 1.005-.601.457-1.603.163-2.245-.516-.16-.171-.264-.397-.329-.64-.032-.122-.055-.248-.071-.373-.023-.126-.043-.251-.055-.372-.05-.48-.012-.885-.012-.885z"/><path d="m89.388 70.628s-.458.137-.969.39c-.514.254-1.065.613-1.311 1.065-.24.452-.317.92-.259 1.33.039.414.227.77.558.988.66.434 1.64.147 2.165-.782.13-.231.198-.538.215-.865.004-.325-.035-.672-.09-.989-.058-.316-.117-.606-.192-.808-.068-.204-.117-.329-.117-.329z"/><path d="m82.814 72.431s.463-.121 1.031-.181c.564-.059 1.254-.054 1.651.22.402.271.683.657.794 1.048.092.395.025.789-.224 1.074-.498.57-1.537.487-2.3-.046-.192-.134-.334-.335-.451-.558-.129-.221-.224-.467-.294-.698-.073-.23-.106-.449-.151-.603-.039-.157-.056-.256-.056-.256z"/><path d="m87.249 65.327s-.419.229-.866.584c-.448.355-.927.83-1.052 1.314-.114.481-.12.968.025 1.357.07.196.174.369.307.512.123.146.277.262.458.335.726.292 1.627-.194 1.959-1.219.149-.503-.04-1.24-.279-1.838-.261-.589-.552-1.045-.552-1.045z"/><path d="m81.211 68.455s.426-.215.966-.389c.54-.175 1.196-.304 1.661-.128.475.17.801.503.993.862.094.181.149.369.158.554-.001.189-.045.372-.14.538-.376.665-1.406.798-2.247.429-.439-.18-.769-.648-1-1.072-.253-.413-.391-.794-.391-.794z"/><path d="m84.025 60.595s-.36.31-.72.748-.718.992-.751 1.502c-.031.51.103.961.319 1.317.211.36.533.607.927.671.782.129 1.557-.533 1.643-1.59.022-.263-.049-.567-.167-.874-.127-.301-.313-.597-.495-.864-.186-.264-.362-.502-.511-.658-.147-.158-.245-.252-.245-.252z"/><path d="m78.787 64.898s.371-.298.864-.582c.492-.284 1.117-.554 1.595-.466.478.085.904.317 1.16.634.251.321.357.707.25 1.066-.216.722-1.195 1.066-2.117.891-.231-.045-.449-.167-.646-.325-.206-.153-.4-.335-.56-.518-.164-.18-.287-.365-.39-.49-.099-.126-.156-.21-.156-.21z"/><path d="m79.872 56.629s-.287.378-.548.882-.502 1.13-.415 1.623c.095.485.295.929.587 1.227.145.15.312.267.493.343.174.083.362.127.558.12.784-.027 1.402-.834 1.279-1.902-.075-.516-.549-1.116-1.018-1.562-.483-.432-.936-.731-.936-.731z"/><path d="m75.661 61.913s.3-.367.72-.744.965-.759 1.462-.784c.503-.034.942.134 1.265.386.161.127.29.277.375.442.079.171.114.357.098.547-.066.759-.949 1.296-1.871 1.298-.478.015-.97-.284-1.361-.576-.403-.276-.688-.569-.688-.569z"/><path d="m50.341 54.581s-2.407-.034-3.275.869-.995 2.172-.283 2.834 1.992.466 2.86-.437c.867-.903.698-3.266.698-3.266z"/><path d="m46.126 100.557s.27-.389.67-.796.925-.835 1.428-.915c.252-.04.496-.042.724-.009.229.029.452.075.645.16.386.166.673.455.784.833.108.382.028.761-.222 1.098-.251.338-.656.59-1.182.695-.262.052-.576.017-.9-.065-.161-.041-.325-.093-.486-.152-.156-.067-.307-.143-.45-.219-.575-.307-1.011-.63-1.011-.63z"/><path d="m49.841 94.925s-.256.398-.482.911-.416 1.143-.278 1.612c.068.234.174.448.305.632.132.181.301.316.475.423.352.21.752.27 1.101.125.705-.303.929-1.29.647-2.178-.072-.221-.22-.422-.402-.597-.091-.088-.191-.169-.294-.244-.099-.083-.199-.162-.299-.232-.398-.284-.773-.452-.773-.452z"/><path d="m41.632 96.968s.347-.325.824-.64 1.079-.624 1.585-.596c.498.038.972.177 1.31.425.342.243.55.597.586.98.036.38-.131.746-.445 1.019-.311.27-.785.464-1.312.446-.529-.014-1.197-.397-1.702-.803-.492-.422-.846-.831-.846-.831z"/><path d="m46.461 92.224s-.335.337-.665.792c-.33.456-.652 1.035-.62 1.525.022.499.248.904.543 1.187.299.279.667.433 1.047.353.382-.082.682-.354.871-.716.192-.366.261-.804.224-1.277-.04-.47-.408-.908-.748-1.255-.325-.363-.652-.609-.652-.609z"/><path d="m37.997 92.537s.408-.246.94-.456c.532-.209 1.185-.386 1.67-.253.494.129.924.366 1.196.681.138.157.241.331.301.515.061.184.096.365.07.558-.093.761-.971 1.298-2.041 1.082-.515-.122-1.069-.647-1.489-1.14-.209-.247-.357-.504-.473-.685-.11-.183-.174-.302-.174-.302z"/><path d="m43.727 88.89s-.399.26-.82.639c-.421.378-.86.88-.936 1.368-.07.482.061.928.284 1.269.113.169.253.31.412.409s.352.144.544.146c.779 0 1.397-.813 1.482-1.715.06-.468-.189-.984-.459-1.386-.134-.202-.246-.393-.345-.521-.096-.131-.162-.209-.162-.209z"/><path d="m35.382 87.451s.452-.156 1.015-.25c.282-.047.591-.079.885-.071.295.008.568.059.806.168.938.445 1.394 1.318 1.161 2.038-.259.729-1.226 1.07-2.225.636-.256-.105-.479-.32-.679-.578-.202-.258-.382-.559-.532-.845-.075-.143-.142-.282-.2-.41-.056-.129-.093-.252-.129-.353-.067-.205-.102-.335-.102-.335z"/><path d="m41.764 85.074s-.446.172-.94.455c-.247.142-.505.312-.725.506-.219.193-.405.411-.479.636-.315.902.045 1.89.825 2.037.755.164 1.539-.507 1.816-1.373.062-.214.072-.466.041-.719-.032-.252-.107-.504-.192-.729-.043-.113-.088-.219-.133-.314-.039-.098-.075-.186-.105-.261-.062-.148-.108-.238-.108-.238z"/><path d="m33.908 81.936s.475-.059 1.044-.033c.568.026 1.252.127 1.653.443.403.317.67.712.779 1.112.139.392.119.792-.089 1.124-.417.661-1.433.793-2.305.158-.214-.159-.413-.409-.557-.703-.137-.295-.244-.628-.324-.94s-.134-.602-.167-.813c-.018-.106-.028-.192-.029-.253-.003-.062-.005-.095-.005-.095z"/><path d="m40.657 80.938s-.473.075-1.018.25c-.547.175-1.141.451-1.401.862-.258.41-.352.874-.299 1.277.084.396.312.728.66.887.695.319 1.608-.175 2.076-.966.12-.199.157-.437.178-.689.027-.254.014-.517-.017-.756s-.078-.454-.119-.61c-.022-.078-.038-.141-.045-.186-.01-.044-.015-.069-.015-.069z"/><path d="m33.649 76.248s.478.039 1.035.181 1.195.38 1.517.771c.161.196.283.404.368.615.088.211.157.424.177.631.044.413-.07.8-.35 1.081-.56.56-1.577.478-2.278-.322-.175-.199-.299-.485-.386-.801-.044-.158-.078-.324-.105-.49-.019-.166-.026-.333-.03-.493-.017-.641.052-1.173.052-1.173z"/><path d="m40.461 76.652s-.478-.023-1.042.037-1.214.208-1.559.557c-.172.174-.308.37-.406.572-.094.203-.13.413-.138.615-.011.405.132.778.433 1.005.601.457 1.603.163 2.245-.516.16-.171.264-.397.329-.64.032-.122.055-.248.071-.373.023-.126.043-.251.055-.372.05-.48.012-.885.012-.885z"/><path d="m34.612 70.628s.458.137.969.39c.514.254 1.065.613 1.311 1.065.24.452.317.92.259 1.33-.039.414-.227.77-.558.988-.66.434-1.64.147-2.165-.782-.13-.231-.198-.538-.215-.865-.004-.325.035-.672.09-.989.058-.316.117-.606.192-.808.067-.204.117-.329.117-.329z"/><path d="m41.185 72.431s-.463-.121-1.031-.181c-.564-.059-1.254-.054-1.651.22-.402.271-.683.657-.794 1.048-.092.395-.025.789.224 1.074.498.57 1.537.487 2.3-.046.192-.134.334-.335.451-.558.129-.221.224-.467.294-.698.073-.23.106-.449.151-.603.04-.157.056-.256.056-.256z"/><path d="m36.75 65.327s.419.229.866.584c.448.355.927.83 1.052 1.314.114.481.12.968-.025 1.357-.07.196-.174.369-.307.512-.123.146-.277.262-.458.335-.726.292-1.627-.194-1.959-1.219-.149-.503.04-1.24.279-1.838.262-.589.552-1.045.552-1.045z"/><path d="m42.789 68.455s-.426-.215-.966-.389c-.54-.175-1.196-.304-1.661-.128-.475.17-.801.503-.993.862-.094.181-.149.369-.158.554.001.189.045.372.14.538.376.665 1.406.798 2.247.429.439-.18.769-.648 1-1.072.252-.413.391-.794.391-.794z"/><path d="m39.974 60.595s.36.31.72.748.718.992.751 1.502c.031.51-.103.961-.319 1.317-.211.36-.533.607-.927.671-.782.129-1.557-.533-1.643-1.59-.022-.263.049-.567.167-.874.127-.301.313-.597.495-.864.186-.264.362-.502.511-.658.148-.158.245-.252.245-.252z"/><path d="m45.213 64.898s-.371-.298-.864-.582c-.492-.284-1.117-.554-1.595-.466-.478.085-.904.317-1.16.634-.251.321-.357.707-.25 1.066.216.722 1.195 1.066 2.117.891.231-.045.449-.167.646-.325.206-.153.4-.335.56-.518.164-.18.287-.365.39-.49.099-.126.156-.21.156-.21z"/><path d="m44.128 56.629s.287.378.548.882.502 1.13.415 1.623c-.095.485-.295.929-.587 1.227-.145.15-.312.267-.493.343-.174.083-.362.127-.558.12-.784-.027-1.402-.834-1.279-1.902.075-.516.549-1.116 1.018-1.562.482-.432.936-.731.936-.731z"/><path d="m48.338 61.913s-.3-.367-.72-.744-.965-.759-1.462-.784c-.503-.034-.942.134-1.265.386-.161.127-.29.277-.375.442-.079.171-.114.357-.098.547.066.759.949 1.296 1.871 1.298.478.015.97-.284 1.361-.576.403-.276.688-.569.688-.569z"/></g></svg>