<svg id="Layer_1" enable-background="new 0 0 128 128" height="512" viewBox="0 0 128 128" width="512" xmlns="http://www.w3.org/2000/svg"><path d="m106.988 89.792h-7.584c1.78-.987 3.229-2.52 4.093-4.433 1.324-2.933 1.096-6.312-.611-9.038-1.566-2.506-4.149-4.128-7.087-4.452-2.938-.322-5.812.701-7.886 2.802l-2.479 2.515c-.039-1.551-.583-3.055-1.588-4.289-1.353-1.66-3.353-2.609-5.493-2.609-.017 0-.033 0-.05 0-1.047.007-2.056.245-2.973.678v-9.201c0-.553-.448-1-1-1h-9.85v-38.31c0-.553-.448-1-1-1h-4.15c-.552 0-1 .447-1 1 0 1.043-.849 1.892-1.892 1.892s-1.892-.849-1.892-1.892c0-.553-.448-1-1-1h-3.141c-.552 0-1 .447-1 1 0 1.043-.849 1.892-1.892 1.892s-1.892-.849-1.892-1.892c0-.553-.448-1-1-1h-3.141c-.552 0-1 .447-1 1 0 1.043-.849 1.892-1.892 1.892s-1.888-.849-1.888-1.892c0-.553-.448-1-1-1h-4.15c-.552 0-1 .447-1 1v38.31h-9.85c-.552 0-1 .447-1 1v42.22c0 3.53 2.767 6.407 6.219 6.543.122.016.229.018.351.018h42.5c.067 0 .126-.001.176-.003h38.042c2.929 0 5.312-2.383 5.312-5.312v-10.127c0-2.929-2.383-5.312-5.312-5.312zm-28.646-13.951c.006.002.009 0 .013 0 .462 0 .895.205 1.187.563.295.363.408.833.311 1.29l-.904 4.229c-.177-.031-.357-.055-.543-.055-.007 0-.014 0-.021 0-.193.001-.379.027-.563.061l-.963-4.213c-.104-.455.002-.927.292-1.293.29-.367.725-.579 1.191-.582zm5.996 10.367 7.53-7.639c1.17-1.188 2.885-1.528 4.474-.89.542.218 1.037.575 1.43 1.034 1.057 1.23 1.319 2.83.702 4.277-.539 1.264-1.804 2.203-3.3 2.45l-3.125.516c-2.559.422-5.144.506-7.711.252z" fill="#e6e7e8"/><path d="m59.481 57.765v-39.31h-4.15c0 1.597-1.295 2.892-2.892 2.892s-2.892-1.295-2.892-2.892h-3.141c0 1.597-1.295 2.892-2.892 2.892s-2.892-1.295-2.892-2.892h-3.141c0 1.597-1.295 2.892-2.892 2.892s-2.889-1.295-2.889-2.892h-4.15v39.31z" fill="#fa759e"/><g fill="#fff"><path d="m44.765 52.817c0-.69-.56-1.25-1.25-1.25s-1.25.56-1.25 1.25.56 1.25 1.25 1.25c.691 0 1.25-.56 1.25-1.25z"/><path d="m38.993 52.817c0-.69-.56-1.25-1.25-1.25s-1.25.56-1.25 1.25.56 1.25 1.25 1.25c.691 0 1.25-.56 1.25-1.25z"/><path d="m33.221 52.817c0-.69-.56-1.25-1.25-1.25s-1.25.56-1.25 1.25.56 1.25 1.25 1.25 1.25-.56 1.25-1.25z"/><path d="m50.537 52.817c0-.69-.56-1.25-1.25-1.25s-1.25.56-1.25 1.25.56 1.25 1.25 1.25c.691 0 1.25-.56 1.25-1.25z"/><path d="m55.06 51.567c-.69 0-1.25.56-1.25 1.25s.56 1.25 1.25 1.25 1.25-.56 1.25-1.25-.56-1.25-1.25-1.25z"/></g><path d="m54.67 23.393h-22.31c-.86 0-1.557.697-1.557 1.557v20.684c0 .86.697 1.557 1.557 1.557h22.31c.86 0 1.557-.697 1.557-1.557v-20.685c0-.859-.697-1.556-1.557-1.556z" fill="#ffd7e5"/><path d="m45.773 86.795h9.392c-2.555-.795-4.683-2.613-5.839-5.078-1.366-2.913-1.186-6.296.482-9.048 1.531-2.527 4.091-4.186 7.022-4.551 2.924-.367 5.817.612 7.925 2.689l2.515 2.48c.016-1.551.539-3.063 1.527-4.311.442-.559.963-1.032 1.533-1.427v-9.785h-53.63v42.22c0 2.99 2.37 5.43 5.34 5.55.08.01.15.01.23.01h23.503c-2.38 0-4.31-1.93-4.31-4.31v-10.13c0-2.379 1.93-4.309 4.31-4.309z" fill="#0089ef"/><path d="m68.495 82.292-7.638-7.531c-.77-.758-1.793-1.129-2.859-1.164-.161.001-.319.011-.479.031-1.725.215-3.054 1.43-3.473 3.171-.137.571-.131 1.178.018 1.753.436 1.686 1.689 2.842 3.351 3.091l3.368.507c2.562.385 5.147.432 7.712.142z" fill="#0089ef"/><path d="m41.463 101.235v-10.13c0-2.38 1.93-4.31 4.31-4.31h3.087v-29.03h-10.68v47.78h7.593c-2.38 0-4.31-1.93-4.31-4.31z" fill="#6dc9f7"/><path d="m57.414 81.643 3.368.507c1.401.211 2.81.311 4.218.319v-3.623l-4.143-4.085c-.77-.758-1.793-1.129-2.859-1.164-.161.001-.319.011-.479.031-1.458.182-2.627 1.083-3.209 2.408v3.214c.569 1.301 1.685 2.18 3.104 2.393z" fill="#6dc9f7"/><path d="m56.83 68.118c2.924-.367 5.817.612 7.925 2.689l.245.242v-13.284h-10.69v11.035c.797-.332 1.639-.572 2.52-.682z" fill="#6dc9f7"/><path d="m32.72 57.765v47.78h-10.45c-.08 0-.15 0-.23-.01v-47.77z" fill="#6dc9f7"/><path d="m79.071 69.529c-1.172-1.438-2.907-2.254-4.761-2.241s-3.578.855-4.729 2.308c-1.151 1.455-1.574 3.325-1.16 5.133l.324 1.416 3.796 3.743c.15-.232.343-.433.567-.595l-1.224-5.355c-.172-.753.004-1.532.483-2.137s1.197-.956 1.968-.961c.772-.006 1.494.334 1.982.933.487.599.675 1.375.513 2.13l-1.148 5.372c.226.159.422.356.576.587l3.743-3.796.303-1.42c.388-1.814-.061-3.678-1.233-5.117z" fill="#fa759e"/><path d="m98.038 72.852c-1.403-2.244-3.717-3.698-6.348-3.988-2.628-.287-5.205.625-7.065 2.51l-8.368 8.488c.233.349.372.766.375 1.216l.012 5.196 3.123.521h6.919l5.462-.902c2.844-.469 5.25-2.318 6.436-4.945 1.188-2.626.983-5.654-.546-8.096zm-2.645 6.532c-.703 1.648-2.29 2.752-4.058 3.044l-3.125.516c-3.309.546-6.685.543-9.993-.009l8.939-9.067c1.423-1.443 3.561-1.918 5.558-1.116.699.281 1.326.739 1.817 1.31 1.323 1.542 1.624 3.534.862 5.322z" fill="#fa759e"/><path d="m72.183 81.11c-.003-.451.13-.869.358-1.221l-8.488-8.368c-1.886-1.859-4.473-2.738-7.1-2.409-2.626.327-4.919 1.814-6.29 4.077-1.494 2.465-1.655 5.495-.432 8.104 1.223 2.61 3.655 4.424 6.506 4.853l4.319.65h8.49l2.649-.481zm-11.549 2.029-3.368-.507c-2.034-.306-3.628-1.736-4.17-3.83-.188-.729-.198-1.504-.022-2.236.524-2.18 2.244-3.671 4.319-3.93.2-.025.4-.038.598-.039 1.331-.009 2.606.504 3.569 1.453l9.067 8.939c-3.301.598-6.677.649-9.993.15z" fill="#fa759e"/><path d="m76.633 81.078c-.009-1.229-1.012-2.218-2.241-2.209s-2.218 1.012-2.209 2.241l.013 5.684h4.45z" fill="#fa759e"/><path d="m107.303 91.105v10.13c0 2.38-1.93 4.31-4.32 4.31h-57.21c-2.38 0-4.31-1.93-4.31-4.31v-10.13c0-2.38 1.93-4.31 4.31-4.31h57.21c2.39 0 4.32 1.93 4.32 4.31z" fill="#fff"/><path d="m107.303 94.105v7.13c0 2.38-1.93 4.31-4.32 4.31h-57.21c-2.38 0-4.31-1.93-4.31-4.31v-7.13c0-2.38 1.93-4.31 4.31-4.31h57.21c2.39 0 4.32 1.93 4.32 4.31z" fill="#6dc9f7"/><path d="m52.604 34.67-.916-.365c-.283-.113-.576-.2-.873-.274l1.774-3.599-.231.005c-.214.005-.415.104-.549.271l-2.503 3.116c-.121-.003-.242-.013-.363-.01l-4.946.106-.039-1.838 1.99-4.384c.076-.167-.031-.369-.193-.365l-.185.004c-.507.011-.985.268-1.321.709l-4.538 5.967-2.642.057c-.946.02-1.846.376-2.5.989l-.456.427c-.028.026-.028.068.001.094l.424.375c.682.604 1.612.933 2.576.912l2.603-.056 4.808 5.788c.354.426.843.662 1.35.652l.185-.004c.162-.003.26-.21.177-.373l-2.177-4.295-.04-1.86 4.926-.106c.143-.003.284-.018.426-.03l-.057.022 2.685 3.062c.141.161.346.251.56.247l.231-.005-1.97-3.596c.268-.08.533-.171.788-.283l1.007-.442c.435-.191.427-.743-.012-.918z" fill="#3a2c60"/><path d="m87.062 104.542h-6.469c-.552 0-1 .447-1 1s.448 1 1 1h6.469c.552 0 1-.447 1-1s-.447-1-1-1z" fill="#3a2c60"/><path d="m102.988 85.792h-7.617c1.794-.982 3.259-2.51 4.127-4.433 1.324-2.933 1.096-6.312-.611-9.038-1.566-2.505-4.149-4.127-7.086-4.451-2.939-.322-5.812.699-7.885 2.802l-2.48 2.516c-.037-1.551-.582-3.055-1.588-4.29-1.363-1.673-3.365-2.627-5.543-2.609-1.047.008-2.056.246-2.973.679v-9.202c0-.553-.448-1-1-1h-9.85v-38.31c0-.553-.448-1-1-1h-4.15c-.552 0-1 .447-1 1 0 1.043-.849 1.892-1.892 1.892s-1.892-.849-1.892-1.892c0-.553-.448-1-1-1h-3.141c-.552 0-1 .447-1 1 0 1.043-.849 1.892-1.892 1.892s-1.892-.849-1.892-1.892c0-.553-.448-1-1-1h-3.141c-.552 0-1 .447-1 1 0 1.043-.849 1.892-1.892 1.892s-1.89-.85-1.89-1.893c0-.553-.448-1-1-1h-4.15c-.552 0-1 .447-1 1v38.31h-9.85c-.552 0-1 .447-1 1v42.221c0 3.529 2.767 6.406 6.219 6.542.122.016.229.018.351.018h42.5c.067 0 .126-.001.176-.003h12.021c.552 0 1-.447 1-1s-.448-1-1-1h-31.189c-1.826 0-3.312-1.485-3.312-3.312v-10.128c0-1.826 1.486-3.312 3.312-3.312h57.21c1.826 0 3.312 1.485 3.312 3.312v10.127c0 1.826-1.485 3.312-3.312 3.312h-12.395c-.552 0-1 .447-1 1s.448 1 1 1h12.396c2.929 0 5.312-2.383 5.312-5.312v-10.127c-.001-2.928-2.384-5.311-5.313-5.311zm-17.65-13.716c1.642-1.665 3.918-2.474 6.243-2.218s4.369 1.54 5.609 3.523c1.351 2.158 1.532 4.833.483 7.155-1.048 2.321-3.174 3.955-5.688 4.37l-5.364.885h-6.789l-2.191-.365-.004-1.686c.122.088.26.154.413.18 1.721.287 3.454.431 5.188.431 1.715 0 3.43-.141 5.133-.422l3.126-.516c2.165-.357 4.009-1.751 4.814-3.638.923-2.164.541-4.544-1.023-6.365-.602-.702-1.364-1.251-2.204-1.587-2.35-.943-4.895-.431-6.643 1.341l-8.806 8.936-.002-1.029c-.002-.346-.073-.678-.179-.998zm-24.226 13.716-4.226-.636c-2.519-.379-4.668-1.982-5.75-4.289-1.081-2.306-.938-4.983.382-7.161 1.212-2.001 3.238-3.314 5.56-3.604 2.318-.293 4.605.485 6.272 2.129l7.998 7.885c-.102.319-.168.651-.165.995l.002 1.024-8.925-8.8c-1.14-1.123-2.642-1.739-4.23-1.739-.243-.002-.508.015-.761.047-2.531.315-4.56 2.155-5.168 4.688-.213.889-.205 1.829.026 2.72.634 2.451 2.546 4.202 4.99 4.569l3.368.507c1.56.234 3.127.352 4.694.352 1.882 0 3.763-.169 5.626-.507.143-.026.27-.09.385-.169l.004 1.676-1.721.313zm11.747-12.076c-.104-.455.002-.927.292-1.293.29-.367.724-.579 1.19-.582.006.002.009 0 .013 0 .462 0 .895.205 1.187.564.295.362.409.832.311 1.289l-.903 4.227c-.177-.03-.357-.052-.541-.052-.008 0-.016 0-.024 0-.191.001-.379.025-.563.059zm.335 12.076-.011-4.689c-.005-.676.541-1.229 1.216-1.233h.009c.324 0 .629.125.86.353.233.229.363.536.365.858l.011 4.712h-2.45zm-4.699-3.5c-2.565.29-5.151.243-7.713-.143l-3.368-.507c-1.662-.249-2.915-1.405-3.351-3.091-.149-.575-.155-1.182-.018-1.753.419-1.741 1.749-2.956 3.473-3.171.16-.021.318-.03.479-.031 1.066.035 2.089.406 2.859 1.164zm11.843-.084 7.53-7.639c1.171-1.188 2.885-1.526 4.474-.89.542.218 1.037.575 1.43 1.034 1.057 1.23 1.319 2.83.701 4.277-.539 1.264-1.804 2.203-3.3 2.45l-3.125.516c-2.557.422-5.142.507-7.71.252zm-6.021-13.92h.036c1.537 0 2.972.682 3.943 1.873.979 1.201 1.355 2.76 1.031 4.275l-.243 1.135-2.026 2.055.751-3.514c.225-1.054-.037-2.136-.716-2.971-.68-.835-1.696-1.323-2.764-1.301-1.076.007-2.077.495-2.747 1.341-.667.845-.913 1.931-.673 2.979l.801 3.504-2.056-2.027-.259-1.131c-.345-1.511.008-3.074.97-4.289.962-1.214 2.403-1.917 3.952-1.929zm-3.967-.752c-.054.037-.107.076-.16.115.053-.039.106-.078.16-.115zm-41.8-48.081h2.281c.442 1.663 1.961 2.892 3.761 2.892s3.319-1.229 3.761-2.892h1.401c.442 1.663 1.961 2.892 3.761 2.892s3.319-1.229 3.761-2.892h1.401c.442 1.663 1.961 2.892 3.761 2.892s3.319-1.229 3.761-2.892h2.28v37.31h-29.929zm11.916 71.648v10.127c0 1.26.459 2.403 1.195 3.314h-19.391c-.038.001-.07.003-.189-.009-2.457-.1-4.38-2.099-4.38-4.551v-41.219h51.63v9.611c-.187.189-.365.39-.533.601-.988 1.248-1.512 2.76-1.527 4.311l-2.516-2.48c-2.107-2.077-5-3.057-7.925-2.689-2.931.365-5.491 2.023-7.022 4.551-1.668 2.752-1.848 6.135-.482 9.048.806 1.719 2.092 3.113 3.658 4.075h-7.206c-2.929-.001-5.312 2.382-5.312 5.31z" fill="#3a2c60"/></svg>