<svg id="Layer_1" enable-background="new 0 0 128 128" height="512" viewBox="0 0 128 128" width="512" xmlns="http://www.w3.org/2000/svg"><path d="m119.617 11.383h-107.234c-.053 0-.098.022-.148.03-.075.011-.15.016-.221.045-.077.031-.139.081-.205.129-.038.027-.081.04-.116.073-.003.003-.004.007-.007.01-.066.064-.111.145-.158.226-.019.033-.049.06-.064.095s-.014.076-.025.112c-.026.089-.053.177-.054.269 0 .004-.002.008-.002.012v98.553 8.681c0 .552.447 1 1 1h.036 107.162.036c.553 0 1-.448 1-1v-107.217-.018c0-.552-.447-1-1-1z" fill="#e6e7e8"/><path d="m8.383 8.383h107.234v107.234h-107.234z" fill="#6dc9f7"/><path d="m94.538 50.969c0-.626.508-1.134 1.134-1.134h5.065 1.893c.626 0 1.134.508 1.134 1.134v3.069 6.136c.777-.368 1.658-.579 2.595-.579 3.105 0 5.622 2.284 5.622 5.102s-2.517 5.102-5.622 5.102-5.622-2.284-5.622-5.102v-10.66h-5.065c-.626 0-1.134-.508-1.134-1.134z" fill="#fa759e"/><path d="m29.664 40.987c0-.626-.508-1.134-1.134-1.134h-5.065-1.893c-.626 0-1.134.508-1.134 1.134v3.069 6.136c-.777-.368-1.658-.579-2.595-.579-3.105 0-5.622 2.284-5.622 5.102s2.517 5.102 5.622 5.102 5.622-2.284 5.622-5.102v-10.66h5.065c.626 0 1.134-.508 1.134-1.134z" fill="#fa759e"/><path d="m15.221 54.715c0-2.344 1.744-4.314 4.116-4.912-.477-.12-.976-.191-1.494-.191-3.105 0-5.622 2.284-5.622 5.102s2.517 5.102 5.622 5.102c.52 0 1.022-.069 1.5-.189-2.376-.595-4.122-2.566-4.122-4.912z" fill="#fff"/><path d="m8.383 8.383h107.234v15.83h-107.234z" fill="#ffd7e5"/><path d="m31.325 106.936h12.705v8.681h-12.705z" fill="#fa759e"/><path d="m79.97 106.936h12.705v8.681h-12.705z" fill="#fa759e"/><path d="m64.309 31.781v-5.259c0-1.275-1.034-2.309-2.309-2.309s-2.309 1.034-2.309 2.309v5.259h-2.488v4.696h9.595v-4.696z" fill="#ffd7e5"/><path d="m16.044 28.608-3.719-3.719c-.902-.902-2.364-.902-3.266 0s-.902 2.364 0 3.266l3.719 3.719-1.759 1.759 3.32 3.32 6.785-6.785-3.32-3.32z" fill="#ffd7e5"/><path d="m107.956 28.608 3.719-3.719c.902-.902 2.364-.902 3.266 0s.902 2.364 0 3.266l-3.719 3.719 1.759 1.759-3.32 3.32-6.785-6.785 3.32-3.32z" fill="#ffd7e5"/><path d="m47.457 58.016-10.587-5.264c-.645-.321-1.428-.058-1.748.587-.321.645-.058 1.428.587 1.748l10.587 5.264c.645.321 1.428.058 1.748-.587.321-.645.058-1.428-.587-1.748z" fill="#0089ef"/><path d="m47.484 53.035-10.686-5.061c-.651-.308-1.429-.031-1.737.62s-.031 1.429.62 1.737l10.686 5.061c.651.308 1.429.031 1.737-.62s.031-1.429-.62-1.737z" fill="#0089ef"/><path d="m55.229 75.47v-6.162c-.146.039-.297.067-.456.067h-17.606c-.159 0-.31-.028-.456-.067v8.807c.146-.039.297-.067.456-.067h14.054c1.197-1.043 2.544-1.914 4.008-2.578z" fill="#d4fbff"/><path d="m54.773 65.854h-17.606c-.972 0-1.761.788-1.761 1.761s.788 1.761 1.761 1.761h17.606c.972 0 1.761-.788 1.761-1.761s-.789-1.761-1.761-1.761z" fill="#fa759e"/><path d="m51.221 78.048h-14.054c-.972 0-1.761.788-1.761 1.761 0 .972.788 1.761 1.761 1.761h11.009c.845-1.316 1.871-2.5 3.045-3.522z" fill="#fa759e"/><path d="m88.879 53.339c-.321-.645-1.103-.908-1.748-.587l-10.588 5.264c-.645.321-.908 1.103-.587 1.748s1.103.908 1.748.587l10.587-5.264c.645-.321.908-1.103.588-1.748z" fill="#0089ef"/><path d="m88.939 48.594c-.308-.651-1.086-.929-1.737-.62l-10.686 5.061c-.651.308-.929 1.086-.62 1.737s1.086.929 1.737.62l10.686-5.061c.65-.309.928-1.086.62-1.737z" fill="#0089ef"/><path d="m86.833 69.375h-17.606c-.159 0-.31-.028-.456-.067v6.162c1.464.664 2.811 1.535 4.008 2.578h14.054c.159 0 .31.028.456.067v-8.807c-.146.039-.297.067-.456.067z" fill="#d4fbff"/><path d="m86.833 65.854h-17.606c-.972 0-1.761.788-1.761 1.761s.788 1.761 1.761 1.761h17.606c.972 0 1.761-.788 1.761-1.761s-.789-1.761-1.761-1.761z" fill="#fa759e"/><path d="m86.833 78.048h-14.054c1.174 1.023 2.2 2.206 3.044 3.521h11.009c.972 0 1.761-.788 1.761-1.761.001-.972-.788-1.76-1.76-1.76z" fill="#fa759e"/><path d="m50.615 102.262h22.77c3.106-2.989 5.047-7.181 5.047-11.832 0-9.075-7.357-16.432-16.432-16.432s-16.432 7.357-16.432 16.432c0 4.651 1.941 8.843 5.047 11.832z" fill="#d4fbff"/><circle cx="62" cy="90.43" fill="#fa759e" r="10.607"/><path d="m24.151 95.451h-15.732v20.167h22.906v-12.992c0-3.963-3.212-7.175-7.174-7.175z" fill="#0089ef"/><ellipse cx="19.872" cy="105.534" fill="#fa759e" rx="5.743" ry="5.743" transform="matrix(.383 -.924 .924 .383 -85.233 83.507)"/><path d="m19.872 102.262c-1.807 0-3.272 1.465-3.272 3.272s1.465 3.272 3.272 3.272 3.272-1.465 3.272-3.272-1.465-3.272-3.272-3.272z" fill="#ffd7e5"/><path d="m99.849 95.451c-3.962 0-7.174 3.212-7.174 7.174v12.992h22.906v-20.166z" fill="#0089ef"/><ellipse cx="104.128" cy="105.534" fill="#fa759e" rx="5.743" ry="5.743" transform="matrix(.987 -.16 .16 .987 -15.56 18.042)"/><path d="m104.128 102.262c-1.807 0-3.272 1.465-3.272 3.272s1.465 3.272 3.272 3.272 3.272-1.465 3.272-3.272-1.465-3.272-3.272-3.272z" fill="#ffd7e5"/><path d="m44.03 102.262h35.94v13.355h-35.94z" fill="#fa759e"/><g fill="#3a2c60"><path d="m8.383 83.192c.553 0 1-.448 1-1v-5.692c0-.552-.447-1-1-1s-1 .448-1 1v5.692c0 .552.447 1 1 1z"/><path d="m102.631 48.835h-6.959c-1.177 0-2.134.957-2.134 2.134v1.935c0 1.177.957 2.134 2.134 2.134h4.065v9.66c0 3.365 2.971 6.102 6.622 6.102s6.622-2.737 6.622-6.102-2.971-6.102-6.622-6.102c-.544 0-1.077.06-1.595.179v-7.806c.001-1.177-.956-2.134-2.133-2.134zm3.728 11.761c2.549 0 4.622 1.84 4.622 4.102s-2.073 4.102-4.622 4.102-4.622-1.84-4.622-4.102v-10.66c0-.552-.447-1-1-1h-5.065c-.074 0-.134-.06-.134-.134v-1.935c0-.074.06-.134.134-.134h6.959c.074 0 .134.06.134.134v9.206c0 .343.176.662.465.845.29.183.652.206.963.059.675-.321 1.405-.483 2.166-.483z"/><path d="m24.465 54.716v-9.66h4.065c1.177 0 2.134-.957 2.134-2.134v-1.935c0-1.177-.957-2.134-2.134-2.134h-6.959c-1.177 0-2.134.958-2.134 2.134v7.805c-.518-.119-1.05-.178-1.595-.178-3.651 0-6.622 2.737-6.622 6.102s2.971 6.102 6.622 6.102 6.623-2.738 6.623-6.102zm-11.244 0c0-2.262 2.073-4.102 4.622-4.102.763 0 1.491.162 2.166.482.312.148.674.125.963-.058.29-.184.466-.502.466-.845v-9.206c0-.074.06-.134.134-.134h6.959c.074 0 .134.06.134.134v1.935c0 .074-.06.134-.134.134h-5.065c-.553 0-1 .448-1 1v10.66c0 2.262-2.073 4.102-4.622 4.102s-4.623-1.841-4.623-4.102z"/><path d="m115.617 7.383h-107.234c-.053 0-.098.022-.148.03-.075.011-.15.016-.221.045-.078.03-.14.081-.206.129-.038.027-.081.04-.116.072-.003.003-.004.007-.007.01-.065.065-.111.146-.157.226-.019.033-.049.06-.064.095-.015.034-.014.076-.024.112-.027.089-.054.177-.055.269 0 .004-.002.008-.002.012v15.83 47.423c0 .552.447 1 1 1s1-.448 1-1v-41.744l1.981 1.981-1.053 1.053c-.391.391-.391 1.023 0 1.414l3.32 3.32c.195.195.451.293.707.293s.512-.098.707-.293l6.785-6.785c.188-.188.293-.442.293-.707s-.105-.52-.293-.707l-3.32-3.32c-.391-.391-1.023-.391-1.414 0l-1.053 1.052-1.981-1.981h44.9c-.174.402-.273.844-.273 1.309v4.259h-1.488c-.553 0-1 .448-1 1v4.696c0 .552.447 1 1 1h9.596c.553 0 1-.448 1-1v-4.696c0-.552-.447-1-1-1h-1.487v-4.259c0-.465-.099-.907-.273-1.309h44.9l-1.981 1.981-1.053-1.052c-.391-.391-1.023-.391-1.414 0l-3.32 3.32c-.188.188-.293.442-.293.707s.105.52.293.707l6.785 6.785c.195.195.451.293.707.293s.512-.098.707-.293l3.32-3.32c.391-.391.391-1.023 0-1.414l-1.053-1.053 1.981-1.981v64.558h-14.767c-4.507 0-8.174 3.667-8.174 8.174v3.312h-7.823v-23.367h2.981c1.522 0 2.761-1.238 2.761-2.76 0-.987-.524-1.847-1.305-2.336v-7.523c.78-.488 1.305-1.349 1.305-2.335 0-1.522-1.238-2.761-2.761-2.761h-2.981v-6.443l4.885-2.429c1.138-.565 1.604-1.951 1.038-3.09-.371-.744-1.095-1.193-1.869-1.26l.841-.398c.557-.264.977-.728 1.184-1.307.207-.58.176-1.206-.087-1.761-.264-.557-.728-.977-1.308-1.185-.579-.207-1.206-.175-1.761.087l-2.989 1.416c-.137-.389-.498-.672-.934-.672-.553 0-1 .448-1 1v.588l-5.764 2.73c-.557.264-.977.728-1.184 1.307-.207.58-.176 1.206.088 1.762s.728.977 1.307 1.184c.254.09.516.135.776.135.101 0 .2-.02.299-.033l-1.277.635c-1.138.565-1.604 1.951-1.037 3.09.402.808 1.22 1.276 2.067 1.276.344 0 .693-.077 1.021-.24l3.702-1.841v5.448h-12.622c-1.522 0-2.761 1.238-2.761 2.761 0 .986.524 1.846 1.304 2.335v4.051c-1.809-.638-3.746-1.002-5.771-1.002s-3.961.365-5.771 1.002v-4.05c.78-.488 1.304-1.349 1.304-2.335 0-1.522-1.238-2.761-2.761-2.761h-12.624v-5.448l3.702 1.841c.328.163.678.24 1.021.24.848 0 1.665-.469 2.068-1.278.565-1.138.1-2.523-1.038-3.089l-1.277-.635c.1.013.199.033.299.033.261 0 .522-.045.776-.135.579-.207 1.043-.627 1.307-1.184s.295-1.182.088-1.762-.627-1.043-1.184-1.307l-5.764-2.73v-.588c0-.552-.447-1-1-1-.436 0-.797.283-.934.672l-2.989-1.416c-.555-.262-1.182-.294-1.761-.087-.58.208-1.044.628-1.307 1.184-.264.556-.295 1.182-.088 1.762s.627 1.043 1.184 1.307l.84.398c-.774.067-1.497.516-1.868 1.261-.565 1.138-.1 2.523 1.038 3.089l4.885 2.429v6.443h-2.981c-1.522 0-2.761 1.238-2.761 2.761 0 .986.524 1.847 1.305 2.335v7.523c-.78.488-1.305 1.349-1.305 2.336 0 1.522 1.238 2.76 2.761 2.76h2.981v23.368h-7.823v-3.312c0-4.507-3.667-8.174-8.174-8.174h-14.766v-7.918c0-.552-.447-1-1-1s-1 .448-1 1v20.404 8.681c0 .552.447 1 1 1h.036 22.906 12.705 35.94 12.705 22.906.036c.553 0 1-.448 1-1v-8.681-82.724-15.812-.018c0-.552-.447-1-1-1zm-38.414 47.106c-.093.043-.178.031-.231.011-.054-.019-.128-.062-.173-.156-.044-.094-.03-.178-.011-.232.016-.044.057-.125.155-.172l10.687-5.062c.047-.022.091-.029.129-.029.044 0 .08.009.104.018.054.019.128.062.173.156.044.094.03.178.011.232-.016.044-.057.125-.155.172l-10.689 5.062c0-.001 0 0 0 0zm.056 4.967c-.152.074-.335.012-.408-.136-.074-.15-.013-.333.138-.408l10.587-5.264c.043-.021.09-.032.135-.032.112 0 .221.062.273.168.074.15.013.333-.138.408zm-41.305-10.201c-.02-.054-.033-.138.012-.233.044-.093.118-.136.172-.155.023-.009.06-.018.104-.018.038 0 .082.007.129.029l10.687 5.062c.099.047.14.128.155.172.02.054.033.138-.011.232-.045.094-.119.137-.173.156-.054.02-.139.032-.231-.011 0 0 0 0-.001 0l-10.687-5.061c-.099-.048-.14-.129-.156-.173zm.063 4.529c.073-.15.259-.213.408-.137l10.587 5.264c.15.075.212.258.139.407-.075.151-.261.212-.409.138l-10.587-5.264c-.151-.075-.213-.258-.138-.408zm-26.634-30.571v-12.333l11.764 12.333zm1.336-13.83h11.764v12.333zm13.763 1.484 11.991 12.346h-11.991zm1.348-1.484h12.008v12.365zm14.009 1.484 11.99 12.346h-11.99zm1.348-1.484h12.008v12.365zm14.007 1.484 11.99 12.346h-11.99zm1.348-1.484h12.008v12.365zm14.008 1.484 11.99 12.346h-11.99zm1.348-1.484h12.008v12.365zm14.007 1.484 11.991 12.346h-11.991zm1.348-1.484h12.008v12.365zm14.009 1.484 11.99 12.346h-11.99zm13.355 10.881-12.007-12.365h12.008v12.365zm-104.85 5.7c-.248-.247-.384-.576-.384-.925s.137-.678.384-.926c.494-.494 1.357-.494 1.852 0l3.013 3.013-1.851 1.852zm8.037.815 1.906 1.906-5.371 5.371-1.906-1.906 1.053-1.053c.019-.019.025-.043.042-.063.023-.02.052-.027.074-.049l3.121-3.122c.007-.007.009-.016.015-.023.004-.004.009-.005.013-.009zm47.994 4.518v2.696h-7.596v-2.696h1.488c.002 0 .003-.001.005-.001.006 0 .011.003.017.003h4.598c.004 0 .008-.002.012-.002zm-2.488-6.259v4.262h-2.62v-4.262c0-.722.588-1.309 1.31-1.309s1.31.588 1.31 1.309zm46.351 9.018-5.371-5.371 1.906-1.906 1.053 1.052c.004.004.009.005.013.009.007.007.009.016.015.023l3.121 3.122c.022.022.051.03.074.049.017.02.023.044.042.063l1.053 1.053zm4.572-8.092-3.014 3.014-1.851-1.852 3.013-3.013c.494-.494 1.357-.495 1.852 0 .247.247.384.576.384.925s-.136.678-.384.926zm-20.558 75.177c0-3.404 2.77-6.174 6.174-6.174h14.732v18.167h-20.906zm-2 11.992h-10.705v-6.681h10.705zm-9.823-8.681h-.882v-3.674c0-.552-.447-1-1-1h-4.358c2.379-2.977 3.819-6.733 3.819-10.832 0-2.83-.693-5.496-1.894-7.861h4.314v23.367zm4.981-25.367h-10.474c-.366-.531-.766-1.035-1.186-1.521h3.211c.002 0 .003.001.005.001s.003-.001.005-.001h4.512c.002 0 .003.001.005.001s.003-.001.005-.001h3.918c.42 0 .761.341.761.761s-.342.76-.762.76zm-17.605-13.715h17.605c.42 0 .761.341.761.761s-.341.76-.761.76h-17.605c-.42 0-.761-.341-.761-.76s.341-.761.761-.761zm.543 3.521h3.098v.928c0 .552.447 1 1 1s1-.448 1-1v-.928h2.521v.928c0 .552.447 1 1 1s1-.448 1-1v-.928h2.521v.928c0 .552.447 1 1 1s1-.448 1-1v-.928h2.379v6.672h-2.38v-.923c0-.552-.447-1-1-1s-1 .448-1 1v.923h-2.521v-.923c0-.552-.447-1-1-1s-1 .448-1 1v.923h-2.521v-.923c0-.552-.447-1-1-1s-1 .448-1 1v.699c-.955-.764-1.994-1.423-3.098-1.975v-4.473zm7.661 20.055c0 4.222-1.713 8.044-4.469 10.832h-21.925c-2.757-2.788-4.469-6.61-4.469-10.832 0-8.509 6.923-15.432 15.432-15.432s15.431 6.923 15.431 15.432zm-26.3-13.606v-.699c0-.552-.447-1-1-1s-1 .448-1 1v.923h-2.521v-.923c0-.552-.447-1-1-1s-1 .448-1 1v.923h-2.521v-.923c0-.552-.447-1-1-1s-1 .448-1 1v.923h-2.379v-6.672h2.379v.928c0 .552.447 1 1 1s1-.448 1-1v-.928h2.521v.928c0 .552.447 1 1 1s1-.448 1-1v-.928h2.521v.928c0 .552.447 1 1 1s1-.448 1-1v-.928h3.098v4.473c-1.104.552-2.143 1.211-3.098 1.975zm-13.965-9.97h17.605c.42 0 .761.341.761.761s-.341.76-.761.76h-17.605c-.42 0-.761-.341-.761-.76s.341-.761.761-.761zm-.761 12.954c0-.419.341-.761.761-.761h11.66c-.421.486-.821.99-1.186 1.521h-10.474c-.42.001-.761-.34-.761-.76zm5.742 2.761h4.314c-1.202 2.365-1.894 5.031-1.894 7.861 0 4.099 1.441 7.855 3.819 10.832h-4.357c-.553 0-1 .448-1 1v3.674h-.882zm.882 25.367v6.681h-10.705v-6.681zm-33.611-11.486h14.732c3.404 0 6.174 2.77 6.174 6.174v11.992h-20.906zm35.611 18.167v-11.355h33.94v11.355z"/></g><path d="m50.82 105.462c-1.92 0-3.477 1.557-3.477 3.477s1.557 3.477 3.477 3.477 3.477-1.557 3.477-3.477-1.557-3.477-3.477-3.477z" fill="#fff"/><circle cx="62" cy="108.94" fill="#fff" r="3.477"/><path d="m73.18 105.462c-1.92 0-3.477 1.557-3.477 3.477s1.557 3.477 3.477 3.477 3.477-1.557 3.477-3.477-1.556-3.477-3.477-3.477z" fill="#fff"/></svg>