<svg id="Layer_1" enable-background="new 0 0 128 128" height="512" viewBox="0 0 128 128" width="512" xmlns="http://www.w3.org/2000/svg"><path d="m100.192 113.405c-.646-.96-1.499-1.728-2.491-2.258v-8.074-11.782c0-1.87-1.521-3.391-3.392-3.391h-1.434c-.71-1.004-1.487-1.957-2.326-2.851-.037-.044-.073-.086-.117-.123-3.672-3.861-8.495-6.615-13.917-7.699 4.784-2.833 8.33-7.523 9.64-13.08.242.061.485.104.731.104 2.209 0 3.939-2.262 3.939-5.15 0-2.474-1.274-4.477-3.026-5.004v-7.41c7.582-1.707 12.414-4.287 12.414-7.174 0-.01 0-.02 0-.031-.02-1.661-1.891-2.607-3.29-1.804-2.218 1.273-5.479 2.383-9.463 3.259v-5.535l2.508-24.724c.043-.364-.009-.907-.486-1.45-.817-.929-2.67-1.506-4.836-1.506h-37.292c-2.166 0-4.019.577-4.836 1.506-.485.551-.531 1.102-.487 1.439l2.509 24.734v5.535c-3.985-.876-7.245-1.986-9.463-3.259-1.399-.803-3.27.143-3.29 1.804v.031c0 2.887 4.832 5.467 12.414 7.174v7.41c-1.752.527-3.026 2.53-3.026 5.004 0 2.888 1.73 5.15 3.939 5.15.225 0 .448-.035.67-.086 1.315 5.555 4.864 10.243 9.65 13.071-5.402 1.09-10.206 3.841-13.867 7.69-.043.036-.078.077-.115.121-.84.894-1.618 1.847-2.328 2.852h-1.436c-1.868 0-3.389 1.521-3.389 3.392v11.743c0 .013-.001.026-.001.039v8.074c-.992.531-1.846 1.298-2.491 2.258-1.039 1.547-1.414 3.406-1.056 5.234.358 1.829 1.408 3.409 2.955 4.448 1.164.783 2.505 1.188 3.877 1.188.451 0 .905-.044 1.357-.132l2.819-.553c.199-.039.388-.106.576-.172h47.327c.188.066.376.133.576.172l2.819.553c.452.088.906.132 1.357.132 1.372 0 2.713-.406 3.877-1.188 1.547-1.04 2.597-2.619 2.955-4.448.36-1.827-.015-3.686-1.054-5.233z" fill="#e6e7e8"/><path d="m99.298 77.396c.687-.465.981-1.28.751-2.076-.229-.796-.914-1.329-1.742-1.356l-1.366-.045c-.14-.004-.259-.098-.298-.232l-.379-1.313c-.23-.796-.914-1.328-1.742-1.355-.865-.024-1.546.458-1.829 1.238l-.464 1.283c-.047.132-.213.224-.313.213l-1.365-.045c-.824-.023-1.546.458-1.828 1.238s-.042 1.612.612 2.122l1.078.838c.11.086.153.233.105.364l-.465 1.285c-.282.78-.041 1.613.614 2.122.653.508 1.52.537 2.205.072l1.132-.766c.117-.079.269-.073.378.013l1.077.838c.345.268.747.402 1.151.402.364 0 .73-.109 1.056-.33.686-.465.981-1.28.752-2.077l-.379-1.313c-.039-.134.013-.277.128-.355z" fill="#e6e7e8"/><path d="m44.729 72.551c.687-.465.981-1.28.751-2.077-.23-.796-.914-1.328-1.742-1.355l-1.364-.045c-.141-.004-.26-.098-.299-.232l-.379-1.313c-.23-.796-.915-1.329-1.744-1.355-.794-.048-1.545.458-1.827 1.238l-.465 1.283c-.048.133-.173.21-.313.213l-1.365-.045c-.796-.017-1.546.458-1.828 1.239-.281.779-.041 1.612.613 2.121l1.077.839c.111.086.153.232.105.363l-.465 1.284c-.281.78-.041 1.612.613 2.121.653.51 1.52.539 2.208.073l1.129-.766c.117-.078.271-.072.379.012l1.077.838c.345.268.747.403 1.152.403.364 0 .729-.109 1.056-.33.687-.465.98-1.28.751-2.077l-.379-1.312c-.039-.134.013-.277.128-.355z" fill="#e6e7e8"/><path d="m69.054 73.779c-2.211.857-4.606 1.346-7.12 1.346-2.505 0-4.892-.486-7.097-1.337-13.154.933-23.538 11.892-23.538 25.285v19.346h61.402v-19.346c0-13.429-10.441-24.413-23.647-25.294z" fill="#6dc9f7"/><path d="m61.935 75.125c-2.504 0-4.889-.485-7.092-1.336-.769.055-1.53.135-2.279.257l9.928 39.622 8.944-39.622c-.786-.128-1.588-.207-2.396-.261-2.207.853-4.597 1.34-7.105 1.34z" fill="#fff"/><path d="m82.887 50.951c-.428 0-.831.135-1.198.367.015.363.037.725.037 1.088v2.992c0 1.125-.099 2.226-.28 3.3.427.342.914.553 1.44.553 1.624 0 2.94-1.858 2.94-4.15s-1.316-4.15-2.939-4.15z" fill="#fff"/><path d="m42.274 55.398v-2.992c0-.364.023-.726.037-1.088-.367-.232-.77-.367-1.198-.367-1.623 0-2.94 1.858-2.94 4.15s1.316 4.15 2.94 4.15c.526 0 1.013-.211 1.441-.553-.181-1.073-.28-2.175-.28-3.3z" fill="#fff"/><path d="m62 44.821c-6.699 0-12.943-.526-18.219-1.431-1.034 2.88-1.573 5.929-1.573 9.016v2.992c0 10.895 8.832 19.726 19.726 19.726 10.895 0 19.726-8.832 19.726-19.726v-2.992c0-3.079-.535-6.121-1.564-8.995-5.249.893-11.449 1.41-18.096 1.41z" fill="#fff"/><path d="m47.834 84.9h-14.144c-1.32 0-2.391 1.07-2.391 2.391v20.488c.364-.151.748-.269 1.15-.348l2.819-.553c1.683-.33 3.314.767 3.644 2.449l.548 2.792h8.375c1.321 0 2.391-1.07 2.391-2.391v-22.437c-.001-1.32-1.071-2.391-2.392-2.391z" fill="#fa759e"/><path d="m32.449 107.431 1.85-.363v-19.777c0-1.32 1.07-2.391 2.391-2.391h-3c-1.321 0-2.391 1.07-2.391 2.391v20.488c.364-.151.748-.269 1.15-.348z" fill="#fff"/><path d="m85.088 109.328c.33-1.683 1.962-2.779 3.644-2.449l2.819.553c.402.079.786.196 1.15.348v-20.489c0-1.32-1.07-2.391-2.391-2.391h-14.144c-1.32 0-2.391 1.07-2.391 2.391v22.438c0 1.32 1.07 2.391 2.391 2.391h8.375z" fill="#fff"/><path d="m83.238 93.812-3.551 4.698 3.551 4.697 3.551-4.697z" fill="#fa759e"/><path d="m89.641 105.785-1.775 2.349 1.775 2.349 1.776-2.349z" fill="#fa759e"/><path d="m76.834 86.537-1.775 2.349 1.775 2.348 1.776-2.348z" fill="#fa759e"/><path d="m40.017 114.966-1.106-5.638c-.33-1.683-1.962-2.779-3.644-2.449l-2.819.553c-3.24.635-5.351 3.776-4.715 7.016.635 3.24 3.776 5.351 7.016 4.715l2.819-.553c1.683-.33 2.779-1.962 2.449-3.644z" fill="#fff"/><path d="m91.551 107.431-2.819-.553c-1.683-.33-3.314.767-3.644 2.449l-1.106 5.638c-.33 1.683.767 3.314 2.449 3.644l2.819.553c3.24.635 6.381-1.476 7.016-4.715.636-3.239-1.475-6.38-4.715-7.016z" fill="#fff"/><path d="m62 39.005c7.674 0 14.754-.688 20.459-1.849v-5.806h-40.918v5.806c5.705 1.161 12.785 1.849 20.459 1.849z" fill="#6dc9f7"/><path d="m92.073 77.044-1.078-.839c-.452-.352-1.079-.372-1.553-.051l-1.131.766c-.705.477-1.608-.226-1.319-1.026l.464-1.284c.195-.539.021-1.141-.431-1.493l-1.078-.839c-.672-.523-.282-1.599.568-1.571l1.365.045c.572.019 1.092-.333 1.287-.872l.464-1.284c.289-.8 1.434-.762 1.67.055l.379 1.312c.159.55.654.936 1.227.954l1.365.045c.85.028 1.168 1.128.464 1.605l-1.131.766c-.474.321-.688.911-.529 1.462l.379 1.312c.238.818-.71 1.46-1.382.937z" fill="#ffd7e5"/><path d="m37.505 72.2-1.078-.839c-.452-.352-1.079-.372-1.553-.051l-1.131.766c-.705.477-1.608-.226-1.319-1.026l.464-1.284c.195-.539.021-1.141-.431-1.493l-1.078-.839c-.672-.523-.282-1.599.568-1.571l1.365.045c.572.019 1.092-.333 1.287-.872l.464-1.284c.289-.8 1.434-.762 1.67.055l.379 1.312c.159.55.654.936 1.227.954l1.365.045c.85.028 1.168 1.128.464 1.605l-1.131.766c-.474.321-.688.911-.529 1.462l.379 1.312c.238.817-.71 1.459-1.382.937z" fill="#ffd7e5"/><g fill="#3a2c60"><path d="m57.764 85.366 3.858-2.926c.223-.169.531-.169.754 0l3.858 2.926c.411.312 1.002.018 1.002-.497v-5.745c0-.516-.59-.809-1.002-.497l-3.858 2.926c-.223.169-.531.169-.754 0l-3.858-2.926c-.411-.312-1.002-.018-1.002.497v5.745c.001.516.591.809 1.002.497z"/><path d="m62 62.418c1.788 0 3.243-1.455 3.243-3.244v-1.315c0-.552-.447-1-1-1s-1 .448-1 1v1.315c0 .686-.558 1.244-1.243 1.244s-1.243-.558-1.243-1.244v-1.315c0-.552-.447-1-1-1s-1 .448-1 1v1.315c0 1.789 1.455 3.244 3.243 3.244z"/><path d="m69.18 48.943 3.863.673c.059.01.116.015.173.015.478 0 .899-.342.984-.829.095-.544-.27-1.062-.813-1.157l-3.863-.673c-.551-.09-1.062.27-1.157.814-.096.544.269 1.062.813 1.157z"/><path d="m55.634 47.786c-.096-.544-.605-.905-1.157-.814l-3.863.673c-.544.095-.908.613-.813 1.157.085.486.507.829.984.829.057 0 .114-.005.173-.015l3.863-.673c.543-.095.908-.613.813-1.157z"/><path d="m67.168 65.157c.334-.44.247-1.067-.193-1.401-.441-.335-1.068-.247-1.4.193-.013.016-1.257 1.624-3.574 1.624-2.323 0-3.504-1.53-3.564-1.61-.323-.443-.945-.542-1.392-.221-.448.323-.549.948-.226 1.396.071.1 1.795 2.435 5.182 2.435 3.299 0 5.093-2.317 5.167-2.416z"/><path d="m53.513 51.328c-1.24 0-2.245 1.005-2.245 2.245s1.005 2.245 2.245 2.245 2.245-1.005 2.245-2.245-1.005-2.245-2.245-2.245z"/><path d="m70.357 55.818c1.24 0 2.245-1.005 2.245-2.245s-1.005-2.245-2.245-2.245-2.245 1.005-2.245 2.245 1.005 2.245 2.245 2.245z"/><path d="m50.225 100.104c-.553 0-1 .448-1 1v3.499c0 .552.447 1 1 1s1-.448 1-1v-3.499c0-.552-.448-1-1-1z"/><path d="m96.192 109.405c-.646-.96-1.499-1.728-2.491-2.258v-8.074-11.782c0-1.87-1.521-3.391-3.392-3.391h-1.441c-3.836-5.424-9.663-9.343-16.412-10.676 4.785-2.836 8.331-7.529 9.637-13.09.261.074.526.118.793.118 2.209 0 3.939-2.262 3.939-5.15 0-2.474-1.274-4.477-3.026-5.004v-7.41c7.582-1.707 12.414-4.287 12.414-7.174 0-.01 0-.02 0-.031-.02-1.661-1.891-2.607-3.29-1.804-2.218 1.273-5.479 2.383-9.463 3.259v-5.535l2.508-24.724c.043-.364-.009-.907-.486-1.45-.817-.929-2.67-1.506-4.836-1.506h-37.292c-2.166 0-4.019.577-4.836 1.506-.485.551-.531 1.102-.487 1.439l2.509 24.734v5.535c-3.985-.876-7.245-1.986-9.463-3.259-1.399-.803-3.27.143-3.29 1.804v.031c0 2.887 4.832 5.467 12.414 7.174v7.41c-1.752.527-3.026 2.53-3.026 5.004 0 2.888 1.73 5.15 3.939 5.15.225 0 .449-.033.67-.085 1.316 5.558 4.869 10.248 9.66 13.076-6.707 1.352-12.495 5.259-16.313 10.657h-1.442c-1.868 0-3.389 1.521-3.389 3.392v19.855c-.992.531-1.846 1.298-2.492 2.259-1.039 1.547-1.414 3.406-1.056 5.234.358 1.829 1.408 3.409 2.955 4.448 1.164.783 2.505 1.188 3.877 1.188.451 0 .905-.044 1.357-.132l2.819-.553c.199-.039.388-.106.576-.172h47.327c.188.066.376.133.576.172l2.819.553c.452.088.906.132 1.357.132 1.372 0 2.713-.406 3.877-1.188 1.547-1.04 2.597-2.619 2.955-4.448.359-1.828-.016-3.687-1.055-5.234zm-9.821-25.505h-2.464c.512-.368 1.056-.698 1.631-.985.286.321.565.649.833.985zm-2.279-2.478c-1.209.672-2.29 1.51-3.23 2.478h-3.46l-2.67-8.036c3.54 1.131 6.726 3.055 9.36 5.558zm-11.318 6.526v2.493l-.886-2.045zm12.052-32.847c0 1.866-1.104 3.507-2.291 3.086.127-.936.191-1.871.191-2.79v-2.992c0-.147-.003-.294-.009-.441 1.101-.183 2.108 1.368 2.109 3.137zm-45.652 0c0-1.678.906-3.15 1.939-3.15.037 0 .076.005.114.01-.002.149-.019.297-.019.446v2.992c0 .951.087 1.879.211 2.796-1.17.362-2.245-1.252-2.245-3.094zm3.366-22.751h38.92v4.992c-1.526.289-3.136.548-4.832.767h-29.256c-1.696-.219-3.306-.478-4.832-.767zm.668 23.048v-2.992c0-3.034.544-6.026 1.581-8.85-.001 0-.001 0-.002 0 5.057.803 10.935 1.265 17.212 1.265 6.226 0 12.058-.455 17.088-1.245 1.032 2.817 1.573 5.803 1.573 8.831v2.992c0 10.326-8.4 18.727-18.727 18.727s-18.725-8.402-18.725-18.728zm18.276 25.19c.158.096.337.144.516.144s.357-.048.516-.144l7.429-4.476-7.503 33.24-8.32-33.2zm-4.615-5.115c1.624.41 3.315.652 5.065.652 1.832 0 3.601-.263 5.294-.711l-5.228 3.15zm-5.644 12.475.887.448-.887 2.048zm-1.957-12.084-2.67 8.036h-3.46c-.94-.968-2.021-1.806-3.23-2.478 2.634-2.503 5.82-4.427 9.36-5.558zm-10.806 7.051c.575.287 1.119.617 1.631.985h-2.465c.269-.337.548-.664.834-.985zm.256 33.822c-.313.467-.79.783-1.342.891l-2.819.553c-1.307.255-2.631-.012-3.734-.753-1.104-.742-1.852-1.869-2.107-3.173s.012-2.631.753-3.734c.741-1.104 1.868-1.852 3.173-2.108l2.819-.553c.137-.027.272-.04.406-.04.985 0 1.868.697 2.064 1.7l1.105 5.638c.109.552-.005 1.113-.318 1.579zm6.392.682h-4.499c.417-.815.566-1.733.387-2.646l-.324-1.652h4.435v4.298zm31.78 0h-29.78v-4.298h.726c1.868 0 3.389-1.521 3.389-3.392v-1.595c0-.552-.447-1-1-1s-1 .448-1 1v1.595c0 .767-.623 1.392-1.389 1.392h-7.553l-.389-1.985c-.211-1.076-.829-2.005-1.738-2.617-.911-.611-2.008-.831-3.08-.621l-2.775.544v-19.15c0-.767.623-1.392 1.389-1.392h14.147c.766 0 1.389.625 1.389 1.392v10.473c0 .552.447 1 1 1s1-.448 1-1v-2.875l9.583 16.168.715 2.854c.111.445.512.757.97.757h.012c.463-.005.861-.328.964-.78l.684-3.031 8.622-15.803v14.675c0 1.87 1.521 3.391 3.392 3.391h.724v4.298zm2 0v-4.299h4.436l-.324 1.653c-.179.912-.03 1.83.387 2.646zm4.827-6.299h-7.551c-.768 0-1.392-.624-1.392-1.391v-22.438c0-.767.624-1.391 1.392-1.391h14.144c.768 0 1.392.624 1.392 1.391v19.151l-2.776-.544c-1.072-.21-2.169.01-3.08.621-.909.612-1.527 1.541-1.738 2.617zm11.568 3.135c-.256 1.305-1.004 2.432-2.107 3.173-1.104.741-2.435 1.008-3.734.753l-2.819-.553c-.552-.108-1.028-.424-1.342-.891-.313-.466-.427-1.027-.318-1.579l1.105-5.638c.196-1.002 1.079-1.7 2.064-1.7.134 0 .271.013.406.04l2.819.553c1.305.256 2.432 1.004 3.173 2.108.741 1.103 1.009 2.429.753 3.734z"/><path d="m95.298 73.396c.687-.465.981-1.28.751-2.076-.229-.796-.914-1.329-1.742-1.356l-1.366-.045c-.14-.004-.259-.098-.298-.232l-.379-1.313c-.23-.796-.914-1.328-1.742-1.355-.865-.024-1.546.458-1.829 1.238l-.464 1.283c-.047.132-.213.224-.313.213l-1.365-.045c-.824-.023-1.546.458-1.828 1.238s-.042 1.612.612 2.122l1.078.838c.11.086.153.233.105.364l-.465 1.285c-.282.78-.041 1.613.614 2.122.653.508 1.52.537 2.205.072l1.132-.766c.117-.079.269-.073.378.013l1.077.838c.345.268.747.402 1.151.402.364 0 .73-.109 1.056-.33.686-.465.981-1.28.752-2.077l-.379-1.313c-.039-.134.013-.277.128-.355zm-2.252-.89c-.836.566-1.209 1.598-.929 2.567l.275.953-.782-.609c-.42-.327-.923-.491-1.427-.491-.453 0-.906.133-1.302.401l-.82.556.337-.933c.343-.949.038-2.002-.758-2.622l-.783-.608.991.033c1.04.031 1.917-.582 2.261-1.531l.337-.932.274.953c.281.97 1.146 1.643 2.154 1.676l.992.033z"/><path d="m40.729 68.551c.687-.465.981-1.28.751-2.077-.23-.796-.914-1.328-1.742-1.355l-1.364-.045c-.141-.004-.26-.098-.299-.232l-.379-1.313c-.23-.796-.915-1.329-1.744-1.355-.794-.048-1.545.458-1.827 1.238l-.465 1.283c-.048.133-.173.21-.313.213l-1.365-.045c-.796-.017-1.546.458-1.828 1.239-.281.779-.041 1.612.613 2.121l1.077.839c.111.086.153.232.105.363l-.465 1.284c-.281.78-.041 1.612.613 2.121.653.51 1.52.539 2.208.073l1.129-.766c.117-.078.271-.072.379.012l1.077.838c.345.268.747.403 1.152.403.364 0 .729-.109 1.056-.33.687-.465.98-1.28.751-2.077l-.379-1.312c-.039-.134.013-.277.128-.355zm-2.251-.89c-.836.566-1.209 1.598-.929 2.567l.275.953-.782-.609c-.42-.326-.922-.49-1.426-.49-.453 0-.907.133-1.304.401l-.82.556.338-.932c.344-.949.039-2.003-.758-2.623l-.782-.609.991.033c1.001.039 1.915-.583 2.26-1.531l.338-.932.274.951c.278.97 1.145 1.644 2.154 1.678l.99.033z"/></g></svg>