<svg id="Layer_1" enable-background="new 0 0 128 128" height="512" viewBox="0 0 128 128" width="512" xmlns="http://www.w3.org/2000/svg"><path d="m89.3 7.47h-46.6c-4.774 0-8.659 3.885-8.659 8.66v19.709 5.46 74.571c0 4.775 3.885 8.66 8.659 8.66h46.6c4.774 0 8.659-3.885 8.659-8.66v-99.74c0-4.775-3.885-8.66-8.659-8.66z" fill="#e6e7e8"/><path d="m85.3 4.47h-46.6c-4.23 0-7.66 3.429-7.66 7.66v99.74c0 4.23 3.429 7.66 7.66 7.66h46.6c4.23 0 7.66-3.429 7.66-7.66v-99.74c-.001-4.231-3.43-7.66-7.66-7.66z" fill="#6dc9f7"/><path d="m81.4 14.438h-38.799c-4.23 0-7.66 3.429-7.66 7.66v71.139c0 4.23 3.429 7.66 7.66 7.66h38.799c4.23 0 7.66-3.429 7.66-7.66v-71.14c-.001-4.23-3.43-7.659-7.66-7.659z" fill="#d4fbff"/><path d="m69.456 104.554h-14.911c-1.292 0-2.34 1.048-2.34 2.34v4.508c0 1.292 1.048 2.34 2.34 2.34h14.911c1.292 0 2.34-1.048 2.34-2.34v-4.508c0-1.292-1.048-2.34-2.34-2.34z" fill="#0089ef"/><path d="m69.456 104.554h-14.911c-1.292 0-2.34 1.048-2.34 2.34v3c0-1.292 1.048-2.34 2.34-2.34h14.911c1.292 0 2.34 1.048 2.34 2.34v-3c0-1.292-1.048-2.34-2.34-2.34z" fill="#fff"/><path d="m70.013 8.479h-16.025c-.615 0-1.113.498-1.113 1.113v1.113c0 .615.498 1.113 1.113 1.113h16.025c.615 0 1.113-.498 1.113-1.113v-1.113c-.001-.614-.499-1.113-1.113-1.113z" fill="#ffd7e5"/><path d="m74.003 8.479c-.922 0-1.669.747-1.669 1.669s.747 1.669 1.669 1.669 1.669-.747 1.669-1.669c0-.921-.747-1.669-1.669-1.669z" fill="#ffd7e5"/><path d="m81.277 53.422.663.638-5.102-4.91v10.012.06l-14.838 14.779-14.838-14.778v-.06-6.095-3.917l-4.439 4.272c-1.216.577-2.063 1.806-2.063 3.242v21.181c0 1.986 1.61 3.596 3.596 3.596h35.488c1.986 0 3.596-1.61 3.596-3.596v-21.182c.001-1.436-.847-2.665-2.063-3.242z" fill="#fff"/><path d="m47.162 33.822v25.401l14.838 14.778 14.838-14.778v-25.401z" fill="#fa759e"/><path d="m52.697 42.799h-.424v1.919c0 .253-.056.439-.167.558-.112.12-.257.179-.436.179-.192 0-.342-.062-.448-.187s-.159-.308-.159-.55v-4.596c0-.261.058-.45.175-.567.117-.116.306-.175.566-.175h1.969c.271 0 .504.011.696.034.193.024.367.07.521.14.188.079.353.192.497.338.144.147.254.318.328.512s.113.4.113.617c0 .445-.126.801-.377 1.067-.251.267-.633.455-1.143.567.215.114.42.283.615.505.196.223.371.46.524.711s.273.478.359.681c.085.202.129.342.129.418 0 .079-.025.157-.075.234-.05.078-.119.138-.207.183-.086.045-.187.067-.301.067-.137 0-.25-.032-.343-.096-.092-.064-.172-.144-.238-.242s-.156-.242-.271-.432l-.484-.807c-.174-.296-.329-.521-.467-.676-.137-.155-.277-.261-.418-.318-.141-.056-.32-.084-.534-.084zm.692-2.51h-1.116v1.643h1.084c.29 0 .535-.025.734-.075.198-.05.349-.136.454-.257s.157-.287.157-.499c0-.166-.043-.312-.127-.438s-.201-.22-.35-.283c-.142-.061-.419-.091-.836-.091z" fill="#fff"/><path d="m61.613 43.561c0 .361-.093.686-.279.974-.187.288-.459.513-.818.676s-.784.244-1.276.244c-.589 0-1.076-.111-1.458-.334-.272-.16-.492-.374-.662-.642-.169-.268-.255-.528-.255-.781 0-.146.051-.272.153-.377s.232-.157.389-.157c.128 0 .236.04.324.122.089.081.164.203.226.363.077.19.159.349.247.477.089.128.212.233.373.316.16.083.371.124.632.124.359 0 .649-.084.873-.25.224-.167.337-.376.337-.626 0-.198-.061-.359-.181-.483-.121-.124-.278-.218-.469-.283-.191-.066-.447-.134-.767-.208-.43-.101-.789-.218-1.078-.353-.29-.134-.519-.318-.689-.55-.171-.232-.255-.521-.255-.866 0-.329.09-.621.269-.876s.438-.451.778-.589c.339-.137.739-.206 1.198-.206.366 0 .683.046.951.137s.49.212.666.363c.177.151.306.309.387.474.082.166.122.327.122.485 0 .144-.05.274-.152.389-.103.116-.23.173-.382.173-.139 0-.244-.034-.316-.104-.072-.069-.15-.183-.234-.34-.109-.226-.239-.402-.391-.528s-.397-.19-.734-.19c-.313 0-.564.069-.755.206-.192.137-.288.302-.288.495 0 .12.033.222.097.309.066.087.155.162.269.224.115.063.23.112.347.147s.309.087.578.155c.337.079.642.166.915.261s.505.21.697.347c.191.136.34.308.448.515.11.211.163.465.163.767z" fill="#fff"/><path d="m63.523 40.073 1.353 4.006 1.357-4.034c.071-.212.124-.359.159-.442.036-.083.094-.157.176-.224.081-.067.192-.1.333-.1.104 0 .199.026.288.078s.157.12.208.206c.05.085.075.172.075.259 0 .06-.008.124-.024.193s-.037.137-.061.204-.049.135-.073.206l-1.446 3.904c-.052.15-.104.291-.155.426-.051.134-.112.253-.179.355-.068.102-.159.185-.271.25-.113.066-.25.098-.413.098s-.302-.032-.414-.096c-.113-.064-.203-.148-.272-.253-.07-.104-.13-.224-.181-.356-.051-.133-.104-.274-.155-.424l-1.422-3.871c-.024-.071-.049-.14-.075-.208-.025-.068-.047-.142-.064-.22-.019-.079-.027-.145-.027-.2 0-.139.056-.265.167-.379.112-.114.251-.172.42-.172.207 0 .353.063.438.19s.168.327.258.604z" fill="#fff"/><path d="m70.7 43.027h-1.108v1.691c0 .242-.057.425-.171.55s-.258.187-.432.187c-.183 0-.329-.062-.441-.185-.112-.124-.167-.305-.167-.544v-4.604c0-.266.061-.456.184-.571.122-.114.317-.171.583-.171h1.552c.459 0 .812.036 1.06.106.244.068.455.18.633.338s.314.351.406.579c.093.228.139.485.139.77 0 .608-.188 1.07-.563 1.383s-.933.471-1.675.471zm-.293-2.738h-.816v1.826h.816c.285 0 .524-.03.715-.09s.338-.157.438-.294c.101-.136.151-.314.151-.533 0-.263-.078-.478-.233-.644-.174-.177-.531-.265-1.071-.265z" fill="#fff"/><g fill="#3a2c60"><path d="m31.041 39.833c.553 0 1-.448 1-1v-7.46c0-.552-.447-1-1-1s-1 .448-1 1v7.46c0 .553.447 1 1 1z"/><path d="m85.3 3.47h-46.6c-4.774 0-8.659 3.885-8.659 8.66v14.509c0 .552.447 1 1 1s1-.448 1-1v-14.509c0-3.672 2.987-6.66 6.659-6.66h46.6c3.673 0 6.66 2.987 6.66 6.66v99.74c0 3.672-2.987 6.66-6.66 6.66h-46.6c-3.672 0-6.659-2.987-6.659-6.66v-68.591c0-.552-.447-1-1-1s-1 .448-1 1v68.591c0 4.775 3.885 8.66 8.659 8.66h46.6c4.775 0 8.66-3.885 8.66-8.66v-99.74c0-4.775-3.885-8.66-8.66-8.66z"/><path d="m54.545 103.554c-1.842 0-3.341 1.499-3.341 3.34v4.508c0 1.842 1.499 3.34 3.341 3.34h14.911c1.842 0 3.34-1.498 3.34-3.34v-4.508c0-1.842-1.498-3.34-3.34-3.34zm16.251 3.341v4.508c0 .739-.601 1.34-1.34 1.34h-14.911c-.739 0-1.341-.601-1.341-1.34v-4.508c0-.739.602-1.34 1.341-1.34h14.911c.739-.001 1.34.6 1.34 1.34z"/><path d="m76.839 32.822h-29.677c-.553 0-1 .448-1 1v14.903l-4.072 3.919c-1.439.774-2.43 2.274-2.43 4.02v21.181c0 2.535 2.062 4.597 4.596 4.597h35.488c2.534 0 4.597-2.062 4.597-4.597v-21.181c0-1.747-.991-3.247-2.431-4.021l-4.071-3.918v-14.903c0-.552-.447-1-1-1zm-28.677 2h27.677v23.986l-13.839 13.782-13.838-13.782zm-2 21.927-2.675-2.675 2.675-2.574zm36.179 21.096c0 1.432-1.165 2.597-2.597 2.597h-35.488c-1.432 0-2.596-1.165-2.596-2.597v-21.181c0-.457.13-.878.34-1.249l4.333 4.333c.039.063.07.131.123.184l14.838 14.778c.078.078.171.129.265.175.023.011.041.033.065.043.12.049.248.073.376.073s.255-.024.376-.073c.024-.01.042-.031.065-.043.094-.047.187-.097.265-.175l14.839-14.778c.054-.054.085-.123.125-.187l4.33-4.33c.21.371.341.792.341 1.249zm-1.828-23.771-2.674 2.674v-5.247z"/><path d="m52.281 52.219h19.438c.553 0 1-.448 1-1s-.447-1-1-1h-19.438c-.553 0-1 .448-1 1s.447 1 1 1z"/><path d="m72.719 56.983c0-.552-.447-1-1-1h-19.438c-.553 0-1 .448-1 1s.447 1 1 1h19.438c.552 0 1-.448 1-1z"/></g></svg>