<svg id="Layer_1" enable-background="new 0 0 128 128" height="512" viewBox="0 0 128 128" width="512" xmlns="http://www.w3.org/2000/svg"><path d="m106.359 62.483c-.391-.391-1.023-.391-1.414 0l-12.913 12.912 2.846-8.853c.383-1.193.18-2.458-.559-3.471s-1.881-1.594-3.134-1.594h-19.127c.821-1.63 1.577-3.333 2.134-4.988 1.476-4.388-.474-7.981-2.208-10.111.04-.066.084-.13.123-.196l3.946 5.039c.646.825 1.61 1.285 2.626 1.285.241 0 .485-.025.729-.079 1.267-.276 2.24-1.23 2.542-2.49 1.18-4.937.349-10.015-.555-13.407-.285-1.07-1.079-1.929-2.125-2.295s-2.207-.192-3.101.47l-.772.571c.187-1.607.295-3.27.295-4.977 0-3.999-1.147-8.605-3.41-13.691 0-.001-.001-.002-.002-.002-1.519-3.447-3.203-6.329-4.347-8.137-.68-1.083-1.122-1.695-1.122-1.695-.188-.262-.504-.422-.815-.416-.323.002-.625.158-.812.421-.122.172-3.006 4.261-5.467 9.83-.002.004-.002.008-.004.012-2.26 5.081-3.406 9.684-3.406 13.679 0 1.707.108 3.37.295 4.977l-.772-.571c-.893-.661-2.052-.836-3.1-.47-1.045.366-1.84 1.225-2.125 2.295-.904 3.392-1.734 8.47-.554 13.406.301 1.26 1.275 2.214 2.542 2.49.243.054.487.079.728.079 1.016 0 1.979-.46 2.625-1.286l3.946-5.038c.039.067.083.13.123.196-1.733 2.13-3.683 5.724-2.207 10.112.557 1.654 1.313 3.357 2.134 4.988h-19.128c-1.263 0-2.411.588-3.148 1.614-.738 1.025-.93 2.301-.528 3.498l3.02 8.994-13.102-13.101c-.391-.391-1.023-.391-1.414 0s-.391 1.023 0 1.414l15.65 15.65v40.629c0 2.45 1.994 4.444 4.445 4.444h40.526c2.451 0 4.445-1.994 4.445-4.444v-40.629l15.65-15.65c.391-.391.391-1.024.001-1.414z" fill="#e6e7e8"/><path d="m34.917 20.397.953.449.169 1.04c.115.706.612 1.274 1.296 1.483.182.056.367.082.55.082.505 0 .994-.206 1.354-.588l.722-.767 1.042.16c.709.111 1.402-.188 1.811-.774.41-.586.451-1.34.107-1.967l-.506-.924.474-.94c.321-.64.254-1.392-.177-1.963-.43-.57-1.131-.842-1.836-.709l-1.035.196-.748-.741v-.001c-.508-.503-1.244-.67-1.92-.438s-1.153.818-1.244 1.527l-.133 1.045-.937.482c-.636.328-1.022.976-1.01 1.69s.421 1.352 1.068 1.658z" fill="#e6e7e8"/><path d="m89.187 21.483c.41.585 1.1.883 1.813.774l1.04-.16.722.766c.359.383.849.589 1.354.589.184 0 .369-.026.551-.082.685-.209 1.181-.778 1.296-1.483l.17-1.04.953-.449c.646-.306 1.056-.939 1.067-1.654.013-.716-.375-1.363-1.011-1.691l-.936-.482-.133-1.045c-.091-.71-.567-1.295-1.245-1.528-.677-.234-1.412-.063-1.919.439l-.748.741-1.035-.196c-.701-.133-1.405.138-1.837.71-.431.571-.498 1.323-.177 1.962l.474.94-.506.924c-.344.626-.303 1.38.107 1.965z" fill="#e6e7e8"/><path d="m56.861 58.478h10.277c.812-1.609 1.56-3.286 2.105-4.905 2.194-6.522-3.961-11.102-3.961-11.102l-3.282.005-3.282-.004s-6.156 4.58-3.961 11.102c.545 1.619 1.292 3.295 2.104 4.904z" fill="#fa759e"/><path d="m64.384 43.919c-.538 2.171-1.404 3.587-2.384 3.587s-1.846-1.415-2.384-3.585c-.742 1.422-1.311 2.948-.741 4.645.638 1.897 1.702 4.172 3.124 6.691 1.422-2.52 2.486-4.795 3.124-6.691.573-1.699.003-3.225-.739-4.647z" fill="#ffd7e5"/><path d="m53.949 33.514-2.713-2.005c-1.333-.985-3.238-.322-3.665 1.28-.836 3.135-1.695 8.117-.548 12.916.457 1.911 2.925 2.446 4.136.9l4.142-5.288c.324-.413.499-.923.499-1.448v-.089c-.788-1.789-1.421-3.909-1.851-6.266z" fill="#6dc9f7"/><path d="m76.429 32.788c-.427-1.601-2.332-2.265-3.665-1.28l-2.713 2.005c-.43 2.357-1.063 4.477-1.852 6.266v.088c0 .525.176 1.035.499 1.448l4.142 5.288c1.211 1.547 3.68 1.011 4.136-.9 1.148-4.798.289-9.78-.547-12.915z" fill="#6dc9f7"/><path d="m67.367 13.014h-10.734c-1.789 4.02-3.325 8.794-3.325 13.285 0 5.585 1.072 10.612 2.781 14.139.355.753.753 1.434 1.166 2.035h9.489c.413-.601.811-1.282 1.166-2.035 1.71-3.528 2.782-8.555 2.782-14.139 0-4.491-1.535-9.265-3.325-13.285z" fill="#6dc9f7"/><path d="m67.367 13.014h-10.734c1.525-3.451 3.232-6.349 4.303-8.044.495-.784 1.633-.784 2.128 0 1.071 1.695 2.779 4.593 4.303 8.044z" fill="#ffd7e5"/><circle cx="62" cy="20.832" fill="#fa759e" r="4.404"/><circle cx="62" cy="20.832" fill="#d4fbff" r="2.955"/><path d="m62 30.039c-1.632 0-2.956 3.91-2.956 8.734s1.323 8.734 2.956 8.734c1.632 0 2.956-3.91 2.956-8.734s-1.324-8.734-2.956-8.734z" fill="#6dc9f7"/><path d="m38.292 75.05v41.126c0 1.903 1.542 3.445 3.445 3.445h40.526c1.903 0 3.445-1.542 3.445-3.445v-41.126z" fill="#fa759e"/><path d="m89.927 62.238-.23.72-3.992 12.093-47.412-.011-3.976-12.092-.23-.68c-.63-1.86.76-3.79 2.73-3.79h50.37c1.95 0 3.34 1.9 2.74 3.76z" fill="#fff"/><path d="m89.697 62.958-3.99 12.094-47.415-.006-3.975-12.098c.48-.87 1.4-1.47 2.5-1.47h50.37c1.11 0 2.03.61 2.51 1.48z" fill="#fa759e"/><ellipse cx="62" cy="97.335" fill="#ffd7e5" rx="14.333" ry="14.333" transform="matrix(.924 -.383 .383 .924 -32.529 31.136)"/><path d="m34.388 11.145.798.791c.202.201.491.289.77.236l1.104-.209c.705-.134 1.257.599.934 1.24l-.506 1.004c-.128.254-.123.556.014.806l.54.985c.345.629-.181 1.381-.891 1.272l-1.111-.171c-.282-.043-.566.055-.762.262l-.77.818c-.492.522-1.369.254-1.485-.454l-.181-1.109c-.046-.281-.227-.522-.485-.643l-1.016-.48c-.649-.306-.665-1.224-.027-1.552l.999-.515c.253-.131.426-.377.462-.66l.142-1.115c.094-.713.961-1.011 1.471-.506z" fill="#ffd7e5"/><path d="m89.612 11.145-.798.791c-.202.201-.491.289-.77.236l-1.104-.209c-.705-.134-1.257.599-.934 1.24l.506 1.004c.128.254.123.556-.014.806l-.54.985c-.345.629.181 1.381.891 1.272l1.111-.171c.282-.043.566.055.762.262l.77.818c.492.522 1.369.254 1.485-.454l.181-1.109c.046-.281.227-.522.485-.643l1.016-.48c.649-.306.665-1.224.027-1.552l-.999-.515c-.253-.131-.426-.377-.462-.66l-.145-1.116c-.091-.712-.958-1.01-1.468-.505z" fill="#0089ef"/><g fill="#3a2c60"><path d="m85.708 85.738c-.553 0-1 .447-1 1v7.75c0 .553.447 1 1 1s1-.447 1-1v-7.75c0-.553-.447-1-1-1z"/><path d="m102.363 58.484c-.39-.392-1.022-.395-1.414-.004l-12.989 12.924 2.918-8.862c.383-1.193.18-2.458-.559-3.472-.738-1.012-1.881-1.593-3.134-1.593h-18.45c.554-1.19 1.057-2.4 1.456-3.585 1.629-4.843-.914-8.72-2.734-10.727.039-.04.079-.079.111-.126.191-.277.367-.567.539-.859l3.946 5.039c.646.825 1.609 1.286 2.625 1.286.24 0 .484-.026.728-.079 1.267-.276 2.241-1.23 2.543-2.49 1.181-4.936.35-10.014-.554-13.406-.285-1.07-1.08-1.929-2.125-2.295-1.05-.365-2.207-.192-3.101.47l-.771.57c.187-1.607.295-3.269.295-4.977 0-3.997-1.147-8.601-3.409-13.686-.001-.001-.001-.003-.001-.005-1.52-3.447-3.205-6.33-4.369-8.172-.416-.661-1.13-1.056-1.91-1.057-.001 0-.002 0-.003 0-.779 0-1.492.393-1.909 1.052-1.155 1.827-2.851 4.729-4.374 8.176-.001.003-.001.005-.002.008-2.261 5.083-3.408 9.687-3.408 13.683 0 1.707.108 3.37.295 4.977l-.772-.571c-.893-.661-2.051-.836-3.099-.47-1.046.366-1.841 1.224-2.127 2.295-.904 3.392-1.734 8.471-.554 13.407.301 1.26 1.275 2.214 2.542 2.49.243.053.487.079.728.079 1.016 0 1.979-.461 2.625-1.286l3.946-5.039c.173.291.348.581.538.857.032.047.073.087.112.127-1.82 2.007-4.363 5.883-2.734 10.725.399 1.186.902 2.395 1.456 3.586h-18.45c-1.264 0-2.411.589-3.148 1.614-.737 1.026-.929 2.303-.527 3.495l2.9 8.806-12.986-12.909c-.391-.39-1.024-.387-1.414.004-.39.392-.388 1.024.004 1.414l15.649 15.562v40.716c0 2.451 1.994 4.445 4.445 4.445h40.526c2.451 0 4.445-1.994 4.445-4.445v-17.438c0-.553-.447-1-1-1s-1 .447-1 1v17.438c0 1.349-1.097 2.445-2.445 2.445h-40.526c-1.348 0-2.445-1.097-2.445-2.445v-40.126l45.416.003v6.687c0 .553.447 1 1 1s1-.447 1-1v-7.27l15.651-15.572c.392-.389.394-1.022.004-1.414zm-29.005-26.172c.238-.176.516-.267.799-.267.15 0 .302.025.451.077.426.149.737.486.854.923.845 3.168 1.624 7.896.541 12.427-.123.514-.506.888-1.024 1.001-.523.113-1.025-.069-1.352-.485l-4.142-5.29c-.167-.212-.255-.475-.273-.744.75-1.751 1.347-3.729 1.762-5.88zm-11.576-26.812c.063-.1.153-.12.218-.12.065 0 .156.021.24.155.95 1.502 2.283 3.765 3.568 6.477h-7.619c1.293-2.717 2.635-4.996 3.593-6.512zm-4.496 8.514h9.428c1.977 4.592 2.979 8.722 2.979 12.285 0 5.191-.978 10.187-2.687 13.714-.238.504-.506.994-.801 1.461h-.389c.093-.888.14-1.801.14-2.701 0-4.688-1.238-9.733-3.956-9.733s-3.956 5.046-3.956 9.733c0 .9.047 1.813.14 2.701h-.39c-.294-.468-.564-.96-.805-1.471-1.704-3.518-2.682-8.513-2.682-13.704.001-3.564 1.003-7.695 2.979-12.285zm6.67 24.758c0 5.074-1.453 7.733-1.956 7.733s-1.956-2.659-1.956-7.733 1.453-7.733 1.956-7.733 1.956 2.659 1.956 7.733zm-13.583 7.216c-.327.417-.833.6-1.353.485-.518-.113-.901-.487-1.023-1.001-1.083-4.53-.304-9.258.541-12.427.117-.437.428-.773.855-.923.148-.052.301-.077.451-.077.283 0 .56.091.798.267l2.383 1.762c.415 2.152 1.012 4.131 1.762 5.881-.018.269-.106.531-.272.744zm5.332 7.266c-1.514-4.5 1.425-7.972 2.874-9.344.601 2.624 1.722 4.596 3.421 4.596 1.697 0 2.818-1.968 3.419-4.588 1.441 1.384 4.374 4.884 2.875 9.337-.468 1.393-1.092 2.826-1.776 4.223h-9.037c-.684-1.398-1.308-2.831-1.776-4.224zm-20.414 7.005c.356-.496.912-.781 1.523-.781h50.372c.607 0 1.16.281 1.518.771s.456 1.104.272 1.675l-3.993 12.126h-45.964l-3.982-12.095c-.196-.581-.103-1.199.254-1.696z"/><path d="m30.917 16.396.952.449.17 1.04c.115.706.612 1.274 1.296 1.483.182.056.367.083.551.083.504 0 .993-.206 1.354-.588l.722-.768 1.041.16c.712.109 1.401-.188 1.812-.774.41-.586.451-1.339.107-1.966l-.506-.924.474-.94c.322-.64.254-1.392-.176-1.963s-1.132-.844-1.837-.71l-1.035.196-.748-.741v-.001c-.508-.503-1.244-.667-1.92-.438-.676.233-1.153.819-1.244 1.528l-.133 1.045-.937.482c-.636.328-1.023.976-1.011 1.69.011.718.421 1.352 1.068 1.657zm1.855-2.082c.547-.28.92-.813.999-1.423l.107-.845.604.599c.438.434 1.062.625 1.661.508l.837-.158-.383.76c-.277.548-.266 1.197.029 1.737l.41.746-.843-.129c-.608-.095-1.221.119-1.641.565l-.583.62-.138-.841c-.099-.605-.489-1.123-1.045-1.387l-.77-.363z"/><path d="m85.187 17.482c.41.585 1.099.882 1.813.774l1.04-.16.723.768c.359.382.848.588 1.353.588.184 0 .369-.027.552-.083.684-.209 1.18-.778 1.295-1.483l.17-1.04.953-.449c.646-.306 1.056-.94 1.068-1.655s-.375-1.362-1.011-1.69l-.936-.482-.134-1.045c-.091-.709-.567-1.295-1.243-1.528-.68-.232-1.413-.064-1.921.438l-.748.741-1.034-.195c-.702-.133-1.408.14-1.838.711-.431.571-.498 1.323-.176 1.962l.474.94-.507.924c-.345.625-.304 1.378.107 1.964zm2.216-3.726-.383-.761.834.158c.609.117 1.228-.075 1.663-.507l.605-.6.107.845c.078.611.451 1.144.996 1.422l.757.391-.771.364c-.555.262-.944.78-1.044 1.386l-.138.841-.582-.619c-.355-.378-.849-.588-1.36-.588-.094 0-.188.007-.283.021l-.841.129.409-.747c.296-.539.308-1.187.031-1.735z"/></g></svg>