<svg id="Layer_1" enable-background="new 0 0 128 128" height="512" viewBox="0 0 128 128" width="512" xmlns="http://www.w3.org/2000/svg"><path d="m96.53 34.647h-17.228l-.272-.272c.424-.804.774-1.648 1.043-2.516h2.53c.987 0 1.791-.803 1.791-1.791v-5.125c0-.988-.804-1.791-1.791-1.791h-2.53c-.268-.866-.618-1.711-1.043-2.516l1.79-1.79c.698-.698.698-1.834 0-2.532l-3.623-3.624c-.678-.678-1.857-.677-2.533 0l-1.791 1.79c-.805-.425-1.649-.775-2.516-1.043v-2.531c0-.988-.804-1.791-1.791-1.791h-5.125c-.987 0-1.791.803-1.791 1.791v2.531c-.866.268-1.712.618-2.516 1.043l-1.79-1.791c-.699-.697-1.834-.699-2.533 0l-3.624 3.624c-.698.698-.698 1.834 0 2.532l1.791 1.791c-.426.804-.776 1.649-1.043 2.516h-2.531c-.987 0-1.791.803-1.791 1.791v5.125c0 .988.804 1.791 1.791 1.791h2.531c.268.867.617 1.711 1.043 2.516l-.273.272h-17.235c-.732 0-1.455.038-2.171.101-.085.007-.17.011-.254.019-.64.063-1.271.156-1.896.267-.17.03-.341.058-.511.091-.539.108-1.071.237-1.597.379-.264.071-.525.144-.785.224-.43.132-.855.275-1.275.43-6.687 2.445-12.016 7.702-14.52 14.441-.129.342-.248.689-.362 1.038-.101.313-.196.627-.284.945-.156.557-.3 1.118-.418 1.69-.023.112-.039.225-.06.338-.127.666-.231 1.339-.303 2.022-.002.021-.007.04-.009.061 0 .002.001.004.001.006-.085.829-.129 1.669-.129 2.52v1.25 4.521 1.194c0 .908.053 1.803.15 2.686.001.008-.003.016-.002.024.006.059.021.115.027.174.08.684.183 1.361.319 2.027.022.111.051.219.074.33.118.542.255 1.076.409 1.604.079.273.163.543.251.812.126.385.262.765.407 1.141.185.484.388.956.601 1.424.08.175.159.351.243.523 1.897 3.911 4.788 7.21 8.339 9.609.017.012.034.023.051.035.502.337 1.015.656 1.542.957v2.372c0 1.515 1.03 2.793 2.449 3.041.875.152 1.765-.086 2.438-.652.674-.567 1.061-1.397 1.061-2.277v-.051c.053.014.106.028.159.041v29.192c0 1.887 1.419 3.501 3.231 3.674 1.004.095 2.011-.236 2.756-.914.744-.677 1.172-1.643 1.172-2.649v-23.882c0-.048.011-.094.027-.134.017.042.027.088.027.134v23.881c0 1.006.428 1.972 1.172 2.649.66.6 1.524.93 2.414.93.114 0 .228-.005.342-.016 1.813-.173 3.231-1.787 3.231-3.674v-17.078-2.201-9.156h22.218c.001 0 .002-.001.003-.001s.002.001.003.001h22.204v9.156 2.201 17.078c0 1.887 1.419 3.501 3.231 3.674 1.005.095 2.011-.236 2.756-.914.744-.677 1.172-1.643 1.172-2.649v-23.881c0-.046.011-.093.027-.134.017.04.027.085.027.134v23.881c0 1.006.428 1.972 1.172 2.649.66.6 1.524.93 2.414.93.114 0 .228-.005.342-.016 1.813-.173 3.231-1.787 3.231-3.674v-29.192c.053-.014.106-.027.159-.041v.051c0 .88.387 1.71 1.061 2.277.672.566 1.564.801 2.438.652 1.419-.247 2.449-1.525 2.449-3.041v-2.376c7.406-4.238 12.411-12.213 12.411-21.34v-6.965c-.001-13.549-11.025-24.573-24.575-24.573zm-34.704-7.653c.206-1.709 1.634-3.261 3.322-3.608.253-.052.511-.077.769-.077 1.494 0 3.011.839 3.738 2.145.601 1.077.663 2.497.165 3.705-.187.452-.44.854-.754 1.192-1.184 1.273-3.265 1.682-4.84.952-1.577-.732-2.609-2.584-2.4-4.309z" fill="#e6e7e8"/><path d="m25.153 71.682c-.531.086-.898.585-.898 1.123v11.827c.706.227 1.426.42 2.159.58v-12.466c-.001-.655-.585-1.174-1.261-1.064z" fill="#fa759e"/><path d="m54.513 51.748c2.646-.005 5.789 1.467 7.491 3.639v-14.491h-2.563c-.437 0-.791-.354-.791-.791v-2.687c0-.346-.224-.656-.556-.754-.92-.273-1.8-.64-2.629-1.09-.305-.165-.682-.106-.927.139l-1.901 1.901c-.309.309-.81.309-1.118 0l-3.624-3.624c-.309-.309-.309-.81 0-1.118l1.225-1.225h-17.65c-13.02 0-23.574 10.555-23.574 23.574v6.965c0 8.98 5.022 16.786 12.411 20.767v-10.404c0-4.681 3.795-8.476 8.476-8.476h7.634c4.681 0 8.476 3.795 8.476 8.476v4.459h5.101c1.134 0 2.151.849 2.21 1.982.063 1.208-.898 2.207-2.092 2.207h-7.148l-.005-.011c-1.108.021-2.015-.859-2.015-1.962v-6.419c0-.538-.367-1.036-.898-1.123-.676-.11-1.261.409-1.261 1.065v13.013h23.218v-23.753c-1.697 2.169-4.824 3.646-7.463 3.651-3.841.008-6.961-3.099-6.97-6.941-.006-3.841 3.101-6.961 6.943-6.969zm-22.041 10.533c-2.94 0-5.323-2.383-5.323-5.323s2.383-5.323 5.323-5.323 5.323 2.383 5.323 5.323-2.383 5.323-5.323 5.323z" fill="#fa759e"/><path d="m26.413 85.211v-.865c-.737-.268-1.458-.571-2.159-.909v1.193c.706.228 1.426.42 2.159.581z" fill="#fff"/><path d="m20.307 81.031c-5.715-4.302-9.411-11.141-9.411-18.845v-6.965c0-13.02 10.555-23.574 23.574-23.574h-3c-13.02 0-23.574 10.555-23.574 23.574v6.965c0 8.98 5.022 16.786 12.411 20.767z" fill="#fff"/><path d="m98.847 71.682c-.676-.11-1.261.409-1.261 1.065v12.465c.733-.16 1.453-.353 2.159-.58v-11.828c.001-.538-.367-1.036-.898-1.122z" fill="#ffd7e5"/><path d="m92.53 31.646h-17.642l1.225 1.225c.309.309.309.81 0 1.118l-3.624 3.624c-.309.309-.81.309-1.118 0l-1.901-1.901c-.245-.245-.623-.305-.927-.139-.828.45-1.708.817-2.629 1.09-.332.098-.556.408-.556.754v2.687c0 .437-.354.791-.791.791h-2.563v14.492c-1.702-2.172-4.845-3.645-7.491-3.639-3.841.008-6.949 3.128-6.941 6.969s3.129 6.949 6.97 6.941c2.639-.005 5.766-1.482 7.463-3.651v23.753h.006 23.204v-13.014c0-.656-.584-1.175-1.261-1.065-.531.086-.898.585-.898 1.123v6.419c0 1.103-.907 1.984-2.015 1.962l-.005.011h-7.148c-1.194 0-2.155-.999-2.092-2.207.059-1.133 1.076-1.982 2.21-1.982h5.101v-4.459c0-4.681 3.795-8.476 8.476-8.476h7.634c4.681 0 8.476 3.795 8.476 8.476v10.404c7.388-3.98 12.411-11.786 12.411-20.767v-6.965c0-13.019-10.554-23.574-23.574-23.574zm-1.002 30.635c-2.94 0-5.323-2.383-5.323-5.323s2.383-5.323 5.323-5.323 5.323 2.383 5.323 5.323-2.383 5.323-5.323 5.323z" fill="#ffd7e5"/><path d="m79.395 26.068v-5.125c0-.437-.354-.791-.791-.791h-2.687c-.346 0-.656-.224-.754-.556-.273-.92-.64-1.8-1.09-2.629-.165-.305-.106-.682.139-.927l1.901-1.901c.309-.309.309-.81 0-1.118l-3.624-3.624c-.309-.309-.81-.309-1.118 0l-1.901 1.901c-.245.245-.623.305-.927.139-.829-.45-1.708-.817-2.629-1.09-.332-.098-.556-.408-.556-.754v-2.688c0-.437-.354-.791-.791-.791h-5.125c-.437 0-.791.354-.791.791v2.687c0 .346-.224.656-.556.754-.92.273-1.8.64-2.629 1.09-.305.165-.682.106-.927-.139l-1.901-1.901c-.309-.309-.81-.309-1.118 0l-3.624 3.624c-.309.309-.309.81 0 1.118l1.901 1.901c.245.245.305.623.139.927-.45.829-.817 1.708-1.09 2.629-.098.332-.408.556-.754.556h-2.687c-.437 0-.791.354-.791.791v5.125c0 .437.354.791.791.791h2.687c.346 0 .656.224.754.556.273.92.64 1.8 1.09 2.629.165.305.106.682-.139.927l-1.901 1.901c-.309.309-.309.81 0 1.118l3.624 3.624c.309.309.81.309 1.118 0l1.901-1.901c.245-.245.623-.305.927-.139.829.45 1.708.817 2.629 1.09.332.098.556.408.556.754v2.687c0 .437.354.791.791.791h5.125c.437 0 .791-.354.791-.791v-2.687c0-.346.224-.656.556-.754.92-.273 1.8-.64 2.629-1.09.305-.165.682-.106.927.139l1.901 1.901c.309.309.81.309 1.118 0l3.624-3.624c.309-.309.309-.81 0-1.118l-1.901-1.901c-.245-.245-.305-.623-.139-.927.45-.829.817-1.708 1.09-2.629.098-.332.408-.556.754-.556h2.687c.437 0 .791-.354.791-.79zm-12.649-.529c-.226.547-.543 1.056-.947 1.491-1.481 1.595-4.018 2.094-5.993 1.179-1.974-.915-3.233-3.174-2.973-5.335.259-2.147 1.996-4.032 4.114-4.468 2.147-.442 4.516.646 5.583 2.561.769 1.381.816 3.115.216 4.572z" fill="#0089ef"/><g fill="#6dc9f7"><path d="m32.472 51.635c-2.94 0-5.323 2.383-5.323 5.323s2.383 5.323 5.323 5.323 5.323-2.383 5.323-5.323-2.383-5.323-5.323-5.323z"/><path d="m49.994 77.007h-5.101v-4.459c0-4.681-3.795-8.476-8.476-8.476-.818 0-6.817 0-7.634 0-4.681 0-8.476 3.795-8.476 8.476v13.353c0 .977.657 1.888 1.62 2.055 1.246.216 2.327-.737 2.327-1.943v-13.209c0-.538.367-1.036.898-1.123.676-.11 1.261.409 1.261 1.065v42.449c0 1.347.985 2.551 2.326 2.678 1.539.147 2.833-1.059 2.833-2.568v-23.88c0-.604.413-1.164 1.009-1.261.01-.002.026-.002.036 0 .596.097 1.009.657 1.009 1.261v23.881c0 1.508 1.295 2.714 2.833 2.568 1.341-.128 2.326-1.331 2.326-2.678v-42.45c0-.656.584-1.175 1.261-1.065.531.086.898.585.898 1.123v6.419c0 1.103.907 1.984 2.015 1.962l.005.011h7.148c1.194 0 2.155-.999 2.092-2.207-.059-1.132-1.076-1.982-2.21-1.982z"/><path d="m91.528 51.635c-2.94 0-5.323 2.383-5.323 5.323s2.383 5.323 5.323 5.323 5.323-2.383 5.323-5.323-2.383-5.323-5.323-5.323z"/><path d="m74.006 77.007h5.101v-4.459c0-4.681 3.795-8.476 8.476-8.476h7.634c4.681 0 8.476 3.795 8.476 8.476v13.353c0 .977-.657 1.888-1.62 2.055-1.246.216-2.327-.737-2.327-1.943v-13.209c0-.538-.367-1.036-.898-1.123-.676-.11-1.261.409-1.261 1.065v42.449c0 1.347-.985 2.551-2.326 2.678-1.539.147-2.833-1.059-2.833-2.568v-23.88c0-.604-.413-1.164-1.009-1.261-.01-.002-.026-.002-.036 0-.596.097-1.009.657-1.009 1.261v23.881c0 1.508-1.295 2.714-2.833 2.568-1.341-.128-2.326-1.331-2.326-2.678v-42.45c0-.656-.584-1.175-1.261-1.065-.531.086-.898.585-.898 1.123v6.419c0 1.103-.907 1.984-2.015 1.962l-.005.011h-7.148c-1.194 0-2.155-.999-2.092-2.207.059-1.132 1.076-1.982 2.21-1.982z"/></g><path d="m7.896 61.992c.553 0 1-.448 1-1v-4.521c0-.552-.447-1-1-1s-1 .448-1 1v4.521c0 .552.447 1 1 1z" fill="#3a2c60"/><path d="m92.53 30.646h-17.228l-.272-.272c.424-.804.774-1.648 1.043-2.516h2.53c.987 0 1.791-.803 1.791-1.791v-5.125c0-.987-.804-1.791-1.791-1.791h-2.53c-.268-.866-.618-1.71-1.043-2.516l1.791-1.791c.696-.698.696-1.833-.001-2.532l-3.625-3.625c-.699-.696-1.834-.696-2.531.001l-1.791 1.791c-.803-.425-1.648-.775-2.516-1.043v-2.531c0-.987-.804-1.791-1.791-1.791h-5.125c-.987 0-1.791.803-1.791 1.791v2.531c-.868.268-1.714.619-2.516 1.043l-1.791-1.792c-.696-.696-1.832-.697-2.532.001l-3.625 3.625c-.696.698-.696 1.833.001 2.532l1.791 1.791c-.426.805-.776 1.65-1.043 2.516h-2.531c-.987 0-1.791.803-1.791 1.791v5.125c0 .987.804 1.791 1.791 1.791h2.531c.268.867.617 1.712 1.043 2.516l-.272.272h-17.236c-12.652 0-23.162 9.479-24.446 22.048-.056.549.344 1.04.894 1.096.541.063 1.04-.343 1.097-.893 1.18-11.545 10.833-20.251 22.456-20.251h15.383c-.326.668-.22 1.496.334 2.051l3.625 3.625c.696.695 1.832.696 2.532-.001l1.79-1.79c.802.424 1.646.774 2.516 1.043v2.531c0 .988.804 1.791 1.791 1.791h1.563v11.142c-1.862-1.404-4.271-2.29-6.475-2.29-.007 0-.013 0-.019 0-2.125.004-4.121.836-5.621 2.341-1.499 1.505-2.322 3.505-2.318 5.63.01 4.381 3.577 7.938 7.955 7.938h.017c2.197-.004 4.603-.894 6.461-2.299v20.4h-21.219v-12.013l.099-.079c.018.008.061.064.061.136v6.419c0 .801.314 1.55.886 2.111.533.522 1.227.82 1.969.849.054.009.109.014.165.014h7.029c1.713 0 3.122-1.287 3.209-2.93.045-.858-.256-1.673-.846-2.295-.582-.613-1.4-.965-2.245-.965h-4.22v-3.458c0-5.225-4.251-9.476-9.476-9.476h-2.365c2.723-.705 4.743-3.175 4.743-6.115 0-3.487-2.837-6.323-6.323-6.323s-6.323 2.836-6.323 6.323c0 2.94 2.02 5.411 4.743 6.115h-2.109c-5.225 0-9.476 4.251-9.476 9.476v8.642c-5.574-3.561-9.505-9.499-10.275-16.514-.062-.549-.552-.946-1.104-.885-.549.061-.945.554-.885 1.103.887 8.084 5.624 14.864 12.264 18.641v2.366c0 1.515 1.03 2.794 2.449 3.04.877.151 1.765-.085 2.438-.652s1.06-1.396 1.06-2.276v-.087c.053.014.106.027.159.041v29.228c0 1.887 1.419 3.501 3.231 3.674.113.011.228.016.341.016.89 0 1.755-.33 2.415-.93.745-.677 1.172-1.643 1.172-2.649v-23.881c0-.047.01-.091.027-.131.017.041.026.086.026.131v23.881c0 1.006.427 1.972 1.172 2.649.744.677 1.756 1.01 2.757.915 1.813-.173 3.231-1.787 3.231-3.674v-17.078-2.201-9.157h22.218c.001 0 .002-.001.003-.001s.002.001.003.001h22.204v9.157 2.201 17.078c0 1.887 1.419 3.501 3.231 3.674.113.011.228.016.341.016.89 0 1.755-.33 2.415-.93.745-.677 1.172-1.643 1.172-2.649v-23.882c0-.047.01-.091.027-.131.017.041.026.086.026.131v23.881c0 1.006.427 1.972 1.172 2.649.744.677 1.753 1.01 2.757.915 1.813-.173 3.231-1.787 3.231-3.674v-29.22c.053-.014.106-.027.159-.041v.078c0 .88.387 1.709 1.06 2.276.673.566 1.561.803 2.438.652 1.419-.246 2.449-1.525 2.449-3.04v-2.391c7.403-4.238 12.411-12.201 12.411-21.325v-6.965c.003-13.55-11.022-24.574-24.572-24.574zm-64.382 26.312c0-2.384 1.939-4.323 4.323-4.323s4.323 1.939 4.323 4.323-1.939 4.323-4.323 4.323-4.323-1.939-4.323-4.323zm-2.894 26.885v-11.039c0-.072.043-.128.06-.136l-.161-.987.261 1.065v11.142c-.054-.015-.107-.029-.16-.045zm12.532 31.352c0 .868-.624 1.607-1.421 1.683-.459.046-.889-.101-1.222-.403-.334-.303-.518-.719-.518-1.169v-23.881c0-1.11-.795-2.077-1.813-2.242-.118-.024-.275-.026-.394-.006-1.054.172-1.848 1.138-1.848 2.248v23.881c0 .451-.184.866-.518 1.169-.332.303-.757.45-1.221.403-.797-.076-1.421-.815-1.421-1.683v-42.449c0-.611-.267-1.188-.732-1.584-.379-.322-.856-.495-1.35-.495-.112 0-.227.009-.34.028-.99.161-1.737 1.068-1.737 2.109v13.209c0 .288-.127.56-.348.746-.224.188-.513.264-.809.211-.443-.077-.791-.546-.791-1.069v-13.352c0-4.122 3.354-7.476 7.476-7.476h7.635c4.122 0 7.476 3.354 7.476 7.476v4.458c0 .552.447 1 1 1h5.22c.304 0 .586.121.795.341.208.22.314.509.298.813-.029.571-.573 1.035-1.211 1.035h-6.881c-.057-.009-.115-.01-.173-.012-.316.018-.521-.094-.709-.279-.185-.181-.286-.424-.286-.683v-6.419c0-1.041-.747-1.948-1.738-2.11-.609-.097-1.224.072-1.688.468-.466.396-.732.974-.732 1.584v23.17 2.201 17.079zm20.593-79.49c-.844-.251-1.663-.59-2.436-1.01-.689-.375-1.558-.245-2.112.311l-1.753 1.753-3.328-3.329 1.753-1.753c.556-.556.684-1.423.312-2.112-.421-.774-.761-1.594-1.011-2.437-.222-.749-.927-1.271-1.713-1.271h-2.478v-4.707h2.478c.786 0 1.491-.523 1.714-1.272.249-.841.589-1.661 1.01-2.437.372-.687.244-1.555-.312-2.11l-1.754-1.753 3.329-3.329 1.753 1.753c.555.556 1.423.685 2.112.311.772-.42 1.592-.759 2.437-1.01.748-.222 1.271-.927 1.271-1.713v-2.475h4.707v2.478c0 .786.522 1.49 1.271 1.713.844.25 1.663.589 2.437 1.01.687.371 1.557.244 2.111-.312l1.753-1.753 3.329 3.328-1.754 1.753c-.557.557-.685 1.425-.311 2.111.42.775.76 1.595 1.01 2.435.221.75.925 1.274 1.713 1.274h2.478v4.707h-2.478c-.788 0-1.492.524-1.713 1.271-.25.842-.59 1.662-1.009 2.435-.375.688-.247 1.556.31 2.113l1.753 1.753-3.328 3.328-1.753-1.753c-.556-.556-1.423-.686-2.112-.311-.772.42-1.592.759-2.436 1.01-.749.222-1.271.926-1.271 1.713v2.478h-4.708v-2.478c0-.787-.523-1.492-1.271-1.713zm40.208 48.194v-11.153l.099-.079c.018.008.061.064.061.136v11.05c-.054.016-.107.031-.16.046zm4.106 2.003c0 .523-.348.993-.791 1.069-.296.053-.584-.022-.809-.211-.221-.186-.348-.458-.348-.746v-13.21c0-1.041-.747-1.948-1.738-2.11-.611-.097-1.224.072-1.688.468-.466.396-.732.974-.732 1.584v42.449c0 .868-.624 1.607-1.421 1.683-.46.046-.889-.101-1.222-.403-.334-.303-.518-.719-.518-1.169v-23.881c0-1.11-.795-2.077-1.813-2.242-.119-.024-.275-.026-.394-.006-1.054.172-1.848 1.138-1.848 2.248v23.881c0 .451-.184.866-.518 1.169-.333.303-.759.45-1.221.403-.797-.076-1.421-.815-1.421-1.683v-17.077-2.201-23.17c0-.611-.267-1.188-.732-1.584-.379-.322-.856-.495-1.35-.495-.112 0-.227.009-.34.028-.99.161-1.737 1.068-1.737 2.109v6.419c0 .259-.102.502-.286.683-.188.185-.399.295-.709.279-.067-.001-.113.003-.169.012h-6.885c-.638 0-1.182-.464-1.211-1.035-.017-.305.09-.594.298-.814.209-.22.491-.341.795-.341h5.22c.553 0 1-.448 1-1v-4.458c0-4.122 3.354-7.476 7.476-7.476h7.635c4.122 0 7.476 3.354 7.476 7.476v13.352zm12.412-23.716c0 7.969-4.158 14.975-10.411 18.993v-8.63c0-5.225-4.251-9.476-9.476-9.476h-2.11c2.723-.705 4.743-3.175 4.743-6.115 0-3.487-2.837-6.323-6.323-6.323s-6.322 2.836-6.322 6.323c0 2.94 2.019 5.411 4.742 6.115h-2.364c-5.225 0-9.476 4.251-9.476 9.476v3.458h-4.22c-.845 0-1.663.352-2.245.965-.59.622-.891 1.437-.846 2.295.087 1.643 1.496 2.93 3.209 2.93h7.029c.055 0 .108-.004.16-.014.744-.028 1.439-.326 1.974-.849.571-.561.886-1.31.886-2.111v-6.419c0-.072.041-.128.131-.119.019.016.028.037.028.061v12.014h-21.21v-22.753c0-.427-.271-.807-.674-.945s-.851-.008-1.114.329c-1.477 1.889-4.285 3.263-6.677 3.268-.004 0-.008 0-.013 0-3.277 0-5.947-2.664-5.955-5.943-.003-1.591.613-3.087 1.735-4.214 1.123-1.127 2.617-1.75 4.208-1.753h.015c2.397 0 5.208 1.368 6.688 3.255.263.336.709.468 1.113.329.403-.139.674-.519.674-.945v-13.492h1.563c.987 0 1.791-.803 1.791-1.791v-2.531c.868-.269 1.713-.619 2.516-1.043l1.791 1.79c.696.696 1.832.697 2.532 0l3.625-3.625c.554-.555.66-1.382.333-2.05h15.375c12.447 0 22.574 10.127 22.574 22.574v6.966zm-23.578-.905c-2.384 0-4.322-1.939-4.322-4.323s1.938-4.323 4.322-4.323 4.323 1.939 4.323 4.323-1.939 4.323-4.323 4.323z" fill="#3a2c60"/><path d="m66.531 27.71c.478-.514.86-1.117 1.139-1.791.735-1.785.636-3.819-.268-5.44-1.281-2.299-4.086-3.583-6.657-3.053-2.533.521-4.596 2.762-4.905 5.328-.313 2.589 1.179 5.265 3.545 6.362.799.37 1.669.548 2.541.548 1.713 0 3.43-.687 4.605-1.954zm-8.705-4.716c.206-1.709 1.634-3.261 3.322-3.608.253-.052.511-.077.769-.077 1.494 0 3.011.839 3.738 2.145.601 1.077.663 2.496.165 3.704-.187.452-.44.853-.755 1.192-1.182 1.273-3.264 1.683-4.839.952-1.577-.731-2.609-2.583-2.4-4.308z" fill="#3a2c60"/></svg>