<svg id="Layer_1" enable-background="new 0 0 128 128" height="512" viewBox="0 0 128 128" width="512" xmlns="http://www.w3.org/2000/svg"><path d="m22.177 50.254h-6.687c-1.402 0-2.543 1.141-2.543 2.543v6.687c0 .547.178 1.052.473 1.467-.293.387-.473.863-.473 1.384 0 1.272 1.036 2.308 2.308 2.308h7.158c1.272 0 2.308-1.036 2.308-2.308 0-.521-.18-.997-.473-1.384.295-.415.473-.919.473-1.467v-6.687c-.001-1.402-1.141-2.543-2.544-2.543z" fill="#e6e7e8"/><path d="m35.653 50.254h-6.687c-1.402 0-2.543 1.141-2.543 2.543v6.687c0 .547.178 1.052.473 1.467-.293.387-.473.863-.473 1.384 0 1.272 1.036 2.308 2.308 2.308h7.158c1.272 0 2.308-1.036 2.308-2.308 0-.521-.18-.997-.473-1.384.295-.415.473-.919.473-1.467v-6.687c-.001-1.402-1.141-2.543-2.544-2.543z" fill="#e6e7e8"/><path d="m49.129 50.254h-6.687c-1.402 0-2.543 1.141-2.543 2.543v6.687c0 .547.178 1.052.473 1.467-.293.387-.473.863-.473 1.384 0 1.272 1.036 2.308 2.308 2.308h7.158c1.272 0 2.308-1.036 2.308-2.308 0-.521-.18-.997-.473-1.384.295-.415.473-.919.473-1.467v-6.687c-.001-1.402-1.141-2.543-2.544-2.543z" fill="#e6e7e8"/><path d="m62.606 50.254h-6.687c-1.402 0-2.543 1.141-2.543 2.543v6.687c0 .547.178 1.052.473 1.467-.293.387-.473.863-.473 1.384 0 1.272 1.036 2.308 2.308 2.308h7.158c1.272 0 2.308-1.036 2.308-2.308 0-.521-.18-.997-.473-1.384.295-.415.473-.919.473-1.467v-6.687c-.001-1.402-1.142-2.543-2.544-2.543z" fill="#e6e7e8"/><path d="m76.082 50.254h-6.688c-1.402 0-2.543 1.141-2.543 2.543v6.687c0 .547.178 1.052.473 1.467-.293.387-.473.863-.473 1.384 0 1.272 1.035 2.308 2.308 2.308h7.157c1.273 0 2.309-1.036 2.309-2.308 0-.521-.18-.997-.473-1.384.295-.415.473-.919.473-1.467v-6.687c0-1.402-1.141-2.543-2.543-2.543z" fill="#e6e7e8"/><path d="m89.558 50.254h-6.687c-1.402 0-2.544 1.141-2.544 2.543v6.687c0 .547.178 1.052.473 1.467-.293.387-.473.863-.473 1.384 0 1.272 1.035 2.308 2.309 2.308h7.157c1.272 0 2.308-1.036 2.308-2.308 0-.521-.18-.997-.473-1.384.295-.415.473-.919.473-1.467v-6.687c0-1.402-1.141-2.543-2.543-2.543z" fill="#e6e7e8"/><path d="m103.034 50.254h-6.688c-1.402 0-2.543 1.141-2.543 2.543v6.687c0 .547.178 1.052.473 1.467-.293.387-.473.863-.473 1.384 0 1.272 1.035 2.308 2.308 2.308h7.158c1.272 0 2.308-1.036 2.308-2.308 0-.521-.18-.997-.473-1.384.295-.415.473-.919.473-1.467v-6.687c0-1.402-1.14-2.543-2.543-2.543z" fill="#e6e7e8"/><path d="m119.053 52.797c0-1.402-1.141-2.543-2.543-2.543h-6.687c-1.402 0-2.544 1.141-2.544 2.543v6.687c0 .547.178 1.052.473 1.467-.293.387-.473.863-.473 1.384 0 1.272 1.035 2.308 2.309 2.308h7.157c1.272 0 2.308-1.036 2.308-2.308 0-.521-.18-.997-.473-1.384.295-.415.473-.919.473-1.467z" fill="#e6e7e8"/><path d="m22.177 66.434h-6.687c-1.402 0-2.543 1.141-2.543 2.543v6.688c0 .547.178 1.052.473 1.467-.293.387-.473.863-.473 1.384 0 1.272 1.036 2.308 2.308 2.308h7.158c1.272 0 2.308-1.035 2.308-2.308 0-.521-.18-.997-.473-1.384.295-.415.473-.919.473-1.467v-6.688c-.001-1.403-1.141-2.543-2.544-2.543z" fill="#e6e7e8"/><path d="m35.653 66.434h-6.687c-1.402 0-2.543 1.141-2.543 2.543v6.688c0 .547.178 1.052.473 1.467-.293.387-.473.863-.473 1.384 0 1.272 1.036 2.308 2.308 2.308h7.158c1.272 0 2.308-1.035 2.308-2.308 0-.521-.18-.997-.473-1.384.295-.415.473-.919.473-1.467v-6.688c-.001-1.403-1.141-2.543-2.544-2.543z" fill="#e6e7e8"/><path d="m49.129 66.434h-6.687c-1.402 0-2.543 1.141-2.543 2.543v6.688c0 .547.178 1.052.473 1.467-.293.387-.473.863-.473 1.384 0 1.272 1.036 2.308 2.308 2.308h7.158c1.272 0 2.308-1.035 2.308-2.308 0-.521-.18-.997-.473-1.384.295-.415.473-.919.473-1.467v-6.688c-.001-1.403-1.141-2.543-2.544-2.543z" fill="#e6e7e8"/><path d="m62.606 66.434h-6.687c-1.402 0-2.543 1.141-2.543 2.543v6.688c0 .547.178 1.052.473 1.467-.293.387-.473.863-.473 1.384 0 1.272 1.036 2.308 2.308 2.308h7.158c1.272 0 2.308-1.035 2.308-2.308 0-.521-.18-.997-.473-1.384.295-.415.473-.919.473-1.467v-6.688c-.001-1.403-1.142-2.543-2.544-2.543z" fill="#e6e7e8"/><path d="m76.082 66.434h-6.688c-1.402 0-2.543 1.141-2.543 2.543v6.688c0 .547.178 1.052.473 1.467-.293.387-.473.863-.473 1.384 0 1.272 1.035 2.308 2.308 2.308h7.157c1.273 0 2.309-1.035 2.309-2.308 0-.521-.18-.997-.473-1.384.295-.415.473-.919.473-1.467v-6.688c0-1.403-1.141-2.543-2.543-2.543z" fill="#e6e7e8"/><path d="m89.558 66.434h-6.687c-1.402 0-2.544 1.141-2.544 2.543v6.688c0 .547.178 1.052.473 1.467-.293.387-.473.863-.473 1.384 0 1.272 1.035 2.308 2.309 2.308h7.157c1.272 0 2.308-1.035 2.308-2.308 0-.521-.18-.997-.473-1.384.295-.415.473-.919.473-1.467v-6.688c0-1.403-1.141-2.543-2.543-2.543z" fill="#e6e7e8"/><path d="m103.034 66.434h-6.688c-1.402 0-2.543 1.141-2.543 2.543v6.688c0 .547.178 1.052.473 1.467-.293.387-.473.863-.473 1.384 0 1.272 1.035 2.308 2.308 2.308h7.158c1.272 0 2.308-1.035 2.308-2.308 0-.521-.18-.997-.473-1.384.295-.415.473-.919.473-1.467v-6.688c0-1.403-1.14-2.543-2.543-2.543z" fill="#e6e7e8"/><path d="m116.51 66.434h-6.687c-1.402 0-2.544 1.141-2.544 2.543v6.688c0 .547.178 1.052.473 1.467-.293.387-.473.863-.473 1.384 0 1.272 1.035 2.308 2.309 2.308h7.157c1.272 0 2.308-1.035 2.308-2.308 0-.521-.18-.997-.473-1.384.295-.415.473-.919.473-1.467v-6.688c0-1.403-1.141-2.543-2.543-2.543z" fill="#e6e7e8"/><path d="m22.177 85.613h-6.687c-1.402 0-2.543 1.141-2.543 2.543v6.687c0 .547.178 1.052.473 1.467-.293.387-.473.863-.473 1.384 0 1.272 1.036 2.308 2.308 2.308h7.158c1.272 0 2.308-1.036 2.308-2.308 0-.521-.18-.997-.473-1.384.295-.415.473-.92.473-1.467v-6.687c-.001-1.402-1.141-2.543-2.544-2.543z" fill="#e6e7e8"/><path d="m35.653 85.613h-6.687c-1.402 0-2.543 1.141-2.543 2.543v6.687c0 .547.178 1.052.473 1.467-.293.387-.473.863-.473 1.384 0 1.272 1.036 2.308 2.308 2.308h7.158c1.272 0 2.308-1.036 2.308-2.308 0-.521-.18-.997-.473-1.384.295-.415.473-.92.473-1.467v-6.687c-.001-1.402-1.141-2.543-2.544-2.543z" fill="#e6e7e8"/><path d="m49.129 85.613h-6.687c-1.402 0-2.543 1.141-2.543 2.543v6.687c0 .547.178 1.052.473 1.467-.293.387-.473.863-.473 1.384 0 1.272 1.036 2.308 2.308 2.308h7.158c1.272 0 2.308-1.036 2.308-2.308 0-.521-.18-.997-.473-1.384.295-.415.473-.92.473-1.467v-6.687c-.001-1.402-1.141-2.543-2.544-2.543z" fill="#e6e7e8"/><path d="m62.606 85.613h-6.687c-1.402 0-2.543 1.141-2.543 2.543v6.687c0 .547.178 1.052.473 1.467-.293.387-.473.863-.473 1.384 0 1.272 1.036 2.308 2.308 2.308h7.158c1.272 0 2.308-1.036 2.308-2.308 0-.521-.18-.997-.473-1.384.295-.415.473-.92.473-1.467v-6.687c-.001-1.402-1.142-2.543-2.544-2.543z" fill="#e6e7e8"/><path d="m76.082 85.613h-6.688c-1.402 0-2.543 1.141-2.543 2.543v6.687c0 .547.178 1.052.473 1.467-.293.387-.473.863-.473 1.384 0 1.272 1.035 2.308 2.308 2.308h7.157c1.273 0 2.309-1.036 2.309-2.308 0-.521-.18-.997-.473-1.384.295-.415.473-.92.473-1.467v-6.687c0-1.402-1.141-2.543-2.543-2.543z" fill="#e6e7e8"/><path d="m89.558 85.613h-6.687c-1.402 0-2.544 1.141-2.544 2.543v6.687c0 .547.178 1.052.473 1.467-.293.387-.473.863-.473 1.384 0 1.272 1.035 2.308 2.309 2.308h7.157c1.272 0 2.308-1.036 2.308-2.308 0-.521-.18-.997-.473-1.384.295-.415.473-.92.473-1.467v-6.687c0-1.402-1.141-2.543-2.543-2.543z" fill="#e6e7e8"/><path d="m103.034 85.613h-6.688c-1.402 0-2.543 1.141-2.543 2.543v6.687c0 .547.178 1.052.473 1.467-.293.387-.473.863-.473 1.384 0 1.272 1.035 2.308 2.308 2.308h7.158c1.272 0 2.308-1.036 2.308-2.308 0-.521-.18-.997-.473-1.384.295-.415.473-.92.473-1.467v-6.687c0-1.402-1.14-2.543-2.543-2.543z" fill="#e6e7e8"/><path d="m116.51 85.613h-6.687c-1.402 0-2.544 1.141-2.544 2.543v6.687c0 .547.178 1.052.473 1.467-.293.387-.473.863-.473 1.384 0 1.272 1.035 2.308 2.309 2.308h7.157c1.272 0 2.308-1.036 2.308-2.308 0-.521-.18-.997-.473-1.384.295-.415.473-.92.473-1.467v-6.687c0-1.402-1.141-2.543-2.543-2.543z" fill="#e6e7e8"/><path d="m22.177 101.792h-6.687c-1.402 0-2.543 1.141-2.543 2.543v6.687c0 .547.178 1.052.473 1.467-.293.387-.473.863-.473 1.384 0 1.272 1.036 2.308 2.308 2.308h7.158c1.272 0 2.308-1.036 2.308-2.308 0-.521-.18-.997-.473-1.384.295-.415.473-.919.473-1.467v-6.687c-.001-1.401-1.141-2.543-2.544-2.543z" fill="#e6e7e8"/><path d="m35.653 101.792h-6.687c-1.402 0-2.543 1.141-2.543 2.543v6.687c0 .547.178 1.052.473 1.467-.293.387-.473.863-.473 1.384 0 1.272 1.036 2.308 2.308 2.308h7.158c1.272 0 2.308-1.036 2.308-2.308 0-.521-.18-.997-.473-1.384.295-.415.473-.919.473-1.467v-6.687c-.001-1.401-1.141-2.543-2.544-2.543z" fill="#e6e7e8"/><path d="m49.129 101.792h-6.687c-1.402 0-2.543 1.141-2.543 2.543v6.687c0 .547.178 1.052.473 1.467-.293.387-.473.863-.473 1.384 0 1.272 1.036 2.308 2.308 2.308h7.158c1.272 0 2.308-1.036 2.308-2.308 0-.521-.18-.997-.473-1.384.295-.415.473-.919.473-1.467v-6.687c-.001-1.401-1.141-2.543-2.544-2.543z" fill="#e6e7e8"/><path d="m62.606 101.792h-6.687c-1.402 0-2.543 1.141-2.543 2.543v6.687c0 .547.178 1.052.473 1.467-.293.387-.473.863-.473 1.384 0 1.272 1.036 2.308 2.308 2.308h7.158c1.272 0 2.308-1.036 2.308-2.308 0-.521-.18-.997-.473-1.384.295-.415.473-.919.473-1.467v-6.687c-.001-1.401-1.142-2.543-2.544-2.543z" fill="#e6e7e8"/><path d="m76.082 101.792h-6.688c-1.402 0-2.543 1.141-2.543 2.543v6.687c0 .547.178 1.052.473 1.467-.293.387-.473.863-.473 1.384 0 1.272 1.035 2.308 2.308 2.308h7.157c1.273 0 2.309-1.036 2.309-2.308 0-.521-.18-.997-.473-1.384.295-.415.473-.919.473-1.467v-6.687c0-1.401-1.141-2.543-2.543-2.543z" fill="#e6e7e8"/><path d="m89.558 101.792h-6.687c-1.402 0-2.544 1.141-2.544 2.543v6.687c0 .547.178 1.052.473 1.467-.293.387-.473.863-.473 1.384 0 1.272 1.035 2.308 2.309 2.308h7.157c1.272 0 2.308-1.036 2.308-2.308 0-.521-.18-.997-.473-1.384.295-.415.473-.919.473-1.467v-6.687c0-1.401-1.141-2.543-2.543-2.543z" fill="#e6e7e8"/><path d="m103.034 101.792h-6.688c-1.402 0-2.543 1.141-2.543 2.543v6.687c0 .547.178 1.052.473 1.467-.293.387-.473.863-.473 1.384 0 1.272 1.035 2.308 2.308 2.308h7.158c1.272 0 2.308-1.036 2.308-2.308 0-.521-.18-.997-.473-1.384.295-.415.473-.919.473-1.467v-6.687c0-1.401-1.14-2.543-2.543-2.543z" fill="#e6e7e8"/><path d="m116.51 101.792h-6.687c-1.402 0-2.544 1.141-2.544 2.543v6.687c0 .547.178 1.052.473 1.467-.293.387-.473.863-.473 1.384 0 1.272 1.035 2.308 2.309 2.308h7.157c1.272 0 2.308-1.036 2.308-2.308 0-.521-.18-.997-.473-1.384.295-.415.473-.919.473-1.467v-6.687c0-1.401-1.141-2.543-2.543-2.543z" fill="#e6e7e8"/><path d="m31.541 32.141c.521 0 .997-.18 1.384-.473.415.295.92.473 1.467.473h6.687c1.402 0 2.543-1.141 2.543-2.543v-6.687c0-1.402-1.141-2.543-2.543-2.543h-6.687c-.547 0-1.052.178-1.467.473-.387-.293-.863-.473-1.384-.473-1.272 0-2.308 1.035-2.308 2.308v7.158c0 1.271 1.036 2.307 2.308 2.307z" fill="#e6e7e8"/><path d="m31.541 45.617c.521 0 .997-.18 1.384-.473.415.295.92.473 1.467.473h6.687c1.402 0 2.543-1.141 2.543-2.543v-6.688c0-1.402-1.141-2.543-2.543-2.543h-6.687c-.547 0-1.052.178-1.467.473-.387-.293-.863-.473-1.384-.473-1.272 0-2.308 1.036-2.308 2.308v7.157c0 1.273 1.036 2.309 2.308 2.309z" fill="#e6e7e8"/><path d="m15.361 32.141c.521 0 .997-.18 1.384-.473.415.295.92.473 1.467.473h6.688c1.402 0 2.543-1.141 2.543-2.543v-6.687c0-1.402-1.141-2.543-2.543-2.543h-6.688c-.547 0-1.052.178-1.467.473-.387-.293-.863-.473-1.384-.473-1.272 0-2.308 1.035-2.308 2.308v7.158c.001 1.271 1.036 2.307 2.308 2.307z" fill="#e6e7e8"/><path d="m27.443 43.074v-6.688c0-1.402-1.141-2.543-2.543-2.543h-6.688c-.547 0-1.052.178-1.467.473-.387-.293-.863-.473-1.384-.473-1.272 0-2.308 1.036-2.308 2.308v7.157c0 1.272 1.035 2.308 2.308 2.308.521 0 .997-.18 1.384-.473.415.295.92.473 1.467.473h6.688c1.402.001 2.543-1.139 2.543-2.542z" fill="#e6e7e8"/><path d="m90.921 45.617h6.688c.547 0 1.051-.178 1.467-.473.387.293.863.473 1.384.473 1.272 0 2.308-1.036 2.308-2.308v-7.157c0-1.272-1.035-2.308-2.308-2.308-.521 0-.997.18-1.384.473-.415-.295-.92-.473-1.467-.473h-6.688c-1.402 0-2.543 1.141-2.543 2.543v6.688c0 1.402 1.141 2.542 2.543 2.542z" fill="#e6e7e8"/><path d="m90.921 32.141h6.688c.547 0 1.051-.178 1.467-.473.387.293.863.473 1.384.473 1.272 0 2.308-1.036 2.308-2.308v-7.158c0-1.272-1.035-2.308-2.308-2.308-.521 0-.997.18-1.384.473-.415-.295-.919-.473-1.467-.473h-6.688c-1.402 0-2.543 1.141-2.543 2.543v6.687c0 1.403 1.141 2.544 2.543 2.544z" fill="#e6e7e8"/><path d="m115.255 45.144c.387.293.863.473 1.384.473 1.272 0 2.308-1.036 2.308-2.308v-7.157c0-1.272-1.035-2.308-2.308-2.308-.521 0-.997.18-1.384.473-.416-.295-.92-.473-1.467-.473h-6.687c-1.402 0-2.543 1.141-2.543 2.543v6.688c0 1.402 1.141 2.543 2.543 2.543h6.687c.547-.001 1.051-.179 1.467-.474z" fill="#e6e7e8"/><path d="m107.101 32.141h6.687c.547 0 1.052-.178 1.467-.473.387.293.863.473 1.384.473 1.272 0 2.308-1.036 2.308-2.308v-7.158c0-1.272-1.035-2.308-2.308-2.308-.521 0-.997.18-1.384.473-.416-.295-.92-.473-1.467-.473h-6.687c-1.402 0-2.543 1.141-2.543 2.543v6.687c0 1.403 1.14 2.544 2.543 2.544z" fill="#e6e7e8"/><path d="m49.317 45.617h33.366c1.721 0 3.121-1.4 3.121-3.121v-23.558c0-1.721-1.4-3.121-3.121-3.121h-15.938-4.085-13.343c-1.721 0-3.121 1.4-3.121 3.121v23.558c0 1.721 1.4 3.121 3.121 3.121z" fill="#e6e7e8"/><path d="m19.72 48.797v6.687c0 .852-.691 1.543-1.543 1.543h-6.687c-.852 0-1.543-.691-1.543-1.543v-6.687c0-.852.691-1.543 1.543-1.543h6.687c.853 0 1.543.691 1.543 1.543z" fill="#6dc9f7"/><path d="m19.72 58.335c0 .722-.586 1.308-1.308 1.308h-7.158c-.722 0-1.308-.586-1.308-1.308 0-.722.586-1.308 1.308-1.308h7.158c.723 0 1.308.586 1.308 1.308z" fill="#0089ef"/><path d="m33.197 48.797v6.687c0 .852-.691 1.543-1.543 1.543h-6.687c-.852 0-1.543-.691-1.543-1.543v-6.687c0-.852.691-1.543 1.543-1.543h6.687c.852 0 1.543.691 1.543 1.543z" fill="#6dc9f7"/><path d="m33.197 58.335c0 .722-.586 1.308-1.308 1.308h-7.158c-.722 0-1.308-.586-1.308-1.308 0-.722.586-1.308 1.308-1.308h7.158c.722 0 1.308.586 1.308 1.308z" fill="#0089ef"/><path d="m46.673 48.797v6.687c0 .852-.691 1.543-1.543 1.543h-6.687c-.852 0-1.543-.691-1.543-1.543v-6.687c0-.852.691-1.543 1.543-1.543h6.687c.852 0 1.543.691 1.543 1.543z" fill="#6dc9f7"/><path d="m46.673 58.335c0 .722-.586 1.308-1.308 1.308h-7.158c-.722 0-1.308-.586-1.308-1.308 0-.722.586-1.308 1.308-1.308h7.158c.722 0 1.308.586 1.308 1.308z" fill="#0089ef"/><path d="m60.149 48.797v6.687c0 .852-.691 1.543-1.543 1.543h-6.687c-.852 0-1.543-.691-1.543-1.543v-6.687c0-.852.691-1.543 1.543-1.543h6.687c.852 0 1.543.691 1.543 1.543z" fill="#6dc9f7"/><path d="m60.149 58.335c0 .722-.586 1.308-1.308 1.308h-7.158c-.722 0-1.308-.586-1.308-1.308 0-.722.586-1.308 1.308-1.308h7.158c.722 0 1.308.586 1.308 1.308z" fill="#0089ef"/><path d="m73.625 48.797v6.687c0 .852-.691 1.543-1.543 1.543h-6.687c-.852 0-1.543-.691-1.543-1.543v-6.687c0-.852.691-1.543 1.543-1.543h6.687c.852 0 1.543.691 1.543 1.543z" fill="#6dc9f7"/><path d="m73.625 58.335c0 .722-.586 1.308-1.308 1.308h-7.158c-.722 0-1.308-.586-1.308-1.308 0-.722.586-1.308 1.308-1.308h7.158c.722 0 1.308.586 1.308 1.308z" fill="#0089ef"/><path d="m87.101 48.797v6.687c0 .852-.691 1.543-1.543 1.543h-6.687c-.852 0-1.543-.691-1.543-1.543v-6.687c0-.852.691-1.543 1.543-1.543h6.687c.852 0 1.543.691 1.543 1.543z" fill="#6dc9f7"/><path d="m87.101 58.335c0 .722-.586 1.308-1.308 1.308h-7.158c-.722 0-1.308-.586-1.308-1.308 0-.722.586-1.308 1.308-1.308h7.158c.722 0 1.308.586 1.308 1.308z" fill="#0089ef"/><path d="m100.577 48.797v6.687c0 .852-.691 1.543-1.543 1.543h-6.687c-.852 0-1.543-.691-1.543-1.543v-6.687c0-.852.691-1.543 1.543-1.543h6.687c.852 0 1.543.691 1.543 1.543z" fill="#6dc9f7"/><path d="m100.577 58.335c0 .722-.586 1.308-1.308 1.308h-7.158c-.722 0-1.308-.586-1.308-1.308 0-.722.586-1.308 1.308-1.308h7.158c.723 0 1.308.586 1.308 1.308z" fill="#0089ef"/><path d="m114.053 48.797v6.687c0 .852-.691 1.543-1.543 1.543h-6.687c-.852 0-1.543-.691-1.543-1.543v-6.687c0-.852.691-1.543 1.543-1.543h6.687c.852 0 1.543.691 1.543 1.543z" fill="#6dc9f7"/><path d="m114.053 58.335c0 .722-.586 1.308-1.308 1.308h-7.158c-.722 0-1.308-.586-1.308-1.308 0-.722.586-1.308 1.308-1.308h7.158c.723 0 1.308.586 1.308 1.308z" fill="#0089ef"/><path d="m19.72 64.977v6.687c0 .852-.691 1.543-1.543 1.543h-6.687c-.852 0-1.543-.691-1.543-1.543v-6.687c0-.852.691-1.543 1.543-1.543h6.687c.853 0 1.543.69 1.543 1.543z" fill="#6dc9f7"/><path d="m19.72 74.515c0 .722-.586 1.308-1.308 1.308h-7.158c-.722 0-1.308-.586-1.308-1.308 0-.722.586-1.308 1.308-1.308h7.158c.723 0 1.308.586 1.308 1.308z" fill="#0089ef"/><path d="m33.197 64.977v6.687c0 .852-.691 1.543-1.543 1.543h-6.687c-.852 0-1.543-.691-1.543-1.543v-6.687c0-.852.691-1.543 1.543-1.543h6.687c.852 0 1.543.69 1.543 1.543z" fill="#6dc9f7"/><path d="m33.197 74.515c0 .722-.586 1.308-1.308 1.308h-7.158c-.722 0-1.308-.586-1.308-1.308 0-.722.586-1.308 1.308-1.308h7.158c.722 0 1.308.586 1.308 1.308z" fill="#0089ef"/><path d="m46.673 64.977v6.687c0 .852-.691 1.543-1.543 1.543h-6.687c-.852 0-1.543-.691-1.543-1.543v-6.687c0-.852.691-1.543 1.543-1.543h6.687c.852 0 1.543.69 1.543 1.543z" fill="#6dc9f7"/><path d="m46.673 74.515c0 .722-.586 1.308-1.308 1.308h-7.158c-.722 0-1.308-.586-1.308-1.308 0-.722.586-1.308 1.308-1.308h7.158c.722 0 1.308.586 1.308 1.308z" fill="#0089ef"/><path d="m60.149 64.977v6.687c0 .852-.691 1.543-1.543 1.543h-6.687c-.852 0-1.543-.691-1.543-1.543v-6.687c0-.852.691-1.543 1.543-1.543h6.687c.852 0 1.543.69 1.543 1.543z" fill="#6dc9f7"/><path d="m60.149 74.515c0 .722-.586 1.308-1.308 1.308h-7.158c-.722 0-1.308-.586-1.308-1.308 0-.722.586-1.308 1.308-1.308h7.158c.722 0 1.308.586 1.308 1.308z" fill="#0089ef"/><path d="m73.625 64.977v6.687c0 .852-.691 1.543-1.543 1.543h-6.687c-.852 0-1.543-.691-1.543-1.543v-6.687c0-.852.691-1.543 1.543-1.543h6.687c.852 0 1.543.69 1.543 1.543z" fill="#6dc9f7"/><path d="m73.625 74.515c0 .722-.586 1.308-1.308 1.308h-7.158c-.722 0-1.308-.586-1.308-1.308 0-.722.586-1.308 1.308-1.308h7.158c.722 0 1.308.586 1.308 1.308z" fill="#0089ef"/><path d="m87.101 64.977v6.687c0 .852-.691 1.543-1.543 1.543h-6.687c-.852 0-1.543-.691-1.543-1.543v-6.687c0-.852.691-1.543 1.543-1.543h6.687c.852 0 1.543.69 1.543 1.543z" fill="#6dc9f7"/><path d="m87.101 74.515c0 .722-.586 1.308-1.308 1.308h-7.158c-.722 0-1.308-.586-1.308-1.308 0-.722.586-1.308 1.308-1.308h7.158c.722 0 1.308.586 1.308 1.308z" fill="#0089ef"/><path d="m100.577 64.977v6.687c0 .852-.691 1.543-1.543 1.543h-6.687c-.852 0-1.543-.691-1.543-1.543v-6.687c0-.852.691-1.543 1.543-1.543h6.687c.852 0 1.543.69 1.543 1.543z" fill="#6dc9f7"/><path d="m100.577 74.515c0 .722-.586 1.308-1.308 1.308h-7.158c-.722 0-1.308-.586-1.308-1.308 0-.722.586-1.308 1.308-1.308h7.158c.723 0 1.308.586 1.308 1.308z" fill="#0089ef"/><path d="m114.053 64.977v6.687c0 .852-.691 1.543-1.543 1.543h-6.687c-.852 0-1.543-.691-1.543-1.543v-6.687c0-.852.691-1.543 1.543-1.543h6.687c.852 0 1.543.69 1.543 1.543z" fill="#6dc9f7"/><path d="m114.053 74.515c0 .722-.586 1.308-1.308 1.308h-7.158c-.722 0-1.308-.586-1.308-1.308 0-.722.586-1.308 1.308-1.308h7.158c.723 0 1.308.586 1.308 1.308z" fill="#0089ef"/><path d="m19.72 84.156v6.687c0 .852-.691 1.543-1.543 1.543h-6.687c-.852 0-1.543-.691-1.543-1.543v-6.687c0-.852.691-1.543 1.543-1.543h6.687c.853 0 1.543.691 1.543 1.543z" fill="#6dc9f7"/><path d="m19.72 93.694c0 .722-.586 1.308-1.308 1.308h-7.158c-.722 0-1.308-.586-1.308-1.308 0-.722.586-1.308 1.308-1.308h7.158c.723.001 1.308.586 1.308 1.308z" fill="#0089ef"/><path d="m33.197 84.156v6.687c0 .852-.691 1.543-1.543 1.543h-6.687c-.852 0-1.543-.691-1.543-1.543v-6.687c0-.852.691-1.543 1.543-1.543h6.687c.852 0 1.543.691 1.543 1.543z" fill="#6dc9f7"/><path d="m33.197 93.694c0 .722-.586 1.308-1.308 1.308h-7.158c-.722 0-1.308-.586-1.308-1.308 0-.722.586-1.308 1.308-1.308h7.158c.722.001 1.308.586 1.308 1.308z" fill="#0089ef"/><path d="m46.673 84.156v6.687c0 .852-.691 1.543-1.543 1.543h-6.687c-.852 0-1.543-.691-1.543-1.543v-6.687c0-.852.691-1.543 1.543-1.543h6.687c.852 0 1.543.691 1.543 1.543z" fill="#6dc9f7"/><path d="m46.673 93.694c0 .722-.586 1.308-1.308 1.308h-7.158c-.722 0-1.308-.586-1.308-1.308 0-.722.586-1.308 1.308-1.308h7.158c.722.001 1.308.586 1.308 1.308z" fill="#0089ef"/><path d="m60.149 84.156v6.687c0 .852-.691 1.543-1.543 1.543h-6.687c-.852 0-1.543-.691-1.543-1.543v-6.687c0-.852.691-1.543 1.543-1.543h6.687c.852 0 1.543.691 1.543 1.543z" fill="#6dc9f7"/><path d="m60.149 93.694c0 .722-.586 1.308-1.308 1.308h-7.158c-.722 0-1.308-.586-1.308-1.308 0-.722.586-1.308 1.308-1.308h7.158c.722.001 1.308.586 1.308 1.308z" fill="#0089ef"/><path d="m73.625 84.156v6.687c0 .852-.691 1.543-1.543 1.543h-6.687c-.852 0-1.543-.691-1.543-1.543v-6.687c0-.852.691-1.543 1.543-1.543h6.687c.852 0 1.543.691 1.543 1.543z" fill="#6dc9f7"/><path d="m73.625 93.694c0 .722-.586 1.308-1.308 1.308h-7.158c-.722 0-1.308-.586-1.308-1.308 0-.722.586-1.308 1.308-1.308h7.158c.722.001 1.308.586 1.308 1.308z" fill="#0089ef"/><path d="m87.101 84.156v6.687c0 .852-.691 1.543-1.543 1.543h-6.687c-.852 0-1.543-.691-1.543-1.543v-6.687c0-.852.691-1.543 1.543-1.543h6.687c.852 0 1.543.691 1.543 1.543z" fill="#6dc9f7"/><path d="m87.101 93.694c0 .722-.586 1.308-1.308 1.308h-7.158c-.722 0-1.308-.586-1.308-1.308 0-.722.586-1.308 1.308-1.308h7.158c.722.001 1.308.586 1.308 1.308z" fill="#0089ef"/><path d="m100.577 84.156v6.687c0 .852-.691 1.543-1.543 1.543h-6.687c-.852 0-1.543-.691-1.543-1.543v-6.687c0-.852.691-1.543 1.543-1.543h6.687c.852 0 1.543.691 1.543 1.543z" fill="#6dc9f7"/><path d="m100.577 93.694c0 .722-.586 1.308-1.308 1.308h-7.158c-.722 0-1.308-.586-1.308-1.308 0-.722.586-1.308 1.308-1.308h7.158c.723.001 1.308.586 1.308 1.308z" fill="#0089ef"/><path d="m114.053 84.156v6.687c0 .852-.691 1.543-1.543 1.543h-6.687c-.852 0-1.543-.691-1.543-1.543v-6.687c0-.852.691-1.543 1.543-1.543h6.687c.852 0 1.543.691 1.543 1.543z" fill="#6dc9f7"/><path d="m114.053 93.694c0 .722-.586 1.308-1.308 1.308h-7.158c-.722 0-1.308-.586-1.308-1.308 0-.722.586-1.308 1.308-1.308h7.158c.723.001 1.308.586 1.308 1.308z" fill="#0089ef"/><path d="m19.72 100.336v6.687c0 .852-.691 1.543-1.543 1.543h-6.687c-.852 0-1.543-.691-1.543-1.543v-6.687c0-.852.691-1.543 1.543-1.543h6.687c.853 0 1.543.69 1.543 1.543z" fill="#6dc9f7"/><path d="m19.72 109.874c0 .722-.586 1.308-1.308 1.308h-7.158c-.722 0-1.308-.586-1.308-1.308 0-.722.586-1.308 1.308-1.308h7.158c.723 0 1.308.586 1.308 1.308z" fill="#0089ef"/><path d="m33.197 100.336v6.687c0 .852-.691 1.543-1.543 1.543h-6.687c-.852 0-1.543-.691-1.543-1.543v-6.687c0-.852.691-1.543 1.543-1.543h6.687c.852 0 1.543.69 1.543 1.543z" fill="#6dc9f7"/><path d="m33.197 109.874c0 .722-.586 1.308-1.308 1.308h-7.158c-.722 0-1.308-.586-1.308-1.308 0-.722.586-1.308 1.308-1.308h7.158c.722 0 1.308.586 1.308 1.308z" fill="#0089ef"/><path d="m46.673 100.336v6.687c0 .852-.691 1.543-1.543 1.543h-6.687c-.852 0-1.543-.691-1.543-1.543v-6.687c0-.852.691-1.543 1.543-1.543h6.687c.852 0 1.543.69 1.543 1.543z" fill="#6dc9f7"/><path d="m46.673 109.874c0 .722-.586 1.308-1.308 1.308h-7.158c-.722 0-1.308-.586-1.308-1.308 0-.722.586-1.308 1.308-1.308h7.158c.722 0 1.308.586 1.308 1.308z" fill="#0089ef"/><path d="m60.149 100.336v6.687c0 .852-.691 1.543-1.543 1.543h-6.687c-.852 0-1.543-.691-1.543-1.543v-6.687c0-.852.691-1.543 1.543-1.543h6.687c.852 0 1.543.69 1.543 1.543z" fill="#6dc9f7"/><path d="m60.149 109.874c0 .722-.586 1.308-1.308 1.308h-7.158c-.722 0-1.308-.586-1.308-1.308 0-.722.586-1.308 1.308-1.308h7.158c.722 0 1.308.586 1.308 1.308z" fill="#0089ef"/><path d="m73.625 100.336v6.687c0 .852-.691 1.543-1.543 1.543h-6.687c-.852 0-1.543-.691-1.543-1.543v-6.687c0-.852.691-1.543 1.543-1.543h6.687c.852 0 1.543.69 1.543 1.543z" fill="#6dc9f7"/><path d="m73.625 109.874c0 .722-.586 1.308-1.308 1.308h-7.158c-.722 0-1.308-.586-1.308-1.308 0-.722.586-1.308 1.308-1.308h7.158c.722 0 1.308.586 1.308 1.308z" fill="#0089ef"/><path d="m87.101 100.336v6.687c0 .852-.691 1.543-1.543 1.543h-6.687c-.852 0-1.543-.691-1.543-1.543v-6.687c0-.852.691-1.543 1.543-1.543h6.687c.852 0 1.543.69 1.543 1.543z" fill="#6dc9f7"/><path d="m87.101 109.874c0 .722-.586 1.308-1.308 1.308h-7.158c-.722 0-1.308-.586-1.308-1.308 0-.722.586-1.308 1.308-1.308h7.158c.722 0 1.308.586 1.308 1.308z" fill="#0089ef"/><path d="m100.577 100.336v6.687c0 .852-.691 1.543-1.543 1.543h-6.687c-.852 0-1.543-.691-1.543-1.543v-6.687c0-.852.691-1.543 1.543-1.543h6.687c.852 0 1.543.69 1.543 1.543z" fill="#6dc9f7"/><path d="m100.577 109.874c0 .722-.586 1.308-1.308 1.308h-7.158c-.722 0-1.308-.586-1.308-1.308 0-.722.586-1.308 1.308-1.308h7.158c.723 0 1.308.586 1.308 1.308z" fill="#0089ef"/><path d="m114.053 100.336v6.687c0 .852-.691 1.543-1.543 1.543h-6.687c-.852 0-1.543-.691-1.543-1.543v-6.687c0-.852.691-1.543 1.543-1.543h6.687c.852 0 1.543.69 1.543 1.543z" fill="#6dc9f7"/><path d="m114.053 109.874c0 .722-.586 1.308-1.308 1.308h-7.158c-.722 0-1.308-.586-1.308-1.308 0-.722.586-1.308 1.308-1.308h7.158c.723 0 1.308.586 1.308 1.308z" fill="#0089ef"/><path d="m37.079 27.141h-6.687c-.852 0-1.543-.691-1.543-1.543v-6.687c0-.852.691-1.543 1.543-1.543h6.687c.852 0 1.543.691 1.543 1.543v6.687c0 .852-.69 1.543-1.543 1.543z" fill="#6dc9f7"/><path d="m27.541 27.141c-.722 0-1.308-.586-1.308-1.308v-7.158c0-.722.586-1.308 1.308-1.308.722 0 1.308.586 1.308 1.308v7.158c0 .722-.586 1.308-1.308 1.308z" fill="#0089ef"/><path d="m37.079 40.617h-6.687c-.852 0-1.543-.691-1.543-1.543v-6.687c0-.852.691-1.543 1.543-1.543h6.687c.852 0 1.543.691 1.543 1.543v6.687c0 .852-.69 1.543-1.543 1.543z" fill="#6dc9f7"/><path d="m27.541 40.617c-.722 0-1.308-.586-1.308-1.308v-7.158c0-.722.586-1.308 1.308-1.308.722 0 1.308.586 1.308 1.308v7.158c0 .723-.586 1.308-1.308 1.308z" fill="#0089ef"/><path d="m20.9 27.141h-6.687c-.852 0-1.543-.691-1.543-1.543v-6.687c0-.852.691-1.543 1.543-1.543h6.687c.852 0 1.543.691 1.543 1.543v6.687c0 .852-.691 1.543-1.543 1.543z" fill="#6dc9f7"/><path d="m11.362 27.141c-.722 0-1.308-.586-1.308-1.308v-7.158c0-.722.586-1.308 1.308-1.308.722 0 1.308.586 1.308 1.308v7.158c-.001.722-.586 1.308-1.308 1.308z" fill="#0089ef"/><path d="m20.9 40.617h-6.687c-.852 0-1.543-.691-1.543-1.543v-6.687c0-.852.691-1.543 1.543-1.543h6.687c.852 0 1.543.691 1.543 1.543v6.687c0 .852-.691 1.543-1.543 1.543z" fill="#6dc9f7"/><path d="m11.362 40.617c-.722 0-1.308-.586-1.308-1.308v-7.158c0-.722.586-1.308 1.308-1.308.722 0 1.308.586 1.308 1.308v7.158c-.001.723-.586 1.308-1.308 1.308z" fill="#0089ef"/><path d="m86.921 30.844h6.687c.852 0 1.543.691 1.543 1.543v6.687c0 .852-.691 1.543-1.543 1.543h-6.687c-.852 0-1.543-.691-1.543-1.543v-6.687c0-.852.691-1.543 1.543-1.543z" fill="#6dc9f7"/><path d="m96.459 30.844c.722 0 1.308.586 1.308 1.308v7.158c0 .722-.586 1.308-1.308 1.308-.722 0-1.308-.586-1.308-1.308v-7.158c0-.723.586-1.308 1.308-1.308z" fill="#0089ef"/><path d="m86.921 17.368h6.687c.852 0 1.543.691 1.543 1.543v6.687c0 .852-.691 1.543-1.543 1.543h-6.687c-.852 0-1.543-.691-1.543-1.543v-6.687c0-.853.691-1.543 1.543-1.543z" fill="#6dc9f7"/><path d="m96.459 17.368c.722 0 1.308.586 1.308 1.308v7.158c0 .722-.586 1.308-1.308 1.308-.722 0-1.308-.586-1.308-1.308v-7.158c0-.723.586-1.308 1.308-1.308z" fill="#0089ef"/><path d="m103.1 30.844h6.687c.852 0 1.543.691 1.543 1.543v6.687c0 .852-.691 1.543-1.543 1.543h-6.687c-.852 0-1.543-.691-1.543-1.543v-6.687c0-.852.691-1.543 1.543-1.543z" fill="#6dc9f7"/><path d="m112.639 30.844c.722 0 1.308.586 1.308 1.308v7.158c0 .722-.586 1.308-1.308 1.308-.722 0-1.308-.586-1.308-1.308v-7.158c0-.723.585-1.308 1.308-1.308z" fill="#0089ef"/><path d="m103.1 17.368h6.687c.852 0 1.543.691 1.543 1.543v6.687c0 .852-.691 1.543-1.543 1.543h-6.687c-.852 0-1.543-.691-1.543-1.543v-6.687c0-.853.691-1.543 1.543-1.543z" fill="#6dc9f7"/><path d="m112.639 17.368c.722 0 1.308.586 1.308 1.308v7.158c0 .722-.586 1.308-1.308 1.308-.722 0-1.308-.586-1.308-1.308v-7.158c0-.723.585-1.308 1.308-1.308z" fill="#0089ef"/><path d="m78.683 12.818h-33.366c-1.171 0-2.12.949-2.12 2.12v23.558c0 1.171.949 2.12 2.12 2.12h33.366c1.171 0 2.12-.949 2.12-2.12v-23.558c.001-1.171-.949-2.12-2.12-2.12z" fill="#fa759e"/><path d="m46.197 38.497v-23.559c0-1.171.949-2.12 2.12-2.12h-3c-1.171 0-2.12.949-2.12 2.12v23.558c0 1.171.949 2.12 2.12 2.12h3c-1.171.001-2.12-.948-2.12-2.119z" fill="#fff"/><g fill="#3a2c60"><path d="m18.177 46.254h-6.687c-1.402 0-2.543 1.141-2.543 2.543v6.687c0 .547.178 1.052.473 1.467-.293.387-.473.863-.473 1.384 0 1.272 1.035 2.308 2.308 2.308h7.158c1.272 0 2.308-1.035 2.308-2.308 0-.521-.18-.997-.473-1.384.295-.415.473-.919.473-1.467v-6.687c0-1.402-1.142-2.543-2.544-2.543zm-7.23 2.543c0-.3.244-.543.543-.543h6.687c.3 0 .543.244.543.543v6.687c0 .299-.244.543-.543.543h-6.687c-.299 0-.543-.244-.543-.543zm7.465 9.846h-7.158c-.169 0-.308-.138-.308-.308s.138-.308.308-.308h.235 6.687.235c.17 0 .308.138.308.308.002.17-.137.308-.307.308z"/><path d="m31.653 46.254h-6.687c-1.402 0-2.543 1.141-2.543 2.543v6.687c0 .547.178 1.052.473 1.467-.293.387-.473.863-.473 1.384 0 1.272 1.035 2.308 2.308 2.308h7.158c1.272 0 2.308-1.035 2.308-2.308 0-.521-.18-.997-.473-1.384.295-.415.473-.919.473-1.467v-6.687c0-1.402-1.141-2.543-2.544-2.543zm-7.23 2.543c0-.3.244-.543.543-.543h6.687c.3 0 .543.244.543.543v6.687c0 .299-.244.543-.543.543h-6.687c-.299 0-.543-.244-.543-.543zm7.466 9.846h-7.158c-.169 0-.308-.138-.308-.308s.138-.308.308-.308h.235 6.687.235c.17 0 .308.138.308.308.001.17-.138.308-.307.308z"/><path d="m45.129 46.254h-6.687c-1.402 0-2.543 1.141-2.543 2.543v6.687c0 .547.178 1.052.473 1.467-.293.387-.473.863-.473 1.384 0 1.272 1.035 2.308 2.308 2.308h7.158c1.272 0 2.308-1.035 2.308-2.308 0-.521-.18-.997-.473-1.384.295-.415.473-.919.473-1.467v-6.687c0-1.402-1.141-2.543-2.544-2.543zm-7.23 2.543c0-.3.244-.543.543-.543h6.687c.3 0 .543.244.543.543v6.687c0 .299-.244.543-.543.543h-6.687c-.299 0-.543-.244-.543-.543zm7.466 9.846h-7.158c-.169 0-.308-.138-.308-.308s.138-.308.308-.308h.235 6.687.235c.17 0 .308.138.308.308.001.17-.137.308-.307.308z"/><path d="m58.605 46.254h-6.687c-1.402 0-2.543 1.141-2.543 2.543v6.687c0 .547.178 1.052.473 1.467-.293.387-.473.863-.473 1.384 0 1.272 1.035 2.308 2.308 2.308h7.158c1.272 0 2.308-1.035 2.308-2.308 0-.521-.18-.997-.473-1.384.295-.415.473-.919.473-1.467v-6.687c0-1.402-1.141-2.543-2.544-2.543zm-7.23 2.543c0-.3.244-.543.543-.543h6.687c.3 0 .543.244.543.543v6.687c0 .299-.244.543-.543.543h-6.687c-.299 0-.543-.244-.543-.543zm7.466 9.846h-7.158c-.169 0-.308-.138-.308-.308s.138-.308.308-.308h.235 6.687.235c.17 0 .308.138.308.308.001.17-.137.308-.307.308z"/><path d="m72.082 46.254h-6.688c-1.402 0-2.543 1.141-2.543 2.543v6.687c0 .547.178 1.052.473 1.467-.293.387-.473.863-.473 1.384 0 1.272 1.036 2.308 2.308 2.308h7.158c1.272 0 2.308-1.035 2.308-2.308 0-.521-.18-.997-.473-1.384.295-.415.473-.919.473-1.467v-6.687c0-1.402-1.141-2.543-2.543-2.543zm-7.231 2.543c0-.3.244-.543.543-.543h6.688c.3 0 .543.244.543.543v6.687c0 .299-.243.543-.543.543h-6.688c-.299 0-.543-.244-.543-.543zm7.466 9.846h-7.157c-.17 0-.308-.138-.308-.308s.138-.308.308-.308h.235 6.688.235c.17 0 .308.138.308.308-.001.17-.139.308-.309.308z"/><path d="m85.558 46.254h-6.687c-1.402 0-2.543 1.141-2.543 2.543v6.687c0 .547.178 1.052.473 1.467-.293.387-.473.863-.473 1.384 0 1.272 1.035 2.308 2.308 2.308h7.157c1.273 0 2.309-1.035 2.309-2.308 0-.521-.18-.998-.473-1.384.295-.415.473-.92.473-1.467v-6.687c-.001-1.402-1.142-2.543-2.544-2.543zm-7.23 2.543c0-.3.243-.543.543-.543h6.687c.3 0 .544.244.544.543v6.687c0 .299-.244.543-.544.543h-6.687c-.3 0-.543-.244-.543-.543zm7.465 9.846h-7.157c-.17 0-.308-.138-.308-.308s.138-.308.308-.308h.235 6.687.235c.17 0 .309.138.309.308-.001.17-.139.308-.309.308z"/><path d="m99.034 46.254h-6.688c-1.402 0-2.543 1.141-2.543 2.543v6.687c0 .547.178 1.052.473 1.467-.293.387-.473.863-.473 1.384 0 1.272 1.035 2.308 2.308 2.308h7.158c1.272 0 2.308-1.035 2.308-2.308 0-.521-.18-.997-.473-1.384.295-.415.473-.919.473-1.467v-6.687c0-1.402-1.141-2.543-2.543-2.543zm-7.23 2.543c0-.3.243-.543.543-.543h6.688c.3 0 .543.244.543.543v6.687c0 .299-.243.543-.543.543h-6.688c-.3 0-.543-.244-.543-.543zm7.465 9.846h-7.158c-.17 0-.308-.138-.308-.308s.138-.308.308-.308h.235 6.688.235c.17 0 .308.138.308.308s-.138.308-.308.308z"/><path d="m115.054 48.797c0-1.402-1.142-2.543-2.544-2.543h-6.687c-1.402 0-2.543 1.141-2.543 2.543v6.687c0 .547.178 1.052.473 1.467-.293.387-.473.863-.473 1.384 0 1.272 1.035 2.308 2.308 2.308h7.157c1.273 0 2.309-1.035 2.309-2.308 0-.521-.18-.998-.473-1.384.295-.415.473-.92.473-1.467zm-9.774 0c0-.3.243-.543.543-.543h6.687c.3 0 .544.244.544.543v6.687c0 .299-.244.543-.544.543h-6.687c-.3 0-.543-.244-.543-.543zm7.465 9.846h-7.157c-.17 0-.308-.138-.308-.308s.138-.308.308-.308h.235 6.687.235c.17 0 .309.138.309.308s-.139.308-.309.308z"/><path d="m18.177 62.434h-6.687c-1.402 0-2.543 1.141-2.543 2.543v6.687c0 .547.178 1.052.473 1.467-.293.387-.473.863-.473 1.384 0 1.272 1.035 2.308 2.308 2.308h7.158c1.272 0 2.308-1.036 2.308-2.308 0-.521-.18-.997-.473-1.384.295-.415.473-.92.473-1.467v-6.687c0-1.403-1.142-2.543-2.544-2.543zm-7.23 2.543c0-.299.244-.543.543-.543h6.687c.3 0 .543.244.543.543v6.687c0 .3-.244.543-.543.543h-6.687c-.299 0-.543-.244-.543-.543zm7.465 9.846h-7.158c-.169 0-.308-.138-.308-.308 0-.169.138-.308.308-.308h.235 6.687.235c.17 0 .308.138.308.308.002.17-.137.308-.307.308z"/><path d="m31.653 62.434h-6.687c-1.402 0-2.543 1.141-2.543 2.543v6.687c0 .547.178 1.052.473 1.467-.293.387-.473.863-.473 1.384 0 1.272 1.035 2.308 2.308 2.308h7.158c1.272 0 2.308-1.036 2.308-2.308 0-.521-.18-.997-.473-1.384.295-.415.473-.92.473-1.467v-6.687c0-1.403-1.141-2.543-2.544-2.543zm-7.23 2.543c0-.299.244-.543.543-.543h6.687c.3 0 .543.244.543.543v6.687c0 .3-.244.543-.543.543h-6.687c-.299 0-.543-.244-.543-.543zm7.466 9.846h-7.158c-.169 0-.308-.138-.308-.308 0-.169.138-.308.308-.308h.235 6.687.235c.17 0 .308.138.308.308.001.17-.138.308-.307.308z"/><path d="m45.129 62.434h-6.687c-1.402 0-2.543 1.141-2.543 2.543v6.687c0 .547.178 1.052.473 1.467-.293.387-.473.863-.473 1.384 0 1.272 1.035 2.308 2.308 2.308h7.158c1.272 0 2.308-1.036 2.308-2.308 0-.521-.18-.997-.473-1.384.295-.415.473-.92.473-1.467v-6.687c0-1.403-1.141-2.543-2.544-2.543zm-7.23 2.543c0-.299.244-.543.543-.543h6.687c.3 0 .543.244.543.543v6.687c0 .3-.244.543-.543.543h-6.687c-.299 0-.543-.244-.543-.543zm7.466 9.846h-7.158c-.169 0-.308-.138-.308-.308 0-.169.138-.308.308-.308h.235 6.687.235c.17 0 .308.138.308.308.001.17-.137.308-.307.308z"/><path d="m58.605 62.434h-6.687c-1.402 0-2.543 1.141-2.543 2.543v6.687c0 .547.178 1.052.473 1.467-.293.387-.473.863-.473 1.384 0 1.272 1.035 2.308 2.308 2.308h7.158c1.272 0 2.308-1.036 2.308-2.308 0-.521-.18-.997-.473-1.384.295-.415.473-.92.473-1.467v-6.687c0-1.403-1.141-2.543-2.544-2.543zm-7.23 2.543c0-.299.244-.543.543-.543h6.687c.3 0 .543.244.543.543v6.687c0 .3-.244.543-.543.543h-6.687c-.299 0-.543-.244-.543-.543zm7.466 9.846h-7.158c-.169 0-.308-.138-.308-.308 0-.169.138-.308.308-.308h.235 6.687.235c.17 0 .308.138.308.308.001.17-.137.308-.307.308z"/><path d="m72.082 62.434h-6.688c-1.402 0-2.543 1.141-2.543 2.543v6.687c0 .547.178 1.052.473 1.467-.293.387-.473.863-.473 1.384 0 1.272 1.036 2.308 2.308 2.308h7.158c1.272 0 2.308-1.036 2.308-2.308 0-.521-.18-.997-.473-1.384.295-.415.473-.92.473-1.467v-6.687c0-1.403-1.141-2.543-2.543-2.543zm-7.231 2.543c0-.299.244-.543.543-.543h6.688c.3 0 .543.244.543.543v6.687c0 .3-.243.543-.543.543h-6.688c-.299 0-.543-.244-.543-.543zm7.466 9.846h-7.157c-.17 0-.308-.138-.308-.308 0-.169.138-.308.308-.308h.235 6.688.235c.17 0 .308.138.308.308-.001.17-.139.308-.309.308z"/><path d="m85.558 62.434h-6.687c-1.402 0-2.543 1.141-2.543 2.543v6.687c0 .547.178 1.052.473 1.467-.293.387-.473.863-.473 1.384 0 1.272 1.035 2.308 2.308 2.308h7.157c1.273 0 2.309-1.036 2.309-2.308 0-.521-.18-.997-.473-1.384.295-.415.473-.92.473-1.467v-6.687c-.001-1.403-1.142-2.543-2.544-2.543zm-7.23 2.543c0-.299.243-.543.543-.543h6.687c.3 0 .544.244.544.543v6.687c0 .3-.244.543-.544.543h-6.687c-.3 0-.543-.244-.543-.543zm7.465 9.846h-7.157c-.17 0-.308-.138-.308-.308 0-.169.138-.308.308-.308h.235 6.687.235c.17 0 .309.138.309.308-.001.17-.139.308-.309.308z"/><path d="m99.034 62.434h-6.688c-1.402 0-2.543 1.141-2.543 2.543v6.687c0 .547.178 1.052.473 1.467-.293.387-.473.863-.473 1.384 0 1.272 1.035 2.308 2.308 2.308h7.158c1.272 0 2.308-1.036 2.308-2.308 0-.521-.18-.997-.473-1.384.295-.415.473-.92.473-1.467v-6.687c0-1.403-1.141-2.543-2.543-2.543zm-7.23 2.543c0-.299.243-.543.543-.543h6.688c.3 0 .543.244.543.543v6.687c0 .3-.243.543-.543.543h-6.688c-.3 0-.543-.244-.543-.543zm7.465 9.846h-7.158c-.17 0-.308-.138-.308-.308 0-.169.138-.308.308-.308h.235 6.688.235c.17 0 .308.138.308.308s-.138.308-.308.308z"/><path d="m112.51 62.434h-6.687c-1.402 0-2.543 1.141-2.543 2.543v6.687c0 .547.178 1.052.473 1.467-.293.387-.473.863-.473 1.384 0 1.272 1.035 2.308 2.308 2.308h7.157c1.273 0 2.309-1.036 2.309-2.308 0-.521-.18-.997-.473-1.384.295-.415.473-.92.473-1.467v-6.687c0-1.403-1.142-2.543-2.544-2.543zm-7.23 2.543c0-.299.243-.543.543-.543h6.687c.3 0 .544.244.544.543v6.687c0 .3-.244.543-.544.543h-6.687c-.3 0-.543-.244-.543-.543zm7.465 9.846h-7.157c-.17 0-.308-.138-.308-.308 0-.169.138-.308.308-.308h.235 6.687.235c.17 0 .309.138.309.308s-.139.308-.309.308z"/><path d="m18.177 81.613h-6.687c-1.402 0-2.543 1.141-2.543 2.543v6.687c0 .547.178 1.052.473 1.467-.293.387-.473.863-.473 1.384 0 1.272 1.035 2.308 2.308 2.308h7.158c1.272 0 2.308-1.036 2.308-2.308 0-.521-.18-.997-.473-1.384.295-.415.473-.919.473-1.467v-6.687c0-1.402-1.142-2.543-2.544-2.543zm-7.23 2.543c0-.3.244-.543.543-.543h6.687c.3 0 .543.244.543.543v6.687c0 .299-.244.543-.543.543h-6.687c-.299 0-.543-.244-.543-.543zm7.465 9.847h-7.158c-.169 0-.308-.138-.308-.308s.138-.308.308-.308h.235 6.687.235c.17 0 .308.138.308.308s-.137.308-.307.308z"/><path d="m31.653 81.613h-6.687c-1.402 0-2.543 1.141-2.543 2.543v6.687c0 .547.178 1.052.473 1.467-.293.387-.473.863-.473 1.384 0 1.272 1.035 2.308 2.308 2.308h7.158c1.272 0 2.308-1.036 2.308-2.308 0-.521-.18-.997-.473-1.384.295-.415.473-.919.473-1.467v-6.687c0-1.402-1.141-2.543-2.544-2.543zm-7.23 2.543c0-.3.244-.543.543-.543h6.687c.3 0 .543.244.543.543v6.687c0 .299-.244.543-.543.543h-6.687c-.299 0-.543-.244-.543-.543zm7.466 9.847h-7.158c-.169 0-.308-.138-.308-.308s.138-.308.308-.308h.235 6.687.235c.17 0 .308.138.308.308s-.138.308-.307.308z"/><path d="m45.129 81.613h-6.687c-1.402 0-2.543 1.141-2.543 2.543v6.687c0 .547.178 1.052.473 1.467-.293.387-.473.863-.473 1.384 0 1.272 1.035 2.308 2.308 2.308h7.158c1.272 0 2.308-1.036 2.308-2.308 0-.521-.18-.997-.473-1.384.295-.415.473-.919.473-1.467v-6.687c0-1.402-1.141-2.543-2.544-2.543zm-7.23 2.543c0-.3.244-.543.543-.543h6.687c.3 0 .543.244.543.543v6.687c0 .299-.244.543-.543.543h-6.687c-.299 0-.543-.244-.543-.543zm7.466 9.847h-7.158c-.169 0-.308-.138-.308-.308s.138-.308.308-.308h.235 6.687.235c.17 0 .308.138.308.308s-.137.308-.307.308z"/><path d="m58.605 81.613h-6.687c-1.402 0-2.543 1.141-2.543 2.543v6.687c0 .547.178 1.052.473 1.467-.293.387-.473.863-.473 1.384 0 1.272 1.035 2.308 2.308 2.308h7.158c1.272 0 2.308-1.036 2.308-2.308 0-.521-.18-.997-.473-1.384.295-.415.473-.919.473-1.467v-6.687c0-1.402-1.141-2.543-2.544-2.543zm-7.23 2.543c0-.3.244-.543.543-.543h6.687c.3 0 .543.244.543.543v6.687c0 .299-.244.543-.543.543h-6.687c-.299 0-.543-.244-.543-.543zm7.466 9.847h-7.158c-.169 0-.308-.138-.308-.308s.138-.308.308-.308h.235 6.687.235c.17 0 .308.138.308.308s-.137.308-.307.308z"/><path d="m72.082 81.613h-6.688c-1.402 0-2.543 1.141-2.543 2.543v6.687c0 .547.178 1.052.473 1.467-.293.387-.473.863-.473 1.384 0 1.272 1.036 2.308 2.308 2.308h7.158c1.272 0 2.308-1.036 2.308-2.308 0-.521-.18-.997-.473-1.384.295-.415.473-.919.473-1.467v-6.687c0-1.402-1.141-2.543-2.543-2.543zm-7.231 2.543c0-.3.244-.543.543-.543h6.688c.3 0 .543.244.543.543v6.687c0 .299-.243.543-.543.543h-6.688c-.299 0-.543-.244-.543-.543zm7.466 9.847h-7.157c-.17 0-.308-.138-.308-.308s.138-.308.308-.308h.235 6.688.235c.17 0 .308.138.308.308s-.139.308-.309.308z"/><path d="m85.558 81.613h-6.687c-1.402 0-2.543 1.141-2.543 2.543v6.687c0 .547.178 1.052.473 1.467-.293.387-.473.863-.473 1.384 0 1.272 1.035 2.308 2.308 2.308h7.157c1.273 0 2.309-1.036 2.309-2.308 0-.521-.18-.998-.473-1.384.295-.415.473-.92.473-1.467v-6.687c-.001-1.402-1.142-2.543-2.544-2.543zm-7.23 2.543c0-.3.243-.543.543-.543h6.687c.3 0 .544.244.544.543v6.687c0 .299-.244.543-.544.543h-6.687c-.3 0-.543-.244-.543-.543zm7.465 9.847h-7.157c-.17 0-.308-.138-.308-.308s.138-.308.308-.308h.235 6.687.235c.17 0 .309.138.309.308s-.139.308-.309.308z"/><path d="m99.034 81.613h-6.688c-1.402 0-2.543 1.141-2.543 2.543v6.687c0 .547.178 1.052.473 1.467-.293.387-.473.863-.473 1.384 0 1.272 1.035 2.308 2.308 2.308h7.158c1.272 0 2.308-1.036 2.308-2.308 0-.521-.18-.997-.473-1.384.295-.415.473-.919.473-1.467v-6.687c0-1.402-1.141-2.543-2.543-2.543zm-7.23 2.543c0-.3.243-.543.543-.543h6.688c.3 0 .543.244.543.543v6.687c0 .299-.243.543-.543.543h-6.688c-.3 0-.543-.244-.543-.543zm7.465 9.847h-7.158c-.17 0-.308-.138-.308-.308s.138-.308.308-.308h.235 6.688.235c.17 0 .308.138.308.308s-.138.308-.308.308z"/><path d="m112.51 81.613h-6.687c-1.402 0-2.543 1.141-2.543 2.543v6.687c0 .547.178 1.052.473 1.467-.293.387-.473.863-.473 1.384 0 1.272 1.035 2.308 2.308 2.308h7.157c1.273 0 2.309-1.036 2.309-2.308 0-.521-.18-.998-.473-1.384.295-.415.473-.92.473-1.467v-6.687c0-1.402-1.142-2.543-2.544-2.543zm-7.23 2.543c0-.3.243-.543.543-.543h6.687c.3 0 .544.244.544.543v6.687c0 .299-.244.543-.544.543h-6.687c-.3 0-.543-.244-.543-.543zm7.465 9.847h-7.157c-.17 0-.308-.138-.308-.308s.138-.308.308-.308h.235 6.687.235c.17 0 .309.138.309.308s-.139.308-.309.308z"/><path d="m18.177 97.793h-6.687c-1.402 0-2.543 1.141-2.543 2.543v6.687c0 .547.178 1.052.473 1.467-.293.387-.473.863-.473 1.384 0 1.272 1.035 2.308 2.308 2.308h7.158c1.272 0 2.308-1.035 2.308-2.308 0-.521-.18-.997-.473-1.384.295-.415.473-.919.473-1.467v-6.687c0-1.402-1.142-2.543-2.544-2.543zm-7.23 2.543c0-.3.244-.543.543-.543h6.687c.3 0 .543.244.543.543v6.687c0 .299-.244.543-.543.543h-6.687c-.299 0-.543-.244-.543-.543zm7.465 9.846h-7.158c-.169 0-.308-.138-.308-.308s.138-.308.308-.308h.235 6.687.235c.17 0 .308.138.308.308.002.17-.137.308-.307.308z"/><path d="m31.653 97.793h-6.687c-1.402 0-2.543 1.141-2.543 2.543v6.687c0 .547.178 1.052.473 1.467-.293.387-.473.863-.473 1.384 0 1.272 1.035 2.308 2.308 2.308h7.158c1.272 0 2.308-1.035 2.308-2.308 0-.521-.18-.997-.473-1.384.295-.415.473-.919.473-1.467v-6.687c0-1.402-1.141-2.543-2.544-2.543zm-7.23 2.543c0-.3.244-.543.543-.543h6.687c.3 0 .543.244.543.543v6.687c0 .299-.244.543-.543.543h-6.687c-.299 0-.543-.244-.543-.543zm7.466 9.846h-7.158c-.169 0-.308-.138-.308-.308s.138-.308.308-.308h.235 6.687.235c.17 0 .308.138.308.308.001.17-.138.308-.307.308z"/><path d="m45.129 97.793h-6.687c-1.402 0-2.543 1.141-2.543 2.543v6.687c0 .547.178 1.052.473 1.467-.293.387-.473.863-.473 1.384 0 1.272 1.035 2.308 2.308 2.308h7.158c1.272 0 2.308-1.035 2.308-2.308 0-.521-.18-.997-.473-1.384.295-.415.473-.919.473-1.467v-6.687c0-1.402-1.141-2.543-2.544-2.543zm-7.23 2.543c0-.3.244-.543.543-.543h6.687c.3 0 .543.244.543.543v6.687c0 .299-.244.543-.543.543h-6.687c-.299 0-.543-.244-.543-.543zm7.466 9.846h-7.158c-.169 0-.308-.138-.308-.308s.138-.308.308-.308h.235 6.687.235c.17 0 .308.138.308.308.001.17-.137.308-.307.308z"/><path d="m58.605 97.793h-6.687c-1.402 0-2.543 1.141-2.543 2.543v6.687c0 .547.178 1.052.473 1.467-.293.387-.473.863-.473 1.384 0 1.272 1.035 2.308 2.308 2.308h7.158c1.272 0 2.308-1.035 2.308-2.308 0-.521-.18-.997-.473-1.384.295-.415.473-.919.473-1.467v-6.687c0-1.402-1.141-2.543-2.544-2.543zm-7.23 2.543c0-.3.244-.543.543-.543h6.687c.3 0 .543.244.543.543v6.687c0 .299-.244.543-.543.543h-6.687c-.299 0-.543-.244-.543-.543zm7.466 9.846h-7.158c-.169 0-.308-.138-.308-.308s.138-.308.308-.308h.235 6.687.235c.17 0 .308.138.308.308.001.17-.137.308-.307.308z"/><path d="m72.082 97.793h-6.688c-1.402 0-2.543 1.141-2.543 2.543v6.687c0 .547.178 1.052.473 1.467-.293.387-.473.863-.473 1.384 0 1.272 1.036 2.308 2.308 2.308h7.158c1.272 0 2.308-1.035 2.308-2.308 0-.521-.18-.997-.473-1.384.295-.415.473-.919.473-1.467v-6.687c0-1.402-1.141-2.543-2.543-2.543zm-7.231 2.543c0-.3.244-.543.543-.543h6.688c.3 0 .543.244.543.543v6.687c0 .299-.243.543-.543.543h-6.688c-.299 0-.543-.244-.543-.543zm7.466 9.846h-7.157c-.17 0-.308-.138-.308-.308s.138-.308.308-.308h.235 6.688.235c.17 0 .308.138.308.308-.001.17-.139.308-.309.308z"/><path d="m85.558 97.793h-6.687c-1.402 0-2.543 1.141-2.543 2.543v6.687c0 .547.178 1.052.473 1.467-.293.387-.473.863-.473 1.384 0 1.272 1.035 2.308 2.308 2.308h7.157c1.273 0 2.309-1.035 2.309-2.308 0-.521-.18-.998-.473-1.384.295-.415.473-.92.473-1.467v-6.687c-.001-1.402-1.142-2.543-2.544-2.543zm-7.23 2.543c0-.3.243-.543.543-.543h6.687c.3 0 .544.244.544.543v6.687c0 .299-.244.543-.544.543h-6.687c-.3 0-.543-.244-.543-.543zm7.465 9.846h-7.157c-.17 0-.308-.138-.308-.308s.138-.308.308-.308h.235 6.687.235c.17 0 .309.138.309.308-.001.17-.139.308-.309.308z"/><path d="m99.034 97.793h-6.688c-1.402 0-2.543 1.141-2.543 2.543v6.687c0 .547.178 1.052.473 1.467-.293.387-.473.863-.473 1.384 0 1.272 1.035 2.308 2.308 2.308h7.158c1.272 0 2.308-1.035 2.308-2.308 0-.521-.18-.997-.473-1.384.295-.415.473-.919.473-1.467v-6.687c0-1.402-1.141-2.543-2.543-2.543zm-7.23 2.543c0-.3.243-.543.543-.543h6.688c.3 0 .543.244.543.543v6.687c0 .299-.243.543-.543.543h-6.688c-.3 0-.543-.244-.543-.543zm7.465 9.846h-7.158c-.17 0-.308-.138-.308-.308s.138-.308.308-.308h.235 6.688.235c.17 0 .308.138.308.308s-.138.308-.308.308z"/><path d="m112.51 97.793h-6.687c-1.402 0-2.543 1.141-2.543 2.543v6.687c0 .547.178 1.052.473 1.467-.293.387-.473.863-.473 1.384 0 1.272 1.035 2.308 2.308 2.308h7.157c1.273 0 2.309-1.035 2.309-2.308 0-.521-.18-.998-.473-1.384.295-.415.473-.92.473-1.467v-6.687c0-1.402-1.142-2.543-2.544-2.543zm-7.23 2.543c0-.3.243-.543.543-.543h6.687c.3 0 .544.244.544.543v6.687c0 .299-.244.543-.544.543h-6.687c-.3 0-.543-.244-.543-.543zm7.465 9.846h-7.157c-.17 0-.308-.138-.308-.308s.138-.308.308-.308h.235 6.687.235c.17 0 .309.138.309.308s-.139.308-.309.308z"/><path d="m27.541 28.141c.521 0 .997-.18 1.384-.473.415.295.92.473 1.467.473h6.688c1.402 0 2.543-1.141 2.543-2.543v-6.687c0-1.402-1.141-2.543-2.543-2.543h-6.688c-.547 0-1.052.178-1.467.473-.387-.293-.863-.473-1.384-.473-1.272 0-2.308 1.035-2.308 2.308v7.158c0 1.272 1.035 2.307 2.308 2.307zm2.851-9.773h6.688c.299 0 .543.244.543.543v6.687c0 .3-.244.543-.543.543h-6.688c-.299 0-.543-.244-.543-.543v-6.687c0-.3.244-.543.543-.543zm-3.159.307c0-.169.138-.308.308-.308s.308.138.308.308v.235 6.687.235c0 .17-.138.308-.308.308-.169 0-.308-.138-.308-.308z"/><path d="m27.541 41.617c.521 0 .997-.18 1.384-.473.415.295.92.473 1.467.473h6.688c1.402 0 2.543-1.141 2.543-2.543v-6.687c0-1.402-1.141-2.543-2.543-2.543h-6.688c-.547 0-1.052.178-1.467.473-.387-.293-.863-.473-1.384-.473-1.272 0-2.308 1.035-2.308 2.308v7.158c0 1.272 1.035 2.307 2.308 2.307zm2.851-9.773h6.688c.299 0 .543.244.543.543v6.687c0 .3-.244.543-.543.543h-6.688c-.299 0-.543-.244-.543-.543v-6.687c0-.3.244-.543.543-.543zm-3.159.307c0-.169.138-.308.308-.308s.308.138.308.308v.235 6.687.235c0 .17-.138.308-.308.308-.169 0-.308-.138-.308-.308z"/><path d="m11.362 28.141c.521 0 .997-.18 1.384-.473.415.295.92.473 1.467.473h6.687c1.402 0 2.543-1.141 2.543-2.543v-6.687c0-1.402-1.141-2.543-2.543-2.543h-6.687c-.547 0-1.052.178-1.467.473-.387-.293-.863-.473-1.384-.473-1.272 0-2.308 1.035-2.308 2.308v7.158c0 1.272 1.035 2.307 2.308 2.307zm2.851-9.773h6.687c.299 0 .543.244.543.543v6.687c0 .3-.244.543-.543.543h-6.687c-.3 0-.543-.244-.543-.543v-6.687c-.001-.3.243-.543.543-.543zm-3.159.307c0-.169.138-.308.308-.308.169 0 .308.138.308.308v.235 6.687.235c0 .17-.138.308-.308.308s-.308-.138-.308-.308z"/><path d="m23.443 39.074v-6.687c0-1.402-1.141-2.543-2.543-2.543h-6.687c-.547 0-1.052.178-1.467.473-.387-.293-.863-.473-1.384-.473-1.272 0-2.308 1.035-2.308 2.308v7.158c0 1.272 1.036 2.308 2.308 2.308.521 0 .997-.18 1.384-.473.415.295.92.473 1.467.473h6.687c1.402-.001 2.543-1.142 2.543-2.544zm-11.774.235c0 .17-.138.308-.308.308s-.308-.138-.308-.308v-7.158c0-.169.138-.308.308-.308.169 0 .308.138.308.308v.235 6.687zm9.774-.235c0 .3-.244.543-.543.543h-6.687c-.3 0-.543-.244-.543-.543v-6.687c0-.299.244-.543.543-.543h6.687c.299 0 .543.244.543.543z"/><path d="m86.921 41.617h6.688c.547 0 1.051-.178 1.467-.473.387.293.863.473 1.384.473 1.273 0 2.309-1.036 2.309-2.308v-7.158c0-1.272-1.035-2.308-2.309-2.308-.521 0-.997.18-1.384.473-.415-.295-.919-.473-1.467-.473h-6.688c-1.402 0-2.543 1.141-2.543 2.543v6.687c0 1.403 1.14 2.544 2.543 2.544zm9.23-9.466c0-.169.138-.308.308-.308s.309.138.309.308v7.158c0 .17-.139.308-.309.308s-.308-.138-.308-.308v-.235-6.687zm-9.773.236c0-.299.243-.543.543-.543h6.688c.3 0 .543.244.543.543v6.687c0 .3-.243.543-.543.543h-6.688c-.3 0-.543-.244-.543-.543z"/><path d="m86.921 28.141h6.688c.547 0 1.051-.178 1.467-.473.387.293.863.473 1.384.473 1.273 0 2.309-1.036 2.309-2.308v-7.158c0-1.272-1.035-2.308-2.309-2.308-.521 0-.997.18-1.384.473-.415-.295-.919-.473-1.467-.473h-6.688c-1.402 0-2.543 1.141-2.543 2.543v6.687c0 1.403 1.14 2.544 2.543 2.544zm9.23-9.466c0-.169.138-.308.308-.308s.309.138.309.308v7.158c0 .17-.139.308-.309.308s-.308-.138-.308-.308v-.235-6.687zm-9.773.236c0-.299.243-.543.543-.543h6.688c.3 0 .543.244.543.543v6.687c0 .3-.243.543-.543.543h-6.688c-.3 0-.543-.244-.543-.543z"/><path d="m111.255 41.144c.387.293.863.473 1.384.473 1.272 0 2.308-1.036 2.308-2.308v-7.158c0-1.272-1.035-2.308-2.308-2.308-.521 0-.997.18-1.384.473-.415-.295-.919-.473-1.467-.473h-6.688c-1.402 0-2.543 1.141-2.543 2.543v6.687c0 1.402 1.141 2.543 2.543 2.543h6.688c.547.001 1.051-.176 1.467-.472zm1.076-8.993c0-.169.138-.308.308-.308s.308.138.308.308v7.158c0 .17-.138.308-.308.308s-.308-.138-.308-.308v-.235-6.687zm-9.773 6.923v-6.687c0-.299.243-.543.543-.543h6.688c.3 0 .543.244.543.543v6.687c0 .3-.243.543-.543.543h-6.689c-.299 0-.542-.243-.542-.543z"/><path d="m103.1 28.141h6.688c.547 0 1.051-.178 1.467-.473.387.293.863.473 1.384.473 1.272 0 2.308-1.036 2.308-2.308v-7.158c0-1.272-1.035-2.308-2.308-2.308-.521 0-.997.18-1.384.473-.415-.295-.919-.473-1.467-.473h-6.688c-1.402 0-2.543 1.141-2.543 2.543v6.687c.001 1.403 1.141 2.544 2.543 2.544zm9.231-9.466c0-.169.138-.308.308-.308s.308.138.308.308v7.158c0 .17-.138.308-.308.308s-.308-.138-.308-.308v-.235-6.687zm-9.773.236c0-.299.243-.543.543-.543h6.688c.3 0 .543.244.543.543v6.687c0 .3-.243.543-.543.543h-6.689c-.3 0-.543-.244-.543-.543v-6.687z"/><path d="m45.317 41.617h33.367c1.721 0 3.12-1.4 3.12-3.121v-23.557c0-1.721-1.399-3.121-3.12-3.121h-10.684c-.553 0-1 .448-1 1s.447 1 1 1h10.684c.617 0 1.12.503 1.12 1.121v23.558c0 .618-.503 1.121-1.12 1.121h-33.367c-.618 0-1.12-.503-1.12-1.121v-23.558c0-.618.502-1.121 1.12-1.121h9.087c.552 0 1-.448 1-1s-.448-1-1-1h-9.087c-1.72 0-3.12 1.4-3.12 3.121v23.558c0 1.72 1.4 3.12 3.12 3.12z"/><path d="m58.66 13.818h5.085c.552 0 1-.448 1-1s-.448-1-1-1h-5.085c-.552 0-1 .448-1 1s.447 1 1 1z"/></g></svg>