<svg id="Layer_1" enable-background="new 0 0 128 128" height="512" viewBox="0 0 128 128" width="512" xmlns="http://www.w3.org/2000/svg"><path d="m112.25 72.144h-4.007v-37h2.382c2.413 0 4.375-1.963 4.375-4.375v-17.25c0-2.412-1.962-4.375-4.375-4.375h-89.25c-2.413 0-4.375 1.963-4.375 4.375v17.25c0 2.412 1.962 4.375 4.375 4.375h1.747v37h-3.372c-2.068 0-3.75 1.683-3.75 3.75v6.5c0 1.627 1.048 3.002 2.5 3.52v33.435c0 1.935 1.574 3.509 3.509 3.509h87.732c1.935 0 3.509-1.574 3.509-3.509v-33.358c1.581-.441 2.75-1.879 2.75-3.597v-6.5c0-2.068-1.682-3.75-3.75-3.75z" fill="#e6e7e8"/><path d="m105.741 117.857h-87.732c-1.386 0-2.509-1.123-2.509-2.509v-34.165c0-.022.018-.039.039-.039h92.672c.022 0 .039.018.039.039v34.165c0 1.385-1.123 2.509-2.509 2.509z" fill="#fa759e"/><path d="m20.122 30.143h83.12v39.003h-83.12z" fill="#6dc9f7"/><path d="m25.702 30.143h71.962v39.003h-71.962z" fill="#fff"/><path d="m58.875 69.146h-27.588v-13.266c0-1.491 1.208-2.699 2.699-2.699h22.19c1.491 0 2.699 1.208 2.699 2.699z" fill="#ffd7e5"/><path d="m68.332 60.015c-.59 0-1.069-.479-1.069-1.069v-3.086h.949v-1.854c0-.59-.479-1.069-1.069-1.069h-2.559c-.59 0-1.069.479-1.069 1.069v1.854h.949v3.086c0 .59-.479 1.069-1.069 1.069-.59 0-1.069.479-1.069 1.069v6.993c0 .59.479 1.069 1.069 1.069h1.069 2.799 1.069c.59 0 1.069-.479 1.069-1.069v-6.993c0-.59-.478-1.069-1.069-1.069z" fill="#d4fbff"/><path d="m84.01 37.339c-4.367 0-7.906 3.54-7.906 7.907s3.54 7.906 7.906 7.906 7.907-3.54 7.907-7.906c0-4.367-3.54-7.907-7.907-7.907z" fill="#6dc9f7"/><path d="m84.01 55.825c-5.805 0-10.512 4.706-10.512 10.512v2.81h21.024v-2.81c0-5.806-4.706-10.512-10.512-10.512z" fill="#6dc9f7"/><path d="m106.625 6.143h-89.25c-1.864 0-3.375 1.511-3.375 3.375v17.25c0 1.864 1.511 3.375 3.375 3.375h89.25c1.864 0 3.375-1.511 3.375-3.375v-17.25c0-1.864-1.511-3.375-3.375-3.375z" fill="#0089ef"/><path d="m54-25.857h16v88h-16z" fill="#d4fbff" transform="matrix(0 1 -1 0 80.143 -43.857)"/><path d="m111.004 71.896v6.5c0 1.52-1.24 2.75-2.75 2.75h-92.5c-1.52 0-2.75-1.23-2.75-2.75v-6.5c0-1.52 1.23-2.75 2.75-2.75h92.5c1.51 0 2.75 1.23 2.75 2.75z" fill="#fff"/><path d="m111.004 74.896v3.5c0 1.52-1.24 2.75-2.75 2.75h-92.5c-1.52 0-2.75-1.23-2.75-2.75v-3.5c0-1.52 1.23-2.75 2.75-2.75h92.5c1.51 0 2.75 1.23 2.75 2.75z" fill="#ffd7e5"/><g fill="#3a2c60"><path d="m91.875 116.856h-6c-.552 0-1 .447-1 1s.448 1 1 1h6c.552 0 1-.447 1-1s-.447-1-1-1z"/><path d="m84.01 54.152c4.911 0 8.906-3.996 8.906-8.907s-3.995-8.906-8.906-8.906-8.907 3.995-8.907 8.906 3.996 8.907 8.907 8.907zm0-15.813c3.808 0 6.906 3.098 6.906 6.906s-3.098 6.907-6.906 6.907c-3.809 0-6.907-3.099-6.907-6.907s3.099-6.906 6.907-6.906z"/><path d="m108.25 68.144h-4.007v-37h2.382c2.413 0 4.375-1.963 4.375-4.375v-17.25c0-2.412-1.962-4.375-4.375-4.375h-89.25c-2.413 0-4.375 1.962-4.375 4.375v17.25c0 2.412 1.962 4.375 4.375 4.375h1.748v37h-3.373c-2.068 0-3.75 1.683-3.75 3.75v6.5c0 1.627 1.048 3.002 2.5 3.52v33.435c0 1.935 1.574 3.509 3.509 3.509h63.366c.552 0 1-.447 1-1s-.448-1-1-1h-63.366c-.832 0-1.509-.677-1.509-1.509v-33.205h90.75v33.204c0 .832-.677 1.509-1.509 1.509h-9.241c-.552 0-1 .447-1 1s.448 1 1 1h9.241c1.935 0 3.509-1.574 3.509-3.509v-33.357c1.581-.441 2.75-1.879 2.75-3.597v-6.5c0-2.068-1.682-3.75-3.75-3.75zm-11.586-37v37h-1.142v-1.807c0-6.348-5.164-11.512-11.512-11.512s-11.512 5.164-11.512 11.512v1.807h-2.106c.001-.023.01-.043.01-.066v-6.993c0-1.141-.928-2.068-2.069-2.068l-.069-.069v-2.087c.528-.027.949-.464.949-.999v-1.854c0-.992-.702-1.822-1.635-2.022v-.76c0-.946-.767-1.713-1.713-1.713s-1.713.767-1.713 1.713v.76c-.933.2-1.635 1.03-1.635 2.022v1.854c0 .528.409.96.927.997l-.047 2.158c-1.141 0-2.069.928-2.069 2.068v6.993c0 .023.009.043.01.066h-1.461v-12.264c0-2.04-1.659-3.699-3.699-3.699h-22.19c-2.04 0-3.699 1.659-3.699 3.699v12.264h-3.585v-37zm-38.789 37h-25.588v-12.264c0-.937.762-1.699 1.699-1.699h22.19c.937 0 1.699.763 1.699 1.699zm5.452-.067.069-7.062c1.141 0 2.069-.929 2.069-2.069v-3.086c0-.523-.402-.952-.914-.996l.033-.927 2.628.069v.854c-.528.027-.949.464-.949.999v3.086c0 1.141.928 2.069 2.069 2.069l.069.068-.069 7.06h-3.916zm30.195.067h-19.024v-1.807c0-5.245 4.267-9.512 9.512-9.512s9.512 4.267 9.512 9.512zm8.721 0h-3.579v-37h3.579zm-87.243-41.375v-17.25c0-1.31 1.065-2.375 2.375-2.375h89.25c1.31 0 2.375 1.065 2.375 2.375v17.25c0 1.31-1.065 2.375-2.375 2.375h-8.961-71.962-8.327c-1.31 0-2.375-1.066-2.375-2.375zm6.123 4.375h3.579v37h-3.579zm88.877 47.25c0 .965-.785 1.75-1.75 1.75h-.039-92.461c-.965 0-1.75-.785-1.75-1.75v-6.5c0-.965.785-1.75 1.75-1.75h9.937c.005 0 .009.003.015.003h71.962c.005 0 .009-.003.015-.003h10.572c.965 0 1.75.785 1.75 1.75v6.5z"/></g><circle cx="62" cy="99.143" fill="#ffd7e5" r="13"/></svg>