<svg id="Layer_1" enable-background="new 0 0 128 128" height="512" viewBox="0 0 128 128" width="512" xmlns="http://www.w3.org/2000/svg"><path d="m95.743 31.484h-12.658c-1.404 0-2.547 1.142-2.547 2.546v43.731c0 .301-.245.546-.547.546h-27.979c-.302 0-.547-.245-.547-.546v-13.149-4.511-26.071c0-1.404-1.143-2.546-2.547-2.546h-12.657c-1.404 0-2.547 1.142-2.547 2.546v59.483c0 1.404 1.143 2.546 2.547 2.546h59.482c1.404 0 2.547-1.142 2.547-2.546v-59.483c0-1.404-1.143-2.546-2.547-2.546z" fill="#e6e7e8"/><path d="m57.961 24.86h16.082c2.171 0 3.937-1.766 3.937-3.937s-1.766-3.936-3.937-3.936h-16.082c-2.171 0-3.937 1.766-3.937 3.936s1.766 3.937 3.937 3.937z" fill="#e6e7e8"/><path d="m28.584 32.185h-7.48c-.619 0-1.183.215-1.641.563-.424-.347-.959-.563-1.548-.563-1.358 0-2.463 1.105-2.463 2.463v8.007c0 1.358 1.104 2.463 2.463 2.463.59 0 1.124-.217 1.548-.563.458.348 1.022.563 1.641.563h7.48c1.503 0 2.726-1.223 2.726-2.726v-7.48c-.001-1.504-1.223-2.727-2.726-2.727z" fill="#e6e7e8"/><path d="m28.584 49.165h-7.48c-.619 0-1.183.215-1.641.563-.424-.347-.959-.563-1.548-.563-1.358 0-2.463 1.105-2.463 2.463v8.006c0 1.358 1.104 2.463 2.463 2.463.59 0 1.124-.217 1.548-.563.458.348 1.022.563 1.641.563h7.48c1.503 0 2.726-1.223 2.726-2.727v-7.48c-.001-1.502-1.223-2.725-2.726-2.725z" fill="#e6e7e8"/><path d="m28.584 66.146h-7.48c-.619 0-1.183.215-1.641.563-.424-.347-.959-.563-1.548-.563-1.358 0-2.463 1.105-2.463 2.463v8.007c0 1.358 1.104 2.463 2.463 2.463.59 0 1.124-.217 1.548-.563.458.348 1.022.563 1.641.563h7.48c1.503 0 2.726-1.223 2.726-2.726v-7.48c-.001-1.504-1.223-2.727-2.726-2.727z" fill="#e6e7e8"/><path d="m28.584 83.127h-7.48c-.619 0-1.183.215-1.641.563-.424-.347-.959-.563-1.548-.563-1.358 0-2.463 1.105-2.463 2.463v8.007c0 1.358 1.104 2.463 2.463 2.463.59 0 1.124-.217 1.548-.563.458.348 1.022.563 1.641.563h7.48c1.503 0 2.726-1.223 2.726-2.726v-7.48c-.001-1.504-1.223-2.727-2.726-2.727z" fill="#e6e7e8"/><path d="m114.087 32.184c-.589 0-1.123.216-1.547.563-.458-.347-1.021-.562-1.639-.562h-7.48c-1.503 0-2.726 1.223-2.726 2.726v7.48c0 1.503 1.223 2.726 2.726 2.726h7.48c.618 0 1.182-.215 1.64-.563.424.346.958.562 1.546.562 1.358 0 2.463-1.105 2.463-2.463v-8.007c0-1.357-1.105-2.462-2.463-2.462z" fill="#e6e7e8"/><path d="m114.087 49.164c-.589 0-1.123.216-1.547.563-.458-.347-1.021-.562-1.639-.562h-7.48c-1.503 0-2.726 1.223-2.726 2.727v7.48c0 1.503 1.223 2.727 2.726 2.727h7.48c.618 0 1.182-.215 1.64-.563.424.346.958.562 1.546.562 1.358 0 2.463-1.105 2.463-2.463v-8.006c0-1.36-1.105-2.465-2.463-2.465z" fill="#e6e7e8"/><path d="m114.087 66.145c-.589 0-1.123.216-1.547.563-.458-.347-1.021-.562-1.639-.562h-7.48c-1.503 0-2.726 1.223-2.726 2.726v7.48c0 1.503 1.223 2.726 2.726 2.726h7.48c.618 0 1.182-.215 1.64-.563.424.346.958.562 1.546.562 1.358 0 2.463-1.105 2.463-2.463v-8.007c0-1.357-1.105-2.462-2.463-2.462z" fill="#e6e7e8"/><path d="m114.087 83.126c-.589 0-1.123.216-1.547.563-.458-.347-1.021-.562-1.639-.562h-7.48c-1.503 0-2.726 1.223-2.726 2.726v7.48c0 1.503 1.223 2.726 2.726 2.726h7.48c.618 0 1.182-.215 1.64-.563.424.346.958.562 1.546.562 1.358 0 2.463-1.105 2.463-2.463v-8.007c0-1.357-1.105-2.462-2.463-2.462z" fill="#e6e7e8"/><path d="m43.921 99.153h-7.48c-1.504 0-2.727 1.223-2.727 2.726v7.48c0 .618.215 1.183.563 1.641-.347.424-.563.959-.563 1.549 0 1.358 1.104 2.463 2.463 2.463h8.007c1.358 0 2.463-1.105 2.463-2.463 0-.59-.217-1.124-.563-1.549.348-.458.563-1.022.563-1.641v-7.48c-.001-1.503-1.223-2.726-2.726-2.726z" fill="#e6e7e8"/><path d="m61.135 99.153h-7.48c-1.503 0-2.726 1.223-2.726 2.726v7.48c0 .618.215 1.183.563 1.641-.347.424-.563.959-.563 1.549 0 1.358 1.104 2.463 2.463 2.463h8.007c1.358 0 2.463-1.105 2.463-2.463 0-.59-.217-1.124-.563-1.549.348-.458.563-1.022.563-1.641v-7.48c-.001-1.503-1.224-2.726-2.727-2.726z" fill="#e6e7e8"/><path d="m78.349 99.153h-7.48c-1.504 0-2.727 1.223-2.727 2.726v7.48c0 .618.215 1.183.563 1.641-.347.424-.563.959-.563 1.549 0 1.358 1.104 2.463 2.463 2.463h8.007c1.358 0 2.463-1.105 2.463-2.463 0-.59-.217-1.124-.563-1.549.348-.458.563-1.022.563-1.641v-7.48c0-1.503-1.223-2.726-2.726-2.726z" fill="#e6e7e8"/><path d="m95.563 99.153h-7.48c-1.503 0-2.726 1.223-2.726 2.726v7.48c0 .618.215 1.183.563 1.641-.347.424-.563.959-.563 1.549 0 1.358 1.104 2.463 2.463 2.463h8.007c1.358 0 2.463-1.105 2.463-2.463 0-.59-.217-1.124-.563-1.549.348-.458.563-1.022.563-1.641v-7.48c0-1.503-1.223-2.726-2.727-2.726z" fill="#e6e7e8"/><path d="m77.538 30.03v43.731c0 .854-.692 1.546-1.546 1.546h-27.98c-.854 0-1.546-.692-1.546-1.546v-43.731c0-.854-.692-1.546-1.546-1.546h-12.66c-.854 0-1.546.692-1.546 1.546v45.278 14.205c0 .854.692 1.546 1.546 1.546h14.205 31.072 14.205c.854 0 1.546-.692 1.546-1.546v-14.206-45.277c0-.854-.692-1.546-1.546-1.546h-12.658c-.854-.001-1.546.692-1.546 1.546z" fill="#fa759e"/><path d="m33.714 89.513v-14.206-45.277c0-.854.692-1.546 1.546-1.546h-3c-.854 0-1.546.692-1.546 1.546v45.278 14.205c0 .854.692 1.546 1.546 1.546h3c-.854 0-1.546-.692-1.546-1.546z" fill="#fff"/><path d="m70.043 13.988h-16.082c-1.622 0-2.936 1.315-2.936 2.936s1.315 2.936 2.936 2.936h16.082c1.622 0 2.936-1.315 2.936-2.936s-1.315-2.936-2.936-2.936z" fill="#fa759e"/><path d="m24.584 29.185h-7.48c-.953 0-1.726.773-1.726 1.726v7.48c0 .953.773 1.726 1.726 1.726h7.48c.953 0 1.726-.773 1.726-1.726v-7.48c0-.953-.773-1.726-1.726-1.726z" fill="#6dc9f7"/><path d="m13.914 29.185c-.808 0-1.463.655-1.463 1.463v8.007c0 .808.655 1.463 1.463 1.463s1.463-.655 1.463-1.463v-8.007c0-.808-.655-1.463-1.463-1.463z" fill="#0089ef"/><path d="m24.584 46.165h-7.48c-.953 0-1.726.773-1.726 1.726v7.48c0 .953.773 1.726 1.726 1.726h7.48c.953 0 1.726-.773 1.726-1.726v-7.48c0-.953-.773-1.726-1.726-1.726z" fill="#6dc9f7"/><path d="m13.914 46.165c-.808 0-1.463.655-1.463 1.463v8.007c0 .808.655 1.463 1.463 1.463s1.463-.655 1.463-1.463v-8.007c0-.808-.655-1.463-1.463-1.463z" fill="#0089ef"/><path d="m24.584 63.146h-7.48c-.953 0-1.726.773-1.726 1.726v7.48c0 .953.773 1.726 1.726 1.726h7.48c.953 0 1.726-.773 1.726-1.726v-7.48c0-.953-.773-1.726-1.726-1.726z" fill="#6dc9f7"/><path d="m13.914 63.146c-.808 0-1.463.655-1.463 1.463v8.007c0 .808.655 1.463 1.463 1.463s1.463-.655 1.463-1.463v-8.007c0-.808-.655-1.463-1.463-1.463z" fill="#0089ef"/><path d="m24.584 80.127h-7.48c-.953 0-1.726.773-1.726 1.726v7.48c0 .953.773 1.726 1.726 1.726h7.48c.953 0 1.726-.773 1.726-1.726v-7.48c0-.954-.773-1.726-1.726-1.726z" fill="#6dc9f7"/><path d="m13.914 80.127c-.808 0-1.463.655-1.463 1.463v8.007c0 .808.655 1.463 1.463 1.463s1.463-.655 1.463-1.463v-8.007c0-.808-.655-1.463-1.463-1.463z" fill="#0089ef"/><path d="m106.9 29.185h-7.48c-.953 0-1.726.773-1.726 1.726v7.48c0 .953.773 1.726 1.726 1.726h7.48c.953 0 1.726-.773 1.726-1.726v-7.48c.001-.953-.772-1.726-1.726-1.726z" fill="#6dc9f7"/><path d="m110.087 29.184c-.808 0-1.463.655-1.463 1.463v8.007c0 .808.655 1.463 1.463 1.463s1.463-.655 1.463-1.463v-8.007c0-.808-.655-1.463-1.463-1.463z" fill="#0089ef"/><path d="m106.9 46.165h-7.48c-.953 0-1.726.773-1.726 1.726v7.48c0 .953.773 1.726 1.726 1.726h7.48c.953 0 1.726-.773 1.726-1.726v-7.48c.001-.953-.772-1.726-1.726-1.726z" fill="#6dc9f7"/><path d="m110.087 46.164c-.808 0-1.463.655-1.463 1.463v8.007c0 .808.655 1.463 1.463 1.463s1.463-.655 1.463-1.463v-8.007c0-.808-.655-1.463-1.463-1.463z" fill="#0089ef"/><path d="m106.9 63.146h-7.48c-.953 0-1.726.773-1.726 1.726v7.48c0 .953.773 1.726 1.726 1.726h7.48c.953 0 1.726-.773 1.726-1.726v-7.48c.001-.953-.772-1.726-1.726-1.726z" fill="#6dc9f7"/><path d="m110.087 63.145c-.808 0-1.463.655-1.463 1.463v8.007c0 .808.655 1.463 1.463 1.463s1.463-.655 1.463-1.463v-8.007c0-.808-.655-1.463-1.463-1.463z" fill="#0089ef"/><path d="m106.9 80.127h-7.48c-.953 0-1.726.773-1.726 1.726v7.48c0 .953.773 1.726 1.726 1.726h7.48c.953 0 1.726-.773 1.726-1.726v-7.48c.001-.954-.772-1.726-1.726-1.726z" fill="#6dc9f7"/><path d="m110.087 80.125c-.808 0-1.463.655-1.463 1.463v8.007c0 .808.655 1.463 1.463 1.463s1.463-.655 1.463-1.463v-8.007c0-.807-.655-1.463-1.463-1.463z" fill="#0089ef"/><path d="m39.92 96.153h-7.48c-.953 0-1.726.773-1.726 1.726v7.48c0 .953.773 1.726 1.726 1.726h7.48c.953 0 1.726-.773 1.726-1.726v-7.48c.001-.953-.772-1.726-1.726-1.726z" fill="#6dc9f7"/><path d="m40.184 107.086h-8.007c-.808 0-1.463.655-1.463 1.463s.655 1.463 1.463 1.463h8.007c.808 0 1.463-.655 1.463-1.463s-.655-1.463-1.463-1.463z" fill="#0089ef"/><path d="m57.135 96.153h-7.48c-.953 0-1.726.773-1.726 1.726v7.48c0 .953.773 1.726 1.726 1.726h7.48c.953 0 1.726-.773 1.726-1.726v-7.48c0-.953-.773-1.726-1.726-1.726z" fill="#6dc9f7"/><path d="m57.398 107.086h-8.007c-.808 0-1.463.655-1.463 1.463s.655 1.463 1.463 1.463h8.007c.808 0 1.463-.655 1.463-1.463s-.655-1.463-1.463-1.463z" fill="#0089ef"/><path d="m74.349 96.153h-7.48c-.953 0-1.726.773-1.726 1.726v7.48c0 .953.773 1.726 1.726 1.726h7.48c.953 0 1.726-.773 1.726-1.726v-7.48c0-.953-.773-1.726-1.726-1.726z" fill="#6dc9f7"/><path d="m74.612 107.086h-8.007c-.808 0-1.463.655-1.463 1.463s.655 1.463 1.463 1.463h8.007c.808 0 1.463-.655 1.463-1.463s-.655-1.463-1.463-1.463z" fill="#0089ef"/><path d="m91.564 96.153h-7.48c-.953 0-1.726.773-1.726 1.726v7.48c0 .953.773 1.726 1.726 1.726h7.48c.953 0 1.726-.773 1.726-1.726v-7.48c0-.953-.773-1.726-1.726-1.726z" fill="#6dc9f7"/><path d="m91.827 107.086h-8.007c-.808 0-1.463.655-1.463 1.463s.655 1.463 1.463 1.463h8.007c.808 0 1.463-.655 1.463-1.463s-.655-1.463-1.463-1.463z" fill="#0089ef"/><g fill="#3a2c60"><path d="m46.466 52.102c-.553 0-1 .448-1 1v7.511c0 .552.447 1 1 1s1-.448 1-1v-7.511c0-.552-.447-1-1-1z"/><path d="m91.743 27.483h-12.659c-1.404 0-2.546 1.142-2.546 2.546v43.731c0 .301-.245.546-.547.546h-27.979c-.301 0-.546-.245-.546-.546v-8.553c0-.552-.447-1-1-1s-1 .448-1 1v8.553c0 1.404 1.142 2.546 2.546 2.546h27.979c1.404 0 2.547-1.142 2.547-2.546v-43.73c0-.301.245-.546.546-.546h12.659c.301 0 .546.245.546.546v59.483c0 .301-.245.546-.546.546h-59.483c-.301 0-.546-.245-.546-.546v-59.483c0-.301.245-.546.546-.546h12.659c.302 0 .547.245.547.546v17.923c0 .552.447 1 1 1s1-.448 1-1v-17.923c0-1.404-1.143-2.546-2.547-2.546h-12.659c-1.404 0-2.546 1.142-2.546 2.546v59.483c0 1.404 1.142 2.546 2.546 2.546h59.483c1.404 0 2.546-1.142 2.546-2.546v-59.483c0-1.405-1.141-2.547-2.546-2.547z"/><path d="m53.961 20.86h16.081c2.171 0 3.937-1.766 3.937-3.936s-1.766-3.936-3.937-3.936h-16.081c-2.171 0-3.937 1.766-3.937 3.936s1.766 3.936 3.937 3.936zm0-5.872h16.081c1.067 0 1.937.869 1.937 1.936s-.869 1.936-1.937 1.936h-16.081c-1.067 0-1.937-.869-1.937-1.936s.87-1.936 1.937-1.936z"/><path d="m24.583 28.185h-7.48c-.618 0-1.182.215-1.64.563-.424-.347-.959-.563-1.548-.563-1.358 0-2.464 1.105-2.464 2.463v8.007c0 1.358 1.105 2.463 2.464 2.463.589 0 1.124-.217 1.548-.563.458.348 1.022.563 1.64.563h7.48c1.504 0 2.727-1.223 2.727-2.726v-7.48c0-1.504-1.223-2.727-2.727-2.727zm-10.206 10.47c0 .255-.208.463-.463.463-.256 0-.464-.208-.464-.463v-8.007c0-.255.208-.463.464-.463.255 0 .463.208.463.463v.263 7.48zm10.933-.264c0 .4-.326.726-.727.726h-7.48c-.4 0-.726-.326-.726-.726v-7.48c0-.4.325-.726.726-.726h7.48c.4 0 .727.326.727.726z"/><path d="m24.583 45.165h-7.48c-.618 0-1.182.215-1.64.563-.424-.347-.959-.563-1.548-.563-1.358 0-2.464 1.105-2.464 2.463v8.007c0 1.358 1.105 2.463 2.464 2.463.589 0 1.124-.217 1.548-.563.458.348 1.022.563 1.64.563h7.48c1.504 0 2.727-1.223 2.727-2.726v-7.48c0-1.503-1.223-2.727-2.727-2.727zm-10.206 10.47c0 .255-.208.463-.463.463-.256 0-.464-.208-.464-.463v-8.007c0-.255.208-.463.464-.463.255 0 .463.208.463.463v.263 7.48zm10.933-.263c0 .4-.326.726-.727.726h-7.48c-.4 0-.726-.326-.726-.726v-7.48c0-.4.325-.726.726-.726h7.48c.4 0 .727.326.727.726z"/><path d="m24.583 62.146h-7.48c-.618 0-1.182.215-1.64.563-.424-.347-.959-.563-1.548-.563-1.358 0-2.464 1.105-2.464 2.463v8.007c0 1.358 1.105 2.463 2.464 2.463.589 0 1.124-.217 1.548-.563.458.348 1.022.563 1.64.563h7.48c1.504 0 2.727-1.223 2.727-2.727v-7.48c0-1.503-1.223-2.726-2.727-2.726zm-10.206 10.47c0 .255-.208.463-.463.463-.256 0-.464-.208-.464-.463v-8.007c0-.255.208-.463.464-.463.255 0 .463.208.463.463v.263 7.48zm10.933-.264c0 .4-.326.727-.727.727h-7.48c-.4 0-.726-.326-.726-.727v-7.48c0-.4.325-.726.726-.726h7.48c.4 0 .727.326.727.726z"/><path d="m24.583 79.126h-7.48c-.618 0-1.182.215-1.64.563-.424-.347-.959-.563-1.548-.563-1.358 0-2.464 1.105-2.464 2.463v8.006c0 1.358 1.105 2.463 2.464 2.463.589 0 1.124-.217 1.548-.563.458.348 1.022.563 1.64.563h7.48c1.504 0 2.727-1.223 2.727-2.727v-7.48c0-1.502-1.223-2.725-2.727-2.725zm-10.206 10.47c0 .255-.208.463-.463.463-.256 0-.464-.208-.464-.463v-8.006c0-.255.208-.463.464-.463.255 0 .463.208.463.463v.263 7.48zm10.933-.263c0 .4-.326.727-.727.727h-7.48c-.4 0-.726-.326-.726-.727v-7.48c0-.4.325-.727.726-.727h7.48c.4 0 .727.326.727.727z"/><path d="m110.087 28.183c-.589 0-1.124.217-1.548.563-.457-.347-1.021-.562-1.638-.562h-7.48c-1.504 0-2.727 1.223-2.727 2.726v7.48c0 1.503 1.223 2.726 2.727 2.726h7.48c.618 0 1.182-.215 1.64-.563.424.346.958.562 1.547.562 1.358 0 2.463-1.105 2.463-2.463v-8.006c-.001-1.358-1.105-2.463-2.464-2.463zm-3.186 10.935h-7.48c-.4 0-.727-.326-.727-.726v-7.48c0-.4.326-.726.727-.726h7.48c.397 0 .718.321.724.716v7.5c-.006.395-.327.716-.724.716zm3.649-.465c0 .255-.208.463-.463.463s-.463-.208-.463-.463v-.242c0-.007.002-.013.002-.019v-7.48c0-.007-.002-.013-.002-.019v-.245c0-.255.208-.463.463-.463s.463.208.463.463z"/><path d="m110.087 45.164c-.589 0-1.123.216-1.548.563-.458-.348-1.021-.562-1.639-.562h-7.48c-1.504 0-2.727 1.223-2.727 2.726v7.48c0 1.503 1.223 2.726 2.727 2.726h7.48c.618 0 1.182-.215 1.64-.563.424.346.958.562 1.547.562 1.358 0 2.463-1.105 2.463-2.463v-8.007c0-1.357-1.104-2.462-2.463-2.462zm-3.186 10.934h-7.48c-.4 0-.727-.326-.727-.726v-7.48c0-.4.326-.726.727-.726h7.48c.397 0 .718.321.724.716v7.5c-.006.395-.327.716-.724.716zm3.649-.464c0 .255-.208.463-.463.463s-.463-.208-.463-.463v-.243c0-.007.002-.013.002-.019v-7.48c0-.007-.002-.013-.002-.019v-.245c0-.255.208-.463.463-.463s.463.208.463.463z"/><path d="m110.087 62.145c-.589 0-1.123.216-1.548.563-.458-.348-1.021-.562-1.639-.562h-7.48c-1.504 0-2.727 1.223-2.727 2.726v7.48c0 1.503 1.223 2.727 2.727 2.727h7.48c.618 0 1.182-.215 1.64-.563.424.346.958.562 1.546.562 1.358 0 2.463-1.105 2.463-2.463v-8.007c.001-1.358-1.103-2.463-2.462-2.463zm-3.186 10.934h-7.48c-.4 0-.727-.326-.727-.727v-7.48c0-.4.326-.726.727-.726h7.48c.397 0 .718.321.724.716v7.5c-.006.396-.327.717-.724.717zm3.649-.464c0 .255-.208.463-.463.463s-.463-.208-.463-.463v-.243c0-.007.002-.013.002-.019v-7.48c0-.007-.002-.013-.002-.019v-.245c0-.255.208-.463.463-.463s.463.208.463.463z"/><path d="m110.087 79.125c-.589 0-1.123.217-1.548.563-.458-.348-1.021-.562-1.639-.562h-7.48c-1.504 0-2.727 1.223-2.727 2.727v7.48c0 1.503 1.223 2.727 2.727 2.727h7.48c.618 0 1.182-.215 1.64-.563.424.346.958.562 1.547.562 1.358 0 2.463-1.105 2.463-2.463v-8.006c0-1.36-1.104-2.465-2.463-2.465zm-3.186 10.934h-7.48c-.4 0-.727-.326-.727-.727v-7.48c0-.4.326-.727.727-.727h7.48c.397 0 .718.321.724.717v7.499c-.006.397-.327.718-.724.718zm3.649-.464c0 .255-.208.463-.463.463s-.463-.208-.463-.463v-.243c0-.007.002-.013.002-.019v-7.48c0-.007-.002-.013-.002-.019v-.245c0-.255.208-.463.463-.463s.463.208.463.463z"/><path d="m39.92 95.153h-7.48c-1.503 0-2.726 1.223-2.726 2.726v7.48c0 .618.215 1.183.563 1.641-.347.424-.563.959-.563 1.548 0 1.358 1.104 2.463 2.463 2.463h8.007c1.358 0 2.463-1.105 2.463-2.463 0-.589-.217-1.124-.563-1.548.348-.458.563-1.022.563-1.641v-7.48c0-1.503-1.223-2.726-2.727-2.726zm-8.206 2.726c0-.4.325-.726.726-.726h7.48c.4 0 .727.326.727.726v7.48c0 .4-.326.726-.727.726h-7.48c-.4 0-.726-.326-.726-.726zm8.47 11.133h-8.007c-.255 0-.463-.208-.463-.463s.208-.463.463-.463h.263 7.48.264c.255 0 .463.208.463.463s-.208.463-.463.463z"/><path d="m57.135 95.153h-7.48c-1.504 0-2.727 1.223-2.727 2.726v7.48c0 .618.215 1.183.563 1.641-.347.424-.563.959-.563 1.548 0 1.358 1.104 2.463 2.463 2.463h8.007c1.358 0 2.463-1.105 2.463-2.463 0-.589-.217-1.124-.563-1.548.348-.458.563-1.022.563-1.641v-7.48c0-1.503-1.223-2.726-2.726-2.726zm-8.207 2.726c0-.4.326-.726.727-.726h7.48c.4 0 .726.326.726.726v7.48c0 .4-.325.726-.726.726h-7.48c-.4 0-.727-.326-.727-.726zm8.47 11.133h-8.007c-.255 0-.463-.208-.463-.463s.208-.463.463-.463h.264 7.48.263c.255 0 .463.208.463.463s-.208.463-.463.463z"/><path d="m74.349 95.153h-7.48c-1.503 0-2.726 1.223-2.726 2.726v7.48c0 .618.215 1.183.563 1.641-.347.424-.563.959-.563 1.548 0 1.358 1.104 2.463 2.463 2.463h8.007c1.358 0 2.463-1.105 2.463-2.463 0-.589-.217-1.124-.563-1.548.348-.458.563-1.022.563-1.641v-7.48c-.001-1.503-1.223-2.726-2.727-2.726zm-8.206 2.726c0-.4.325-.726.726-.726h7.48c.4 0 .727.326.727.726v7.48c0 .4-.326.726-.727.726h-7.48c-.4 0-.726-.326-.726-.726zm8.47 11.133h-8.007c-.255 0-.463-.208-.463-.463s.208-.463.463-.463h.263 7.48.264c.255 0 .463.208.463.463s-.209.463-.463.463z"/><path d="m91.564 95.153h-7.48c-1.504 0-2.727 1.223-2.727 2.726v7.48c0 .618.215 1.183.563 1.641-.347.424-.563.959-.563 1.548 0 1.358 1.104 2.463 2.463 2.463h8.007c1.358 0 2.463-1.105 2.463-2.463 0-.589-.217-1.124-.563-1.548.348-.458.563-1.022.563-1.641v-7.48c-.001-1.503-1.223-2.726-2.726-2.726zm-8.207 2.726c0-.4.326-.726.727-.726h7.48c.4 0 .726.326.726.726v7.48c0 .4-.325.726-.726.726h-7.48c-.4 0-.727-.326-.727-.726zm8.469 11.133h-8.006c-.255 0-.463-.208-.463-.463s.208-.463.463-.463h.264 7.48.263c.255 0 .463.208.463.463s-.209.463-.464.463z"/></g></svg>