<svg id="Layer_1" enable-background="new 0 0 128 128" height="512" viewBox="0 0 128 128" width="512" xmlns="http://www.w3.org/2000/svg"><path d="m104.224 80.581c-.039-.047-.077-.091-.124-.13-3.882-4.082-8.992-6.981-14.736-8.094 5.071-2.973 8.832-7.942 10.198-13.824.281.081.566.134.853.134 2.291 0 4.085-2.353 4.085-5.356 0-2.486-1.237-4.503-2.96-5.132 1.095-1.007 1.785-2.445 1.785-4.052 0-1.86-.92-3.501-2.326-4.506.12-.376.202-.768.202-1.183v-4.081l1.257-15.05c.197-2.363-1.325-4.497-3.621-5.073-4.469-1.121-13.054-3.001-20.34-3.001-8.251 0-16.329 1.842-20.41 2.94-2.255.606-3.752 2.733-3.559 5.057l1.258 15.133v4.075c0 .415.082.807.202 1.183-1.407 1.004-2.327 2.646-2.327 4.506 0 1.608.69 3.046 1.788 4.051-1.724.628-2.962 2.646-2.962 5.133 0 3.003 1.794 5.356 4.085 5.356.246 0 .487-.04.725-.097 1.376 5.878 5.144 10.841 10.221 13.805-5.702 1.128-10.774 4.019-14.633 8.076-.046.038-.083.081-.121.127-4.641 4.942-7.492 11.583-7.492 18.882v5.102h-6.658c-.003 0-.005.001-.007.001h-17.322c-.552 0-1 .448-1 1v2.59c0 4.836 3.935 8.771 8.771 8.771h8.558v2.839c0 .552.448 1 1 1h23.203.001s0 0 .001 0l39.886.001c5.52 0 10.011-4.491 10.011-10.011v-11.292c-.001-7.297-2.852-13.938-7.492-18.88z" fill="#e6e7e8"/><path d="m17.285 101.564v2.59c0 4.292 3.479 7.771 7.771 7.771h9.557v-10.361z" fill="#fff"/><path d="m81.897 68.915c-2.32.9-4.834 1.412-7.472 1.412-2.629 0-5.135-.51-7.449-1.404-13.806.98-24.705 12.482-24.705 26.538v6.102h-7.658v14.202h7.658v.001h55.432c4.977 0 9.011-4.034 9.011-9.011v-11.294c.001-14.094-10.957-25.622-24.817-26.546z" fill="#fa759e"/><path d="m67.692 83.52c-.962 0-1.742.78-1.742 1.742s.78 1.742 1.742 1.742 1.742-.78 1.742-1.742-.78-1.742-1.742-1.742z" fill="#fff"/><path d="m67.692 93.213c-.962 0-1.742.78-1.742 1.742s.78 1.742 1.742 1.742 1.742-.78 1.742-1.742-.78-1.742-1.742-1.742z" fill="#fff"/><path d="m74.425 70.328c-2.628 0-5.131-.509-7.444-1.402-.807.058-1.606.142-2.392.269l2.729 10.89h14.621l2.458-10.89c-.825-.134-1.666-.218-2.515-.274-2.316.896-4.824 1.407-7.457 1.407z" fill="#fff"/><path d="m66.68 101.564v2.59c0 4.292 3.479 7.771 7.771 7.771h9.557v-10.361z" fill="#fff"/><path d="m53.813 51.433c-.057-.596-.091-1.198-.091-1.809v-3.14c0-.392.024-.783.04-1.174-.367-.219-.766-.354-1.19-.354-1.704 0-3.085 1.95-3.085 4.356s1.381 4.356 3.085 4.356c.534 0 1.029-.21 1.467-.549-.095-.556-.177-1.116-.226-1.686z" fill="#fff"/><path d="m96.415 44.956c-.449 0-.872.142-1.257.385.016.381.039.76.039 1.142v3.14c0 1.181-.104 2.337-.294 3.463.448.359.96.581 1.512.581 1.704 0 3.085-1.95 3.085-4.356s-1.381-4.355-3.085-4.355z" fill="#fff"/><path d="m93.277 37.363h-37.567c-.15 0-.295-.022-.439-.044-1.017 2.935-1.549 6.031-1.549 9.166v3.14c0 11.434 9.269 20.703 20.703 20.703 11.434 0 20.703-9.269 20.703-20.703v-3.14c0-3.13-.531-6.221-1.545-9.152-.102.01-.201.03-.306.03z" fill="#fff"/><path d="m93.277 37.363h-37.567c-1.615 0-2.923-1.309-2.923-2.923v-4.117h43.414v4.117c0 1.614-1.309 2.923-2.924 2.923z" fill="#0089ef"/><path d="m52.786 30.322h43.414v3h-43.414z" fill="#fff"/><path d="m96.201 30.322 1.261-15.097c.155-1.863-1.055-3.565-2.868-4.02-4.47-1.121-12.931-2.971-20.097-2.971-8.071 0-15.964 1.78-20.15 2.906-1.787.481-2.975 2.164-2.822 4.008l1.261 15.174z" fill="#fa759e"/><g fill="#3a2c60"><path d="m100.235 76.596c-.042-.052-.083-.102-.133-.144-3.884-4.082-9.001-6.976-14.748-8.088 5.076-2.971 8.84-7.943 10.208-13.827.281.083.566.131.854.131 2.291 0 4.085-2.353 4.085-5.356 0-2.486-1.237-4.503-2.96-5.132 1.095-1.007 1.785-2.445 1.785-4.052 0-1.858-.925-3.49-2.33-4.493.122-.379.206-.776.206-1.196v-4.081l1.257-15.05c.197-2.363-1.325-4.497-3.621-5.073-4.469-1.121-13.054-3.001-20.34-3.001-8.251 0-16.329 1.842-20.41 2.94-2.255.606-3.752 2.733-3.559 5.057l1.258 15.133v4.075c0 .419.083.816.206 1.195-1.406 1.003-2.33 2.635-2.33 4.494 0 1.608.69 3.046 1.788 4.051-1.724.628-2.962 2.646-2.962 5.133 0 3.003 1.794 5.356 4.085 5.356.246 0 .487-.037.725-.096 1.377 5.882 5.15 10.848 10.233 13.811-5.707 1.127-10.788 4.012-14.65 8.072-.047.039-.084.086-.124.134-4.637 4.94-7.485 11.577-7.485 18.872v5.102h-6.658c-.003 0-.005.001-.007.001h-17.323c-.552 0-1 .448-1 1v2.59c0 4.836 3.935 8.771 8.771 8.771h8.558v2.839c0 .552.448 1 1 1h23.203.001s0 0 .001 0l39.886.001c5.52 0 10.011-4.491 10.011-10.011v-11.293c-.001-7.292-2.847-13.926-7.481-18.865zm-10.065 23.967h-6.161c-.003 0-.005.001-.007.001h-17.322c-.553 0-1 .448-1 1v2.59c0 4.836 3.935 8.771 8.771 8.771h8.558v1.84h-19.623v-11.308c0-.552-.448-1-1-1s-1 .448-1 1v11.308h-2.569v-25.007c0-5.387-2.94-10.269-7.594-12.821 3.44-3.282 7.786-5.621 12.624-6.589l2.189 8.736h-3.651c-.552 0-1 .448-1 1v8.82c0 .552.448 1 1 1s1-.448 1-1v-7.82h3.932 14.621c.468 0 .872-.324.976-.78l2.246-9.952c4.829.972 9.166 3.309 12.602 6.586-4.653 2.552-7.593 7.434-7.593 12.82v10.805zm-7.161 10.363h-8.558c-3.733 0-6.771-3.038-6.771-6.771v-1.59h15.329zm-16.859-39.62 5.036 3.034h-4.276zm1.949 7.778-.688-2.744h14.348l-.619 2.744zm14.111-4.744h-4.22l4.885-2.943zm-1.592-3.918-6.031 3.633-5.737-3.457c1.78.473 3.647.729 5.574.729 2.153.001 4.23-.319 6.194-.905zm-24.908-34.059c-1.061 0-1.923-.863-1.923-1.924v-3.117h41.415v3.117c0 1.061-.863 1.924-1.924 1.924zm40.282 16.22c.136-.993.205-1.985.205-2.959v-3.14c0-.168-.004-.336-.011-.504 1.237-.252 2.313 1.392 2.313 3.332.001 2.044-1.211 3.781-2.507 3.271zm-41.386-40.477c3.986-1.073 11.87-2.872 19.891-2.872 7.071 0 15.474 1.842 19.854 2.94 1.341.336 2.23 1.584 2.115 2.967l-1.185 14.18h-41.574l-1.186-14.257c-.113-1.358.764-2.603 2.085-2.958zm-2.034 40.562c-1.13 0-2.085-1.537-2.085-3.356s.955-3.355 2.085-3.355c.053 0 .106.004.16.013-.006.171-.011.343-.011.515v3.14c0 1.011.075 2.004.21 2.979-.121.041-.241.064-.359.064zm2.15-3.044v-3.14c0-2.771.452-5.504 1.279-8.121h36.85c.827 2.618 1.279 5.35 1.279 8.121v3.14c0 10.865-8.839 19.704-19.704 19.704s-19.704-8.839-19.704-19.704zm-21.109 61.302h-8.557c-3.733 0-6.771-3.038-6.771-6.771v-1.59h15.328zm2.001-8.363h5.658v5.539c0 .552.448 1 1 1s1-.448 1-1v-6.539-6.102c0-6.532 2.461-12.498 6.501-17.027 4.3 2.121 7.045 6.487 7.045 11.324v25.007h-21.204zm70.101 4.192c0 4.417-3.594 8.011-8.011 8.011h-12.695v-2.84-9.363h15.1c.553 0 1-.448 1-1s-.447-1-1-1h-7.939v-10.805c0-4.837 2.745-9.203 7.044-11.324 4.039 4.529 6.501 10.495 6.501 17.027z"/><path d="m62.386 92.117c-.552 0-1 .448-1 1v6c0 .552.448 1 1 1s1-.448 1-1v-6c0-.552-.448-1-1-1z"/><path d="m74.493 56.941c1.85 0 3.354-1.505 3.354-3.354v-1.38c0-.552-.447-1-1-1s-1 .448-1 1v1.38c0 .747-.607 1.354-1.354 1.354s-1.354-.607-1.354-1.354v-1.38c0-.552-.447-1-1-1s-1 .448-1 1v1.38c0 1.85 1.505 3.354 3.354 3.354z"/><path d="m82.037 42.8 4.055.706c.059.01.116.015.173.015.478 0 .899-.342.984-.829.095-.544-.27-1.062-.813-1.157l-4.055-.706c-.551-.091-1.062.27-1.157.814s.269 1.062.813 1.157z"/><path d="m67.764 41.643c-.096-.544-.605-.905-1.157-.814l-4.054.706c-.544.095-.909.613-.814 1.157.085.486.507.829.984.829.057 0 .115-.005.172-.015l4.055-.706c.544-.095.908-.613.814-1.157z"/><path d="m79.878 59.837c.334-.44.247-1.067-.193-1.401-.441-.335-1.068-.247-1.4.193-.014.018-1.334 1.723-3.791 1.723-2.463 0-3.715-1.623-3.779-1.709-.325-.444-.946-.543-1.393-.221-.448.323-.549.948-.226 1.396.074.104 1.869 2.534 5.397 2.534 3.44 0 5.308-2.413 5.385-2.515z"/><circle cx="65.586" cy="47.708" r="2.356"/><circle cx="83.264" cy="47.708" r="2.356"/></g></svg>