<svg id="Layer_1" enable-background="new 0 0 128 128" height="512" viewBox="0 0 128 128" width="512" xmlns="http://www.w3.org/2000/svg"><path d="m116.806 112.153c.119-.323.194-.667.194-1.031 0-1.654-1.346-3-3-3h-1v-40.5c0-1.772-.847-3.348-2.153-4.354 2.174-1.189 3.653-3.498 3.653-6.146 0-3.859-3.141-7-7-7s-7 3.141-7 7c0 2.17.993 4.113 2.549 5.398-.429.277-.857.552-1.286.815-.277.171-.524.386-.732.634-.317.063-.624.179-.905.341-.557.319-1.113.627-1.67.924-.285.153-.545.353-.767.587-.316.044-.629.141-.925.287-.573.284-1.146.557-1.721.82-.296.136-.566.318-.802.539-.323.024-.641.101-.936.226-.59.248-1.179.486-1.77.714-.304.117-.585.282-.833.487-.322.005-.644.062-.947.169-.604.211-1.207.411-1.812.602-.309.098-.599.245-.857.433-.328-.012-.65.021-.965.11-.613.174-1.226.335-1.837.486-.316.078-.619.208-.894.383-.316-.035-.643-.021-.959.049-.626.134-1.25.259-1.871.373-.32.059-.63.169-.913.326-.315-.055-.644-.058-.964-.01-.633.096-1.263.183-1.892.26-.324.039-.639.132-.932.271-.314-.073-.641-.099-.964-.067-.638.059-1.273.108-1.906.148-.326.021-.646.095-.947.219-.307-.092-.632-.134-.963-.123-.641.022-1.277.035-1.912.04-.328.003-.651.059-.958.165-.307-.111-.632-.171-.961-.178-.643-.012-1.28-.033-1.927-.063-.337-.019-.649.026-.952.113-.3-.127-.62-.204-.949-.229-.644-.047-1.281-.102-1.913-.163-.33-.031-.657-.012-.975.063-.294-.142-.61-.235-.937-.275-.641-.079-1.277-.165-1.906-.259-.324-.048-.654-.044-.975.016-.287-.156-.601-.266-.926-.321-.64-.11-1.27-.227-1.891-.35-.324-.065-.655-.074-.984-.031-.28-.169-.588-.293-.91-.363-.635-.14-1.26-.285-1.884-.438-.32-.076-.646-.098-.972-.072-.273-.183-.577-.32-.896-.405-.63-.168-1.25-.342-1.858-.518-.318-.093-.647-.132-.977-.117-.266-.194-.563-.345-.877-.443-.625-.196-1.238-.395-1.839-.598-.315-.107-.64-.159-.973-.158-.256-.204-.545-.366-.856-.478-.621-.223-1.227-.449-1.815-.674-.311-.119-.636-.186-.963-.197-.249-.215-.533-.391-.843-.517-.616-.248-1.21-.497-1.78-.743-.308-.133-.632-.213-.958-.238-.238-.224-.513-.409-.811-.544-.618-.282-1.203-.557-1.756-.823-.301-.145-.615-.236-.939-.275-.229-.234-.495-.432-.789-.581-.377-.191-.722-.372-1.051-.546 1.427-1.282 2.331-3.136 2.331-5.2 0-3.859-3.141-7-7-7s-7 3.141-7 7c0 2.648 1.479 4.957 3.653 6.146-1.303 1.005-2.15 2.581-2.15 4.353v40.5h-1c-1.654 0-3 1.346-3 3 0 .364.075.708.194 1.031-1.509.156-2.694 1.419-2.694 2.969 0 1.654 1.346 3 3 3h18c1.654 0 3-1.346 3-3 0-1.55-1.185-2.813-2.694-2.969.119-.323.194-.667.194-1.031 0-1.654-1.346-3-3-3h-1v-38.684c.397.188.785.373 1.212.567.322.147.666.236 1.016.264.254.239.549.433.871.571.612.264 1.247.53 1.908.799.325.13.668.202 1.012.215.264.229.566.411.896.537.626.24 1.27.479 1.931.717.332.118.695.188 1.028.177.271.217.581.387.915.499.641.215 1.295.428 1.96.636.335.105.684.148 1.033.135.282.206.599.363.937.461.651.19 1.315.375 1.994.557.338.088.688.118 1.033.087.291.194.615.338.96.423.662.161 1.333.318 2.013.467.344.075.697.089 1.045.044.299.182.629.31.973.377.671.132 1.35.258 2.031.375.349.062.704.061 1.051-.003.308.168.645.281.996.333.678.1 1.361.193 2.058.279.352.04.702.021 1.039-.057.316.153.659.25 1.012.284.683.067 1.37.126 2.078.178.365.023.704-.015 1.032-.109.324.137.672.217 1.028.233.688.031 1.38.055 2.111.068.351-.006.688-.063.999-.167.327.118.679.18 1.042.18.689-.005 1.383-.02 2.081-.044.355-.013.705-.088 1.03-.222.345.104.698.145 1.048.118.689-.044 1.383-.098 2.075-.162.356-.033.702-.129 1.021-.281.339.08.694.1 1.051.059.687-.084 1.376-.179 2.068-.284.354-.054.693-.17 1.003-.342.346.062.705.06 1.057-.006.681-.126 1.362-.261 2.045-.408.351-.075.683-.213.981-.402.352.037.708.015 1.053-.07.673-.167 1.348-.345 2.024-.536.344-.097.665-.253.95-.461.353.021.709-.028 1.052-.136.659-.208 1.32-.428 1.979-.658.339-.117.652-.294.926-.521.354-.005.707-.073 1.042-.202.645-.25 1.289-.509 1.933-.78.33-.139.632-.335.891-.578.352-.027.698-.116 1.024-.265.627-.288 1.255-.587 1.884-.898.319-.159.607-.373.85-.63.348-.048.688-.158 1.007-.328.238-.128.475-.265.713-.396v37.992h-1c-1.654 0-3 1.346-3 3 0 .364.075.708.194 1.031-1.509.156-2.694 1.419-2.694 2.969 0 1.654 1.346 3 3 3h18c1.654 0 3-1.346 3-3-.002-1.552-1.187-2.815-2.696-2.971z" fill="#e6e7e8"/><path d="m35.091 42.483c2.405 0 4.361 1.957 4.361 4.362l-.003.192c-.004.221-.012.664-.022 1.81-.003.268.102.524.29.714.188.189.443.296.71.296h48.658c.267 0 .522-.106.711-.297.188-.189.292-.446.289-.713-.012-1.137-.02-1.582-.023-1.805l-.003-.197c0-2.405 1.956-4.362 4.361-4.362.553 0 1-.447 1-1v-2.619c0-.553-.447-1-1-1-1.103 0-2-.897-2-2s.897-2 2-2c.553 0 1-.447 1-1v-1.993c0-.553-.447-1-1-1-1.103 0-2-.897-2-2s.897-2 2-2c.553 0 1-.447 1-1v-2.619c0-.553-.447-1-1-1-2.405 0-4.361-1.957-4.361-4.362l.003-.198c.004-.223.012-.668.023-1.804.003-.267-.102-.523-.289-.713-.188-.19-.444-.297-.711-.297h-48.658c-.267 0-.522.106-.71.296-.188.189-.293.446-.29.714.011 1.145.019 1.588.022 1.809l.003.193c0 2.405-1.956 4.362-4.361 4.362-.553 0-1 .447-1 1v2.619c0 .553.447 1 1 1 1.103 0 2 .897 2 2s-.897 2-2 2c-.553 0-1 .447-1 1v1.993c0 .553.447 1 1 1 1.103 0 2 .897 2 2s-.897 2-2 2c-.553 0-1 .447-1 1v2.619c0 .553.447 1 1 1z" fill="#e6e7e8"/><path d="m105.125 57.957c-.644-.898-1.895-1.105-2.791-.461-.267.191-.533.38-.799.565-.292.204-.504.475-.648.774-.332.022-.664.118-.963.313-.546.356-1.092.703-1.638 1.039-.301.185-.535.437-.696.724-.329.004-.662.09-.968.266-.565.324-1.13.637-1.694.938-.312.167-.561.404-.739.682-.326-.021-.665.05-.98.206-.582.289-1.164.566-1.747.833-.32.147-.583.368-.777.633-.327-.033-.667.009-.99.146-.6.252-1.198.494-1.797.725-.328.127-.604.331-.814.584-.324-.057-.665-.033-.997.084-.613.214-1.226.417-1.838.61-.335.106-.623.292-.85.531-.322-.079-.665-.075-1.004.021-.623.176-1.246.34-1.868.494-.344.085-.644.254-.885.479-.315-.095-.656-.113-.999-.04-.636.136-1.269.263-1.9.379-.347.063-.656.214-.91.423-.309-.113-.647-.154-.996-.102-.643.098-1.282.186-1.92.264-.351.043-.669.174-.936.368-.302-.132-.64-.193-.99-.16-.647.06-1.292.109-1.935.15-.354.022-.679.136-.957.314-.293-.149-.614-.228-.98-.218-.65.023-1.297.036-1.94.041-.354.003-.686.097-.973.261-.286-.168-.617-.267-.972-.273-.652-.012-1.299-.034-1.942-.063-.354-.012-.688.06-.984.208-.276-.183-.602-.299-.955-.325-.652-.047-1.299-.103-1.94-.165-.356-.035-.692.024-.995.157-.268-.196-.587-.329-.939-.373-.649-.08-1.294-.167-1.931-.262-.351-.052-.693-.01-1.003.108-.257-.21-.57-.357-.921-.418-.647-.111-1.285-.229-1.917-.354-.351-.07-.695-.043-1.011.062-.248-.222-.555-.384-.902-.46-.643-.142-1.275-.289-1.9-.442-.345-.082-.693-.072-1.013.017-.238-.232-.537-.409-.882-.501-.637-.17-1.264-.345-1.881-.523-.342-.1-.69-.104-1.013-.028-.229-.242-.52-.432-.86-.538-.632-.198-1.252-.399-1.858-.604-.339-.114-.688-.133-1.013-.069-.217-.252-.5-.452-.835-.572-.628-.226-1.24-.454-1.835-.682-.332-.127-.677-.161-1.007-.11-.208-.262-.484-.475-.815-.609-.624-.252-1.225-.504-1.803-.753-.328-.142-.674-.19-1.003-.152-.196-.268-.461-.491-.785-.639-.624-.285-1.216-.563-1.772-.831-.319-.153-.652-.215-.993-.193-.184-.277-.439-.512-.757-.673-.643-.327-1.219-.632-1.724-.905-.311-.169-.646-.238-.976-.234-.013-.021-.032-.039-.045-.06-.767.356-1.619.561-2.521.561-.69 0-1.35-.122-1.967-.336-.045.273-.036.55.03.815.589-.283 1.24-.454 1.937-.454 2.45 0 4.434 1.961 4.49 4.398.192.286.459.527.792.688.58.278 1.195.567 1.847.864.337.154.697.208 1.042.17.204.279.483.51.824.656.605.261 1.233.524 1.885.788.344.138.701.176 1.042.124.216.271.504.49.851.623.62.237 1.258.474 1.911.709.349.125.709.148 1.051.083.226.262.522.468.873.586.634.213 1.281.424 1.94.63.355.111.716.118 1.052.04.237.252.543.446.899.55.645.188 1.301.371 1.967.549.358.094.719.086 1.054-.006.248.242.562.423.923.512.654.159 1.318.314 1.992.462.362.08.724.057 1.052-.053.259.23.579.397.943.469.663.131 1.334.255 2.013.372.368.065.726.022 1.05-.101.27.22.6.371.968.426.67.099 1.346.191 2.028.275.367.043.726-.012 1.044-.152.28.206.617.342.988.378.675.066 1.354.124 2.04.175.376.022.728-.05 1.038-.205.291.192.636.311 1.009.328.679.031 1.362.054 2.05.067.364-.006.725-.089 1.025-.261.297.174.642.273 1.01.273h.015c.681-.005 1.364-.02 2.052-.043.374-.014.72-.128 1.014-.317.31.158.672.242 1.037.215.68-.043 1.363-.097 2.048-.16.373-.034.713-.169.994-.375.318.142.681.198 1.049.155.677-.082 1.355-.176 2.037-.279.37-.057.702-.211.972-.434.326.121.691.158 1.058.091.671-.124 1.343-.257 2.016-.402.367-.079.689-.254.945-.493.332.102.697.117 1.06.027.663-.164 1.327-.34 1.993-.527.359-.102.669-.295.909-.549.34.081.706.073 1.063-.039.649-.205 1.301-.422 1.951-.649.354-.123.652-.337.876-.605.348.061.709.029 1.059-.105.636-.246 1.271-.502 1.906-.77.346-.146.629-.377.836-.659.346.037.708-.015 1.049-.17.618-.284 1.237-.579 1.856-.886.336-.167.604-.415.794-.71.347.02.706-.059 1.035-.234.6-.321 1.199-.653 1.798-.997.325-.186.577-.449.748-.754.349-.005.701-.101 1.02-.296.579-.355 1.156-.722 1.733-1.1.319-.209.552-.496.705-.816.35-.024.7-.125 1.008-.34.279-.195.56-.394.838-.593.892-.649 1.098-1.899.455-2.796z" fill="#fa759e"/><path d="m25 105.122v-41.476c0-2.485-2.015-4.5-4.5-4.5-2.485 0-4.5 2.015-4.5 4.5v41.476z" fill="#fff"/><path d="m20.5 62.146c-2.485 0-4.5 2.015-4.5 4.5v38.476h9v-38.476c0-2.485-2.015-4.5-4.5-4.5z" fill="#6dc9f7"/><circle cx="20.5" cy="53.122" fill="#6dc9f7" r="6"/><path d="m29.5 113.122h-18c-1.105 0-2-.895-2-2 0-1.105.895-2 2-2h18c1.105 0 2 .895 2 2 0 1.104-.895 2-2 2z" fill="#0089ef"/><path d="m27 109.122h-13c-1.105 0-2-.895-2-2 0-1.105.895-2 2-2h13c1.105 0 2 .895 2 2 0 1.104-.895 2-2 2z" fill="#0089ef"/><path d="m108 105.122v-41.476c0-2.485-2.015-4.5-4.5-4.5-2.485 0-4.5 2.015-4.5 4.5v41.476z" fill="#fff"/><path d="m103.5 62.146c-2.485 0-4.5 2.015-4.5 4.5v38.476h9v-38.476c0-2.485-2.015-4.5-4.5-4.5z" fill="#6dc9f7"/><circle cx="103.5" cy="53.122" fill="#6dc9f7" r="6"/><path d="m112.5 113.122h-18c-1.105 0-2-.895-2-2 0-1.105.895-2 2-2h18c1.105 0 2 .895 2 2 0 1.104-.895 2-2 2z" fill="#0089ef"/><path d="m110 109.122h-13c-1.105 0-2-.895-2-2 0-1.105.895-2 2-2h13c1.105 0 2 .895 2 2 0 1.104-.895 2-2 2z" fill="#0089ef"/><path d="m87.42 31.864c0-1.657 1.343-3 3-3v-1.994c-1.657 0-3-1.343-3-3s1.343-3 3-3v-2.619c-2.961 0-5.362-2.401-5.362-5.362 0-.173.01-.343.026-2.012h-48.658c.016 1.669.026 1.839.026 2.012 0 2.961-2.401 5.362-5.362 5.362v2.619c1.657 0 3 1.343 3 3s-1.343 3-3 3v1.994c1.657 0 3 1.343 3 3s-1.343 3-3 3v2.619c2.961 0 5.362 2.401 5.362 5.362 0 .173-.01.343-.026 2.012h48.658c-.016-1.669-.026-1.839-.026-2.012 0-2.961 2.401-5.362 5.362-5.362v-2.619c-1.656 0-3-1.343-3-3z" fill="#fa759e"/><path d="m77.956 16.226v-1c0-1.104-.896-2-2-2h-1c-1.104 0-2 .896-2 2h-.522c0-1.104-.896-2-2-2h-1.809c-1.104 0-2 .896-2 2h-.521c0-1.104-.896-2-2-2h-1.809c-1.104 0-2 .896-2 2h-.521c0-1.104-.896-2-2-2h-1.809c-1.104 0-2 .896-2 2h-.521c0-1.104-.896-2-2-2h-1.809c-1.104 0-2 .896-2 2h-.521c0-1.104-.896-2-2-2h-1c-1.104 0-2 .896-2 2v1c0 1.104.895 2 2 2v.478c-1.104 0-2 .896-2 2v1.791c0 1.104.895 2 2 2v.478c-1.104 0-2 .896-2 2v1.791c0 1.104.895 2 2 2v.478c-1.104 0-2 .896-2 2v1.791c0 1.104.895 2 2 2v.478c-1.104 0-2 .896-2 2v1c0 1.104.896 2 2 2h1c1.104 0 2-.896 2-2h.522c0 1.104.896 2 2 2h1.809c1.104 0 2-.896 2-2h.522c0 1.104.896 2 2 2h1.809c1.104 0 2-.896 2-2h.522c0 1.104.896 2 2 2h1.809c1.104 0 2-.896 2-2h.522c0 1.104.896 2 2 2h1.809c1.104 0 2-.896 2-2h.521c0 1.104.896 2 2 2h1c1.104 0 2-.896 2-2v-1c0-1.104-.895-2-2-2v-.478c1.104 0 2-.896 2-2v-1.793c0-1.104-.895-2-2-2v-.478c1.104 0 2-.896 2-2v-1.791c0-1.104-.895-2-2-2v-.478c1.104 0 2-.896 2-2v-1.791c0-1.104-.895-2-2-2v-.478c1.102.001 1.997-.894 1.997-1.998z" fill="#ffd7e5"/><path d="m70.713 34.026c-.853 0-1.544.692-1.544 1.544 0 .853.692 1.545 1.544 1.545.853 0 1.544-.692 1.544-1.545 0-.852-.691-1.544-1.544-1.544z" fill="#fa759e"/><path d="m70.913 34.499.101.311c.042.131.164.219.302.219h.327c.204 0 .289.261.124.381l-.265.192c-.111.081-.158.224-.115.354l.101.311c.063.194-.159.355-.324.236l-.265-.192c-.111-.081-.262-.081-.373 0l-.265.192c-.165.12-.387-.041-.324-.236l.101-.311c.042-.131-.004-.274-.115-.354l-.265-.192c-.165-.12-.08-.381.124-.381h.327c.137 0 .259-.088.302-.219l.101-.311c.063-.194.338-.194.401 0z" fill="#ffd7e5"/><path d="m49.798 34.026c-.853 0-1.544.692-1.544 1.544 0 .853.691 1.545 1.544 1.545s1.544-.692 1.544-1.545c.001-.852-.691-1.544-1.544-1.544z" fill="#fa759e"/><path d="m49.999 34.499.101.311c.042.131.164.219.302.219h.327c.204 0 .289.261.124.381l-.265.192c-.111.081-.158.224-.115.354l.101.311c.063.194-.159.355-.324.236l-.265-.192c-.111-.081-.262-.081-.373 0l-.265.192c-.165.12-.387-.041-.324-.236l.101-.311c.042-.131-.004-.274-.115-.354l-.265-.192c-.165-.12-.08-.381.124-.381h.327c.137 0 .259-.088.302-.219l.101-.311c.063-.194.338-.194.401 0z" fill="#ffd7e5"/><path d="m67.904 32.561-.595 1.673c-.245.672-.889 1.127-1.603 1.127h-11.607c-.714 0-1.358-.455-1.603-1.127l-.595-1.673z" fill="#0089ef"/><path d="m70.136 25.079c-.497 0-.9.403-.9.9 0 .036.016.066.02.101l-1.922.875c-2.41 1.097-5.224-.261-5.866-2.83l-1.028-4.116c.24-.162.407-.422.407-.733 0-.497-.403-.9-.9-.9s-.9.403-.9.9c0 .277.132.515.328.68l-1.041 4.17c-.641 2.569-3.456 3.927-5.865 2.83l-1.7-.773c.038-.1.064-.205.064-.318 0-.497-.403-.9-.9-.9s-.9.403-.9.9c0 .458.347.821.79.878l2.075 5.821h16.003l2.04-5.721c.064.014.124.039.192.039.497 0 .9-.403.9-.9s-.4-.903-.897-.903z" fill="#6dc9f7"/><g fill="#ffd7e5"><path d="m53.313 29.533c-.477 0-.863.386-.863.863s.386.863.863.863.863-.386.863-.863-.386-.863-.863-.863z"/><circle cx="66.758" cy="30.759" r=".863"/><path d="m60.036 27.489c-.477 0-.863.386-.863.863s.386.863.863.863.863-.386.863-.863-.387-.863-.863-.863z"/></g><path d="m112.806 108.152c.119-.323.194-.667.194-1.031 0-1.654-1.346-3-3-3h-1v-40.475c0-1.781-.855-3.362-2.172-4.368 2.185-1.186 3.672-3.501 3.672-6.156 0-3.859-3.141-7-7-7s-7 3.141-7 7c0 2.17.993 4.113 2.549 5.398-.429.277-.857.552-1.286.815-.277.171-.524.386-.732.634-.317.063-.624.179-.905.341-.557.319-1.113.627-1.67.924-.285.153-.545.353-.767.587-.316.044-.629.141-.925.287-.573.284-1.146.557-1.721.82-.296.136-.566.318-.802.539-.323.024-.641.101-.936.226-.59.248-1.179.486-1.77.714-.304.117-.585.282-.833.487-.322.005-.644.062-.947.169-.604.211-1.207.411-1.812.602-.309.098-.599.245-.857.433-.327-.013-.65.022-.965.11-.613.174-1.226.335-1.837.486-.316.078-.619.208-.894.383-.317-.034-.643-.021-.959.049-.626.134-1.25.259-1.871.373-.32.059-.63.169-.913.326-.316-.054-.644-.058-.964-.01-.633.096-1.263.183-1.892.26-.324.039-.639.132-.932.271-.314-.073-.641-.098-.964-.067-.638.059-1.273.108-1.906.148-.326.021-.646.095-.947.219-.307-.092-.635-.136-.963-.123-.641.022-1.277.035-1.912.04-.328.003-.651.059-.958.165-.307-.111-.632-.171-.961-.178-.643-.012-1.28-.033-1.927-.063-.339-.02-.649.026-.952.113-.3-.127-.62-.204-.949-.229-.644-.047-1.281-.102-1.913-.163-.331-.03-.657-.012-.975.063-.294-.142-.61-.235-.937-.275-.641-.079-1.277-.165-1.906-.259-.324-.048-.654-.043-.975.016-.287-.156-.601-.266-.926-.321-.64-.11-1.27-.227-1.891-.35-.325-.064-.656-.074-.984-.031-.28-.169-.588-.293-.91-.363-.635-.14-1.26-.285-1.884-.438-.32-.076-.646-.097-.972-.072-.273-.183-.577-.32-.896-.405-.63-.168-1.25-.342-1.858-.518-.318-.093-.648-.131-.977-.117-.266-.194-.563-.345-.877-.443-.625-.196-1.238-.395-1.839-.598-.315-.107-.641-.159-.973-.158-.256-.204-.545-.366-.856-.478-.621-.223-1.227-.449-1.815-.674-.311-.119-.636-.186-.963-.197-.249-.216-.533-.391-.843-.517-.616-.248-1.21-.497-1.78-.743-.308-.133-.632-.213-.958-.238-.238-.224-.513-.409-.811-.544-.618-.282-1.203-.557-1.756-.823-.301-.145-.615-.236-.939-.275-.229-.234-.495-.432-.789-.581-.377-.191-.722-.372-1.051-.546 1.427-1.282 2.331-3.136 2.331-5.201 0-3.859-3.141-7-7-7s-7 3.141-7 7c0 2.656 1.487 4.97 3.672 6.156-1.314 1.005-2.169 2.587-2.169 4.368v40.476h-1c-1.654 0-3 1.346-3 3 0 .364.072.709.193 1.031-1.508.156-2.693 1.42-2.693 2.969 0 1.654 1.346 3 3 3h18c1.654 0 3-1.346 3-3 0-1.549-1.184-2.813-2.693-2.969.121-.321.193-.667.193-1.031 0-1.654-1.346-3-3-3h-1v-38.685c.397.188.785.373 1.212.567.322.147.666.236 1.016.264.254.239.549.433.871.571.612.264 1.247.53 1.908.799.325.13.668.202 1.012.215.264.229.566.411.896.537.626.24 1.27.479 1.931.717.332.119.668.162 1.028.177.271.217.581.387.915.499.641.215 1.295.428 1.96.636.335.105.682.148 1.033.135.282.206.599.363.937.461.651.19 1.315.375 1.994.557.338.088.688.119 1.033.087.291.194.615.338.96.423.662.161 1.333.318 2.013.467.345.075.697.09 1.045.044.299.182.629.31.973.377.671.132 1.35.258 2.031.375.349.062.704.061 1.051-.003.308.168.645.281.996.333.678.1 1.361.193 2.058.279.353.039.702.021 1.039-.057.316.153.659.25 1.012.284.683.067 1.37.126 2.078.178.357.021.702-.015 1.032-.109.324.137.672.217 1.028.233.688.031 1.38.055 2.111.068.351-.006.688-.063.999-.167.327.118.679.18 1.042.18.689-.005 1.383-.02 2.081-.044.355-.013.705-.088 1.03-.222.345.104.7.145 1.048.118.689-.044 1.383-.098 2.075-.162.356-.033.702-.129 1.021-.281.339.079.694.099 1.051.059.687-.084 1.376-.179 2.068-.284.354-.054.693-.17 1.003-.342.347.061.706.06 1.057-.006.681-.126 1.362-.261 2.045-.408.351-.075.683-.213.981-.402.353.037.707.015 1.053-.07.673-.167 1.348-.345 2.024-.536.344-.097.665-.253.95-.461.354.019.709-.028 1.052-.136.659-.208 1.32-.428 1.979-.658.339-.117.652-.294.926-.521.354-.005.707-.073 1.042-.202.645-.25 1.289-.509 1.933-.78.33-.139.632-.335.891-.578.352-.027.698-.116 1.024-.265.627-.288 1.255-.587 1.884-.898.319-.159.607-.373.85-.63.348-.048.688-.158 1.007-.328.238-.128.475-.264.713-.396v37.993h-1c-1.654 0-3 1.346-3 3 0 .364.075.708.194 1.031-1.509.156-2.694 1.419-2.694 2.969 0 1.654 1.346 3 3 3h18c1.654 0 3-1.346 3-3-.002-1.552-1.187-2.816-2.696-2.972zm-14.306-55.031c0-2.757 2.243-5 5-5s5 2.243 5 5-2.243 5-5 5-5-2.243-5-5zm-83 0c0-2.757 2.243-5 5-5s5 2.243 5 5-2.243 5-5 5-5-2.243-5-5zm15 58c0 .552-.448 1-1 1h-18c-.552 0-1-.448-1-1s.448-1 1-1h18c.552 0 1 .448 1 1zm-2.5-4c0 .552-.448 1-1 1h-13c-.552 0-1-.448-1-1s.448-1 1-1h13c.552 0 1 .448 1 1zm-11-3v-40.475c0-1.93 1.57-3.5 3.5-3.5s3.5 1.57 3.5 3.5v40.476h-7zm79.344-39.36c-.162.086-.335.128-.508.118-.37-.012-.704.154-.898.458-.098.153-.231.272-.395.354-.611.303-1.222.594-1.828.872-.164.075-.342.107-.527.086-.351-.039-.702.116-.913.402-.106.146-.25.259-.418.329-.625.264-1.252.517-1.877.759-.172.066-.35.085-.527.053-.356-.061-.711.071-.94.346-.114.138-.265.241-.438.301-.641.225-1.282.438-1.921.64-.174.054-.357.062-.531.021-.347-.082-.713.026-.959.285-.123.13-.28.225-.453.273-.656.185-1.31.358-1.963.52-.177.043-.358.039-.526-.013-.345-.104-.715-.02-.976.226-.132.123-.295.208-.474.246-.663.144-1.325.274-1.985.396-.183.032-.362.018-.529-.045-.331-.123-.709-.06-.984.167-.138.113-.306.188-.485.216-.672.102-1.34.194-2.003.274-.188.021-.366-.004-.526-.076-.326-.145-.708-.104-.997.107-.144.105-.314.169-.496.186-.675.063-1.349.116-2.029.159-.177.011-.347-.025-.508-.108-.319-.162-.696-.143-.997.05-.152.099-.323.152-.506.159-.679.022-1.353.037-2.032.042-.181 0-.35-.046-.505-.137s-.33-.137-.505-.137c-.171 0-.343.044-.496.132-.14.08-.333.126-.51.129-.679-.014-1.354-.035-2.022-.066-.181-.009-.355-.064-.504-.163-.299-.198-.678-.221-.999-.061-.157.079-.336.111-.517.103-.678-.051-1.35-.107-2.018-.173-.181-.018-.347-.081-.492-.188-.288-.211-.668-.253-.997-.109-.157.07-.339.093-.518.075-.675-.083-1.343-.175-2.004-.272-.178-.026-.345-.1-.482-.212-.278-.226-.652-.287-.986-.159-.172.064-.346.084-.525.05-.671-.116-1.334-.238-1.99-.368-.177-.034-.335-.113-.471-.234-.268-.238-.643-.316-.981-.201-.164.055-.344.063-.521.024-.666-.146-1.323-.3-1.967-.456-.179-.044-.334-.13-.464-.257-.252-.247-.617-.342-.963-.249-.176.05-.355.05-.531.005-.658-.176-1.307-.356-1.945-.543-.173-.051-.328-.146-.451-.275-.243-.259-.607-.37-.954-.288-.174.042-.353.035-.526-.021-.653-.204-1.294-.413-1.92-.623-.17-.058-.32-.158-.435-.292-.234-.271-.592-.396-.946-.329-.173.033-.353.02-.523-.041-.646-.233-1.278-.468-1.893-.702-.169-.065-.313-.17-.425-.312-.224-.281-.575-.423-.934-.366-.173.024-.35.005-.517-.063-.645-.261-1.266-.521-1.865-.78-.164-.07-.307-.184-.411-.327-.211-.289-.565-.443-.917-.404-.174.019-.353-.011-.518-.086-.646-.294-1.255-.58-1.826-.854-.1-.049-.166-.136-.243-.211-.093-.975-.443-1.874-.979-2.634.108.056.207.108.319.165.155.079.282.19.376.333.197.299.54.465.896.446.182-.017.339.021.496.096.563.271 1.161.552 1.793.841.157.071.29.18.393.32.213.289.557.447.922.401.163-.02.332.009.492.077.585.252 1.192.507 1.821.761.164.067.302.17.409.306.224.282.583.421.936.366.166-.024.334-.007.497.056.601.23 1.22.461 1.854.689.164.059.304.154.415.283.234.271.6.401.949.329.163-.032.338-.02.501.035.613.207 1.24.411 1.881.611.166.053.311.144.431.271.244.258.603.368.955.287.165-.037.341-.033.507.016.624.181 1.258.357 1.901.529.169.044.316.129.441.25.256.249.624.343.967.248.161-.046.339-.05.506-.009.633.154 1.273.304 1.925.447.171.038.322.114.45.229.267.238.642.316.98.203.163-.055.331-.064.502-.029.641.126 1.286.246 1.941.358.173.03.326.1.458.207.277.227.654.286.989.16.16-.062.33-.081.499-.054.646.096 1.298.184 1.954.265.174.021.332.085.472.188.288.211.669.253.993.109.157-.069.324-.094.497-.078.649.063 1.305.12 1.963.167.174.013.335.067.478.162.301.198.681.221 1 .06.147-.073.315-.108.49-.103.653.029 1.309.053 1.969.064.174.003.337.049.485.136.309.181.691.184 1.002.006.147-.084.311-.128.484-.129.652-.005 1.309-.018 1.959-.041.202-.016.345.029.5.108.316.162.695.143.994-.049.146-.094.308-.147.48-.158.652-.042 1.306-.092 1.966-.153.165-.018.336.011.495.081.324.144.702.102.989-.108.139-.101.296-.162.469-.184.646-.079 1.296-.168 1.947-.268.171-.021.339-.008.502.052.333.121.706.059.98-.166.131-.108.288-.182.455-.212.642-.118 1.283-.247 1.929-.385.169-.036.338-.028.502.021.34.102.709.015.97-.227.126-.117.275-.197.444-.239.632-.157 1.266-.324 1.901-.503.166-.049.329-.051.491-.013.35.085.718-.022.965-.283.116-.124.26-.213.424-.266.622-.196 1.244-.402 1.87-.62.161-.058.327-.07.492-.042.357.062.712-.07.941-.347.106-.128.247-.229.404-.289.607-.234 1.216-.48 1.827-.737.155-.066.321-.089.5-.071.354.031.697-.118.906-.403.102-.138.232-.244.388-.315.593-.271 1.185-.553 1.775-.846.155-.078.313-.114.474-.104.357.015.707-.153.903-.456.093-.146.218-.261.37-.342.573-.307 1.146-.624 1.721-.953.15-.086.312-.131.481-.133.357-.004.686-.199.86-.511.011-.019.033-.028.045-.047-.322.698-.507 1.472-.507 2.291v.196c-.552.315-1.104.623-1.656.919zm3.656-1.115c0-1.93 1.57-3.5 3.5-3.5s3.5 1.57 3.5 3.5v40.476h-7zm-3 42.475h13c.552 0 1 .448 1 1s-.448 1-1 1h-13c-.552 0-1-.448-1-1s.448-1 1-1zm15.5 6h-18c-.552 0-1-.448-1-1s.448-1 1-1h2.5 13 2.5c.552 0 1 .448 1 1s-.448 1-1 1z" fill="#3a2c60"/><path d="m31.091 38.483c2.405 0 4.361 1.956 4.361 4.361l-.003.194c-.004.221-.012.664-.022 1.808-.003.268.102.524.29.714.188.189.443.296.71.296h16.441c.553 0 1-.447 1-1s-.447-1-1-1h-13.112v-31.978h41v31.979h-13.506c-.553 0-1 .447-1 1s.447 1 1 1h17.835c.267 0 .522-.106.711-.297.188-.189.292-.446.289-.713-.012-1.135-.02-1.58-.023-1.803l-.003-.199c0-2.405 1.956-4.361 4.361-4.361.553 0 1-.447 1-1v-2.619c0-.553-.447-1-1-1-1.103 0-2-.897-2-2s.897-2 2-2c.553 0 1-.447 1-1v-1.995c0-.553-.447-1-1-1-1.103 0-2-.896-2-1.999s.897-2 2-2c.553 0 1-.447 1-1v-2.619c0-.553-.447-1-1-1-2.405 0-4.361-1.957-4.361-4.362l.003-.198c.004-.223.012-.668.023-1.804.003-.267-.102-.523-.289-.713-.188-.19-.444-.297-.711-.297h-48.658c-.267 0-.522.106-.71.296-.188.189-.293.446-.29.714.011 1.145.019 1.588.022 1.809l.003.193c0 2.405-1.956 4.362-4.361 4.362-.553 0-1 .447-1 1v2.619c0 .553.447 1 1 1 1.103 0 2 .897 2 2s-.897 1.999-2 1.999c-.553 0-1 .447-1 1v1.994c0 .553.447 1 1 1 1.103 0 2 .897 2 2s-.897 2-2 2c-.553 0-1 .447-1 1v2.619c0 .553.447 1 1 1zm58.329-19.309v.824c-1.724.444-3 2.013-3 3.873s1.276 3.428 3 3.872v.248c-1.724.444-3 2.013-3 3.873s1.276 3.429 3 3.873v.824c-3.034.481-5.361 3.116-5.361 6.283l.003.235c.003.138.007.359.012.776h-1.317v-31.977h1.317c-.005.418-.009.64-.012.776l-.003.235c0 3.169 2.327 5.803 5.361 6.285zm-57.329 16.563c1.724-.444 3-2.013 3-3.873s-1.276-3.429-3-3.873v-.248c1.724-.444 3-2.012 3-3.872s-1.276-3.429-3-3.873v-.824c3.034-.481 5.361-3.116 5.361-6.284l-.003-.229c-.003-.137-.007-.358-.012-.782h.318v31.979h-.318c.005-.423.009-.646.012-.782l.003-.229c0-3.167-2.327-5.802-5.361-6.283z" fill="#3a2c60"/><path d="m56.969 43.857c-.553 0-1 .447-1 1s.447 1 1 1h6.031c.553 0 1-.447 1-1s-.447-1-1-1z" fill="#3a2c60"/></svg>