<svg id="Layer_1" enable-background="new 0 0 128 128" height="512" viewBox="0 0 128 128" width="512" xmlns="http://www.w3.org/2000/svg"><g fill="#e6e7e8"><path d="m104.59 40.675-9.084-5.778c-1.986-1.264-4.631-.675-5.895 1.311l-23.917 37.602c-.102.16-.254.185-.336.185s-.234-.024-.336-.185l-23.918-37.602c-1.264-1.987-3.909-2.575-5.895-1.311l-9.082 5.776c-1.986 1.264-2.574 3.909-1.311 5.895l37.201 58.487c.742 1.166 2.009 1.862 3.39 1.862h.002c1.382-.001 2.65-.698 3.39-1.866l37.105-58.485c1.26-1.987.67-4.629-1.314-5.891z"/><path d="m13.482 59.447c.462 0 .93-.127 1.349-.392l5.64-3.575c1.177-.747 1.527-2.311.781-3.489l-3.575-5.639c-.747-1.178-2.312-1.528-3.489-.782l-5.639 3.575c-.462.293-.792.713-.983 1.186-.497-.043-.992.067-1.422.339-1.068.677-1.386 2.097-.709 3.165l3.827 6.036c.328.517.838.875 1.436 1.009.168.038.337.056.506.056.43 0 .852-.121 1.223-.357.443-.281.748-.692.915-1.15.047.003.093.018.14.018z"/><path d="m21.37 71.889c.463 0 .93-.127 1.35-.392l5.639-3.575c1.177-.747 1.527-2.312.781-3.488l-3.575-5.64c-.747-1.177-2.312-1.527-3.489-.781l-5.639 3.575c-.451.286-.787.7-.983 1.185-.497-.043-.992.067-1.422.339-1.068.677-1.386 2.097-.709 3.165l3.827 6.035c.328.518.838.876 1.435 1.01.168.038.338.056.506.056.429 0 .851-.121 1.223-.357.443-.281.748-.692.916-1.15.048.004.093.018.14.018z"/><path d="m29.258 84.332c.463 0 .931-.127 1.349-.392l5.64-3.575c1.176-.747 1.527-2.311.781-3.489l-3.575-5.639c-.747-1.178-2.312-1.529-3.489-.782l-5.639 3.575c-.462.293-.791.713-.983 1.185-.498-.043-.993.067-1.422.339-.517.328-.876.838-1.01 1.435-.134.598-.027 1.212.301 1.729l3.827 6.036c.436.688 1.181 1.064 1.94 1.064.42 0 .844-.115 1.224-.355.442-.281.747-.692.915-1.149.049.003.094.018.141.018z"/><path d="m37.006 96.76c.047.003.094.016.141.016.474 0 .939-.134 1.349-.394l5.639-3.575c1.177-.747 1.527-2.312.781-3.488l-3.575-5.64c-.747-1.178-2.312-1.527-3.489-.781l-5.639 3.575c-.462.293-.791.713-.982 1.185-.498-.043-.993.067-1.422.339-1.068.677-1.386 2.097-.709 3.165l3.827 6.035c.328.518.838.876 1.435 1.01.168.038.338.056.506.056.429 0 .851-.121 1.223-.357.442-.279.747-.689.915-1.146z"/><path d="m49.038 97.101c-.746-1.178-2.311-1.528-3.489-.782l-5.639 3.575c-.451.286-.787.7-.983 1.186-.497-.043-.993.067-1.421.339-1.068.677-1.386 2.096-.709 3.165l3.827 6.036c.328.517.838.875 1.436 1.009.168.038.337.056.506.056.43 0 .852-.121 1.224-.358.441-.28.746-.689.913-1.146.047.003.095.016.142.016.474 0 .939-.134 1.349-.394l5.639-3.575c1.177-.747 1.528-2.312.782-3.489z"/><path d="m125.818 50.669c-.428-.272-.924-.381-1.422-.338-.191-.472-.52-.893-.982-1.186l-5.64-3.575c-1.178-.747-2.743-.396-3.489.781l-3.575 5.64c-.746 1.177-.396 2.741.781 3.488l5.64 3.575c.418.265.886.392 1.349.392.047 0 .093-.015.14-.017.167.458.473.869.915 1.15.372.236.793.357 1.223.357.168 0 .337-.019.506-.056.598-.134 1.108-.492 1.436-1.009l3.827-6.037c.677-1.068.359-2.487-.709-3.165z"/><path d="m117.929 63.112c-.429-.272-.924-.381-1.421-.338-.196-.486-.532-.9-.982-1.186l-5.64-3.575c-1.176-.746-2.742-.396-3.489.782l-3.574 5.639c-.747 1.176-.397 2.742.781 3.489l5.64 3.575c.419.265.886.392 1.349.392.047 0 .093-.015.14-.017.168.458.473.869.916 1.15.372.236.793.357 1.223.357.168 0 .338-.019.506-.056.598-.134 1.108-.493 1.435-1.01l3.827-6.036c.675-1.069.357-2.489-.711-3.166z"/><path d="m110.041 75.554c-.428-.272-.924-.381-1.422-.338-.191-.472-.52-.893-.982-1.186l-5.64-3.575c-1.178-.747-2.743-.396-3.489.781l-3.575 5.64c-.746 1.177-.395 2.741.781 3.488l5.639 3.574c.419.266.887.393 1.35.393.047 0 .093-.015.14-.017.167.458.472.869.915 1.149.38.241.804.355 1.224.355.76 0 1.504-.376 1.941-1.064l3.826-6.036c.328-.517.435-1.131.302-1.729-.133-.597-.492-1.106-1.01-1.435z"/><path d="m102.153 87.997c-.429-.272-.924-.381-1.422-.338-.191-.472-.52-.893-.982-1.186l-5.64-3.575c-1.176-.746-2.742-.397-3.489.782l-3.574 5.639c-.747 1.176-.397 2.742.781 3.489l5.639 3.575c.41.26.875.394 1.349.394.047 0 .094-.013.141-.016.168.457.473.866.915 1.146.372.236.793.357 1.223.357.168 0 .338-.019.506-.056.598-.134 1.108-.493 1.435-1.01l3.827-6.036c.677-1.068.359-2.487-.709-3.165z"/><path d="m94.457 101.419c-.429-.272-.924-.382-1.422-.339-.196-.486-.532-.9-.983-1.186l-5.64-3.575c-1.177-.747-2.743-.396-3.489.781l-3.575 5.64c-.746 1.177-.395 2.742.782 3.489l5.64 3.575c.41.26.875.394 1.348.394.047 0 .095-.013.142-.016.168.456.472.866.914 1.146.372.236.794.358 1.224.358.168 0 .338-.019.506-.056.598-.134 1.108-.492 1.436-1.009l3.827-6.037c.676-1.069.358-2.488-.71-3.165z"/><path d="m58.044 28.047h15.874c2.142 0 3.885-1.743 3.885-3.885s-1.743-3.886-3.885-3.886h-15.874c-2.142 0-3.885 1.743-3.885 3.886s1.743 3.885 3.885 3.885z"/></g><path d="m100.112 37.559-9.084-5.778c-1.53-.973-3.56-.522-4.533 1.008l-23.917 37.603c-.545.856-1.794.856-2.339 0l-23.916-37.602c-.973-1.53-3.003-1.982-4.533-1.008l-9.081 5.776c-1.53.973-1.982 3.003-1.008 4.533l37.201 58.488c1.192 1.873 3.927 1.872 5.116-.003l37.105-58.486c.97-1.531.518-3.558-1.011-4.531z" fill="#fff"/><path d="m64.018 96.575 36.939-58.224c-.229-.302-.506-.576-.845-.791l-9.084-5.778c-1.53-.973-3.56-.522-4.533 1.008l-23.917 37.601c-.544.856-1.794.856-2.339 0l-23.916-37.601c-.973-1.53-3.003-1.982-4.533-1.008l-9.081 5.776c-.339.215-.615.489-.844.791l37.037 58.23c1.191 1.872 3.926 1.871 5.116-.004z" fill="#fa759e"/><path d="m47.286 51.026c-.331 0-.654-.164-.845-.463l-3.188-5.012c-.296-.466-.159-1.084.307-1.38s1.083-.159 1.38.307l3.188 5.012c.296.466.159 1.084-.307 1.38-.165.105-.351.156-.535.156z" fill="#3a2c60"/><path d="m61.458 102.982c-1.386 0-2.657-.698-3.401-1.868l-37.2-58.487c-1.268-1.993-.677-4.646 1.315-5.913l9.082-5.776c.964-.614 2.11-.814 3.229-.567 1.117.248 2.07.917 2.684 1.882l5.655 8.891c.296.466.159 1.084-.307 1.38-.466.297-1.084.159-1.38-.307l-5.655-8.891c-.327-.515-.835-.871-1.431-1.003-.596-.133-1.207-.025-1.721.302l-9.082 5.776c-1.062.676-1.377 2.09-.701 3.152l37.201 58.488c.38.598 1.005.941 1.713.941h.001c.709 0 1.334-.344 1.714-.943l37.105-58.486c.673-1.062.358-2.475-.703-3.15l-9.084-5.778c-1.062-.677-2.477-.36-3.152.701l-23.918 37.602c-.44.692-1.193 1.105-2.013 1.105s-1.573-.413-2.013-1.105l-10.778-16.944c-.296-.466-.159-1.084.307-1.38.467-.296 1.084-.159 1.38.307l10.777 16.944c.099.155.247.179.325.179.079 0 .227-.023.326-.179l23.917-37.602c1.267-1.992 3.92-2.583 5.913-1.315l9.084 5.778c1.991 1.266 2.582 3.917 1.318 5.909l-37.103 58.485c-.743 1.171-2.014 1.871-3.401 1.872-.001 0-.002 0-.003 0z" fill="#3a2c60"/><path d="m16.47 48.571-3.575-5.639c-.456-.719-1.408-.932-2.126-.476l-5.639 3.575c-.719.456-.932 1.408-.476 2.126l3.575 5.639c.456.719 1.408.932 2.126.476l5.639-3.575c.718-.455.932-1.407.476-2.126z" fill="#6dc9f7"/><path d="m9.534 55.513c-.187 0-.374-.021-.56-.062-.663-.148-1.228-.545-1.591-1.119l-3.575-5.639c-.363-.574-.481-1.254-.333-1.916.148-.663.546-1.228 1.119-1.591l5.639-3.575c.574-.363 1.256-.483 1.916-.333.663.148 1.228.546 1.591 1.119l3.575 5.639c.75 1.184.397 2.756-.785 3.506l-5.64 3.575c-.412.262-.88.396-1.356.396zm2.058-12.298c-.101 0-.201.029-.289.084l-5.639 3.575c-.122.077-.207.197-.238.338-.031.143-.006.288.071.41l3.575 5.639c.077.122.197.207.338.238.142.031.286.006.408-.071l5.639-3.575c.252-.16.327-.495.167-.747l-3.575-5.639c-.077-.122-.197-.207-.338-.238-.039-.009-.079-.014-.119-.014zm4.402 7.482h.01z" fill="#3a2c60"/><path d="m8.354 53.995-3.827-6.036c-.386-.609-1.193-.79-1.802-.404s-.79 1.193-.404 1.802l3.827 6.036c.386.609 1.193.79 1.802.404s.79-1.193.404-1.802z" fill="#0089ef"/><path d="m7.255 57.001c-.169 0-.339-.019-.509-.056-.601-.135-1.113-.496-1.443-1.016l-3.827-6.036c-.33-.521-.437-1.138-.303-1.739.135-.601.496-1.113 1.016-1.443s1.137-.436 1.738-.303c.601.135 1.114.496 1.444 1.016l3.827 6.036c.33.52.437 1.138.303 1.739-.135.601-.496 1.114-1.016 1.444-.373.236-.798.358-1.23.358zm-3.833-8.649c-.048 0-.104.011-.162.047-.089.057-.123.135-.135.192-.013.056-.016.142.041.231l3.827 6.036c.056.089.135.123.191.135.057.012.142.015.231-.041.088-.056.122-.135.135-.191.013-.057.016-.142-.04-.23l-3.827-6.036c-.056-.089-.135-.123-.191-.135-.021-.005-.044-.008-.07-.008z" fill="#3a2c60"/><path d="m24.358 61.014-3.575-5.639c-.456-.719-1.408-.932-2.126-.476l-5.639 3.575c-.719.456-.932 1.408-.476 2.126l3.575 5.639c.456.719 1.408.932 2.126.476l5.639-3.575c.719-.456.932-1.408.476-2.126z" fill="#6dc9f7"/><path d="m17.422 67.954c-.842 0-1.667-.417-2.15-1.18l-3.576-5.639c-.363-.574-.481-1.254-.333-1.916.148-.663.546-1.228 1.119-1.591l5.639-3.575c.573-.364 1.255-.48 1.916-.333.663.148 1.228.545 1.591 1.119l3.575 5.639c.75 1.183.397 2.756-.785 3.506l-5.64 3.575c-.421.268-.891.395-1.356.395zm2.059-12.296c-.102 0-.201.029-.289.084l-5.639 3.575c-.122.077-.207.197-.238.338-.032.141-.007.286.071.408l3.575 5.639c.16.251.493.327.747.167l5.639-3.575c.252-.16.327-.495.167-.747l-3.575-5.639c-.077-.122-.197-.207-.338-.238-.041-.007-.081-.012-.12-.012zm4.401 7.482h.01z" fill="#3a2c60"/><path d="m16.242 66.437-3.827-6.036c-.386-.609-1.193-.79-1.802-.404s-.79 1.193-.404 1.802l3.827 6.036c.386.609 1.193.79 1.802.404s.79-1.192.404-1.802z" fill="#0089ef"/><path d="m15.143 69.443c-.169 0-.339-.019-.508-.056-.601-.135-1.114-.496-1.444-1.016l-3.827-6.036c-.33-.52-.437-1.138-.303-1.739.135-.601.496-1.114 1.016-1.444 1.074-.68 2.501-.36 3.182.713l3.827 6.036c.33.521.437 1.138.303 1.739-.135.601-.496 1.113-1.016 1.443-.373.238-.797.36-1.23.36zm-3.831-8.648c-.056 0-.113.015-.164.047-.088.056-.122.135-.135.191-.013.057-.016.142.04.23l3.827 6.036c.056.089.135.123.191.135.058.014.142.016.23-.04.088-.056.122-.135.135-.191s.016-.142-.041-.231l-3.827-6.036c-.055-.091-.155-.141-.256-.141z" fill="#3a2c60"/><path d="m32.247 73.456-3.575-5.639c-.456-.719-1.408-.932-2.126-.476l-5.639 3.575c-.719.456-.932 1.408-.476 2.126l3.575 5.639c.456.719 1.408.932 2.126.476l5.639-3.575c.718-.455.931-1.407.476-2.126z" fill="#6dc9f7"/><path d="m25.31 80.397c-.842 0-1.667-.417-2.15-1.18l-3.575-5.639c-.363-.573-.482-1.253-.333-1.916s.545-1.228 1.119-1.591l5.639-3.575c.574-.363 1.255-.482 1.916-.333.663.148 1.228.546 1.591 1.119l3.575 5.639c.363.573.481 1.254.333 1.916-.148.663-.545 1.228-1.119 1.591l-5.639 3.575c-.422.266-.892.394-1.357.394zm2.058-12.296c-.101 0-.201.029-.289.084l-5.639 3.575c-.122.077-.207.197-.238.338-.032.141-.006.286.071.408l3.575 5.64c.16.251.493.327.747.167l5.639-3.575c.122-.077.206-.197.238-.338.031-.141.006-.286-.071-.408l-3.575-5.639c-.077-.122-.197-.207-.338-.238-.04-.01-.079-.014-.12-.014z" fill="#3a2c60"/><path d="m24.13 78.88-3.827-6.036c-.386-.609-1.193-.79-1.802-.404s-.79 1.193-.404 1.802l3.827 6.036c.386.609 1.193.79 1.802.404.61-.386.79-1.193.404-1.802z" fill="#0089ef"/><path d="m23.031 81.884c-.764 0-1.513-.378-1.951-1.07l-3.827-6.036c-.33-.521-.437-1.138-.303-1.739.135-.601.496-1.113 1.016-1.443s1.137-.436 1.738-.303c.601.135 1.114.496 1.444 1.016l3.827 6.036c.33.52.437 1.138.303 1.739-.135.601-.496 1.114-1.016 1.443-.382.242-.809.357-1.231.357zm-3.832-8.647c-.048 0-.104.011-.162.047-.089.057-.123.135-.135.192-.013.056-.016.142.041.231l3.827 6.036c.059.093.146.125.191.135.057.014.143.016.23-.04.088-.056.122-.135.135-.191.013-.057.016-.142-.04-.23l-3.827-6.036c-.056-.089-.135-.123-.191-.135-.021-.006-.044-.009-.069-.009z" fill="#3a2c60"/><path d="m40.135 85.899-3.575-5.639c-.456-.719-1.408-.932-2.126-.476l-5.639 3.575c-.719.456-.932 1.408-.476 2.126l3.575 5.639c.456.719 1.408.932 2.126.476l5.639-3.575c.718-.455.931-1.407.476-2.126z" fill="#6dc9f7"/><path d="m33.199 92.841c-.186 0-.374-.021-.56-.063-.662-.148-1.227-.545-1.59-1.119l-3.575-5.639c-.363-.573-.482-1.253-.333-1.916.148-.662.546-1.227 1.119-1.59l5.639-3.575c.573-.362 1.253-.483 1.916-.333.663.148 1.228.545 1.591 1.119l3.575 5.639c.363.573.482 1.253.333 1.916-.148.663-.546 1.228-1.119 1.591l-5.639 3.575c-.414.26-.881.395-1.357.395zm2.058-12.297c-.102 0-.201.028-.289.084l-5.639 3.576c-.122.077-.207.197-.238.338-.032.141-.006.285.071.407l3.576 5.64c.077.122.197.207.338.238.142.033.286.007.407-.071l5.64-3.576c.122-.077.206-.197.238-.338.031-.141.006-.286-.071-.407l-3.576-5.64c-.077-.122-.197-.207-.338-.238-.039-.009-.079-.013-.119-.013z" fill="#3a2c60"/><path d="m32.018 91.322-3.827-6.036c-.386-.609-1.193-.79-1.802-.404s-.79 1.193-.404 1.802l3.827 6.036c.386.609 1.193.79 1.802.404.61-.386.791-1.192.404-1.802z" fill="#0089ef"/><path d="m30.92 94.328c-.169 0-.339-.019-.508-.056-.601-.135-1.114-.496-1.444-1.016l-3.827-6.036c-.33-.52-.437-1.138-.303-1.739.135-.601.496-1.114 1.016-1.444 1.073-.68 2.501-.361 3.182.713l3.827 6.036c.33.521.437 1.138.303 1.739-.135.601-.496 1.113-1.016 1.443-.374.238-.798.36-1.23.36zm-3.832-8.648c-.056 0-.113.015-.164.047-.088.056-.122.135-.135.191-.013.057-.016.142.04.23l3.827 6.036c.056.089.135.123.191.135.058.013.142.016.23-.04.088-.056.122-.135.135-.191s.016-.142-.041-.231l-3.827-6.036c-.055-.091-.154-.141-.256-.141z" fill="#3a2c60"/><path d="m47.831 99.32-3.575-5.639c-.456-.719-1.408-.932-2.126-.476l-5.64 3.575c-.719.456-.932 1.408-.476 2.126l3.575 5.639c.456.719 1.408.932 2.126.476l5.639-3.575c.719-.455.933-1.407.477-2.126z" fill="#6dc9f7"/><path d="m40.895 106.262c-.187 0-.374-.021-.561-.063-.662-.148-1.227-.546-1.59-1.119l-3.575-5.639c-.363-.573-.482-1.253-.333-1.916s.545-1.228 1.119-1.591l5.639-3.575c.574-.363 1.256-.483 1.916-.333.663.148 1.228.546 1.591 1.119l3.575 5.639c.363.573.482 1.253.333 1.916s-.545 1.228-1.119 1.591l-5.639 3.575c-.412.262-.88.396-1.356.396zm2.058-12.297c-.101 0-.201.029-.289.084l-5.639 3.575c-.122.077-.207.197-.238.338-.032.141-.006.286.071.408l3.576 5.639c.077.123.197.207.338.238.141.033.285.007.408-.071l5.639-3.575c.122-.077.207-.197.238-.338.032-.141.006-.286-.071-.408l-3.576-5.639c-.077-.122-.197-.207-.338-.238-.039-.009-.079-.013-.119-.013z" fill="#3a2c60"/><path d="m39.715 104.744-3.827-6.036c-.386-.609-1.193-.79-1.802-.404-.609.386-.79 1.193-.404 1.802l3.827 6.036c.386.609 1.193.79 1.802.404s.79-1.193.404-1.802z" fill="#0089ef"/><path d="m38.616 107.749c-.764 0-1.513-.379-1.951-1.07l-3.827-6.036c-.33-.521-.437-1.138-.303-1.739.135-.601.496-1.113 1.016-1.443s1.137-.437 1.739-.303c.601.135 1.113.496 1.443 1.016l3.827 6.036c.33.52.437 1.138.303 1.739-.135.601-.496 1.114-1.016 1.444-.383.24-.81.356-1.231.356zm.695-1.202h.01zm-4.527-7.446c-.048 0-.104.011-.163.048-.088.056-.122.135-.135.191s-.016.142.041.231l3.827 6.036c.09.142.279.185.422.095.088-.056.122-.135.135-.191.013-.057.016-.142-.04-.23l-3.827-6.036c-.056-.089-.135-.123-.191-.135-.021-.006-.044-.009-.069-.009z" fill="#3a2c60"/><path d="m118.937 46.031-5.639-3.575c-.719-.456-1.671-.242-2.126.476l-3.575 5.639c-.456.719-.242 1.671.476 2.126l5.639 3.575c.719.456 1.671.242 2.126-.476l3.575-5.639c.456-.719.242-1.671-.476-2.126z" fill="#6dc9f7"/><path d="m114.532 55.513c-.476 0-.943-.134-1.355-.396l-5.64-3.575c-.573-.364-.97-.928-1.119-1.591s-.03-1.343.334-1.916l3.575-5.639c.363-.573.928-.97 1.59-1.119.663-.15 1.343-.03 1.916.333l5.64 3.575c.573.363.97.928 1.119 1.591s.03 1.343-.334 1.916l-3.575 5.64c-.363.573-.928.97-1.591 1.119-.186.041-.374.062-.56.062zm-2.059-12.298c-.04 0-.08.004-.119.014-.141.031-.261.116-.338.238l-3.575 5.64c-.078.122-.103.267-.071.408.031.141.116.261.238.338l5.639 3.575c.121.078.268.102.408.071.141-.032.261-.116.338-.238l3.575-5.64c.078-.122.103-.267.071-.408-.031-.141-.116-.261-.238-.338l-5.64-3.575c-.087-.056-.186-.085-.288-.085z" fill="#3a2c60"/><path d="m121.341 47.555c-.609-.386-1.416-.205-1.802.404l-3.827 6.036c-.386.609-.205 1.416.404 1.802.609.386 1.416.205 1.802-.404l3.827-6.036c.386-.609.205-1.416-.404-1.802z" fill="#0089ef"/><path d="m116.811 57.001c-.433 0-.856-.122-1.23-.359-.52-.33-.881-.842-1.016-1.443-.134-.601-.027-1.219.303-1.739l3.826-6.036c.33-.52.842-.881 1.443-1.016.601-.133 1.218-.027 1.739.303 1.074.681 1.394 2.109.713 3.182l-3.827 6.037c-.33.52-.843.881-1.444 1.016-.168.036-.338.055-.507.055zm3.833-8.649c-.026 0-.049.003-.069.007-.057.013-.135.046-.191.135l-3.827 6.037c-.056.088-.053.174-.041.23.013.056.046.135.135.191.089.056.175.053.23.04.056-.013.135-.046.191-.135l3.827-6.037c.09-.142.048-.332-.095-.422-.056-.035-.112-.046-.16-.046z" fill="#3a2c60"/><path d="m111.049 58.473-5.639-3.575c-.719-.456-1.671-.242-2.126.476l-3.575 5.639c-.456.719-.242 1.671.476 2.126l5.639 3.575c.719.456 1.671.242 2.126-.476l3.575-5.639c.455-.718.242-1.67-.476-2.126z" fill="#6dc9f7"/><path d="m106.643 67.956c-.476 0-.943-.134-1.355-.396l-5.64-3.575c-1.183-.75-1.535-2.324-.785-3.506l3.574-5.639c.75-1.183 2.324-1.534 3.506-.786l5.64 3.575c.573.363.97.928 1.119 1.591.148.662.03 1.343-.333 1.916l-3.575 5.64c-.363.573-.928.97-1.591 1.119-.186.04-.374.061-.56.061zm-5.923-5.66 5.639 3.575c.122.078.267.103.408.071.141-.031.261-.116.338-.238l3.575-5.64c.078-.122.103-.267.071-.408s-.116-.261-.238-.338l-5.64-3.575c-.251-.161-.586-.085-.747.167l-3.574 5.639c-.16.252-.084.587.168.747z" fill="#3a2c60"/><path d="m113.453 59.997c-.609-.386-1.416-.205-1.802.404l-3.827 6.036c-.386.609-.205 1.416.404 1.802s1.416.205 1.802-.404l3.827-6.036c.386-.608.205-1.415-.404-1.802z" fill="#0089ef"/><path d="m108.923 69.443c-.433 0-.856-.122-1.23-.359-.52-.33-.881-.842-1.016-1.443-.134-.601-.027-1.219.303-1.739l3.827-6.037c.682-1.073 2.107-1.393 3.182-.713 1.075.682 1.395 2.109.713 3.183l-3.826 6.036c-.33.52-.843.881-1.444 1.016-.17.037-.34.056-.509.056zm3.832-8.648c-.102 0-.201.05-.26.142l-3.826 6.036c-.056.088-.053.174-.041.23.013.057.046.135.135.191.089.056.174.054.23.04.056-.013.135-.046.191-.135l3.827-6.037c.056-.088.053-.174.04-.23-.01-.046-.042-.132-.135-.192-.049-.03-.106-.045-.161-.045z" fill="#3a2c60"/><path d="m103.16 70.916-5.639-3.575c-.719-.456-1.671-.242-2.126.476l-3.575 5.639c-.456.719-.242 1.671.476 2.126l5.639 3.575c.719.456 1.671.242 2.126-.476l3.575-5.639c.456-.719.243-1.671-.476-2.126z" fill="#6dc9f7"/><path d="m98.755 80.398c-.476 0-.943-.134-1.355-.396l-5.64-3.575c-.573-.363-.97-.928-1.119-1.591-.148-.662-.03-1.342.333-1.916l3.575-5.64c.751-1.183 2.325-1.536 3.506-.786l5.64 3.575c.573.363.97.928 1.119 1.591.148.662.03 1.343-.333 1.916l-3.575 5.64c-.363.573-.928.97-1.591 1.119-.186.043-.374.063-.56.063zm-2.058-12.297c-.179 0-.355.089-.458.251l-3.575 5.639c-.078.122-.103.267-.071.408.031.141.116.261.238.338l5.639 3.575c.122.078.266.103.408.071.141-.031.261-.116.338-.238l3.575-5.64c.078-.122.103-.267.071-.408s-.116-.261-.238-.338l-5.64-3.575c-.088-.055-.188-.083-.287-.083z" fill="#3a2c60"/><path d="m105.565 72.44c-.609-.386-1.416-.206-1.802.404l-3.827 6.036c-.386.609-.205 1.416.404 1.802s1.416.206 1.802-.404l3.827-6.036c.386-.609.205-1.416-.404-1.802z" fill="#0089ef"/><path d="m101.034 81.886c-.432 0-.856-.122-1.23-.359-1.074-.681-1.393-2.108-.712-3.182l3.826-6.036c.33-.52.843-.881 1.443-1.016.602-.134 1.218-.027 1.739.303 1.073.681 1.393 2.108.713 3.182l-3.827 6.037c-.33.52-.842.88-1.443 1.015-.169.037-.34.056-.509.056zm-.159-2.048c.089.056.176.053.23.04.046-.01.132-.042.191-.134l3.827-6.037c.09-.142.048-.332-.095-.422-.088-.055-.174-.052-.23-.04-.057.013-.135.046-.191.135l-3.827 6.037c-.056.088-.053.174-.041.23.014.056.047.135.136.191z" fill="#3a2c60"/><path d="m95.272 83.358-5.639-3.575c-.719-.456-1.671-.242-2.126.476l-3.575 5.639c-.456.719-.242 1.671.476 2.126l5.639 3.575c.719.456 1.671.242 2.126-.476l3.575-5.639c.456-.718.243-1.67-.476-2.126z" fill="#6dc9f7"/><path d="m90.867 92.841c-.477 0-.944-.135-1.356-.396l-5.639-3.575c-.573-.363-.97-.928-1.119-1.59-.148-.663-.03-1.343.333-1.916l3.575-5.64c.363-.573.928-.97 1.591-1.119.662-.149 1.342-.03 1.916.334l5.64 3.575c1.183.75 1.535 2.323.785 3.506l-3.575 5.64c-.363.573-.928.97-1.591 1.119-.186.041-.374.062-.56.062zm-2.059-12.297c-.04 0-.08.004-.119.013-.141.031-.261.116-.338.238l-3.575 5.64c-.078.122-.103.266-.071.407.031.141.116.261.238.338l5.639 3.575c.123.078.267.102.408.071s.261-.116.338-.238l3.575-5.64c.16-.251.085-.586-.167-.746l-5.64-3.575c-.087-.055-.186-.083-.288-.083z" fill="#3a2c60"/><path d="m97.676 84.883c-.609-.386-1.416-.205-1.802.404l-3.827 6.036c-.386.609-.205 1.416.404 1.802s1.416.205 1.802-.404l3.827-6.036c.386-.609.206-1.416-.404-1.802z" fill="#0089ef"/><path d="m93.146 94.328c-.432 0-.856-.122-1.23-.359-1.073-.681-1.393-2.108-.712-3.182l3.827-6.037c.681-1.073 2.108-1.393 3.182-.713 1.074.681 1.394 2.109.712 3.183l-3.826 6.036c-.33.52-.843.881-1.443 1.016-.171.038-.341.056-.51.056zm-.159-2.048c.088.055.173.053.23.04s.135-.046.191-.135l3.827-6.037c.056-.088.053-.174.041-.23-.013-.057-.046-.136-.135-.192-.141-.089-.331-.048-.422.095l-3.826 6.036c-.091.143-.049.333.094.423z" fill="#3a2c60"/><path d="m87.576 96.78-5.639-3.575c-.719-.456-1.671-.242-2.126.476l-3.575 5.639c-.456.719-.242 1.671.476 2.126l5.639 3.575c.719.456 1.671.242 2.126-.476l3.575-5.639c.456-.718.243-1.671-.476-2.126z" fill="#6dc9f7"/><path d="m83.17 106.262c-.476 0-.943-.134-1.355-.396l-5.64-3.575c-.573-.363-.97-.928-1.119-1.591-.148-.662-.03-1.342.333-1.916l3.575-5.64c.363-.573.928-.97 1.591-1.119.662-.15 1.343-.031 1.916.333l5.64 3.575c1.183.75 1.535 2.323.785 3.506l-3.575 5.64c-.363.573-.928.97-1.591 1.119-.185.044-.373.064-.56.064zm-2.057-12.297c-.04 0-.08.004-.12.014-.141.031-.261.116-.338.238l-3.575 5.64c-.078.122-.103.267-.071.408.031.141.116.261.238.338l5.639 3.575c.122.078.266.104.408.071.141-.031.261-.116.338-.238l3.575-5.64c.16-.251.085-.586-.167-.747l-5.64-3.575c-.087-.055-.186-.084-.287-.084z" fill="#3a2c60"/><path d="m89.98 98.304c-.609-.386-1.416-.205-1.802.404l-3.827 6.036c-.386.609-.205 1.416.404 1.802s1.416.205 1.802-.404l3.827-6.036c.386-.609.205-1.416-.404-1.802z" fill="#0089ef"/><path d="m85.45 107.749c-.422 0-.848-.116-1.23-.357 0 0 0 0-.001 0-1.074-.681-1.393-2.108-.712-3.182l3.826-6.036c.33-.52.843-.881 1.443-1.016.601-.134 1.218-.027 1.739.303 1.074.681 1.394 2.108.713 3.182l-3.827 6.037c-.438.69-1.187 1.069-1.951 1.069zm-.16-2.047c.143.091.332.048.423-.095l3.826-6.036c.09-.142.048-.332-.094-.422-.088-.055-.174-.052-.23-.04-.057.013-.135.046-.191.135l-3.827 6.037c-.056.088-.053.174-.041.23s.046.135.134.191z" fill="#3a2c60"/><path d="m69.97 17.315h-15.874c-1.601 0-2.898 1.298-2.898 2.898s1.298 2.898 2.898 2.898h15.874c1.601 0 2.898-1.298 2.898-2.898s-1.297-2.898-2.898-2.898z" fill="#fa759e"/><path d="m69.97 24.111h-15.874c-2.149 0-3.898-1.749-3.898-3.898s1.749-3.898 3.898-3.898h15.874c2.149 0 3.898 1.749 3.898 3.898s-1.749 3.898-3.898 3.898zm-15.874-5.796c-1.047 0-1.898.852-1.898 1.898s.852 1.898 1.898 1.898h15.874c1.046 0 1.898-.852 1.898-1.898s-.852-1.898-1.898-1.898z" fill="#3a2c60"/></svg>