<svg id="Layer_1" enable-background="new 0 0 256 256" height="512" viewBox="0 0 256 256" width="512" xmlns="http://www.w3.org/2000/svg"><path d="m124.111 32v-18h-8.485v18h-8.486l20.486 18-6-18z" fill="#a4d4a0"/><path d="m139.626 32v-18h-8.486v18h2.486l-6 18 20.485-18z" fill="#419b46"/><path d="m131.14 32v-18h-7.029v18h-2.485l6 18 6-18z" fill="#65bc49"/><path d="m127.625 53c-.707 0-1.414-.249-1.98-.747l-20.485-18c-.938-.824-1.268-2.143-.827-3.312s1.559-1.941 2.807-1.941h5.485v-15c0-1.657 1.343-3 3-3h24c1.657 0 3 1.343 3 3v15h5.485c1.249 0 2.367.773 2.807 1.942s.111 2.487-.827 3.312l-20.485 18c-.565.497-1.272.746-1.98.746zm-12.526-18 12.526 11.006 12.527-11.006h-.526c-1.657 0-3-1.343-3-3v-15h-18v15c0 1.657-1.343 3-3 3z" fill="#1c2d6b"/><path d="m163.828 80h59.798v144h-59.798z" fill="#d3ba2a"/><path d="m31.626 80h59.798v144h-59.798z" fill="#ede49d"/><path d="m91.423 80h72.405v144h-72.405z" fill="#eee045"/><path d="m223.625 227h-192c-1.657 0-3-1.343-3-3v-144c0-1.657 1.343-3 3-3h192c1.657 0 3 1.343 3 3v144c0 1.657-1.343 3-3 3zm-189-6h186v-138h-186z" fill="#1c2d6b"/><path d="m31.124 181.294c0-9.155 1.536-17.176 3.84-21.649-1.522-3.882-2.497-9.816-2.497-16.469 0-11.695 3.008-21.176 6.719-21.176-11.695 0-21.176 9.481-21.176 21.176 0 6.653 3.071 12.586 7.869 16.469-7.261 4.473-12.104 12.494-12.104 21.649v4.235 8.471h17.35v-8.471-4.235z" fill="#89aadb"/><path d="m52.494 159.645c4.798-3.882 7.869-9.816 7.869-16.469 0-11.695-9.481-21.176-21.176-21.176 3.711 0 6.719 9.481 6.719 21.176 0 6.653-.974 12.586-2.497 16.469 2.304 4.473 3.84 12.494 3.84 21.649v4.235 8.471h17.349v-8.471-4.235c0-9.154-4.843-17.176-12.104-21.649z" fill="#4b67b0"/><path d="m47.248 181.294c0-9.155-1.536-17.176-3.84-21.649 1.522-3.882 2.497-9.816 2.497-16.469 0-11.695-3.008-21.176-6.719-21.176-3.711 0-6.719 9.481-6.719 21.176 0 6.653.974 12.586 2.497 16.469-2.304 4.473-3.84 12.494-3.84 21.649v4.235 8.471h16.125v-8.471-4.235z" fill="#6287c5"/><path d="m39.186 167.353c-13.331 0-24.176-10.846-24.176-24.177s10.845-24.176 24.176-24.176 24.176 10.845 24.176 24.176-10.845 24.177-24.176 24.177zm0-42.353c-10.022 0-18.176 8.154-18.176 18.176s8.154 18.177 18.176 18.177 18.176-8.154 18.176-18.177-8.154-18.176-18.176-18.176z" fill="#1c2d6b"/><path d="m64.598 197h-50.824c-1.657 0-3-1.343-3-3v-12.706c0-9.936 5.058-18.984 13.53-24.203 1.086-.667 2.472-.578 3.46.222 3.267 2.643 7.216 4.04 11.421 4.04s8.154-1.397 11.421-4.04c.988-.801 2.375-.891 3.46-.222 8.472 5.219 13.53 14.267 13.53 24.203v12.706c.002 1.657-1.342 3-2.998 3zm-47.824-6h44.823v-9.706c0-7.173-3.343-13.76-9.035-17.982-3.945 2.619-8.617 4.042-13.377 4.042s-9.432-1.423-13.377-4.042c-5.691 4.223-9.035 10.81-9.035 17.982v9.706z" fill="#1c2d6b"/><path d="m64.9 181.294c0-9.155 1.536-17.176 3.84-21.649-1.522-3.882-2.497-9.816-2.497-16.469 0-11.695 3.008-21.176 6.719-21.176-11.695 0-21.176 9.481-21.176 21.176 0 6.653 3.071 12.586 7.869 16.469-7.261 4.473-12.104 12.494-12.104 21.649v4.235 8.471h17.349v-8.471z" fill="#89aadb"/><path d="m86.27 159.645c4.798-3.882 7.869-9.816 7.869-16.469 0-11.695-9.481-21.176-21.176-21.176 3.711 0 6.719 9.481 6.719 21.176 0 6.653-.974 12.586-2.497 16.469 2.304 4.473 3.84 12.494 3.84 21.649v4.235 8.471h17.349v-8.471-4.235c0-9.154-4.842-17.176-12.104-21.649z" fill="#4b67b0"/><path d="m81.025 181.294c0-9.155-1.536-17.176-3.84-21.649 1.522-3.882 2.497-9.816 2.497-16.469 0-11.695-3.008-21.176-6.719-21.176-3.711 0-6.719 9.481-6.719 21.176 0 6.653.974 12.586 2.497 16.469-2.304 4.473-3.84 12.494-3.84 21.649v4.235 8.471h16.125v-8.471-4.235z" fill="#6287c5"/><path d="m72.962 167.353c-13.331 0-24.176-10.846-24.176-24.177s10.845-24.176 24.176-24.176 24.177 10.845 24.177 24.176-10.846 24.177-24.177 24.177zm0-42.353c-10.022 0-18.176 8.154-18.176 18.176s8.154 18.177 18.176 18.177 18.177-8.154 18.177-18.177-8.154-18.176-18.177-18.176z" fill="#1c2d6b"/><path d="m98.375 197h-50.824c-1.657 0-3-1.343-3-3v-12.706c0-9.936 5.059-18.984 13.531-24.203 1.084-.667 2.472-.578 3.46.222 3.267 2.643 7.216 4.04 11.42 4.04 4.205 0 8.154-1.397 11.421-4.04.989-.801 2.375-.892 3.46-.222 8.473 5.219 13.531 14.267 13.531 24.203v12.706c.001 1.657-1.343 3-2.999 3zm-47.824-6h44.824v-9.706c0-7.173-3.343-13.76-9.035-17.983-3.945 2.619-8.617 4.042-13.377 4.042-4.759 0-9.431-1.423-13.376-4.042-5.692 4.223-9.035 10.81-9.035 17.983v9.706z" fill="#1c2d6b"/><path d="m174.975 181.294c0-9.155 1.536-17.176 3.84-21.649-1.522-3.882-2.497-9.816-2.497-16.469 0-11.695 3.008-21.176 6.719-21.176-11.695 0-21.176 9.481-21.176 21.176 0 6.653 3.071 12.586 7.869 16.469-7.261 4.473-12.104 12.494-12.104 21.649v4.235 8.471h17.35v-8.471-4.235z" fill="#89aadb"/><path d="m196.345 159.645c4.798-3.882 7.869-9.816 7.869-16.469 0-11.695-9.481-21.176-21.176-21.176 3.711 0 6.719 9.481 6.719 21.176 0 6.653-.974 12.586-2.497 16.469 2.304 4.473 3.84 12.494 3.84 21.649v4.235 8.471h17.349v-8.471-4.235c0-9.154-4.843-17.176-12.104-21.649z" fill="#4b67b0"/><path d="m191.1 181.294c0-9.155-1.536-17.176-3.84-21.649 1.522-3.882 2.497-9.816 2.497-16.469 0-11.695-3.008-21.176-6.719-21.176-3.711 0-6.719 9.481-6.719 21.176 0 6.653.974 12.586 2.497 16.469-2.304 4.473-3.84 12.494-3.84 21.649v4.235 8.471h16.124v-8.471z" fill="#6287c5"/><path d="m183.037 167.353c-13.331 0-24.176-10.846-24.176-24.177s10.845-24.176 24.176-24.176 24.177 10.845 24.177 24.176-10.846 24.177-24.177 24.177zm0-42.353c-10.022 0-18.176 8.154-18.176 18.176s8.154 18.177 18.176 18.177 18.177-8.154 18.177-18.177-8.154-18.176-18.177-18.176z" fill="#1c2d6b"/><path d="m208.449 197h-50.824c-1.657 0-3-1.343-3-3v-12.706c0-9.936 5.059-18.984 13.531-24.203 1.084-.667 2.472-.578 3.46.222 3.267 2.643 7.216 4.04 11.42 4.04 4.205 0 8.154-1.397 11.421-4.04.988-.801 2.375-.892 3.46-.222 8.473 5.219 13.531 14.267 13.531 24.203v12.706c.001 1.657-1.342 3-2.999 3zm-47.824-6h44.824v-9.706c0-7.173-3.343-13.76-9.035-17.983-3.945 2.619-8.617 4.042-13.377 4.042-4.759 0-9.431-1.423-13.376-4.042-5.692 4.223-9.035 10.81-9.035 17.983v9.706z" fill="#1c2d6b"/><path d="m208.752 181.294c0-9.155 1.536-17.176 3.84-21.649-1.522-3.882-2.497-9.816-2.497-16.469 0-11.695 3.008-21.176 6.719-21.176-11.695 0-21.176 9.481-21.176 21.176 0 6.653 3.071 12.586 7.869 16.469-7.261 4.473-12.104 12.494-12.104 21.649v4.235 8.471h17.35v-8.471-4.235z" fill="#89aadb"/><path d="m230.122 159.645c4.798-3.882 7.869-9.816 7.869-16.469 0-11.695-9.481-21.176-21.176-21.176 3.711 0 6.719 9.481 6.719 21.176 0 6.653-.974 12.586-2.497 16.469 2.304 4.473 3.84 12.494 3.84 21.649v4.235 8.471h17.349v-8.471-4.235c0-9.154-4.843-17.176-12.104-21.649z" fill="#4b67b0"/><path d="m224.876 181.294c0-9.155-1.536-17.176-3.84-21.649 1.522-3.882 2.497-9.816 2.497-16.469 0-11.695-3.008-21.176-6.719-21.176-3.711 0-6.719 9.481-6.719 21.176 0 6.653.974 12.586 2.497 16.469-2.304 4.473-3.84 12.494-3.84 21.649v4.235 8.471h16.125v-8.471-4.235z" fill="#6287c5"/><path d="m216.814 167.353c-13.331 0-24.176-10.846-24.176-24.177s10.845-24.176 24.176-24.176 24.176 10.845 24.176 24.176-10.845 24.177-24.176 24.177zm0-42.353c-10.022 0-18.176 8.154-18.176 18.176s8.154 18.177 18.176 18.177 18.176-8.154 18.176-18.177-8.154-18.176-18.176-18.176z" fill="#1c2d6b"/><path d="m242.226 197h-50.823c-1.657 0-3-1.343-3-3v-12.706c0-9.936 5.058-18.984 13.53-24.203 1.085-.667 2.472-.578 3.46.222 3.267 2.643 7.216 4.04 11.421 4.04s8.154-1.397 11.421-4.04c.989-.801 2.375-.891 3.46-.222 8.472 5.219 13.53 14.267 13.53 24.203v12.706c.001 1.657-1.343 3-2.999 3zm-47.824-6h44.823v-9.706c0-7.173-3.343-13.76-9.035-17.982-3.945 2.619-8.617 4.042-13.377 4.042s-9.432-1.423-13.377-4.042c-5.691 4.223-9.035 10.81-9.035 17.982v9.706z" fill="#1c2d6b"/><path d="m115.626 62.001h8.278v132h-8.278z" fill="#ef7f72"/><path d="m131.347 62.001h8.278v132h-8.278z" fill="#e8383b"/><path d="m123.904 62.001h7.443v132h-7.443z" fill="#e95947"/><path d="m139.625 197.001h-24c-1.657 0-3-1.343-3-3v-132c0-1.657 1.343-3 3-3h24c1.657 0 3 1.343 3 3v132c0 1.657-1.343 3-3 3zm-21-6h18v-126h-18z" fill="#1c2d6b"/><path d="m124.111 224v-18h-8.485v18h-8.486l20.486 18-6-18z" fill="#a4d4a0"/><path d="m139.626 224v-18h-8.486v18h2.486l-6 18 20.485-18z" fill="#419b46"/><path d="m131.14 224v-18h-7.029v18h-2.485l6 18 6-18z" fill="#65bc49"/><path d="m127.625 245c-.707 0-1.414-.249-1.98-.747l-20.485-18c-.938-.824-1.268-2.143-.827-3.312s1.559-1.941 2.807-1.941h5.485v-15c0-1.657 1.343-3 3-3h24c1.657 0 3 1.343 3 3v15h5.485c1.249 0 2.367.773 2.807 1.942s.111 2.487-.827 3.312l-20.485 18c-.565.497-1.272.746-1.98.746zm-12.526-18 12.526 11.006 12.527-11.006h-.526c-1.657 0-3-1.343-3-3v-15h-18v15c0 1.657-1.343 3-3 3z" fill="#1c2d6b"/></svg>