<svg id="Layer_1" enable-background="new 0 0 256 256" height="512" viewBox="0 0 256 256" width="512" xmlns="http://www.w3.org/2000/svg"><path d="m97.79 118.899v-83.798c0-1.713 1.388-3.101 3.101-3.101h-46.101c-2.761 0-5 2.239-5 5v80c0 2.761 2.239 5 5 5h46.101c-1.713 0-3.101-1.388-3.101-3.101z" fill="#ede49d"/><path d="m200.79 32h-46.101c1.713 0 3.101 1.388 3.101 3.101v83.798c0 1.713-1.388 3.101-3.101 3.101h46.101c2.761 0 5-2.239 5-5v-80c0-2.761-2.239-5-5-5z" fill="#d3ba2a"/><path d="m157.79 118.899v-83.798c0-1.713-1.388-3.101-3.101-3.101h-53.799c-1.713 0-3.101 1.388-3.101 3.101v83.798c0 1.713 1.388 3.101 3.101 3.101h53.798c1.713 0 3.102-1.388 3.102-3.101z" fill="#eee045"/><path d="m200.79 125h-146c-4.411 0-8-3.589-8-8v-80c0-4.411 3.589-8 8-8h146c4.411 0 8 3.589 8 8v80c0 4.411-3.589 8-8 8zm-146-90c-1.103 0-2 .897-2 2v80c0 1.103.897 2 2 2h146c1.103 0 2-.897 2-2v-80c0-1.103-.897-2-2-2z" fill="#1c2d6b"/><path d="m51.64 133.506c-1.233-3.68-2.021-9.272-2.021-15.538 0-11.081 2.461-20.064 5.498-20.064-11.081 0-20.065 8.983-20.065 20.064 0 6.266 2.875 11.858 7.375 15.538-6.835 4.248-11.388 11.821-11.388 20.461v4.13h17.48v-4.13c.001-8.64 1.249-16.213 3.121-20.461z" fill="#a4d4a0"/><path d="m67.806 133.506c4.5-3.68 7.376-9.272 7.376-15.538 0-11.081-8.983-20.064-20.065-20.064 3.036 0 5.498 8.983 5.498 20.064 0 6.266-.788 11.858-2.021 15.538 1.873 4.248 3.121 11.821 3.121 20.461v4.13h17.48v-4.13c0-8.64-4.554-16.213-11.389-20.461z" fill="#419b46"/><path d="m58.594 133.506c1.233-3.68 2.021-9.272 2.021-15.538 0-11.081-2.461-20.064-5.498-20.064-3.036 0-5.498 8.983-5.498 20.064 0 6.266.788 11.858 2.021 15.538-1.873 4.248-3.121 11.821-3.121 20.461v4.13h13.195v-4.13c.001-8.64-1.247-16.213-3.12-20.461z" fill="#65bc49"/><path d="m122.499 108.365c-1.876-4.792-3.074-12.076-3.074-20.236 0-14.431 3.745-26.129 8.364-26.129-14.431 0-26.129 11.698-26.129 26.129 0 8.16 3.742 15.445 9.602 20.236-8.9 5.532-14.828 15.394-14.828 26.644v5.379h21.318v-5.379c.001-11.25 1.898-21.112 4.747-26.644z" fill="#ef7f72"/><path d="m144.316 108.365c5.86-4.792 9.602-12.076 9.602-20.236.001-14.431-11.698-26.129-26.128-26.129 4.619 0 8.364 11.698 8.364 26.129 0 8.16-1.198 15.445-3.074 20.236 2.849 5.532 4.747 15.394 4.747 26.644v5.379h21.318v-5.379c-.001-11.25-5.929-21.112-14.829-26.644z" fill="#e8383b"/><path d="m133.08 108.365c1.876-4.792 3.074-12.076 3.074-20.236 0-14.431-3.745-26.129-8.364-26.129s-8.364 11.698-8.364 26.129c0 8.16 1.198 15.445 3.074 20.236-2.849 5.532-4.747 15.394-4.747 26.644v5.379h20.074v-5.379c-.001-11.25-1.898-21.112-4.747-26.644z" fill="#e95947"/><path d="m159.145 143.387h-62.71c-1.657 0-3-1.343-3-3v-5.378c0-10.659 4.828-20.491 13.084-26.979-5.033-5.368-7.858-12.436-7.858-19.901 0-16.062 13.067-29.129 29.129-29.129s29.129 13.067 29.129 29.129c0 7.466-2.825 14.533-7.858 19.901 8.256 6.487 13.084 16.319 13.084 26.979v5.378c0 1.657-1.344 3-3 3zm-59.71-6h56.71v-2.378c0-9.867-5.014-18.875-13.412-24.096-.822-.511-1.347-1.388-1.41-2.354-.062-.966.345-1.902 1.095-2.516 5.402-4.418 8.501-10.947 8.501-17.914-.001-12.753-10.376-23.129-23.129-23.129s-23.129 10.376-23.129 23.129c0 6.967 3.099 13.496 8.501 17.914.75.613 1.157 1.55 1.095 2.516-.062.967-.587 1.844-1.41 2.354-8.398 5.221-13.412 14.229-13.412 24.096z" fill="#1c2d6b"/><path d="m79.195 161.097h-48.155c-1.657 0-3-1.343-3-3v-4.13c0-8.15 3.58-15.685 9.734-20.796-3.671-4.178-5.721-9.546-5.721-15.203 0-12.718 10.347-23.064 23.064-23.064s23.064 10.347 23.064 23.064c0 5.658-2.049 11.025-5.721 15.203 6.154 5.111 9.734 12.646 9.734 20.796v4.13c.001 1.657-1.342 3-2.999 3zm-45.155-6h42.155v-1.13c0-7.336-3.728-14.032-9.972-17.913-.822-.511-1.348-1.388-1.41-2.354-.062-.967.345-1.904 1.095-2.517 3.987-3.261 6.274-8.077 6.274-13.216 0-9.409-7.655-17.064-17.064-17.064s-17.064 7.655-17.064 17.064c0 5.138 2.287 9.955 6.274 13.216.75.613 1.157 1.55 1.095 2.517-.062.966-.587 1.843-1.41 2.354-6.244 3.881-9.972 10.577-9.972 17.913v1.13z" fill="#1c2d6b"/><path d="m197.226 133.491c-1.233-3.68-2.021-9.272-2.021-15.538 0-11.081 2.461-20.064 5.498-20.064-11.081 0-20.065 8.983-20.065 20.064 0 6.266 2.875 11.858 7.375 15.538-6.835 4.248-11.388 11.821-11.388 20.461v4.13h17.48v-4.13c0-8.64 1.248-16.213 3.121-20.461z" fill="#a4d4a0"/><path d="m213.391 133.491c4.5-3.68 7.376-9.272 7.376-15.538 0-11.081-8.983-20.064-20.065-20.064 3.036 0 5.498 8.983 5.498 20.064 0 6.266-.788 11.858-2.021 15.538 1.873 4.248 3.121 11.821 3.121 20.461v4.13h17.48v-4.13c0-8.64-4.553-16.213-11.389-20.461z" fill="#419b46"/><path d="m204.179 133.491c1.233-3.68 2.021-9.272 2.021-15.538 0-11.081-2.461-20.064-5.498-20.064-3.036 0-5.498 8.983-5.498 20.064 0 6.266.788 11.858 2.021 15.538-1.873 4.248-3.121 11.821-3.121 20.461v4.13h13.196v-4.13c0-8.64-1.248-16.213-3.121-20.461z" fill="#65bc49"/><path d="m224.78 161.082h-48.155c-1.657 0-3-1.343-3-3v-4.13c0-8.15 3.58-15.685 9.734-20.796-3.671-4.178-5.721-9.546-5.721-15.203 0-12.718 10.347-23.064 23.065-23.064s23.064 10.347 23.064 23.064c0 5.657-2.05 11.025-5.721 15.203 6.154 5.111 9.734 12.646 9.734 20.796v4.13c0 1.657-1.343 3-3 3zm-45.155-6h42.155v-1.13c0-7.336-3.728-14.032-9.972-17.913-.823-.511-1.348-1.388-1.41-2.354-.062-.967.345-1.903 1.095-2.517 3.987-3.261 6.274-8.078 6.274-13.216 0-9.409-7.655-17.064-17.064-17.064-9.41 0-17.065 7.655-17.065 17.064 0 5.138 2.287 9.955 6.275 13.216.75.612 1.157 1.55 1.095 2.517-.062.966-.588 1.843-1.41 2.354-6.244 3.881-9.972 10.577-9.972 17.913v1.13z" fill="#1c2d6b"/><path d="m97.924 217.254 11.598-73.613c.308-1.957 1.098-3.254 1.981-3.254h-22.241c-2.088 0-3.956 1.297-4.685 3.254l-27.434 73.613c-1.218 3.267 1.198 6.746 4.685 6.746h38.078c-1.475 0-2.496-3.479-1.982-6.746z" fill="#89aadb"/><path d="m198.437 217.254-27.434-73.613c-.729-1.957-2.597-3.254-4.685-3.254h-22.241c.883 0 1.672 1.297 1.981 3.254l11.598 73.613c.515 3.267-.507 6.746-1.981 6.746h38.078c3.485 0 5.901-3.479 4.684-6.746z" fill="#4b67b0"/><path d="m157.655 217.254-11.598-73.613c-.308-1.957-1.098-3.254-1.981-3.254h-32.574c-.883 0-1.672 1.297-1.981 3.254l-11.598 73.613c-.513 3.267.508 6.746 1.982 6.746h55.769c1.474 0 2.495-3.479 1.981-6.746z" fill="#6287c5"/><path d="m193.751 227h-131.923c-2.62 0-5.076-1.284-6.571-3.437-1.495-2.151-1.84-4.902-.925-7.357l27.434-73.613c1.161-3.114 4.174-5.206 7.497-5.206h77.055c3.323 0 6.335 2.092 7.497 5.206l27.434 73.613c.915 2.455.569 5.206-.925 7.357-1.496 2.153-3.952 3.437-6.573 3.437zm-104.489-83.613c-.831 0-1.584.523-1.875 1.302l-27.434 73.613c-.33.885.052 1.581.231 1.839.179.259.698.859 1.643.859h131.924c.944 0 1.463-.601 1.643-.859s.561-.954.231-1.839l-27.434-73.613c-.291-.778-1.044-1.302-1.875-1.302z" fill="#1c2d6b"/><path d="m31.599 187.699c-1.233-3.68-2.021-9.272-2.021-15.538 0-11.081 2.461-20.064 5.498-20.064-11.081 0-20.065 8.983-20.065 20.064 0 6.266 2.875 11.858 7.375 15.538-6.835 4.248-11.388 11.821-11.388 20.461v4.13h17.48v-4.13c0-8.64 1.248-16.213 3.121-20.461z" fill="#a4d4a0"/><path d="m47.765 187.699c4.5-3.68 7.376-9.272 7.376-15.538 0-11.081-8.983-20.064-20.065-20.064 3.036 0 5.498 8.983 5.498 20.064 0 6.266-.788 11.858-2.021 15.538 1.873 4.248 3.121 11.821 3.121 20.461v4.13h17.48v-4.13c-.001-8.64-4.554-16.213-11.389-20.461z" fill="#419b46"/><path d="m38.553 187.699c1.233-3.68 2.021-9.272 2.021-15.538 0-11.081-2.461-20.064-5.498-20.064-3.036 0-5.498 8.983-5.498 20.064 0 6.266.788 11.858 2.021 15.538-1.873 4.248-3.121 11.821-3.121 20.461v4.13h13.195v-4.13c0-8.64-1.247-16.213-3.12-20.461z" fill="#65bc49"/><path d="m59.153 215.289h-48.154c-1.657 0-3-1.343-3-3v-4.13c0-8.15 3.58-15.685 9.733-20.796-3.671-4.177-5.721-9.545-5.721-15.203 0-12.718 10.347-23.064 23.064-23.064s23.065 10.346 23.065 23.064c0 5.658-2.05 11.026-5.721 15.203 6.154 5.111 9.734 12.646 9.734 20.796v4.13c0 1.657-1.343 3-3 3zm-45.154-6h42.155v-1.13c0-7.336-3.728-14.032-9.972-17.912-.822-.511-1.348-1.388-1.41-2.354-.062-.967.345-1.904 1.095-2.517 3.987-3.261 6.274-8.078 6.274-13.217 0-9.409-7.655-17.064-17.064-17.064s-17.064 7.655-17.064 17.064c0 5.139 2.287 9.956 6.274 13.217.75.613 1.157 1.55 1.095 2.517-.062.966-.588 1.843-1.41 2.354-6.244 3.88-9.972 10.576-9.972 17.912v1.13z" fill="#1c2d6b"/><path d="m217.447 187.684c-1.233-3.68-2.021-9.272-2.021-15.538 0-11.081 2.461-20.064 5.498-20.064-11.081 0-20.065 8.983-20.065 20.064 0 6.266 2.875 11.858 7.375 15.538-6.835 4.248-11.388 11.821-11.388 20.461v4.13h17.48v-4.13c.001-8.64 1.248-16.213 3.121-20.461z" fill="#a4d4a0"/><path d="m233.613 187.684c4.5-3.68 7.376-9.272 7.376-15.538 0-11.081-8.983-20.064-20.065-20.064 3.036 0 5.498 8.983 5.498 20.064 0 6.266-.788 11.858-2.021 15.538 1.873 4.248 3.121 11.821 3.121 20.461v4.13h17.48v-4.13c0-8.64-4.554-16.213-11.389-20.461z" fill="#419b46"/><path d="m224.401 187.684c1.233-3.68 2.021-9.272 2.021-15.538 0-11.081-2.461-20.064-5.498-20.064-3.036 0-5.498 8.983-5.498 20.064 0 6.266.788 11.858 2.021 15.538-1.873 4.248-3.121 11.821-3.121 20.461v4.13h13.195v-4.13c.001-8.64-1.247-16.213-3.12-20.461z" fill="#65bc49"/><path d="m245.001 215.275h-48.155c-1.657 0-3-1.343-3-3v-4.131c0-8.15 3.58-15.685 9.734-20.796-3.671-4.177-5.721-9.545-5.721-15.202 0-12.718 10.347-23.064 23.064-23.064s23.064 10.347 23.064 23.064c0 5.657-2.05 11.024-5.721 15.202 6.154 5.111 9.734 12.646 9.734 20.796v4.131c.001 1.658-1.342 3-2.999 3zm-45.154-6h42.155v-1.131c0-7.336-3.728-14.032-9.972-17.913-.823-.511-1.348-1.388-1.41-2.354-.062-.967.345-1.903 1.095-2.517 3.987-3.261 6.274-8.077 6.274-13.215 0-9.409-7.655-17.064-17.064-17.064s-17.064 7.655-17.064 17.064c0 5.138 2.287 9.954 6.274 13.215.75.612 1.157 1.55 1.095 2.517-.062.966-.588 1.843-1.41 2.354-6.244 3.881-9.972 10.577-9.972 17.913v1.131z" fill="#1c2d6b"/></svg>