<svg id="Layer_1" enable-background="new 0 0 256 256" height="512" viewBox="0 0 256 256" width="512" xmlns="http://www.w3.org/2000/svg"><path d="m71 163.026v-119.351c0-3.493 2.832-6.324 6.325-6.324h-50.325c-5.523 0-10 4.477-10 10v112c0 5.523 4.477 10 10 10h50.325c-3.493 0-6.325-2.832-6.325-6.325z" fill="#a4d4a0"/><path d="m187 37.351h-50.325c3.493 0 6.325 2.832 6.325 6.324v119.351c0 3.493-2.832 6.325-6.325 6.325h50.325c5.523 0 10-4.477 10-10v-112c0-5.523-4.477-10-10-10z" fill="#419b46"/><path d="m143 163.026v-119.351c0-3.493-2.832-6.324-6.325-6.324h-59.35c-3.493 0-6.325 2.832-6.325 6.324v119.351c0 3.493 2.832 6.325 6.325 6.325h59.351c3.492 0 6.324-2.832 6.324-6.325z" fill="#65bc49"/><path d="m76.056 154.202v-101.702c0-1.739 1.41-3.149 3.149-3.149h-45.205c-2.761 0-5 2.239-5 5v98c0 2.761 2.239 5 5 5h45.206c-1.74 0-3.15-1.41-3.15-3.149z" fill="#89aadb"/><path d="m180 49.351h-45.206c1.739 0 3.149 1.41 3.149 3.149v101.702c0 1.739-1.41 3.149-3.149 3.149h45.206c2.761 0 5-2.239 5-5v-98c0-2.762-2.239-5-5-5z" fill="#4b67b0"/><path d="m137.944 154.202v-101.702c0-1.739-1.41-3.149-3.149-3.149h-55.589c-1.739 0-3.149 1.41-3.149 3.149v101.702c0 1.739 1.41 3.149 3.149 3.149h55.589c1.739 0 3.149-1.41 3.149-3.149z" fill="#6287c5"/><path d="m180 160.351h-146c-4.411 0-8-3.589-8-8v-98c0-4.411 3.589-8 8-8h146c4.411 0 8 3.589 8 8v98c0 4.411-3.589 8-8 8zm-146-108c-1.103 0-2 .897-2 2v98c0 1.103.897 2 2 2h146c1.103 0 2-.897 2-2v-98c0-1.103-.897-2-2-2z" fill="#1c2d6b"/><path d="m187 172.351h-160c-7.168 0-13-5.832-13-13v-112c0-7.168 5.832-13 13-13h160c7.168 0 13 5.832 13 13v112c0 7.169-5.832 13-13 13zm-160-132c-3.86 0-7 3.14-7 7v112c0 3.86 3.14 7 7 7h160c3.86 0 7-3.14 7-7v-112c0-3.86-3.14-7-7-7z" fill="#1c2d6b"/><path d="m229.085 157.357c1.885.438 3.294 2.12 3.294 4.138v27.485c0 2.019-1.409 3.7-3.294 4.138 5.598-.766 9.915-5.554 9.915-11.363v-13.035c0-5.808-4.317-10.597-9.915-11.363z" fill="#419b46"/><path d="m227.518 157.238h-6.518v36h6.518c.035 0 .069-.005.103-.005v-35.99c-.034 0-.068-.005-.103-.005z" fill="#a4d4a0"/><g fill="#65bc49"><path d="m228.121 157.238h-.5v.005c.497.005.983.048 1.463.114-.31-.072-.63-.119-.963-.119z"/><path d="m227.621 193.238h.5c.333 0 .653-.047.963-.119-.48.066-.966.109-1.463.114z"/><path d="m232.379 188.981v-27.485c0-2.019-1.409-3.7-3.294-4.138-.48-.066-.966-.109-1.463-.114v35.99c.497-.005.983-.048 1.463-.114 1.885-.439 3.294-2.121 3.294-4.139z"/></g><path d="m181.49 140.932c0-.43.017-.841.048-1.233l-7.507-3.336c-3.306-1.469-7.031.951-7.031 4.569v68.612c0 3.618 3.724 6.039 7.031 4.569l7.507-3.336c-.03-.391-.048-.803-.048-1.233z" fill="#ef7f72"/><path d="m206.031 150.585-18.031-8.013 5.59 8.014c.56.802.921 2.593.921 4.569v40.168c0 1.976-.361 3.766-.921 4.569l-5.59 8.014 18.031-8.014c1.806-.803 2.969-2.593 2.969-4.569v-40.168c0-1.977-1.164-3.767-2.969-4.57z" fill="#e8383b"/><path d="m194.51 195.322v-40.168c0-1.976-.361-3.766-.921-4.569l-5.59-8.014-6.463-2.872c-.03.391-.048.803-.048 1.233v68.612c0 .43.017.841.048 1.233l6.462-2.872 5.59-8.014c.562-.802.922-2.593.922-4.569z" fill="#e95947"/><path d="m227.518 196.238h-6.518c-1.657 0-3-1.343-3-3v-36c0-1.657 1.343-3 3-3h6.518c7.985 0 14.482 6.497 14.482 14.482v13.036c0 7.986-6.497 14.482-14.482 14.482zm-3.518-6h3.518c4.677 0 8.482-3.805 8.482-8.482v-13.036c0-4.677-3.805-8.482-8.482-8.482h-3.518z" fill="#1c2d6b"/><path d="m171.996 217.548c-1.521 0-3.033-.437-4.355-1.295-2.28-1.481-3.641-3.989-3.641-6.708v-68.612c0-2.719 1.361-5.227 3.64-6.708 2.281-1.481 5.124-1.707 7.609-.603l32 14.223c2.886 1.282 4.751 4.152 4.751 7.311v40.168c0 3.158-1.865 6.027-4.75 7.31l-32 14.222c-1.045.463-2.152.692-3.254.692zm.005-78.621c-.512 0-.907.208-1.091.328-.274.178-.91.697-.91 1.677v68.612c0 .979.637 1.499.91 1.677s1.007.548 1.902.151l32-14.222c.721-.321 1.188-1.038 1.188-1.828v-40.168c0-.79-.466-1.507-1.188-1.827l-32-14.223c-.291-.129-.564-.177-.811-.177z" fill="#1c2d6b"/><path d="m104.332 73.585c0-.008.001-.015.001-.023l-6.215-4.873c-4.083-3.202-10.061-.292-10.061 4.896v58.718c0 5.189 5.978 8.098 10.061 4.896l6.215-4.873c0-.008-.001-.015-.001-.023z" fill="#a4d4a0"/><path d="m135.561 98.047-22.561-17.689 7.84 17.69c1.104 2.491 1.104 7.302 0 9.793l-7.84 17.689 22.56-17.689c3.178-2.492 3.178-7.303.001-9.794z" fill="#419b46"/><path d="m120.841 98.047-7.841-17.689-8.668-6.796c0 .008-.001.015-.001.023v58.718c0 .008.001.015.001.023l8.668-6.797 7.84-17.689c1.105-2.491 1.105-7.302.001-9.793z" fill="#65bc49"/><path d="m94.293 141.535c-1.372 0-2.754-.31-4.05-.94-3.199-1.557-5.187-4.734-5.187-8.292v-58.719c0-3.558 1.987-6.735 5.187-8.292 3.198-1.558 6.925-1.16 9.726 1.035l37.443 29.359c2.245 1.76 3.532 4.405 3.532 7.257s-1.287 5.498-3.532 7.257l-37.443 29.36c-1.666 1.306-3.66 1.975-5.676 1.975zm0-71.183c-.479 0-.963.111-1.425.335-1.135.552-1.812 1.635-1.812 2.897v58.718c0 1.262.677 2.345 1.812 2.897s2.405.417 3.398-.362l37.443-29.359c.784-.615 1.234-1.539 1.234-2.536s-.45-1.921-1.234-2.536l-37.442-29.357c-.589-.462-1.276-.697-1.974-.697z" fill="#1c2d6b"/><path d="m107.616 176.419c0-13.92 5.661-27.048 16.001-37.263l-4.966-4.966c-23.327 23.327-23.327 61.132 0 84.459l4.966-4.967c-10.341-10.215-16.001-23.343-16.001-37.263z" fill="#ede49d"/><path d="m130.716 146.255-4.624-4.624c-9.677 9.556-14.976 21.812-14.976 34.788s5.298 25.233 14.976 34.788l4.624-4.624c-16.661-16.66-16.661-43.667 0-60.328z" fill="#d3ba2a"/><path d="m111.116 176.419c0-12.976 5.298-25.233 14.976-34.788l-2.475-2.475c-10.34 10.215-16.001 23.343-16.001 37.263s5.661 27.048 16.001 37.263l2.475-2.475c-9.678-9.555-14.976-21.812-14.976-34.788z" fill="#eee045"/><path d="m146.287 161.826-3.505-3.505c-9.994 9.994-9.994 26.203 0 36.197l3.505-3.505c-5.607-8.882-5.607-20.306 0-29.187z" fill="#ede49d"/><path d="m154.847 170.387-5.998-5.998c-4.333 7.41-4.333 16.651 0 24.061l5.998-5.998c-3.328-3.328-3.328-8.737 0-12.065z" fill="#d3ba2a"/><path d="m148.849 164.389-2.562-2.562c-5.607 8.881-5.607 20.305 0 29.186l2.562-2.562c-4.333-7.411-4.333-16.653 0-24.062z" fill="#eee045"/><path d="m118.65 221.649c-.768 0-1.536-.293-2.121-.878-11.849-11.849-18.375-27.6-18.375-44.351s6.525-32.502 18.375-44.351c1.171-1.171 3.072-1.171 4.242 0l12.065 12.065c1.172 1.171 1.172 3.071 0 4.242-15.462 15.463-15.462 40.623 0 56.086 1.172 1.171 1.172 3.071 0 4.242l-12.065 12.065c-.585.587-1.353.88-2.121.88zm.055-83.162c-9.405 10.431-14.55 23.787-14.55 37.932s5.146 27.501 14.55 37.932l7.837-7.837c-15.065-17.166-15.065-43.024 0-60.19z" fill="#1c2d6b"/><path d="m142.781 197.518c-.796 0-1.559-.316-2.122-.879-11.148-11.149-11.148-29.291 0-40.439 1.125-1.125 3.117-1.126 4.243 0l12.066 12.066c1.172 1.171 1.172 3.071 0 4.242-1.043 1.043-1.617 2.432-1.617 3.912s.574 2.868 1.617 3.912c1.172 1.171 1.172 3.071 0 4.242l-12.066 12.066c-.562.562-1.325.878-2.121.878zm.14-34.814c-6.168 8.065-6.168 19.367 0 27.432l7.963-7.963c-2.041-3.548-2.041-7.958 0-11.506z" fill="#1c2d6b"/></svg>