<svg id="Layer_1" enable-background="new 0 0 256 256" height="512" viewBox="0 0 256 256" width="512" xmlns="http://www.w3.org/2000/svg"><path d="m91.685 223.425v-62.775c0-3.397 2.754-6.15 6.151-6.15h-55.836c-5.523 0-10 4.477-10 10v57c0 2.761 2.239 5 5 5h57.76c-1.699 0-3.075-1.377-3.075-3.075z" fill="#ef7f72"/><path d="m214 154.5h-55.835c3.397 0 6.151 2.754 6.151 6.15v62.774c0 1.698-1.377 3.075-3.075 3.075h57.759c2.761 0 5-2.239 5-5v-57c0-5.522-4.477-9.999-10-9.999z" fill="#e8383b"/><path d="m164.315 223.425v-62.775c0-3.397-2.754-6.15-6.151-6.15h-60.33c-3.397 0-6.151 2.754-6.151 6.15v62.774c0 1.698 1.377 3.075 3.075 3.075h66.48c1.7.001 3.077-1.376 3.077-3.074z" fill="#e95947"/><path d="m97.835 154.5h-55.835c-5.507 0-9.972 4.452-9.998 9.953v14.396c4.473 5.593 12.979 5.593 17.452 0 4.473-5.592 12.978-5.593 17.451 0l.002.003c4.473 5.592 12.978 5.592 17.451-.001l.001-.001c1.914-2.393 4.567-3.753 7.325-4.098v-14.102c.001-3.396 2.754-6.15 6.151-6.15z" fill="#ede49d"/><path d="m214 154.5h-55.835c3.397 0 6.151 2.754 6.151 6.15v14.102c2.752.348 5.399 1.707 7.309 4.095l.006.008c4.473 5.591 12.976 5.591 17.449 0l.009-.011c4.473-5.59 12.976-5.59 17.449 0l.011.014c4.473 5.589 12.975 5.589 17.448 0l.001-14.389c-.017-5.509-4.486-9.969-9.998-9.969z" fill="#d3ba2a"/><path d="m158.165 154.5h-60.33c-3.397 0-6.151 2.754-6.151 6.15v14.101c3.689-.462 7.567.898 10.127 4.098l.002.002c4.473 5.592 12.978 5.592 17.451 0l.003-.004c4.473-5.592 12.977-5.592 17.451 0l.004.005c4.473 5.592 12.978 5.591 17.451-.001l.002-.002c2.563-3.204 6.448-4.563 10.141-4.096v-14.103c-.001-3.396-2.754-6.15-6.151-6.15z" fill="#eee045"/><path d="m219 229.5h-182c-4.411 0-8-3.589-8-8v-57c0-7.168 5.832-13 13-13h172c7.168 0 13 5.832 13 13v57c0 4.411-3.589 8-8 8zm-177-72c-3.859 0-7 3.141-7 7v57c0 1.103.897 2 2 2h182c1.103 0 2-.897 2-2v-57c0-3.859-3.141-7-7-7z" fill="#1c2d6b"/><path d="m109.729 94.5h-43.729c-5.523 0-10 4.477-10 10v50h47.949v-54.22c0-3.192 2.588-5.78 5.78-5.78z" fill="#ef7f72"/><path d="m190 94.5h-43.729c3.192 0 5.78 2.588 5.78 5.78v54.22h47.949v-50c0-5.523-4.477-10-10-10z" fill="#e8383b"/><path d="m146.271 94.5h-36.542c-3.192 0-5.78 2.588-5.78 5.78v54.22h48.102v-54.22c0-3.192-2.588-5.78-5.78-5.78z" fill="#e95947"/><path d="m200 157.5h-144c-1.657 0-3-1.343-3-3v-50c0-7.168 5.832-13 13-13h124c7.168 0 13 5.832 13 13v50c0 1.657-1.343 3-3 3zm-141-6h138v-47c0-3.859-3.141-7-7-7h-124c-3.859 0-7 3.141-7 7z" fill="#1c2d6b"/><path d="m215.274 186.05c-4.329 0-8.363-1.938-11.067-5.317-1.571-1.963-3.897-3.081-6.394-3.081s-4.822 1.118-6.383 3.067c-2.712 3.391-6.746 5.329-11.075 5.329-4.318 0-8.343-1.93-11.047-5.294-.01-.012-.019-.022-.026-.032-1.56-1.949-3.886-3.067-6.383-3.067s-4.823 1.118-6.383 3.068c-.01.012-.02.023-.029.036-2.704 3.36-6.726 5.286-11.04 5.286-4.311.001-8.328-1.921-11.032-5.274-.014-.017-.026-.032-.04-.049-1.56-1.949-3.886-3.067-6.383-3.067s-4.823 1.118-6.383 3.067c-2.707 3.385-6.741 5.323-11.07 5.324-4.33 0-8.364-1.939-11.069-5.32-.01-.012-.019-.024-.028-.036-1.56-1.929-3.873-3.034-6.355-3.034-2.497 0-4.824 1.118-6.384 3.068-2.705 3.382-6.739 5.321-11.069 5.321-4.312 0-8.331-1.923-11.035-5.279-.012-.014-.023-.028-.035-.043-1.56-1.949-3.886-3.067-6.382-3.067-2.497 0-4.824 1.118-6.384 3.068-2.704 3.381-6.738 5.319-11.068 5.319s-8.364-1.938-11.069-5.32c-.426-.532-.657-1.192-.657-1.874v-14.396c.032-7.148 5.863-12.953 12.996-12.953h172c7.146 0 12.977 5.813 12.998 12.96l-.001 14.397c0 .682-.232 1.343-.657 1.874-2.704 3.38-6.737 5.319-11.066 5.319zm-17.461-14.399c4.328 0 8.362 1.938 11.066 5.317 1.571 1.963 3.897 3.081 6.394 3.081 2.166 0 4.204-.842 5.724-2.338l.001-13.243c-.012-3.839-3.151-6.969-6.998-6.969h-172c-3.841 0-6.979 3.126-6.998 6.968v13.236c1.521 1.497 3.56 2.339 5.727 2.339 2.497 0 4.823-1.118 6.383-3.067 2.705-3.381 6.739-5.32 11.069-5.32 4.312 0 8.33 1.923 11.034 5.278.012.015.024.029.036.044 1.56 1.949 3.886 3.067 6.382 3.067 2.497 0 4.824-1.118 6.384-3.068 2.705-3.382 6.739-5.321 11.069-5.321s8.364 1.939 11.068 5.32c.01.012.019.023.027.035 1.561 1.93 3.875 3.035 6.357 3.035 2.496-.001 4.822-1.119 6.382-3.068 2.708-3.385 6.742-5.323 11.071-5.323 4.31 0 8.327 1.921 11.032 5.274.014.016.027.032.04.049 1.56 1.95 3.886 3.067 6.382 3.067 2.497 0 4.823-1.118 6.383-3.068.01-.012.02-.024.03-.037 2.704-3.359 6.726-5.285 11.04-5.285 4.318 0 8.344 1.929 11.048 5.294.01.012.019.022.026.032 1.56 1.949 3.886 3.067 6.382 3.067s4.822-1.118 6.382-3.066c2.715-3.391 6.749-5.33 11.077-5.33zm26.184 7.206h.01z" fill="#1c2d6b"/><path d="m109.729 94.5h-43.729c-5.523 0-10 4.477-10 10v18.169c3.914.773 8.168-.543 10.909-3.97 4.473-5.592 12.978-5.593 17.451-.001l.002.003c4.473 5.592 12.978 5.592 17.451-.001l.001-.001c.636-.795 1.36-1.464 2.135-2.033v-16.386c0-3.192 2.588-5.78 5.78-5.78z" fill="#ede49d"/><path d="m190 94.5h-43.729c3.192 0 5.78 2.588 5.78 5.78v16.394c.77.567 1.489 1.233 2.121 2.022l.004.005c4.474 5.592 12.978 5.591 17.451-.001l.002-.002c4.473-5.592 12.977-5.593 17.451-.001l.006.007c2.743 3.428 7 4.744 10.915 3.968v-18.172c-.001-5.523-4.478-10-10.001-10z" fill="#d3ba2a"/><path d="m146.271 94.5h-36.542c-3.192 0-5.78 2.588-5.78 5.78v16.386c4.681-3.434 11.479-2.765 15.316 2.032l.002.002c4.473 5.592 12.978 5.592 17.451 0l.003-.004c3.841-4.802 10.648-5.468 15.33-2.023v-16.393c0-3.192-2.588-5.78-5.78-5.78z" fill="#eee045"/><path d="m162.9 125.895c-4.329 0-8.362-1.938-11.067-5.319-1.563-1.954-3.89-3.072-6.386-3.072-2.497 0-4.824 1.118-6.384 3.067-2.707 3.385-6.741 5.323-11.071 5.323-4.314 0-8.337-1.926-11.041-5.286-.009-.012-.019-.023-.028-.035-1.56-1.95-3.886-3.068-6.383-3.068s-4.823 1.119-6.383 3.069c-2.705 3.381-6.739 5.32-11.068 5.32-4.33.001-8.364-1.938-11.069-5.319-.008-.01-.015-.019-.022-.028-1.56-1.935-3.877-3.043-6.363-3.042-2.496 0-4.822 1.118-6.382 3.068-3.312 4.14-8.612 6.071-13.833 5.04-1.405-.277-2.419-1.511-2.419-2.943v-18.17c0-7.168 5.832-13 13-13h124c7.168 0 13 5.832 13 13v18.172c0 1.432-1.012 2.664-2.416 2.942-5.215 1.035-10.505-.886-13.82-5.011-.01-.012-.019-.022-.027-.033-1.56-1.949-3.887-3.067-6.384-3.067-2.482.001-4.796 1.106-6.355 3.035-.009.012-.018.023-.027.035-2.707 3.382-6.742 5.322-11.072 5.322zm37.1-3.223h.01zm-54.554-11.169c.001 0 .001 0 0 0 4.33 0 8.363 1.938 11.068 5.319 1.563 1.954 3.89 3.072 6.386 3.072 2.482 0 4.797-1.106 6.357-3.036.009-.012.019-.023.027-.035 2.704-3.381 6.737-5.319 11.067-5.32 4.318 0 8.344 1.929 11.049 5.294.009.011.018.022.026.032 1.397 1.746 3.41 2.81 5.572 3.021v-15.35c0-3.859-3.141-7-7-7h-123.998c-3.859 0-7 3.141-7 7v15.345c2.16-.213 4.171-1.276 5.565-3.021 2.705-3.381 6.739-5.32 11.068-5.32 4.33-.001 8.364 1.938 11.069 5.319.008.01.016.02.022.029 1.561 1.934 3.877 3.042 6.363 3.041 2.496 0 4.822-1.118 6.382-3.068 2.705-3.382 6.74-5.321 11.069-5.321 4.315 0 8.337 1.926 11.041 5.286.01.012.02.024.029.036 1.56 1.95 3.886 3.067 6.382 3.067 2.497 0 4.823-1.117 6.383-3.067 2.71-3.385 6.744-5.323 11.073-5.323z" fill="#1c2d6b"/><path d="m80.385 64.5h6.701v30h-6.701z" fill="#89aadb"/><path d="m91.685 64.5h6.701v30h-6.701z" fill="#4b67b0"/><path d="m87.086 64.5h4.599v30h-4.599z" fill="#6287c5"/><path d="m116.385 64.5h6.701v30h-6.701z" fill="#89aadb"/><path d="m127.685 64.5h6.701v30h-6.701z" fill="#4b67b0"/><path d="m123.086 64.5h4.599v30h-4.599z" fill="#6287c5"/><path d="m152.051 64.5h6.701v30h-6.701z" fill="#89aadb"/><path d="m163.35 64.5h6.701v30h-6.701z" fill="#4b67b0"/><path d="m158.751 64.5h4.599v30h-4.599z" fill="#6287c5"/><g fill="#1c2d6b"><path d="m98.385 97.5h-18c-1.657 0-3-1.343-3-3v-30c0-1.657 1.343-3 3-3h18c1.657 0 3 1.343 3 3v30c0 1.657-1.343 3-3 3zm-15-6h12v-24h-12z"/><path d="m134.385 97.5h-18c-1.657 0-3-1.343-3-3v-30c0-1.657 1.343-3 3-3h18c1.657 0 3 1.343 3 3v30c0 1.657-1.343 3-3 3zm-15-6h12v-24h-12z"/><path d="m170.051 97.5h-18c-1.657 0-3-1.343-3-3v-30c0-1.657 1.343-3 3-3h18c1.657 0 3 1.343 3 3v30c0 1.657-1.343 3-3 3zm-15-6h12v-24h-12z"/></g><path d="m96.883 43.18-6.998-13.657 1.481 13.657c.2 1.37.318 3.029.318 4.82 0 4.694-.806 8.5-1.799 8.5 4.694 0 8.5-3.806 8.5-8.5 0-1.791-.556-3.45-1.502-4.82z" fill="#e8383b"/><path d="m88.086 48c0-1.736.111-3.349.3-4.695v-.001l1.496-13.79-.009-.014-7.073 13.805.002.001c-.893 1.345-1.417 2.958-1.417 4.695 0 4.694 3.806 8.5 8.5 8.5-.994-.001-1.799-3.807-1.799-8.501z" fill="#ef7f72"/><path d="m89.883 29.5-.002.015.004.008z" fill="#ef7f72"/><path d="m91.685 48c0-1.791-.118-3.45-.318-4.82l-1.481-13.657-.004-.008-1.496 13.79v.001c-.189 1.345-.3 2.958-.3 4.695 0 4.694.806 8.5 1.799 8.5s1.8-3.807 1.8-8.501z" fill="#e95947"/><path d="m132.383 43.18-6.998-13.657 1.481 13.657c.2 1.37.318 3.029.318 4.82 0 4.694-.806 8.5-1.799 8.5 4.694 0 8.5-3.806 8.5-8.5 0-1.791-.556-3.45-1.502-4.82z" fill="#e8383b"/><path d="m123.586 48c0-1.736.111-3.349.3-4.695v-.001l1.496-13.79-.008-.015-7.074 13.806.002.001c-.893 1.345-1.417 2.958-1.417 4.695 0 4.694 3.806 8.5 8.5 8.5-.994-.001-1.799-3.807-1.799-8.501z" fill="#ef7f72"/><path d="m125.383 29.5-.002.015.004.008z" fill="#ef7f72"/><path d="m127.185 48c0-1.791-.118-3.45-.318-4.82l-1.481-13.657-.004-.008-1.496 13.79v.001c-.189 1.345-.3 2.958-.3 4.695 0 4.694.806 8.5 1.799 8.5s1.8-3.807 1.8-8.501z" fill="#e95947"/><path d="m167.883 43.18-6.998-13.657 1.481 13.657c.2 1.37.318 3.029.318 4.82 0 4.694-.806 8.5-1.799 8.5 4.694 0 8.5-3.806 8.5-8.5 0-1.791-.556-3.45-1.502-4.82z" fill="#e8383b"/><path d="m159.086 48c0-1.736.111-3.349.3-4.695v-.001l1.496-13.79-.008-.015-7.074 13.806.002.001c-.893 1.345-1.417 2.958-1.417 4.695 0 4.694 3.806 8.5 8.5 8.5-.994-.001-1.799-3.807-1.799-8.501z" fill="#ef7f72"/><path d="m160.883 29.5-.002.015.004.008z" fill="#ef7f72"/><path d="m162.685 48c0-1.791-.118-3.45-.318-4.82l-1.481-13.657-.004-.008-1.496 13.79v.001c-.189 1.345-.3 2.958-.3 4.695 0 4.694.806 8.5 1.799 8.5s1.8-3.807 1.8-8.501z" fill="#e95947"/><path d="m89.885 59.5c-6.341 0-11.5-5.159-11.5-11.5 0-2.2.624-4.333 1.807-6.183l7.012-13.686c.514-1.002 1.544-1.632 2.67-1.632s2.156.63 2.67 1.632l6.928 13.52c1.253 1.888 1.914 4.078 1.914 6.349-.001 6.341-5.16 11.5-11.501 11.5zm-4.364-14.928c-.063.136-.137.268-.221.394-.6.901-.916 1.951-.916 3.034 0 3.032 2.468 5.5 5.5 5.5s5.5-2.468 5.5-5.5c0-1.118-.336-2.195-.971-3.115-.073-.107-.141-.22-.2-.336l-4.341-8.471z" fill="#1c2d6b"/><path d="m125.385 59.5c-6.341 0-11.5-5.159-11.5-11.5 0-2.2.624-4.333 1.807-6.183l7.012-13.686c.514-1.002 1.544-1.632 2.67-1.632s2.156.63 2.67 1.632l6.928 13.52c1.253 1.888 1.914 4.078 1.914 6.349-.001 6.341-5.16 11.5-11.501 11.5zm-4.364-14.928c-.063.136-.137.268-.221.394-.6.901-.916 1.951-.916 3.034 0 3.032 2.468 5.5 5.5 5.5s5.5-2.468 5.5-5.5c0-1.118-.336-2.195-.971-3.115-.073-.107-.141-.22-.2-.336l-4.341-8.471z" fill="#1c2d6b"/><path d="m160.885 59.5c-6.341 0-11.5-5.159-11.5-11.5 0-2.2.624-4.333 1.807-6.183l7.012-13.686c.514-1.002 1.544-1.632 2.67-1.632s2.156.63 2.67 1.632l6.928 13.52c1.253 1.888 1.914 4.078 1.914 6.349-.001 6.341-5.16 11.5-11.501 11.5zm-4.364-14.928c-.063.136-.137.268-.221.394-.6.901-.916 1.951-.916 3.034 0 3.032 2.468 5.5 5.5 5.5s5.5-2.468 5.5-5.5c0-1.118-.336-2.195-.971-3.115-.073-.107-.141-.22-.2-.336l-4.341-8.471z" fill="#1c2d6b"/></svg>