<svg id="Layer_1" enable-background="new 0 0 256 256" height="512" viewBox="0 0 256 256" width="512" xmlns="http://www.w3.org/2000/svg"><path d="m57.482 85.756c-.056-6.188 2.419-11.241 5.48-11.241h-31.928c-6.163 0-11.145 5.052-11.032 11.241.111 6.074 5.323 10.828 11.398 10.828h31.744c-3.018-.001-5.607-4.754-5.662-10.828z" fill="#ef7f72"/><path d="m159.764 74.515h-32.854c2.523 0 4.568 4.117 4.568 9.195v12.873h20.93v99.305h7.356c5.078 0 9.195-4.117 9.195-9.195v-102.983c0-5.078-4.116-9.195-9.195-9.195z" fill="#e8383b"/><path d="m126.911 74.515h-63.949c-3.061 0-5.537 5.052-5.48 11.241.055 6.074 2.644 10.828 5.662 10.828h60.113 8.222v-12.874c0-5.078-2.045-9.195-4.568-9.195z" fill="#e95947"/><path d="m159.765 198.888h-7.356c-1.657 0-3-1.343-3-3v-96.305h-118.009c-7.8 0-14.259-6.178-14.397-13.772-.07-3.8 1.356-7.385 4.017-10.094 2.661-2.71 6.218-4.202 10.015-4.202h128.73c6.724 0 12.194 5.471 12.194 12.195v102.983c0 6.724-5.471 12.195-12.194 12.195zm-4.357-6h4.356c3.416 0 6.194-2.778 6.194-6.194v-102.984c0-3.416-2.778-6.195-6.194-6.195h-128.73c-2.174 0-4.21.854-5.733 2.405-1.522 1.552-2.339 3.604-2.3 5.781.08 4.346 3.848 7.882 8.399 7.882h121.008c1.657 0 3 1.343 3 3z" fill="#1c2d6b"/><path d="m44.259 91.437h49.653v88.272h-49.653z" fill="#a4d4a0" transform="matrix(.866 -.5 .5 .866 -58.531 52.706)"/><path d="m135.039 39.026h49.653v88.272h-49.653z" fill="#419b46" transform="matrix(.866 -.5 .5 .866 -20.163 91.074)"/><path d="m86.89 65.231h55.17v88.272h-55.17z" fill="#65bc49" transform="matrix(.866 -.5 .5 .866 -39.347 71.89)"/><path d="m69.656 189.211c-1.037 0-2.045-.538-2.601-1.501l-44.137-76.446c-.398-.689-.506-1.508-.3-2.276s.708-1.424 1.397-1.821l133.781-77.238c.688-.397 1.509-.506 2.276-.3.769.206 1.424.708 1.821 1.397l44.136 76.446c.829 1.435.337 3.27-1.098 4.098l-133.78 77.238c-.47.273-.986.403-1.495.403zm-40.042-78.35 41.137 71.251 128.585-74.238-41.136-71.251z" fill="#1c2d6b"/><path d="m104.14 146.7-27.163-47.048c2.84-1.64 3.814-5.272 2.174-8.113l-30.598 17.666c2.539 4.398 1.032 10.022-3.366 12.561l23.907 41.408c4.398-2.539 10.021-1.032 12.561 3.366l30.598-17.666c-1.64-2.841-5.273-3.814-8.113-2.174z" fill="#ede49d"/><path d="m147.296 52.196-30.598 17.666c1.64 2.84 5.272 3.814 8.113 2.174l27.163 47.048c-2.84 1.64-3.814 5.272-2.174 8.113l30.598-17.666c-2.539-4.398-1.032-10.022 3.366-12.561l-23.907-41.408c-4.399 2.538-10.022 1.032-12.561-3.366z" fill="#d3ba2a"/><path d="m151.974 119.083-27.163-47.048c-2.84 1.64-6.473.667-8.113-2.174l-37.548 21.678c1.64 2.84.667 6.473-2.174 8.113l27.164 47.048c2.84-1.64 6.473-.667 8.113 2.174l37.548-21.678c-1.641-2.841-.668-6.473 2.173-8.113z" fill="#eee045"/><path d="m81.658 169.54c-1.037 0-2.045-.538-2.601-1.501-1.708-2.959-5.502-3.976-8.463-2.268-.688.397-1.506.506-2.276.3-.769-.206-1.424-.708-1.821-1.397l-23.907-41.408c-.829-1.435-.337-3.27 1.098-4.098 1.433-.828 2.458-2.164 2.886-3.762.429-1.599.209-3.269-.618-4.701-.398-.689-.506-1.508-.3-2.276s.708-1.424 1.397-1.821l98.743-57.01c.688-.397 1.509-.506 2.276-.3.769.206 1.424.709 1.822 1.397.827 1.434 2.163 2.459 3.761 2.887 1.6.431 3.269.209 4.701-.619 1.438-.827 3.27-.336 4.098 1.099l23.907 41.408c.398.689.506 1.508.3 2.276s-.709 1.424-1.397 1.822c-1.434.827-2.459 2.163-2.887 3.762-.429 1.598-.209 3.268.618 4.7.398.688.506 1.508.3 2.276s-.708 1.424-1.397 1.821l-98.742 57.009c-.473.274-.989.404-1.498.404zm-7.986-10.596c3.251 0 6.436 1.299 8.758 3.684l94.189-54.381c-.595-2.093-.615-4.314-.038-6.471.578-2.156 1.707-4.069 3.27-5.585l-21.278-36.851c-2.093.595-4.313.616-6.471.038-2.156-.578-4.069-1.707-5.585-3.27l-94.19 54.382c1.211 4.288-.036 8.941-3.229 12.05l21.281 36.859c1.085-.306 2.192-.455 3.293-.455z" fill="#1c2d6b"/><path d="m76.825 104.488h49.653v88.272h-49.653z" fill="#a4d4a0" transform="matrix(.866 -.5 .5 .866 -60.693 70.738)"/><path d="m167.605 52.076h49.653v88.272h-49.653z" fill="#419b46" transform="matrix(.866 -.5 .5 .866 -22.325 109.106)"/><path d="m119.457 78.282h55.17v88.272h-55.17z" fill="#65bc49" transform="matrix(.866 -.5 .5 .866 -41.509 89.922)"/><path d="m102.223 202.261c-1.037 0-2.045-.538-2.601-1.501l-44.137-76.445c-.398-.689-.506-1.508-.3-2.276s.708-1.424 1.397-1.821l133.781-77.238c1.437-.83 3.27-.337 4.098 1.098l44.136 76.445c.829 1.435.337 3.27-1.098 4.098l-133.78 77.238c-.472.272-.988.402-1.496.402zm-40.042-78.349 41.137 71.25 128.585-74.238-41.136-71.25z" fill="#1c2d6b"/><path d="m136.706 159.75-27.163-47.048c2.84-1.64 3.814-5.272 2.174-8.113l-30.598 17.666c2.539 4.398 1.032 10.022-3.366 12.561l23.907 41.408c4.398-2.539 10.021-1.032 12.561 3.366l30.598-17.666c-1.64-2.84-5.272-3.813-8.113-2.174z" fill="#ede49d"/><path d="m179.862 65.246-30.598 17.666c1.64 2.84 5.272 3.814 8.113 2.174l27.163 47.048c-2.84 1.64-3.814 5.272-2.174 8.113l30.598-17.666c-2.539-4.398-1.032-10.022 3.366-12.561l-23.907-41.408c-4.398 2.539-10.022 1.032-12.561-3.366z" fill="#d3ba2a"/><path d="m184.54 132.133-27.163-47.048c-2.84 1.64-6.473.667-8.113-2.174l-37.548 21.678c1.64 2.84.667 6.473-2.174 8.113l27.163 47.048c2.84-1.64 6.473-.667 8.113 2.174l37.548-21.678c-1.639-2.84-.666-6.473 2.174-8.113z" fill="#eee045"/><path d="m114.222 182.59c-.26 0-.521-.034-.776-.103-.769-.206-1.424-.709-1.822-1.397-.827-1.434-2.163-2.459-3.762-2.887-1.598-.431-3.268-.209-4.7.618-.688.397-1.507.506-2.276.3s-1.424-.708-1.821-1.397l-23.907-41.408c-.829-1.435-.337-3.27 1.098-4.098 2.958-1.708 3.975-5.505 2.267-8.463-.828-1.435-.336-3.27 1.099-4.098l98.743-57.009c1.437-.83 3.27-.337 4.098 1.098 1.709 2.957 5.505 3.978 8.463 2.267 1.438-.827 3.27-.336 4.098 1.099l23.907 41.408c.398.689.506 1.508.3 2.276s-.709 1.424-1.397 1.822c-1.434.827-2.459 2.163-2.887 3.762-.429 1.598-.209 3.268.618 4.7.398.689.506 1.508.3 2.276s-.708 1.424-1.397 1.821l-98.742 57.01c-.464.266-.982.403-1.504.403zm-7.984-10.604c1.06 0 2.126.14 3.177.421 2.156.578 4.069 1.707 5.585 3.27l94.186-54.38c-.595-2.093-.615-4.314-.038-6.471.578-2.156 1.707-4.069 3.27-5.585l-21.279-36.855c-4.284 1.21-8.94-.036-12.05-3.229l-94.195 54.383c1.21 4.288-.037 8.941-3.229 12.05l21.279 36.855c1.073-.304 2.18-.459 3.294-.459z" fill="#1c2d6b"/><path d="m57.933 197.728v-80.788-20.357h-15.865-11.034c-6.094 0-11.034-4.94-11.034-11.034v11.034 20.357 80.788c0 5.078 4.117 9.195 9.195 9.195h32.665c-2.169 0-3.927-4.116-3.927-9.195z" fill="#ef7f72"/><path d="m143.213 96.583h-32.665c2.169 0 3.927 4.117 3.927 9.195v91.95c0 5.078-1.758 9.195-3.927 9.195h32.665c5.078 0 9.195-4.117 9.195-9.195v-91.95c0-5.078-4.116-9.195-9.195-9.195z" fill="#e8383b"/><path d="m114.475 197.728v-91.95c0-5.078-1.758-9.195-3.927-9.195h-43.191-4.712-4.712v20.357 80.788c0 5.078 1.758 9.195 3.927 9.195h48.689c2.168 0 3.926-4.116 3.926-9.195z" fill="#e95947"/><path d="m143.213 209.924h-114.018c-6.725 0-12.195-5.471-12.195-12.195v-112.18c0-1.657 1.343-3 3-3s3 1.343 3 3c0 4.43 3.604 8.034 8.034 8.034h112.179c6.725 0 12.195 5.471 12.195 12.195v91.95c0 6.725-5.47 12.196-12.195 12.196zm-120.213-112.874v100.679c0 3.416 2.779 6.195 6.195 6.195h114.018c3.416 0 6.195-2.779 6.195-6.195v-91.95c0-3.416-2.779-6.195-6.195-6.195h-112.179c-2.985-.001-5.757-.938-8.034-2.534z" fill="#1c2d6b"/><path d="m187.705 173.821c0-15.235 3.958-27.585 8.84-27.585-15.235 0-27.585 12.35-27.585 27.585s12.35 27.585 27.585 27.585c-4.882 0-8.84-12.35-8.84-27.585z" fill="#ede49d"/><path d="m196.544 146.236c4.882 0 8.84 12.35 8.84 27.585s-3.958 27.585-8.84 27.585c15.235 0 27.585-12.35 27.585-27.585.001-15.234-12.35-27.585-27.585-27.585z" fill="#d3ba2a"/><ellipse cx="196.544" cy="173.821" fill="#eee045" rx="8.84" ry="27.585"/><path d="m196.545 204.406c-16.865 0-30.586-13.721-30.586-30.585s13.721-30.585 30.586-30.585c16.864 0 30.585 13.721 30.585 30.585s-13.721 30.585-30.585 30.585zm0-55.17c-13.557 0-24.586 11.028-24.586 24.585s11.029 24.585 24.586 24.585 24.585-11.028 24.585-24.585-11.028-24.585-24.585-24.585z" fill="#1c2d6b"/><path d="m214.066 176.821c-1.657 0-3-1.343-3-3 0-8.007-6.515-14.521-14.521-14.521-1.657 0-3-1.343-3-3s1.343-3 3-3c11.315 0 20.521 9.206 20.521 20.521 0 1.658-1.342 3-3 3z" fill="#1c2d6b"/><path d="m196.545 194.344c-11.316 0-20.522-9.206-20.522-20.522 0-1.657 1.343-3 3-3s3 1.343 3 3c0 8.008 6.515 14.522 14.522 14.522 1.657 0 3 1.343 3 3s-1.343 3-3 3z" fill="#1c2d6b"/><path d="m102.69 140.719h33.167v82.755h-33.167z" fill="#4b67b0"/><path d="m36.551 140.719h33.167v82.755h-33.167z" fill="#89aadb"/><path d="m69.718 140.719h32.973v82.755h-32.973z" fill="#6287c5"/><g fill="#1c2d6b"><path d="m135.857 226.475h-99.306c-1.657 0-3-1.343-3-3v-82.755c0-1.657 1.343-3 3-3h99.307c1.657 0 3 1.343 3 3v82.755c-.001 1.657-1.343 3-3.001 3zm-96.306-6h93.307v-76.755h-93.307z"/><path d="m117.467 160.271h-64.364c-1.657 0-3-1.343-3-3s1.343-3 3-3h64.364c1.657 0 3 1.343 3 3s-1.343 3-3 3z"/><path d="m117.467 176.821h-64.364c-1.657 0-3-1.343-3-3s1.343-3 3-3h64.364c1.657 0 3 1.343 3 3s-1.343 3-3 3z"/><path d="m117.467 193.372h-64.364c-1.657 0-3-1.343-3-3s1.343-3 3-3h64.364c1.657 0 3 1.343 3 3s-1.343 3-3 3z"/><path d="m117.467 209.924h-64.364c-1.657 0-3-1.343-3-3s1.343-3 3-3h64.364c1.657 0 3 1.343 3 3s-1.343 3-3 3z"/></g></svg>