<svg id="Layer_1" enable-background="new 0 0 256 256" height="512" viewBox="0 0 256 256" width="512" xmlns="http://www.w3.org/2000/svg"><path d="m110 33h30v161.999h-30z" fill="#a4d4a0"/><path d="m176 33h30v161.999h-30z" fill="#419b46"/><path d="m140 33h36v161.999h-36z" fill="#65bc49"/><path d="m206 197.999h-96c-1.657 0-3-1.343-3-3v-161.999c0-1.657 1.343-3 3-3h96c1.657 0 3 1.343 3 3v161.999c0 1.656-1.343 3-3 3zm-93-6h90v-155.999h-90z" fill="#1c2d6b"/><path d="m146 170.674v-113.349c3.493 0 6.325-2.832 6.325-6.325h-14.325c0 5.523-4.477 10-10 10v105.999c5.523 0 10 4.477 10 10h14.325c0-3.493-2.832-6.325-6.325-6.325z" fill="#ede49d"/><path d="m178 51h-14.325c0 3.493 2.832 6.325 6.325 6.325v113.35c-3.493 0-6.325 2.832-6.325 6.325h14.325c0-5.523 4.477-10 10-10v-106c-5.523 0-10-4.477-10-10z" fill="#d3ba2a"/><path d="m170 170.674v-113.349c-3.493 0-6.325-2.832-6.325-6.325h-11.351c0 3.493-2.832 6.325-6.325 6.325v113.35c3.493 0 6.325 2.832 6.325 6.325h11.351c0-3.494 2.832-6.326 6.325-6.326z" fill="#eee045"/><path d="m178 179.999h-40c-1.657 0-3-1.343-3-3 0-3.86-3.141-7-7-7-1.657 0-3-1.343-3-3v-105.999c0-1.657 1.343-3 3-3 3.859 0 7-3.14 7-7 0-1.657 1.343-3 3-3h40c1.657 0 3 1.343 3 3 0 3.86 3.141 7 7 7 1.657 0 3 1.343 3 3v105.999c0 1.657-1.343 3-3 3-3.859 0-7 3.14-7 7 0 1.656-1.343 3-3 3zm-37.35-6h34.699c1.129-4.764 4.887-8.521 9.65-9.651v-100.697c-4.764-1.129-8.521-4.887-9.65-9.651h-34.699c-1.129 4.764-4.887 8.521-9.65 9.651v100.697c4.764 1.129 8.521 4.887 9.65 9.651z" fill="#1c2d6b"/><path d="m80 188.82v-77.64c0-3.413 2.767-6.179 6.179-6.179h-38.301c-5.456 0-9.878 4.423-9.878 9.878v70.242c0 5.456 4.423 9.878 9.878 9.878h38.301c-3.412 0-6.179-2.767-6.179-6.179z" fill="#89aadb"/><path d="m166.122 105h-38.301c3.413 0 6.179 2.767 6.179 6.179v77.64c0 3.413-2.767 6.179-6.179 6.179h38.301c5.456 0 9.878-4.423 9.878-9.878v-70.242c0-5.455-4.423-9.878-9.878-9.878z" fill="#4b67b0"/><path d="m134 188.82v-77.64c0-3.413-2.767-6.179-6.179-6.179h-41.642c-3.413 0-6.179 2.767-6.179 6.179v77.64c0 3.413 2.767 6.179 6.179 6.179h41.642c3.412 0 6.179-2.767 6.179-6.179z" fill="#6287c5"/><path d="m166.122 197.999h-118.244c-7.101 0-12.878-5.777-12.878-12.878v-70.243c0-7.101 5.777-12.878 12.878-12.878h118.244c7.101 0 12.878 5.777 12.878 12.878v70.243c0 7.101-5.777 12.878-12.878 12.878zm-118.244-89.999c-3.792 0-6.878 3.085-6.878 6.878v70.243c0 3.792 3.085 6.878 6.878 6.878h118.244c3.793 0 6.878-3.085 6.878-6.878v-70.243c0-3.792-3.085-6.878-6.878-6.878z" fill="#1c2d6b"/><path d="m66.28 138.195v-18.39c0-1.549 1.256-2.805 2.805-2.805h-8.085c-2.761 0-5 2.239-5 5v14c0 2.761 2.239 5 5 5h8.084c-1.549 0-2.804-1.256-2.804-2.805z" fill="#ef7f72"/><path d="m81 117h-8.084c1.549 0 2.805 1.256 2.805 2.805v18.39c0 1.549-1.256 2.805-2.805 2.805h8.084c2.761 0 5-2.239 5-5v-14c0-2.761-2.239-5-5-5z" fill="#e8383b"/><path d="m75.72 138.195v-18.39c0-1.549-1.256-2.805-2.805-2.805h-3.831c-1.549 0-2.805 1.256-2.805 2.805v18.39c0 1.549 1.256 2.805 2.805 2.805h3.831c1.55 0 2.805-1.256 2.805-2.805z" fill="#e95947"/><path d="m81 144h-20c-4.411 0-8-3.589-8-8v-14c0-4.411 3.589-8 8-8h20c4.411 0 8 3.589 8 8v14c0 4.411-3.589 8-8 8zm-20-24c-1.103 0-2 .897-2 2v14c0 1.103.897 2 2 2h20c1.103 0 2-.897 2-2v-14c0-1.103-.897-2-2-2z" fill="#1c2d6b"/><path d="m86 174h-30c-1.657 0-3-1.343-3-3s1.343-3 3-3h30c1.657 0 3 1.343 3 3s-1.343 3-3 3z" fill="#1c2d6b"/><path d="m128 174h-30c-1.657 0-3-1.343-3-3s1.343-3 3-3h30c1.657 0 3 1.343 3 3s-1.343 3-3 3z" fill="#1c2d6b"/><path d="m170 174h-30c-1.657 0-3-1.343-3-3s1.343-3 3-3h30c1.657 0 3 1.343 3 3s-1.343 3-3 3z" fill="#1c2d6b"/><path d="m170 187c0-19.882 5.373-36 12-36-19.882 0-36 16.118-36 36s16.118 36 36 36c-6.627 0-12-16.118-12-36z" fill="#ef7f72"/><path d="m182 151c6.627 0 12 16.118 12 36s-5.373 36-12 36c19.882 0 36-16.118 36-36s-16.118-36-36-36z" fill="#e8383b"/><ellipse cx="182" cy="187" fill="#e95947" rx="12" ry="36"/><g fill="#1c2d6b"><path d="m182 226c-21.505 0-39-17.495-39-39s17.495-39 39-39 39 17.495 39 39-17.495 39-39 39zm0-72c-18.196 0-33 14.804-33 33s14.804 33 33 33 33-14.804 33-33-14.804-33-33-33z"/><path d="m162.521 189.607c-.021 0-.04 0-.061 0-1.657-.033-2.973-1.403-2.939-3.06.19-9.543 6.418-17.947 15.496-20.914 10.486-3.428 22.123 1.414 27.065 11.262.743 1.481.145 3.284-1.336 4.027-1.48.744-3.284.145-4.027-1.335-3.62-7.217-12.15-10.762-19.839-8.25-6.655 2.175-11.221 8.335-11.361 15.331-.032 1.635-1.369 2.939-2.998 2.939z"/><path d="m162.501 189.559c-.976 0-1.933-.476-2.509-1.352l-5.775-8.779c-.911-1.384-.527-3.245.857-4.155 1.386-.91 3.244-.526 4.154.857l4.127 6.273 6.273-4.126c1.385-.91 3.244-.526 4.154.857.911 1.384.527 3.245-.857 4.155l-8.779 5.775c-.507.334-1.08.495-1.645.495z"/><path d="m182.053 209.463c-8.318 0-16.3-4.643-20.172-12.359-.743-1.481-.145-3.284 1.336-4.027 1.479-.744 3.284-.145 4.027 1.335 3.621 7.217 12.151 10.763 19.839 8.25 6.655-2.175 11.221-8.335 11.362-15.331.033-1.656 1.409-2.958 3.06-2.939 1.656.034 2.973 1.403 2.938 3.06-.191 9.543-6.42 17.947-15.497 20.913-2.27.743-4.594 1.098-6.893 1.098z"/><path d="m207.244 199.222c-.976 0-1.933-.476-2.509-1.352l-4.127-6.273-6.273 4.126c-1.384.91-3.244.526-4.154-.857-.911-1.384-.527-3.245.857-4.155l8.779-5.775c1.385-.91 3.245-.526 4.154.857l5.775 8.779c.911 1.384.527 3.245-.857 4.155-.507.335-1.079.495-1.645.495z"/></g></svg>