<svg id="Layer_1" enable-background="new 0 0 256 256" height="512" viewBox="0 0 256 256" width="512" xmlns="http://www.w3.org/2000/svg"><path d="m32 104.001h27.54v24.001h-27.54z" fill="#89aadb"/><path d="m88.46 104.001h27.54v24.001h-27.54z" fill="#4b67b0"/><path d="m59.54 104.001h28.919v24.001h-28.919z" fill="#6287c5"/><path d="m116 131.001h-84c-1.657 0-3-1.343-3-3v-24c0-1.657 1.343-3 3-3h84c1.657 0 3 1.343 3 3v24c0 1.657-1.343 3-3 3zm-81-6h78v-18h-78z" fill="#1c2d6b"/><path d="m50 164c-3.314 0-6-2.686-6-6v-18h-12v6c0 9.941 8.059 18 18 18z" fill="#4b67b0"/><path d="m50 164c9.941 0 18-8.059 18-18v-6h-12v18c0 3.314-2.686 6-6 6z" fill="#89aadb"/><path d="m50 164c3.314 0 6-2.686 6-6v-18h-12v18c0 3.314 2.686 6 6 6z" fill="#6287c5"/><path d="m50 167c-11.58 0-21-9.42-21-21v-6c0-1.657 1.343-3 3-3h36c1.657 0 3 1.343 3 3v6c0 11.58-9.42 21-21 21zm-15-24v3c0 8.271 6.729 15 15 15s15-6.729 15-15v-3z" fill="#1c2d6b"/><path d="m98 164c-3.314 0-6-2.686-6-6v-18h-12v6c0 9.941 8.059 18 18 18z" fill="#4b67b0"/><path d="m98 164c9.941 0 18-8.059 18-18v-6h-12v18c0 3.314-2.686 6-6 6z" fill="#89aadb"/><path d="m98 164c3.314 0 6-2.686 6-6v-18h-12v18c0 3.314 2.686 6 6 6z" fill="#6287c5"/><path d="m98 167c-11.58 0-21-9.42-21-21v-6c0-1.657 1.343-3 3-3h36c1.657 0 3 1.343 3 3v6c0 11.58-9.42 21-21 21zm-15-24v3c0 8.271 6.729 15 15 15s15-6.729 15-15v-3z" fill="#1c2d6b"/><path d="m140 104.001h27.54v24.001h-27.54z" fill="#89aadb"/><path d="m196.46 104.001h27.54v24.001h-27.54z" fill="#4b67b0"/><path d="m167.54 104.001h28.919v24.001h-28.919z" fill="#6287c5"/><path d="m224 131.001h-84c-1.657 0-3-1.343-3-3v-24c0-1.657 1.343-3 3-3h84c1.657 0 3 1.343 3 3v24c0 1.657-1.343 3-3 3zm-81-6h78v-18h-78z" fill="#1c2d6b"/><path d="m158 164c-3.314 0-6-2.686-6-6v-18h-12v6c0 9.941 8.059 18 18 18z" fill="#4b67b0"/><path d="m158 164c9.941 0 18-8.059 18-18v-6h-12v18c0 3.314-2.686 6-6 6z" fill="#89aadb"/><path d="m158 164c3.314 0 6-2.686 6-6v-18h-12v18c0 3.314 2.686 6 6 6z" fill="#6287c5"/><path d="m158 167c-11.58 0-21-9.42-21-21v-6c0-1.657 1.343-3 3-3h36c1.657 0 3 1.343 3 3v6c0 11.58-9.42 21-21 21zm-15-24v3c0 8.271 6.729 15 15 15s15-6.729 15-15v-3z" fill="#1c2d6b"/><path d="m206 164c-3.314 0-6-2.686-6-6v-18h-12v6c0 9.941 8.059 18 18 18z" fill="#4b67b0"/><path d="m206 164c9.941 0 18-8.059 18-18v-6h-12v18c0 3.314-2.686 6-6 6z" fill="#89aadb"/><path d="m206 164c3.314 0 6-2.686 6-6v-18h-12v18c0 3.314 2.686 6 6 6z" fill="#6287c5"/><path d="m206 167c-11.58 0-21-9.42-21-21v-6c0-1.657 1.343-3 3-3h36c1.657 0 3 1.343 3 3v6c0 11.58-9.42 21-21 21zm-15-24v3c0 8.271 6.729 15 15 15s15-6.729 15-15v-3z" fill="#1c2d6b"/><path d="m142.46 55.999h27.54v24.001h-27.54z" fill="#89aadb"/><path d="m86 55.999h27.54v24.001h-27.54z" fill="#4b67b0"/><path d="m113.54 55.999h28.919v24.001h-28.919z" fill="#6287c5"/><path d="m170 83h-84c-1.657 0-3-1.343-3-3v-24.001c0-1.657 1.343-3 3-3h84c1.657 0 3 1.343 3 3v24.001c0 1.657-1.343 3-3 3zm-81-6h78v-18.001h-78z" fill="#1c2d6b"/><path d="m128 20.001c3.314 0 6 2.686 6 6v18h12v-6c0-9.942-8.059-18-18-18z" fill="#4b67b0"/><path d="m128 20.001c-9.941 0-18 8.059-18 18v6h12v-18c0-3.314 2.686-6 6-6z" fill="#89aadb"/><path d="m128 20.001c-3.314 0-6 2.686-6 6v18h12v-18c0-3.314-2.686-6-6-6z" fill="#6287c5"/><path d="m146 47h-36c-1.657 0-3-1.343-3-3v-6c0-11.58 9.42-21 21-21s21 9.42 21 21v6c0 1.657-1.343 3-3 3zm-33-6h30v-3c0-8.271-6.729-15-15-15s-15 6.729-15 15z" fill="#1c2d6b"/><path d="m32 176.001h27.54v24h-27.54z" fill="#89aadb"/><path d="m88.46 176.001h27.54v24h-27.54z" fill="#4b67b0"/><path d="m59.54 176.001h28.919v24h-28.919z" fill="#6287c5"/><path d="m116 203.001h-84c-1.657 0-3-1.343-3-3v-24c0-1.657 1.343-3 3-3h84c1.657 0 3 1.343 3 3v24c0 1.657-1.343 3-3 3zm-81-6h78v-18h-78z" fill="#1c2d6b"/><path d="m50 235.999c-3.314 0-6-2.686-6-6v-18h-12v6c0 9.942 8.059 18 18 18z" fill="#4b67b0"/><path d="m50 235.999c9.941 0 18-8.059 18-18v-6h-12v18c0 3.314-2.686 6-6 6z" fill="#89aadb"/><path d="m50 235.999c3.314 0 6-2.686 6-6v-18h-12v18c0 3.314 2.686 6 6 6z" fill="#6287c5"/><path d="m50 239c-11.58 0-21-9.42-21-21v-6c0-1.657 1.343-3 3-3h36c1.657 0 3 1.343 3 3v6c0 11.579-9.42 21-21 21zm-15-24v3c0 8.271 6.729 15 15 15s15-6.729 15-15v-3z" fill="#1c2d6b"/><path d="m98 235.999c-3.314 0-6-2.686-6-6v-18h-12v6c0 9.942 8.059 18 18 18z" fill="#4b67b0"/><path d="m98 235.999c9.941 0 18-8.059 18-18v-6h-12v18c0 3.314-2.686 6-6 6z" fill="#89aadb"/><path d="m98 235.999c3.314 0 6-2.686 6-6v-18h-12v18c0 3.314 2.686 6 6 6z" fill="#6287c5"/><path d="m98 239c-11.58 0-21-9.42-21-21v-6c0-1.657 1.343-3 3-3h36c1.657 0 3 1.343 3 3v6c0 11.579-9.42 21-21 21zm-15-24v3c0 8.271 6.729 15 15 15s15-6.729 15-15v-3z" fill="#1c2d6b"/><path d="m140 176.001h27.54v24h-27.54z" fill="#89aadb"/><path d="m196.46 176.001h27.54v24h-27.54z" fill="#4b67b0"/><path d="m167.54 176.001h28.919v24h-28.919z" fill="#6287c5"/><path d="m224 203.001h-84c-1.657 0-3-1.343-3-3v-24c0-1.657 1.343-3 3-3h84c1.657 0 3 1.343 3 3v24c0 1.657-1.343 3-3 3zm-81-6h78v-18h-78z" fill="#1c2d6b"/><path d="m158 235.999c-3.314 0-6-2.686-6-6v-18h-12v6c0 9.942 8.059 18 18 18z" fill="#4b67b0"/><path d="m158 235.999c9.941 0 18-8.059 18-18v-6h-12v18c0 3.314-2.686 6-6 6z" fill="#89aadb"/><path d="m158 235.999c3.314 0 6-2.686 6-6v-18h-12v18c0 3.314 2.686 6 6 6z" fill="#6287c5"/><path d="m158 239c-11.58 0-21-9.42-21-21v-6c0-1.657 1.343-3 3-3h36c1.657 0 3 1.343 3 3v6c0 11.579-9.42 21-21 21zm-15-24v3c0 8.271 6.729 15 15 15s15-6.729 15-15v-3z" fill="#1c2d6b"/><path d="m206 235.999c-3.314 0-6-2.686-6-6v-18h-12v6c0 9.942 8.059 18 18 18z" fill="#4b67b0"/><path d="m206 235.999c9.941 0 18-8.059 18-18v-6h-12v18c0 3.314-2.686 6-6 6z" fill="#89aadb"/><path d="m206 235.999c3.314 0 6-2.686 6-6v-18h-12v18c0 3.314 2.686 6 6 6z" fill="#6287c5"/><path d="m206 239c-11.58 0-21-9.42-21-21v-6c0-1.657 1.343-3 3-3h36c1.657 0 3 1.343 3 3v6c0 11.579-9.42 21-21 21zm-15-24v3c0 8.271 6.729 15 15 15s15-6.729 15-15v-3z" fill="#1c2d6b"/></svg>