<svg id="Layer_1" enable-background="new 0 0 256 256" height="512" viewBox="0 0 256 256" width="512" xmlns="http://www.w3.org/2000/svg"><path d="m48.931 88.492 8.575-31.987h-14.247l-12.364 31.987c-6.332 16.381 5.756 34.013 23.319 34.013h10.889c-12.18 0-20.564-17.632-16.172-34.013z" fill="#a4d4a0"/><path d="m148.601 88.492-12.364-31.987h-14.247l8.575 31.987c4.391 16.381-3.992 34.013-16.173 34.013h10.889c17.564 0 29.652-17.632 23.32-34.013z" fill="#419b46"/><path d="m130.566 88.492-8.575-31.987h-32.243-32.242l-8.575 31.987c-4.391 16.381 3.992 34.013 16.173 34.013h24.645 24.645c12.179 0 20.563-17.632 16.172-34.013z" fill="#65bc49"/><path d="m125.282 125.505h-71.068c-9.237 0-17.871-4.549-23.094-12.167-5.224-7.619-6.354-17.312-3.022-25.927l12.363-31.987c.446-1.156 1.559-1.918 2.798-1.918h92.979c1.239 0 2.352.762 2.798 1.918l12.364 31.987c3.33 8.616 2.2 18.309-3.023 25.928-5.225 7.618-13.857 12.166-23.095 12.166zm-79.967-66-11.622 30.068c-2.655 6.871-1.79 14.296 2.375 20.372s10.779 9.56 18.146 9.56h71.068c7.366 0 13.979-3.484 18.146-9.56 4.165-6.076 5.031-13.5 2.376-20.372l-11.623-30.068z" fill="#1c2d6b"/><path d="m89.748 104.505c-33.137 0-60 26.863-60 60v48h36v-84c0-13.255 10.745-24 24-24z" fill="#89aadb"/><path d="m89.748 104.505c13.255 0 24 10.745 24 24v84h36v-48c0-33.137-26.863-60-60-60z" fill="#4b67b0"/><path d="m89.748 104.505c-13.255 0-24 10.745-24 24v84h48v-84c0-13.255-10.745-24-24-24z" fill="#6287c5"/><path d="m149.748 215.505h-120c-1.657 0-3-1.343-3-3v-48c0-34.738 28.262-63 63-63s63 28.262 63 63v48c0 1.657-1.343 3-3 3zm-117-6h114v-45c0-31.43-25.57-57-57-57s-57 25.57-57 57z" fill="#1c2d6b"/><path d="m71.748 113.002 18 33.503-5.6-33.503z" fill="#ede49d"/><path d="m95.348 113.002-5.6 33.503 18-33.503z" fill="#d3ba2a"/><path d="m84.148 113.002 5.6 33.503 5.6-33.503z" fill="#eee045"/><path d="m89.748 149.505c-1.104 0-2.12-.607-2.643-1.58l-18-33.502c-.784-1.459-.237-3.278 1.223-4.062 1.462-.784 3.279-.236 4.062 1.223l15.357 28.584 15.357-28.584c.783-1.46 2.601-2.008 4.062-1.223 1.46.784 2.007 2.603 1.223 4.062l-18 33.502c-.521.973-1.536 1.58-2.641 1.58z" fill="#1c2d6b"/><path d="m89.748 215.505c-1.657 0-3-1.343-3-3v-66c0-1.657 1.343-3 3-3s3 1.343 3 3v66c0 1.657-1.343 3-3 3z" fill="#1c2d6b"/><path d="m65.748 215.505c-1.657 0-3-1.343-3-3v-16.757l-.394-.394c-7.484-7.486-11.606-17.438-11.606-28.022v-16.856c0-1.657 1.343-3 3-3s3 1.343 3 3v16.856c0 8.982 3.498 17.427 9.849 23.78l1.272 1.272c.562.562.879 1.326.879 2.121v18c0 1.657-1.343 3-3 3z" fill="#1c2d6b"/><path d="m113.783 215.505c-1.657 0-3-1.343-3-3v-18c0-.795.316-1.559.879-2.121l1.272-1.272c6.351-6.353 9.849-14.798 9.849-23.78v-16.856c0-1.657 1.343-3 3-3s3 1.343 3 3v16.856c0 10.584-4.122 20.536-11.606 28.022l-.394.394v16.757c0 1.657-1.343 3-3 3z" fill="#1c2d6b"/><path d="m73.748 68.505c0-26.51 7.163-48 16-48-26.51 0-48 21.49-48 48s21.49 48 48 48c-8.836 0-16-21.49-16-48z" fill="#ede49d"/><path d="m89.748 20.505c8.837 0 16 21.49 16 48s-7.163 48-16 48c26.51 0 48-21.49 48-48s-21.49-48-48-48z" fill="#d3ba2a"/><ellipse cx="89.748" cy="68.505" fill="#eee045" rx="16" ry="48"/><circle cx="73.748" cy="72.446" fill="#1c2d6b" r="3.941"/><circle cx="105.748" cy="72.446" fill="#1c2d6b" r="3.941"/><path d="m89.748 87.505c-3.912 0-7.562-2.104-9.523-5.493-.831-1.434-.342-3.269 1.092-4.1 1.435-.831 3.271-.341 4.1 1.093.894 1.542 2.553 2.5 4.332 2.5s3.438-.958 4.332-2.5c.829-1.434 2.664-1.923 4.1-1.093 1.434.831 1.923 2.666 1.092 4.1-1.963 3.388-5.613 5.493-9.525 5.493z" fill="#1c2d6b"/><path d="m89.748 20.505c-26.51 0-48 21.49-48 48 12.576 0 24.017-4.843 32.576-12.757 1.863-20.315 8.061-35.243 15.424-35.243z" fill="#a4d4a0"/><path d="m105.172 55.748c8.558 7.915 20 12.757 32.576 12.757 0-26.51-21.49-48-48-48 7.364 0 13.561 14.928 15.424 35.243z" fill="#419b46"/><path d="m89.748 20.505c0 13.933 5.942 26.474 15.424 35.243-1.863-20.315-8.06-35.243-15.424-35.243s-13.561 14.928-15.424 35.243c9.482-8.769 15.424-21.31 15.424-35.243z" fill="#65bc49"/><g fill="#1c2d6b"><path d="m137.748 71.505c-22.073 0-40.915-14.094-48-33.756-7.085 19.662-25.927 33.756-48 33.756-1.657 0-3-1.343-3-3 0-28.122 22.879-51 51-51s51 22.878 51 51c0 1.657-1.343 3-3 3zm-44.894-47.894c1.529 22.345 19.443 40.258 41.787 41.788-1.529-22.345-19.443-40.258-41.787-41.788zm-6.212 0c-22.344 1.53-40.258 19.443-41.787 41.788 22.343-1.53 40.257-19.443 41.787-41.788z"/><path d="m89.748 119.505c-28.121 0-51-22.878-51-51s22.879-51 51-51 51 22.878 51 51-22.879 51-51 51zm0-96c-24.813 0-45 20.187-45 45s20.187 45 45 45 45-20.187 45-45-20.186-45-45-45z"/><circle cx="101.748" cy="188.505" r="3.941"/><circle cx="101.748" cy="202.505" r="3.941"/><path d="m89.748 179.505c-.768 0-1.535-.293-2.121-.879l-24-24c-1.172-1.171-1.172-3.071 0-4.242l4.346-4.347-16.8-28.099c-.85-1.422-.387-3.264 1.036-4.114 1.42-.851 3.264-.387 4.114 1.035l18 30.106c.705 1.18.519 2.688-.454 3.661l-3.879 3.879 21.879 21.879c1.172 1.171 1.172 3.071 0 4.242-.586.586-1.353.879-2.121.879z"/><path d="m89.748 179.505c-.768 0-1.535-.293-2.121-.879-1.172-1.171-1.172-3.071 0-4.242l21.879-21.879-3.879-3.879c-.973-.972-1.159-2.48-.454-3.661l18-30.106c.852-1.421 2.694-1.886 4.114-1.035 1.423.85 1.886 2.692 1.036 4.114l-16.8 28.099 4.346 4.347c1.172 1.171 1.172 3.071 0 4.242l-24 24c-.586.586-1.353.879-2.121.879z"/><path d="m89.748 101.505h-28c-12.683 0-23-10.318-23-23v-10c0-1.657 1.343-3 3-3s3 1.343 3 3v10c0 9.374 7.626 17 17 17h28c1.657 0 3 1.343 3 3s-1.343 3-3 3z"/><path d="m89.748 101.505h-12.059c-1.657 0-3-1.343-3-3 0-4.962 4.037-9 9-9 5.021 0 9.059 4.038 9.059 9 0 1.657-1.343 3-3 3zm-6-6h.01z"/></g><path d="m194.943 235.495-18.82-32.6c3.009-.101 5.921-.578 8.7-1.372l13.129 22.74z" fill="#a4d4a0"/><path d="m198.673 193.965 17.05 29.53-11.23-3.008-12.603-21.829c2.441-1.307 4.719-2.881 6.783-4.693z" fill="#419b46"/><path d="m195.923 220.018v.002-.001z" fill="#419b46"/><path d="m184.822 201.523c1.241-.355 2.457-.769 3.639-1.249.741-.301 1.468-.631 2.183-.979.42-.204.834-.416 1.245-.636l12.603 21.829-5.159-1.382-.001-.001v.001h-.001l-1.382 5.158z" fill="#65bc49"/><path d="m154.883 235.29 18.82-32.6c-3.009-.101-5.921-.578-8.7-1.372l-13.129 22.74z" fill="#419b46"/><path d="m151.153 193.76-17.05 29.53 11.23-3.008 12.603-21.829c-2.441-1.308-4.719-2.881-6.783-4.693z" fill="#a4d4a0"/><path d="m153.903 219.813v.001z" fill="#419b46"/><path d="m165.003 201.317c-1.241-.355-2.457-.769-3.639-1.249-.741-.301-1.468-.631-2.183-.979-.42-.204-.834-.416-1.245-.636l-12.603 21.829 5.159-1.382.001-.001v.001h.001l1.382 5.158z" fill="#65bc49"/><path d="m194.942 238.29c-1.062 0-2.057-.564-2.597-1.5l-18.82-32.6c-.527-.913-.537-2.035-.025-2.956s1.469-1.507 2.522-1.542c7.608-.255 14.949-3.163 20.671-8.186.676-.593 1.577-.853 2.468-.706.886.146 1.66.682 2.109 1.46l17.05 29.53c.607 1.051.521 2.363-.218 3.326-.737.963-1.979 1.387-3.156 1.072l-13.491-3.614-3.614 13.492c-.313 1.172-1.303 2.04-2.506 2.198-.131.017-.263.026-.393.026zm-13.893-33.068 12.871 22.294 2.516-9.393c.205-.769.708-1.424 1.397-1.822.688-.397 1.506-.505 2.276-.3l9.395 2.517-11.687-20.241c-4.963 3.596-10.724 5.978-16.768 6.945z" fill="#1c2d6b"/><path d="m154.884 238.29c-.13 0-.262-.008-.393-.026-1.203-.158-2.192-1.026-2.506-2.198l-3.614-13.492-13.492 3.614c-1.176.314-2.418-.109-3.156-1.072-.739-.963-.825-2.275-.218-3.326l17.051-29.53c.449-.778 1.224-1.314 2.109-1.46.889-.147 1.792.112 2.468.706 5.722 5.023 13.062 7.93 20.671 8.186 1.054.036 2.011.621 2.522 1.542s.502 2.043-.025 2.956l-18.82 32.6c-.541.936-1.536 1.5-2.597 1.5zm-4.391-22.391c.522 0 1.04.136 1.5.402.689.398 1.192 1.053 1.397 1.822l2.516 9.393 12.871-22.294c-6.044-.967-11.805-3.35-16.769-6.945l-11.687 20.241 9.395-2.517c.257-.068.517-.102.777-.102z" fill="#1c2d6b"/><path d="m167.718 125.304c1.461 3.745 4.118 2.078 4.584-2.876.308-3.275 1.459-4.913 2.611-4.913-2.696 0-5.391 1.638-6.113 4.913-.22.997-.654 1.854-1.225 2.568.047.106.098.191.143.308z" fill="#e95947"/><path d="m172.302 210.986c-.466-4.954-3.123-6.621-4.584-2.876v.001c-.045.117-.095.202-.143.308.571.714 1.005 1.57 1.225 2.568.721 3.275 3.417 4.913 6.113 4.913-1.151-.001-2.303-1.639-2.611-4.914z" fill="#e95947"/><path d="m163.196 201.998c.655-4.836-1.291-9.39-3.356-7.858-2.731 2.026-4.726-6.063-2.611-10.587 1.599-3.421.887-9.642-1.228-10.733-2.798-1.442-2.798-10.783 0-12.225 2.116-1.091 2.828-7.312 1.228-10.733-2.115-4.525-.12-12.613 2.611-10.587 2.065 1.532 4.01-3.022 3.356-7.857-.203-1.501-.162-2.9.036-4.108-1.825.167-3.738-.442-5.165-2.004-4.524-4.952-12.613-.282-10.587 6.113 1.532 4.835-3.022 9.389-7.857 7.857h-.001c-6.394-2.026-11.064 6.063-6.113 10.587 3.745 3.421 2.078 9.642-2.876 10.733-6.551 1.442-6.551 10.783 0 12.225 4.954 1.091 6.62 7.312 2.876 10.733-4.952 4.525-.282 12.613 6.113 10.587 4.835-1.532 9.389 3.022 7.857 7.857v.001c-2.026 6.394 6.063 11.064 10.587 6.112v-.001c1.427-1.561 3.339-2.17 5.165-2.004-.197-1.209-.238-2.607-.035-4.108z" fill="#ef7f72"/><path d="m177.524 122.428c.466 4.954 3.123 6.621 4.584 2.876v-.001c.045-.117.095-.202.143-.308-.571-.714-1.005-1.57-1.225-2.568-.721-3.275-3.417-4.913-6.113-4.913 1.151.001 2.303 1.639 2.611 4.914z" fill="#e95947"/><path d="m219.192 160.595c-4.954-1.091-6.621-7.312-2.876-10.733 4.952-4.525.282-12.613-6.113-10.587-4.835 1.532-9.389-3.022-7.857-7.857v-.001c2.026-6.394-6.063-11.064-10.587-6.112v.001c-1.427 1.562-3.339 2.17-5.165 2.004.197 1.209.239 2.607.036 4.108v.001c-.655 4.835 1.291 9.389 3.356 7.857 2.731-2.026 4.726 6.063 2.611 10.587-1.599 3.421-.887 9.642 1.228 10.733 2.798 1.442 2.798 10.783 0 12.225-2.116 1.091-2.828 7.312-1.228 10.733 2.115 4.524.12 12.613-2.611 10.587-2.065-1.532-4.01 3.022-3.356 7.857v.001c.203 1.501.162 2.899-.036 4.108 1.825-.167 3.738.442 5.165 2.004 4.524 4.952 12.613.282 10.587-6.113v-.001c-1.532-4.835 3.022-9.389 7.857-7.857 6.394 2.026 11.064-6.063 6.112-10.587-3.745-3.421-2.078-9.642 2.876-10.733 6.552-1.443 6.552-10.783.001-12.225z" fill="#e8383b"/><path d="m182.108 208.11c-1.461-3.745-4.118-2.078-4.584 2.876-.308 3.275-1.459 4.913-2.611 4.913 2.696 0 5.391-1.638 6.113-4.913.22-.997.654-1.854 1.225-2.568-.047-.105-.098-.191-.143-.308z" fill="#e95947"/><path d="m186.63 201.998c-.655-4.836 1.291-9.39 3.356-7.858 2.731 2.026 4.726-6.063 2.611-10.587-1.599-3.421-.887-9.642 1.228-10.733 2.798-1.442 2.798-10.783 0-12.225-2.116-1.091-2.828-7.312-1.228-10.733 2.115-4.525.12-12.613-2.611-10.587-2.065 1.532-4.01-3.022-3.356-7.857v-.001c.203-1.501.162-2.899-.036-4.108-1.671-.152-3.261-.96-4.344-2.312-.047.106-.097.191-.143.308v.001c-1.461 3.745-4.118 2.078-4.584-2.876-.308-3.275-1.459-4.913-2.611-4.913s-2.303 1.638-2.611 4.913c-.466 4.954-3.123 6.621-4.584 2.876-.046-.117-.096-.202-.143-.308-1.082 1.352-2.673 2.16-4.343 2.312-.197 1.209-.239 2.607-.036 4.108.654 4.835-1.291 9.389-3.356 7.857-2.731-2.026-4.726 6.063-2.611 10.587 1.599 3.421.887 9.642-1.228 10.733-2.798 1.442-2.798 10.783 0 12.225 2.116 1.091 2.828 7.312 1.228 10.733-2.115 4.525-.12 12.613 2.611 10.587 2.065-1.532 4.01 3.022 3.356 7.857v.001c-.203 1.501-.162 2.899.036 4.108 1.671.152 3.261.96 4.344 2.312.047-.106.097-.191.143-.308v-.001c1.461-3.745 4.118-2.078 4.584 2.876.308 3.275 1.459 4.913 2.611 4.913s2.303-1.638 2.611-4.913c.466-4.954 3.123-6.62 4.584-2.876.046.117.096.202.143.308 1.082-1.353 2.673-2.16 4.343-2.312.197-1.208.239-2.606.036-4.107z" fill="#e95947"/><path d="m174.913 133.615c6.627 0 12 14.816 12 33.092s-5.373 33.092-12 33.092c18.276 0 33.092-14.816 33.092-33.092s-14.816-33.092-33.092-33.092z" fill="#d3ba2a"/><path d="m162.913 166.707c0-18.276 5.373-33.092 12-33.092-18.276 0-33.092 14.816-33.092 33.092s14.816 33.092 33.092 33.092c-6.627 0-12-14.816-12-33.092z" fill="#ede49d"/><ellipse cx="174.913" cy="166.707" fill="#eee045" rx="12" ry="33.092"/><path d="m174.913 202.799c-19.901 0-36.093-16.191-36.093-36.092s16.191-36.092 36.093-36.092 36.092 16.191 36.092 36.092-16.191 36.092-36.092 36.092zm0-66.184c-16.593 0-30.093 13.5-30.093 30.092s13.5 30.092 30.093 30.092 30.092-13.5 30.092-30.092-13.499-30.092-30.092-30.092z" fill="#1c2d6b"/><path d="m174.913 218.899c-4.451 0-8.085-2.92-9.042-7.268-.267-1.211-1.142-2.126-2.34-2.447-1.195-.32-2.412.034-3.249.949-3.004 3.288-7.612 4-11.466 1.773-3.855-2.226-5.541-6.572-4.196-10.815.374-1.183.074-2.413-.803-3.29-.876-.877-2.107-1.176-3.289-.802-4.243 1.344-8.591-.342-10.815-4.197-2.226-3.855-1.513-8.462 1.773-11.465.916-.837 1.271-2.052.95-3.25s-1.236-2.072-2.448-2.339c-4.347-.958-7.268-4.591-7.268-9.043 0-4.451 2.921-8.084 7.268-9.042 1.212-.267 2.127-1.142 2.448-2.34.32-1.198-.034-2.413-.95-3.249-3.286-3.003-3.999-7.61-1.773-11.465 2.225-3.855 6.574-5.541 10.815-4.197 1.18.374 2.412.075 3.289-.802s1.177-2.106.803-3.289c-1.346-4.244.342-8.59 4.196-10.816 3.854-2.227 8.463-1.514 11.465 1.773.836.916 2.049 1.271 3.251.95 1.197-.321 2.072-1.236 2.339-2.447.957-4.347 4.591-7.268 9.042-7.268s8.085 2.921 9.042 7.268c.267 1.211 1.142 2.126 2.339 2.447 1.199.321 2.414-.034 3.25-.95 3.004-3.286 7.61-4 11.466-1.773 3.855 2.226 5.541 6.572 4.196 10.815-.374 1.183-.074 2.413.803 3.29.877.876 2.107 1.177 3.288.802 4.248-1.344 8.593.343 10.816 4.197 2.226 3.855 1.513 8.462-1.773 11.464-.916.837-1.271 2.052-.95 3.25s1.236 2.072 2.447 2.339c4.348.958 7.269 4.591 7.269 9.042s-2.921 8.085-7.268 9.042c-1.212.267-2.127 1.142-2.448 2.339-.32 1.198.034 2.413.95 3.249 3.286 3.003 3.999 7.61 1.773 11.465s-6.572 5.541-10.815 4.197c-1.181-.375-2.413-.075-3.289.802-.878.877-1.178 2.107-.803 3.29 1.345 4.243-.343 8.59-4.197 10.815-3.856 2.225-8.463 1.513-11.465-1.773-.836-.916-2.051-1.27-3.25-.95-1.197.321-2.072 1.236-2.339 2.447-.957 4.351-4.591 7.272-9.042 7.272zm-12.239-15.829c.802 0 1.611.104 2.411.318 3.353.898 5.899 3.562 6.646 6.952.415 1.886 1.916 2.558 3.183 2.558s2.768-.672 3.183-2.558c.746-3.39 3.293-6.054 6.646-6.953 3.354-.9 6.89.135 9.232 2.697 1.302 1.427 2.938 1.257 4.035.625 1.097-.633 2.062-1.966 1.478-3.807-1.048-3.309-.175-6.89 2.28-9.345 2.454-2.455 6.032-3.329 9.343-2.279 1.842.583 3.175-.381 3.808-1.478.633-1.096.802-2.732-.624-4.035-2.563-2.342-3.597-5.879-2.698-9.232.898-3.353 3.562-5.899 6.952-6.646 1.887-.416 2.559-1.917 2.559-3.183s-.672-2.767-2.559-3.183c-3.39-.747-6.055-3.293-6.952-6.646-.898-3.353.136-6.89 2.698-9.231 1.426-1.303 1.258-2.939.624-4.036-.633-1.097-1.965-2.062-3.807-1.477-3.309 1.049-6.889.176-9.345-2.279-2.454-2.455-3.327-6.035-2.278-9.344.583-1.841-.381-3.174-1.478-3.807-1.096-.632-2.734-.803-4.036.625-2.342 2.563-5.879 3.595-9.232 2.698-3.353-.898-5.899-3.562-6.646-6.953-.415-1.886-1.916-2.558-3.183-2.558s-2.768.672-3.183 2.558c-.746 3.39-3.293 6.054-6.646 6.952-3.351.899-6.89-.135-9.231-2.698-1.303-1.426-2.941-1.256-4.036-.625-1.097.633-2.061 1.966-1.478 3.807 1.049 3.31.176 6.891-2.279 9.345s-6.033 3.328-9.343 2.279c-1.844-.585-3.175.38-3.808 1.478-.633 1.096-.802 2.732.624 4.035 2.563 2.342 3.597 5.879 2.698 9.233-.898 3.353-3.562 5.899-6.953 6.645-1.886.416-2.558 1.917-2.558 3.183s.672 2.768 2.559 3.183c3.39.747 6.055 3.293 6.952 6.646.898 3.353-.136 6.89-2.698 9.231-1.426 1.303-1.258 2.939-.624 4.036.633 1.097 1.967 2.061 3.807 1.477 3.311-1.048 6.89-.175 9.345 2.279 2.454 2.455 3.327 6.035 2.278 9.344-.583 1.841.381 3.174 1.478 3.808 1.095.632 2.731.802 4.035-.624 1.782-1.95 4.259-3.015 6.821-3.015zm56.518-30.25h.01z" fill="#1c2d6b"/><path d="m220.314 131.145-4.219-4.679-42.085 37.941-10.082-10.363-4 4.136 13.574 14.315z" fill="#89aadb"/><path d="m222.993 134.115-48.284 42.657c-.38.337-.854.504-1.326.504-.531 0-1.06-.21-1.452-.624l-14.786-15.594-4.339 4.487 20.824 20.752 53.181-47.949z" fill="#4b67b0"/><path d="m173.383 177.275c.473 0 .946-.167 1.326-.504l48.284-42.657-2.678-2.97-46.812 41.35-13.574-14.315-2.783 2.878 14.786 15.594c.391.415.92.624 1.451.624z" fill="#6287c5"/><path d="m173.629 189.297c-.768 0-1.534-.293-2.118-.875l-20.823-20.752c-1.161-1.157-1.178-3.032-.038-4.21l11.123-11.501c.564-.583 1.341-.914 2.152-.915h.004c.81 0 1.586.328 2.15.908l8.067 8.293 39.939-36.008c1.23-1.109 3.129-1.011 4.236.219l10.715 11.882c.533.591.81 1.37.769 2.164-.041.795-.396 1.541-.987 2.073l-53.181 47.95c-.572.516-1.29.772-2.008.772zm-16.612-23.791 16.716 16.659 48.84-44.036-6.696-7.426-39.857 35.933c-1.198 1.08-3.035 1.019-4.159-.136l-7.925-8.146z" fill="#1c2d6b"/></svg>