<svg id="Layer_1" enable-background="new 0 0 256 256" height="512" viewBox="0 0 256 256" width="512" xmlns="http://www.w3.org/2000/svg"><path d="m103.39 77h-39.582c-4.589 0-8.589 3.123-9.701 7.575l-18.883 75.532c-.905 3.622 3.534 6.135 6.174 3.496 1.438-1.438 3.768-1.438 5.206 0l6.794 6.794c1.438 1.438 3.768 1.438 5.206 0l6.794-6.794c1.438-1.438 3.768-1.438 5.206 0l6.794 6.794c1.438 1.438 3.768 1.438 5.206 0l6.794-6.794c.639-.639 1.455-.977 2.289-1.048l7.984-77.98c.426-4.452 1.96-7.575 3.719-7.575z" fill="#89aadb"/><path d="m220.777 160.107-18.883-75.532c-1.113-4.452-5.113-7.575-9.701-7.575h-39.583c1.759 0 3.293 3.123 3.719 7.575l7.823 77.965c.89.037 1.77.384 2.45 1.063l6.794 6.794c1.438 1.438 3.768 1.438 5.206 0l6.794-6.794c1.438-1.438 3.768-1.438 5.206 0l6.794 6.794c1.438 1.438 3.768 1.438 5.206 0l6.794-6.794c1.438-1.438 3.768-1.438 5.206 0 2.641 2.64 7.08.126 6.175-3.496z" fill="#4b67b0"/><path d="m152.61 77h-49.22c-1.759 0-3.293 3.123-3.719 7.575l-7.984 77.98c1.044-.089 2.117.249 2.916 1.048l6.794 6.794c1.438 1.438 3.768 1.438 5.206 0l6.794-6.794c1.438-1.438 3.768-1.438 5.206 0l6.794 6.794c1.438 1.438 3.768 1.438 5.206 0l6.794-6.794c1.438-1.438 3.768-1.438 5.206 0l6.794 6.794c1.438 1.438 3.768 1.438 5.206 0l6.794-6.794c.758-.758 1.763-1.105 2.756-1.063l-7.823-77.965c-.427-4.452-1.961-7.575-3.72-7.575z" fill="#6287c5"/><path d="m200 174.475c-1.784 0-3.462-.695-4.724-1.957l-6.795-6.793c-.165-.165-.353-.2-.481-.2s-.316.035-.481.199l-6.795 6.794c-1.262 1.262-2.939 1.957-4.724 1.957s-3.462-.695-4.724-1.957l-6.795-6.793c-.266-.266-.697-.264-.963 0l-6.795 6.794c-1.262 1.262-2.939 1.957-4.724 1.957s-3.462-.695-4.724-1.957l-6.795-6.793c-.165-.165-.353-.2-.481-.2s-.316.035-.481.199l-6.795 6.794c-1.262 1.262-2.939 1.957-4.724 1.957-1.784 0-3.462-.695-4.724-1.957l-6.794-6.794c-.165-.165-.353-.199-.482-.199s-.317.035-.482.199l-6.794 6.794c-1.262 1.262-2.939 1.957-4.724 1.957s-3.462-.695-4.724-1.957l-6.794-6.794c-.266-.266-.698-.266-.964 0l-6.794 6.794c-1.262 1.262-2.939 1.957-4.724 1.957s-3.462-.695-4.724-1.957l-6.794-6.794c-.266-.266-.698-.266-.964 0l-6.794 6.794c-1.262 1.262-2.939 1.957-4.724 1.957s-3.462-.695-4.724-1.957l-6.794-6.794c-.266-.266-.698-.266-.964 0-2.149 2.149-5.371 2.586-8.015 1.09-2.646-1.498-3.927-4.485-3.19-7.434l18.883-75.533c1.451-5.799 6.637-9.848 12.613-9.848h128.385c5.976 0 11.162 4.049 12.611 9.847l18.883 75.533c.738 2.948-.543 5.935-3.188 7.433-2.646 1.499-5.866 1.062-8.018-1.088-.266-.266-.697-.264-.963 0l-6.795 6.794c-1.261 1.261-2.939 1.956-4.723 1.956zm-108-14.947c1.711 0 3.422.651 4.724 1.954l6.794 6.794c.266.266.698.266.964 0l6.794-6.794c1.262-1.262 2.939-1.957 4.724-1.957s3.462.695 4.724 1.957l6.794 6.794c.266.265.698.265.963 0l6.795-6.794c1.262-1.262 2.939-1.957 4.724-1.957s3.462.695 4.724 1.957l6.795 6.793c.267.267.698.265.963 0l6.795-6.794c2.604-2.604 6.842-2.605 9.447 0l6.795 6.793c.268.267.699.265.963 0l6.795-6.794c2.604-2.604 6.842-2.605 9.447 0l6.795 6.793c.268.267.699.265.963 0l6.795-6.794c1.262-1.262 2.939-1.957 4.724-1.957s3.462.695 4.724 1.957c.1.099.367.366.818.11.449-.255.358-.619.324-.757l-18.883-75.533c-.782-3.118-3.574-5.299-6.792-5.299h-128.384c-3.218 0-6.01 2.18-6.791 5.302l-18.883 75.533c-.035.137-.126.502.325.758.45.255.716-.011.817-.111 1.262-1.262 2.939-1.957 4.724-1.957s3.462.695 4.724 1.957l6.794 6.794c.266.266.698.266.964 0l6.794-6.794c2.604-2.605 6.844-2.605 9.448 0l6.794 6.794c.266.266.698.266.964 0l6.794-6.794c1.302-1.303 3.013-1.954 4.724-1.954z" fill="#1c2d6b"/><path d="m134 167-3.397 3.397c-1.438 1.438-3.768 1.438-5.206 0l-3.397-3.397v24l-24 6v6h60v-6l-24-6z" fill="#65bc49"/><path d="m158 206h-60c-1.657 0-3-1.343-3-3v-6c0-1.376.937-2.577 2.272-2.911l21.728-5.431v-21.658c0-1.213.731-2.307 1.852-2.771 1.12-.465 2.411-.208 3.27.65l3.397 3.397c.165.165.353.199.481.199.129 0 .317-.035.482-.199l3.397-3.397c.856-.858 2.146-1.115 3.27-.65 1.121.464 1.851 1.558 1.851 2.771v21.658l21.728 5.432c1.336.334 2.272 1.534 2.272 2.911v6c0 1.656-1.343 2.999-3 2.999zm-57-6h54v-.658l-21.728-5.432c-1.335-.333-2.272-1.534-2.272-2.91v-17.232c-1.838.926-4.161.926-6 0v17.232c0 1.376-.937 2.577-2.272 2.911l-21.728 5.431z" fill="#1c2d6b"/><path d="m104 53-12 24h17.999l12-24z" fill="#ede49d"/><path d="m140 53-12 24h18l12-24z" fill="#d3ba2a"/><path d="m121.999 53-12 24h18.001l12-24z" fill="#eee045"/><path d="m146 80h-54c-1.04 0-2.005-.539-2.552-1.423s-.597-1.989-.131-2.919l12-24c.508-1.016 1.547-1.658 2.683-1.658h54c1.04 0 2.005.539 2.552 1.423s.597 1.989.132 2.919l-12 24c-.509 1.016-1.547 1.658-2.684 1.658zm-49.146-6h47.292l9-18h-47.292z" fill="#1c2d6b"/><path d="m146 77h9.438l2.562-24z" fill="#ef7f72"/><path d="m158 53 2.562 24h9.438z" fill="#e8383b"/><path d="m155.438 77h5.124l-2.562-24z" fill="#e95947"/><path d="m170 80h-24c-1.04 0-2.005-.539-2.552-1.423s-.597-1.989-.132-2.919l12-24c.509-1.016 1.547-1.658 2.684-1.658s2.175.642 2.684 1.658l12 24c.465.93.415 2.035-.132 2.919s-1.512 1.423-2.552 1.423zm-19.146-6h14.291l-7.145-14.292z" fill="#1c2d6b"/></svg>