<svg id="Layer_1" enable-background="new 0 0 256 256" height="512" viewBox="0 0 256 256" width="512" xmlns="http://www.w3.org/2000/svg"><path d="m110 110c-33.137 0-60 26.863-60 60v48h36v-84c0-13.255 10.745-24 24-24z" fill="#89aadb"/><path d="m110 110c13.255 0 24 10.745 24 24v84h36v-48c0-33.137-26.863-60-60-60z" fill="#4b67b0"/><path d="m110 110c-13.255 0-24 10.745-24 24v84h48v-84c0-13.255-10.745-24-24-24z" fill="#6287c5"/><path d="m170 221h-120c-1.657 0-3-1.343-3-3v-48c0-34.738 28.262-63 63-63s63 28.262 63 63v48c0 1.657-1.343 3-3 3zm-117-6h114v-45c0-31.43-25.57-57-57-57s-57 25.57-57 57z" fill="#1c2d6b"/><path d="m92 118.497 18 51.503-5.6-51.503z" fill="#a4d4a0"/><path d="m115.6 118.497-5.6 51.503 18-51.503z" fill="#419b46"/><path d="m104.4 118.497 5.6 51.503 5.6-51.503z" fill="#65bc49"/><path d="m110 173c-1.275 0-2.411-.806-2.832-2.01l-18-51.502c-.547-1.564.278-3.275 1.842-3.822 1.568-.545 3.275.278 3.822 1.842l15.168 43.399 15.168-43.399c.547-1.564 2.256-2.387 3.822-1.842 1.563.547 2.389 2.258 1.842 3.822l-18 51.502c-.421 1.204-1.557 2.01-2.832 2.01z" fill="#1c2d6b"/><path d="m110 221c-1.657 0-3-1.343-3-3v-48c0-1.657 1.343-3 3-3s3 1.343 3 3v48c0 1.657-1.343 3-3 3z" fill="#1c2d6b"/><path d="m129.412 140.632h-9.335c-.326 0-.639-.027-.87-.076l-4.131-1.176c-.448.12-1.138.199-1.921.199h-6.308c-.784 0-1.474-.079-1.921-.199l-4.131 1.176c-.231.048-.544.076-.87.076h-9.335c-.68 0-1.231-.116-1.231-.258v7.279c0 .68.551 1.231 1.231 1.231h9.335c.326 0 .639-.13.87-.36l4.131-5.606c.448.574 1.138.949 1.921.949h6.308c.784 0 1.474-.375 1.921-.949l4.131 5.606c.231.231.544.36.87.36h9.335c.68 0 1.231-.551 1.231-1.231v-7.279c-.001.142-.552.258-1.231.258z" fill="#d3ba2a"/><path d="m129.412 128h-9.335c-.326 0-.639.13-.87.36l-4.082 5.314c-.445-.609-1.159-1.009-1.971-1.009h-6.308c-.812 0-1.526.4-1.971 1.009l-4.082-5.314c-.231-.231-.544-.36-.87-.36h-9.335c-.68 0-1.231.551-1.231 1.231v7.279c0-.143.551-.258 1.231-.258h9.335c.326 0 .639.027.87.076l4.082 1.115c.445-.128 1.159-.212 1.971-.212h6.308c.812 0 1.526.084 1.971.212l4.082-1.115c.231-.048.544-.076.87-.076h9.335c.68 0 1.231.116 1.231.258v-7.279c-.001-.68-.552-1.231-1.231-1.231z" fill="#ede49d"/><path d="m129.412 136.252h-9.335c-.326 0-.639.027-.87.076l-4.082 1.115c-.445-.128-1.159-.212-1.971-.212h-6.308c-.812 0-1.526.084-1.971.212l-4.082-1.115c-.231-.048-.544-.076-.87-.076h-9.335c-.68 0-1.231.116-1.231.258v3.864c0 .143.551.258 1.231.258h9.335c.326 0 .639-.027.87-.076l4.131-1.176c.448.12 1.138.199 1.921.199h6.308c.784 0 1.474-.079 1.921-.199l4.131 1.176c.231.048.544.076.87.076h9.335c.68 0 1.231-.116 1.231-.258v-3.864c.001-.143-.55-.258-1.229-.258z" fill="#eee045"/><g fill="#1c2d6b"><path d="m99.92 151.88h-9.33c-2.332 0-4.229-1.897-4.229-4.23v-18.42c0-2.333 1.897-4.23 4.229-4.23h9.33c1.129 0 2.19.439 2.989 1.236.093.093.18.191.26.296l4.08 5.31c.772 1.005.826 2.381.151 3.439v5.951c.713 1.046.693 2.438-.066 3.468l-4.13 5.6c-.089.122-.188.236-.295.343-.799.798-1.86 1.237-2.989 1.237zm-7.56-6h6.649l2.499-3.389c-.071-.352-.108-.711-.108-1.071v-6.31c0-.31.027-.621.081-.926l-2.446-3.184h-6.675z"/><path d="m129.41 151.88h-9.33c-1.129 0-2.19-.439-2.989-1.236-.106-.107-.206-.221-.295-.343l-4.13-5.6c-.76-1.03-.779-2.422-.066-3.468v-5.951c-.675-1.058-.621-2.434.151-3.439l4.08-5.31c.08-.104.167-.203.26-.296.799-.797 1.86-1.236 2.989-1.236h9.33c2.332 0 4.229 1.897 4.229 4.23v18.42c.001 2.331-1.897 4.229-4.229 4.229zm-8.42-6h6.649v-14.88h-6.675l-2.446 3.184c.054.306.081.616.081.926v6.31c0 .36-.037.719-.108 1.071z"/><path d="m113.154 146.866h-6.309c-3.003 0-5.445-2.443-5.445-5.446v-6.308c0-3.003 2.442-5.446 5.445-5.446h6.309c3.003 0 5.445 2.443 5.445 5.446v6.308c.001 3.002-2.442 5.446-5.445 5.446zm-5.754-6h5.199v-5.2h-5.199z"/><path d="m146 221c-1.657 0-3-1.343-3-3v-48c0-1.657 1.343-3 3-3s3 1.343 3 3v48c0 1.657-1.343 3-3 3z"/><path d="m74 221c-1.657 0-3-1.343-3-3v-48c0-1.657 1.343-3 3-3s3 1.343 3 3v48c0 1.657-1.343 3-3 3z"/></g><path d="m94 74c0-26.51 7.163-48 16-48-26.51 0-48 21.49-48 48s21.49 48 48 48c-8.837 0-16-21.49-16-48z" fill="#ede49d"/><path d="m110 26c8.837 0 16 21.49 16 48s-7.163 48-16 48c26.51 0 48-21.49 48-48s-21.49-48-48-48z" fill="#d3ba2a"/><ellipse cx="110" cy="74" fill="#eee045" rx="16" ry="48"/><circle cx="94" cy="83.943" fill="#1c2d6b" r="3.941"/><circle cx="126" cy="83.943" fill="#1c2d6b" r="3.941"/><path d="m110 99.002c-3.912 0-7.562-2.104-9.523-5.493-.831-1.434-.342-3.269 1.092-4.1 1.436-.83 3.271-.341 4.1 1.093.894 1.542 2.553 2.5 4.332 2.5s3.438-.958 4.332-2.5c.829-1.434 2.663-1.923 4.1-1.093 1.434.831 1.923 2.666 1.092 4.1-1.963 3.388-5.613 5.493-9.525 5.493z" fill="#1c2d6b"/><path d="m110 26c-26.51 0-48 21.49-48 48 12.576 0 24.017-4.843 32.576-12.757 1.863-20.315 8.06-35.243 15.424-35.243z" fill="#ef7f72"/><path d="m125.424 61.243c8.559 7.914 20 12.757 32.576 12.757 0-26.51-21.49-48-48-48 7.364 0 13.561 14.928 15.424 35.243z" fill="#e8383b"/><path d="m110 26c0 13.933 5.942 26.474 15.424 35.243-1.863-20.315-8.06-35.243-15.424-35.243s-13.561 14.928-15.424 35.243c9.482-8.769 15.424-21.31 15.424-35.243z" fill="#e95947"/><path d="m158 77c-22.073 0-40.915-14.095-48-33.757-7.085 19.662-25.927 33.757-48 33.757-1.657 0-3-1.343-3-3 0-28.122 22.879-51 51-51s51 22.878 51 51c0 1.657-1.343 3-3 3zm-44.894-47.894c1.529 22.345 19.443 40.258 41.787 41.788-1.529-22.345-19.443-40.258-41.787-41.788zm-6.212 0c-22.344 1.53-40.258 19.443-41.787 41.788 22.343-1.53 40.257-19.443 41.787-41.788z" fill="#1c2d6b"/><path d="m110 125c-28.121 0-51-22.878-51-51s22.879-51 51-51 51 22.878 51 51-22.879 51-51 51zm0-96c-24.813 0-45 20.187-45 45s20.187 45 45 45 45-20.187 45-45-20.187-45-45-45z" fill="#1c2d6b"/><circle cx="122" cy="194" fill="#1c2d6b" r="3.941"/><circle cx="122" cy="208" fill="#1c2d6b" r="3.941"/><circle cx="122" cy="180" fill="#1c2d6b" r="3.941"/><path d="m188 176.059h18v41.941h-18z" fill="#e8383b"/><path d="m146 176.059h18v41.941h-18z" fill="#ef7f72"/><path d="m164 176.059h24v41.941h-24z" fill="#e95947"/><path d="m206 221h-60c-1.657 0-3-1.343-3-3v-41.941c0-1.657 1.343-3 3-3h60c1.657 0 3 1.343 3 3v41.941c0 1.657-1.343 3-3 3zm-57-6h54v-35.941h-54z" fill="#1c2d6b"/><path d="m152 170-1.596 48h4.403l6.001-48z" fill="#419b46"/><path d="m136.808 170 6 48h4.404l-1.596-48z" fill="#a4d4a0"/><path d="m145.616 170 1.596 48h3.192l1.596-48z" fill="#65bc49"/><path d="m154.807 221h-11.998c-1.513 0-2.789-1.126-2.977-2.628l-6-48c-.107-.854.158-1.712.728-2.357s1.389-1.015 2.249-1.015h24c.86 0 1.68.37 2.249 1.015s.835 1.504.728 2.357l-6.002 48c-.188 1.502-1.465 2.628-2.977 2.628zm-9.35-6h6.701l5.252-42h-17.203z" fill="#1c2d6b"/><path d="m144.858 161c0-8.284 1.855-15 4.142-15-8.284 0-15 6.716-15 15s6.716 15 15 15c-2.288 0-4.142-6.716-4.142-15z" fill="#ede49d"/><path d="m149 146c2.288 0 4.142 6.716 4.142 15s-1.855 15-4.142 15c8.284 0 15-6.716 15-15s-6.716-15-15-15z" fill="#d3ba2a"/><ellipse cx="149" cy="161" fill="#eee045" rx="4.142" ry="15"/><path d="m149 179c-9.925 0-18-8.075-18-18s8.075-18 18-18 18 8.075 18 18-8.075 18-18 18zm0-30c-6.617 0-12 5.383-12 12s5.383 12 12 12 12-5.383 12-12-5.383-12-12-12z" fill="#1c2d6b"/><path d="m182 233c-4.963 0-9-4.038-9-9v-24c0-1.654-1.346-3-3-3s-3 1.346-3 3v22.404c0 5.842-4.753 10.596-10.596 10.596s-10.596-4.753-10.596-10.596v-4.404c0-1.657 1.343-3 3-3s3 1.343 3 3v4.404c0 2.534 2.062 4.596 4.596 4.596s4.596-2.062 4.596-4.596v-22.404c0-4.962 4.037-9 9-9s9 4.038 9 9v24c0 1.654 1.346 3 3 3s3-1.346 3-3v-30c0-1.657 1.343-3 3-3s3 1.343 3 3v30c0 4.962-4.037 9-9 9z" fill="#1c2d6b"/></svg>