<svg id="Layer_1" enable-background="new 0 0 256 256" height="512" viewBox="0 0 256 256" width="512" xmlns="http://www.w3.org/2000/svg"><path d="m93.57 226.79v-197.58c0-3.43 2.78-6.21 6.21-6.21h-32.391c-5.423 0-9.819 4.396-9.819 9.819v190.361c0 5.423 4.396 9.819 9.819 9.819h32.391c-3.429.001-6.21-2.779-6.21-6.209z" fill="#a4d4a0"/><path d="m167.751 23h-32.391c3.43 0 6.21 2.78 6.21 6.21v197.58c0 3.43-2.78 6.21-6.21 6.21h32.391c5.423 0 9.819-4.396 9.819-9.819v-190.362c0-5.423-4.396-9.819-9.819-9.819z" fill="#419b46"/><path d="m141.57 226.79v-197.58c0-3.43-2.78-6.21-6.21-6.21h-35.58c-3.43 0-6.21 2.78-6.21 6.21v197.58c0 3.43 2.78 6.21 6.21 6.21h35.579c3.431 0 6.211-2.78 6.211-6.21z" fill="#65bc49"/><path d="m167.751 236h-100.362c-7.068 0-12.819-5.751-12.819-12.819v-190.362c0-7.068 5.751-12.819 12.819-12.819h100.362c7.068 0 12.819 5.751 12.819 12.819v190.361c0 7.069-5.751 12.82-12.819 12.82zm-100.362-210c-3.76 0-6.819 3.059-6.819 6.819v190.361c0 3.76 3.059 6.819 6.819 6.819h100.362c3.76 0 6.819-3.059 6.819-6.819v-190.361c0-3.76-3.059-6.819-6.819-6.819z" fill="#1c2d6b"/><path d="m141.57 41h36v168h-36z" fill="#4b67b0"/><path d="m57.57 41h36v168h-36z" fill="#89aadb"/><path d="m93.57 41h48v168h-48z" fill="#6287c5"/><path d="m177.57 212h-120c-1.657 0-3-1.343-3-3v-168c0-1.657 1.343-3 3-3h120c1.657 0 3 1.343 3 3v168c0 1.657-1.343 3-3 3zm-117-6h114v-162h-114z" fill="#1c2d6b"/><path d="m123.57 224h-12c-1.657 0-3-1.343-3-3s1.343-3 3-3h12c1.657 0 3 1.343 3 3s-1.343 3-3 3z" fill="#1c2d6b"/><path d="m48.43 70.686h40.332v107.852h-40.332z" fill="#ede49d"/><path d="m146.378 70.686h40.332v107.852h-40.332z" fill="#d3ba2a"/><path d="m88.762 70.686h57.617v107.852h-57.617z" fill="#eee045"/><path d="m186.71 181.539h-138.28c-1.657 0-3-1.343-3-3v-107.852c0-1.657 1.343-3 3-3h138.28c1.657 0 3 1.343 3 3v107.852c0 1.656-1.343 3-3 3zm-135.28-6h132.28v-101.852h-132.28z" fill="#1c2d6b"/><path d="m48.43 70.686h40.332v23.852h-40.332z" fill="#ef7f72"/><path d="m146.378 70.686h40.332v23.852h-40.332z" fill="#e8383b"/><path d="m88.762 70.686h57.617v23.852h-57.617z" fill="#e95947"/><path d="m186.71 97.539h-138.28c-1.657 0-3-1.343-3-3v-23.852c0-1.657 1.343-3 3-3h138.28c1.657 0 3 1.343 3 3v23.852c0 1.656-1.343 3-3 3zm-135.28-6h132.28v-17.852h-132.28z" fill="#1c2d6b"/><g fill="#e95947"><path d="m156.71 112.538h12v12h-12z"/><path d="m126.71 112.538h12v12h-12z"/><path d="m96.71 112.538h12v12h-12z"/><path d="m66.71 112.538h12v12h-12z"/><path d="m96.71 148.538h12v12h-12z"/><path d="m126.71 148.538h12v12h-12z"/><path d="m156.71 148.538h12v12h-12z"/></g><path d="m138.71 163.539h-12c-1.657 0-3-1.343-3-3v-12c0-1.657 1.343-3 3-3h12c1.657 0 3 1.343 3 3v12c0 1.656-1.343 3-3 3zm-9-6h6v-6h-6z" fill="#1c2d6b"/><path d="m168.71 163.539h-12c-1.657 0-3-1.343-3-3v-12c0-1.657 1.343-3 3-3h12c1.657 0 3 1.343 3 3v12c0 1.656-1.343 3-3 3zm-9-6h6v-6h-6z" fill="#1c2d6b"/><path d="m66.71 148.538h12v12h-12z" fill="#e95947"/><path d="m168.71 127.539h-12c-1.657 0-3-1.343-3-3v-12c0-1.657 1.343-3 3-3h12c1.657 0 3 1.343 3 3v12c0 1.656-1.343 3-3 3zm-9-6h6v-6h-6z" fill="#1c2d6b"/><path d="m138.71 127.539h-12c-1.657 0-3-1.343-3-3v-12c0-1.657 1.343-3 3-3h12c1.657 0 3 1.343 3 3v12c0 1.656-1.343 3-3 3zm-9-6h6v-6h-6z" fill="#1c2d6b"/><path d="m108.71 127.539h-12c-1.657 0-3-1.343-3-3v-12c0-1.657 1.343-3 3-3h12c1.657 0 3 1.343 3 3v12c0 1.656-1.343 3-3 3zm-9-6h6v-6h-6z" fill="#1c2d6b"/><path d="m78.71 127.539h-12c-1.657 0-3-1.343-3-3v-12c0-1.657 1.343-3 3-3h12c1.657 0 3 1.343 3 3v12c0 1.656-1.343 3-3 3zm-9-6h6v-6h-6z" fill="#1c2d6b"/><path d="m108.71 163.539h-12c-1.657 0-3-1.343-3-3v-12c0-1.657 1.343-3 3-3h12c1.657 0 3 1.343 3 3v12c0 1.656-1.343 3-3 3zm-9-6h6v-6h-6z" fill="#1c2d6b"/><path d="m78.71 163.539h-12c-1.657 0-3-1.343-3-3v-12c0-1.657 1.343-3 3-3h12c1.657 0 3 1.343 3 3v12c0 1.656-1.343 3-3 3zm-9-6h6v-6h-6z" fill="#1c2d6b"/><path d="m162.71 82.538c-3.314 0-6-2.686-6-6v-12c0-3.314 2.686-6 6-6 3.314 0 6 2.686 6 6v12c0 3.314-2.686 6-6 6z" fill="#eee045"/><path d="m132.71 82.538c-3.314 0-6-2.686-6-6v-12c0-3.314 2.686-6 6-6 3.314 0 6 2.686 6 6v12c0 3.314-2.686 6-6 6z" fill="#eee045"/><path d="m102.71 82.538c-3.314 0-6-2.686-6-6v-12c0-3.314 2.686-6 6-6 3.314 0 6 2.686 6 6v12c0 3.314-2.686 6-6 6z" fill="#eee045"/><path d="m72.71 82.538c-3.314 0-6-2.686-6-6v-12c0-3.314 2.686-6 6-6 3.314 0 6 2.686 6 6v12c0 3.314-2.686 6-6 6z" fill="#eee045"/><path d="m162.71 85.539c-4.962 0-9-4.038-9-9v-12c0-4.962 4.038-9 9-9s9 4.038 9 9v12c0 4.962-4.038 9-9 9zm0-24c-1.654 0-3 1.346-3 3v12c0 1.654 1.346 3 3 3s3-1.346 3-3v-12c0-1.655-1.346-3-3-3z" fill="#1c2d6b"/><path d="m132.71 85.539c-4.962 0-9-4.038-9-9v-12c0-4.962 4.038-9 9-9s9 4.038 9 9v12c0 4.962-4.038 9-9 9zm0-24c-1.654 0-3 1.346-3 3v12c0 1.654 1.346 3 3 3s3-1.346 3-3v-12c0-1.655-1.346-3-3-3z" fill="#1c2d6b"/><path d="m102.71 85.539c-4.962 0-9-4.038-9-9v-12c0-4.962 4.038-9 9-9s9 4.038 9 9v12c0 4.962-4.038 9-9 9zm0-24c-1.654 0-3 1.346-3 3v12c0 1.654 1.346 3 3 3s3-1.346 3-3v-12c0-1.655-1.346-3-3-3z" fill="#1c2d6b"/><path d="m72.71 85.539c-4.962 0-9-4.038-9-9v-12c0-4.962 4.038-9 9-9s9 4.038 9 9v12c0 4.962-4.038 9-9 9zm0-24c-1.654 0-3 1.346-3 3v12c0 1.654 1.346 3 3 3s3-1.346 3-3v-12c0-1.655-1.346-3-3-3z" fill="#1c2d6b"/><path d="m165.57 167c0-16.569 5.373-30 12-30-16.569 0-30 13.431-30 30s13.431 30 30 30c-6.627 0-12-13.431-12-30z" fill="#ef7f72"/><path d="m177.57 137c6.627 0 12 13.431 12 30s-5.373 30-12 30c16.569 0 30-13.431 30-30s-13.431-30-30-30z" fill="#e8383b"/><ellipse cx="177.57" cy="167" fill="#e95947" rx="12" ry="30"/><path d="m177.57 200c-18.196 0-33-14.804-33-33s14.804-33 33-33 33 14.804 33 33-14.804 33-33 33zm0-60c-14.888 0-27 12.112-27 27s12.112 27 27 27 27-12.112 27-27-12.112-27-27-27z" fill="#1c2d6b"/><path d="m195.633 170h-18.063c-1.657 0-3-1.343-3-3v-18.063c0-1.657 1.343-3 3-3s3 1.343 3 3v15.063h15.063c1.657 0 3 1.343 3 3s-1.343 3-3 3z" fill="#1c2d6b"/></svg>