<svg id="Layer_1" enable-background="new 0 0 256 256" height="512" viewBox="0 0 256 256" width="512" xmlns="http://www.w3.org/2000/svg"><path d="m98 232.899v-191.798c0-1.713 1.388-3.101 3.101-3.101h-46.101c-2.761 0-5 2.239-5 5v188c0 2.761 2.239 5 5 5h46.101c-1.713 0-3.101-1.388-3.101-3.101z" fill="#ef7f72"/><path d="m201 38h-46.101c1.713 0 3.101 1.388 3.101 3.101v191.798c0 1.713-1.388 3.101-3.101 3.101h46.101c2.761 0 5-2.239 5-5v-188c0-2.761-2.239-5-5-5z" fill="#e8383b"/><path d="m158 232.899v-191.798c0-1.713-1.388-3.101-3.101-3.101h-53.798c-1.713 0-3.101 1.388-3.101 3.101v191.798c0 1.713 1.388 3.101 3.101 3.101h53.798c1.713 0 3.101-1.388 3.101-3.101z" fill="#e95947"/><path d="m201 239h-146c-4.411 0-8-3.589-8-8v-188c0-4.411 3.589-8 8-8h146c4.411 0 8 3.589 8 8v188c0 4.411-3.589 8-8 8zm-146-198c-1.103 0-2 .897-2 2v188c0 1.103.897 2 2 2h146c1.103 0 2-.897 2-2v-188c0-1.103-.897-2-2-2z" fill="#1c2d6b"/><path d="m68 56h35.858v162h-35.858z" fill="#89aadb"/><path d="m152.142 56h35.858v162h-35.858z" fill="#4b67b0"/><path d="m103.858 56h48.284v162h-48.284z" fill="#6287c5"/><path d="m188 221h-120c-1.657 0-3-1.343-3-3v-162c0-1.657 1.343-3 3-3h120c1.657 0 3 1.343 3 3v162c0 1.657-1.343 3-3 3zm-117-6h114v-156h-114z" fill="#1c2d6b"/><path d="m86 92h24v24h-24z" fill="#eee045"/><path d="m86 134h24v24h-24z" fill="#eee045"/><path d="m86 176h24v24h-24z" fill="#eee045"/><g fill="#1c2d6b"><path d="m110 119h-24c-1.657 0-3-1.343-3-3v-24c0-1.657 1.343-3 3-3h24c1.657 0 3 1.343 3 3v24c0 1.657-1.343 3-3 3zm-21-6h18v-18h-18z"/><path d="m110 161h-24c-1.657 0-3-1.343-3-3v-24c0-1.657 1.343-3 3-3h24c1.657 0 3 1.343 3 3v24c0 1.657-1.343 3-3 3zm-21-6h18v-18h-18z"/><path d="m110 203h-24c-1.657 0-3-1.343-3-3v-24c0-1.657 1.343-3 3-3h24c1.657 0 3 1.343 3 3v24c0 1.657-1.343 3-3 3zm-21-6h18v-18h-18z"/><path d="m170 98h-42c-1.657 0-3-1.343-3-3s1.343-3 3-3h42c1.657 0 3 1.343 3 3s-1.343 3-3 3z"/><path d="m170 116h-42c-1.657 0-3-1.343-3-3s1.343-3 3-3h42c1.657 0 3 1.343 3 3s-1.343 3-3 3z"/><path d="m170 140h-42c-1.657 0-3-1.343-3-3s1.343-3 3-3h42c1.657 0 3 1.343 3 3s-1.343 3-3 3z"/><path d="m170 158h-42c-1.657 0-3-1.343-3-3s1.343-3 3-3h42c1.657 0 3 1.343 3 3s-1.343 3-3 3z"/><path d="m170 182h-42c-1.657 0-3-1.343-3-3s1.343-3 3-3h42c1.657 0 3 1.343 3 3s-1.343 3-3 3z"/><path d="m170 200h-42c-1.657 0-3-1.343-3-3s1.343-3 3-3h42c1.657 0 3 1.343 3 3s-1.343 3-3 3z"/><path d="m100.142 110c-.778 0-1.529-.303-2.091-.849l-5.877-5.714c-1.188-1.155-1.214-3.054-.06-4.242s3.054-1.215 4.242-.06l3.421 3.327 15.8-21.251c.988-1.329 2.866-1.606 4.198-.618 1.33.989 1.606 2.868.618 4.198l-17.844 24c-.516.694-1.306 1.131-2.168 1.2-.08.005-.16.009-.239.009z"/><path d="m100.142 152c-.778 0-1.529-.303-2.091-.849l-5.877-5.714c-1.188-1.155-1.214-3.054-.06-4.242s3.054-1.215 4.242-.06l3.421 3.327 15.8-21.251c.988-1.329 2.866-1.605 4.198-.618 1.33.989 1.606 2.868.618 4.198l-17.844 24c-.516.694-1.306 1.131-2.168 1.2-.08.005-.16.009-.239.009z"/><path d="m100.142 194c-.778 0-1.529-.303-2.091-.849l-5.877-5.714c-1.188-1.155-1.214-3.054-.06-4.242s3.054-1.215 4.242-.06l3.421 3.327 15.8-21.251c.988-1.329 2.866-1.606 4.198-.618 1.33.989 1.606 2.868.618 4.198l-17.844 24c-.516.694-1.306 1.131-2.168 1.2-.08.005-.16.009-.239.009z"/></g><path d="m146 32v26c0 5.523-1.679 10-3.75 10h23.75c5.523 0 10-4.477 10-10v-26z" fill="#419b46"/><path d="m131.375 29v3h5.625v-3c0-4.971-4.029-9-9-9 1.864 0 3.375 4.029 3.375 9z" fill="#419b46"/><path d="m124.625 29c0-4.971 1.511-9 3.375-9-4.971 0-9 4.029-9 9v3h5.625z" fill="#a4d4a0"/><path d="m110 58v-26h-30v26c0 5.523 4.477 10 10 10h23.75c-2.071 0-3.75-4.477-3.75-10z" fill="#a4d4a0"/><path d="m146 58v-26h-9-5.625v-3c0-4.971-1.511-9-3.375-9s-3.375 4.029-3.375 9v3h-5.625-9v26c0 5.523 1.679 10 3.75 10h28.5c2.071 0 3.75-4.477 3.75-10z" fill="#65bc49"/><path d="m166 71h-76c-7.168 0-13-5.832-13-13v-26c0-1.657 1.343-3 3-3h36c0-6.617 5.383-12 12-12s12 5.383 12 12h36c1.657 0 3 1.343 3 3v26c0 7.168-5.832 13-13 13zm-83-36v23c0 3.86 3.14 7 7 7h76c3.86 0 7-3.14 7-7v-23h-36c-1.657 0-3-1.343-3-3v-3c0-3.309-2.691-6-6-6s-6 2.691-6 6v3c0 1.657-1.343 3-3 3z" fill="#1c2d6b"/></svg>