<svg id="Layer_1" enable-background="new 0 0 256 256" height="512" viewBox="0 0 256 256" width="512" xmlns="http://www.w3.org/2000/svg"><path d="m92.074 224.298v-179.596c0-3.425 2.777-6.202 6.202-6.202h-44.202c-5.523 0-10 4.477-10 10v172c0 5.523 4.477 10 10 10h44.202c-3.426 0-6.202-2.777-6.202-6.202z" fill="#a4d4a0"/><path d="m190.074 38.5h-44.202c3.425 0 6.202 2.777 6.202 6.202v179.597c0 3.425-2.777 6.202-6.202 6.202h44.202c5.523 0 10-4.477 10-10v-172c0-5.524-4.478-10.001-10-10.001z" fill="#419b46"/><path d="m152.074 224.298v-179.596c0-3.425-2.777-6.202-6.202-6.202h-47.597c-3.425 0-6.202 2.777-6.202 6.202v179.597c0 3.425 2.777 6.202 6.202 6.202h47.596c3.426-.001 6.203-2.778 6.203-6.203z" fill="#65bc49"/><path d="m190.074 233.5h-136c-7.168 0-13-5.832-13-13v-172c0-7.168 5.832-13 13-13h136c7.168 0 13 5.832 13 13v172c0 7.168-5.832 13-13 13zm-136-192c-3.86 0-7 3.14-7 7v172c0 3.86 3.14 7 7 7h136c3.86 0 7-3.14 7-7v-172c0-3.86-3.14-7-7-7z" fill="#1c2d6b"/><path d="m68.074 74.5h42v126h-42z" fill="#ede49d"/><path d="m170.074 74.5h42v126h-42z" fill="#d3ba2a"/><path d="m110.074 74.5h60v126h-60z" fill="#eee045"/><path d="m212.074 203.5h-144c-1.657 0-3-1.343-3-3v-126c0-1.657 1.343-3 3-3h144c1.657 0 3 1.343 3 3v126c0 1.657-1.344 3-3 3zm-141-6h138v-120h-138z" fill="#1c2d6b"/><path d="m40.668 185.676c0-10.68 1.792-20.038 4.48-25.257-1.776-4.529-2.913-11.452-2.913-19.213 0-13.645 3.509-24.706 7.838-24.706-13.645 0-24.706 11.061-24.706 24.706 0 7.762 3.582 14.684 9.18 19.213-8.472 5.219-14.122 14.577-14.122 25.257v4.941 9.882h20.241v-9.882-4.941z" fill="#89aadb"/><path d="m65.599 160.419c5.598-4.529 9.18-11.452 9.18-19.213 0-13.645-11.061-24.706-24.706-24.706 4.329 0 7.838 11.061 7.838 24.706 0 7.762-1.137 14.684-2.913 19.213 2.688 5.219 4.48 14.577 4.48 25.257v4.941 9.882h20.241v-9.882-4.941c.002-10.68-5.648-20.038-14.12-25.257z" fill="#4b67b0"/><path d="m59.48 185.676c0-10.68-1.793-20.038-4.48-25.257 1.776-4.529 2.913-11.452 2.913-19.213 0-13.645-3.509-24.706-7.838-24.706-4.329 0-7.838 11.061-7.838 24.706 0 7.762 1.137 14.684 2.913 19.213-2.688 5.219-4.48 14.577-4.48 25.257v4.941 9.882h18.81v-9.882z" fill="#6287c5"/><path d="m68.074 74.5h42v30h-42z" fill="#ef7f72"/><path d="m170.074 74.5h42v30h-42z" fill="#e8383b"/><path d="m110.074 74.5h60v30h-60z" fill="#e95947"/><path d="m212.074 107.5h-144c-1.657 0-3-1.343-3-3v-30c0-1.657 1.343-3 3-3h144c1.657 0 3 1.343 3 3v30c0 1.657-1.344 3-3 3zm-141-6h138v-24h-138z" fill="#1c2d6b"/><path d="m182.074 128.5h12v12h-12z" fill="#e95947"/><path d="m152.074 128.5h12v12h-12z" fill="#e95947"/><path d="m122.074 128.5h12v12h-12z" fill="#e95947"/><path d="m92.074 128.5h12v12h-12z" fill="#e95947"/><path d="m122.074 164.5h12v12h-12z" fill="#e95947"/><path d="m92.074 164.5h12v12h-12z" fill="#e95947"/><g fill="#1c2d6b"><path d="m194.074 143.5h-12c-1.657 0-3-1.343-3-3v-12c0-1.657 1.343-3 3-3h12c1.657 0 3 1.343 3 3v12c0 1.657-1.344 3-3 3zm-9-6h6v-6h-6z"/><path d="m164.074 143.5h-12c-1.657 0-3-1.343-3-3v-12c0-1.657 1.343-3 3-3h12c1.657 0 3 1.343 3 3v12c0 1.657-1.344 3-3 3zm-9-6h6v-6h-6z"/><path d="m134.074 143.5h-12c-1.657 0-3-1.343-3-3v-12c0-1.657 1.343-3 3-3h12c1.657 0 3 1.343 3 3v12c0 1.657-1.344 3-3 3zm-9-6h6v-6h-6z"/><path d="m104.074 143.5h-12c-1.657 0-3-1.343-3-3v-12c0-1.657 1.343-3 3-3h12c1.657 0 3 1.343 3 3v12c0 1.657-1.344 3-3 3zm-9-6h6v-6h-6z"/><path d="m134.074 179.5h-12c-1.657 0-3-1.343-3-3v-12c0-1.657 1.343-3 3-3h12c1.657 0 3 1.343 3 3v12c0 1.657-1.344 3-3 3zm-9-6h6v-6h-6z"/><path d="m104.074 179.5h-12c-1.657 0-3-1.343-3-3v-12c0-1.657 1.343-3 3-3h12c1.657 0 3 1.343 3 3v12c0 1.657-1.344 3-3 3zm-9-6h6v-6h-6z"/></g><path d="m184.574 140.5c11.874 0 21.5 22.833 21.5 51s-9.626 51-21.5 51c28.167 0 51-22.833 51-51s-22.834-51-51-51z" fill="#4b67b0"/><path d="m163.074 191.5c0-28.167 9.626-51 21.5-51-28.167 0-51 22.833-51 51s22.833 51 51 51c-11.875 0-21.5-22.833-21.5-51z" fill="#89aadb"/><ellipse cx="184.574" cy="191.5" fill="#6287c5" rx="21.5" ry="51"/><path d="m184.574 245.5c-29.776 0-54-24.224-54-54s24.224-54 54-54 54 24.224 54 54-24.224 54-54 54zm0-102c-26.467 0-48 21.533-48 48s21.533 48 48 48 48-21.533 48-48-21.533-48-48-48z" fill="#1c2d6b"/><path d="m184.574 209.5c-9.925 0-18-8.075-18-18s8.075-18 18-18 18 8.075 18 18-8.075 18-18 18zm0-30c-6.617 0-12 5.383-12 12s5.383 12 12 12 12-5.383 12-12-5.384-12-12-12z" fill="#1c2d6b"/><circle cx="184.574" cy="191.5" fill="#1c2d6b" r="7.387"/><path d="m125.127 22.291v4.209h5.446v-4.209c0-4.527-3.416-8.48-7.934-8.773-.191-.012-.378-.007-.566-.007.068 0 .135-.005.203.007 1.624.293 2.851 4.246 2.851 8.773z" fill="#4b67b0"/><path d="m119.02 22c0-4.567 1.294-8.291 2.917-8.49-4.63.074-8.363 3.842-8.363 8.49v4.5h5.446z" fill="#89aadb"/><path d="m108.78 26.5h-23.706c-2.761 0-5 2.239-5 5v19h26.91v-19c-.001-2.761.804-5 1.796-5z" fill="#89aadb"/><path d="m159.074 26.5h-23.706c.992 0 1.796 2.239 1.796 5v19h26.91v-19c0-2.761-2.239-5-5-5z" fill="#4b67b0"/><path d="m121.937 13.51c.045-.001.091.002.137.002-.046 0-.092-.008-.137-.002z" fill="#6287c5"/><path d="m135.367 26.5h-4.794-5.446v-4.209c0-4.527-1.227-8.48-2.851-8.773-.069-.012-.136-.007-.203-.007-.045 0-.091-.002-.137-.002-1.623.199-2.917 3.923-2.917 8.49v4.5h-5.446-4.794c-.992 0-1.796 2.239-1.796 5v19h30.18v-19c.001-2.76-.804-4.999-1.796-4.999z" fill="#6287c5"/><path d="m164.074 53.5h-84c-1.657 0-3-1.343-3-3v-19c0-4.411 3.589-8 8-8h74c4.411 0 8 3.589 8 8v19c0 1.657-1.344 3-3 3zm-81-6h78v-16c0-1.103-.897-2-2-2h-74c-1.103 0-2 .897-2 2z" fill="#1c2d6b"/><path d="m130.574 29.5h-17c-1.657 0-3-1.343-3-3v-4.5c0-6.341 5.159-11.5 11.5-11.5s11.5 5.159 11.5 11.5v4.5c0 1.657-1.344 3-3 3zm-14-6h11v-1.5c0-3.033-2.467-5.5-5.5-5.5s-5.5 2.467-5.5 5.5z" fill="#1c2d6b"/><path d="m188.074 86.5c-3.314 0-6-2.686-6-6v-12c0-3.314 2.686-6 6-6 3.314 0 6 2.686 6 6v12c0 3.314-2.687 6-6 6z" fill="#eee045"/><path d="m158.074 86.5c-3.314 0-6-2.686-6-6v-12c0-3.314 2.686-6 6-6 3.314 0 6 2.686 6 6v12c0 3.314-2.687 6-6 6z" fill="#eee045"/><path d="m128.074 86.5c-3.314 0-6-2.686-6-6v-12c0-3.314 2.686-6 6-6 3.314 0 6 2.686 6 6v12c0 3.314-2.687 6-6 6z" fill="#eee045"/><path d="m98.074 86.5c-3.314 0-6-2.686-6-6v-12c0-3.314 2.686-6 6-6 3.314 0 6 2.686 6 6v12c0 3.314-2.687 6-6 6z" fill="#eee045"/><path d="m188.074 89.5c-4.962 0-9-4.038-9-9v-12c0-4.962 4.038-9 9-9s9 4.038 9 9v12c0 4.962-4.038 9-9 9zm0-24c-1.654 0-3 1.346-3 3v12c0 1.654 1.346 3 3 3s3-1.346 3-3v-12c0-1.654-1.346-3-3-3z" fill="#1c2d6b"/><path d="m158.074 89.5c-4.962 0-9-4.038-9-9v-12c0-4.962 4.038-9 9-9s9 4.038 9 9v12c0 4.962-4.038 9-9 9zm0-24c-1.654 0-3 1.346-3 3v12c0 1.654 1.346 3 3 3s3-1.346 3-3v-12c0-1.654-1.346-3-3-3z" fill="#1c2d6b"/><path d="m128.074 89.5c-4.962 0-9-4.038-9-9v-12c0-4.962 4.038-9 9-9s9 4.038 9 9v12c0 4.962-4.038 9-9 9zm0-24c-1.654 0-3 1.346-3 3v12c0 1.654 1.346 3 3 3s3-1.346 3-3v-12c0-1.654-1.346-3-3-3z" fill="#1c2d6b"/><path d="m98.074 89.5c-4.962 0-9-4.038-9-9v-12c0-4.962 4.038-9 9-9s9 4.038 9 9v12c0 4.962-4.038 9-9 9zm0-24c-1.654 0-3 1.346-3 3v12c0 1.654 1.346 3 3 3s3-1.346 3-3v-12c0-1.654-1.346-3-3-3z" fill="#1c2d6b"/><path d="m50.074 168.912c-15.277 0-27.706-12.429-27.706-27.706s12.429-27.706 27.706-27.706 27.706 12.429 27.706 27.706c-.001 15.277-12.429 27.706-27.706 27.706zm0-49.412c-11.969 0-21.706 9.737-21.706 21.706 0 11.968 9.737 21.706 21.706 21.706 11.968 0 21.706-9.737 21.706-21.706-.001-11.969-9.738-21.706-21.706-21.706z" fill="#1c2d6b"/><path d="m79.721 203.5h-59.295c-1.657 0-3-1.343-3-3v-14.824c0-11.417 5.812-21.814 15.548-27.811 1.083-.667 2.472-.578 3.46.222 3.902 3.156 8.618 4.825 13.639 4.825s9.737-1.668 13.639-4.825c.988-.8 2.375-.891 3.46-.222 9.736 5.997 15.548 16.394 15.548 27.811v14.824c.001 1.657-1.343 3-2.999 3zm-56.295-6h53.294v-11.824c0-8.648-4.087-16.58-11.029-21.59-4.581 3.125-10.047 4.826-15.618 4.826s-11.038-1.701-15.619-4.826c-6.942 5.01-11.029 12.942-11.029 21.59v11.824z" fill="#1c2d6b"/></svg>