<svg id="Layer_1" enable-background="new 0 0 256 256" height="512" viewBox="0 0 256 256" width="512" xmlns="http://www.w3.org/2000/svg"><path d="m89.323 116c-33.137 0-60 26.863-60 60v48h36v-84c0-13.255 10.745-24 24-24z" fill="#89aadb"/><path d="m89.323 116c13.255 0 24 10.745 24 24v84h36v-48c0-33.137-26.863-60-60-60z" fill="#4b67b0"/><path d="m89.323 116c-13.255 0-24 10.745-24 24v84h48v-84c0-13.255-10.745-24-24-24z" fill="#6287c5"/><path d="m149.323 227h-120c-1.657 0-3-1.343-3-3v-48c0-34.738 28.261-63 63-63s63 28.262 63 63v48c0 1.657-1.343 3-3 3zm-117-6h114v-45c0-31.43-25.57-57-57-57s-57 25.57-57 57z" fill="#1c2d6b"/><path d="m71.323 124.497 18 51.503-5.6-51.503z" fill="#a4d4a0"/><path d="m94.923 124.497-5.6 51.503 18-51.503z" fill="#419b46"/><path d="m83.723 124.497 5.6 51.503 5.6-51.503z" fill="#65bc49"/><path d="m89.323 179c-1.275 0-2.411-.807-2.832-2.01l-18-51.503c-.546-1.564.278-3.275 1.842-3.822 1.565-.545 3.275.278 3.822 1.842l15.168 43.4 15.168-43.4c.547-1.563 2.257-2.387 3.822-1.842 1.564.547 2.389 2.258 1.842 3.822l-18 51.503c-.421 1.203-1.556 2.01-2.832 2.01z" fill="#1c2d6b"/><path d="m89.323 227c-1.657 0-3-1.343-3-3v-48c0-1.657 1.343-3 3-3s3 1.343 3 3v48c0 1.657-1.343 3-3 3z" fill="#1c2d6b"/><path d="m108.735 146.632h-9.335c-.326 0-.639-.027-.87-.076l-4.131-1.176c-.448.12-1.138.199-1.921.199h-6.308c-.784 0-1.474-.079-1.921-.199l-4.131 1.176c-.231.048-.544.076-.87.076h-9.335c-.68 0-1.231-.116-1.231-.258v7.279c0 .68.551 1.231 1.231 1.231h9.335c.326 0 .639-.13.87-.36l4.131-5.606c.448.574 1.138.949 1.921.949h6.308c.784 0 1.474-.375 1.921-.949l4.131 5.606c.231.231.544.36.87.36h9.335c.68 0 1.231-.551 1.231-1.231v-7.279c-.001.142-.552.258-1.231.258z" fill="#d3ba2a"/><path d="m108.735 134h-9.335c-.326 0-.639.13-.87.36l-4.082 5.314c-.445-.609-1.159-1.009-1.971-1.009h-6.308c-.812 0-1.526.4-1.971 1.009l-4.082-5.314c-.231-.231-.544-.36-.87-.36h-9.335c-.68 0-1.231.551-1.231 1.231v7.279c0-.143.551-.258 1.231-.258h9.335c.326 0 .639.027.87.076l4.082 1.115c.445-.128 1.159-.212 1.971-.212h6.308c.812 0 1.526.084 1.971.212l4.082-1.115c.231-.048.544-.076.87-.076h9.335c.68 0 1.231.116 1.231.258v-7.279c-.001-.68-.552-1.231-1.231-1.231z" fill="#ede49d"/><path d="m108.735 142.252h-9.335c-.326 0-.639.027-.87.076l-4.082 1.115c-.445-.128-1.159-.212-1.971-.212h-6.308c-.812 0-1.526.084-1.971.212l-4.082-1.115c-.231-.048-.544-.076-.87-.076h-9.335c-.68 0-1.231.116-1.231.258v3.864c0 .143.551.258 1.231.258h9.335c.326 0 .639-.027.87-.076l4.131-1.176c.448.12 1.138.199 1.921.199h6.308c.784 0 1.474-.079 1.921-.199l4.131 1.176c.231.048.544.076.87.076h9.335c.68 0 1.231-.116 1.231-.258v-3.864c.001-.143-.55-.258-1.229-.258z" fill="#eee045"/><g fill="#1c2d6b"><path d="m79.243 157.88h-9.33c-2.333 0-4.23-1.897-4.23-4.229v-18.42c0-2.333 1.897-4.23 4.23-4.23h9.33c1.131 0 2.194.44 2.993 1.241.091.092.177.188.255.291l4.08 5.31c.772 1.006.826 2.382.151 3.44v5.949c.713 1.047.694 2.438-.066 3.47l-4.13 5.6c-.088.119-.186.232-.291.338-.797.799-1.86 1.24-2.992 1.24zm-7.56-6h6.649l2.5-3.389c-.072-.352-.108-.711-.108-1.071v-6.31c0-.311.027-.621.081-.927l-2.447-3.183h-6.675zm14.942-10.453c-.001.001-.001.002-.002.003 0-.001.001-.002.002-.003z"/><path d="m108.733 157.88h-9.33c-1.131 0-2.194-.44-2.993-1.241-.105-.105-.202-.219-.291-.338l-4.13-5.6c-.76-1.031-.779-2.423-.066-3.47v-5.95c-.675-1.058-.621-2.434.151-3.439l4.08-5.31c.079-.103.164-.199.255-.291.799-.801 1.862-1.241 2.993-1.241h9.33c2.333 0 4.23 1.897 4.23 4.23v18.42c.001 2.332-1.897 4.23-4.229 4.23zm-8.419-6h6.649v-14.88h-6.675l-2.446 3.184c.054.306.081.616.081.927v6.31c0 .36-.037.72-.108 1.071zm-8.293-10.453c.001.001.001.002.002.003 0-.001-.001-.002-.002-.003z"/><path d="m92.477 152.865h-6.308c-3.003 0-5.446-2.442-5.446-5.445v-6.309c0-3.003 2.443-5.445 5.446-5.445h6.308c3.003 0 5.446 2.442 5.446 5.445v6.309c0 3.003-2.443 5.445-5.446 5.445zm-5.754-6h5.2v-5.199h-5.2z"/><path d="m125.323 227c-1.657 0-3-1.343-3-3v-48c0-1.657 1.343-3 3-3s3 1.343 3 3v48c0 1.657-1.343 3-3 3z"/><path d="m53.323 227c-1.657 0-3-1.343-3-3v-48c0-1.657 1.343-3 3-3s3 1.343 3 3v48c0 1.657-1.343 3-3 3z"/></g><path d="m73.323 80c0-26.51 7.163-48 16-48-26.51 0-48 21.49-48 48s21.49 48 48 48c-8.837 0-16-21.49-16-48z" fill="#ede49d"/><path d="m89.323 32c8.837 0 16 21.49 16 48s-7.163 48-16 48c26.51 0 48-21.49 48-48s-21.49-48-48-48z" fill="#d3ba2a"/><ellipse cx="89.323" cy="80" fill="#eee045" rx="16" ry="48"/><circle cx="73.323" cy="89.943" fill="#1c2d6b" r="3.941"/><circle cx="105.323" cy="89.943" fill="#1c2d6b" r="3.941"/><path d="m89.323 105.002c-3.912 0-7.561-2.104-9.523-5.492-.831-1.434-.342-3.27 1.092-4.1 1.436-.831 3.269-.341 4.1 1.092.894 1.542 2.553 2.5 4.332 2.5 1.778 0 3.438-.958 4.332-2.5.831-1.433 2.665-1.923 4.1-1.092 1.434.83 1.922 2.666 1.092 4.1-1.964 3.387-5.613 5.492-9.525 5.492z" fill="#1c2d6b"/><path d="m89.323 32c-26.51 0-48 21.49-48 48 12.576 0 24.017-4.843 32.576-12.757 1.863-20.315 8.06-35.243 15.424-35.243z" fill="#ef7f72"/><path d="m104.747 67.243c8.558 7.915 20 12.757 32.576 12.757 0-26.51-21.49-48-48-48 7.364 0 13.561 14.928 15.424 35.243z" fill="#e8383b"/><path d="m89.323 32c0 13.933 5.942 26.474 15.424 35.243-1.863-20.315-8.06-35.243-15.424-35.243s-13.561 14.928-15.424 35.243c9.482-8.769 15.424-21.31 15.424-35.243z" fill="#e95947"/><path d="m137.323 83c-22.073 0-40.916-14.095-48-33.757-7.085 19.662-25.927 33.757-48 33.757-1.657 0-3-1.343-3-3 0-28.121 22.878-51 51-51 28.122 0 51 22.879 51 51 0 1.657-1.343 3-3 3zm-44.894-47.894c1.53 22.344 19.444 40.258 41.789 41.787-1.53-22.343-19.445-40.257-41.789-41.787zm-6.212 0c-22.345 1.53-40.258 19.444-41.788 41.788 22.344-1.53 40.258-19.444 41.788-41.788z" fill="#1c2d6b"/><path d="m89.323 131c-28.122 0-51-22.879-51-51s22.878-51 51-51 51 22.879 51 51-22.878 51-51 51zm0-96c-24.813 0-45 20.187-45 45s20.187 45 45 45 45-20.187 45-45-20.187-45-45-45z" fill="#1c2d6b"/><circle cx="101.323" cy="200" fill="#1c2d6b" r="3.941"/><circle cx="101.323" cy="214" fill="#1c2d6b" r="3.941"/><circle cx="101.323" cy="186" fill="#1c2d6b" r="3.941"/><path d="m103.956 162.639-26.845 61.361h34.073l26.806-61.361z" fill="#a4d4a0"/><path d="m167.036 162.639-26.423 61.361h34.931l25.566-61.361z" fill="#419b46"/><path d="m137.99 162.639-26.806 61.361h29.429l26.423-61.361z" fill="#65bc49"/><path d="m201.111 162.64h-.001l-25.566 61.36h51.133z" fill="#65bc49"/><path d="m175.544 227h-98.433c-1.012 0-1.957-.511-2.511-1.358s-.644-1.917-.238-2.844l26.845-61.36c.478-1.092 1.557-1.798 2.749-1.798h97.153c1.003 0 1.94.501 2.496 1.336.557.835.659 1.892.273 2.817l-25.565 61.36c-.466 1.118-1.558 1.847-2.769 1.847zm-93.846-6h91.846l23.065-55.36h-90.691z" fill="#1c2d6b"/><path d="m226.677 227h-51.133c-1.003 0-1.94-.501-2.496-1.336-.557-.835-.659-1.892-.273-2.817l25.565-61.36c.466-1.118 1.559-1.847 2.77-1.847s2.304.729 2.77 1.847l25.565 61.36c.386.926.284 1.982-.273 2.817-.555.835-1.492 1.336-2.495 1.336zm-46.633-6h42.133l-21.065-50.561z" fill="#1c2d6b"/><path d="m201.109 227c-1.657 0-3-1.343-3-3v-61.36c0-1.657 1.343-3 3-3s3 1.343 3 3v61.36c0 1.657-1.343 3-3 3z" fill="#1c2d6b"/><path d="m182.165 146c0-3.314.808-6 1.804-6-.997 0-1.804-2.686-1.804-6s.808-6 1.804-6h-6.293c-3.314 0-6 2.686-6 6s2.686 6 6 6c-3.314 0-6 2.686-6 6s2.686 6 6 6h6.293c-.996 0-1.804-2.686-1.804-6z" fill="#89aadb"/><path d="m195.676 140c3.314 0 6-2.686 6-6s-2.686-6-6-6h-6.293c.997 0 1.804 2.686 1.804 6s-.808 6-1.804 6c.997 0 1.804 2.686 1.804 6s-.808 6-1.804 6h6.293c3.314 0 6-2.686 6-6s-2.686-6-6-6z" fill="#4b67b0"/><path d="m191.187 146c0-3.314-.808-6-1.804-6 .997 0 1.804-2.686 1.804-6s-.808-6-1.804-6h-5.413c-.997 0-1.804 2.686-1.804 6s.808 6 1.804 6c-.997 0-1.804 2.686-1.804 6s.808 6 1.804 6h5.413c.997 0 1.804-2.686 1.804-6z" fill="#6287c5"/><path d="m195.676 143h-18c-4.962 0-9-4.037-9-9s4.038-9 9-9h18c4.962 0 9 4.037 9 9s-4.037 9-9 9zm-18-12c-1.654 0-3 1.346-3 3s1.346 3 3 3h18c1.654 0 3-1.346 3-3s-1.346-3-3-3z" fill="#1c2d6b"/><path d="m195.676 155h-18c-4.962 0-9-4.037-9-9s4.038-9 9-9h18c4.962 0 9 4.037 9 9s-4.037 9-9 9zm-18-12c-1.654 0-3 1.346-3 3s1.346 3 3 3h18c1.654 0 3-1.346 3-3s-1.346-3-3-3z" fill="#1c2d6b"/><path d="m182.566 116.186c-3.046-4.438-5.083-13.651-4.875-24.151.252-12.763 3.907-23.191 8.41-23.984.156-.028.311-.042.465-.047-.503.002-1.01.016-1.519.047-12.758.793-23.116 11.221-23.829 23.984-.587 10.5 5.184 19.713 13.813 24.151 1.641.844 2.646 2.56 2.646 4.405v7.409h5.824v-7.409c-.001-1.845-.356-3.561-.935-4.405z" fill="#ede49d"/><path d="m186.676 68.005c4.97 0 9 11.412 9 25.495 0 9.88-1.984 18.443-4.884 22.677-.581.848-.94 2.561-.94 4.413v7.41h5.824v-7.41c0-1.852 1.017-3.565 2.663-4.413 8.216-4.234 13.837-12.797 13.837-22.677 0-14.083-11.417-25.494-25.5-25.495z" fill="#d3ba2a"/><path d="m186.566 68.003c.037 0 .073.002.11.002-.036 0-.073-.003-.11-.002z" fill="#d3ba2a"/><path d="m190.793 116.177c2.9-4.234 4.884-12.797 4.884-22.677 0-14.083-4.03-25.494-9-25.495-.037 0-.073-.002-.11-.002-.154.005-.309.02-.465.047-4.503.793-8.158 11.221-8.41 23.984-.207 10.5 1.83 19.713 4.875 24.151.579.844.934 2.56.934 4.405v7.41h6.353v-7.41c-.001-1.852.358-3.565.939-4.413z" fill="#eee045"/><path d="m195.676 131h-18c-1.657 0-3-1.343-3-3v-7.409c0-.737-.399-1.419-1.018-1.736-10.006-5.146-16.065-15.739-15.437-26.986.805-14.392 12.257-25.918 26.639-26.812 7.96-.501 15.538 2.229 21.329 7.671 5.711 5.367 8.987 12.938 8.987 20.772 0 10.719-5.925 20.43-15.462 25.344-.64.33-1.038.999-1.038 1.746v7.41c0 1.657-1.343 3-3 3zm-15-6h12v-4.41c0-3.003 1.644-5.716 4.289-7.08 7.532-3.881 12.211-11.548 12.211-20.01 0-6.276-2.52-12.101-7.095-16.4-4.572-4.296-10.554-6.442-16.848-6.055-11.162.694-20.396 9.987-21.021 21.158-.497 8.885 4.289 17.252 12.19 21.315 2.636 1.355 4.273 4.065 4.273 7.072v4.41z" fill="#1c2d6b"/><path d="m191.176 128h-3v-16.5h-3v16.5h-3v-16.5h-1.5c-2.481 0-4.5-2.019-4.5-4.5s2.019-4.5 4.5-4.5 4.5 2.019 4.5 4.5v1.5h3v-1.5c0-2.481 2.019-4.5 4.5-4.5s4.5 2.019 4.5 4.5-2.019 4.5-4.5 4.5h-1.5zm0-19.5h1.5c.827 0 1.5-.673 1.5-1.5s-.673-1.5-1.5-1.5-1.5.673-1.5 1.5zm-10.5-3c-.827 0-1.5.673-1.5 1.5s.673 1.5 1.5 1.5h1.5v-1.5c0-.827-.673-1.5-1.5-1.5z" fill="#1c2d6b"/></svg>