<svg id="Layer_1" enable-background="new 0 0 256 256" height="512" viewBox="0 0 256 256" width="512" xmlns="http://www.w3.org/2000/svg"><path d="m80.811 117.458c-28.977 0-52.468 23.491-52.468 52.468v41.974h31.481v-73.455c0-11.591 9.396-20.987 20.987-20.987z" fill="#ef7f72"/><path d="m80.811 117.458c11.591 0 20.987 9.396 20.987 20.987v73.455h31.481v-41.974c0-28.977-23.491-52.468-52.468-52.468z" fill="#e8383b"/><path d="m80.811 117.458c-11.591 0-20.987 9.396-20.987 20.987v73.455h41.974v-73.455c0-11.591-9.396-20.987-20.987-20.987z" fill="#e95947"/><path d="m125.351 175.932h7.925v35.968h-7.925z" fill="#d3ba2a"/><path d="m112.292 175.932h7.925v35.968h-7.925z" fill="#ede49d"/><path d="m120.216 175.932h5.135v35.968h-5.135z" fill="#eee045"/><path d="m41.401 175.932h7.93v35.968h-7.93z" fill="#d3ba2a"/><path d="m28.333 175.932h7.93v35.968h-7.93z" fill="#ede49d"/><path d="m36.263 175.932h5.138v35.968h-5.138z" fill="#eee045"/><path d="m133.276 214.9h-104.93c-1.657 0-3-1.343-3-3v-41.97c0-17.562 8.049-33.71 22.083-44.304 4.289-3.241 9.011-5.832 14.032-7.698 6.187-2.301 12.696-3.468 19.346-3.468 14.824 0 28.754 5.771 39.222 16.25 10.478 10.466 16.248 24.396 16.248 39.22v41.97c-.001 1.658-1.343 3-3.001 3zm-101.93-6h98.931v-38.97c0-13.221-5.146-25.643-14.49-34.978-9.337-9.346-21.759-14.492-34.979-14.492-5.934 0-11.738 1.04-17.255 3.092-4.475 1.663-8.682 3.972-12.507 6.862-12.52 9.45-19.699 23.853-19.699 39.516v38.97z" fill="#1c2d6b"/><path d="m133.278 214.9h-20.986c-1.657 0-3-1.343-3-3v-54.243c0-1.657 1.343-3 3-3s3 1.343 3 3v51.243h17.986c1.657 0 3 1.343 3 3s-1.342 3-3 3z" fill="#1c2d6b"/><path d="m77.927 140.569-1.541-15.68h-11.315l5.48 15.68c1.697 4.855 5.978 7.283 10.26 7.283-1.204 0-2.407-2.427-2.884-7.283z" fill="#ede49d"/><path d="m85.236 124.889-1.541 15.68c-.477 4.855-1.681 7.283-2.884 7.283 4.282 0 8.563-2.427 10.26-7.283l5.48-15.68z" fill="#d3ba2a"/><path d="m83.695 140.569 1.541-15.68h-8.85l1.541 15.68c.477 4.855 1.681 7.283 2.884 7.283s2.407-2.427 2.884-7.283z" fill="#eee045"/><path d="m80.811 150.852c-5.98 0-11.119-3.647-13.092-9.292l-5.48-15.681c-.547-1.564.278-3.275 1.842-3.822 1.57-.544 3.275.278 3.822 1.842l5.48 15.681c1.358 3.888 4.728 5.272 7.428 5.272s6.069-1.385 7.429-5.272l5.479-15.68c.546-1.564 2.258-2.387 3.821-1.843 1.564.547 2.39 2.258 1.843 3.821l-5.479 15.681c-1.974 5.645-7.114 9.293-13.093 9.293z" fill="#1c2d6b"/><path d="m49.33 214.9c-1.657 0-3-1.343-3-3v-54.243c0-1.657 1.343-3 3-3s3 1.343 3 3v54.243c0 1.658-1.343 3-3 3z" fill="#1c2d6b"/><path d="m66.82 85.978c0-23.182 6.264-41.974 13.991-41.974-23.182 0-41.974 18.792-41.974 41.974s18.792 41.974 41.974 41.974c-7.727 0-13.991-18.793-13.991-41.974z" fill="#ede49d"/><path d="m80.811 44.003c7.727 0 13.991 18.792 13.991 41.974s-6.264 41.974-13.991 41.974c23.182 0 41.974-18.792 41.974-41.974s-18.792-41.974-41.974-41.974z" fill="#d3ba2a"/><ellipse cx="80.811" cy="85.978" fill="#eee045" rx="13.991" ry="41.974"/><circle cx="66.82" cy="89.424" fill="#1c2d6b" r="3.446"/><circle cx="94.802" cy="89.424" fill="#1c2d6b" r="3.446"/><path d="m80.811 102.969c-3.555 0-6.87-1.912-8.653-4.99-.831-1.434-.342-3.27 1.092-4.1 1.436-.831 3.271-.341 4.1 1.092.714 1.232 2.04 1.998 3.462 1.998s2.749-.766 3.463-1.998c.829-1.435 2.665-1.923 4.1-1.092 1.434.83 1.923 2.666 1.092 4.1-1.785 3.078-5.101 4.99-8.656 4.99z" fill="#1c2d6b"/><path d="m80.811 44.003c-23.182 0-41.974 18.792-41.974 41.974 10.998 0 21.002-4.235 28.486-11.156 1.629-17.764 7.049-30.818 13.488-30.818z" fill="#89aadb"/><path d="m94.299 74.822c7.484 6.921 17.489 11.156 28.486 11.156 0-23.182-18.792-41.974-41.974-41.974 6.439-.001 11.859 13.053 13.488 30.818z" fill="#4b67b0"/><path d="m80.811 44.004c0 12.184 5.196 23.151 13.488 30.818-1.629-17.765-7.049-30.819-13.488-30.818-6.439 0-11.859 13.054-13.488 30.818 8.292-7.668 13.488-18.634 13.488-30.818z" fill="#6287c5"/><path d="m122.785 88.978c-19.107 0-35.471-11.977-41.975-28.818-6.504 16.842-22.866 28.818-41.974 28.818-1.657 0-3-1.343-3-3 0-24.799 20.175-44.974 44.974-44.974s44.975 20.175 44.975 44.974c0 1.657-1.343 3-3 3zm-38.85-41.85c1.515 19.003 16.723 34.211 35.727 35.726-1.516-19.003-16.724-34.211-35.727-35.726zm-6.248 0c-19.003 1.515-34.211 16.723-35.726 35.726 19.003-1.515 34.211-16.723 35.726-35.726z" fill="#1c2d6b"/><path d="m80.806 130.95c-5.84 0-11.514-1.1-16.866-3.27-1.132-.459-1.873-1.559-1.873-2.78 0-1.657 1.343-3.005 3-3.005.467 0 .909.105 1.303.296 4.582 1.831 9.438 2.759 14.437 2.759 21.494 0 38.98-17.482 38.98-38.971-.001-21.493-17.487-38.979-38.981-38.979-21.488 0-38.97 17.486-38.97 38.979 0 13.654 7.294 26.484 19.036 33.483 1.423.849 1.889 2.69 1.041 4.113-.849 1.422-2.689 1.891-4.113 1.041-13.548-8.076-21.964-22.881-21.964-38.638 0-24.8 20.173-44.978 44.97-44.978 24.803 0 44.98 20.178 44.98 44.979 0 24.797-20.178 44.971-44.98 44.971z" fill="#1c2d6b"/><path d="m49.236 128.02 8.61 23.81 4.899-4.537-8.44-22.65c-1.757 1.031-3.453 2.156-5.069 3.377z" fill="#ef7f72"/><path d="m70.416 140.19-5.35-15.29v-.01c-1.99-.8-3.91-1.75-5.73-2.85-.641.289-1.268.604-1.896.917l7.845 21.983z" fill="#e8383b"/><path d="m57.441 122.958c-1.064.531-2.113 1.087-3.135 1.686l8.44 22.65 2.541-2.353z" fill="#e95947"/><path d="m112.388 128.02-8.61 23.81-4.899-4.537 8.44-22.65c1.757 1.031 3.453 2.156 5.069 3.377z" fill="#ef7f72"/><path d="m91.208 140.19 5.35-15.29v-.01c1.99-.8 3.91-1.75 5.73-2.85.641.289 1.268.604 1.896.917l-7.845 21.983z" fill="#e8383b"/><path d="m104.183 122.958c1.064.531 2.113 1.087 3.135 1.686l-8.44 22.65-2.541-2.353z" fill="#e95947"/><g fill="#1c2d6b"><path d="m57.846 154.83c-.236 0-.474-.027-.709-.085-.977-.237-1.771-.949-2.112-1.895l-8.609-23.81c-.447-1.237-.037-2.621 1.012-3.414 3.292-2.488 6.885-4.615 10.678-6.322.896-.404 1.938-.343 2.782.168 1.657 1 3.439 1.887 5.298 2.634.866.348 1.504 1.069 1.76 1.935l5.304 15.158c.394 1.128.082 2.381-.794 3.192l-12.57 11.64c-.563.52-1.293.799-2.04.799zm-5.019-25.701 6.301 17.425 7.807-7.229-4.264-12.188c-1.193-.523-2.356-1.098-3.479-1.717-2.215 1.08-4.346 2.321-6.365 3.709z"/><path d="m103.778 154.83c-.747 0-1.478-.279-2.038-.799l-12.57-11.641c-.876-.812-1.188-2.064-.794-3.192l5.329-15.23c.271-.832.896-1.525 1.734-1.861 1.858-.747 3.641-1.634 5.298-2.634.843-.511 1.884-.572 2.782-.168 3.793 1.707 7.386 3.834 10.678 6.322 1.049.793 1.459 2.177 1.012 3.414l-8.609 23.81c-.342.945-1.136 1.657-2.113 1.895-.235.056-.472.084-.709.084zm-9.089-15.506 7.807 7.229 6.301-17.425c-2.019-1.388-4.149-2.629-6.364-3.709-1.123.619-2.286 1.193-3.479 1.717z"/><path d="m49.33 178.933h-20.997c-1.657 0-3-1.343-3-3s1.343-3 3-3h20.997c1.657 0 3 1.343 3 3s-1.343 3-3 3z"/><path d="m133.282 178.933h-20.997c-1.657 0-3-1.343-3-3s1.343-3 3-3h20.997c1.657 0 3 1.343 3 3s-1.343 3-3 3z"/></g><path d="m222.478 122.701c-3.359-3.359-5.247-7.916-5.247-12.667v-24.06h-83.948v24.061c0 4.751-1.887 9.307-5.247 12.667-3.36 3.359-5.247 7.916-5.247 12.667h104.935c0-4.752-1.887-9.308-5.246-12.668z" fill="#419b46"/><path d="m227.725 138.368h-104.936c-1.657 0-3-1.343-3-3 0-5.586 2.176-10.838 6.126-14.788 2.816-2.816 4.367-6.562 4.367-10.546v-24.06c0-1.657 1.343-3 3-3h83.948c1.657 0 3 1.343 3 3v24.061c0 3.983 1.552 7.729 4.368 10.546 3.95 3.95 6.126 9.202 6.126 14.788.001 1.656-1.342 2.999-2.999 2.999zm-101.636-6h98.336c-.577-2.84-1.973-5.449-4.068-7.546-3.95-3.95-6.126-9.202-6.126-14.788v-21.06h-77.948v21.061c0 5.587-2.175 10.839-6.125 14.788-2.096 2.096-3.492 4.705-4.069 7.545z" fill="#1c2d6b"/><path d="m175.257 117.455c8.693 0 15.74 23.491 15.74 52.468v2.474c0 8.494-1.012 16.641-2.814 22.647l-.334 1.113v15.74h29.382v-15.74l1.113-1.113c6.006-6.007 9.38-14.153 9.381-22.647v-2.474c-.001-28.978-23.491-52.468-52.468-52.468z" fill="#4b67b0"/><path d="m162.331 195.043c-1.802-6.007-2.814-14.154-2.814-22.649v-2.472c0-28.977 7.047-52.468 15.74-52.468-28.977 0-52.468 23.491-52.468 52.468v2.472c0 8.495 3.374 16.642 9.381 22.649l1.113 1.113v15.74h29.382v-15.74z" fill="#89aadb"/><path d="m188.183 195.043c1.802-6.007 2.814-14.153 2.814-22.647v-2.474c0-28.977-7.047-52.468-15.74-52.468s-15.74 23.491-15.74 52.468v2.472c0 8.495 1.012 16.642 2.814 22.649l.334 1.113v15.74h25.185v-15.74z" fill="#6287c5"/><path d="m196.274 196.156 1.113-1.113c6.006-6.007 9.381-14.154 9.381-22.649v-14.77c0-6.155 3.995-11.368 9.53-13.213-1.555 1.845-2.677 7.058-2.677 13.213v14.77c0 14.87-10.004 23.762-10.004 23.762v15.74h-7.342v-15.74z" fill="#d3ba2a"/><path d="m209.504 196.156s10.004-9.583 10.004-23.76v-2.474c0-9.413-.703-18.233-1.922-25.87.999-.229 2.034-.361 3.102-.362 4.467 7.719 7.036 16.673 7.036 26.233v2.474c-.001 8.494-3.375 16.641-9.381 22.647l-1.113 1.113v15.74h-7.727v-15.741z" fill="#ede49d"/><path d="m219.508 172.396c0 14.177-10.004 23.76-10.004 23.76v15.74h-5.888v-15.74s10.004-8.893 10.004-23.762v-14.77c0-6.155 1.122-11.367 2.677-13.213.421-.14.851-.26 1.289-.36 1.22 7.638 1.922 16.458 1.922 25.87z" fill="#eee045"/><rect fill="#65bc49" height="0" width="5.888" x="203.616" y="211.896"/><path d="m170.01 133.195v-13.335c1.656-1.561 3.419-2.405 5.247-2.405-5.484 0-10.771.845-15.74 2.405v13.335c0 8.693 7.047 15.74 15.74 15.74-2.898 0-5.247-7.047-5.247-15.74z" fill="#ede49d"/><path d="m175.257 117.455c1.828 0 3.59.845 5.247 2.406v13.335c0 8.693-2.349 15.74-5.247 15.74 8.693 0 15.74-7.047 15.74-15.74v-13.336c-4.969-1.561-10.256-2.405-15.74-2.405z" fill="#d3ba2a"/><path d="m180.504 133.195v-13.335c-1.656-1.561-3.419-2.406-5.247-2.406-1.828 0-3.59.845-5.247 2.405v13.335c0 8.693 2.349 15.74 5.247 15.74s5.247-7.046 5.247-15.739z" fill="#eee045"/><path d="m175.257 151.936c-10.333 0-18.74-8.407-18.74-18.74v-13.336c0-1.311.851-2.469 2.101-2.862 10.737-3.374 22.526-3.376 33.278 0 1.251.393 2.102 1.552 2.102 2.862v13.335c-.001 10.333-8.408 18.741-18.741 18.741zm-12.74-29.823v11.082c0 7.025 5.715 12.74 12.74 12.74s12.74-5.715 12.74-12.74v-11.082c-8.289-2.202-17.205-2.2-25.48 0z" fill="#1c2d6b"/><path d="m217.23 214.896h-83.948c-1.657 0-3-1.343-3-3v-14.498l-.234-.235c-6.615-6.615-10.259-15.412-10.259-24.77v-2.472c0-30.585 24.883-55.467 55.468-55.467s55.468 24.882 55.468 55.467v2.475c-.001 9.357-3.645 18.153-10.26 24.768l-.234.234v14.498c-.001 1.658-1.343 3-3.001 3zm-80.948-6h77.948v-12.74c0-.796.316-1.559.879-2.121l1.113-1.113c5.481-5.482 8.501-12.771 8.502-20.525v-2.475c0-27.276-22.191-49.467-49.468-49.467s-49.468 22.19-49.468 49.467v2.472c0 7.755 3.02 15.045 8.502 20.528l1.113 1.114c.562.562.878 1.325.878 2.12v12.74z" fill="#1c2d6b"/><path d="m217.23 214.896h-20.956c-1.657 0-3-1.343-3-3v-15.74c0-.795.315-1.558.878-2.12l1.112-1.113c5.483-5.484 8.503-12.774 8.503-20.529v-14.77c0-9.327 7.589-16.924 16.917-16.935h.004c1.07 0 2.061.57 2.597 1.497 4.867 8.411 7.439 18.001 7.439 27.735v2.475c-.001 9.357-3.645 18.153-10.26 24.768l-.234.234v14.498c0 1.658-1.342 3-3 3zm-17.956-6h14.956v-12.74c0-.796.316-1.559.879-2.121l1.113-1.113c5.481-5.482 8.501-12.771 8.502-20.525v-2.475c0-8.058-1.976-16.003-5.729-23.099-5.221.823-9.228 5.355-9.228 10.801v14.77c0 9.357-3.644 18.154-10.26 24.771l-.233.234z" fill="#1c2d6b"/><path d="m154.255 196.156-1.113-1.113c-6.006-6.007-9.381-14.154-9.381-22.649v-14.77c0-6.155-3.995-11.368-9.53-13.213 1.555 1.845 2.677 7.058 2.677 13.213v14.77c0 14.87 10.004 23.762 10.004 23.762v15.74h7.342v-15.74z" fill="#d3ba2a"/><path d="m141.025 196.156s-10.004-9.583-10.004-23.76v-2.474c0-9.413.703-18.233 1.922-25.87-.999-.229-2.034-.361-3.102-.362-4.467 7.719-7.036 16.673-7.036 26.233v2.474c.001 8.494 3.375 16.641 9.381 22.647l1.113 1.113v15.74h7.727v-15.741z" fill="#ede49d"/><path d="m131.02 172.396c0 14.177 10.004 23.76 10.004 23.76v15.74h5.888v-15.74s-10.004-8.893-10.004-23.762v-14.77c0-6.155-1.122-11.367-2.677-13.213-.421-.14-.851-.26-1.289-.36-1.22 7.638-1.922 16.458-1.922 25.87z" fill="#eee045"/><rect fill="#65bc49" height="0" width="5.888" x="141.025" y="211.896"/><path d="m154.255 214.896h-20.957c-1.657 0-3-1.343-3-3v-14.498l-.234-.235c-6.615-6.615-10.259-15.411-10.259-24.767v-2.475c0-9.734 2.572-19.324 7.439-27.735.536-.927 1.526-1.497 2.597-1.497h.004c9.327.011 16.916 7.607 16.916 16.935v14.77c0 7.754 3.02 15.045 8.502 20.528l1.113 1.113c.562.562.879 1.325.879 2.121v15.74c0 1.658-1.343 3-3 3zm-17.957-6h14.957v-11.498l-.234-.234c-6.616-6.617-10.26-15.414-10.26-24.771v-14.77c0-5.445-4.006-9.978-9.227-10.801-3.754 7.096-5.729 15.041-5.729 23.099v2.475c0 7.753 3.02 15.042 8.502 20.525.001 0 .001 0 .001.001l1.112 1.113c.562.562.878 1.325.878 2.12z" fill="#1c2d6b"/><path d="m161.265 85.974c0-23.182 6.264-41.974 13.991-41.974-23.182 0-41.974 18.792-41.974 41.974s18.792 41.974 41.974 41.974c-7.727 0-13.991-18.792-13.991-41.974z" fill="#ede49d"/><path d="m175.257 44c7.727 0 13.991 18.792 13.991 41.974s-6.264 41.974-13.991 41.974c23.182 0 41.974-18.792 41.974-41.974s-18.793-41.974-41.974-41.974z" fill="#d3ba2a"/><ellipse cx="175.257" cy="85.974" fill="#eee045" rx="13.991" ry="41.974"/><circle cx="161.265" cy="94.669" fill="#1c2d6b" r="3.446"/><circle cx="189.248" cy="94.669" fill="#1c2d6b" r="3.446"/><path d="m175.257 108.214c-3.555 0-6.87-1.912-8.653-4.99-.831-1.434-.342-3.27 1.092-4.1 1.436-.832 3.271-.341 4.1 1.092.714 1.232 2.04 1.998 3.462 1.998s2.748-.766 3.462-1.998c.83-1.435 2.665-1.923 4.1-1.092 1.434.83 1.923 2.666 1.092 4.1-1.785 3.078-5.1 4.99-8.655 4.99z" fill="#1c2d6b"/><path d="m175.257 44c-23.182 0-41.974 18.792-41.974 41.974 10.998 0 21.002-4.235 28.486-11.156 1.629-17.764 7.049-30.818 13.488-30.818z" fill="#a4d4a0"/><path d="m188.745 74.819c7.484 6.921 17.489 11.156 28.486 11.156 0-23.182-18.792-41.974-41.974-41.974 6.439-.001 11.858 13.053 13.488 30.818z" fill="#419b46"/><path d="m175.257 44c0 12.184 5.196 23.151 13.488 30.818-1.63-17.764-7.049-30.818-13.488-30.818s-11.859 13.054-13.488 30.818c8.291-7.667 13.488-18.634 13.488-30.818z" fill="#65bc49"/><path d="m217.23 88.974c-19.107 0-35.47-11.977-41.974-28.818-6.504 16.842-22.867 28.818-41.975 28.818-1.657 0-3-1.343-3-3 0-24.799 20.176-44.974 44.975-44.974s44.974 20.175 44.974 44.974c0 1.657-1.342 3-3 3zm-45.097-41.85c-19.004 1.515-34.212 16.723-35.727 35.726 19.004-1.515 34.212-16.723 35.727-35.726zm6.248 0c1.515 19.003 16.723 34.211 35.726 35.726-1.515-19.003-16.723-34.211-35.726-35.726z" fill="#1c2d6b"/><path d="m175.257 130.948c-24.799 0-44.975-20.176-44.975-44.975s20.176-44.973 44.975-44.973 44.974 20.175 44.974 44.974-20.175 44.974-44.974 44.974zm0-83.948c-21.49 0-38.975 17.483-38.975 38.974s17.484 38.975 38.975 38.975 38.974-17.484 38.974-38.975-17.484-38.974-38.974-38.974z" fill="#1c2d6b"/><path d="m133.276 170c-19.882 0-36 16.118-36 36v5.896h24v-29.896c0-6.627 5.373-12 12-12z" fill="#a4d4a0"/><path d="m133.276 170c6.627 0 12 5.373 12 12v29.896h24v-5.896c0-19.882-16.118-36-36-36z" fill="#419b46"/><path d="m133.276 170c-6.627 0-12 5.373-12 12v29.896h24v-29.896c0-6.627-5.372-12-12-12z" fill="#65bc49"/><path d="m130.414 175.95v-3.9c.883-1.325 1.828-2.044 2.817-2.049-4.194.005-8.208.724-11.955 2.049v3.9c0 6.61 5.35 11.96 11.95 11.96h.003c-1.554-.002-2.815-5.351-2.815-11.96z" fill="#ede49d"/><path d="m133.276 170c-.009 0-.019 0-.028 0 .98.003 1.923.712 2.799 2.02v3.93c0 6.608-1.26 11.957-2.817 11.96 6.608-.003 11.955-5.351 11.955-11.96v-3.93c-3.729-1.31-7.739-2.02-11.909-2.02z" fill="#d3ba2a"/><path d="m133.242 170c-.004 0-.007.001-.011.001h.017c-.002-.001-.004-.001-.006-.001z" fill="#d3ba2a"/><path d="m133.23 187.91h.001-.002z" fill="#d3ba2a"/><path d="m136.048 175.95v-3.93c-.877-1.307-1.819-2.016-2.799-2.02-.006 0-.011 0-.017 0-.988.005-1.934.724-2.817 2.049v3.9c0 6.609 1.26 11.958 2.815 11.96h.002c1.556-.002 2.816-5.351 2.816-11.959z" fill="#eee045"/><path d="m133.227 190.91c-8.243 0-14.95-6.711-14.95-14.96v-3.9c0-1.271.801-2.404 1.999-2.828 8.303-2.937 17.6-2.948 25.905-.031 1.202.422 2.006 1.557 2.006 2.83v3.93c0 8.248-6.711 14.959-14.96 14.959zm-8.951-16.668v1.708c0 4.94 4.015 8.96 8.95 8.96 4.94 0 8.96-4.02 8.96-8.96v-1.732c-5.798-1.626-12.114-1.617-17.91.024z" fill="#1c2d6b"/><path d="m169.276 214.9h-72c-1.657 0-3-1.343-3-3v-5.9c0-16.503 10.449-31.283 26-36.778 8.301-2.937 17.599-2.948 25.904-.031 5.478 1.914 10.555 5.106 14.677 9.229 7.364 7.376 11.419 17.171 11.419 27.581v5.9c0 1.657-1.342 2.999-3 2.999zm-69-6h66v-2.9c0-8.81-3.432-17.099-9.663-23.341-3.486-3.486-7.78-6.187-12.417-7.807-7.027-2.468-14.901-2.458-21.919.025-13.16 4.65-22.001 17.157-22.001 31.122z" fill="#1c2d6b"/><path d="m121.366 139.481c0-19.733 5.332-35.73 11.91-35.73-19.733 0-35.73 15.997-35.73 35.73s15.997 35.73 35.73 35.73c-6.578 0-11.91-15.997-11.91-35.73z" fill="#ede49d"/><path d="m133.276 103.752c6.578 0 11.91 15.997 11.91 35.73s-5.332 35.73-11.91 35.73c19.733 0 35.73-15.997 35.73-35.73s-15.997-35.73-35.73-35.73z" fill="#d3ba2a"/><ellipse cx="133.276" cy="139.481" fill="#eee045" rx="11.91" ry="35.73"/><circle cx="121.366" cy="146.883" fill="#1c2d6b" r="2.934"/><circle cx="145.186" cy="146.883" fill="#1c2d6b" r="2.934"/><path d="m133.276 158.858c-3.185 0-6.155-1.713-7.753-4.471-.831-1.434-.342-3.27 1.092-4.1 1.433-.831 3.268-.342 4.1 1.092.528.912 1.51 1.479 2.562 1.479 1.051 0 2.032-.566 2.561-1.479.829-1.434 2.666-1.923 4.1-1.092 1.434.83 1.923 2.666 1.092 4.1-1.599 2.759-4.57 4.471-7.754 4.471z" fill="#1c2d6b"/><path d="m133.276 178.211c-21.355 0-38.729-17.374-38.729-38.729s17.374-38.729 38.729-38.729 38.729 17.374 38.729 38.729-17.373 38.729-38.729 38.729zm0-71.459c-18.047 0-32.729 14.683-32.729 32.729s14.683 32.729 32.729 32.729 32.729-14.683 32.729-32.729-14.682-32.729-32.729-32.729z" fill="#1c2d6b"/><path d="m132.769 103.762c-16.045.224-29.526 11.021-33.8 25.741 2.478.96 5.331.625 7.525-1.047l1.06-.808c2.787-2.124 6.65-2.124 9.437 0l1.06.808c1.121.854 2.416 1.348 3.745 1.515 1.346-14.65 5.72-25.532 10.977-26.188-.001-.007-.003-.014-.004-.021z" fill="#ef7f72"/><path d="m133.721 103.761c0 .006-.002.012-.003.019 5.284.579 9.687 11.486 11.038 26.192 1.324-.169 2.616-.662 3.733-1.513l1.067-.813c2.786-2.123 6.647-2.123 9.433-.001l1.074.818c2.193 1.669 5.044 2.004 7.52 1.046-4.277-14.743-17.788-25.551-33.862-25.748z" fill="#e8383b"/><path d="m133.276 103.751c-5.479 0-10.092 11.105-11.48 26.22 1.976.249 4.025-.245 5.692-1.515l1.064-.811c2.786-2.123 6.648-2.123 9.435-.001l1.068.813c1.669 1.271 3.723 1.765 5.701 1.513-1.388-15.113-6-26.219-11.48-26.219z" fill="#e95947"/><path d="m164.729 133.047c-2.309 0-4.577-.748-6.482-2.198l-1.075-.818c-1.707-1.301-4.092-1.298-5.797.001l-1.068.813c-3.848 2.932-9.222 2.931-13.069.001l-1.068-.814c-1.706-1.298-4.09-1.3-5.798 0l-1.063.812c-3.851 2.932-9.228 2.933-13.074-.001l-1.06-.807c-1.709-1.303-4.095-1.302-5.802-.001l-1.06.808c-2.997 2.283-6.896 2.829-10.428 1.458-1.45-.562-2.23-2.14-1.797-3.634 4.772-16.436 20.064-27.914 37.188-27.914 17.125 0 32.417 11.48 37.188 27.919.434 1.494-.347 3.071-1.797 3.634-1.284.496-2.617.741-3.938.741zm-31.459-9.986c2.306 0 4.611.732 6.536 2.198l1.067.814c1.708 1.3 4.092 1.299 5.798-.001l1.068-.813c3.847-2.932 9.22-2.932 13.068-.002l1.075.818c.485.37 1.025.636 1.593.794-5.03-12.007-16.968-20.117-30.199-20.117-13.23 0-25.168 8.109-30.199 20.114.569-.158 1.111-.425 1.599-.797l1.06-.807c3.85-2.934 9.225-2.934 13.074 0l1.06.807c1.709 1.303 4.094 1.302 5.801.001l1.063-.811c1.924-1.465 4.23-2.198 6.536-2.198z" fill="#1c2d6b"/></svg>