<svg id="Layer_1" enable-background="new 0 0 256 256" height="512" viewBox="0 0 256 256" width="512" xmlns="http://www.w3.org/2000/svg"><path d="m207.323 180.288-22.676 15.113 2.483-1.655z" fill="#65bc49"/><path d="m221 186.987c0 .404-.039.802-.1 1.194.059-.393.1-.79.1-1.194z" fill="#65bc49"/><path d="m219.542 191.59c.671-.962 1.123-2.06 1.326-3.224-.069.381-.157.757-.277 1.122-.246.748-.601 1.455-1.049 2.102z" fill="#65bc49"/><path d="m218.643 192.666c-.264.266-.542.519-.846.748.304-.229.581-.482.846-.748z" fill="#65bc49"/><path d="m218.835 192.46c.21-.226.406-.462.587-.709-.18.248-.378.483-.587.709z" fill="#65bc49"/><path d="m137.246 209-31.573-14.97h-34.673v14.97h30.499c3.6 0 7.134.972 10.228 2.813l20.791 12.373c3.094 1.841 6.628 2.813 10.228 2.813h23.805c4.344 0 8.57-1.414 12.039-4.03l38.766-29.224-44.11 15.255z" fill="#d3ba2a"/><g fill="#eee045"><path d="m212.949 178.936c.556 0 1.098.056 1.622.164-.523-.107-1.066-.164-1.622-.164z"/><path d="m214.572 179.1c.524.107 1.03.265 1.511.469-.481-.204-.987-.362-1.511-.469z"/><path d="m207.323 180.288c.661-.441 1.38-.779 2.132-1.006-.752.227-1.471.565-2.132 1.006z"/><path d="m211.787 178.936c-.795 0-1.58.118-2.333.345.753-.227 1.539-.345 2.333-.345z"/><path d="m218.835 192.46c-.064.069-.125.139-.192.206.066-.067.128-.137.192-.206z"/><path d="m217.357 193.746.439-.33.001-.002-.001.002z"/><path d="m184.647 195.401-11.401 7.599z"/><path d="m219.542 191.59c-.038.055-.08.108-.119.162.039-.055.08-.107.119-.162z"/><path d="m220.9 188.182c-.009.062-.022.123-.033.184.012-.062.023-.122.033-.184z"/></g><path d="m121.608 179.58 39.26 12.863c-.272-1.173-.961-2.224-1.961-2.939l-37.299-26.642c-1.696-1.211-3.728-1.863-5.812-1.863h-44.796v17.725h44.795c2.085.001 4.117.3 5.813.856z" fill="#ede49d"/><path d="m216.083 179.569c-.482-.204-.987-.362-1.511-.469s-1.067-.164-1.622-.164h-1.162c-.794 0-1.58.118-2.333.345-.752.228-1.471.566-2.132 1.006l-20.193 13.458-2.483 1.655-11.401 7.6h-12.246-8.82c4.871 0 8.82-3.949 8.82-8.82v-.607c0-.385-.047-.763-.132-1.13l-39.26-12.863c-1.696-.556-3.728-.854-5.812-.854h-44.796v15.304h34.672l31.574 14.97h36l44.111-15.254.439-.331s.001-.001.001-.001c.303-.229.582-.482.846-.748.067-.067.128-.137.192-.206.209-.226.407-.462.587-.709.04-.054.081-.107.119-.162.448-.647.804-1.353 1.049-2.102.12-.365.208-.741.277-1.122.011-.062.023-.123.033-.184.061-.393.1-.791.1-1.194 0-3.335-2.027-6.196-4.917-7.418z" fill="#eee045"/><path d="m35 154.726h12v60.274h-12z" fill="#a4d4a0"/><path d="m59 154.726h12v60.274h-12z" fill="#419b46"/><path d="m47 154.726h12v60.274h-12z" fill="#65bc49"/><path d="m71 218h-36c-1.657 0-3-1.343-3-3v-60.274c0-1.657 1.343-3 3-3h36c1.657 0 3 1.343 3 3v60.274c0 1.657-1.343 3-3 3zm-33-6h30v-54.274h-30z" fill="#1c2d6b"/><path d="m179.125 130.611-7.649-43.377c-.235-1.332-.671-2.57-1.208-3.432l-14.903-20.915c-1.074-1.723-1.946-4.199-2.416-6.864l-3.111-17.646-23.302 4.109 3.111 17.646c.47 2.664 1.999 5.025 4.239 6.542l31.87 17.923c1.12.759 1.885 1.939 2.12 3.271l7.649 43.377-13.675 8.502 1.042 5.91 12.568-2.216-1.042-5.91z" fill="#89aadb"/><path d="m179.716 33.109 3.111 17.646c.47 2.665.498 5.29.078 7.276l-6.852 24.749c-.21.993-.196 2.306.039 3.638l7.649 43.379 6.791 4.895 1.042 5.909 12.568-2.216-1.042-5.909-15.759-3.314-7.649-43.379c-.235-1.332.08-2.703.873-3.799l23.818-27.74c1.586-2.192 2.216-4.933 1.746-7.598l-3.111-17.646z" fill="#4b67b0"/><path d="m183.741 129.797-7.649-43.379c-.235-1.332-.249-2.645-.039-3.638l6.852-24.749c.42-1.987.392-4.612-.078-7.276l-3.111-17.646-29.878 5.268 3.111 17.646c.47 2.664 1.341 5.141 2.416 6.864l14.903 20.915c.537.862.973 2.1 1.208 3.432l7.649 43.377-4.708 6.921 1.042 5.91 16.115-2.842-1.042-5.909z" fill="#6287c5"/><path d="m181.786 44.846 1.042 5.909c.47 2.665.498 5.29.078 7.276l-6.745 24.362 4.777-.842 23.446-27.307c1.586-2.192 2.216-4.933 1.746-7.598l-1.042-5.909z" fill="#e8383b"/><path d="m152.95 56.023-1.042-5.909-23.302 4.109 1.042 5.909c.47 2.664 1.999 5.025 4.239 6.542l31.369 17.641 4.779-.843-14.669-20.586c-1.075-1.722-1.947-4.198-2.416-6.863z" fill="#ef7f72"/><path d="m182.828 50.754-1.042-5.909-29.878 5.268 1.042 5.909c.47 2.664 1.341 5.141 2.416 6.864l14.669 20.586 6.126-1.08 6.745-24.362c.42-1.986.391-4.611-.078-7.276z" fill="#e95947"/><path d="m162.892 148.658c-.611 0-1.213-.187-1.721-.542-.651-.457-1.096-1.153-1.233-1.937l-1.042-5.91c-.213-1.207.329-2.422 1.37-3.069l11.952-7.431-7.296-41.379c-.088-.498-.367-.95-.771-1.253l-31.735-17.848c-.072-.041-.143-.084-.212-.131-2.896-1.961-4.904-5.062-5.511-8.505l-3.111-17.646c-.288-1.632.802-3.188 2.434-3.476l76.482-13.486c.78-.137 1.589.041 2.241.497.651.457 1.096 1.153 1.233 1.937l3.111 17.646c.607 3.444-.22 7.044-2.27 9.877-.049.067-.101.133-.154.196l-23.718 27.624c-.275.423-.383.942-.295 1.439l7.297 41.382 13.773 2.897c1.199.252 2.124 1.208 2.337 2.415l1.042 5.909c.139.784-.04 1.59-.497 2.242-.456.652-1.152 1.096-1.937 1.234l-41.251 7.273c-.171.03-.345.045-.518.045zm2.264-7.433.169.958 35.342-6.231-.169-.957-13.773-2.897c-1.199-.252-2.124-1.208-2.337-2.415l-7.648-43.379c-.375-2.118.135-4.333 1.396-6.078.049-.067.101-.133.154-.196l23.729-27.637c1.056-1.511 1.478-3.409 1.157-5.226l-2.591-14.691-70.573 12.444 2.59 14.691c.32 1.817 1.365 3.457 2.874 4.516l31.751 17.856c.072.041.143.084.212.131 1.781 1.207 3.018 3.114 3.392 5.233l7.648 43.378c.213 1.207-.329 2.422-1.37 3.069z" fill="#1c2d6b"/><path d="m165.255 87.316c-.513 0-1.019-.131-1.471-.385l-31.368-17.642c-.072-.041-.143-.084-.212-.131-2.896-1.961-4.904-5.062-5.511-8.505l-1.042-5.909c-.139-.784.04-1.59.497-2.242.456-.652 1.152-1.096 1.937-1.234l76.482-13.486c1.631-.282 3.187.802 3.475 2.434l1.042 5.909c.607 3.444-.22 7.044-2.27 9.877-.049.067-.101.133-.154.196l-23.445 27.307c-.452.526-1.072.88-1.756 1l-15.684 2.766c-.172.03-.346.045-.52.045zm-29.779-23.19 30.314 17.049 13.571-2.393 22.657-26.39c1.056-1.511 1.478-3.409 1.157-5.226l-.521-2.954-70.573 12.444.521 2.955c.32 1.817 1.365 3.456 2.874 4.515z" fill="#1c2d6b"/><path d="m86.885 130.611 7.649-43.377c.235-1.332.671-2.57 1.208-3.432l14.903-20.915c1.074-1.723 1.946-4.199 2.416-6.864l3.111-17.646 23.302 4.109-3.111 17.646c-.47 2.664-1.999 5.025-4.239 6.542l-31.87 17.923c-1.12.759-1.885 1.939-2.12 3.271l-7.649 43.377 13.675 8.502-1.042 5.91-12.568-2.216 1.042-5.91z" fill="#89aadb"/><path d="m86.293 33.109-3.111 17.646c-.47 2.665-.498 5.29-.078 7.276l6.852 24.749c.21.993.196 2.306-.039 3.638l-7.649 43.379-6.791 4.895-1.042 5.909-12.568-2.216 1.042-5.909 15.759-3.314 7.649-43.379c.235-1.332-.08-2.703-.873-3.799l-23.818-27.74c-1.586-2.192-2.216-4.933-1.746-7.598l3.111-17.646z" fill="#4b67b0"/><path d="m82.268 129.797 7.649-43.379c.235-1.332.249-2.645.039-3.638l-6.852-24.749c-.42-1.987-.392-4.612.078-7.276l3.111-17.646 29.878 5.268-3.111 17.646c-.47 2.664-1.341 5.141-2.416 6.864l-14.903 20.915c-.537.862-.973 2.1-1.208 3.432l-7.649 43.377 4.708 6.921-1.042 5.91-16.115-2.842 1.042-5.909z" fill="#6287c5"/><path d="m84.224 44.846-1.042 5.909c-.47 2.665-.498 5.29-.078 7.276l6.745 24.362-4.777-.842-23.446-27.307c-1.586-2.192-2.216-4.933-1.746-7.598l1.042-5.909z" fill="#e8383b"/><path d="m113.06 56.023 1.042-5.909 23.302 4.109-1.042 5.909c-.47 2.664-1.999 5.025-4.239 6.542l-31.369 17.641-4.779-.843 14.669-20.586c1.075-1.722 1.946-4.198 2.416-6.863z" fill="#ef7f72"/><path d="m83.182 50.754 1.042-5.909 29.878 5.268-1.042 5.909c-.47 2.664-1.341 5.141-2.416 6.864l-14.669 20.587-6.126-1.08-6.745-24.362c-.42-1.987-.392-4.612.078-7.277z" fill="#e95947"/><path d="m103.118 148.658c-.174 0-.348-.015-.521-.045l-41.251-7.273c-.784-.138-1.48-.582-1.937-1.234s-.636-1.458-.497-2.242l1.042-5.909c.213-1.207 1.138-2.163 2.337-2.415l13.773-2.897 7.297-41.381c.088-.498-.02-1.017-.295-1.44l-23.716-27.624c-.054-.063-.105-.128-.154-.196-2.05-2.833-2.877-6.434-2.27-9.877l3.111-17.646c.138-.784.582-1.48 1.233-1.937.653-.457 1.461-.633 2.241-.497l76.482 13.486c1.632.288 2.722 1.844 2.434 3.476l-3.111 17.646c-.606 3.444-2.615 6.544-5.511 8.505-.069.046-.14.09-.212.131l-31.735 17.848c-.403.303-.683.755-.771 1.254l-7.296 41.378 11.952 7.431c1.041.647 1.583 1.862 1.37 3.069l-1.042 5.91c-.138.784-.582 1.48-1.233 1.937-.507.355-1.109.542-1.72.542zm-37.775-12.707 35.342 6.231.169-.958-11.952-7.431c-1.041-.647-1.583-1.862-1.37-3.069l7.648-43.377c.374-2.12 1.61-4.027 3.392-5.234.069-.046.14-.09.212-.131l31.751-17.856c1.509-1.059 2.554-2.698 2.874-4.516l2.59-14.691-70.574-12.443-2.591 14.691c-.32 1.817.102 3.715 1.157 5.226l23.729 27.637c.054.063.105.128.154.196 1.262 1.745 1.771 3.96 1.396 6.079l-7.648 43.378c-.213 1.207-1.138 2.163-2.337 2.415l-13.773 2.897z" fill="#1c2d6b"/><path d="m100.754 87.316c-.174 0-.348-.015-.521-.045l-15.683-2.766c-.683-.121-1.303-.474-1.755-1l-23.445-27.307c-.054-.063-.105-.128-.154-.196-2.05-2.833-2.877-6.434-2.27-9.877l1.042-5.909c.288-1.633 1.854-2.715 3.475-2.434l76.482 13.486c.784.138 1.48.582 1.937 1.234s.636 1.458.497 2.242l-1.042 5.909c-.606 3.444-2.615 6.544-5.511 8.505-.069.046-.14.09-.212.131l-31.369 17.642c-.453.254-.959.385-1.471.385zm-14.106-8.534 13.57 2.393 30.315-17.049c1.509-1.059 2.554-2.698 2.874-4.515l.521-2.955-70.573-12.444-.521 2.954c-.32 1.817.102 3.715 1.157 5.226z" fill="#1c2d6b"/><path d="m166.552 230h-23.805c-4.139 0-8.206-1.119-11.763-3.235l-20.791-12.373c-2.63-1.564-5.636-2.392-8.694-2.392h-30.499c-1.657 0-3-1.343-3-3v-48c0-1.657 1.343-3 3-3h44.795c2.727 0 5.34.837 7.557 2.422l37.299 26.641c2.098 1.499 3.35 3.933 3.35 6.51v.606c0 2.114-.559 4.101-1.535 5.82h9.873l33.32-22.208c1.821-1.213 3.94-1.855 6.129-1.855h1.162c6.094 0 11.051 4.958 11.051 11.051 0 3.449-1.645 6.748-4.398 8.824l-39.205 29.555c-3.965 2.988-8.882 4.634-13.846 4.634zm-92.552-24h27.499c4.138 0 8.205 1.119 11.763 3.235l20.791 12.373c2.629 1.564 5.635 2.392 8.694 2.392h23.805c3.669 0 7.304-1.216 10.233-3.425l39.205-29.555c1.259-.949 2.01-2.457 2.01-4.033 0-2.785-2.266-5.051-5.051-5.051h-1.162c-1 0-1.969.293-2.801.848l-34.076 22.712c-.493.328-1.072.503-1.664.503h-21.066c-2.535 0-5.05-.836-7.08-2.355l-21.896-16.381c-1.327-.993-1.598-2.873-.605-4.199.992-1.328 2.873-1.598 4.199-.605l21.896 16.381c1 .748 2.238 1.16 3.486 1.16 3.209 0 5.82-2.611 5.82-5.82v-.606c0-.645-.313-1.253-.838-1.628l-37.299-26.641c-1.193-.854-2.601-1.304-4.068-1.304h-41.795z" fill="#1c2d6b"/></svg>