<svg id="Layer_1" enable-background="new 0 0 256 256" height="512" viewBox="0 0 256 256" width="512" xmlns="http://www.w3.org/2000/svg"><path d="m92 196.026v-22.053c0-10.478 8.495-18.973 18.974-18.973h-42.974c-16.569 0-30 13.431-30 30 0 16.569 13.431 30 30 30h42.974c-10.479 0-18.974-8.495-18.974-18.974z" fill="#a4d4a0"/><path d="m188 155h-42.974c10.479 0 18.974 8.495 18.974 18.974v22.053c0 10.479-8.495 18.974-18.974 18.974h42.974c16.569 0 30-13.431 30-30 0-16.57-13.431-30.001-30-30.001z" fill="#419b46"/><path d="m164 196.026v-22.053c0-10.479-8.495-18.974-18.974-18.974h-34.053c-10.478.001-18.973 8.496-18.973 18.975v22.053c0 10.478 8.495 18.973 18.974 18.973h34.053c10.478 0 18.973-8.495 18.973-18.974z" fill="#65bc49"/><path d="m104 185c0 5.04-6.21 9.35-15 11.13-2.78.56-5.82.87-9 .87s-6.22-.31-9-.87c-8.79-1.78-15-6.09-15-11.13s6.21-9.35 15-11.13c2.78-.56 5.82-.87 9-.87s6.22.31 9 .87c8.79 1.78 15 6.09 15 11.13z" fill="#6287c5"/><path d="m188 218h-120c-18.196 0-33-14.804-33-33s14.804-33 33-33h120c18.196 0 33 14.804 33 33s-14.804 33-33 33zm-120-60c-14.888 0-27 12.112-27 27s12.112 27 27 27h120c14.888 0 27-12.112 27-27s-12.112-27-27-27z" fill="#1c2d6b"/><path d="m80 200c-3.304 0-6.532-.312-9.592-.929-10.739-2.175-17.408-7.566-17.408-14.071s6.669-11.896 17.405-14.07c6.127-1.234 13.066-1.234 19.188 0 10.738 2.174 17.407 7.565 17.407 14.07s-6.669 11.896-17.405 14.07c-3.063.618-6.291.93-9.595.93zm0-24c-2.907 0-5.736.273-8.408.811-7.295 1.477-12.592 4.921-12.592 8.189s5.297 6.712 12.595 8.189c5.338 1.075 11.469 1.076 16.812 0 7.296-1.477 12.593-4.921 12.593-8.189s-5.297-6.712-12.595-8.189c-2.669-.538-5.498-.811-8.405-.811z" fill="#1c2d6b"/><path d="m103.91 60.476-14.911-8.993v30.759 30.758l14.911-8.993v-21.765z" fill="#ef7f72"/><path d="m111.105 99.668 28.895-17.426-28.895-17.427 9.405 17.427z" fill="#e8383b"/><path d="m120.51 82.242-9.405-17.427-7.195-4.339v21.766 21.765l7.195-4.339z" fill="#e95947"/><path d="m88.999 116c-.508 0-1.017-.129-1.475-.388-.942-.532-1.525-1.53-1.525-2.612v-61.517c0-1.082.583-2.08 1.525-2.612.941-.533 2.098-.516 3.024.043l51.001 30.758c.9.543 1.451 1.518 1.451 2.569s-.551 2.026-1.451 2.569l-51.001 30.758c-.476.288-1.013.432-1.549.432zm3-59.204v50.892l42.193-25.446z" fill="#1c2d6b"/><path d="m158 125c4.554 0 8.247 10.745 8.247 24s-3.692 24-8.247 24c13.255 0 24-10.745 24-24s-10.745-24-24-24z" fill="#4b67b0"/><path d="m149.753 149c0-13.255 3.692-24 8.247-24-13.255 0-24 10.745-24 24s10.745 24 24 24c-4.554 0-8.247-10.745-8.247-24z" fill="#89aadb"/><ellipse cx="158" cy="149" fill="#6287c5" rx="8.247" ry="24"/><path d="m158 176c-14.888 0-27-12.112-27-27s12.112-27 27-27 27 12.112 27 27-12.112 27-27 27zm0-48c-11.579 0-21 9.42-21 21s9.421 21 21 21 21-9.42 21-21-9.421-21-21-21z" fill="#1c2d6b"/><path d="m134 173h15.753v12h-15.753z" fill="#ede49d"/><path d="m152 185 6 18-2.062-18z" fill="#ede49d"/><path d="m166.247 173h15.753v12h-15.753z" fill="#d3ba2a"/><path d="m158 203 6-18h-3.938z" fill="#d3ba2a"/><path d="m149.753 173v12h2.247 3.938l2.062 18 2.062-18h3.938 2.247v-12z" fill="#eee045"/><path d="m182 188h-48c-1.657 0-3-1.343-3-3v-12c0-1.657 1.343-3 3-3h48c1.657 0 3 1.343 3 3v12c0 1.657-1.343 3-3 3zm-45-6h42v-6h-42z" fill="#1c2d6b"/><path d="m158 206c-1.291 0-2.438-.826-2.846-2.051l-6-18c-.306-.915-.152-1.92.412-2.703.563-.783 1.47-1.246 2.434-1.246h12c.964 0 1.87.463 2.434 1.246.564.782.718 1.788.412 2.703l-6 18c-.408 1.225-1.555 2.051-2.846 2.051zm-1.838-18 1.838 5.513 1.838-5.513z" fill="#1c2d6b"/><path d="m77.859 50c0-4.97.959-9 2.141-9-4.97 0-9 4.03-9 9v146.13c2.78.56 5.82.87 9 .87-.757 0-1.48-.31-2.141-.87z" fill="#ede49d"/><path d="m86.36 43.64c-1.62-1.63-3.88-2.64-6.36-2.64.59 0 1.128 1.01 1.513 2.64.388 1.62.628 3.88.628 6.36v146.13c-.661.56-1.384.87-2.141.87 3.18 0 6.22-.31 9-.87v-146.13c0-2.48-1.01-4.74-2.64-6.36z" fill="#d3ba2a"/><path d="m82.141 50c0-2.48-.24-4.74-.628-6.36-.385-1.63-.923-2.64-1.513-2.64-1.183 0-2.141 4.03-2.141 9v146.13c.661.56 1.384.87 2.141.87s1.48-.31 2.141-.87z" fill="#eee045"/><path d="m80 200c-3.304 0-6.532-.312-9.592-.929-1.4-.282-2.408-1.512-2.408-2.941v-146.13c0-6.617 5.383-12 12-12 3.214 0 6.229 1.252 8.488 3.525 2.26 2.246 3.512 5.261 3.512 8.475v146.13c0 1.429-1.007 2.659-2.408 2.941-3.06.617-6.288.929-9.592.929zm9-3.87h.01zm-15-2.534c3.886.537 8.114.537 12 0v-143.596c0-1.604-.623-3.107-1.755-4.232-1.138-1.145-2.641-1.768-4.245-1.768-3.309 0-6 2.691-6 6z" fill="#1c2d6b"/></svg>