<svg id="Layer_1" enable-background="new 0 0 256 256" height="512" viewBox="0 0 256 256" width="512" xmlns="http://www.w3.org/2000/svg"><path d="m163.892 221.644v-120.048c0-3.301 2.676-5.976 5.976-5.976h-22.976c-5.523 0-10 4.477-10 10v112c0 5.523 4.477 10 10 10h22.976c-3.3 0-5.976-2.676-5.976-5.976z" fill="#89aadb"/><path d="m210.892 95.62h-22.976c3.301 0 5.976 2.676 5.976 5.976v120.048c0 3.301-2.676 5.976-5.976 5.976h22.976c5.523 0 10-4.477 10-10v-112c0-5.523-4.477-10-10-10z" fill="#4b67b0"/><path d="m193.892 221.644v-120.048c0-3.301-2.676-5.976-5.976-5.976h-18.048c-3.301 0-5.976 2.676-5.976 5.976v120.048c0 3.301 2.676 5.976 5.976 5.976h18.048c3.301 0 5.976-2.676 5.976-5.976z" fill="#6287c5"/><path d="m210.893 230.62h-64c-7.168 0-13-5.832-13-13v-112c0-7.168 5.832-13 13-13h64c7.168 0 13 5.832 13 13v112c0 7.168-5.832 13-13 13zm-64-132c-3.859 0-7 3.14-7 7v112c0 3.86 3.141 7 7 7h64c3.859 0 7-3.14 7-7v-112c0-3.86-3.141-7-7-7z" fill="#1c2d6b"/><path d="m178.892 107.62c2.682 0 4.855 6.716 4.855 15s-2.174 15-4.855 15c8.284 0 15-6.716 15-15s-6.715-15-15-15z" fill="#419b46"/><path d="m174.037 122.62c0-8.284 2.174-15 4.855-15-8.284 0-15 6.716-15 15s6.716 15 15 15c-2.681 0-4.855-6.716-4.855-15z" fill="#a4d4a0"/><ellipse cx="178.892" cy="122.62" fill="#65bc49" rx="4.855" ry="15"/><path d="m178.892 155.62c6.627 0 12 13.431 12 30s-5.373 30-12 30c16.569 0 30-13.431 30-30s-13.431-30-30-30z" fill="#419b46"/><path d="m166.892 185.62c0-16.569 5.373-30 12-30-16.569 0-30 13.431-30 30s13.431 30 30 30c-6.627 0-12-13.432-12-30z" fill="#a4d4a0"/><ellipse cx="178.892" cy="185.62" fill="#65bc49" rx="12" ry="30"/><g fill="#1c2d6b"><path d="m178.893 140.62c-9.925 0-18-8.075-18-18s8.075-18 18-18 18 8.075 18 18-8.076 18-18 18zm0-30c-6.617 0-12 5.383-12 12s5.383 12 12 12 12-5.383 12-12-5.383-12-12-12z"/><circle cx="178.892" cy="122.62" r="4.855"/><circle cx="178.892" cy="185.62" r="4.855"/><path d="m178.893 218.62c-18.196 0-33-14.804-33-33s14.804-33 33-33 33 14.804 33 33-14.804 33-33 33zm0-60c-14.888 0-27 12.112-27 27s12.112 27 27 27 27-12.112 27-27-12.113-27-27-27z"/><path d="m178.893 206.62c-11.579 0-21-9.42-21-21s9.421-21 21-21 21 9.42 21 21-9.421 21-21 21zm0-36c-8.271 0-15 6.729-15 15s6.729 15 15 15 15-6.729 15-15-6.729-15-15-15z"/><path d="m208.893 218.62c-.768 0-1.535-.293-2.121-.878l-2.82-2.82c-1.172-1.171-1.172-3.071 0-4.243 1.17-1.172 3.07-1.171 4.242 0l2.82 2.82c1.172 1.171 1.172 3.071 0 4.243-.585.585-1.354.878-2.121.878z"/><path d="m151.712 161.44c-.768 0-1.536-.293-2.122-.879l-2.819-2.82c-1.171-1.172-1.171-3.071.001-4.243 1.172-1.171 3.071-1.171 4.243 0l2.819 2.82c1.171 1.172 1.171 3.071-.001 4.243-.586.586-1.354.879-2.121.879z"/><path d="m148.893 218.62c-.768 0-1.535-.293-2.121-.878-1.172-1.171-1.172-3.071 0-4.243l2.819-2.82c1.17-1.172 3.07-1.171 4.242 0s1.172 3.071 0 4.243l-2.819 2.82c-.585.585-1.354.878-2.121.878z"/><path d="m206.072 161.44c-.768 0-1.535-.293-2.121-.879-1.172-1.171-1.172-3.071 0-4.242l2.82-2.82c1.172-1.172 3.07-1.172 4.242 0 1.172 1.171 1.172 3.071 0 4.242l-2.82 2.82c-.586.586-1.353.879-2.121.879z"/></g><path d="m61.526 176.743c3.842-6.654 8.659-12.382 13.392-15.923l.897-.671c4.082-3.054 7.881-9.634 8.485-14.697.29-2.431 1.347-5.345 2.938-8.102l.515-.892c9.941-17.218 23.982-27.723 31.362-23.463-17.219-9.941-39.236-4.042-49.177 13.177l-.515.892c-1.591 2.756-2.023 6.032-1.199 9.106 1.715 6.402-2.084 12.982-8.485 14.697l-1.406.377c-7.422 1.989-13.749 6.844-17.591 13.498-11.598 20.088-4.715 45.775 15.373 57.373-8.61-4.97-6.187-25.284 5.411-45.372z" fill="#ef7f72"/><path d="m116.382 184.759-.377-1.406c-1.715-6.402 2.084-12.982 8.485-14.697 3.074-.824 5.695-2.835 7.286-5.591l.515-.892c9.941-17.218 4.042-39.236-13.177-49.177 7.379 4.26 5.303 21.673-4.638 38.891l-.515.892c-1.591 2.756-3.587 5.129-5.547 6.595-4.082 3.054-7.881 9.634-8.485 14.697l-.133 1.112c-.7 5.869-3.252 12.905-7.093 19.559-11.598 20.088-27.979 32.344-36.588 27.373 20.088 11.598 45.775 4.715 57.373-15.373 3.842-6.653 4.883-14.561 2.894-21.983z" fill="#e8383b"/><path d="m92.703 194.743c3.842-6.654 6.393-13.69 7.093-19.559l.133-1.112c.604-5.063 4.403-11.643 8.485-14.697 1.96-1.467 3.956-3.839 5.547-6.595l.515-.892c9.941-17.218 12.018-34.631 4.638-38.891-7.379-4.26-21.42 6.244-31.362 23.463l-.515.892c-1.591 2.756-2.648 5.67-2.938 8.102-.604 5.063-4.403 11.643-8.485 14.697l-.897.671c-4.733 3.541-9.55 9.268-13.392 15.923-11.598 20.088-14.021 40.402-5.412 45.373s24.992-7.287 36.59-27.375z" fill="#e95947"/><path d="m77.039 230.734c-7.63 0-15.354-1.938-22.424-6.02-21.489-12.407-28.878-39.982-16.472-61.471 4.27-7.396 11.164-12.686 19.413-14.896l1.406-.376c4.793-1.285 7.648-6.229 6.364-11.023-1.038-3.869-.506-7.911 1.497-11.382l.515-.892c5.209-9.022 13.619-15.475 23.682-18.171 10.064-2.697 20.572-1.312 29.594 3.896 18.624 10.752 25.027 34.651 14.275 53.275l-.514.891c-2.005 3.471-5.239 5.953-9.109 6.99-4.793 1.284-7.648 6.229-6.364 11.022l.377 1.406c2.21 8.249 1.076 16.864-3.192 24.26-8.326 14.419-23.484 22.491-39.048 22.491zm24.131-119.554c-11.414 0-22.528 5.918-28.635 16.494l-.514.891c-1.202 2.083-1.521 4.508-.899 6.83 2.141 7.99-2.617 16.231-10.606 18.372l-1.406.377c-6.701 1.795-12.302 6.092-15.771 12.1-10.752 18.624-4.348 42.522 14.275 53.275 9.022 5.209 19.533 6.591 29.595 3.896 10.062-2.696 18.472-9.15 23.681-18.171 3.468-6.008 4.39-13.006 2.595-19.707l-.377-1.406c-2.141-7.99 2.618-16.231 10.606-18.372 2.322-.622 4.263-2.111 5.466-4.194l.514-.891c9.099-15.759 3.68-35.981-12.078-45.079-5.184-2.993-10.851-4.415-16.446-4.415zm23.32 57.476h.01z" fill="#1c2d6b"/><path d="m104.115 138.977c2.87 1.657 1.838 8.816-2.304 15.99s-9.826 11.647-12.696 9.99c7.174 4.142 16.348 1.684 20.49-5.49s1.684-16.348-5.49-20.49z" fill="#4b67b0"/><path d="m91.419 148.968c4.142-7.174 9.826-11.647 12.696-9.99-7.174-4.142-16.348-1.684-20.49 5.49s-1.684 16.348 5.49 20.49c-2.87-1.657-1.839-8.816 2.304-15.99z" fill="#89aadb"/><ellipse cx="96.615" cy="151.968" fill="#6287c5" rx="15" ry="6" transform="matrix(.5 -.866 .866 .5 -83.301 159.655)"/><path d="m96.584 169.964c-3.052 0-6.142-.775-8.97-2.408-8.595-4.963-11.551-15.993-6.589-24.588 4.964-8.596 15.994-11.551 24.589-6.589 8.596 4.962 11.552 15.993 6.59 24.589-.001 0-.001 0-.001 0-3.33 5.767-9.393 8.996-15.619 8.996zm.051-29.994c-4.15 0-8.192 2.152-10.413 5.998-3.308 5.73-1.337 13.084 4.393 16.392 5.729 3.308 13.084 1.339 16.394-4.392h-.001c3.309-5.73 1.338-13.084-4.393-16.393-1.886-1.088-3.946-1.605-5.98-1.605zm12.97 19.498h.01z" fill="#1c2d6b"/><path d="m75.507 196.135h12v12h-12z" fill="#419b46" transform="matrix(.5 -.866 .866 .5 -134.301 171.655)"/><path d="m54.722 184.135h12v12h-12z" fill="#a4d4a0" transform="matrix(.5 -.866 .866 .5 -134.301 147.655)"/><path d="m65.115 190.135h12v12h-12z" fill="#65bc49" transform="matrix(.5 -.866 .866 .5 -134.301 159.655)"/><path d="m83.7 213.332c-.509 0-1.024-.129-1.497-.402l-31.177-18c-.689-.398-1.191-1.053-1.397-1.822s-.099-1.587.3-2.276l6-10.392c.829-1.434 2.662-1.927 4.098-1.098l31.177 18c.689.398 1.191 1.053 1.397 1.822s.099 1.587-.3 2.276l-6 10.392c-.556.961-1.564 1.5-2.601 1.5zm-27.076-22.099 25.981 15 3-5.196-25.981-15z" fill="#1c2d6b"/><path d="m160.651 33.054-6.929-4-14.196 12.589-3.804 18.588 6.929 4 7.268-16.588z" fill="#a4d4a0"/><path d="m174.507 41.054-6.928-4-7.268 16.589-10.732 14.588 6.928 4 14.196-12.588z" fill="#419b46"/><path d="m167.579 37.054-6.928-4-10.732 14.589-7.268 16.588 6.928 4 10.732-14.588z" fill="#65bc49"/><path d="m156.506 75.231c-.515 0-1.032-.132-1.499-.402l-20.784-12c-1.118-.646-1.698-1.935-1.439-3.2l3.804-18.588c.131-.636.464-1.212.949-1.643l14.196-12.588c.966-.856 2.372-.999 3.49-.354l20.784 12c1.118.646 1.698 1.935 1.439 3.2l-3.804 18.588c-.131.636-.464 1.212-.949 1.643l-14.196 12.588c-.562.499-1.273.756-1.991.756zm-17.41-16.517 17.039 9.838 11.83-10.49 3.169-15.49-17.039-9.838-11.83 10.49z" fill="#1c2d6b"/><path d="m148.987 36.251c-.509 0-1.024-.129-1.497-.402l-8.66-5c-1.435-.829-1.927-2.663-1.098-4.098.828-1.434 2.662-1.927 4.098-1.098l8.66 5c1.435.829 1.927 2.663 1.098 4.098-.556.962-1.564 1.5-2.601 1.5z" fill="#1c2d6b"/><path d="m181.896 55.251c-.509 0-1.024-.129-1.497-.402l-8.66-5c-1.435-.829-1.927-2.663-1.098-4.098.828-1.435 2.662-1.927 4.098-1.098l8.66 5c1.435.829 1.927 2.663 1.098 4.098-.556.962-1.563 1.5-2.601 1.5z" fill="#1c2d6b"/><path d="m137.153 54.748c-.509 0-1.024-.129-1.497-.402l-8.66-5c-1.435-.829-1.927-2.663-1.098-4.098.828-1.434 2.662-1.927 4.098-1.098l8.66 5c1.435.829 1.927 2.663 1.098 4.098-.556.961-1.564 1.5-2.601 1.5z" fill="#1c2d6b"/><path d="m171.795 74.748c-.509 0-1.024-.129-1.497-.402l-8.66-5c-1.435-.829-1.927-2.663-1.098-4.098.828-1.434 2.662-1.927 4.098-1.098l8.66 5c1.435.829 1.927 2.663 1.098 4.098-.556.961-1.564 1.5-2.601 1.5z" fill="#1c2d6b"/><path d="m135.722 60.231-45.014 77.966c2.9-1.241 6.159-1.542 9.303-.814l42.335-73.327z" fill="#ede49d"/><path d="m149.882 68.406-42.335 73.327c2.202 2.359 3.571 5.332 3.946 8.463l45.014-77.966z" fill="#d3ba2a"/><path d="m142.347 64.056-42.335 73.327c1.405.325 2.789.835 4.103 1.594 1.315.759 2.448 1.702 3.432 2.756l42.335-73.327z" fill="#eee045"/><path d="m74.111 193.939c-.509 0-1.024-.129-1.497-.402-1.435-.829-1.927-2.663-1.098-4.098l72-124.708c.829-1.434 2.662-1.927 4.098-1.098 1.435.829 1.927 2.663 1.098 4.098l-72 124.708c-.556.962-1.564 1.5-2.601 1.5z" fill="#1c2d6b"/><path d="m111.494 153.197c-.2 0-.402-.02-.604-.061-1.266-.259-2.223-1.3-2.376-2.582-.456-3.805-2.606-7.078-5.9-8.979-3.292-1.902-7.203-2.126-10.725-.62-1.189.509-2.567.2-3.425-.767-.857-.966-1-2.373-.354-3.491l45.014-77.966c.397-.689 1.053-1.192 1.821-1.398s1.588-.098 2.276.3l20.784 12c1.435.829 1.927 2.663 1.098 4.098l-45.014 77.966c-.541.941-1.539 1.5-2.595 1.5zm-5.88-16.818c2.797 1.614 5.044 3.884 6.593 6.583l40.202-69.632-15.589-9-40.201 69.632h.044c3.096-.001 6.168.81 8.951 2.417z" fill="#1c2d6b"/><path d="m63.72 187.939c-.509 0-1.024-.129-1.497-.402-1.435-.829-1.927-2.663-1.098-4.098l18-31.177c.828-1.435 2.662-1.927 4.098-1.098 1.435.829 1.927 2.663 1.098 4.098l-18 31.177c-.556.962-1.564 1.5-2.601 1.5z" fill="#1c2d6b"/><path d="m84.504 199.939c-.509 0-1.024-.129-1.497-.402-1.435-.829-1.927-2.663-1.098-4.098l18-31.177c.829-1.434 2.663-1.927 4.098-1.098s1.927 2.663 1.098 4.098l-18 31.177c-.556.962-1.564 1.5-2.601 1.5z" fill="#1c2d6b"/></svg>