<svg id="Layer_1" enable-background="new 0 0 256 256" height="512" viewBox="0 0 256 256" width="512" xmlns="http://www.w3.org/2000/svg"><path d="m21.43 47.551h40.332v107.852h-40.332z" fill="#ede49d"/><path d="m119.378 47.551h40.332v107.852h-40.332z" fill="#d3ba2a"/><path d="m61.762 47.551h57.617v107.852h-57.617z" fill="#eee045"/><path d="m159.71 158.403h-138.28c-1.657 0-3-1.343-3-3v-107.852c0-1.657 1.343-3 3-3h138.28c1.657 0 3 1.343 3 3v107.852c0 1.657-1.343 3-3 3zm-135.28-6h132.28v-101.852h-132.28z" fill="#1c2d6b"/><path d="m21.43 47.551h40.332v23.852h-40.332z" fill="#ef7f72"/><path d="m119.378 47.551h40.332v23.852h-40.332z" fill="#e8383b"/><path d="m61.762 47.551h57.617v23.852h-57.617z" fill="#e95947"/><path d="m159.71 74.403h-138.28c-1.657 0-3-1.343-3-3v-23.852c0-1.657 1.343-3 3-3h138.28c1.657 0 3 1.343 3 3v23.852c0 1.657-1.343 3-3 3zm-135.28-6h132.28v-17.852h-132.28z" fill="#1c2d6b"/><g fill="#e95947"><path d="m129.71 89.403h12v12h-12z"/><path d="m99.71 89.403h12v12h-12z"/><path d="m69.71 89.403h12v12h-12z"/><path d="m39.71 89.403h12v12h-12z"/><path d="m69.71 125.403h12v12h-12z"/><path d="m99.71 125.403h12v12h-12z"/><path d="m129.71 125.403h12v12h-12z"/></g><path d="m111.71 140.403h-12c-1.657 0-3-1.343-3-3v-12c0-1.657 1.343-3 3-3h12c1.657 0 3 1.343 3 3v12c0 1.657-1.343 3-3 3zm-9-6h6v-6h-6z" fill="#1c2d6b"/><path d="m141.71 140.403h-12c-1.657 0-3-1.343-3-3v-12c0-1.657 1.343-3 3-3h12c1.657 0 3 1.343 3 3v12c0 1.657-1.343 3-3 3zm-9-6h6v-6h-6z" fill="#1c2d6b"/><path d="m39.71 125.403h12v12h-12z" fill="#e95947"/><path d="m141.71 104.403h-12c-1.657 0-3-1.343-3-3v-12c0-1.657 1.343-3 3-3h12c1.657 0 3 1.343 3 3v12c0 1.657-1.343 3-3 3zm-9-6h6v-6h-6z" fill="#1c2d6b"/><path d="m111.71 104.403h-12c-1.657 0-3-1.343-3-3v-12c0-1.657 1.343-3 3-3h12c1.657 0 3 1.343 3 3v12c0 1.657-1.343 3-3 3zm-9-6h6v-6h-6z" fill="#1c2d6b"/><path d="m81.71 104.403h-12c-1.657 0-3-1.343-3-3v-12c0-1.657 1.343-3 3-3h12c1.657 0 3 1.343 3 3v12c0 1.657-1.343 3-3 3zm-9-6h6v-6h-6z" fill="#1c2d6b"/><path d="m51.71 104.403h-12c-1.657 0-3-1.343-3-3v-12c0-1.657 1.343-3 3-3h12c1.657 0 3 1.343 3 3v12c0 1.657-1.343 3-3 3zm-9-6h6v-6h-6z" fill="#1c2d6b"/><path d="m81.71 140.403h-12c-1.657 0-3-1.343-3-3v-12c0-1.657 1.343-3 3-3h12c1.657 0 3 1.343 3 3v12c0 1.657-1.343 3-3 3zm-9-6h6v-6h-6z" fill="#1c2d6b"/><path d="m51.71 140.403h-12c-1.657 0-3-1.343-3-3v-12c0-1.657 1.343-3 3-3h12c1.657 0 3 1.343 3 3v12c0 1.657-1.343 3-3 3zm-9-6h6v-6h-6z" fill="#1c2d6b"/><path d="m135.71 59.403c-3.314 0-6-2.686-6-6v-12c0-3.314 2.686-6 6-6 3.314 0 6 2.686 6 6v12c0 3.313-2.686 6-6 6z" fill="#eee045"/><path d="m105.71 59.403c-3.314 0-6-2.686-6-6v-12c0-3.314 2.686-6 6-6 3.314 0 6 2.686 6 6v12c0 3.313-2.686 6-6 6z" fill="#eee045"/><path d="m75.71 59.403c-3.314 0-6-2.686-6-6v-12c0-3.314 2.686-6 6-6 3.314 0 6 2.686 6 6v12c0 3.313-2.686 6-6 6z" fill="#eee045"/><path d="m45.71 59.403c-3.314 0-6-2.686-6-6v-12c0-3.314 2.686-6 6-6 3.314 0 6 2.686 6 6v12c0 3.313-2.686 6-6 6z" fill="#eee045"/><path d="m135.71 62.403c-4.962 0-9-4.038-9-9v-12c0-4.962 4.038-9 9-9s9 4.038 9 9v12c0 4.962-4.038 9-9 9zm0-24c-1.654 0-3 1.346-3 3v12c0 1.654 1.346 3 3 3s3-1.346 3-3v-12c0-1.654-1.346-3-3-3z" fill="#1c2d6b"/><path d="m105.71 62.403c-4.962 0-9-4.038-9-9v-12c0-4.962 4.038-9 9-9s9 4.038 9 9v12c0 4.962-4.038 9-9 9zm0-24c-1.654 0-3 1.346-3 3v12c0 1.654 1.346 3 3 3s3-1.346 3-3v-12c0-1.654-1.346-3-3-3z" fill="#1c2d6b"/><path d="m75.71 62.403c-4.962 0-9-4.038-9-9v-12c0-4.962 4.038-9 9-9s9 4.038 9 9v12c0 4.962-4.038 9-9 9zm0-24c-1.654 0-3 1.346-3 3v12c0 1.654 1.346 3 3 3s3-1.346 3-3v-12c0-1.654-1.346-3-3-3z" fill="#1c2d6b"/><path d="m45.71 62.403c-4.962 0-9-4.038-9-9v-12c0-4.962 4.038-9 9-9s9 4.038 9 9v12c0 4.962-4.038 9-9 9zm0-24c-1.654 0-3 1.346-3 3v12c0 1.654 1.346 3 3 3s3-1.346 3-3v-12c0-1.654-1.346-3-3-3z" fill="#1c2d6b"/><path d="m102.761 166.916v-48.638c0-3.137 2.543-5.681 5.681-5.681h-7.872c-5.523 0-10 4.477-10 10v40c0 5.523 4.477 10 10 10h7.872c-3.138 0-5.681-2.543-5.681-5.681z" fill="#a4d4a0"/><path d="m114.379 112.597h12.191v60h-12.191z" fill="#419b46"/><path d="m108.442 112.597c-3.137 0-5.681 2.543-5.681 5.681v48.638c0 3.137 2.543 5.681 5.681 5.681h5.937v-60z" fill="#65bc49"/><path d="m126.57 175.597h-26c-7.168 0-13-5.832-13-13v-40c0-7.168 5.832-13 13-13h26c1.657 0 3 1.343 3 3v60c0 1.657-1.343 3-3 3zm-26-60c-3.86 0-7 3.14-7 7v40c0 3.86 3.14 7 7 7h23v-54z" fill="#1c2d6b"/><path d="m159.114 142.596v-40.847l-32.544 10.848v30 30l32.544 10.848v-40.848z" fill="#89aadb"/><path d="m184.026 93.445v49.151.001 49.152l32.544 10.848v-60-60z" fill="#4b67b0"/><path d="m184.026 142.596v-49.151l-24.912 8.304v40.847.001 40.848l24.912 8.304v-49.152z" fill="#6287c5"/><path d="m216.57 205.597c-.319 0-.639-.051-.949-.154l-90-30c-1.225-.409-2.051-1.555-2.051-2.846v-60c0-1.292.826-2.438 2.051-2.846l90-30c.914-.305 1.92-.152 2.703.413.783.564 1.246 1.469 1.246 2.434v120c0 .964-.463 1.87-1.246 2.434-.517.372-1.133.565-1.754.565zm-87-35.162 84 28v-111.676l-84 28z" fill="#1c2d6b"/><path d="m234.57 142.597c0-9.941-8.059-18-18-18v12.91h12.911c2.81.001 5.089 2.28 5.089 5.09z" fill="#ede49d"/><path d="m229.481 147.687h-12.911v12.91c9.941 0 18-8.059 18-18 0 2.811-2.279 5.09-5.089 5.09z" fill="#d3ba2a"/><path d="m229.481 137.508h-12.911v10.179h12.911c2.811 0 5.089-2.279 5.089-5.09 0-2.81-2.279-5.089-5.089-5.089z" fill="#eee045"/><path d="m216.57 163.597c-1.657 0-3-1.343-3-3v-36c0-.795.316-1.559.879-2.121.562-.563 1.325-.879 2.121-.879 11.58 0 21 9.42 21 21s-9.421 21-21 21zm3-35.699v29.397c6.839-1.394 12-7.455 12-14.699 0-7.242-5.162-13.304-12-14.698z" fill="#1c2d6b"/><path d="m104.673 203.135 2.182-30.537h-4.285l-7.634 30.537c-2.218 8.87 4.491 17.463 13.634 17.463-2.614-.001-4.531-8.593-3.897-17.463z" fill="#ef7f72"/><path d="m122.204 203.135-7.634-30.537h-4.285l2.182 30.537c.634 8.87-1.284 17.463-3.898 17.463 9.144-.001 15.853-8.593 13.635-17.463z" fill="#e8383b"/><path d="m112.468 203.135-2.182-30.537h-3.43l-2.182 30.537c-.634 8.87 1.284 17.463 3.898 17.463 2.612-.001 4.53-8.593 3.896-17.463z" fill="#e95947"/><path d="m108.57 223.597c-5.288 0-10.188-2.391-13.442-6.559s-4.385-9.501-3.103-14.631l7.634-30.538c.334-1.335 1.534-2.272 2.911-2.272h12c1.376 0 2.577.937 2.911 2.272l7.635 30.538c1.282 5.13.151 10.463-3.103 14.631s-8.155 6.559-13.443 6.559zm-3.658-48-7.066 28.265c-.832 3.325-.098 6.782 2.011 9.484s5.285 4.251 8.712 4.251c3.428 0 6.603-1.549 8.712-4.251s2.843-6.159 2.011-9.484l-7.066-28.265z" fill="#1c2d6b"/><path d="m78.57 124.597h5.033v36h-5.033z" fill="#ede49d"/><path d="m85.537 124.597h5.033v36h-5.033z" fill="#d3ba2a"/><path d="m83.603 124.597h1.934v36h-1.934z" fill="#eee045"/><path d="m90.57 163.597h-12c-1.657 0-3-1.343-3-3v-36c0-1.657 1.343-3 3-3h12c1.657 0 3 1.343 3 3v36c0 1.657-1.343 3-3 3zm-9-6h6v-30h-6z" fill="#1c2d6b"/></svg>