<svg id="Layer_1" enable-background="new 0 0 256 256" height="512" viewBox="0 0 256 256" width="512" xmlns="http://www.w3.org/2000/svg"><path d="m47.956 82.916c0-13.617-4.384-24.656-9.791-24.656 13.618 0 24.657 11.039 24.657 24.656 0 13.618-11.039 24.657-24.657 24.657 5.407 0 9.791-11.039 9.791-24.657z" fill="#89aadb"/><path d="m38.165 58.26c-5.407 0-9.791 11.039-9.791 24.656 0 13.618 4.384 24.657 9.791 24.657-13.618 0-24.657-11.039-24.657-24.657 0-13.617 11.039-24.656 24.657-24.656z" fill="#4b67b0"/><ellipse cx="38.165" cy="82.916" fill="#6287c5" rx="9.791" ry="24.657"/><path d="m61.683 161h16.482c11.046 0 20 8.954 20 20v34h-30v-24h-.33v-10c0-11.044-2.754-19.997-6.152-20z" fill="#89aadb"/><path d="m38.165 119c3.103 0 6.023.786 8.571 2.168-1.728 3.047-2.901 8.994-2.901 15.831v34c0 11.046 2.755 20 6.154 20h8.615-18.44c-11.046 0-20-8.954-20-20v-34c.001-9.94 8.06-17.999 18.001-17.999z" fill="#4b67b0"/><path d="m56.165 161h5.516.002z" fill="#e95947"/><path d="m49.989 191c-3.399 0-6.154-8.954-6.154-20v-34c0-6.838 1.173-12.785 2.901-15.831 5.616 3.047 9.429 8.994 9.429 15.832v23.721.278h5.518c3.398.003 6.152 8.956 6.152 20v10h-9.231z" fill="#6287c5"/><path d="m104.187 124.837v24h-25.86c-5.52 0-10-4.48-10-10v-4c0-5.52 4.48-10 10-10z" fill="#ef7f72"/><path d="m188.327 134.837v4c0 5.52-4.48 10-10 10h-25.86v-24h25.86c5.52 0 10 4.48 10 10z" fill="#e8383b"/><path d="m104.187 124.837h48.281v24h-48.281z" fill="#e95947"/><path d="m178.327 151.837h-100c-7.168 0-13-5.832-13-13v-4c0-7.168 5.832-13 13-13h100c7.168 0 13 5.832 13 13v4c0 7.169-5.832 13-13 13zm-100-24c-3.859 0-7 3.14-7 7v4c0 3.86 3.141 7 7 7h100c3.859 0 7-3.14 7-7v-4c0-3.86-3.141-7-7-7z" fill="#1c2d6b"/><path d="m121.046 110.039c0-10.659 1.789-19.999 4.471-25.207-1.773-4.52-2.907-11.429-2.907-19.175 0-13.617 3.502-24.657 7.823-24.657-13.617 0-24.657 11.039-24.657 24.657 0 7.746 3.575 14.655 9.162 19.175-8.455 5.208-14.093 14.548-14.093 25.207v4.931 9.863h20.201v-9.863z" fill="#89aadb"/><path d="m145.928 84.832c5.587-4.52 9.162-11.429 9.162-19.175 0-13.618-11.039-24.657-24.656-24.657 4.32 0 7.823 11.039 7.823 24.657 0 7.746-1.134 14.655-2.907 19.175 2.682 5.208 4.471 14.548 4.471 25.207v4.931 9.863h20.201v-9.863-4.931c0-10.659-5.639-19.999-14.094-25.207z" fill="#4b67b0"/><path d="m139.821 110.039c0-10.659-1.789-19.999-4.471-25.207 1.773-4.52 2.907-11.429 2.907-19.175 0-13.617-3.502-24.657-7.823-24.657-4.32 0-7.823 11.039-7.823 24.657 0 7.746 1.134 14.655 2.907 19.175-2.682 5.208-4.471 14.548-4.471 25.207v4.931 9.863h18.775v-9.863-4.931z" fill="#6287c5"/><g fill="#1c2d6b"><path d="m130.434 93.313c-15.25 0-27.656-12.407-27.656-27.657s12.406-27.656 27.656-27.656 27.657 12.407 27.657 27.657-12.407 27.656-27.657 27.656zm0-49.313c-11.941 0-21.656 9.715-21.656 21.657s9.715 21.657 21.656 21.657 21.657-9.715 21.657-21.657-9.716-21.657-21.657-21.657z"/><path d="m160.021 127.833h-59.176c-1.657 0-3-1.343-3-3v-14.794c0-11.396 5.802-21.774 15.521-27.761 1.082-.666 2.47-.581 3.46.222 3.893 3.149 8.598 4.814 13.607 4.814s9.715-1.665 13.608-4.814c.99-.801 2.378-.888 3.46-.222 9.718 5.987 15.52 16.365 15.52 27.761v14.794c0 1.656-1.342 3-3 3zm-56.175-6h53.176v-11.794c0-8.627-4.077-16.541-11-21.541-4.573 3.118-10.028 4.815-15.588 4.815s-11.015-1.697-15.587-4.815c-6.924 5-11.001 12.913-11.001 21.541z"/><path d="m38.165 110.573c-15.25 0-27.657-12.407-27.657-27.657s12.407-27.656 27.657-27.656 27.656 12.407 27.656 27.657-12.406 27.656-27.656 27.656zm0-49.313c-11.941 0-21.657 9.715-21.657 21.657s9.716 21.657 21.657 21.657 21.656-9.715 21.656-21.657-9.715-21.657-21.656-21.657z"/><path d="m98.165 218h-30c-1.657 0-3-1.343-3-3v-21h-25c-12.683 0-23-10.318-23-23v-34c0-11.58 9.421-21 21-21s21 9.42 21 21v21h19c12.683 0 23 10.318 23 23v34c0 1.657-1.343 3-3 3zm-27-6h24v-31c0-9.374-7.626-17-17-17h-22c-1.657 0-3-1.343-3-3v-24c0-8.271-6.729-15-15-15s-15 6.729-15 15v34c0 9.374 7.626 17 17 17h28c1.657 0 3 1.343 3 3z"/></g><path d="m208.044 82.916c0-13.617 4.384-24.656 9.791-24.656-13.618 0-24.657 11.039-24.657 24.656 0 13.618 11.039 24.657 24.657 24.657-5.407 0-9.791-11.039-9.791-24.657z" fill="#89aadb"/><path d="m217.835 58.26c5.407 0 9.791 11.039 9.791 24.656 0 13.618-4.384 24.657-9.791 24.657 13.618 0 24.657-11.039 24.657-24.657 0-13.617-11.039-24.656-24.657-24.656z" fill="#4b67b0"/><ellipse cx="217.835" cy="82.916" fill="#6287c5" rx="9.791" ry="24.657"/><path d="m194.317 161h-16.482c-11.046 0-20 8.954-20 20v34h30v-24h.33v-10c0-11.044 2.754-19.997 6.152-20z" fill="#89aadb"/><path d="m217.835 119c-3.103 0-6.023.786-8.571 2.168 1.728 3.047 2.901 8.994 2.901 15.831v34c0 11.046-2.755 20-6.154 20h-8.615 18.44c11.046 0 20-8.954 20-20v-34c-.001-9.94-8.06-17.999-18.001-17.999z" fill="#4b67b0"/><path d="m199.835 161h-5.516-.002z" fill="#e95947"/><path d="m206.011 191c3.399 0 6.154-8.954 6.154-20v-34c0-6.838-1.173-12.785-2.901-15.831-5.616 3.047-9.429 8.994-9.429 15.832v23.721.278h-5.518c-3.398.003-6.152 8.956-6.152 20v10h9.231z" fill="#6287c5"/><path d="m217.835 110.573c-15.25 0-27.656-12.407-27.656-27.657s12.406-27.657 27.656-27.657 27.657 12.407 27.657 27.657-12.407 27.657-27.657 27.657zm0-49.313c-11.941 0-21.656 9.715-21.656 21.657s9.715 21.657 21.656 21.657 21.657-9.715 21.657-21.657-9.716-21.657-21.657-21.657z" fill="#1c2d6b"/><path d="m187.835 218h-30c-1.657 0-3-1.343-3-3v-34c0-12.682 10.317-23 23-23h19v-21c0-11.58 9.421-21 21-21s21 9.42 21 21v34c0 12.682-10.317 23-23 23h-25v21c0 1.657-1.343 3-3 3zm-27-6h24v-21c0-1.657 1.343-3 3-3h28c9.374 0 17-7.626 17-17v-34c0-8.271-6.729-15-15-15s-15 6.729-15 15v24c0 1.657-1.343 3-3 3h-22c-9.374 0-17 7.626-17 17z" fill="#1c2d6b"/></svg>