<svg id="Layer_1" enable-background="new 0 0 256 256" height="512" viewBox="0 0 256 256" width="512" xmlns="http://www.w3.org/2000/svg"><path d="m43.999 179h54v24h-54z" fill="#ede49d"/><path d="m157.999 179h54v24h-54z" fill="#d3ba2a"/><path d="m97.999 179h60v24h-60z" fill="#eee045"/><path d="m43.995 143.011-11.994 36.002 57.179-.008 4.847-36z" fill="#ede49d"/><path d="m211.995 142.989-50.031.006 4.858 36 57.179-.008z" fill="#d3ba2a"/><path d="m94.027 143.005-4.847 36 77.642-.01-4.858-36z" fill="#eee045"/><path d="m223.999 182h-192c-.964 0-1.87-.463-2.434-1.246-.563-.783-.718-1.788-.412-2.703l11.998-36c.408-1.225 1.555-2.051 2.846-2.051h168c1.291 0 2.438.826 2.846 2.051l12.002 36c.306.915.152 1.92-.412 2.703s-1.47 1.246-2.434 1.246zm-187.838-6h183.676l-10.002-30h-163.676z" fill="#1c2d6b"/><path d="m211.999 206h-168c-1.657 0-3-1.343-3-3v-24c0-1.657 1.343-3 3-3h168c1.657 0 3 1.343 3 3v24c0 1.657-1.343 3-3 3zm-165-6h162v-18h-162z" fill="#1c2d6b"/><path d="m115.251 101h8.533v24h-8.533z" fill="#a4d4a0"/><path d="m130.718 101h8.533v24h-8.533z" fill="#419b46"/><path d="m123.784 101h6.934v24h-6.934z" fill="#65bc49"/><path d="m139.251 128h-24c-1.657 0-3-1.343-3-3v-24c0-1.657 1.343-3 3-3h24c1.657 0 3 1.343 3 3v24c0 1.657-1.343 3-3 3zm-21-6h18v-18h-18z" fill="#1c2d6b"/><path d="m121.251 97.464v-40.928c0-1.953 1.583-3.536 3.536-3.536h-9.412c-3.382 0-6.124 2.742-6.124 6.124v35.752c0 3.382 2.742 6.124 6.124 6.124h9.412c-1.953 0-3.536-1.583-3.536-3.536z" fill="#ef7f72"/><path d="m139.127 53h-9.412c1.953 0 3.536 1.583 3.536 3.536v40.929c0 1.953-1.583 3.536-3.536 3.536h9.412c3.382 0 6.124-2.742 6.124-6.124v-35.753c0-3.382-2.742-6.124-6.124-6.124z" fill="#e8383b"/><path d="m133.251 97.464v-40.928c0-1.953-1.583-3.536-3.536-3.536h-4.929c-1.953 0-3.536 1.583-3.536 3.536v40.929c0 1.953 1.583 3.536 3.536 3.536h4.929c1.953-.001 3.536-1.584 3.536-3.537z" fill="#e95947"/><path d="m139.127 104h-23.753c-5.03 0-9.123-4.093-9.123-9.124v-35.752c0-5.031 4.093-9.124 9.123-9.124h23.753c5.031 0 9.124 4.093 9.124 9.124v35.753c0 5.03-4.093 9.123-9.124 9.123zm-23.753-48c-1.722 0-3.123 1.401-3.123 3.124v35.753c0 1.722 1.401 3.124 3.123 3.124h23.753c1.723 0 3.124-1.401 3.124-3.124v-35.753c0-1.722-1.401-3.124-3.124-3.124z" fill="#1c2d6b"/><path d="m127.251 146c-1.657 0-3-1.343-3-3v-18c0-1.657 1.343-3 3-3s3 1.343 3 3v18c0 1.657-1.343 3-3 3z" fill="#1c2d6b"/><path d="m49.251 146c-1.657 0-3-1.343-3-3v-48c0-.795.316-1.559.879-2.121l24-24c1.172-1.172 3.07-1.172 4.242 0 1.172 1.171 1.172 3.071 0 4.242l-23.121 23.122v46.757c0 1.657-1.343 3-3 3z" fill="#1c2d6b"/><path d="m79.251 146c-1.657 0-3-1.343-3-3v-18.001c0-.795.316-1.559.879-2.121l12-12c1.172-1.172 3.07-1.172 4.242 0 1.172 1.171 1.172 3.071 0 4.242l-11.121 11.122v16.758c0 1.657-1.343 3-3 3z" fill="#1c2d6b"/><path d="m70.783 68.487c4.686-4.686 9.611-7.36 10.999-5.972-4.686-4.686-12.284-4.686-16.971 0s-4.686 12.284 0 16.971c-1.388-1.389 1.286-6.313 5.972-10.999z" fill="#89aadb"/><path d="m81.782 62.515c1.388 1.388-1.286 6.312-5.972 10.999s-9.611 7.36-10.999 5.972c4.686 4.686 12.284 4.686 16.971 0s4.686-12.285 0-16.971z" fill="#4b67b0"/><ellipse cx="73.296" cy="71" fill="#6287c5" rx="12" ry="3.554" transform="matrix(.707 -.707 .707 .707 -28.737 72.624)"/><path d="m70.783 68.487c4.686-4.686 9.611-7.36 10.999-5.972-4.686-4.686-12.284-4.686-16.971 0s-4.686 12.284 0 16.971c-1.388-1.389 1.286-6.313 5.972-10.999z" fill="#89aadb"/><path d="m81.782 62.515c1.388 1.388-1.286 6.312-5.972 10.999s-9.611 7.36-10.999 5.972c4.686 4.686 12.284 4.686 16.971 0s4.686-12.285 0-16.971z" fill="#4b67b0"/><ellipse cx="73.296" cy="71" fill="#6287c5" rx="12" ry="3.554" transform="matrix(.707 -.707 .707 .707 -28.737 72.624)"/><path d="m89.366 111.115c3.514-3.514 7.207-5.519 8.248-4.479-3.514-3.514-9.212-3.514-12.727 0s-3.514 9.212 0 12.727c-1.041-1.041.964-4.733 4.479-8.248z" fill="#89aadb"/><path d="m97.614 106.637c1.041 1.041-.964 4.734-4.479 8.248-3.514 3.514-7.207 5.52-8.248 4.479 3.514 3.514 9.212 3.514 12.727 0 3.514-3.515 3.514-9.213 0-12.727z" fill="#4b67b0"/><ellipse cx="91.251" cy="113" fill="#6287c5" rx="8.999" ry="2.666" transform="matrix(.707 -.707 .707 .707 -53.176 97.621)"/><g fill="#1c2d6b"><path d="m73.297 86c-8.271 0-15-6.729-15-15s6.729-15 15-15 15 6.729 15 15-6.729 15-15 15zm0-24c-4.963 0-9 4.038-9 9s4.037 9 9 9 9-4.038 9-9-4.037-9-9-9z"/><path d="m91.251 125c-6.617 0-12-5.383-12-12s5.383-12 12-12 12 5.383 12 12-5.383 12-12 12zm0-18c-3.309 0-6 2.691-6 6s2.691 6 6 6 6-2.691 6-6-2.691-6-6-6z"/><path d="m206.749 146c-1.657 0-3-1.343-3-3v-46.757l-23.121-23.122c-1.172-1.171-1.172-3.071 0-4.242 1.172-1.172 3.07-1.172 4.242 0l24 24c.562.562.879 1.326.879 2.121v48c0 1.657-1.343 3-3 3z"/><path d="m176.749 146c-1.657 0-3-1.343-3-3v-16.759l-11.121-11.122c-1.172-1.171-1.172-3.071 0-4.242 1.172-1.172 3.07-1.172 4.242 0l12 12c.562.562.879 1.326.879 2.121v18.002c0 1.657-1.343 3-3 3z"/><path d="m145.251 74.001h-6c-1.657 0-3-1.343-3-3s1.343-3 3-3h6c1.657 0 3 1.343 3 3s-1.343 3-3 3z"/><path d="m145.251 86.001h-6c-1.657 0-3-1.343-3-3s1.343-3 3-3h6c1.657 0 3 1.343 3 3s-1.343 3-3 3z"/><path d="m115.251 74.001h-6c-1.657 0-3-1.343-3-3s1.343-3 3-3h6c1.657 0 3 1.343 3 3s-1.343 3-3 3z"/><path d="m115.251 86.001h-6c-1.657 0-3-1.343-3-3s1.343-3 3-3h6c1.657 0 3 1.343 3 3s-1.343 3-3 3z"/></g><path d="m185.217 68.487c-4.686-4.686-9.611-7.36-10.999-5.972 4.686-4.686 12.284-4.686 16.971 0s4.686 12.284 0 16.971c1.388-1.389-1.286-6.313-5.972-10.999z" fill="#89aadb"/><path d="m174.218 62.515c-1.388 1.388 1.286 6.312 5.972 10.999s9.611 7.36 10.999 5.972c-4.686 4.686-12.284 4.686-16.971 0-4.686-4.687-4.686-12.285 0-16.971z" fill="#4b67b0"/><ellipse cx="182.704" cy="71" fill="#6287c5" rx="3.554" ry="12" transform="matrix(.707 -.707 .707 .707 3.308 149.986)"/><path d="m166.641 111.109c-3.526-3.527-7.232-5.538-8.277-4.494 3.526-3.526 9.244-3.526 12.771 0 3.527 3.527 3.526 9.244 0 12.771 1.044-1.045-.968-4.751-4.494-8.277z" fill="#89aadb"/><path d="m158.364 106.615c-1.045 1.045.967 4.75 4.494 8.277 3.527 3.526 7.232 5.539 8.277 4.494-3.527 3.527-9.244 3.527-12.771 0-3.526-3.527-3.526-9.245 0-12.771z" fill="#4b67b0"/><ellipse cx="164.749" cy="113" fill="#6287c5" rx="2.675" ry="9.03" transform="matrix(.707 -.707 .707 .707 -31.649 149.592)"/><path d="m182.703 86c-8.271 0-15-6.729-15-15s6.729-15 15-15 15 6.729 15 15-6.728 15-15 15zm0-24c-4.963 0-9 4.038-9 9s4.037 9 9 9 9-4.038 9-9-4.037-9-9-9z" fill="#1c2d6b"/><path d="m164.749 125c-6.617 0-12-5.383-12-12s5.383-12 12-12 12 5.383 12 12-5.383 12-12 12zm0-18c-3.309 0-6 2.691-6 6s2.691 6 6 6 6-2.691 6-6-2.691-6-6-6z" fill="#1c2d6b"/></svg>