<svg id="Layer_1" enable-background="new 0 0 256 256" height="512" viewBox="0 0 256 256" width="512" xmlns="http://www.w3.org/2000/svg"><path d="m165.951 66.5h54v126h-54z" fill="#e8383b"/><path d="m27.951 66.5h54v126h-54z" fill="#ef7f72"/><path d="m81.951 66.5h84v126h-84z" fill="#e95947"/><path d="m219.951 195.5h-192c-1.657 0-3-1.343-3-3v-126c0-1.657 1.343-3 3-3h192c1.657 0 3 1.343 3 3v126c0 1.657-1.343 3-3 3zm-189-6h186v-120h-186z" fill="#1c2d6b"/><path d="m39.951 78.5h48.07v102h-48.07z" fill="#ede49d"/><path d="m159.881 78.5h48.07v102h-48.07z" fill="#d3ba2a"/><path d="m88.021 78.5h71.86v102h-71.86z" fill="#eee045"/><path d="m207.951 183.5h-168c-1.657 0-3-1.343-3-3v-102c0-1.657 1.343-3 3-3h168c1.657 0 3 1.343 3 3v102c0 1.657-1.343 3-3 3zm-165-6h162v-96h-162z" fill="#1c2d6b"/><path d="m93.951 192.5h21.043v24h-21.043z" fill="#ef7f72"/><path d="m132.908 192.5h21.043v24h-21.043z" fill="#e8383b"/><path d="m114.993 192.5h17.915v24h-17.915z" fill="#e95947"/><path d="m81.951 216.5-6 18h30l2.25-18z" fill="#ef7f72"/><path d="m165.951 216.5h-26.25l2.25 18h30z" fill="#e8383b"/><path d="m108.201 216.5-2.25 18h36l-2.25-18z" fill="#e95947"/><path d="m153.951 219.5h-60c-1.657 0-3-1.343-3-3v-24c0-1.657 1.343-3 3-3h60c1.657 0 3 1.343 3 3v24c0 1.657-1.343 3-3 3zm-57-6h54v-18h-54z" fill="#1c2d6b"/><path d="m171.951 237.5h-96c-.964 0-1.87-.464-2.434-1.246s-.717-1.788-.413-2.702l6-18c.409-1.226 1.555-2.052 2.846-2.052h84c1.291 0 2.438.826 2.846 2.052l6 18c.306.914.152 1.92-.412 2.702-.563.782-1.469 1.246-2.433 1.246zm-91.838-6h87.676l-4-12h-79.676z" fill="#1c2d6b"/><path d="m151.566 51.429-33.252 33.252-8.103 1.158 34.41-34.41z" fill="#89aadb"/><path d="m131.614 51.429h6.949l-35.42 35.42-8.107 1.158z" fill="#4b67b0"/><path d="m144.621 51.429-34.41 34.41-7.068 1.01 35.42-35.42z" fill="#6287c5"/><path d="m113.348 49.727h89.352v22.965h-89.352z" fill="#a4d4a0" transform="matrix(.707 -.707 .707 .707 3.002 129.667)"/><path d="m143.664 80.043h89.352v22.964h-89.352z" fill="#419b46" transform="matrix(.707 -.707 .707 .707 -9.555 159.984)"/><path d="m128.506 66.413h89.352v19.909h-89.352z" fill="#65bc49" transform="matrix(.707 -.707 .707 .707 -3.276 144.826)"/><path d="m182.272 58.857c6.428-6.428 13.524-9.754 15.849-7.429-6.428-6.428-16.849-6.428-23.277 0s-6.428 16.849 0 23.277c-2.326-2.324 1-9.42 7.428-15.848z" fill="#ede49d"/><path d="m198.121 51.429c2.325 2.325-1.001 9.421-7.429 15.849s-13.523 9.754-15.849 7.429c6.428 6.428 16.849 6.428 23.277 0 6.428-6.429 6.428-16.851.001-23.278z" fill="#d3ba2a"/><ellipse cx="186.482" cy="63.067" fill="#eee045" rx="16.459" ry="5.954" transform="matrix(.707 -.707 .707 .707 10.024 150.335)"/><path d="m168.193 81.356c1.478 1.478 1.478 3.874 0 5.352l-23.926 23.926 7.3 7.3 16.626-16.626c5.509-5.509 5.509-14.442 0-19.952z" fill="#e8383b"/><path d="m168.193 81.356c-5.51-5.51-14.442-5.51-19.952 0l-16.626 16.626 7.3 7.3 23.926-23.926c1.477-1.478 3.874-1.478 5.352 0z" fill="#ef7f72"/><path d="m168.193 81.356c-1.478-1.478-3.874-1.478-5.352 0l-23.926 23.926 5.352 5.352 23.926-23.926c1.478-1.477 1.478-3.874 0-5.352z" fill="#e95947"/><path d="m198.159 98.022-33.252 33.252-1.158 8.103 34.41-34.41z" fill="#89aadb"/><path d="m198.159 117.973v-6.948l-35.42 35.42-1.158 8.107z" fill="#4b67b0"/><path d="m198.159 104.967-34.41 34.41-1.01 7.068 35.42-35.42z" fill="#6287c5"/><path d="m120.793 97.763h14.108v12.857h-14.108z" fill="#ede49d" transform="matrix(.707 -.707 .707 .707 -36.229 120.918)"/><path d="m138.304 115.274h14.108v12.857h-14.108z" fill="#d3ba2a" transform="matrix(.707 -.707 .707 .707 -43.482 138.43)"/><path d="m129.548 106.993h14.108v11.908h-14.108z" fill="#eee045" transform="matrix(.707 -.707 .707 .707 -39.856 129.674)"/><path d="m107.399 126.973 19.879-13.375-8.965-8.964-26.602 6.65 16.626 9.976-6.651 26.603 13.375-19.879z" fill="#ef7f72"/><path d="m144.916 131.236-8.965-8.965-13.374 19.879-1.012-7.662-19.879 13.375 26.603-6.651 9.976 16.627z" fill="#e8383b"/><path d="m122.577 142.15 13.374-19.879-4.337-4.336-4.336-4.337-19.879 13.375 7.662 1.011-13.375 19.879 19.879-13.375z" fill="#e95947"/><path d="m228.048 32.854c0-3.011-1.196-5.899-3.325-8.028.644.644.416 2.107-.635 4.068l-12.277 22.922 16.238 16.238z" fill="#4b67b0"/><path d="m224.723 24.826c-2.129-2.129-5.017-3.325-8.028-3.325l-35.2-.001 16.238 16.238 22.922-12.277c1.961-1.05 3.424-1.279 4.068-.635z" fill="#89aadb"/><path d="m224.723 24.826c-.644-.644-2.107-.416-4.068.635l-22.922 12.277 14.078 14.078 12.277-22.922c1.051-1.961 1.279-3.424.635-4.068z" fill="#6287c5"/><g fill="#1c2d6b"><path d="m164.868 134.235c-.796 0-1.559-.316-2.121-.879l-46.554-46.555c-1.172-1.171-1.172-3.071 0-4.242l63.181-63.181c1.125-1.125 3.117-1.125 4.242 0l46.554 46.555c1.172 1.171 1.172 3.071 0 4.242l-63.181 63.181c-.562.563-1.325.879-2.121.879zm-42.311-49.554 42.312 42.312 58.938-58.938-42.312-42.312z"/><path d="m186.482 82.518c-4.983 0-9.967-1.896-13.76-5.69-7.588-7.587-7.588-19.933 0-27.52 7.585-7.587 19.932-7.589 27.519 0 3.676 3.675 5.7 8.562 5.7 13.76s-2.024 10.085-5.7 13.76c-3.793 3.793-8.776 5.69-13.759 5.69zm-.001-32.904c-3.446 0-6.893 1.312-9.517 3.936-5.248 5.248-5.248 13.787 0 19.035 5.249 5.249 13.787 5.248 19.034 0 2.542-2.543 3.942-5.923 3.942-9.518s-1.4-6.975-3.942-9.518c-2.623-2.622-6.069-3.935-9.517-3.935z"/><path d="m151.566 120.935c-.768 0-1.535-.293-2.121-.879l-19.952-19.952c-.563-.562-.879-1.325-.879-2.121s.316-1.559.879-2.121l16.627-16.626c3.23-3.231 7.526-5.011 12.097-5.011s8.866 1.779 12.097 5.011c6.671 6.67 6.671 17.524 0 24.194l-16.626 16.626c-.586.586-1.354.879-2.122.879zm-15.709-22.953 15.709 15.71 14.505-14.505c4.331-4.331 4.331-11.379 0-15.71-2.098-2.098-4.888-3.253-7.854-3.253s-5.757 1.155-7.854 3.253z"/><path d="m95.035 91.007c-1.124 0-2.169-.632-2.682-1.658-.578-1.155-.351-2.55.562-3.463l36.579-36.578c.562-.562 1.325-.879 2.121-.879h19.952c1.214 0 2.308.73 2.771 1.852.465 1.121.208 2.412-.65 3.27l-33.252 33.252c-.459.459-1.054.757-1.697.849l-23.279 3.325c-.143.02-.285.03-.425.03zm37.821-36.578-29.335 29.335 13.378-1.911 27.423-27.424z"/><path d="m161.58 157.552c-.455 0-.914-.104-1.341-.316-1.155-.578-1.811-1.83-1.628-3.108l3.326-23.277c.092-.643.39-1.237.849-1.696l33.252-33.255c.856-.857 2.144-1.117 3.27-.65 1.121.464 1.852 1.558 1.852 2.771v19.952c0 .796-.316 1.559-.879 2.121l-36.578 36.578c-.577.577-1.345.88-2.123.88zm6.155-24.864-1.911 13.378 29.335-29.335v-11.467z"/><path d="m144.916 134.236c-.768 0-1.535-.293-2.121-.879l-26.603-26.603c-.563-.562-.879-1.325-.879-2.121s.316-1.559.879-2.121l9.976-9.976c1.171-1.172 3.07-1.172 4.242 0l26.603 26.603c1.172 1.171 1.172 3.071 0 4.242l-9.976 9.976c-.586.586-1.353.879-2.121.879zm-22.36-29.602 22.36 22.36 5.733-5.733-22.36-22.36z"/><path d="m138.264 160.839c-1.042 0-2.024-.544-2.571-1.457l-8.832-14.721-24.446 6.111c-1.023.256-2.104-.045-2.849-.789-.746-.745-1.045-1.826-.79-2.849l6.111-24.445-14.72-8.833c-1.041-.624-1.603-1.813-1.424-3.014s1.062-2.175 2.24-2.469l26.603-6.65c1.022-.257 2.104.044 2.849.789l26.603 26.603c.745.745 1.045 1.826.789 2.849l-6.651 26.603c-.294 1.178-1.269 2.062-2.469 2.24-.148.021-.297.032-.443.032zm-9.974-22.627c1.036 0 2.021.538 2.572 1.457l6.25 10.416 4.482-17.929-24.201-24.2-17.928 4.482 10.416 6.25c1.132.679 1.687 2.019 1.367 3.3l-5.438 21.751 21.752-5.438c.242-.06.486-.089.728-.089z"/><path d="m228.05 71.055c-.781 0-1.549-.305-2.122-.879l-46.554-46.555c-.858-.857-1.115-2.148-.65-3.27.464-1.121 1.559-1.852 2.771-1.852l35.2.001c3.834 0 7.438 1.493 10.148 4.204 2.712 2.71 4.205 6.314 4.205 10.149v35.2c0 1.214-.73 2.308-1.852 2.771-.37.156-.76.231-1.146.231zm-39.312-46.555 36.311 36.312v-27.958c0-2.231-.869-4.329-2.447-5.906-1.578-1.578-3.676-2.447-5.906-2.447z"/><path d="m77.757 149.444c-.768 0-1.536-.293-2.121-.879-1.172-1.171-1.172-3.071 0-4.242l13.656-13.656c1.171-1.172 3.071-1.172 4.242 0 1.172 1.171 1.172 3.071 0 4.242l-13.656 13.656c-.586.586-1.354.879-2.121.879z"/><path d="m103.297 174.638c-.768 0-1.536-.293-2.121-.879-1.172-1.171-1.172-3.071 0-4.242l13.886-13.886c1.171-1.172 3.071-1.172 4.242 0 1.172 1.171 1.172 3.071 0 4.242l-13.886 13.886c-.585.586-1.353.879-2.121.879z"/><path d="m78.296 174.253c-.768 0-1.536-.293-2.121-.879-1.172-1.171-1.172-3.071 0-4.242l12-12c1.171-1.172 3.071-1.172 4.242 0 1.172 1.171 1.172 3.071 0 4.242l-12 12c-.585.586-1.354.879-2.121.879z"/></g></svg>