<svg id="Layer_1" enable-background="new 0 0 256 256" height="512" viewBox="0 0 256 256" width="512" xmlns="http://www.w3.org/2000/svg"><path d="m62 38h60v180h-60z" fill="#a4d4a0"/><path d="m170 38v150.796l-10 29.204h16l30-29.204v-150.796z" fill="#419b46"/><path d="m170 38h-48v180h38l10-29.204z" fill="#65bc49"/><path d="m176 221h-114c-1.657 0-3-1.343-3-3v-180c0-1.657 1.343-3 3-3h144c1.657 0 3 1.343 3 3v150.795c0 .81-.327 1.585-.907 2.149l-30 29.205c-.56.546-1.311.851-2.093.851zm-111-6h109.781l28.219-27.471v-146.529h-138z" fill="#1c2d6b"/><path d="m176 221c-.394 0-.79-.077-1.166-.236-1.112-.469-1.834-1.558-1.834-2.764v-29.205c0-1.657 1.343-3 3-3h30c1.221 0 2.32.74 2.779 1.871s.188 2.428-.687 3.279l-30 29.205c-.571.556-1.325.85-2.092.85zm3-29.205v19.097l19.618-19.097z" fill="#1c2d6b"/><path d="m193.999 65h-54c-1.657 0-3-1.343-3-3s1.343-3 3-3h54c1.657 0 3 1.343 3 3s-1.344 3-3 3z" fill="#1c2d6b"/><path d="m193.999 83h-54c-1.657 0-3-1.343-3-3s1.343-3 3-3h54c1.657 0 3 1.343 3 3s-1.344 3-3 3z" fill="#1c2d6b"/><path d="m103.997 70.36c0-9.941 2.687-18 6.001-18-9.941 0-18 8.059-18 18s8.059 18 18 18c-3.314 0-6.001-8.058-6.001-18z" fill="#ede49d"/><path d="m109.999 52.36c3.315 0 6.001 8.059 6.001 18s-2.687 18-6.001 18c9.941 0 18-8.059 18-18s-8.059-18-18-18z" fill="#d3ba2a"/><ellipse cx="109.999" cy="70.36" fill="#eee045" rx="6.001" ry="18"/><path d="m103.997 128.204c0-9.941 2.687-18 6.001-18-9.941 0-18 8.059-18 18s8.059 18 18 18c-3.314 0-6.001-8.059-6.001-18z" fill="#ede49d"/><path d="m109.999 110.204c3.315 0 6.001 8.059 6.001 18s-2.687 18-6.001 18c9.941 0 18-8.059 18-18 0-9.942-8.059-18-18-18z" fill="#d3ba2a"/><ellipse cx="109.999" cy="128.204" fill="#eee045" rx="6.001" ry="18"/><path d="m103.997 186.047c0-9.941 2.687-18 6.001-18-9.941 0-18 8.059-18 18s8.059 18 18 18c-3.314 0-6.001-8.059-6.001-18z" fill="#ede49d"/><path d="m109.999 168.047c3.315 0 6.001 8.059 6.001 18s-2.687 18-6.001 18c9.941 0 18-8.059 18-18s-8.059-18-18-18z" fill="#d3ba2a"/><ellipse cx="109.999" cy="186.047" fill="#eee045" rx="6.001" ry="18"/><g fill="#1c2d6b"><path d="m109.999 91.36c-11.58 0-21-9.42-21-21s9.42-21 21-21 21 9.42 21 21-9.421 21-21 21zm0-36c-8.271 0-15 6.729-15 15s6.729 15 15 15 15-6.729 15-15-6.729-15-15-15z"/><path d="m115.711 76.724c-.487.763-1.209 1.371-2.167 1.825-.958.455-2.109.682-3.456.682v1.947h-1.047v-1.996c-1.769-.146-3.208-.681-4.32-1.606-1.111-.925-1.724-2.158-1.837-3.7h4.429c.049.52.223.958.523 1.314s.702.601 1.205.73v-3.87c-.276-.081-.454-.138-.535-.17-1.185-.341-2.154-.685-2.909-1.034-.754-.349-1.403-.868-1.947-1.558-.544-.689-.815-1.603-.815-2.738 0-.989.271-1.857.815-2.604.543-.746 1.286-1.318 2.227-1.716.94-.397 1.996-.612 3.164-.645v-1.995h1.047v2.02c1.785.114 3.204.621 4.259 1.521s1.647 2.089 1.777 3.565h-4.502c-.065-.487-.228-.884-.487-1.192-.26-.308-.608-.519-1.046-.633v3.797l.754.243c1.184.374 2.146.734 2.884 1.083s1.375.864 1.911 1.545c.536.682.803 1.574.803 2.677 0 .909-.243 1.745-.73 2.508zm-7.97-9.237c.3.3.734.572 1.302.815v-3.529c-.552.033-.982.187-1.29.462-.309.276-.462.657-.462 1.144 0 .439.149.809.45 1.108zm3.736 8.056c.341-.316.511-.726.511-1.229 0-.454-.162-.831-.486-1.131-.325-.3-.795-.564-1.412-.791v3.65c.583-.016 1.046-.182 1.387-.499z"/><path d="m193.999 122.843h-54c-1.657 0-3-1.343-3-3s1.343-3 3-3h54c1.657 0 3 1.343 3 3s-1.344 3-3 3z"/><path d="m193.999 140.843h-54c-1.657 0-3-1.343-3-3s1.343-3 3-3h54c1.657 0 3 1.343 3 3s-1.344 3-3 3z"/><path d="m109.999 149.204c-11.58 0-21-9.42-21-21s9.42-21 21-21 21 9.42 21 21-9.421 21-21 21zm0-36c-8.271 0-15 6.729-15 15s6.729 15 15 15 15-6.729 15-15-6.729-15-15-15z"/><path d="m115.711 134.567c-.487.763-1.209 1.371-2.167 1.825-.958.455-2.109.682-3.456.682v1.947h-1.047v-1.996c-1.769-.146-3.208-.681-4.32-1.606-1.111-.925-1.724-2.158-1.837-3.7h4.429c.049.52.223.958.523 1.314s.702.601 1.205.73v-3.87c-.276-.081-.454-.138-.535-.17-1.185-.341-2.154-.685-2.909-1.034-.754-.349-1.403-.868-1.947-1.558-.544-.689-.815-1.603-.815-2.738 0-.989.271-1.857.815-2.604.543-.746 1.286-1.318 2.227-1.716.94-.397 1.996-.612 3.164-.645v-1.996h1.047v2.02c1.785.114 3.204.621 4.259 1.521s1.647 2.089 1.777 3.565h-4.502c-.065-.487-.228-.884-.487-1.192-.26-.308-.608-.519-1.046-.633v3.797l.754.243c1.184.374 2.146.734 2.884 1.083s1.375.864 1.911 1.545c.536.682.803 1.574.803 2.677 0 .911-.243 1.746-.73 2.509zm-7.97-9.236c.3.3.734.572 1.302.815v-3.529c-.552.033-.982.187-1.29.462-.309.276-.462.657-.462 1.144 0 .438.149.808.45 1.108zm3.736 8.056c.341-.316.511-.726.511-1.229 0-.454-.162-.831-.486-1.131-.325-.3-.795-.564-1.412-.791v3.65c.583-.016 1.046-.183 1.387-.499z"/><path d="m164 180.687h-24.001c-1.657 0-3-1.343-3-3s1.343-3 3-3h24.001c1.657 0 3 1.343 3 3s-1.343 3-3 3z"/><path d="m164 198.687h-24.001c-1.657 0-3-1.343-3-3s1.343-3 3-3h24.001c1.657 0 3 1.343 3 3s-1.343 3-3 3z"/><path d="m109.999 207.047c-11.58 0-21-9.42-21-21s9.42-21 21-21 21 9.42 21 21-9.421 21-21 21zm0-36c-8.271 0-15 6.729-15 15s6.729 15 15 15 15-6.729 15-15-6.729-15-15-15z"/><path d="m115.711 192.41c-.487.763-1.209 1.371-2.167 1.825-.958.455-2.109.682-3.456.682v1.947h-1.047v-1.996c-1.769-.146-3.208-.681-4.32-1.606-1.111-.925-1.724-2.158-1.837-3.7h4.429c.049.52.223.958.523 1.314s.702.601 1.205.73v-3.87c-.276-.081-.454-.138-.535-.17-1.185-.341-2.154-.685-2.909-1.034-.754-.349-1.403-.868-1.947-1.558-.544-.689-.815-1.603-.815-2.738 0-.989.271-1.857.815-2.604.543-.746 1.286-1.318 2.227-1.716.94-.397 1.996-.612 3.164-.645v-1.996h1.047v2.02c1.785.114 3.204.621 4.259 1.521s1.647 2.089 1.777 3.565h-4.502c-.065-.487-.228-.884-.487-1.192-.26-.308-.608-.519-1.046-.633v3.797l.754.243c1.184.374 2.146.734 2.884 1.083s1.375.864 1.911 1.545c.536.682.803 1.574.803 2.677 0 .911-.243 1.746-.73 2.509zm-7.97-9.236c.3.3.734.572 1.302.815v-3.529c-.552.033-.982.187-1.29.462-.309.276-.462.657-.462 1.144 0 .438.149.808.45 1.108zm3.736 8.056c.341-.316.511-.726.511-1.229 0-.454-.162-.831-.486-1.131-.325-.3-.795-.564-1.412-.791v3.65c.583-.016 1.046-.183 1.387-.499z"/></g><path d="m73.15 38h6.85v180h-6.85z" fill="#e8383b"/><path d="m62 38h6.85v180h-6.85z" fill="#ef7f72"/><path d="m68.85 38h4.301v180h-4.301z" fill="#e95947"/><path d="m80 221h-18c-1.657 0-3-1.343-3-3v-180c0-1.657 1.343-3 3-3h18c1.657 0 3 1.343 3 3v180c0 1.657-1.343 3-3 3zm-15-6h12v-174h-12z" fill="#1c2d6b"/><path d="m57.784 59.545v-6.569c0-1.5 1.216-2.716 2.716-2.716h-4.5c-3.314 0-6 2.686-6 6s2.686 6 6 6h4.5c-1.5.001-2.716-1.215-2.716-2.715z" fill="#89aadb"/><path d="m64.999 50.261h-4.5c1.5 0 2.716 1.216 2.716 2.716v6.569c0 1.5-1.216 2.716-2.716 2.716h4.5c3.314 0 6-2.686 6-6s-2.686-6.001-6-6.001z" fill="#4b67b0"/><path d="m63.215 59.545v-6.569c0-1.5-1.216-2.716-2.716-2.716s-2.716 1.216-2.716 2.716v6.569c0 1.5 1.216 2.716 2.716 2.716 1.501 0 2.716-1.216 2.716-2.716z" fill="#6287c5"/><path d="m57.784 95.545v-6.569c0-1.5 1.216-2.716 2.716-2.716h-4.5c-3.314 0-6 2.686-6 6s2.686 6 6 6h4.5c-1.5.001-2.716-1.215-2.716-2.715z" fill="#89aadb"/><path d="m64.999 86.261h-4.5c1.5 0 2.716 1.216 2.716 2.716v6.569c0 1.5-1.216 2.716-2.716 2.716h4.5c3.314 0 6-2.686 6-6s-2.686-6.001-6-6.001z" fill="#4b67b0"/><path d="m63.215 95.545v-6.569c0-1.5-1.216-2.716-2.716-2.716s-2.716 1.216-2.716 2.716v6.569c0 1.5 1.216 2.716 2.716 2.716 1.501 0 2.716-1.216 2.716-2.716z" fill="#6287c5"/><path d="m57.784 131.545v-6.569c0-1.5 1.216-2.716 2.716-2.716h-4.5c-3.314 0-6 2.686-6 6s2.686 6 6 6h4.5c-1.5.001-2.716-1.215-2.716-2.715z" fill="#89aadb"/><path d="m64.999 122.261h-4.5c1.5 0 2.716 1.216 2.716 2.716v6.569c0 1.5-1.216 2.716-2.716 2.716h4.5c3.314 0 6-2.686 6-6s-2.686-6.001-6-6.001z" fill="#4b67b0"/><path d="m63.215 131.545v-6.569c0-1.5-1.216-2.716-2.716-2.716s-2.716 1.216-2.716 2.716v6.569c0 1.5 1.216 2.716 2.716 2.716 1.501 0 2.716-1.216 2.716-2.716z" fill="#6287c5"/><path d="m57.784 167.545v-6.569c0-1.5 1.216-2.716 2.716-2.716h-4.5c-3.314 0-6 2.686-6 6s2.686 6 6 6h4.5c-1.5.001-2.716-1.215-2.716-2.715z" fill="#89aadb"/><path d="m64.999 158.261h-4.5c1.5 0 2.716 1.216 2.716 2.716v6.569c0 1.5-1.216 2.716-2.716 2.716h4.5c3.314 0 6-2.686 6-6s-2.686-6.001-6-6.001z" fill="#4b67b0"/><path d="m63.215 167.545v-6.569c0-1.5-1.216-2.716-2.716-2.716s-2.716 1.216-2.716 2.716v6.569c0 1.5 1.216 2.716 2.716 2.716 1.501 0 2.716-1.216 2.716-2.716z" fill="#6287c5"/><path d="m57.784 203.545v-6.569c0-1.5 1.216-2.716 2.716-2.716h-4.5c-3.314 0-6 2.686-6 6s2.686 6 6 6h4.5c-1.5.001-2.716-1.215-2.716-2.715z" fill="#89aadb"/><path d="m64.999 194.261h-4.5c1.5 0 2.716 1.216 2.716 2.716v6.569c0 1.5-1.216 2.716-2.716 2.716h4.5c3.314 0 6-2.686 6-6s-2.686-6.001-6-6.001z" fill="#4b67b0"/><path d="m63.215 203.545v-6.569c0-1.5-1.216-2.716-2.716-2.716s-2.716 1.216-2.716 2.716v6.569c0 1.5 1.216 2.716 2.716 2.716 1.501 0 2.716-1.216 2.716-2.716z" fill="#6287c5"/><path d="m65 65.261h-9c-4.962 0-9-4.038-9-9s4.038-9 9-9h9c4.962 0 9 4.037 9 9s-4.038 9-9 9zm-9-12c-1.654 0-3 1.346-3 3s1.346 3 3 3h9c1.654 0 3-1.346 3-3s-1.346-3-3-3z" fill="#1c2d6b"/><path d="m65 101.261h-9c-4.962 0-9-4.038-9-9s4.038-9 9-9h9c4.962 0 9 4.037 9 9s-4.038 9-9 9zm-9-12c-1.654 0-3 1.346-3 3s1.346 3 3 3h9c1.654 0 3-1.346 3-3s-1.346-3-3-3z" fill="#1c2d6b"/><path d="m65 137.261h-9c-4.962 0-9-4.038-9-9s4.038-9 9-9h9c4.962 0 9 4.037 9 9s-4.038 9-9 9zm-9-12c-1.654 0-3 1.346-3 3s1.346 3 3 3h9c1.654 0 3-1.346 3-3s-1.346-3-3-3z" fill="#1c2d6b"/><path d="m65 173.261h-9c-4.962 0-9-4.038-9-9s4.038-9 9-9h9c4.962 0 9 4.037 9 9s-4.038 9-9 9zm-9-12c-1.654 0-3 1.346-3 3s1.346 3 3 3h9c1.654 0 3-1.346 3-3s-1.346-3-3-3z" fill="#1c2d6b"/><path d="m65 209.261h-9c-4.962 0-9-4.038-9-9s4.038-9 9-9h9c4.962 0 9 4.037 9 9s-4.038 9-9 9zm-9-12c-1.654 0-3 1.346-3 3s1.346 3 3 3h9c1.654 0 3-1.346 3-3s-1.346-3-3-3z" fill="#1c2d6b"/></svg>