<svg id="Layer_1" enable-background="new 0 0 256 256" height="512" viewBox="0 0 256 256" width="512" xmlns="http://www.w3.org/2000/svg"><path d="m127.991 122c9.941 0 18 26.863 18 60v2.829c0 9.714-1.158 19.029-3.218 25.898l-.382 1.273v18h33.6v-18l1.272-1.273c6.868-6.869 10.727-16.185 10.728-25.898v-2.829c0-33.137-26.863-60-60-60z" fill="#d3ba2a"/><path d="m113.209 210.727c-2.061-6.87-3.218-16.186-3.218-25.901v-2.826c0-33.137 8.059-60 18-60-33.137 0-60 26.863-60 60v2.827c0 9.715 3.859 19.031 10.728 25.901l1.272 1.272v18h33.6v-18z" fill="#ede49d"/><path d="m142.772 210.727c2.06-6.869 3.218-16.185 3.218-25.898v-2.829c0-33.137-8.059-60-18-60s-18 26.863-18 60v2.827c0 9.715 1.158 19.031 3.218 25.901l.382 1.273v18h28.8v-18z" fill="#eee045"/><path d="m175.99 233h-96c-1.657 0-3-1.343-3-3v-16.757l-.394-.394c-7.485-7.485-11.606-17.437-11.606-28.022v-2.827c0-34.738 28.262-63 63-63s63 28.262 63 63v2.829c0 10.583-4.122 20.534-11.606 28.02l-.394.394v16.757c0 1.657-1.343 3-3 3zm-92.999-6h90v-15c0-.795.316-1.559.879-2.121l1.272-1.272c6.351-6.352 9.849-14.796 9.849-23.777v-2.83c0-31.43-25.57-57-57-57s-57 25.57-57 57v2.827c0 8.982 3.498 17.428 9.849 23.78l1.272 1.272c.563.562.879 1.326.879 2.121z" fill="#1c2d6b"/><path d="m111.991 86c0-26.51 7.163-48 16-48-26.51 0-48 21.49-48 48s21.49 48 48 48c-8.837 0-16-21.49-16-48z" fill="#ede49d"/><path d="m127.991 38c8.837 0 16 21.49 16 48s-7.163 48-16 48c26.51 0 48-21.49 48-48s-21.491-48-48-48z" fill="#d3ba2a"/><ellipse cx="127.991" cy="86" fill="#eee045" rx="16" ry="48"/><g fill="#1c2d6b"><circle cx="111.991" cy="95.943" r="3.941"/><circle cx="143.991" cy="95.943" r="3.941"/><path d="m127.991 111.002c-3.912 0-7.562-2.104-9.524-5.493-.83-1.434-.341-3.269 1.093-4.1 1.433-.83 3.269-.341 4.1 1.093.893 1.542 2.553 2.5 4.332 2.5s3.438-.958 4.332-2.5c.829-1.434 2.663-1.923 4.1-1.093 1.434.831 1.923 2.666 1.092 4.1-1.964 3.388-5.614 5.493-9.525 5.493z"/><path d="m127.991 137c-28.122 0-51-22.878-51-51s22.878-51 51-51 51 22.878 51 51-22.879 51-51 51zm0-96c-24.813 0-45 20.187-45 45s20.187 45 45 45 45-20.187 45-45-20.187-45-45-45z"/><path d="m128.015 53c-1.657 0-3.03-1.343-3.03-3v-12c0-1.657 1.343-3 3-3s3.031 1.343 3.031 3v12c0 1.657-1.344 3-3.001 3z"/></g><path d="m164.008 172.329c0-11.872-9.624-21.495-21.495-21.495-1.938 0-3.809.275-5.593.759 4.066 2.462 7.063 10.8 7.063 20.737 0 .506.008 12.497.008 12.497 0 9.715-1.713 19.031-4.762 25.901l-.565 1.272v18h13.361v-18l1.272-1.273c6.869-6.87 10.728-16.186 10.728-25.901 0 0-.017-11.99-.017-12.497z" fill="#e8383b"/><path d="m116.77 210.727c-3.049-6.87-4.762-16.186-4.762-25.901 0 0 0-11.991 0-12.497 0-9.934 2.996-18.271 7.06-20.735-1.786-.485-3.659-.76-5.599-.76-11.872 0-21.495 9.624-21.495 21.495v12.497c0 9.715 3.859 19.031 10.728 25.901l1.272 1.273v18h13.361v-18z" fill="#ef7f72"/><path d="m127.999 156.506-.005.005.001.003z" fill="#e95947"/><path d="m139.229 210.727c3.049-6.87 4.762-16.186 4.762-25.901 0 0-.008-11.991-.008-12.497 0-9.937-2.997-18.275-7.063-20.737-3.372.914-6.418 2.618-8.92 4.914-.001.003-.003.005-.004.007 0-.001-.001-.002-.002-.003-.001.001-.002.002-.003.003-2.502-2.299-5.55-4.004-8.922-4.92-4.064 2.464-7.06 10.801-7.06 20.735v12.497c0 9.715 1.713 19.031 4.762 25.901l.565 1.273v18h21.329v-18z" fill="#e95947"/><path d="m152.025 233h-48.052c-1.657 0-3-1.343-3-3v-16.757l-.394-.394c-7.485-7.485-11.606-17.437-11.606-28.022v-12.498c0-13.507 10.989-24.495 24.496-24.495 5.253 0 10.321 1.687 14.522 4.795 4.201-3.107 9.268-4.795 14.522-4.795 13.507 0 24.495 10.988 24.495 24.495 0 .506.018 12.493.018 12.493 0 10.59-4.122 20.542-11.606 28.026l-.394.394v16.758c-.001 1.657-1.343 3-3.001 3zm-45.052-6h42.052v-15c0-.795.316-1.559.879-2.121l1.272-1.272c6.351-6.352 9.849-14.797 9.849-23.78 0 0-.018-11.991-.018-12.498 0-10.198-8.297-18.495-18.495-18.495-4.624 0-9.061 1.736-12.492 4.889-1.148 1.055-2.912 1.054-4.059 0-3.432-3.153-7.869-4.889-12.493-4.889-10.199 0-18.496 8.297-18.496 18.495v12.498c0 8.982 3.498 17.428 9.849 23.78l1.272 1.272c.563.562.879 1.326.879 2.121v15z" fill="#1c2d6b"/><path d="m168.957 200.227v-36.453c0-3.189 2.585-5.773 5.773-5.773h-7.773c-5.523 0-10 4.477-10 10v28c0 5.523 4.477 10 10 10h7.773c-3.188-.001-5.773-2.586-5.773-5.774z" fill="#89aadb"/><path d="m182.957 158h-7.773c3.189 0 5.773 2.585 5.773 5.773v36.453c0 3.189-2.585 5.773-5.773 5.773h7.773c5.523 0 10-4.477 10-10v-28c0-5.522-4.477-9.999-10-9.999z" fill="#4b67b0"/><path d="m180.957 200.227v-36.453c0-3.189-2.585-5.773-5.773-5.773h-.453c-3.189 0-5.773 2.585-5.773 5.773v36.453c0 3.189 2.585 5.773 5.773 5.773h.453c3.188 0 5.773-2.585 5.773-5.773z" fill="#6287c5"/><path d="m182.957 209h-16c-7.168 0-13-5.832-13-13v-28c0-7.168 5.832-13 13-13h16c7.168 0 13 5.832 13 13v28c0 7.168-5.832 13-13 13zm-16-48c-3.859 0-7 3.14-7 7v28c0 3.86 3.141 7 7 7h16c3.859 0 7-3.14 7-7v-28c0-3.86-3.141-7-7-7z" fill="#1c2d6b"/><path d="m165.957 206h6.694v12h-6.694z" fill="#ef7f72"/><path d="m177.263 206h6.694v12h-6.694z" fill="#e8383b"/><path d="m172.651 206h4.612v12h-4.612z" fill="#e95947"/><path d="m183.957 221h-18c-1.657 0-3-1.343-3-3v-12c0-1.657 1.343-3 3-3h18c1.657 0 3 1.343 3 3v12c0 1.657-1.343 3-3 3zm-15-6h12v-6h-12z" fill="#1c2d6b"/><path d="m168.957 218h4.967v12h-4.967z" fill="#a4d4a0"/><path d="m175.991 218h4.967v12h-4.967z" fill="#419b46"/><path d="m173.924 218h2.067v12h-2.067z" fill="#65bc49"/><path d="m180.957 233h-12c-1.657 0-3-1.343-3-3v-12c0-1.657 1.343-3 3-3h12c1.657 0 3 1.343 3 3v12c0 1.657-1.343 3-3 3zm-9-6h6v-6h-6z" fill="#1c2d6b"/><path d="m169.305 179h-11.315c-1.657 0-3-1.343-3-3s1.343-3 3-3h11.314c1.657 0 3 1.343 3 3s-1.342 3-2.999 3z" fill="#1c2d6b"/><path d="m169.305 191h-11.315c-1.657 0-3-1.343-3-3s1.343-3 3-3h11.314c1.657 0 3 1.343 3 3s-1.342 3-2.999 3z" fill="#1c2d6b"/><path d="m191.924 179h-11.314c-1.657 0-3-1.343-3-3s1.343-3 3-3h11.313c1.657 0 3 1.343 3 3s-1.342 3-2.999 3z" fill="#1c2d6b"/><path d="m191.924 191h-11.314c-1.657 0-3-1.343-3-3s1.343-3 3-3h11.313c1.657 0 3 1.343 3 3s-1.342 3-2.999 3z" fill="#1c2d6b"/><path d="m212.005 86h-.01c-6.62 0-11.99-5.37-11.99-12v-12c0-3.32-1.35-6.32-3.52-8.49s-5.17-3.51-8.48-3.51-6.31-1.34-8.49-3.51c-2.17-2.17-3.51-5.17-3.51-8.49 0-6.63-5.37-12-12-12h-8.921-9.22c3.289 0 5.954 5.37 5.954 12 0 3.32.665 6.32 1.741 8.49 1.082 2.17 2.57 3.51 4.212 3.51s3.131 1.34 4.207 3.51c1.077 2.17 1.746 5.17 1.746 8.49v12c0 6.63 2.664 12 5.949 12h.005c2.196 0 4.112 2.407 5.144 5.98l.81-.194c-.091.758-.213 1.507-.339 2.254.216 1.241.339 2.57.339 3.96 0 11.6-2.332 22.1-6.107 29.7-1.365 2.752-2.921 5.117-4.622 7.023 2.084 1.63 4.063 3.388 5.913 5.277h11.18c11.6 0 22.1-4.7 29.7-12.3 7.61-7.6 12.31-18.1 12.31-29.7-.001-6.63-5.381-12-12.001-12z" fill="#419b46"/><path d="m80.369 98c0-1.374.119-2.687.329-3.915-.117-.691-.235-1.382-.322-2.083h.792c.261-.911.575-1.753.942-2.492 1.077-2.17 2.565-3.51 4.212-3.51 3.289 0 5.954-5.37 5.954-12v-12c0-3.32.665-6.32 1.741-8.49 1.077-2.17 2.565-3.51 4.212-3.51 1.642 0 3.131-1.34 4.207-3.51 1.082-2.17 1.746-5.17 1.746-8.49 0-6.63 2.664-12 5.949-12h-18.146c-6.62 0-11.99 5.37-11.99 12 0 3.32-1.34 6.32-3.52 8.49-2.17 2.17-5.17 3.51-8.48 3.51-3.32 0-6.32 1.34-8.49 3.51s-3.51 5.17-3.51 8.49v12c0 6.63-5.37 12-12 12-3.32 0-6.32 1.34-8.49 3.51s-3.51 5.17-3.51 8.49c0 11.6 4.7 22.1 12.3 29.7s18.1 12.3 29.7 12.3h11.17c1.852-1.892 3.834-3.653 5.922-5.284-1.698-1.905-3.252-4.267-4.615-7.016-3.771-7.6-6.103-18.1-6.103-29.7z" fill="#a4d4a0"/><path d="m175.631 98c0-1.39-.123-2.719-.339-3.96-2.385 14.119-10.913 26.149-22.757 33.21 4.437 1.993 8.582 4.512 12.367 7.473 1.7-1.906 3.256-4.271 4.622-7.023 3.775-7.6 6.107-18.1 6.107-29.7z" fill="#65bc49"/><path d="m80.698 94.085c-.21 1.228-.329 2.542-.329 3.915 0 11.6 2.332 22.1 6.102 29.7 1.364 2.749 2.918 5.111 4.615 7.016 3.783-2.957 7.925-5.474 12.358-7.466-11.831-7.054-20.353-19.065-22.746-33.165z" fill="#65bc49"/><path d="m139.995 68c6.627 0 11.999 5.372 11.999 11.999v.004c0 6.627 5.372 11.999 11.999 11.999h10.736l.093-.022c-1.032-3.573-2.948-5.98-5.144-5.98h-.005c-3.284 0-5.949-5.37-5.949-12v-12c0-3.32-.67-6.32-1.746-8.49-1.077-2.17-2.565-3.51-4.207-3.51s-3.131-1.34-4.212-3.51c-1.077-2.17-1.741-5.17-1.741-8.49 0-6.63-2.664-12-5.954-12h-4.426-13.422-.008-.015-.008-7.229-7.356-3.268c-3.284 0-5.949 5.37-5.949 12 0 3.32-.665 6.32-1.746 8.49-1.077 2.17-2.565 3.51-4.208 3.51-1.647 0-3.136 1.34-4.212 3.51-1.077 2.17-1.741 5.17-1.741 8.49v12c0 6.63-2.664 12-5.954 12-1.647 0-3.136 1.34-4.212 3.51-.367.739-.681 1.581-.942 2.492h.441 2.528 7.855c6.627 0 11.999-5.372 11.999-11.999v-.004c0-6.627 5.372-11.999 11.999-11.999 6.15 0 11.211-4.629 11.909-10.591h.051.093.043c.698 5.962 5.759 10.591 11.909 10.591z" fill="#65bc49"/><path d="m181.995 143h-11.18c-.807 0-1.579-.325-2.144-.901-5.004-5.109-10.847-9.185-17.366-12.112-1.021-.458-1.701-1.447-1.766-2.563-.064-1.117.498-2.177 1.459-2.75 10.863-6.477 18.554-17.39 21.072-29.671h-8.078c-8.271 0-14.999-6.729-14.999-14.999 0-4.966-4.037-9.003-8.999-9.003-8.271 0-14.999-6.729-14.999-14.999v-18.002c0-.115.006-.229.019-.34v-11.66c0-1.657 1.343-3 3-3h35.99c8.271 0 15 6.729 15 15 0 2.41.935 4.672 2.631 6.369 1.703 1.695 3.967 2.631 6.369 2.631 4.007 0 7.771 1.559 10.602 4.389 2.837 2.837 4.398 6.605 4.398 10.611v12c0 4.962 4.033 9 8.99 9h.01c8.271 0 15 6.729 15 15 0 12.026-4.685 23.328-13.189 31.823-8.498 8.497-19.798 13.177-31.82 13.177zm-9.936-6h9.937c10.419 0 20.213-4.056 27.579-11.421 7.371-7.362 11.431-17.156 11.431-27.579 0-4.962-4.037-9-9-9h-.01c-8.266 0-14.99-6.729-14.99-15v-12c0-2.404-.938-4.666-2.641-6.369-1.697-1.696-3.955-2.631-6.359-2.631-3.999 0-7.767-1.557-10.606-4.384-2.835-2.835-4.394-6.604-4.394-10.616 0-4.962-4.037-9-9-9h-32.99v9c0 .115-.006.229-.019.34v17.661c0 4.962 4.037 8.999 8.999 8.999 8.271 0 14.999 6.729 14.999 14.999 0 4.966 4.037 9.003 8.999 9.003h10.382l.556-.133c.956-.23 1.962.023 2.695.677.733.653 1.101 1.624.983 2.599-1.66 13.792-9.063 26.433-20.129 34.727 4.96 2.744 9.509 6.136 13.578 10.128z" fill="#1c2d6b"/><path d="m85.165 143h-11.17c-12.021 0-23.323-4.68-31.821-13.178-8.499-8.499-13.179-19.8-13.179-31.822 0-4.012 1.559-7.781 4.388-10.611 2.83-2.83 6.599-4.389 10.612-4.389 4.962 0 9-4.038 9-9v-12c0-4.012 1.559-7.781 4.388-10.611 2.83-2.83 6.599-4.389 10.612-4.389 2.404 0 4.662-.935 6.358-2.631 1.705-1.698 2.642-3.958 2.642-6.369 0-8.271 6.725-15 14.99-15h36c1.657 0 3 1.343 3 3v11.736c.014.158.015.318.003.48v17.785c0 8.271-6.729 14.999-14.999 14.999-4.962 0-8.999 4.037-8.999 8.999 0 8.274-6.729 15.003-14.999 15.003h-8.084c2.516 12.277 10.215 23.198 21.073 29.671.961.573 1.523 1.633 1.459 2.75s-.746 2.105-1.766 2.563c-6.519 2.928-12.361 7.003-17.365 12.112-.564.577-1.336.902-2.143.902zm6.82-114c-4.957 0-8.99 4.038-8.99 9 0 4.019-1.564 7.789-4.403 10.616-2.825 2.825-6.59 4.384-10.597 4.384-2.41 0-4.672.935-6.369 2.631-1.696 1.697-2.631 3.959-2.631 6.369v12c0 8.271-6.729 15-15 15-2.41 0-4.672.935-6.369 2.631-1.696 1.697-2.631 3.959-2.631 6.369 0 10.419 4.056 20.214 11.421 27.579 7.366 7.365 17.16 11.421 27.579 11.421h9.927c4.069-3.993 8.618-7.385 13.578-10.129-11.001-8.248-18.393-20.803-20.101-34.498-.106-.854.159-1.712.728-2.357.57-.645 1.389-1.014 2.249-1.014h11.616c4.962 0 8.999-4.037 8.999-8.999 0-8.274 6.729-15.003 14.999-15.003 4.962 0 8.999-4.037 8.999-8.999v-17.86c-.002-.047-.003-.095-.003-.143v-8.998z" fill="#1c2d6b"/></svg>