<svg id="Layer_1" enable-background="new 0 0 256 256" height="512" viewBox="0 0 256 256" width="512" xmlns="http://www.w3.org/2000/svg"><path d="m64.536 63v70c0 5.523 4.477 10 10 10h38v-90h-38c-5.523 0-10 4.477-10 10z" fill="#ede49d"/><path d="m166.536 53v90h38c5.523 0 10-4.477 10-10v-70c0-5.523-4.477-10-10-10z" fill="#d3ba2a"/><path d="m112.536 53h54v90h-54z" fill="#eee045"/><path d="m204.536 146h-130c-7.168 0-13-5.832-13-13v-70c0-7.168 5.832-13 13-13h130c7.168 0 13 5.832 13 13v70c0 7.168-5.832 13-13 13zm-130-90c-3.86 0-7 3.14-7 7v70c0 3.86 3.14 7 7 7h130c3.86 0 7-3.14 7-7v-70c0-3.86-3.14-7-7-7z" fill="#1c2d6b"/><path d="m169.353 132.471c0-7.586 1.273-14.233 3.182-17.94-1.262-3.217-2.069-8.134-2.069-13.647 0-9.692 2.493-17.549 5.568-17.549-9.692 0-17.549 7.857-17.549 17.549 0 5.513 2.545 10.43 6.521 13.647-6.018 3.707-10.031 10.354-10.031 17.94v3.51 7.019h14.377v-7.019-3.51z" fill="#a4d4a0"/><path d="m187.062 114.531c3.976-3.217 6.521-8.134 6.521-13.647 0-9.692-7.857-17.549-17.549-17.549 3.075 0 5.568 7.857 5.568 17.549 0 5.513-.807 10.43-2.069 13.647 1.909 3.707 3.182 10.354 3.182 17.94v3.51 7.019h14.377v-7.019-3.51c.001-7.586-4.012-14.234-10.03-17.94z" fill="#419b46"/><path d="m182.715 132.471c0-7.586-1.273-14.233-3.182-17.94 1.262-3.217 2.069-8.134 2.069-13.647 0-9.692-2.493-17.549-5.568-17.549-3.075 0-5.568 7.857-5.568 17.549 0 5.513.807 10.43 2.069 13.647-1.909 3.707-3.182 10.354-3.182 17.94v3.51 7.019h13.362v-7.019z" fill="#65bc49"/><path d="m176.034 121.432c-11.331 0-20.548-9.218-20.548-20.549s9.218-20.549 20.548-20.549 20.549 9.218 20.549 20.549-9.218 20.549-20.549 20.549zm0-35.098c-8.022 0-14.548 6.526-14.548 14.549s6.526 14.549 14.548 14.549 14.549-6.526 14.549-14.549-6.526-14.549-14.549-14.549z" fill="#1c2d6b"/><path d="m197.093 146h-42.117c-1.657 0-3-1.343-3-3v-10.529c0-8.414 4.283-16.075 11.457-20.494 1.084-.667 2.471-.579 3.46.222 2.615 2.115 5.776 3.233 9.141 3.233s6.526-1.118 9.141-3.233c.988-.801 2.376-.891 3.46-.222 7.174 4.419 11.458 12.08 11.458 20.494v10.529c0 1.657-1.343 3-3 3zm-39.117-6h36.117v-7.529c0-5.659-2.583-10.865-6.996-14.274-3.288 2.098-7.14 3.235-11.063 3.235-3.922 0-7.775-1.137-11.062-3.235-4.413 3.409-6.996 8.615-6.996 14.274z" fill="#1c2d6b"/><path d="m148.536 155.142h18v47.858h-18z" fill="#ef7f72"/><path d="m184.536 155.142h18v47.858h-18z" fill="#e8383b"/><path d="m166.536 155.142h18v47.858h-18z" fill="#e95947"/><path d="m202.536 206h-54c-1.657 0-3-1.343-3-3v-47.858c0-1.657 1.343-3 3-3h54c1.657 0 3 1.343 3 3v47.858c0 1.657-1.344 3-3 3zm-51-6h48v-41.858h-48z" fill="#1c2d6b"/><path d="m58.536 179h4.647v24h-4.647z" fill="#a4d4a0"/><path d="m65.889 179h4.647v24h-4.647z" fill="#419b46"/><path d="m63.182 179h2.707v24h-2.707z" fill="#65bc49"/><path d="m106.536 179h4.647v24h-4.647z" fill="#a4d4a0"/><path d="m113.889 179h4.647v24h-4.647z" fill="#419b46"/><path d="m111.182 179h2.707v24h-2.707z" fill="#65bc49"/><path d="m70.536 206h-12c-1.657 0-3-1.343-3-3v-24c0-1.657 1.343-3 3-3h12c1.657 0 3 1.343 3 3v24c0 1.657-1.344 3-3 3zm-9-6h6v-18h-6z" fill="#1c2d6b"/><path d="m118.536 206h-12c-1.657 0-3-1.343-3-3v-24c0-1.657 1.343-3 3-3h12c1.657 0 3 1.343 3 3v24c0 1.657-1.344 3-3 3zm-9-6h6v-18h-6z" fill="#1c2d6b"/><path d="m52.536 167h24v12h-24z" fill="#a4d4a0"/><path d="m100.536 167h24v12h-24z" fill="#419b46"/><path d="m76.536 167h24v12h-24z" fill="#65bc49"/><path d="m124.536 182h-72c-1.657 0-3-1.343-3-3v-12c0-1.657 1.343-3 3-3h72c1.657 0 3 1.343 3 3v12c0 1.657-1.344 3-3 3zm-69-6h66v-6h-66z" fill="#1c2d6b"/><path d="m70.666 163.189.281-2.204 2.614-20.508.772-6.058c.26-2.042.991-3.419 1.814-3.419h-20.008c-2.152 0-4.063 1.377-4.743 3.419l-9.59 28.77c-.781 2.343-.199 4.927 1.511 6.708l2.02 2.104c2.549 2.655 6.792 2.728 9.43.161l.483-.47c2.641-2.57 6.819-2.431 9.284.308 1.278 1.42 3.003 2.107 4.742 2.099z" fill="#89aadb"/><path d="m135.265 163.188-9.59-28.769c-.681-2.042-2.591-3.419-4.743-3.419h-20.008c.823 0 1.554 1.377 1.814 3.419l.772 6.058h.016l4.28 33.579c1.719-.021 3.431-.704 4.716-2.053l.006-.006c2.598-2.729 6.947-2.744 9.564-.032l.052.054c2.619 2.714 6.969 2.709 9.582-.011l2.026-2.109c1.712-1.783 2.294-4.367 1.513-6.711z" fill="#4b67b0"/><path d="m103.51 140.477-.772-6.058c-.26-2.042-.991-3.419-1.814-3.419h-24.777c-.823 0-1.554 1.377-1.814 3.419l-.772 6.058-2.614 20.508-.281 2.204-1.391 10.911c1.756-.008 3.527-.724 4.867-2.113 2.619-2.715 6.971-2.71 9.585.013 1.739 3.478 5.431 4.094 8.204 1.369l1.527-1.5c2.642-2.595 6.893-2.538 9.464.128l.036.037c1.323 1.373 3.09 2.045 4.85 2.023l-4.28-33.579h-.018z" fill="#6287c5"/><path d="m88.149 178.069c-.401 0-.803-.033-1.203-.099-2.323-.388-4.353-1.883-5.64-4.133-.66-.57-1.49-.88-2.375-.882-.001 0-.003 0-.005 0-1 0-1.933.396-2.626 1.116-1.902 1.972-4.513 3.074-7.22 3.03-2.617-.045-5.024-1.144-6.778-3.092-.641-.712-1.51-1.122-2.446-1.153-.938-.041-1.83.32-2.516.988l-.484.471c-1.851 1.802-4.305 2.786-6.89 2.726-2.592-.044-5.005-1.096-6.795-2.961l-2.02-2.104c-2.489-2.594-3.33-6.323-2.193-9.734l9.59-28.771c1.091-3.272 4.141-5.47 7.589-5.47h64.792c3.449 0 6.499 2.198 7.59 5.47l9.59 28.769c1.137 3.412.296 7.143-2.196 9.737l-2.026 2.109c-1.834 1.909-4.302 2.962-6.949 2.965-.003 0-.007 0-.011 0-2.643 0-5.108-1.047-6.944-2.95-.745-.771-1.655-1.132-2.672-1.161-.997.003-1.924.403-2.611 1.125-1.833 1.925-4.298 2.986-6.947 2.995-.011 0-.021 0-.032 0-2.637 0-5.095-1.044-6.926-2.943-.719-.746-1.637-1.144-2.622-1.157-.988-.031-1.914.359-2.616 1.049l-1.527 1.5c-1.688 1.661-3.78 2.56-5.881 2.56zm-9.222-11.114h.014c2.648.004 5.116 1.058 6.95 2.969.209.218.384.466.519.735.4.801.942 1.295 1.524 1.393.586.097 1.255-.196 1.894-.822l1.527-1.5c1.854-1.82 4.331-2.781 6.902-2.769 2.597.035 5.021 1.084 6.824 2.954.728.755 1.691 1.158 2.655 1.146.998-.003 1.925-.403 2.613-1.125 1.832-1.924 4.295-2.985 6.943-2.995 2.651.023 5.12 1.035 6.959 2.941.746.773 1.679 1.17 2.679 1.17h.004c1.001-.001 1.935-.399 2.629-1.122l2.026-2.108c.942-.981 1.261-2.393.831-3.683l-9.59-28.769c-.272-.818-1.035-1.368-1.897-1.368h-64.794c-.862 0-1.625.55-1.897 1.368l-9.59 28.771c-.43 1.29-.112 2.701.83 3.682l2.02 2.104c.675.704 1.587 1.1 2.568 1.117.986-.003 1.906-.349 2.604-1.028l.484-.471c1.866-1.816 4.318-2.765 6.897-2.684 2.582.085 4.964 1.199 6.707 3.136.805.895 1.762 1.096 2.422 1.107 1.029.044 2.047-.418 2.797-1.197 1.837-1.905 4.303-2.952 6.946-2.952z" fill="#1c2d6b"/><path d="m76.534 110c-.637 0-1.278-.202-1.823-.619-1.315-1.008-1.564-2.891-.557-4.206l18.388-24c.973-1.271 2.774-1.553 4.088-.642l14.531 10.055 10.707-20.795c.403-.782 1.129-1.349 1.986-1.548.856-.202 1.758-.014 2.465.509l24 17.75c1.333.985 1.613 2.864.628 4.196-.985 1.333-2.863 1.614-4.196.628l-21.164-15.653-10.656 20.697c-.396.768-1.102 1.328-1.94 1.538-.837.208-1.725.048-2.435-.444l-14.989-10.373-16.65 21.731c-.591.771-1.482 1.176-2.383 1.176z" fill="#1c2d6b"/><circle cx="94.923" cy="83" fill="#e95947" r="6.083"/><circle cx="112.264" cy="95" fill="#e95947" r="6.083"/><circle cx="124.536" cy="71.166" fill="#e95947" r="6.083"/><g fill="#1c2d6b"><path d="m124.536 80.249c-5.008 0-9.083-4.075-9.083-9.083s4.075-9.083 9.083-9.083 9.083 4.075 9.083 9.083-4.075 9.083-9.083 9.083zm0-12.166c-1.7 0-3.083 1.383-3.083 3.083s1.383 3.083 3.083 3.083 3.083-1.383 3.083-3.083-1.383-3.083-3.083-3.083z"/><path d="m112.264 104.083c-5.008 0-9.083-4.075-9.083-9.083s4.075-9.083 9.083-9.083 9.083 4.075 9.083 9.083-4.075 9.083-9.083 9.083zm0-12.166c-1.7 0-3.083 1.383-3.083 3.083s1.383 3.083 3.083 3.083 3.083-1.383 3.083-3.083-1.383-3.083-3.083-3.083z"/><path d="m94.923 92.083c-5.008 0-9.083-4.075-9.083-9.083s4.075-9.083 9.083-9.083 9.083 4.075 9.083 9.083-4.074 9.083-9.083 9.083zm0-12.166c-1.7 0-3.083 1.383-3.083 3.083s1.383 3.083 3.083 3.083 3.083-1.383 3.083-3.083-1.382-3.083-3.083-3.083z"/></g><path d="m142.536 143h24v12.142h-24z" fill="#89aadb"/><path d="m184.536 143h24v12.142h-24z" fill="#4b67b0"/><path d="m166.536 143h18v12.142h-18z" fill="#6287c5"/><path d="m208.536 158.142h-66c-1.657 0-3-1.343-3-3v-12.142c0-1.657 1.343-3 3-3h66c1.657 0 3 1.343 3 3v12.142c0 1.656-1.344 3-3 3zm-63-6h60v-6.142h-60z" fill="#1c2d6b"/></svg>