<svg id="Layer_1" enable-background="new 0 0 256 256" height="512" viewBox="0 0 256 256" width="512" xmlns="http://www.w3.org/2000/svg"><path d="m20 110.001c0-3.314 2.686-6 6-6h18v-12h-6c-9.941 0-18 8.058-18 18z" fill="#4b67b0"/><path d="m20 110.001c0 9.941 8.059 18 18 18h6v-12h-18c-3.314 0-6-2.687-6-6z" fill="#89aadb"/><path d="m20 110.001c0 3.314 2.686 6 6 6h18v-12h-18c-3.314 0-6 2.686-6 6z" fill="#6287c5"/><path d="m20 56c0-3.314 2.686-6 6-6h18v-12h-6c-9.941 0-18 8.059-18 18z" fill="#4b67b0"/><path d="m20 56c0 9.941 8.059 18 18 18h6v-12h-18c-3.314 0-6-2.686-6-6z" fill="#89aadb"/><path d="m20 56c0 3.314 2.686 6 6 6h18v-12h-18c-3.314 0-6 2.686-6 6z" fill="#6287c5"/><path d="m20 164c0-3.314 2.686-6 6-6h18v-12h-6c-9.941 0-18 8.059-18 18z" fill="#4b67b0"/><path d="m20 164c0 9.941 8.059 18 18 18h6v-12h-18c-3.314 0-6-2.686-6-6z" fill="#89aadb"/><path d="m20 164c0 3.314 2.686 6 6 6h18v-12h-18c-3.314 0-6 2.686-6 6z" fill="#6287c5"/><path d="m236 110c0 3.314-2.686 6-6 6h-18v12h6c9.941 0 18-8.059 18-18z" fill="#4b67b0"/><path d="m236 109.999c0-9.941-8.059-18-18-18h-6v12h18c3.314.001 6 2.687 6 6z" fill="#89aadb"/><path d="m236 110c0-3.314-2.686-6-6-6h-18v12h18c3.314 0 6-2.687 6-6z" fill="#6287c5"/><path d="m236 164c0 3.314-2.686 6-6 6h-18v12h6c9.941 0 18-8.059 18-18z" fill="#4b67b0"/><path d="m236 164c0-9.941-8.059-18-18-18h-6v12h18c3.314 0 6 2.686 6 6z" fill="#89aadb"/><path d="m236 164c0-3.314-2.686-6-6-6h-18v12h18c3.314 0 6-2.686 6-6z" fill="#6287c5"/><path d="m236 56c0 3.314-2.686 6-6 6h-18v12h6c9.941 0 18-8.059 18-18z" fill="#4b67b0"/><path d="m236 56c0-9.941-8.059-18-18-18h-6v12h18c3.314 0 6 2.686 6 6z" fill="#89aadb"/><path d="m236 56c0-3.314-2.686-6-6-6h-18v12h18c3.314 0 6-2.686 6-6z" fill="#6287c5"/><path d="m128.002 218c-3.314 0-6-2.686-6-6v-18h-12v6c0 9.941 8.059 18 18 18z" fill="#4b67b0"/><path d="m128.002 218c9.941 0 18-8.059 18-18v-6h-12v18c0 3.314-2.686 6-6 6z" fill="#89aadb"/><path d="m128.002 218c3.314 0 6-2.686 6-6v-18h-12v18c0 3.314 2.686 6 6 6z" fill="#6287c5"/><path d="m74.001 218c-3.314 0-6-2.686-6-6v-18h-12v6c0 9.941 8.059 18 18 18z" fill="#4b67b0"/><path d="m74.002 218c9.941 0 18-8.059 18-18v-6h-12v18c-.001 3.314-2.687 6-6 6z" fill="#89aadb"/><path d="m74.001 218c3.314 0 6-2.686 6-6v-18h-12v18c0 3.314 2.687 6 6 6z" fill="#6287c5"/><path d="m182.001 218c-3.314 0-6-2.686-6-6v-18h-12v6c0 9.941 8.059 18 18 18z" fill="#4b67b0"/><path d="m182.001 218c9.941 0 18-8.059 18-18v-6h-12v18c0 3.314-2.686 6-6 6z" fill="#89aadb"/><path d="m182.001 218c3.314 0 6-2.686 6-6v-18h-12v18c0 3.314 2.687 6 6 6z" fill="#6287c5"/><path d="m190 182c5.523 0 10-4.477 10-10v-134h-36v108 36z" fill="#89aadb"/><path d="m66 182h25.577v-36h.423v-108h-36v134c0 5.523 4.477 10 10 10z" fill="#4b67b0"/><path d="m91.577 182h72.423v-36h-72-.423z" fill="#6287c5"/><g fill="#1c2d6b"><path d="m190 185h-124c-7.168 0-13-5.832-13-13v-134c0-1.657 1.343-3 3-3h36c1.657 0 3 1.343 3 3v105h66v-105c0-1.657 1.343-3 3-3h36c1.657 0 3 1.343 3 3v134c0 7.168-5.832 13-13 13zm-131-144v131c0 3.86 3.141 7 7 7h124c3.859 0 7-3.14 7-7v-131h-30v105c0 1.657-1.343 3-3 3h-72c-1.657 0-3-1.343-3-3v-105z"/><path d="m44 185h-6c-11.579 0-21-9.42-21-21s9.421-21 21-21h6c1.657 0 3 1.343 3 3v36c0 1.657-1.343 3-3 3zm-6-36c-8.271 0-15 6.729-15 15s6.729 15 15 15h3v-30z"/><path d="m44 131h-6c-11.579 0-21-9.42-21-21s9.421-21 21-21h6c1.657 0 3 1.343 3 3v36c0 1.657-1.343 3-3 3zm-6-36c-8.271 0-15 6.729-15 15s6.729 15 15 15h3v-30z"/><path d="m44 77h-6c-11.579 0-21-9.42-21-21s9.421-21 21-21h6c1.657 0 3 1.343 3 3v36c0 1.657-1.343 3-3 3zm-6-36c-8.271 0-15 6.729-15 15s6.729 15 15 15h3v-30z"/><path d="m218 185h-6c-1.657 0-3-1.343-3-3v-36c0-1.657 1.343-3 3-3h6c11.579 0 21 9.42 21 21s-9.421 21-21 21zm-3-6h3c8.271 0 15-6.729 15-15s-6.729-15-15-15h-3z"/><path d="m218 131h-6c-1.657 0-3-1.343-3-3v-36c0-1.657 1.343-3 3-3h6c11.579 0 21 9.42 21 21s-9.421 21-21 21zm-3-6h3c8.271 0 15-6.729 15-15s-6.729-15-15-15h-3z"/><path d="m218 77h-6c-1.657 0-3-1.343-3-3v-36c0-1.657 1.343-3 3-3h6c11.579 0 21 9.42 21 21s-9.421 21-21 21zm-3-6h3c8.271 0 15-6.729 15-15s-6.729-15-15-15h-3z"/><path d="m74.001 221c-11.579 0-21-9.42-21-21v-6c0-1.657 1.343-3 3-3h36c1.657 0 3 1.343 3 3v6c0 11.58-9.421 21-21 21zm-15-24v3c0 8.271 6.729 15 15 15s15-6.729 15-15v-3z"/><path d="m128.001 221c-11.579 0-21-9.42-21-21v-6c0-1.657 1.343-3 3-3h36c1.657 0 3 1.343 3 3v6c0 11.58-9.421 21-21 21zm-15-24v3c0 8.271 6.729 15 15 15s15-6.729 15-15v-3z"/><path d="m182.001 221c-11.579 0-21-9.42-21-21v-6c0-1.657 1.343-3 3-3h36c1.657 0 3 1.343 3 3v6c0 11.58-9.421 21-21 21zm-15-24v3c0 8.271 6.729 15 15 15s15-6.729 15-15v-3z"/></g></svg>