<svg id="Layer_1" enable-background="new 0 0 256 256" height="512" viewBox="0 0 256 256" width="512" xmlns="http://www.w3.org/2000/svg"><path d="m200 95h6.807v120h-6.807z" fill="#89aadb"/><path d="m211.193 95h6.807v120h-6.807z" fill="#4b67b0"/><path d="m206.807 95h4.385v120h-4.385z" fill="#6287c5"/><path d="m218 218h-18c-1.657 0-3-1.343-3-3v-120c0-1.657 1.343-3 3-3h18c1.657 0 3 1.343 3 3v120c0 1.657-1.343 3-3 3zm-15-6h12v-114h-12z" fill="#1c2d6b"/><path d="m188.879 215h14.525v12h-14.525z" fill="#a4d4a0"/><path d="m214.596 215h14.525v12h-14.525z" fill="#419b46"/><path d="m203.404 215h11.192v12h-11.192z" fill="#65bc49"/><path d="m191.879 83h12.928v12h-12.928z" fill="#a4d4a0"/><path d="m213.193 83h12.928v12h-12.928z" fill="#419b46"/><path d="m204.807 83h8.385v12h-8.385z" fill="#65bc49"/><path d="m229.121 230h-40.242c-1.657 0-3-1.343-3-3v-12c0-1.657 1.343-3 3-3h40.242c1.657 0 3 1.343 3 3v12c0 1.657-1.343 3-3 3zm-37.242-6h34.242v-6h-34.242z" fill="#1c2d6b"/><path d="m204.807 68c0-8.284 1.877-15 4.193-15-8.284 0-15 6.716-15 15s6.716 15 15 15c-2.315 0-4.193-6.716-4.193-15z" fill="#ede49d"/><path d="m209 53c2.315 0 4.193 6.716 4.193 15s-1.878 15-4.193 15c8.284 0 15-6.716 15-15s-6.716-15-15-15z" fill="#d3ba2a"/><ellipse cx="209" cy="68" fill="#eee045" rx="4.193" ry="15"/><path d="m38 95h6.807v120h-6.807z" fill="#89aadb"/><path d="m49.193 95h6.807v120h-6.807z" fill="#4b67b0"/><path d="m44.807 95h4.385v120h-4.385z" fill="#6287c5"/><path d="m26.879 215h14.525v12h-14.525z" fill="#a4d4a0"/><path d="m52.596 215h14.525v12h-14.525z" fill="#419b46"/><path d="m41.404 215h11.192v12h-11.192z" fill="#65bc49"/><path d="m29.879 83h12.928v12h-12.928z" fill="#a4d4a0"/><path d="m51.193 83h12.928v12h-12.928z" fill="#419b46"/><path d="m42.807 83h8.385v12h-8.385z" fill="#65bc49"/><path d="m42.807 68c0-8.284 1.877-15 4.193-15-8.284 0-15 6.716-15 15s6.716 15 15 15c-2.315 0-4.193-6.716-4.193-15z" fill="#ede49d"/><path d="m47 53c2.315 0 4.193 6.716 4.193 15s-1.878 15-4.193 15c8.284 0 15-6.716 15-15s-6.716-15-15-15z" fill="#d3ba2a"/><ellipse cx="47" cy="68" fill="#eee045" rx="4.193" ry="15"/><path d="m209 86c-9.925 0-18-8.075-18-18s8.075-18 18-18 18 8.075 18 18-8.075 18-18 18zm0-30c-6.617 0-12 5.383-12 12s5.383 12 12 12 12-5.383 12-12-5.383-12-12-12z" fill="#1c2d6b"/><path d="m226.121 98h-34.242c-1.657 0-3-1.343-3-3v-12c0-1.657 1.343-3 3-3h34.242c1.657 0 3 1.343 3 3v12c0 1.657-1.343 3-3 3zm-31.242-6h28.242v-6h-28.242z" fill="#1c2d6b"/><path d="m38 95h18v120h-18z" fill="#6287c5"/><g fill="#1c2d6b"><path d="m56 218h-18c-1.657 0-3-1.343-3-3v-120c0-1.657 1.343-3 3-3h18c1.657 0 3 1.343 3 3v120c0 1.657-1.343 3-3 3zm-15-6h12v-114h-12z"/><path d="m67.121 230h-40.242c-1.657 0-3-1.343-3-3v-12c0-1.657 1.343-3 3-3h40.242c1.657 0 3 1.343 3 3v12c0 1.657-1.343 3-3 3zm-37.242-6h34.242v-6h-34.242z"/><path d="m47 86c-9.925 0-18-8.075-18-18s8.075-18 18-18 18 8.075 18 18-8.075 18-18 18zm0-30c-6.617 0-12 5.383-12 12s5.383 12 12 12 12-5.383 12-12-5.383-12-12-12z"/><path d="m64.121 98h-34.242c-1.657 0-3-1.343-3-3v-12c0-1.657 1.343-3 3-3h34.242c1.657 0 3 1.343 3 3v12c0 1.657-1.343 3-3 3zm-31.242-6h28.242v-6h-28.242z"/></g><path d="m49.446 103.42c4.216 39.617 37.837 70.58 78.554 70.58 40.907 0 74.653-31.253 78.612-71.137.057-.574.082-1.152.083-1.729l.017-6.134h-6.712c0 39.764-32.235 72-72 72s-72-32.236-72-72h-6.692v5.574c0 .95.037 1.902.138 2.846z" fill="#ef7f72"/><path d="m210.708 95v6.147c0 .568-.022 1.138-.076 1.704-3.968 42.098-39.513 75.149-82.632 75.149-42.944 0-78.376-32.784-82.582-74.638-.091-.906-.126-1.818-.126-2.729v-5.633h-7.292c0 49.706 40.294 90 90 90s90-40.294 90-90z" fill="#e8383b"/><path d="m45.418 103.362c4.206 41.854 39.638 74.638 82.582 74.638 43.119 0 78.664-33.051 82.632-75.149.053-.566.076-1.135.076-1.704v-6.147h-3.996l-.017 6.134c-.002.577-.026 1.155-.083 1.729-3.959 39.884-37.705 71.137-78.612 71.137-40.717 0-74.338-30.963-78.554-70.58-.101-.944-.138-1.896-.138-2.845v-5.575h-4.016v5.634c0 .91.035 1.822.126 2.728z" fill="#e95947"/><path d="m128 188c-51.28 0-93-41.72-93-93 0-1.657 1.343-3 3-3h18c1.657 0 3 1.343 3 3 0 38.047 30.953 69 69 69s69-30.953 69-69c0-1.657 1.343-3 3-3h18c1.657 0 3 1.343 3 3 0 51.28-41.72 93-93 93zm-86.949-90c1.587 46.588 39.981 84 86.949 84s85.362-37.412 86.949-84h-12.009c-1.58 39.97-34.59 72-74.94 72s-73.36-32.03-74.94-72z" fill="#1c2d6b"/><path d="m140.954 106.999h23.046v12h-23.046z" fill="#d3ba2a"/><path d="m92 106.999h23.046v12h-23.046z" fill="#ede49d"/><path d="m115.046 106.999h25.908v12h-25.908z" fill="#eee045"/><path d="m164 121.999h-72c-1.657 0-3-1.343-3-3v-12c0-1.657 1.343-3 3-3h72c1.657 0 3 1.343 3 3v12c0 1.657-1.343 3-3 3zm-69-6h66v-6h-66z" fill="#1c2d6b"/><path d="m128.025 29.323-.025-.059v-.264l-.033.078v.186z" fill="#eee045"/><path d="m112.25 66.51-26.25-19.51 10.5 48h18.435l-2.597-28.699z" fill="#ede49d"/><path d="m127.945 29.132h-.001z" fill="#eee045"/><path d="m127.922 29.077-.033-.077v.264l-.025.059.058-.059z" fill="#eee045"/><path d="m143.639 66.51-.088-.209-2.597 28.699h18.435l10.5-48z" fill="#d3ba2a"/><path d="m127.922 29v.077l.022.055z" fill="#eee045"/><path d="m127.967 29.078v-.078l-.022.132z" fill="#eee045"/><path d="m128.025 29.323-.058-.059v-.186l-.022.054h-.001l-.022-.055v.187l-.058.059-15.526 36.978 2.597 28.699h12.954.033.045.033 12.954l2.597-28.699z" fill="#eee045"/><path d="m159.389 98h-62.889c-1.41 0-2.63-.981-2.931-2.359l-10.5-48c-.268-1.222.252-2.481 1.303-3.16 1.052-.679 2.413-.635 3.418.111l23.177 17.226 13.949-33.222c.169-1.252 1.114-2.282 2.381-2.537.218-.044.449-.058.647-.059.207.002.43.015.647.059 1.267.255 2.212 1.285 2.381 2.537l13.949 33.222 23.177-17.226c1.005-.747 2.365-.791 3.418-.111 1.051.679 1.57 1.938 1.303 3.16l-10.5 48c-.3 1.378-1.52 2.359-2.93 2.359zm-60.474-6h58.059l8.271-37.811-19.816 14.729c-.74.55-1.694.727-2.582.485-.889-.243-1.617-.882-1.974-1.732l-12.929-30.79-12.929 30.79c-.356.851-1.085 1.489-1.974 1.732-.89.241-1.842.064-2.582-.485l-19.815-14.729z" fill="#1c2d6b"/></svg>