<svg id="Layer_1" enable-background="new 0 0 128 128" height="512" viewBox="0 0 128 128" width="512" xmlns="http://www.w3.org/2000/svg"><path d="m122.184 111.079h-.379v-90.158h.379c1.9 0 3.446-1.546 3.446-3.447s-1.546-3.446-3.446-3.446h-112.368c-1.9 0-3.446 1.546-3.446 3.446s1.546 3.447 3.446 3.447h.379v90.157h-.379c-1.9 0-3.446 1.546-3.446 3.447s1.546 3.446 3.446 3.446h112.368c1.9 0 3.446-1.546 3.446-3.446s-1.545-3.446-3.446-3.446z" fill="#e6e7e8"/><path d="m7.195 15.921h54.805v92.157h-54.805z" fill="#6dc9f7"/><path d="m34.598 15.921h27.402v92.157h-27.402z" fill="#0089ef"/><path d="m34.598 15.921h3v92.157h-3z" fill="#fff"/><path d="m62 15.921h27.402v92.157h-27.402z" fill="#6dc9f7"/><path d="m89.402 15.921h27.402v92.157h-27.402z" fill="#0089ef"/><path d="m118.184 11.028h-112.368c-1.351 0-2.447 1.095-2.447 2.447s1.095 2.447 2.447 2.447h112.368c1.351 0 2.447-1.095 2.447-2.447s-1.096-2.447-2.447-2.447z" fill="#fa759e"/><path d="m118.184 108.079h-112.368c-1.351 0-2.447 1.095-2.447 2.447s1.095 2.447 2.447 2.447h112.368c1.351 0 2.447-1.095 2.447-2.447s-1.096-2.447-2.447-2.447z" fill="#fa759e"/><g fill="#3a2c60"><path d="m34.598 64.936c.552 0 1-.448 1-1v-5.957c0-.552-.448-1-1-1s-1 .448-1 1v5.957c0 .552.447 1 1 1z"/><path d="m118.184 107.079h-.379v-90.158h.379c1.9 0 3.447-1.546 3.447-3.446s-1.546-3.447-3.447-3.447h-112.368c-1.9 0-3.447 1.546-3.447 3.447s1.546 3.446 3.447 3.446h.379v90.157h-.379c-1.9 0-3.447 1.546-3.447 3.447s1.546 3.446 3.447 3.446h112.368c1.9 0 3.447-1.546 3.447-3.446s-1.547-3.446-3.447-3.446zm-2.379 0h-25.403v-90.158h25.403zm-52.805 0v-90.158h25.402v90.157h-25.402zm-58.63-93.604c0-.798.649-1.447 1.447-1.447h112.368c.798 0 1.447.649 1.447 1.447 0 .797-.649 1.446-1.447 1.446h-1.379-27.404-27.402-54.805-1.379c-.797 0-1.446-.649-1.446-1.446zm3.825 3.446h25.402v36.632c0 .552.448 1 1 1s1-.448 1-1v-36.632h25.403v90.157h-25.402v-37.865c0-.552-.448-1-1-1s-1 .448-1 1v37.866h-25.403zm109.989 95.051h-112.368c-.798 0-1.447-.649-1.447-1.446 0-.798.649-1.447 1.447-1.447h1.379 54.805 27.402 27.403 1.379c.798 0 1.447.649 1.447 1.447 0 .797-.649 1.446-1.447 1.446z"/></g></svg>