<svg id="Layer_1" enable-background="new 0 0 128 128" height="512" viewBox="0 0 128 128" width="512" xmlns="http://www.w3.org/2000/svg"><path d="m41.117 62.822h49.767c5.674 0 10.29-4.616 10.29-10.29v-33.42c0-5.674-4.616-10.29-10.29-10.29h-49.767c-5.674 0-10.29 4.616-10.29 10.29v33.42c0 5.674 4.616 10.29 10.29 10.29z" fill="#e6e7e8"/><path d="m96.688 73.947c0 4.911 3.996 8.906 8.907 8.906s8.906-3.995 8.906-8.906-3.995-8.907-8.906-8.907-8.907 3.996-8.907 8.907z" fill="#e6e7e8"/><path d="m56.809 73.95c0 .563.053 1.133.159 1.699.819 4.194 4.511 7.239 8.779 7.239 4.274 0 7.97-3.045 8.79-7.248.105-.56.158-1.129.158-1.69 0-4.934-4.014-8.948-8.948-8.948-4.929 0-8.938 4.014-8.938 8.948z" fill="#e6e7e8"/><path d="m25.905 82.853c4.911 0 8.907-3.995 8.907-8.906s-3.996-8.907-8.907-8.907-8.906 3.996-8.906 8.907 3.995 8.906 8.906 8.906z" fill="#e6e7e8"/><path d="m124 104.47c0-2.223-1.695-4.039-3.857-4.273v-4.318c0-2.964-1.883-5.49-4.513-6.463-1.974-3.509-5.73-5.889-10.035-5.889-4.273 0-8.002 2.345-9.988 5.811-1.986-3.466-5.715-5.811-9.988-5.811-4.236 0-7.936 2.306-9.935 5.723-1.999-3.417-5.698-5.723-9.934-5.723s-7.936 2.306-9.934 5.723c-1.999-3.417-5.698-5.723-9.935-5.723-4.273 0-8.002 2.345-9.988 5.811-1.986-3.466-5.715-5.811-9.988-5.811-4.305 0-8.061 2.379-10.035 5.889-2.63.973-4.513 3.499-4.513 6.463v4.388c-1.918.439-3.357 2.153-3.357 4.203 0 2.036 1.421 3.738 3.32 4.192v13.517c0 .553.448 1 1 1h.037 27.096.53 11.794.423 27.097.423 11.794.53 27.097.537c.552 0 1-.447 1-1v-13.517c1.901-.455 3.322-2.156 3.322-4.192z" fill="#e6e7e8"/><path d="m76.712 73.947c0 4.911 3.996 8.906 8.907 8.906s8.906-3.995 8.906-8.906-3.995-8.907-8.906-8.907-8.907 3.996-8.907 8.907z" fill="#e6e7e8"/><path d="m36.975 73.947c0 4.911 3.995 8.906 8.906 8.906s8.907-3.995 8.907-8.906-3.996-8.907-8.907-8.907-8.906 3.996-8.906 8.907z" fill="#e6e7e8"/><path d="m86.883 5.822h-49.766c-5.131 0-9.29 4.159-9.29 9.29v33.42c0 5.131 4.159 9.29 9.29 9.29h49.766c5.131 0 9.29-4.159 9.29-9.29v-33.42c0-5.131-4.159-9.29-9.29-9.29z" fill="#d4fbff"/><path d="m44.7 49.485v-9.486c0-1.246-1.01-2.256-2.256-2.256h-.007c-1.246 0-2.256 1.01-2.256 2.256v9.486z" fill="#0089ef"/><path d="m51.119 49.485v-13.71c0-1.246-1.01-2.256-2.256-2.256s-2.256 1.01-2.256 2.256v13.71z" fill="#6dc9f7"/><path d="m57.545 49.485v-16.726c0-1.246-1.01-2.256-2.256-2.256h-.007c-1.246 0-2.256 1.01-2.256 2.256v16.725h4.519z" fill="#fa759e"/><path d="m70.346 49.485v-16.963c0-1.246-1.01-2.256-2.256-2.256h-.007c-1.246 0-2.256 1.01-2.256 2.256v16.963z" fill="#fff"/><path d="m63.971 49.485v-14.538c0-1.246-1.01-2.256-2.256-2.256h-.007c-1.246 0-2.256 1.01-2.256 2.256v14.538z" fill="#ffd7e5"/><path d="m83.561 22.828c-2.717 0-4.928-2.211-4.928-4.928s2.211-4.927 4.928-4.927 4.928 2.21 4.928 4.927-2.21 4.928-4.928 4.928z" fill="#fa759e"/><path d="m101.595 62.04c-4.367 0-7.907 3.54-7.907 7.906 0 4.367 3.54 7.907 7.907 7.907s7.906-3.54 7.906-7.907c0-4.366-3.54-7.906-7.906-7.906z" fill="#6dc9f7"/><path d="m93.944 85.981h15.302c.588 0 1.154.089 1.689.249-1.746-3.385-5.269-5.704-9.341-5.704s-7.594 2.319-9.34 5.704c.536-.16 1.102-.249 1.69-.249z" fill="#6dc9f7"/><path d="m109.246 85.981h-15.302c-1.426 0-2.734.506-3.753 1.349 2.973 1.725 4.977 4.935 4.977 8.619v1.2h19.976v-5.271c-.001-3.257-2.641-5.897-5.898-5.897z" fill="#ffd7e5"/><path d="m61.75 62.04c-4.367 0-7.906 3.54-7.906 7.906 0 4.367 3.54 7.907 7.906 7.907s7.906-3.54 7.906-7.907c0-4.366-3.539-7.906-7.906-7.906z" fill="#fff"/><path d="m69.516 71.45c-.71 3.64-3.91 6.4-7.77 6.4-3.85 0-7.05-2.76-7.76-6.4.7-3.65 3.91-6.41 7.76-6.41 3.86 0 7.07 2.76 7.77 6.41z" fill="#6dc9f7"/><path d="m54.099 85.981h15.302c.588 0 1.154.089 1.689.249-1.746-3.385-5.269-5.704-9.341-5.704s-7.594 2.319-9.341 5.704c.537-.16 1.103-.249 1.691-.249z" fill="#6dc9f7"/><path d="m68.071 97.149v-1.2c0-3.709 2.03-6.938 5.036-8.655-1.013-.82-2.301-1.313-3.706-1.313h-15.302c-1.405 0-2.693.493-3.706 1.313 3.006 1.717 5.036 4.946 5.036 8.655v1.2z" fill="#ffd7e5"/><path d="m21.905 62.04c-4.367 0-7.906 3.54-7.906 7.906 0 4.367 3.54 7.907 7.906 7.907s7.907-3.54 7.907-7.907c0-4.366-3.54-7.906-7.907-7.906z" fill="#6dc9f7"/><path d="m14.254 85.981h15.302c.588 0 1.154.089 1.689.249-1.746-3.385-5.269-5.704-9.341-5.704s-7.594 2.319-9.341 5.704c.537-.16 1.104-.249 1.691-.249z" fill="#6dc9f7"/><path d="m28.333 95.949c0-3.684 2.004-6.894 4.977-8.619-1.02-.843-2.327-1.349-3.753-1.349h-15.303c-3.257 0-5.897 2.64-5.897 5.897v5.271h19.976z" fill="#ffd7e5"/><path d="m95.167 103.79v6.737c0 4.226-3.426 7.651-7.651 7.651h-11.794c-4.226 0-7.651-3.426-7.651-7.651v-6.737h-12.642v6.737c0 4.226-3.425 7.651-7.651 7.651h67.902v-14.388z" fill="#0089ef"/><path d="m28.333 110.527v-6.737h-20.013v14.388h27.664c-4.226 0-7.651-3.425-7.651-7.651z" fill="#0089ef"/><path d="m28.333 97.149h-20.013c-1.826 0-3.32 1.494-3.32 3.32s1.494 3.32 3.32 3.32h20.013z" fill="#fa759e"/><path d="m55.429 97.149h12.642v6.641h-12.642z" fill="#fa759e"/><path d="m115.68 97.149h-20.513v6.641h20.513c1.826 0 3.32-1.494 3.32-3.32 0-1.827-1.494-3.321-3.32-3.321z" fill="#fa759e"/><path d="m81.619 62.04c-4.367 0-7.907 3.54-7.907 7.906 0 4.367 3.54 7.907 7.907 7.907s7.906-3.54 7.906-7.907c0-4.366-3.539-7.906-7.906-7.906z" fill="#6dc9f7"/><path d="m78.039 85.981h7.161c2.54 0 4.851.958 6.611 2.522-1.136-4.578-5.261-7.977-10.191-7.977-4.93 0-9.055 3.398-10.191 7.977 1.759-1.564 4.07-2.522 6.61-2.522z" fill="#6dc9f7"/><path d="m85.199 85.981h-7.161c-5.505 0-9.968 4.463-9.968 9.968v14.578c0 4.226 3.425 7.651 7.651 7.651h11.794c4.226 0 7.651-3.426 7.651-7.651v-14.578c.001-5.505-4.462-9.968-9.967-9.968z" fill="#ffd7e5"/><path d="m41.881 62.04c-4.367 0-7.906 3.54-7.906 7.906 0 4.367 3.54 7.907 7.906 7.907 4.367 0 7.907-3.54 7.907-7.907 0-4.366-3.54-7.906-7.907-7.906z" fill="#6dc9f7"/><path d="m38.301 85.981h7.161c2.54 0 4.851.958 6.611 2.522-1.136-4.578-5.261-7.977-10.191-7.977-4.93 0-9.055 3.398-10.191 7.977 1.759-1.564 4.07-2.522 6.61-2.522z" fill="#6dc9f7"/><path d="m45.461 85.981h-7.161c-5.505 0-9.968 4.463-9.968 9.968v14.578c0 4.226 3.426 7.651 7.651 7.651h11.794c4.226 0 7.651-3.426 7.651-7.651v-14.578c.001-5.505-4.462-9.968-9.967-9.968z" fill="#ffd7e5"/><g fill="#3a2c60"><path d="m37.117 58.821h49.767c5.674 0 10.29-4.616 10.29-10.29v-5.471c0-.553-.448-1-1-1s-1 .447-1 1v5.471c0 4.571-3.719 8.29-8.29 8.29h-49.767c-4.571 0-8.29-3.719-8.29-8.29v-33.42c0-4.571 3.719-8.29 8.29-8.29h49.767c4.571 0 8.29 3.719 8.29 8.29v11.123c0 .553.448 1 1 1s1-.447 1-1v-11.123c0-5.674-4.616-10.29-10.29-10.29h-49.767c-5.674 0-10.29 4.616-10.29 10.29v33.42c0 5.674 4.616 10.29 10.29 10.29z"/><path d="m96.173 30.398c-.552 0-1 .447-1 1v6.888c0 .553.448 1 1 1s1-.447 1-1v-6.888c0-.553-.447-1-1-1z"/><path d="m35.511 14.693c-.573 0-1.038.465-1.038 1.038v34.792c0 .573.464 1.038 1.038 1.038h44.622c.573 0 1.038-.465 1.038-1.038s-.464-1.038-1.038-1.038h-43.585v-11.372l6.471-3.718 6.345-4.469 5.869-2.75 5.97 3.502c.314.185.703.185 1.015-.001l13.026-7.775-.498 4.209c-.065.548.327 1.045.875 1.11.04.005.08.007.119.007.5 0 .931-.374.992-.883l.737-6.227c.008-.063-.002-.125-.007-.187-.002-.031.002-.06-.003-.091-.019-.119-.06-.231-.119-.334-.004-.007-.003-.014-.007-.021-.011-.019-.03-.029-.042-.046-.052-.076-.113-.143-.185-.203-.032-.026-.063-.049-.097-.07-.026-.017-.046-.04-.074-.054l-4.69-2.417c-.491-.255-1.094-.061-1.347.431-.253.491-.061 1.094.431 1.347l3.095 1.595-6.847 4.117-5.869 3.469-5.917-3.471c-.283-.168-.631-.184-.93-.043l-6.424 3.011c-.053.024-.103.054-.151.087l-6.336 4.469-5.401 3.099v-20.075c-.001-.574-.465-1.038-1.038-1.038z"/><path d="m83.396 21.26c.035.053.096.08.183.08.094 0 .155-.032.183-.098.028-.065.042-.169.042-.312v-.31c.346-.029.644-.12.896-.272.251-.152.442-.349.571-.589.129-.241.194-.499.194-.774 0-.22-.041-.422-.122-.608-.081-.185-.196-.344-.346-.477-.14-.128-.299-.226-.477-.294s-.417-.143-.716-.225v-1.509c.305.099.497.3.577.602.07.256.224.384.461.384.126 0 .233-.044.321-.132.088-.089.132-.193.132-.314 0-.109-.03-.229-.089-.359-.059-.131-.143-.258-.252-.381-.138-.162-.299-.283-.484-.363s-.407-.133-.666-.16v-.392c0-.198-.077-.298-.232-.298-.152 0-.228.102-.228.305v.385c-.5.044-.883.198-1.148.464s-.397.607-.397 1.022c0 .319.068.58.203.783s.312.36.529.47c.218.11.488.21.812.299v1.687c-.162-.046-.292-.112-.39-.199s-.171-.183-.219-.288-.105-.257-.17-.455c-.029-.092-.081-.163-.156-.214s-.167-.076-.276-.076c-.135 0-.248.047-.339.14s-.136.198-.136.314c0 .157.034.317.102.48s.172.32.314.471.318.277.529.379c.212.101.459.168.742.199v.386c0 .113.017.195.052.249zm.408-2.936c.251.08.442.177.571.292s.194.278.194.488c0 .196-.067.368-.199.515-.133.147-.322.245-.566.293zm-.946-1.343c-.106-.098-.16-.242-.16-.433 0-.201.057-.351.17-.45.114-.099.272-.179.475-.239v1.389c-.217-.081-.379-.17-.485-.267z"/><path d="m92.688 69.946c0 4.911 3.996 8.907 8.907 8.907s8.906-3.996 8.906-8.907-3.995-8.906-8.906-8.906-8.907 3.995-8.907 8.906zm8.907-6.906c3.808 0 6.906 3.098 6.906 6.906s-3.098 6.907-6.906 6.907c-3.809 0-6.907-3.099-6.907-6.907s3.098-6.906 6.907-6.906z"/><path d="m52.809 69.949c0 .564.053 1.134.159 1.699.818 4.194 4.511 7.239 8.779 7.239 4.274 0 7.971-3.045 8.79-7.247.105-.56.158-1.128.158-1.691 0-4.934-4.014-8.947-8.948-8.947-4.929 0-8.938 4.014-8.938 8.947zm15.81 0c0 .436-.042.875-.121 1.302-.628 3.222-3.468 5.561-6.751 5.561-3.277 0-6.113-2.339-6.74-5.554-.081-.432-.122-.872-.122-1.309 0-3.789 3.079-6.871 6.862-6.871 3.789 0 6.872 3.082 6.872 6.871z"/><path d="m21.905 78.854c4.911 0 8.907-3.996 8.907-8.907s-3.996-8.906-8.907-8.906-8.906 3.995-8.906 8.906 3.995 8.907 8.906 8.907zm0-15.814c3.809 0 6.907 3.098 6.907 6.906s-3.098 6.907-6.907 6.907c-3.808 0-6.906-3.099-6.906-6.907s3.098-6.906 6.906-6.906z"/><path d="m120 100.47c0-2.223-1.695-4.039-3.857-4.273v-4.318c0-2.969-1.889-5.498-4.525-6.468-1.974-3.506-5.721-5.883-10.023-5.883-4.275 0-8.005 2.347-9.988 5.817-1.985-3.469-5.713-5.817-9.988-5.817-4.237 0-7.936 2.307-9.935 5.724-1.997-3.419-5.697-5.724-9.934-5.724s-7.938 2.305-9.934 5.724c-1.999-3.417-5.698-5.724-9.935-5.724-4.275 0-8.002 2.348-9.988 5.817-1.984-3.47-5.713-5.817-9.988-5.817-4.302 0-8.049 2.378-10.023 5.883-2.636.97-4.525 3.499-4.525 6.468v4.388c-1.918.44-3.357 2.153-3.357 4.203 0 2.036 1.421 3.738 3.32 4.192v13.516c0 .553.448 1 1 1h27.664 11.794 27.943 11.794 28.164c.552 0 1-.447 1-1v-13.516c1.9-.454 3.321-2.156 3.321-4.192zm-5.857-8.592v4.271h-17.976v-.201c0-3.142-1.336-5.972-3.46-7.974-.071-.256-.154-.508-.242-.757.466-.151.961-.238 1.478-.238h15.302c2.701.002 4.898 2.199 4.898 4.899zm-26.627 25.3h-11.794c-3.667 0-6.651-2.983-6.651-6.65v-14.58c0-4.945 4.023-8.968 8.968-8.968h7.161c4.945 0 8.968 4.022 8.968 8.968v14.579c-.001 3.668-2.984 6.651-6.652 6.651zm-20.445-14.388h-10.642v-4.64h10.642zm0-6.842v.201h-10.642v-.201c0-3.142-1.336-5.972-3.46-7.974-.074-.266-.159-.526-.251-.784.438-.131.9-.21 1.381-.21h15.303c.481 0 .942.078 1.381.21-.092.258-.178.518-.251.784-2.126 2.002-3.461 4.832-3.461 7.974zm-19.293 21.23h-11.794c-3.667 0-6.651-2.983-6.651-6.65v-14.58c0-4.945 4.023-8.968 8.968-8.968h7.161c4.945 0 8.968 4.022 8.968 8.968v14.579c-.001 3.668-2.984 6.651-6.652 6.651zm53.817-35.651c2.941 0 5.565 1.349 7.31 3.454h-14.62c1.744-2.105 4.369-3.454 7.31-3.454zm-19.976 0c3.358 0 6.307 1.755 7.999 4.391-1.353-.599-2.846-.937-4.419-.937h-7.161c-1.572 0-3.065.339-4.419.937 1.693-2.636 4.641-4.391 8-4.391zm-19.869 0c2.941 0 5.565 1.349 7.31 3.454h-14.62c1.745-2.105 4.369-3.454 7.31-3.454zm-19.869 0c3.359 0 6.307 1.755 7.999 4.391-1.353-.599-2.846-.937-4.419-.937h-7.161c-1.573 0-3.065.339-4.419.937 1.693-2.636 4.641-4.391 8-4.391zm-19.976 0c2.941 0 5.565 1.349 7.31 3.454h-14.62c1.745-2.105 4.369-3.454 7.31-3.454zm-7.651 5.454h15.302c.517 0 1.012.086 1.478.238-.088.249-.171.5-.242.757-2.124 2.001-3.46 4.831-3.46 7.974v.201h-17.975v-4.271c0-2.702 2.197-4.899 4.897-4.899zm-8.254 13.489c0-1.279 1.041-2.32 2.32-2.32h19.013v4.641h-19.013c-1.279-.001-2.32-1.042-2.32-2.321zm3.32 16.708v-12.388h18.013v5.737c0 2.671 1.218 5.062 3.127 6.65h-21.14zm43.982 0c1.909-1.588 3.127-3.979 3.127-6.65v-5.737h10.642v5.737c0 2.671 1.218 5.062 3.127 6.65zm61.378 0h-21.64c1.909-1.588 3.127-3.979 3.127-6.65v-5.737h18.513zm1-14.388h-19.513v-4.64h19.513c1.279 0 2.32 1.041 2.32 2.32s-1.041 2.32-2.32 2.32z"/><path d="m72.712 69.946c0 4.911 3.996 8.907 8.907 8.907s8.906-3.996 8.906-8.907-3.995-8.906-8.906-8.906-8.907 3.995-8.907 8.906zm15.813 0c0 3.809-3.098 6.907-6.906 6.907-3.809 0-6.907-3.099-6.907-6.907s3.098-6.906 6.907-6.906c3.808 0 6.906 3.098 6.906 6.906z"/><path d="m32.975 69.946c0 4.911 3.995 8.907 8.906 8.907s8.907-3.996 8.907-8.907-3.996-8.906-8.907-8.906-8.906 3.995-8.906 8.906zm15.813 0c0 3.809-3.098 6.907-6.907 6.907-3.808 0-6.906-3.099-6.906-6.907s3.098-6.906 6.906-6.906 6.907 3.098 6.907 6.906z"/></g></svg>