<svg id="Layer_1" enable-background="new 0 0 128 128" height="512" viewBox="0 0 128 128" width="512" xmlns="http://www.w3.org/2000/svg"><path d="m51.287 29.967c.492.492 1.139.738 1.786.738s1.293-.246 1.786-.738c.983-.984.983-2.587 0-3.571l-3.02-3.021c-.985-.983-2.586-.98-3.571.001-.983.984-.983 2.587 0 3.571z" fill="#e6e7e8"/><path d="m43.525 43.602h4.27c1.393 0 2.525-1.133 2.525-2.525s-1.133-2.524-2.525-2.524h-4.27c-1.393 0-2.525 1.133-2.525 2.524 0 1.392 1.132 2.525 2.525 2.525z" fill="#e6e7e8"/><path d="m51.396 52.142-3.019 3.019c-.478.477-.74 1.111-.74 1.786 0 .674.263 1.309.74 1.785.492.492 1.139.738 1.785.738.647 0 1.293-.246 1.786-.738l3.02-3.02c.477-.477.74-1.111.74-1.785 0-.675-.263-1.31-.74-1.786-.986-.983-2.588-.984-3.572.001z" fill="#e6e7e8"/><path d="m63.552 59.204v4.271c0 1.393 1.133 2.525 2.525 2.525s2.525-1.133 2.525-2.525v-4.271c0-1.392-1.133-2.524-2.525-2.524s-2.525 1.133-2.525 2.524z" fill="#e6e7e8"/><path d="m80.712 52.032c-.984-.984-2.586-.984-3.57 0s-.984 2.587 0 3.571l3.02 3.02c.492.492 1.139.738 1.785.738s1.293-.246 1.785-.738c.984-.984.984-2.587 0-3.571z" fill="#e6e7e8"/><path d="m81.68 40.923c0 1.393 1.133 2.525 2.524 2.525h4.271c1.393 0 2.525-1.133 2.525-2.525s-1.133-2.525-2.525-2.525h-4.271c-1.391 0-2.524 1.132-2.524 2.525z" fill="#e6e7e8"/><path d="m77.033 29.859c.491.491 1.138.736 1.784.736s1.294-.245 1.786-.737l3.02-3.02c.984-.984.984-2.587 0-3.571-.985-.985-2.588-.983-3.571 0l-3.021 3.021c-.982.983-.982 2.586 0 3.569.001.001.001.001.002.002z" fill="#e6e7e8"/><path d="m65.923 25.32c1.393 0 2.525-1.133 2.525-2.525v-4.271c0-1.392-1.133-2.524-2.525-2.524s-2.525 1.133-2.525 2.524v4.271c0 1.393 1.133 2.525 2.525 2.525z" fill="#e6e7e8"/><path d="m51.705 36.678c-.375 1.152-.068 2.394.8 3.239l3.979 3.88c.273.266.398.649.333 1.026l-.939 5.477c-.205 1.194.277 2.379 1.258 3.091.554.403 1.202.607 1.855.607.502 0 1.007-.121 1.474-.367l4.918-2.585c.338-.178.742-.178 1.081 0l4.917 2.585c1.072.564 2.347.474 3.328-.239s1.463-1.897 1.258-3.092l-.938-5.478c-.064-.376.06-.76.334-1.026l3.979-3.879c.867-.846 1.174-2.087.8-3.24-.375-1.152-1.353-1.977-2.552-2.15l-5.498-.799c-.378-.056-.705-.293-.875-.636l-2.459-4.982c-.536-1.087-1.622-1.762-2.833-1.762-1.212 0-2.298.675-2.835 1.762l-2.458 4.982c-.169.343-.497.58-.875.636l-5.499.799c-1.201.173-2.178.998-2.553 2.151z" fill="#e6e7e8"/><path d="m111.741 103h-4.241v-8.271c0-2.056-1.673-3.729-3.729-3.729h-2.771v-8.271c0-2.056-1.673-3.729-3.729-3.729h-2.274v-8.268c0-2.057-1.673-3.73-3.729-3.73h-12.174c-.003 0-.006-.002-.01-.002h-26.168c-.003 0-.006.002-.01.002h-12.179c-2.057 0-3.73 1.674-3.73 3.73v8.268h-2.268c-2.057 0-3.729 1.673-3.729 3.729v8.271h-2.771c-2.057 0-3.729 1.673-3.729 3.729v8.271h-4.242c-1.982 0-3.594 1.612-3.594 3.594v8.406c0 .553.448 1 1 1h23.336 50 23.336c.553 0 1-.447 1-1v-8.406c0-1.982-1.612-3.594-3.595-3.594z" fill="#e6e7e8"/><path d="m50.151 23.103-3.019-3.02c-.596-.595-1.561-.595-2.157 0-.596.596-.596 1.561 0 2.157l3.019 3.02c.596.596 1.561.596 2.157 0s.596-1.561 0-2.157z" fill="#ffd7e5"/><path d="m43.795 35.551h-4.27c-.842 0-1.525.683-1.525 1.525s.683 1.525 1.525 1.525h4.27c.842 0 1.525-.683 1.525-1.525s-.683-1.525-1.525-1.525z" fill="#ffd7e5"/><path d="m50.26 48.848c-.596-.596-1.561-.596-2.157 0l-3.019 3.02c-.596.596-.596 1.561 0 2.157s1.561.596 2.157 0l3.019-3.02c.595-.595.595-1.561 0-2.157z" fill="#ffd7e5"/><path d="m62.077 53.679c-.842 0-1.525.683-1.525 1.525v4.27c0 .842.683 1.525 1.525 1.525s1.525-.683 1.525-1.525v-4.27c0-.842-.683-1.525-1.525-1.525z" fill="#ffd7e5"/><path d="m79.025 51.759-3.019-3.02c-.596-.596-1.561-.596-2.157 0-.596.595-.596 1.561 0 2.157l3.019 3.02c.596.596 1.561.596 2.157 0s.595-1.561 0-2.157z" fill="#ffd7e5"/><path d="m84.475 35.398h-4.27c-.842 0-1.525.683-1.525 1.525s.683 1.525 1.525 1.525h4.27c.842 0 1.525-.683 1.525-1.525s-.683-1.525-1.525-1.525z" fill="#ffd7e5"/><path d="m78.916 19.975c-.596-.596-1.561-.596-2.157 0l-3.019 3.02c-.596.596-.596 1.561 0 2.157s1.561.596 2.157 0l3.019-3.02c.596-.596.596-1.562 0-2.157z" fill="#ffd7e5"/><path d="m61.923 13c-.842 0-1.525.683-1.525 1.525v4.27c0 .842.683 1.525 1.525 1.525s1.525-.683 1.525-1.525v-4.27c0-.842-.683-1.525-1.525-1.525z" fill="#ffd7e5"/><path d="m63.861 24.552 2.459 4.982c.315.638.923 1.08 1.627 1.182l5.498.799c1.772.258 2.48 2.436 1.198 3.686l-3.979 3.878c-.509.496-.742 1.212-.621 1.913l.939 5.476c.303 1.765-1.55 3.112-3.136 2.278l-4.918-2.585c-.63-.331-1.382-.331-2.011 0l-4.917 2.586c-1.585.833-3.438-.513-3.136-2.278l.939-5.476c.12-.701-.112-1.416-.621-1.913l-3.979-3.878c-1.283-1.25-.575-3.428 1.198-3.686l5.498-.799c.704-.102 1.312-.544 1.627-1.182l2.459-4.982c.793-1.607 3.083-1.607 3.876-.001z" fill="#ffd7e5"/><path d="m87.271 64h-50.542c-1.507 0-2.729 1.222-2.729 2.729v9.271h56v-9.271c0-1.507-1.222-2.729-2.729-2.729z" fill="#fff"/><path d="m89.997 69.732v6.27h-56v-6.27c0-1.51 1.23-2.73 2.73-2.73h50.54c1.51 0 2.73 1.221 2.73 2.73z" fill="#6dc9f7"/><path d="m93.271 76h-62.542c-1.507 0-2.729 1.222-2.729 2.729v9.271h68v-9.271c0-1.507-1.222-2.729-2.729-2.729z" fill="#6dc9f7"/><path d="m99.771 88h-75.542c-1.507 0-2.729 1.222-2.729 2.729v9.271h81v-9.271c0-1.507-1.222-2.729-2.729-2.729z" fill="#6dc9f7"/><path d="m107.742 100h-91.484c-1.433 0-2.594 1.161-2.594 2.594v8.406h96.672v-8.406c0-1.433-1.162-2.594-2.594-2.594z" fill="#6dc9f7"/><path d="m37 100h50v11h-50z" fill="#fa759e"/><path d="m48.916 64h26.168v12h-26.168z" fill="#fa759e"/><path d="m46.112 76h31.776v12h-31.776z" fill="#fa759e"/><path d="m43.075 88h37.85v12h-37.85z" fill="#fa759e"/><g fill="#3a2c60"><path d="m47.287 25.967c.477.477 1.111.74 1.786.74s1.309-.263 1.786-.74.74-1.111.74-1.785c0-.675-.263-1.31-.74-1.785l-3.02-3.02c-.954-.955-2.618-.952-3.57-.001-.478.477-.74 1.111-.74 1.786 0 .674.263 1.309.74 1.785zm-1.604-5.176c.099-.1.23-.154.371-.154s.272.055.372.154l3.02 3.021c.099.099.153.229.153.37 0 .14-.055.271-.154.371-.198.199-.544.199-.743 0l-3.02-3.02c-.099-.1-.154-.231-.154-.371 0-.141.055-.271.155-.371z"/><path d="m39.525 39.601h4.271c1.392 0 2.525-1.133 2.525-2.524 0-1.393-1.133-2.525-2.525-2.525h-4.271c-1.392 0-2.525 1.133-2.525 2.525s1.133 2.524 2.525 2.524zm0-3.049h4.271c.29 0 .525.235.525.525 0 .289-.235.524-.525.524h-4.271c-.29 0-.525-.235-.525-.524 0-.29.235-.525.525-.525z"/><path d="m47.396 48.142-3.02 3.02c-.983.984-.983 2.586 0 3.57.477.478 1.111.74 1.786.74s1.309-.264 1.785-.74l3.02-3.02c.984-.984.984-2.586 0-3.57-.953-.956-2.617-.956-3.571 0zm2.157 2.156-3.02 3.02c-.197.199-.544.199-.742 0-.205-.204-.205-.538 0-.742l3.02-3.02c.099-.1.231-.154.372-.154s.272.055.371.154c.203.205.203.537-.001.742z"/><path d="m59.552 55.204v4.271c0 1.393 1.133 2.525 2.525 2.525 1.393 0 2.525-1.133 2.525-2.525v-4.271c0-1.392-1.133-2.524-2.525-2.524s-2.525 1.132-2.525 2.524zm3.05 0v4.271c0 .29-.236.525-.525.525s-.525-.235-.525-.525v-4.271c0-.289.235-.524.525-.524s.525.235.525.524z"/><path d="m76.712 48.032c-.984-.984-2.585-.985-3.569-.001-.001.001-.001.001-.001.001-.984.984-.984 2.587 0 3.571l3.02 3.02c.477.478 1.111.74 1.785.74.675 0 1.31-.264 1.785-.74.984-.984.984-2.587 0-3.571zm1.604 5.178c-.197.196-.542.198-.741-.001l-3.02-3.02c-.205-.205-.205-.538 0-.743.205-.204.538-.202.742 0l3.02 3.02c.1.1.154.231.154.372.001.139-.054.271-.155.372z"/><path d="m77.68 36.923c0 1.393 1.133 2.525 2.524 2.525h4.271c1.393 0 2.525-1.133 2.525-2.525s-1.133-2.525-2.525-2.525h-4.271c-1.392-.001-2.524 1.132-2.524 2.525zm7.32 0c0 .29-.235.525-.525.525h-4.271c-.289 0-.524-.235-.524-.525s.235-.525.524-.525h4.271c.29-.001.525.235.525.525z"/><path d="m74.818 26.598c.674 0 1.309-.262 1.785-.739l3.02-3.02c.984-.984.984-2.587 0-3.571-.953-.956-2.62-.952-3.57 0l-3.02 3.02c-.984.984-.984 2.586-.001 3.57.477.477 1.111.74 1.786.74zm-.371-2.897 3.021-3.021c.099-.099.229-.153.37-.153.14 0 .271.055.371.154s.154.231.154.371c0 .141-.055.272-.154.372l-3.02 3.02c-.201.199-.545.197-.741.001-.001-.001-.001-.001-.001-.001-.205-.205-.205-.538 0-.743z"/><path d="m61.923 21.32c1.393 0 2.525-1.133 2.525-2.525v-4.271c0-1.392-1.133-2.524-2.525-2.524s-2.525 1.133-2.525 2.524v4.271c0 1.392 1.133 2.525 2.525 2.525zm-.525-6.796c0-.289.235-.524.525-.524s.525.235.525.524v4.271c0 .29-.236.525-.525.525s-.525-.235-.525-.525z"/><path d="m47.705 32.678c-.375 1.152-.068 2.394.8 3.24l3.979 3.879c.273.266.398.649.333 1.026l-.939 5.477c-.205 1.194.277 2.379 1.257 3.092.979.712 2.255.804 3.329.24l4.918-2.586c.339-.178.742-.178 1.081 0l4.918 2.586c.466.245.971.366 1.473.366.653 0 1.302-.204 1.856-.606.98-.713 1.462-1.897 1.257-3.092l-.939-5.477c-.064-.377.061-.761.334-1.027l3.979-3.878c.868-.846 1.175-2.088.8-3.24-.374-1.153-1.352-1.978-2.552-2.151l-5.497-.799c-.379-.056-.706-.293-.876-.636l-2.458-4.981c-.537-1.087-1.623-1.763-2.835-1.763s-2.298.676-2.834 1.763l-2.459 4.981c-.169.343-.496.58-.874.636l-5.499.799c-1.199.173-2.177.997-2.552 2.151zm8.338-.972c1.03-.149 1.92-.797 2.38-1.729l2.459-4.981c.2-.405.589-.647 1.041-.647s.841.242 1.041.647l2.459 4.981c.461.934 1.351 1.58 2.381 1.729l5.498.799c.447.065.798.36.937.791.14.43.03.874-.294 1.19l-3.979 3.878c-.745.726-1.084 1.771-.908 2.797l.939 5.477c.076.445-.097.87-.462 1.136-.366.265-.823.298-1.223.089l-4.918-2.586c-.461-.242-.966-.363-1.471-.363s-1.01.121-1.471.363l-4.918 2.586c-.399.209-.857.176-1.223-.089-.365-.266-.538-.69-.461-1.136l.939-5.477c.176-1.025-.164-2.071-.909-2.797l-3.979-3.878c-.324-.315-.434-.761-.294-1.19.14-.431.49-.726.937-.791z"/><path d="m64.813 110h-5.992c-.552 0-1 .447-1 1s.448 1 1 1h5.992c.552 0 1-.447 1-1s-.447-1-1-1z"/><path d="m107.742 99h-4.242v-8.271c0-2.056-1.673-3.729-3.729-3.729h-2.771v-8.271c0-2.056-1.673-3.729-3.73-3.729h-2.273v-8.268c0-2.057-1.674-3.729-3.73-3.729h-12.169c-.005 0-.009-.003-.015-.003h-26.168c-.005 0-.009.003-.015.003h-12.173c-2.057 0-3.73 1.673-3.73 3.729v8.268h-2.268c-2.056 0-3.729 1.673-3.729 3.728v8.272h-2.771c-2.056 0-3.729 1.673-3.729 3.729v8.271h-4.242c-1.981 0-3.594 1.612-3.594 3.594v8.406c0 .553.448 1 1 1h39.336c.552 0 1-.447 1-1s-.448-1-1-1h-15v-9h5.075 37.85 5.075v9h-15.521c-.553 0-1 .447-1 1s.447 1 1 1h39.856c.553 0 1-.447 1-1v-8.406c.001-1.982-1.611-3.594-3.593-3.594zm-6.242-8.272v8.272h-19.575v-10h14.075 3.771c.954 0 1.729.775 1.729 1.728zm-6.5-12v8.272h-14.075-2.037v-9.997h11.109c.005 0 .009-.003.015-.003h3.259c.954 0 1.729.775 1.729 1.728zm-47.888-1.725h29.776v9.997h-29.776zm2.803-12h24.168v9.997h-24.168zm39.082 1.729v8.268h-11.109-1.804v-9.997h11.183c.954 0 1.73.775 1.73 1.729zm-54 0c0-.954.776-1.729 1.73-1.729h11.189v9.997h-1.804-11.115zm-5.997 11.996c0-.953.775-1.728 1.729-1.728h3.253c.005 0 .009.003.015.003h11.115v9.997h-2.037-14.075zm-6.5 12c0-.953.775-1.729 1.729-1.729h3.771 14.075v10h-19.575zm13.5 19.272h-21.336v-7.406c0-.879.715-1.594 1.594-1.594h5.242 14.5zm8.075-11v-10h2.037 31.776 2.037v10zm65.261 11h-21.336v-9h14.5 5.242c.879 0 1.594.715 1.594 1.594z"/></g></svg>