<svg id="Layer_1" enable-background="new 0 0 128 128" height="512" viewBox="0 0 128 128" width="512" xmlns="http://www.w3.org/2000/svg"><path d="m121.808 87.334c0-.582-.058-1.165-.172-1.734l-2.173-25.228-.498-5.776c-.151-2.954-2.588-5.268-5.546-5.268h-7.537c0-.552-.447-1-1-1h-3.1v-6.942c2.821-.478 4.979-2.933 4.979-5.888v-10.17c0-.552-.447-1-1-1h-9.957c-.553 0-1 .448-1 1v10.17c0 2.955 2.157 5.41 4.979 5.888v6.942h-3.1c-.553 0-1 .448-1 1h-6.755c.154-.376.243-.786.243-1.217 0-1.774-1.443-3.217-3.217-3.217h-.735c-.508-9.828-8.393-17.714-18.219-18.222v-.819h.738c.553 0 1-.448 1-1s-.447-1-1-1h-3.477c-.553 0-1 .448-1 1s.447 1 1 1h.739v.819c-9.827.508-17.711 8.394-18.218 18.22h-.735c-1.773 0-3.217 1.443-3.217 3.217 0 .431.088.841.243 1.217h-2.651v-23.641c0-2.853-1.669-5.404-4.224-6.568v-6.657h.26c.553 0 1-.448 1-1s-.447-1-1-1h-.132v-2.404c0-.552-.447-1-1-1h-4.255c-.553 0-1 .448-1 1v2.404h-.133c-.553 0-1 .448-1 1s.447 1 1 1h.26v6.657c-2.555 1.164-4.223 3.715-4.223 6.568v23.643h-7.395c-2.958 0-5.395 2.314-5.543 5.233l-2.674 31.039c-.114.57-.172 1.153-.172 1.734 0 .05.002.099.007.17l-.003.034c-.009.099-.002.198.02.293.26 4.686 4.098 8.332 8.807 8.332 3.409 0 6.36-1.911 7.829-4.743 1.469 2.833 4.421 4.743 7.83 4.743s6.36-1.911 7.829-4.743c1.469 2.833 4.421 4.743 7.83 4.743s6.36-1.911 7.829-4.743c1.013 1.954 2.742 3.451 4.83 4.203v20.449h-9.976c-2.17 0-3.936 1.766-3.936 3.936s1.766 3.936 3.936 3.936h25.951c2.17 0 3.936-1.766 3.936-3.936s-1.766-3.936-3.936-3.936h-9.974v-20.449c2.088-.752 3.817-2.249 4.83-4.203 1.469 2.833 4.42 4.743 7.829 4.743s6.361-1.911 7.83-4.743c1.469 2.833 4.42 4.743 7.829 4.743s6.361-1.911 7.83-4.743c1.469 2.833 4.42 4.743 7.829 4.743 4.705 0 8.539-3.64 8.807-8.319.021-.1.028-.203.02-.307l-.004-.026c.005-.058.008-.117.008-.177z" fill="#e6e7e8"/><path d="m74.975 113.072h-25.95c-1.622 0-2.936 1.315-2.936 2.936s1.315 2.936 2.936 2.936h25.951c1.622 0 2.936-1.315 2.936-2.936s-1.315-2.936-2.937-2.936z" fill="#fa759e"/><path d="m62 23.622c-10.089 0-18.269 8.179-18.269 18.269h36.537c.001-10.09-8.179-18.269-18.268-18.269z" fill="#6dc9f7"/><path d="m62 26.621c9.065 0 16.568 6.61 18.001 15.269h.267c0-10.09-8.179-18.269-18.269-18.269s-18.268 8.18-18.268 18.269h.267c1.434-8.659 8.937-15.269 18.002-15.269z" fill="#fff"/><path d="m42.047 46.327h39.906c1.225 0 2.217-.993 2.217-2.217s-.993-2.217-2.217-2.217h-39.906c-1.225 0-2.217.993-2.217 2.217s.992 2.217 2.217 2.217z" fill="#0089ef"/><path d="m116.798 83.519c.001-.062.009-.123.009-.186 0-.545-.056-1.077-.162-1.591l-2.679-31.096c-.124-2.42-2.123-4.319-4.547-4.319h-94.838c-2.424 0-4.423 1.899-4.547 4.319l-2.679 31.096c-.106.514-.162 1.046-.162 1.591 0 .063.008.123.009.186l-.009.109h.015c.156 4.187 3.59 7.535 7.815 7.535s7.659-3.349 7.815-7.535h.03c.156 4.187 3.59 7.535 7.815 7.535s7.659-3.349 7.815-7.535h.03c.156 4.187 3.59 7.535 7.815 7.535s7.659-3.349 7.815-7.535h.03c.156 4.187 3.59 7.535 7.815 7.535s7.659-3.349 7.815-7.535h.03c.156 4.187 3.59 7.535 7.815 7.535s7.659-3.349 7.815-7.535h.03c.156 4.187 3.59 7.535 7.815 7.535s7.659-3.349 7.815-7.535h.03c.156 4.187 3.59 7.535 7.815 7.535s7.659-3.349 7.815-7.535h.015z" fill="#ffd7e5"/><path d="m62 91.163c-.693 0-1.361-.098-2-.267v22.176h4v-22.176c-.639.169-1.307.267-2 .267z" fill="#fa759e"/><path d="m31.166 15.784c.017-.106.033-.212.033-.322v-8.002h-4v8.001c0 .11.015.217.033.322-2.472.824-4.256 3.152-4.256 5.901v24.643h12.446v-24.642c0-2.749-1.784-5.077-4.256-5.901z" fill="#0089ef"/><path d="m29.198 25.221c-1.739 0-3.149 1.41-3.149 3.149s1.41 3.149 3.149 3.149 3.149-1.41 3.149-3.149-1.409-3.149-3.149-3.149z" fill="#fff"/><path d="m27.071 4.056h4.255v3.404h-4.255z" fill="#fa759e"/><path d="m91.804 21.327v10.17c0 2.75 2.229 4.979 4.979 4.979s4.979-2.229 4.979-4.979v-10.17z" fill="#6dc9f7"/><g fill="#3a2c60"><path d="m113.853 60.979.396 4.595c.045.521.481.914.995.914.028 0 .058-.001.087-.004.55-.047.958-.532.91-1.082l-.396-4.595c-.048-.55-.524-.966-1.082-.91-.55.048-.958.532-.91 1.082z"/><path d="m117.808 83.333c0-.582-.058-1.165-.172-1.734l-.999-11.603c-.048-.55-.521-.969-1.082-.91-.55.047-.958.532-.91 1.082l1.004 11.66c.003.039.009.078.017.117.095.456.143.922.14 1.421-.001.014-.006.107-.007.121v.04c-.002.021-.003.042-.004.063-.138 3.686-3.132 6.573-6.816 6.573s-6.678-2.887-6.815-6.573c-.02-.538-.491-.963-1.029-.963s-.979.425-.999.963c-.137 3.686-3.131 6.573-6.815 6.573s-6.678-2.887-6.815-6.573c-.02-.538-.491-.963-1.029-.963s-.979.425-.999.963c-.137 3.686-3.131 6.573-6.815 6.573s-6.679-2.887-6.815-6.573c-.02-.538-.491-.963-1.029-.963s-.979.425-.999.963c-.138 3.686-3.132 6.573-6.815 6.573-3.685 0-6.679-2.887-6.815-6.573-.02-.538-.491-.963-1.029-.963s-.979.425-.999.963c-.138 3.686-3.132 6.573-6.815 6.573-3.685 0-6.679-2.887-6.816-6.573-.02-.538-.49-.963-1.028-.963s-.979.425-.999.963c-.138 3.686-3.132 6.573-6.815 6.573-3.685 0-6.679-2.887-6.816-6.573-.02-.538-.49-.963-1.028-.963s-.979.425-.999.963c-.138 3.686-3.132 6.573-6.815 6.573-3.685 0-6.679-2.887-6.816-6.573-.001-.021-.002-.042-.004-.062 0-.014 0-.027 0-.041-.001-.014-.009-.141-.01-.154 0-.464.048-.932.142-1.39.008-.038.014-.077.017-.115l2.683-31.13c.097-1.89 1.655-3.371 3.548-3.371h94.838c1.892 0 3.45 1.48 3.551 3.405l.501 5.811c.047.55.514.962 1.082.91.55-.047.958-.532.91-1.082l-.498-5.777c-.153-2.954-2.589-5.268-5.546-5.268h-7.537c0-.552-.447-1-1-1h-3.1v-6.942c2.821-.478 4.979-2.933 4.979-5.888v-10.17c0-.552-.447-1-1-1h-9.957c-.553 0-1 .448-1 1v10.17c0 2.955 2.157 5.41 4.979 5.888v6.942h-3.1c-.553 0-1 .448-1 1h-6.755c.156-.375.243-.786.243-1.217 0-1.774-1.443-3.217-3.217-3.217h-.735c-.518-9.826-8.402-17.712-18.229-18.22v-.819h.738c.553 0 1-.448 1-1s-.447-1-1-1h-3.477c-.553 0-1 .448-1 1s.447 1 1 1h.739v.819c-9.827.508-17.711 8.394-18.218 18.22h-.735c-1.773 0-3.217 1.443-3.217 3.217 0 .431.087.842.243 1.217h-2.651v-23.641c0-2.854-1.669-5.404-4.224-6.568v-6.657h.26c.553 0 1-.448 1-1s-.447-1-1-1h-.132v-2.404c0-.552-.447-1-1-1h-4.256c-.553 0-1 .448-1 1v2.404h-.132c-.553 0-1 .448-1 1s.447 1 1 1h.26v6.657c-2.554 1.164-4.223 3.714-4.223 6.567v23.643h-7.395c-2.958 0-5.395 2.314-5.543 5.233l-2.674 31.04c-.113.571-.171 1.154-.171 1.733 0 .05.002.099.007.17l-.003.034c-.009.099-.002.198.02.293.26 4.686 4.098 8.332 8.807 8.332 3.409 0 6.36-1.911 7.829-4.743 1.469 2.833 4.421 4.743 7.83 4.743s6.36-1.911 7.829-4.743c1.469 2.833 4.421 4.743 7.83 4.743s6.36-1.911 7.829-4.743c1.013 1.954 2.742 3.451 4.83 4.203v20.449h-9.976c-2.171 0-3.937 1.766-3.937 3.936s1.766 3.937 3.937 3.937h25.951c2.17 0 3.936-1.766 3.936-3.937s-1.766-3.936-3.936-3.936h-9.975v-20.448c2.088-.752 3.816-2.249 4.829-4.203 1.469 2.833 4.421 4.743 7.83 4.743s6.361-1.911 7.83-4.743c1.469 2.833 4.42 4.743 7.829 4.743s6.361-1.911 7.83-4.743c1.469 2.833 4.42 4.743 7.829 4.743 4.705 0 8.539-3.64 8.807-8.319.021-.1.028-.203.02-.307l-.004-.026c.005-.058.008-.117.008-.178zm-25.004-51.835v-9.17h7.957v9.17c0 2.194-1.785 3.979-3.979 3.979s-3.978-1.786-3.978-3.979zm-30.804-6.876c9.187 0 16.721 7.21 17.24 16.269h-34.48c.519-9.059 8.054-16.269 17.24-16.269zm-21.17 19.488c0-.671.546-1.217 1.217-1.217h39.906c.671 0 1.217.546 1.217 1.217s-.546 1.217-1.217 1.217h-39.906c-.671 0-1.217-.546-1.217-1.217zm-12.76-39.054h2.256v1.404h-2.256zm-4.094 16.629c0-2.25 1.436-4.24 3.572-4.952.467-.156.751-.627.67-1.112-.009-.052-.02-.104-.02-.159v-7.002h2v7.001c0 .055-.01.107-.019.159-.081.485.203.957.67 1.112 2.137.712 3.572 2.702 3.572 4.952v23.643h-10.445zm52.935 94.323c0 1.068-.868 1.937-1.936 1.937h-25.951c-1.067 0-1.937-.869-1.937-1.937 0-1.067.869-1.936 1.937-1.936h25.951c1.068 0 1.936.868 1.936 1.936zm-13.911-23.905v19.969h-2v-19.968c.331.039.66.058.988.059.004 0 .008.001.012.001s.008-.001.012-.001c.329-.001.657-.02.988-.06z"/></g></svg>