<svg id="Layer_1" enable-background="new 0 0 128 128" height="512" viewBox="0 0 128 128" width="512" xmlns="http://www.w3.org/2000/svg"><path d="m101.384 7h-50.919c-.023 0-.043.011-.065.013-.087.006-.172.023-.254.051-.033.011-.065.02-.097.035-.106.049-.207.11-.292.196l-28.214 28.379c-.085.086-.146.187-.195.293-.014.031-.022.062-.033.094-.028.084-.045.168-.051.256-.001.021-.012.041-.012.062v79.256c0 5.164 4.201 9.365 9.365 9.365h70.768c5.163 0 9.364-4.201 9.364-9.365v-99.27c-.001-5.164-4.202-9.365-9.365-9.365z" fill="#e6e7e8"/><path d="m97.383 4h-50.918l-28.213 28.379v79.256c0 4.62 3.745 8.365 8.365 8.365h70.767c4.62 0 8.365-3.745 8.365-8.365v-99.27c-.001-4.62-3.746-8.365-8.366-8.365z" fill="#fff"/><path d="m46.469 4v20.01c0 4.62-3.75 8.37-8.37 8.37h-19.85z" fill="#d4fbff"/><path d="m18.249 32.38h2.984l25.236-25.38v-3z" fill="#fff"/><g fill="#3a2c60"><path d="m105.749 58.428c-.553 0-1 .448-1 1v6.572c0 .552.447 1 1 1s1-.448 1-1v-6.572c0-.552-.447-1-1-1z"/><path d="m97.384 3h-50.919c-.023 0-.043.012-.066.013-.087.006-.17.022-.252.05-.034.011-.067.02-.099.035-.106.049-.206.11-.292.196l-28.213 28.38c-.085.086-.146.187-.195.293-.014.031-.022.062-.033.094-.028.084-.045.168-.051.256-.001.021-.012.041-.012.062v79.256c0 5.164 4.201 9.365 9.365 9.365h70.767c5.164 0 9.365-4.201 9.365-9.365v-41.09c0-.552-.447-1-1-1s-1 .448-1 1v41.09c0 4.061-3.304 7.365-7.365 7.365h-70.767c-4.061 0-7.365-3.304-7.365-7.365v-78.256h18.848c5.164 0 9.365-4.201 9.365-9.365v-19.014h49.919c4.062 0 7.365 3.304 7.365 7.365v42.655c0 .552.447 1 1 1s1-.448 1-1v-42.655c0-5.164-4.201-9.365-9.365-9.365zm-59.284 28.379h-17.444l24.809-24.955v17.59c0 4.061-3.304 7.365-7.365 7.365z"/><path d="m31.003 106.106c-.552 0-1 .448-1 1s.448 1 1 1h18.523c.552 0 1-.448 1-1s-.448-1-1-1z"/><path d="m93.859 106.868h-18.523c-.553 0-1 .448-1 1s.447 1 1 1h18.523c.553 0 1-.448 1-1s-.447-1-1-1z"/><path d="m93.859 93.726h-62.856c-.552 0-1 .448-1 1s.448 1 1 1h62.856c.553 0 1-.448 1-1s-.447-1-1-1z"/><path d="m31.003 45.535h20.523c.552 0 1-.448 1-1s-.448-1-1-1h-20.523c-.552 0-1 .448-1 1s.448 1 1 1z"/><path d="m93.859 31.226h-20.523c-.553 0-1 .448-1 1s.447 1 1 1h20.523c.553 0 1-.448 1-1s-.447-1-1-1z"/><path d="m93.859 37.38h-20.523c-.553 0-1 .448-1 1s.447 1 1 1h20.523c.553 0 1-.448 1-1s-.447-1-1-1z"/><path d="m93.859 43.535h-20.523c-.553 0-1 .448-1 1s.447 1 1 1h20.523c.553 0 1-.448 1-1s-.447-1-1-1z"/></g><path d="m65.513 23.427h-3.546c-.512 0-.877-.115-1.097-.344-.218-.231-.328-.596-.328-1.097v-8.723c0-.512.112-.88.337-1.104.224-.225.587-.337 1.088-.337h3.76c.554 0 1.035.034 1.441.103s.77.2 1.092.396c.275.164.517.371.728.621.211.251.372.528.483.832.111.303.166.623.166.961 0 1.161-.58 2.011-1.741 2.549 1.525.485 2.288 1.43 2.288 2.834 0 .649-.166 1.234-.499 1.753-.332.52-.781.905-1.346 1.152-.354.148-.76.252-1.219.313s-.995.091-1.607.091zm-2.62-9.839v3h2.153c.586 0 1.038-.055 1.358-.166.319-.111.563-.322.732-.633.132-.222.198-.469.198-.744 0-.586-.208-.975-.625-1.168-.417-.192-1.053-.288-1.908-.288h-1.908zm2.446 4.686h-2.446v3.388h2.525c1.589 0 2.383-.572 2.383-1.718 0-.586-.206-1.011-.617-1.274-.412-.263-1.027-.396-1.845-.396z" fill="#0089ef"/><path d="m79.864 13.636h-5.296v2.85h4.876c.358 0 .626.08.804.241.176.162.265.374.265.638s-.087.479-.261.645c-.174.167-.443.25-.807.25h-4.876v3.301h5.478c.37 0 .648.086.836.258.187.171.28.399.28.684 0 .275-.094.498-.28.668-.188.172-.466.258-.836.258h-6.388c-.512 0-.88-.113-1.104-.34-.225-.227-.337-.594-.337-1.1v-8.723c0-.338.05-.613.15-.828.101-.213.257-.369.472-.466.213-.098.486-.147.819-.147h6.206c.374 0 .654.084.835.249.183.167.274.384.274.654 0 .275-.09.495-.274.66-.182.165-.461.248-.836.248z" fill="#0089ef"/><path d="m88.136 11.625c1.203 0 2.236.244 3.1.732.862.489 1.515 1.183 1.959 2.083.443.899.665 1.956.665 3.17 0 .897-.121 1.712-.364 2.446s-.607 1.369-1.092 1.908c-.485.538-1.082.95-1.789 1.235s-1.518.427-2.43.427c-.908 0-1.72-.146-2.438-.44-.718-.292-1.316-.706-1.797-1.238s-.844-1.174-1.088-1.923c-.247-.75-.369-1.559-.369-2.43 0-.892.128-1.71.384-2.454s.626-1.377 1.112-1.9c.485-.522 1.077-.922 1.773-1.2.696-.277 1.487-.416 2.374-.416zm3.34 5.969c0-.849-.137-1.585-.412-2.208s-.666-1.093-1.175-1.413c-.51-.319-1.095-.478-1.754-.478-.469 0-.904.088-1.302.266-.399.176-.742.433-1.029.771-.288.338-.516.769-.681 1.294-.167.526-.25 1.115-.25 1.77 0 .659.083 1.256.25 1.789.165.533.4.975.703 1.326.304.351.652.613 1.045.787.394.174.825.261 1.295.261.602 0 1.155-.15 1.659-.451.503-.301.905-.766 1.203-1.393.299-.63.448-1.403.448-2.321z" fill="#0089ef"/><path d="m96.189 51.394v3.021h-33.578v-4.995h31.605c1.093 0 1.973.88 1.973 1.974z" fill="#fa759e"/><path d="m62.611 49.42v4.994h-34.802v-3.021c0-1.093.89-1.974 1.983-1.974h32.819z" fill="#0089ef"/><path d="m96.189 54.422v34.005c0 1.093-.88 1.983-1.974 1.983h-31.604v-35.988z" fill="#ffd7e5"/><path d="m62.611 54.422v35.987h-32.819c-1.093 0-1.983-.889-1.983-1.983v-34.004z" fill="#d4fbff"/></svg>