<svg id="Layer_1" enable-background="new 0 0 128 128" height="512" viewBox="0 0 128 128" width="512" xmlns="http://www.w3.org/2000/svg"><path d="m119.821 78.418h-.476v-5.143c0-5.69-4.613-10.303-10.303-10.303h-3.78c-.233 0-.46.02-.689.035 0-.017.003-.034.003-.052-.012-.871-.573-1.57-1.252-1.561-.512.007-.944.413-1.122.984-.497-.338-1.09-.386-1.495-.071-.486.378-.528 1.148-.135 1.802-3.329 1.707-5.612 5.167-5.612 9.166v5.143h-16.767v-5.143c0-5.69-4.613-10.303-10.303-10.303h-3.78c-.233 0-.46.02-.689.035 0-.017.003-.034.003-.052-.012-.871-.573-1.57-1.252-1.561-.512.007-.944.413-1.122.984-.497-.338-1.09-.386-1.495-.071-.486.378-.528 1.148-.135 1.802-3.329 1.707-5.612 5.167-5.612 9.166v5.143h-5.929c1.852-.879 3.139-2.762 3.139-4.945 0-1.753-.831-3.313-2.117-4.316l7.01-16.314c.218-.507-.017-1.096-.524-1.313-.507-.216-1.095.016-1.313.524l-6.951 16.177c-.114-.034-.23-.062-.346-.089-.255-3.336-1.655-6.35-3.81-8.66-.04-.05-.078-.098-.126-.139-1.03-1.076-2.218-1.999-3.537-2.713-.015-.01-.033-.015-.049-.023-1.002-.538-2.079-.946-3.204-1.235-.024-.008-.041-.028-.066-.034-.026-.007-.054-.009-.08-.016 2.284-1.497 3.99-3.793 4.735-6.488.01 0 .021.003.031.003 1.428 0 2.546-1.398 2.546-3.183 0-1.578-.876-2.85-2.066-3.124v-6.177c0-4.78-3.875-8.654-8.654-8.654h-.237c.07-.177.616-.94 1.057-1.541.244-.333.005-.804-.408-.795-.619.013-1.446.087-2.216.334-1.491.478-2.485 1.3-2.485 1.3l1.009-2.227c.165-.365-.138-.767-.533-.701-.881.146-2.298.477-3.745 1.208-2.552 1.29-6.714 4.646-6.714 10.62v.457.994 5.182c-1.19.274-2.066 1.546-2.066 3.124 0 1.784 1.118 3.183 2.546 3.183.01 0 .021-.003.031-.003.745 2.695 2.452 4.991 4.736 6.488-.026.006-.054.009-.08.015-.024.006-.041.026-.065.034-1.125.288-2.202.697-3.203 1.234-.017.009-.035.015-.052.025-1.319.714-2.505 1.637-3.535 2.711-.05.042-.089.092-.131.144-2.388 2.562-3.863 5.986-3.863 9.756v9.177h-.363c-3.695 0-6.702 3.007-6.702 6.702v24.244c0 2.092.965 3.962 2.472 5.192v1.394c0 1.654 1.346 3 3 3h27.798c1.615 0 2.926-1.284 2.988-2.884h7.379c.063 1.599 1.374 2.884 2.988 2.884h27.797c1.615 0 2.926-1.284 2.988-2.884h7.379c.063 1.599 1.374 2.884 2.988 2.884h27.798c1.654 0 3-1.346 3-3v-1.394c1.507-1.23 2.472-3.1 2.472-5.192v-24.244c-.002-3.695-3.008-6.702-6.704-6.702z" fill="#e6e7e8"/><path d="m56.929 50.276h33.713c4.021 0 7.293-3.272 7.293-7.294v-22.638c0-4.021-3.271-7.294-7.293-7.294h-33.713c-4.021 0-7.293 3.272-7.293 7.294v22.639c0 4.021 3.271 7.293 7.293 7.293z" fill="#e6e7e8"/><path d="m36.67 39.471c-.217 0-.423.064-.61.178v2.161c0 .592-.052 1.171-.147 1.735.225.18.481.291.758.291.854 0 1.546-.977 1.546-2.182-.001-1.206-.693-2.183-1.547-2.183z" fill="#fff"/><path d="m15.313 41.809v-2.161c-.187-.114-.393-.178-.61-.178-.854 0-1.546.977-1.546 2.182s.692 2.182 1.546 2.182c.277 0 .533-.111.758-.291-.096-.563-.148-1.142-.148-1.734z" fill="#fff"/><path d="m28.496 51.907h-5.62c-7.308 0-13.235 5.881-13.326 13.167.961-2.142 2.634-3.896 4.717-4.964-.394-.653-.352-1.423.135-1.802.405-.315.998-.267 1.495.071.178-.572.611-.977 1.122-.984.68-.009 1.24.69 1.252 1.561 0 .018-.003.034-.003.052.229-.015.457-.035.689-.035h3.78c5.69 0 10.303 4.613 10.303 10.303v6.14h8.791v-10.174c0-7.365-5.97-13.335-13.335-13.335z" fill="#fff"/><path d="m14.267 60.11c-.394-.653-.352-1.423.135-1.802.405-.315.998-.267 1.495.071.178-.572.611-.977 1.122-.984.68-.009 1.24.69 1.252 1.561 0 .018-.003.034-.003.052.229-.015.457-.035.689-.035h.565c-1.545-1.404-2.614-3.324-2.927-5.492-4.153 2.219-6.985 6.572-7.047 11.595.962-2.144 2.635-3.898 4.719-4.966z" fill="#0089ef"/><path d="m34.775 53.475c-.494 3.451-2.902 6.277-6.113 7.38 2.645 1.865 4.378 4.938 4.378 8.42v6.142h8.792v-10.177c0-5.093-2.859-9.521-7.057-11.765z" fill="#0089ef"/><path d="m25.791 54.129h-.209l-1.858 2.695.856 2.225h2.213l.856-2.225z" fill="#fa759e"/><path d="m34.876 35.146-2.651-4.261c-1.051-1.437-2.724-2.287-4.505-2.287h-4.069c-1.78 0-3.454.85-4.505 2.287l-2.651 4.261c-.773 1.243-1.183 2.678-1.183 4.142v2.521c0 5.729 4.644 10.374 10.373 10.374s10.375-4.645 10.375-10.374v-2.521c0-1.464-.41-2.898-1.184-4.142z" fill="#fff"/><path d="m28.922 51.918-3.236 2.06 2.614 3.793 3.44-5.464c-.906-.227-1.849-.359-2.818-.389z" fill="#d4fbff"/><path d="m19.632 52.307 3.44 5.464 2.614-3.793-3.236-2.06c-.969.03-1.912.162-2.818.389z" fill="#d4fbff"/><path d="m25.686 52.183c-1.391 0-2.717-.276-3.929-.772v.063l3.929 2.503 3.933-2.503v-.065c-1.213.498-2.54.774-3.933.774z" fill="#fff"/><circle cx="41.541" cy="69.473" fill="#fff" r="4.477"/><path d="m45.102 111.067v-10.919c0-3.719 1.455-7.097 3.812-9.623.039-.049.076-.096.123-.136 2.255-2.355 5.306-3.94 8.723-4.295-3.02-1.387-5.246-4.204-5.814-7.589-.221.177-.49.298-.763.298-.841 0-1.522-.962-1.522-2.149 0-.435.146-1.176.146-1.176v-.059h-16.767v.059s.146.741.146 1.176c0 1.187-.682 2.149-1.522 2.149-.27 0-.541-.13-.761-.305-.566 3.387-2.793 6.208-5.815 7.596 3.416.355 6.466 1.939 8.721 4.292.051.042.091.093.133.146 2.353 2.525 3.806 5.9 3.806 9.616v10.919z" fill="#fa759e"/><path d="m90.96 75.418h-16.767v.059s.146.741.146 1.176c0 1.187-.682 2.149-1.522 2.149-.27 0-.541-.13-.761-.305-.566 3.387-2.793 6.208-5.815 7.596 3.416.355 6.466 1.939 8.721 4.292.051.043.092.094.134.148 2.352 2.525 3.804 5.899 3.804 9.614v10.919h7.355v-10.919c0-3.72 1.456-7.098 3.814-9.625.039-.048.076-.095.122-.134 2.255-2.355 5.306-3.94 8.723-4.295-3.02-1.387-5.246-4.204-5.814-7.589-.221.177-.49.298-.763.298-.841 0-1.522-.962-1.522-2.149 0-.435.146-1.176.146-1.176v-.059z" fill="#fa759e"/><path d="m3.948 100.147c0-3.72 1.456-7.099 3.814-9.625.039-.048.075-.094.121-.134 2.255-2.355 5.306-3.94 8.724-4.296-3.02-1.387-5.246-4.204-5.814-7.589-.221.177-.49.298-.763.298-.841 0-1.522-.962-1.522-2.149 0-.435.146-1.176.146-1.176v-.059h-.475c-3.149 0-5.702 2.553-5.702 5.702v24.244c0 1.469.56 2.803 1.472 3.814v-9.03z" fill="#fa759e"/><path d="m115.821 75.418h-.476v.059s.146.741.146 1.176c0 1.187-.682 2.149-1.522 2.149-.27 0-.541-.13-.761-.305-.566 3.387-2.793 6.208-5.815 7.596 3.416.355 6.466 1.939 8.721 4.292.051.043.092.094.134.147 2.353 2.525 3.805 5.9 3.805 9.615v9.031c.912-1.011 1.472-2.345 1.472-3.814v-24.244c-.001-3.149-2.554-5.702-5.704-5.702z" fill="#fa759e"/><path d="m23.615 87.016h-5.535c-7.252 0-13.131 5.879-13.131 13.131v11.802c0 1.105.895 2 2 2h27.798c1.105 0 2-.895 2-2v-11.802c-.001-7.252-5.88-13.131-13.132-13.131z" fill="#0089ef"/><path d="m48.101 113.95h27.798c1.105 0 2-.895 2-2v-11.802c0-7.252-5.879-13.132-13.132-13.132h-5.535c-7.252 0-13.132 5.879-13.132 13.132v11.802c.001 1.104.897 2 2.001 2z" fill="#0089ef"/><path d="m89.254 113.95h27.798c1.105 0 2-.895 2-2v-11.802c0-7.252-5.879-13.132-13.132-13.132h-5.535c-7.252 0-13.132 5.879-13.132 13.132v11.802c.001 1.104.896 2 2.001 2z" fill="#0089ef"/><path d="m92.933 16.345v22.635c0 3.474-2.812 6.296-6.296 6.296h-33.71c-3.474 0-6.296-2.822-6.296-6.296v-22.635c0-3.474 2.822-6.296 6.296-6.296h33.709c3.484-.001 6.297 2.821 6.297 6.296z" fill="#fff"/><path d="m92.933 19.264v19.716c0 3.474-2.812 6.296-6.296 6.296h-33.71c-3.474 0-6.296-2.822-6.296-6.296v-19.716c0-3.474 2.822-6.296 6.296-6.296h33.709c3.484 0 6.297 2.822 6.297 6.296z" fill="#d4fbff"/><path d="m58.066 39.293v-6.091c0-.844-.684-1.528-1.528-1.528h-.005c-.844 0-1.528.684-1.528 1.528v6.091z" fill="#0089ef"/><path d="m62.414 39.293v-8.952c0-.844-.684-1.528-1.528-1.528s-1.528.684-1.528 1.528v8.952z" fill="#6dc9f7"/><path d="m66.767 39.293v-10.995c0-.844-.684-1.528-1.528-1.528h-.005c-.844 0-1.528.684-1.528 1.528v10.995z" fill="#fa759e"/><path d="m75.439 39.293v-11.156c0-.844-.684-1.528-1.528-1.528h-.005c-.844 0-1.528.684-1.528 1.528v11.156z" fill="#fff"/><path d="m71.12 39.293v-9.513c0-.844-.684-1.528-1.528-1.528h-.005c-.844 0-1.528.684-1.528 1.528v9.513z" fill="#ffd7e5"/><path d="m84.391 21.582c-1.841 0-3.338-1.498-3.338-3.338 0-1.841 1.498-3.338 3.338-3.338 1.841 0 3.338 1.497 3.338 3.338 0 1.84-1.497 3.338-3.338 3.338z" fill="#fa759e"/><g fill="#3a2c60"><circle cx="21.11" cy="40.357" r="1.037"/><circle cx="30.263" cy="40.357" r="1.037"/><path d="m25.687 45.975c1.202 0 2.18-.978 2.18-2.18 0-.553-.447-1-1-1s-1 .447-1 1c0 .197-.359.197-.359 0 0-.553-.447-1-1-1s-1 .447-1 1c-.001 1.202.976 2.18 2.179 2.18z"/><path d="m29.381 38.882 2.032.354c.058.01.115.015.172.015.478 0 .899-.343.984-.829.095-.544-.27-1.062-.814-1.156l-2.032-.354c-.543-.092-1.062.271-1.156.814s.269 1.061.814 1.156z"/><path d="m22.806 37.725c-.095-.543-.603-.906-1.157-.813l-2.031.354c-.544.095-.908.612-.813 1.157.085.485.507.828.984.828.057 0 .114-.005.173-.015l2.031-.354c.543-.095.907-.612.813-1.157z"/><path d="m28.781 48.228c.33-.436.244-1.049-.187-1.386-.431-.336-1.056-.258-1.399.168-.021.027-.555.676-1.509.676-.959 0-1.461-.613-1.496-.658-.326-.438-.942-.534-1.389-.214-.447.323-.548.948-.225 1.396.396.548 1.496 1.476 3.109 1.476 1.574 0 2.687-.916 3.096-1.458z"/><path d="m115.821 74.418h-.476v-5.143c0-5.69-4.613-10.303-10.303-10.303h-3.78c-.233 0-.46.02-.689.035 0-.017.003-.034.003-.052-.012-.871-.573-1.57-1.252-1.561-.512.007-.944.413-1.122.984-.497-.338-1.09-.386-1.495-.071-.486.378-.528 1.148-.135 1.802-3.329 1.707-5.612 5.167-5.612 9.166v5.143h-16.767v-5.143c0-5.69-4.613-10.303-10.303-10.303h-3.78c-.233 0-.46.02-.689.035 0-.017.003-.034.003-.052-.012-.871-.573-1.57-1.252-1.561-.512.007-.944.413-1.122.984-.497-.338-1.09-.386-1.495-.071-.486.378-.528 1.148-.135 1.802-3.329 1.707-5.612 5.167-5.612 9.166v5.143h-5.929c1.852-.879 3.139-2.762 3.139-4.945 0-1.753-.831-3.313-2.117-4.316l7.01-16.314c.218-.507-.017-1.096-.524-1.313-.507-.216-1.095.016-1.313.524l-6.951 16.177c-.113-.034-.228-.062-.344-.089-.255-3.328-1.65-6.334-3.797-8.639-.054-.071-.111-.133-.18-.186-1.009-1.044-2.166-1.943-3.451-2.645-.06-.043-.125-.073-.195-.102-.962-.506-1.99-.9-3.064-1.178-.038-.015-.067-.046-.107-.056-.026-.007-.054-.009-.08-.016 2.284-1.497 3.99-3.793 4.735-6.488.01 0 .021.003.031.003 1.428 0 2.546-1.398 2.546-3.183 0-1.578-.876-2.85-2.066-3.124v-6.177c0-4.78-3.875-8.654-8.654-8.654h-.237c.07-.177.616-.94 1.057-1.541.244-.333.005-.804-.408-.795-.619.013-1.446.087-2.216.334-1.491.478-2.485 1.3-2.485 1.3l1.009-2.227c.165-.365-.138-.767-.533-.701-.881.146-2.298.477-3.745 1.208-2.552 1.29-6.714 4.646-6.714 10.62v.457.994 5.182c-1.19.274-2.066 1.546-2.066 3.124 0 1.784 1.118 3.183 2.546 3.183.01 0 .021-.003.031-.003.745 2.695 2.452 4.991 4.736 6.488-.026.006-.054.009-.08.015-.04.01-.068.041-.106.055-1.074.279-2.102.672-3.063 1.178-.07.029-.136.059-.196.102-1.285.702-2.443 1.601-3.452 2.646-.069.053-.126.115-.18.186-2.382 2.556-3.85 5.974-3.85 9.737v9.177h-.366c-3.695 0-6.702 3.007-6.702 6.702v24.244c0 2.092.965 3.962 2.472 5.192v1.394c0 1.654 1.346 3 3 3h27.798c1.654 0 3-1.346 3-3 0 .04-.01.077-.012.116h7.379c-.002-.039-.012-.076-.012-.116 0 1.654 1.346 3 3 3h27.797c1.654 0 3-1.346 3-3 0 .04-.01.077-.012.116h7.379c-.002-.039-.012-.076-.012-.116 0 1.654 1.346 3 3 3h27.798c1.654 0 3-1.346 3-3v-1.394c1.507-1.23 2.472-3.1 2.472-5.192v-24.242c-.001-3.695-3.007-6.702-6.703-6.702zm-5.439 22.916v15.616h-14.457v-15.616c0-2.606-1.311-4.977-3.416-6.395 2.122-1.818 4.871-2.924 7.877-2.924h5.534c3.007 0 5.756 1.106 7.878 2.924-2.105 1.419-3.416 3.79-3.416 6.395zm-41.153 0v15.616h-14.457v-15.616c0-2.606-1.311-4.978-3.417-6.395 2.122-1.818 4.87-2.924 7.877-2.924h5.535c3.007 0 5.756 1.106 7.878 2.924-2.105 1.418-3.416 3.79-3.416 6.395zm-41.152 0v15.616h-14.457v-15.616c0-2.606-1.311-4.977-3.417-6.395 2.122-1.818 4.871-2.924 7.877-2.924h5.534c3.007 0 5.756 1.106 7.878 2.924-2.105 1.419-3.415 3.79-3.415 6.395zm-13.81-37.224c-1.395.715-2.59 1.752-3.526 2.993.38-2.158 1.321-4.124 2.667-5.742.421.248.817.528 1.16.863-.055.028-.115.045-.165.084-.488.378-.53 1.148-.136 1.802zm2.335-2.607c-.494-.618-1.088-1.156-1.753-1.607.347-.299.712-.575 1.091-.834.25.829.593 1.618 1.031 2.343-.13.008-.253.042-.369.098zm-.346.264c-.045.049-.09.099-.129.155.04-.055.083-.106.129-.155zm-.205.271c-.061.106-.116.217-.154.34.039-.124.093-.235.154-.34zm-.159.339c-.113-.076-.231-.133-.35-.179.119.044.237.102.35.179zm-.593-.24c-.033-.007-.066-.017-.099-.021.033.004.066.015.099.021zm-.416-.014c-.002 0-.005 0-.007.001.003 0 .005 0 .007-.001zm4.307-4.64 3.036 4.821c.18.284.49.46.826.467h.021c.107 0 .209-.023.308-.055l.113.295c-.251-.018-.501-.038-.756-.038h-1.573c-1.691-1.131-2.95-2.874-3.435-4.93.47-.219.959-.403 1.46-.56zm14.436.557c-.689 2.916-2.929 5.19-5.75 5.987l-.068-.833.184-.479c.099.032.202.055.308.055h.021c.336-.007.646-.183.826-.467l3.041-4.829c.495.157.972.352 1.438.566zm-8.779 2.918.84-1.218.839 1.218-.419 1.092h-.84zm3.416-1.004-1.164-1.69 2.078-1.322c.097.005.196.007.292.015.158.012.315.025.471.044.056.007.111.018.167.025zm-6.785-2.959c.175-.02.352-.037.529-.049.061-.004.123-.005.185-.008l2.084 1.326-1.164 1.689-1.845-2.93c.069-.008.139-.019.211-.028zm-3.21 6.012c.229-.015.457-.035.689-.035-.233 0-.46.02-.689.035zm-.102-.664c-.162-.47-.497-.82-.899-.92.402.1.737.45.899.92zm11.398 3.23c2.794-1.166 4.993-3.545 5.877-6.511.375.257.732.538 1.076.834-2.141 1.436-3.474 3.843-3.474 6.488v12.031h-.003v-5.14c0-3.068-1.348-5.815-3.476-7.702zm11.194 2.486c-2.649.382-4.693 2.661-4.693 5.414 0 2.18 1.284 4.062 3.133 4.942h-4.156v-12.031c0-2.103 1.127-4.007 2.916-5.04 1.549 1.856 2.556 4.175 2.8 6.715zm.783 8.89c-1.917 0-3.477-1.56-3.477-3.477s1.56-3.477 3.477-3.477 3.477 1.56 3.477 3.477-1.56 3.477-3.477 3.477zm-4.501-30.486c.013-.219.02-.437.02-.653v-.926c.09.192.156.45.156.77 0 .341-.076.613-.176.809zm-22.708 0c-.099-.196-.176-.468-.176-.81 0-.312.063-.564.156-.754v.91c0 .216.007.435.02.654zm2.073.592c-.017-.13-.037-.26-.049-.39-.026-.282-.043-.567-.043-.856v-2.161-.36c0-1.278.357-2.527 1.032-3.613l2.61-4.199c.858-1.176 2.24-1.877 3.696-1.877h4.069c1.456 0 2.838.702 3.656 1.815l2.65 4.261c.675 1.086 1.032 2.335 1.032 3.613v.36 2.161c0 .291-.018.577-.044.862-.012.127-.032.255-.049.382-.612 4.581-4.535 8.129-9.281 8.129-4.743.001-8.666-3.547-9.279-8.127zm-7.658 24.915c-.054.428-.093.862-.093 1.305 0-.443.038-.877.093-1.305zm1.195-3.632c-.05.091-.099.182-.146.274.047-.092.096-.183.146-.274zm-.531 1.112c-.092.228-.18.457-.255.692.077-.234.163-.465.255-.692zm-.391 1.146c-.097.36-.18.726-.238 1.101.059-.374.139-.741.238-1.101zm-5.072 33.551v7.232c-.294-.613-.472-1.291-.472-2.015v-24.244c0-2.593 2.109-4.702 4.702-4.702h.342v-.001c-.007.083-.011.164-.011.236 0 1.187.682 2.149 1.522 2.149.272 0 .541-.121.763-.298.568 3.384 2.794 6.202 5.814 7.589-3.417.356-6.469 1.941-8.724 4.296-.046.039-.082.086-.121.134-2.359 2.526-3.815 5.904-3.815 9.624zm2 11.803v-11.803c0-2.949 1.06-5.655 2.817-7.76 1.752 1.016 2.855 2.884 2.855 4.946v15.616h-4.672c-.552.001-1-.447-1-.999zm29.798 0c0 .552-.448 1-1 1h-4.669v-15.616c0-2.062 1.103-3.93 2.853-4.945 1.756 2.105 2.816 4.81 2.816 7.759zm9.356-11.803v9.919h-7.355v-9.919c0-3.716-1.453-7.091-3.806-9.616-.042-.053-.082-.103-.133-.146-2.254-2.353-5.305-3.937-8.721-4.292 3.023-1.388 5.249-4.208 5.815-7.596.22.174.492.305.761.305.841 0 1.522-.962 1.522-2.149 0-.072-.005-.152-.011-.236v.001h16.498v-.001c-.007.083-.011.164-.011.236 0 1.187.682 2.149 1.522 2.149.272 0 .541-.121.763-.298.568 3.384 2.794 6.201 5.814 7.589-3.417.355-6.469 1.94-8.723 4.295-.047.04-.084.087-.123.136-2.357 2.526-3.812 5.904-3.812 9.623zm2 11.803v-11.803c0-2.949 1.06-5.655 2.816-7.76 1.752 1.016 2.855 2.884 2.855 4.946v15.616h-4.671c-.552.001-1-.447-1-.999zm29.796 0c0 .552-.448 1-1 1h-4.669v-15.616c0-2.062 1.103-3.929 2.854-4.945 1.756 2.105 2.815 4.81 2.815 7.759zm9.356-11.803v9.919h-7.355v-9.919c0-3.715-1.452-7.089-3.804-9.614-.042-.053-.083-.105-.134-.148-2.254-2.353-5.305-3.937-8.721-4.292 3.022-1.388 5.249-4.208 5.815-7.596.22.174.492.305.761.305.841 0 1.522-.962 1.522-2.149 0-.072-.005-.152-.011-.236v.001h16.498v-.001c-.007.083-.011.164-.011.236 0 1.187.682 2.149 1.522 2.149.272 0 .541-.121.763-.298.568 3.384 2.794 6.202 5.814 7.589-3.417.356-6.469 1.941-8.723 4.295-.046.039-.083.086-.122.134-2.358 2.527-3.814 5.906-3.814 9.625zm2 11.803v-11.803c0-2.949 1.06-5.655 2.817-7.76 1.751 1.016 2.854 2.884 2.854 4.946v15.616h-4.671c-.552.001-1-.447-1-.999zm29.798 0c0 .552-.448 1-1 1h-4.67v-15.616c0-2.062 1.103-3.929 2.854-4.945 1.756 2.105 2.816 4.81 2.816 7.759zm2.471-6.586c0 .724-.178 1.402-.472 2.015v-7.232c0-3.715-1.452-7.09-3.805-9.615-.042-.053-.083-.104-.134-.147-2.255-2.353-5.305-3.937-8.721-4.292 3.022-1.388 5.249-4.208 5.815-7.596.22.174.492.305.761.305.841 0 1.522-.962 1.522-2.149 0-.072-.005-.152-.011-.236v.001h.341c2.593 0 4.702 2.109 4.702 4.702v24.244z"/><path d="m52.929 46.276h33.713c4.021 0 7.293-3.272 7.293-7.294v-7.427c0-.553-.447-1-1-1s-1 .447-1 1v7.427c0 2.919-2.374 5.294-5.293 5.294h-33.713c-2.919 0-5.293-2.375-5.293-5.294v-22.638c0-2.919 2.374-5.294 5.293-5.294h33.713c2.919 0 5.293 2.375 5.293 5.294v2.92c0 .553.447 1 1 1s1-.447 1-1v-2.92c0-4.021-3.271-7.294-7.293-7.294h-33.713c-4.021 0-7.293 3.272-7.293 7.294v22.639c0 4.021 3.271 7.293 7.293 7.293z"/><path d="m92.935 21.835c-.553 0-1 .447-1 1v4.828c0 .553.447 1 1 1s1-.447 1-1v-4.828c0-.553-.448-1-1-1z"/><path d="m51.841 15.725c-.573 0-1.038.465-1.038 1.038v23.568c0 .573.465 1.038 1.038 1.038h30.228c.573 0 1.038-.465 1.038-1.038s-.465-1.038-1.038-1.038h-29.19v-7.188l4.233-2.434 4.275-3.012 3.796-1.778 3.898 2.286c.313.185.701.185 1.015-.001l8.263-4.932-.261 2.2c-.064.548.327 1.045.876 1.11.04.005.079.007.118.007.5 0 .932-.374.992-.883l.499-4.218c.007-.063-.002-.124-.007-.186-.002-.031.002-.061-.003-.092-.019-.118-.059-.23-.118-.333-.004-.007-.004-.015-.008-.022-.012-.02-.031-.03-.044-.048-.052-.075-.113-.142-.185-.201-.031-.025-.062-.048-.095-.069-.026-.017-.047-.04-.075-.054l-3.177-1.637c-.49-.255-1.095-.062-1.347.431-.253.491-.061 1.094.431 1.347l1.582.815-4.141 2.49-3.812 2.253-3.844-2.255c-.283-.168-.632-.184-.93-.043l-4.354 2.039c-.053.024-.103.054-.15.087l-4.267 3.012-3.163 1.815v-13.036c.003-.574-.462-1.038-1.035-1.038z"/><path d="m84.28 20.541c.024.036.065.054.124.054.064 0 .105-.022.124-.066s.028-.115.028-.211v-.254c.234-.02.436-.081.607-.184.17-.103.299-.236.387-.399s.132-.338.132-.524c0-.149-.028-.286-.082-.412-.055-.125-.133-.233-.234-.323-.095-.087-.203-.153-.323-.199s-.282-.097-.485-.152v-1.022c.206.067.337.203.391.408.047.174.151.26.312.26.085 0 .158-.03.217-.09.06-.06.09-.13.09-.212 0-.074-.02-.155-.06-.243-.04-.089-.097-.175-.171-.258-.093-.11-.203-.192-.328-.246s-.276-.09-.451-.108v-.265c0-.134-.052-.202-.157-.202-.103 0-.155.069-.155.206v.261c-.339.029-.598.134-.778.314-.179.18-.269.411-.269.693 0 .216.046.393.138.531s.211.244.359.318c.147.075.331.142.55.203v1.142c-.11-.031-.198-.076-.264-.135s-.116-.124-.149-.195-.071-.174-.115-.308c-.02-.062-.055-.111-.106-.145-.051-.035-.113-.052-.187-.052-.092 0-.168.031-.23.094s-.092.134-.092.213c0 .106.023.215.069.325s.117.217.212.319c.096.102.215.188.359.257.143.069.311.114.502.135v.306c-.001.074.011.13.035.166zm.276-2.033c.17.054.299.12.387.198.087.078.131.188.131.33 0 .133-.045.249-.135.349s-.218.166-.383.199zm-.641-.91c-.072-.066-.108-.164-.108-.294 0-.136.038-.238.115-.305s.184-.121.322-.162v.941c-.148-.053-.257-.113-.329-.18z"/></g></svg>