<svg id="Layer_1" enable-background="new 0 0 128 128" height="512" viewBox="0 0 128 128" width="512" xmlns="http://www.w3.org/2000/svg"><path d="m79.308 31.166h-26.616c-2.618 0-4.748 2.13-4.748 4.748v75.343c0 2.618 2.13 4.748 4.748 4.748h26.615c2.618 0 4.748-2.13 4.748-4.748v-40.958-5.251-29.134c.001-2.618-2.129-4.748-4.747-4.748z" fill="#e6e7e8"/><path d="m57.959 23.867h16.082c2.171 0 3.937-1.766 3.937-3.936s-1.766-3.936-3.937-3.936h-16.082c-2.171 0-3.937 1.766-3.937 3.936s1.766 3.936 3.937 3.936z" fill="#e6e7e8"/><path d="m37.902 31.166h-7.48c-.619 0-1.183.215-1.641.563-.424-.347-.959-.563-1.548-.563-1.358 0-2.463 1.105-2.463 2.463v8.007c0 1.358 1.104 2.463 2.463 2.463.59 0 1.124-.217 1.548-.563.458.348 1.022.563 1.641.563h7.48c1.503 0 2.726-1.223 2.726-2.726v-7.48c0-1.504-1.223-2.727-2.726-2.727z" fill="#e6e7e8"/><path d="m37.902 49.548h-7.48c-.619 0-1.183.215-1.641.563-.424-.346-.959-.563-1.548-.563-1.358 0-2.463 1.105-2.463 2.463v8.007c0 1.358 1.104 2.463 2.463 2.463.59 0 1.124-.217 1.548-.563.458.348 1.022.563 1.641.563h7.48c1.503 0 2.726-1.223 2.726-2.726v-7.48c0-1.504-1.223-2.727-2.726-2.727z" fill="#e6e7e8"/><path d="m37.902 67.931h-7.48c-.619 0-1.183.215-1.641.563-.424-.346-.959-.563-1.548-.563-1.358 0-2.463 1.105-2.463 2.463v8.006c0 1.358 1.104 2.463 2.463 2.463.59 0 1.124-.217 1.548-.563.458.348 1.022.563 1.641.563h7.48c1.503 0 2.726-1.223 2.726-2.726v-7.48c0-1.503-1.223-2.726-2.726-2.726z" fill="#e6e7e8"/><path d="m37.902 86.313h-7.48c-.619 0-1.183.215-1.641.563-.424-.346-.959-.563-1.548-.563-1.358 0-2.463 1.105-2.463 2.463v8.007c0 1.358 1.104 2.463 2.463 2.463.59 0 1.124-.217 1.548-.563.458.348 1.022.563 1.641.563h7.48c1.503 0 2.726-1.223 2.726-2.727v-7.48c0-1.503-1.223-2.726-2.726-2.726z" fill="#e6e7e8"/><path d="m37.902 103.072h-7.48c-.619 0-1.183.215-1.641.563-.424-.346-.959-.563-1.548-.563-1.358 0-2.463 1.105-2.463 2.463v8.007c0 1.358 1.104 2.463 2.463 2.463.59 0 1.124-.217 1.548-.563.458.348 1.022.563 1.641.563h7.48c1.503 0 2.726-1.223 2.726-2.726v-7.48c0-1.504-1.223-2.727-2.726-2.727z" fill="#e6e7e8"/><path d="m104.768 31.166c-.59 0-1.124.217-1.548.563-.458-.348-1.022-.563-1.641-.563h-7.48c-1.503 0-2.726 1.223-2.726 2.726v7.48c0 1.503 1.223 2.726 2.726 2.726h7.48c.619 0 1.183-.215 1.641-.563.424.346.959.563 1.548.563 1.358 0 2.463-1.105 2.463-2.463v-8.007c-.001-1.357-1.105-2.462-2.463-2.462z" fill="#e6e7e8"/><path d="m104.768 49.548c-.59 0-1.124.217-1.548.563-.458-.348-1.022-.563-1.641-.563h-7.48c-1.503 0-2.726 1.223-2.726 2.726v7.48c0 1.503 1.223 2.726 2.726 2.726h7.48c.619 0 1.183-.215 1.641-.563.424.346.959.563 1.548.563 1.358 0 2.463-1.105 2.463-2.463v-8.007c-.001-1.357-1.105-2.462-2.463-2.462z" fill="#e6e7e8"/><path d="m104.768 67.931c-.59 0-1.124.217-1.548.563-.458-.348-1.022-.563-1.641-.563h-7.48c-1.503 0-2.726 1.223-2.726 2.726v7.48c0 1.503 1.223 2.726 2.726 2.726h7.48c.619 0 1.183-.215 1.641-.563.424.346.959.563 1.548.563 1.358 0 2.463-1.105 2.463-2.463v-8.007c-.001-1.357-1.105-2.462-2.463-2.462z" fill="#e6e7e8"/><path d="m104.768 86.313c-.59 0-1.124.217-1.548.563-.458-.348-1.022-.563-1.641-.563h-7.48c-1.503 0-2.726 1.223-2.726 2.726v7.48c0 1.503 1.223 2.727 2.726 2.727h7.48c.619 0 1.183-.215 1.641-.563.424.347.959.563 1.548.563 1.358 0 2.463-1.105 2.463-2.463v-8.007c-.001-1.358-1.105-2.463-2.463-2.463z" fill="#e6e7e8"/><path d="m104.768 103.072c-.59 0-1.124.217-1.548.563-.458-.348-1.022-.563-1.641-.563h-7.48c-1.503 0-2.726 1.223-2.726 2.726v7.48c0 1.503 1.223 2.726 2.726 2.726h7.48c.619 0 1.183-.215 1.641-.563.424.346.959.563 1.548.563 1.358 0 2.463-1.105 2.463-2.463v-8.007c-.001-1.357-1.105-2.462-2.463-2.462z" fill="#e6e7e8"/><path d="m75.307 28.166h-26.614c-2.07 0-3.748 1.678-3.748 3.748v75.343c0 2.07 1.678 3.748 3.748 3.748h26.615c2.07 0 3.748-1.678 3.748-3.748v-75.343c-.001-2.07-1.679-3.748-3.749-3.748z" fill="#fa759e"/><path d="m47.945 107.257v-75.343c0-2.07 1.678-3.748 3.748-3.748h-3c-2.07 0-3.748 1.678-3.748 3.748v75.343c0 2.07 1.678 3.748 3.748 3.748h3c-2.07 0-3.748-1.678-3.748-3.748z" fill="#fff"/><path d="m70.041 12.995h-16.082c-1.622 0-2.936 1.315-2.936 2.936 0 1.622 1.315 2.936 2.936 2.936h16.082c1.622 0 2.936-1.315 2.936-2.936s-1.314-2.936-2.936-2.936z" fill="#fa759e"/><path d="m33.902 28.166h-7.48c-.953 0-1.726.773-1.726 1.726v7.48c0 .953.773 1.726 1.726 1.726h7.48c.953 0 1.726-.773 1.726-1.726v-7.48c0-.953-.772-1.726-1.726-1.726z" fill="#6dc9f7"/><path d="m23.233 28.166c-.808 0-1.463.655-1.463 1.463v8.007c0 .808.655 1.463 1.463 1.463s1.463-.655 1.463-1.463v-8.007c0-.808-.655-1.463-1.463-1.463z" fill="#0089ef"/><path d="m33.902 46.548h-7.48c-.953 0-1.726.773-1.726 1.726v7.48c0 .953.773 1.726 1.726 1.726h7.48c.953 0 1.726-.773 1.726-1.726v-7.48c0-.953-.772-1.726-1.726-1.726z" fill="#6dc9f7"/><path d="m23.233 46.548c-.808 0-1.463.655-1.463 1.463v8.007c0 .808.655 1.463 1.463 1.463s1.463-.655 1.463-1.463v-8.007c0-.808-.655-1.463-1.463-1.463z" fill="#0089ef"/><path d="m33.902 64.931h-7.48c-.953 0-1.726.773-1.726 1.726v7.48c0 .953.773 1.726 1.726 1.726h7.48c.953 0 1.726-.773 1.726-1.726v-7.48c0-.953-.772-1.726-1.726-1.726z" fill="#6dc9f7"/><path d="m23.233 64.931c-.808 0-1.463.655-1.463 1.463v8.006c0 .808.655 1.463 1.463 1.463s1.463-.655 1.463-1.463v-8.007c0-.807-.655-1.462-1.463-1.462z" fill="#0089ef"/><path d="m33.902 83.313h-7.48c-.953 0-1.726.773-1.726 1.726v7.48c0 .953.773 1.726 1.726 1.726h7.48c.953 0 1.726-.773 1.726-1.726v-7.48c0-.953-.772-1.726-1.726-1.726z" fill="#6dc9f7"/><path d="m23.233 83.313c-.808 0-1.463.655-1.463 1.463v8.007c0 .808.655 1.463 1.463 1.463s1.463-.655 1.463-1.463v-8.007c0-.808-.655-1.463-1.463-1.463z" fill="#0089ef"/><path d="m33.902 100.072h-7.48c-.953 0-1.726.773-1.726 1.726v7.48c0 .953.773 1.726 1.726 1.726h7.48c.953 0 1.726-.773 1.726-1.726v-7.48c0-.953-.772-1.726-1.726-1.726z" fill="#6dc9f7"/><path d="m23.233 100.072c-.808 0-1.463.655-1.463 1.463v8.007c0 .808.655 1.463 1.463 1.463s1.463-.655 1.463-1.463v-8.007c0-.808-.655-1.463-1.463-1.463z" fill="#0089ef"/><path d="m97.578 28.166h-7.48c-.953 0-1.726.773-1.726 1.726v7.48c0 .953.773 1.726 1.726 1.726h7.48c.953 0 1.726-.773 1.726-1.726v-7.48c0-.953-.772-1.726-1.726-1.726z" fill="#6dc9f7"/><path d="m100.768 28.166c-.808 0-1.463.655-1.463 1.463v8.007c0 .808.655 1.463 1.463 1.463s1.463-.655 1.463-1.463v-8.007c0-.808-.655-1.463-1.463-1.463z" fill="#0089ef"/><path d="m97.578 46.548h-7.48c-.953 0-1.726.773-1.726 1.726v7.48c0 .953.773 1.726 1.726 1.726h7.48c.953 0 1.726-.773 1.726-1.726v-7.48c0-.953-.772-1.726-1.726-1.726z" fill="#6dc9f7"/><path d="m100.768 46.548c-.808 0-1.463.655-1.463 1.463v8.007c0 .808.655 1.463 1.463 1.463s1.463-.655 1.463-1.463v-8.007c0-.808-.655-1.463-1.463-1.463z" fill="#0089ef"/><path d="m97.578 64.931h-7.48c-.953 0-1.726.773-1.726 1.726v7.48c0 .953.773 1.726 1.726 1.726h7.48c.953 0 1.726-.773 1.726-1.726v-7.48c0-.953-.772-1.726-1.726-1.726z" fill="#6dc9f7"/><path d="m100.768 64.931c-.808 0-1.463.655-1.463 1.463v8.006c0 .808.655 1.463 1.463 1.463s1.463-.655 1.463-1.463v-8.007c0-.807-.655-1.462-1.463-1.462z" fill="#0089ef"/><path d="m97.578 83.313h-7.48c-.953 0-1.726.773-1.726 1.726v7.48c0 .953.773 1.726 1.726 1.726h7.48c.953 0 1.726-.773 1.726-1.726v-7.48c0-.953-.772-1.726-1.726-1.726z" fill="#6dc9f7"/><path d="m100.768 83.313c-.808 0-1.463.655-1.463 1.463v8.007c0 .808.655 1.463 1.463 1.463s1.463-.655 1.463-1.463v-8.007c0-.808-.655-1.463-1.463-1.463z" fill="#0089ef"/><path d="m97.578 100.072h-7.48c-.953 0-1.726.773-1.726 1.726v7.48c0 .953.773 1.726 1.726 1.726h7.48c.953 0 1.726-.773 1.726-1.726v-7.48c0-.953-.772-1.726-1.726-1.726z" fill="#6dc9f7"/><path d="m100.768 100.072c-.808 0-1.463.655-1.463 1.463v8.007c0 .808.655 1.463 1.463 1.463s1.463-.655 1.463-1.463v-8.007c0-.808-.655-1.463-1.463-1.463z" fill="#0089ef"/><g fill="#3a2c60"><path d="m75.308 27.166h-26.616c-2.618 0-4.748 2.13-4.748 4.748v75.343c0 2.618 2.13 4.748 4.748 4.748h26.615c2.618 0 4.748-2.13 4.748-4.748v-35.86c0-.552-.447-1-1-1s-1 .448-1 1v35.86c0 1.515-1.232 2.748-2.748 2.748h-26.615c-1.516 0-2.748-1.233-2.748-2.748v-75.343c0-1.515 1.232-2.748 2.748-2.748h26.615c1.516 0 2.748 1.233 2.748 2.748v24.82c0 .552.447 1 1 1s1-.448 1-1v-24.82c.001-2.618-2.129-4.748-4.747-4.748z"/><path d="m79.056 60.048c-.553 0-1 .448-1 1v6.251c0 .552.447 1 1 1s1-.448 1-1v-6.251c0-.552-.448-1-1-1z"/><path d="m53.959 19.868h16.082c2.171 0 3.937-1.766 3.937-3.937s-1.766-3.936-3.937-3.936h-16.082c-2.17 0-3.936 1.766-3.936 3.936s1.766 3.937 3.936 3.937zm0-5.873h16.082c1.067 0 1.937.869 1.937 1.936 0 1.068-.869 1.937-1.937 1.937h-16.082c-1.067 0-1.936-.869-1.936-1.937 0-1.067.869-1.936 1.936-1.936z"/><path d="m33.902 27.166h-7.48c-.619 0-1.183.215-1.641.563-.424-.347-.959-.563-1.548-.563-1.358 0-2.463 1.105-2.463 2.463v8.007c0 1.358 1.104 2.463 2.463 2.463.59 0 1.124-.217 1.548-.563.458.348 1.022.563 1.641.563h7.48c1.503 0 2.726-1.223 2.726-2.726v-7.48c0-1.504-1.223-2.727-2.726-2.727zm-10.207 10.47c0 .255-.208.463-.463.463s-.463-.208-.463-.463v-8.007c0-.255.208-.463.463-.463s.463.208.463.463v.263 7.48zm10.933-.263c0 .4-.325.726-.726.726h-7.48c-.4 0-.727-.326-.727-.726v-7.48c0-.4.326-.726.727-.726h7.48c.4 0 .726.326.726.726z"/><path d="m33.902 45.548h-7.48c-.619 0-1.183.215-1.641.563-.424-.346-.959-.563-1.548-.563-1.358 0-2.463 1.105-2.463 2.463v8.007c0 1.358 1.104 2.463 2.463 2.463.59 0 1.124-.217 1.548-.563.458.348 1.022.563 1.641.563h7.48c1.503 0 2.726-1.223 2.726-2.726v-7.48c0-1.504-1.223-2.727-2.726-2.727zm-10.207 10.47c0 .255-.208.463-.463.463s-.463-.208-.463-.463v-8.007c0-.255.208-.463.463-.463s.463.208.463.463v.263 7.48zm10.933-.263c0 .4-.325.726-.726.726h-7.48c-.4 0-.727-.326-.727-.726v-7.48c0-.4.326-.726.727-.726h7.48c.4 0 .726.326.726.726z"/><path d="m33.902 63.931h-7.48c-.619 0-1.183.215-1.641.563-.424-.346-.959-.563-1.548-.563-1.358 0-2.463 1.105-2.463 2.463v8.006c0 1.358 1.104 2.463 2.463 2.463.59 0 1.124-.217 1.548-.563.458.348 1.022.563 1.641.563h7.48c1.503 0 2.726-1.223 2.726-2.726v-7.48c0-1.503-1.223-2.726-2.726-2.726zm-10.207 10.469c0 .255-.208.463-.463.463s-.462-.207-.462-.463v-8.007c0-.255.208-.463.463-.463s.463.208.463.463v.263 7.48.264zm10.933-.263c0 .4-.325.726-.726.726h-7.48c-.4 0-.727-.326-.727-.726v-7.48c0-.4.326-.726.727-.726h7.48c.4 0 .726.326.726.726z"/><path d="m33.902 82.313h-7.48c-.619 0-1.183.215-1.641.563-.424-.347-.959-.563-1.548-.563-1.358 0-2.463 1.105-2.463 2.463v8.006c0 1.358 1.104 2.463 2.463 2.463.59 0 1.124-.217 1.548-.563.458.348 1.022.563 1.641.563h7.48c1.503 0 2.726-1.223 2.726-2.727v-7.48c0-1.502-1.223-2.725-2.726-2.725zm-10.207 10.47c0 .255-.208.463-.463.463s-.463-.208-.463-.463v-8.006c0-.255.208-.463.463-.463s.463.208.463.463v.263 7.48zm10.933-.263c0 .4-.325.727-.726.727h-7.48c-.4 0-.727-.326-.727-.727v-7.48c0-.4.326-.727.727-.727h7.48c.4 0 .726.326.726.727z"/><path d="m33.902 99.072h-7.48c-.619 0-1.183.215-1.641.563-.424-.346-.959-.563-1.548-.563-1.358 0-2.463 1.105-2.463 2.463v8.007c0 1.358 1.104 2.463 2.463 2.463.59 0 1.124-.217 1.548-.563.458.348 1.022.563 1.641.563h7.48c1.503 0 2.726-1.223 2.726-2.726v-7.48c0-1.504-1.223-2.727-2.726-2.727zm-10.207 10.47c0 .255-.208.463-.463.463s-.463-.208-.463-.463v-8.007c0-.255.208-.463.463-.463s.463.208.463.463v.263 7.48zm10.933-.263c0 .4-.325.726-.726.726h-7.48c-.4 0-.727-.326-.727-.726v-7.48c0-.4.326-.726.727-.726h7.48c.4 0 .726.326.726.726z"/><path d="m100.768 27.166c-.59 0-1.124.217-1.548.563-.458-.348-1.022-.563-1.641-.563h-7.48c-1.503 0-2.726 1.223-2.726 2.726v7.48c0 1.503 1.223 2.726 2.726 2.726h7.48c.619 0 1.183-.215 1.641-.563.424.346.959.563 1.548.563 1.358 0 2.463-1.105 2.463-2.463v-8.007c-.001-1.357-1.105-2.462-2.463-2.462zm-3.19 10.933h-7.48c-.4 0-.726-.326-.726-.726v-7.48c0-.4.325-.726.726-.726h7.48c.4 0 .727.326.727.726v7.48c0 .4-.327.726-.727.726zm3.652-.463c0 .255-.208.463-.463.463s-.463-.208-.463-.463v-.263-7.48-.263c0-.255.208-.463.463-.463s.463.208.463.463z"/><path d="m100.768 45.548c-.59 0-1.124.217-1.548.563-.458-.348-1.022-.563-1.641-.563h-7.48c-1.503 0-2.726 1.223-2.726 2.726v7.48c0 1.503 1.223 2.726 2.726 2.726h7.48c.619 0 1.183-.215 1.641-.563.424.346.959.563 1.548.563 1.358 0 2.463-1.105 2.463-2.463v-8.007c-.001-1.357-1.105-2.462-2.463-2.462zm-3.19 10.933h-7.48c-.4 0-.726-.326-.726-.726v-7.48c0-.4.325-.726.726-.726h7.48c.4 0 .727.326.727.726v7.48c0 .4-.327.726-.727.726zm3.652-.463c0 .255-.208.463-.463.463s-.463-.208-.463-.463v-.263-7.48-.263c0-.255.208-.463.463-.463s.463.208.463.463z"/><path d="m100.768 63.931c-.59 0-1.124.217-1.548.563-.458-.348-1.022-.563-1.641-.563h-7.48c-1.503 0-2.726 1.223-2.726 2.726v7.48c0 1.503 1.223 2.726 2.726 2.726h7.48c.619 0 1.183-.215 1.641-.563.424.346.959.563 1.548.563 1.358 0 2.463-1.105 2.463-2.463v-8.007c-.001-1.357-1.105-2.462-2.463-2.462zm-3.19 10.932h-7.48c-.4 0-.726-.326-.726-.726v-7.48c0-.4.325-.726.726-.726h7.48c.4 0 .727.326.727.726v7.48c0 .401-.327.726-.727.726zm3.652-.463c0 .255-.208.463-.463.463s-.463-.208-.463-.463v-.263-7.48-.263c0-.255.208-.463.463-.463s.463.208.463.463z"/><path d="m100.768 82.313c-.59 0-1.124.217-1.548.563-.458-.348-1.022-.563-1.641-.563h-7.48c-1.503 0-2.726 1.223-2.726 2.727v7.48c0 1.503 1.223 2.727 2.726 2.727h7.48c.619 0 1.183-.215 1.641-.563.424.347.959.563 1.548.563 1.358 0 2.463-1.105 2.463-2.463v-8.006c-.001-1.36-1.105-2.465-2.463-2.465zm-3.19 10.933h-7.48c-.4 0-.726-.326-.726-.727v-7.48c0-.4.325-.727.726-.727h7.48c.4 0 .727.326.727.727v7.48c0 .401-.327.727-.727.727zm3.652-.463c0 .255-.208.463-.463.463s-.463-.208-.463-.463v-.263-7.48-.263c0-.255.208-.463.463-.463s.463.208.463.463z"/><path d="m100.768 99.072c-.59 0-1.124.217-1.548.563-.458-.348-1.022-.563-1.641-.563h-7.48c-1.503 0-2.726 1.223-2.726 2.726v7.48c0 1.503 1.223 2.726 2.726 2.726h7.48c.619 0 1.183-.215 1.641-.563.424.346.959.563 1.548.563 1.358 0 2.463-1.105 2.463-2.463v-8.007c-.001-1.357-1.105-2.462-2.463-2.462zm-3.19 10.933h-7.48c-.4 0-.726-.326-.726-.726v-7.48c0-.4.325-.726.726-.726h7.48c.4 0 .727.326.727.726v7.48c0 .4-.327.726-.727.726zm3.652-.463c0 .255-.208.463-.463.463s-.463-.208-.463-.463v-.263-7.48-.263c0-.255.208-.463.463-.463s.463.208.463.463z"/></g></svg>