<svg id="Layer_1" enable-background="new 0 0 128 128" height="512" viewBox="0 0 128 128" width="512" xmlns="http://www.w3.org/2000/svg"><path d="m109.787 13.022h-87.574c-5.068 0-9.191 4.123-9.191 9.191v87.574c0 5.068 4.123 9.191 9.191 9.191h87.574c5.068 0 9.191-4.123 9.191-9.191v-87.574c.001-5.068-4.122-9.191-9.191-9.191z" fill="#e6e7e8"/><path d="m105.787 10.021h-87.574c-4.524 0-8.192 3.667-8.192 8.192v87.574c0 4.524 3.667 8.191 8.192 8.191h87.574c4.524 0 8.191-3.667 8.191-8.191v-87.574c.001-4.524-3.667-8.192-8.191-8.192z" fill="#fa759e"/><path d="m105.787 15.022h-87.574c-1.76 0-3.191 1.432-3.191 3.191v87.574c0 1.76 1.432 3.191 3.191 3.191h87.574c1.76 0 3.191-1.432 3.191-3.191v-87.574c.001-1.76-1.431-3.191-3.191-3.191z" fill="#d4fbff"/><path d="m76.189 39.872h-28.378c-4.384 0-7.939 3.554-7.939 7.939v28.378c0 4.384 3.554 7.939 7.939 7.939h28.378c4.384 0 7.939-3.554 7.939-7.939v-28.378c0-4.384-3.555-7.939-7.939-7.939z" fill="#fa759e"/><path d="m42.872 76.189v-28.378c0-4.384 3.554-7.939 7.939-7.939h-3c-4.384 0-7.939 3.554-7.939 7.939v28.378c0 4.384 3.554 7.939 7.939 7.939h3c-4.384 0-7.939-3.555-7.939-7.939z" fill="#fff"/><path d="m97.969 44.896h-7.584c-.967 0-1.75.784-1.75 1.75v7.584c0 .967.784 1.75 1.75 1.75h7.584c.967 0 1.75-.784 1.75-1.75v-7.584c.001-.966-.783-1.75-1.75-1.75z" fill="#6dc9f7"/><path d="m101.203 44.896c-.819 0-1.483.664-1.483 1.483v8.118c0 .819.664 1.483 1.483 1.483s1.483-.664 1.483-1.483v-8.117c0-.819-.664-1.484-1.483-1.484z" fill="#0089ef"/><path d="m97.969 68.019h-7.584c-.967 0-1.75.784-1.75 1.75v7.584c0 .967.784 1.75 1.75 1.75h7.584c.967 0 1.75-.784 1.75-1.75v-7.584c.001-.966-.783-1.75-1.75-1.75z" fill="#6dc9f7"/><path d="m101.203 68.019c-.819 0-1.483.664-1.483 1.483v8.118c0 .819.664 1.483 1.483 1.483s1.483-.664 1.483-1.483v-8.118c0-.819-.664-1.483-1.483-1.483z" fill="#0089ef"/><path d="m33.615 44.896h-7.584c-.967 0-1.75.784-1.75 1.75v7.584c0 .967.784 1.75 1.75 1.75h7.584c.967 0 1.75-.784 1.75-1.75v-7.584c0-.966-.784-1.75-1.75-1.75z" fill="#6dc9f7"/><path d="m22.797 44.896c-.819 0-1.483.664-1.483 1.483v8.118c0 .819.664 1.483 1.483 1.483s1.483-.664 1.483-1.483v-8.117c0-.819-.664-1.484-1.483-1.484z" fill="#0089ef"/><path d="m33.615 68.019h-7.584c-.967 0-1.75.784-1.75 1.75v7.584c0 .967.784 1.75 1.75 1.75h7.584c.967 0 1.75-.784 1.75-1.75v-7.584c0-.966-.784-1.75-1.75-1.75z" fill="#6dc9f7"/><path d="m22.797 68.019c-.819 0-1.483.664-1.483 1.483v8.118c0 .819.664 1.483 1.483 1.483.819 0 1.483-.664 1.483-1.483v-8.118c0-.819-.664-1.483-1.483-1.483z" fill="#0089ef"/><path d="m77.353 88.635h-7.584c-.967 0-1.75.784-1.75 1.75v7.584c0 .967.784 1.75 1.75 1.75h7.584c.967 0 1.75-.784 1.75-1.75v-7.584c.001-.966-.783-1.75-1.75-1.75z" fill="#6dc9f7"/><path d="m77.62 99.72h-8.118c-.819 0-1.483.664-1.483 1.483s.664 1.483 1.483 1.483h8.118c.819 0 1.483-.664 1.483-1.483.001-.819-.664-1.483-1.483-1.483z" fill="#0089ef"/><path d="m54.231 88.635h-7.584c-.967 0-1.75.784-1.75 1.75v7.584c0 .967.784 1.75 1.75 1.75h7.584c.967 0 1.75-.784 1.75-1.75v-7.584c0-.966-.783-1.75-1.75-1.75z" fill="#6dc9f7"/><path d="m54.498 99.72h-8.118c-.819 0-1.483.664-1.483 1.483s.664 1.483 1.483 1.483h8.118c.819 0 1.483-.664 1.483-1.483s-.664-1.483-1.483-1.483z" fill="#0089ef"/><path d="m77.353 24.28h-7.584c-.967 0-1.75.784-1.75 1.75v7.584c0 .967.784 1.75 1.75 1.75h7.584c.967 0 1.75-.784 1.75-1.75v-7.584c.001-.966-.783-1.75-1.75-1.75z" fill="#6dc9f7"/><path d="m77.62 21.314h-8.118c-.819 0-1.483.664-1.483 1.483s.664 1.483 1.483 1.483h8.118c.819 0 1.483-.664 1.483-1.483.001-.819-.664-1.483-1.483-1.483z" fill="#0089ef"/><path d="m54.231 24.28h-7.584c-.967 0-1.75.784-1.75 1.75v7.584c0 .967.784 1.75 1.75 1.75h7.584c.967 0 1.75-.784 1.75-1.75v-7.584c0-.966-.783-1.75-1.75-1.75z" fill="#6dc9f7"/><path d="m54.498 21.314h-8.118c-.819 0-1.483.664-1.483 1.483s.664 1.483 1.483 1.483h8.118c.819 0 1.483-.664 1.483-1.483s-.664-1.483-1.483-1.483z" fill="#0089ef"/><g fill="#3a2c60"><path d="m105.787 9.021h-87.574c-5.068 0-9.191 4.123-9.191 9.191v87.574c0 5.068 4.123 9.192 9.191 9.192h87.574c5.068 0 9.191-4.124 9.191-9.192v-87.573c0-5.069-4.123-9.192-9.191-9.192zm7.191 96.766c0 3.966-3.226 7.192-7.191 7.192h-87.574c-3.966 0-7.191-3.226-7.191-7.192v-87.574c0-3.965 3.226-7.191 7.191-7.191h87.574c3.966 0 7.191 3.226 7.191 7.191z"/><path d="m105.787 14.021h-87.574c-2.312 0-4.191 1.88-4.191 4.191v87.574c0 2.311 1.88 4.191 4.191 4.191h87.574c2.312 0 4.191-1.88 4.191-4.191v-87.573c0-2.311-1.879-4.192-4.191-4.192zm2.191 91.766c0 1.208-.983 2.191-2.191 2.191h-87.574c-1.208 0-2.191-.983-2.191-2.191v-87.574c0-1.208.983-2.191 2.191-2.191h87.574c1.208 0 2.191.983 2.191 2.191z"/><path d="m76.189 38.873h-28.378c-4.93 0-8.939 4.01-8.939 8.938v28.378c0 4.929 4.01 8.939 8.939 8.939h28.378c4.929 0 8.938-4.01 8.938-8.939v-5.572c0-.552-.447-1-1-1s-1 .448-1 1v5.572c0 3.826-3.112 6.939-6.938 6.939h-28.378c-3.826 0-6.939-3.113-6.939-6.939v-28.378c0-3.826 3.113-6.938 6.939-6.938h28.378c3.826 0 6.938 3.113 6.938 6.938v7.721c0 .552.447 1 1 1s1-.448 1-1v-7.721c.001-4.929-4.009-8.938-8.938-8.938z"/><path d="m84.128 58.468c-.553 0-1 .448-1 1v6.83c0 .552.447 1 1 1s1-.448 1-1v-6.83c0-.552-.447-1-1-1z"/><path d="m101.203 43.896c-.598 0-1.141.221-1.57.575-.463-.355-1.036-.575-1.664-.575h-7.584c-1.517 0-2.751 1.234-2.751 2.75v7.584c0 1.517 1.234 2.75 2.751 2.75h7.584c.628 0 1.2-.22 1.664-.575.429.354.971.575 1.57.575 1.369 0 2.483-1.114 2.483-2.483v-8.117c0-1.369-1.114-2.484-2.483-2.484zm-3.233 11.085h-7.584c-.414 0-.751-.336-.751-.75v-7.584c0-.414.337-.75.751-.75h7.584c.413 0 .75.337.75.75v7.584c0 .413-.337.75-.75.75zm3.716-.483c0 .267-.217.483-.483.483s-.483-.217-.483-.483v-.267-7.584-.267c0-.267.217-.483.483-.483s.483.217.483.483z"/><path d="m101.203 67.019c-.598 0-1.14.221-1.57.575-.463-.355-1.036-.575-1.664-.575h-7.584c-1.517 0-2.751 1.233-2.751 2.75v7.584c0 1.517 1.234 2.75 2.751 2.75h7.584c.628 0 1.2-.22 1.664-.575.429.354.971.575 1.57.575 1.369 0 2.483-1.114 2.483-2.483v-8.118c0-1.369-1.114-2.483-2.483-2.483zm-3.233 11.084h-7.584c-.414 0-.751-.336-.751-.75v-7.584c0-.414.337-.75.751-.75h7.584c.413 0 .75.336.75.75v7.584c0 .414-.337.75-.75.75zm3.716-.483c0 .267-.217.483-.483.483s-.483-.217-.483-.483v-.267-7.584-.267c0-.267.217-.483.483-.483s.483.217.483.483z"/><path d="m33.615 43.896h-7.585c-.628 0-1.2.22-1.664.575-.429-.354-.971-.575-1.57-.575-1.369 0-2.483 1.114-2.483 2.483v8.118c0 1.369 1.114 2.483 2.483 2.483.598 0 1.14-.221 1.57-.575.463.355 1.036.575 1.664.575h7.585c1.517 0 2.75-1.233 2.75-2.75v-7.584c0-1.516-1.233-2.75-2.75-2.75zm-10.335 10.602c0 .267-.217.483-.483.483s-.483-.217-.483-.483v-8.118c0-.267.217-.483.483-.483s.483.217.483.483v.267 7.584zm11.085-.267c0 .414-.337.75-.75.75h-7.585c-.413 0-.75-.336-.75-.75v-7.584c0-.414.337-.75.75-.75h7.585c.413 0 .75.337.75.75z"/><path d="m33.615 67.019h-7.585c-.628 0-1.2.22-1.664.575-.429-.354-.971-.575-1.57-.575-1.369 0-2.483 1.114-2.483 2.483v8.118c0 1.369 1.114 2.483 2.483 2.483.598 0 1.14-.221 1.57-.575.463.355 1.036.575 1.664.575h7.585c1.517 0 2.75-1.233 2.75-2.75v-7.584c0-1.517-1.233-2.75-2.75-2.75zm-10.335 10.601c0 .267-.217.483-.483.483s-.483-.217-.483-.483v-8.118c0-.267.217-.483.483-.483s.483.217.483.483v.267 7.584zm11.085-.267c0 .414-.337.75-.75.75h-7.585c-.413 0-.75-.336-.75-.75v-7.584c0-.414.337-.75.75-.75h7.585c.413 0 .75.336.75.75z"/><path d="m77.353 87.635h-7.584c-1.517 0-2.751 1.233-2.751 2.75v7.584c0 .628.22 1.2.576 1.664-.354.429-.576.972-.576 1.57 0 1.369 1.114 2.483 2.483 2.483h8.118c1.369 0 2.483-1.114 2.483-2.483 0-.598-.221-1.141-.575-1.57.356-.464.575-1.036.575-1.664v-7.584c.001-1.516-1.232-2.75-2.749-2.75zm-8.334 2.75c0-.414.337-.75.751-.75h7.584c.413 0 .75.336.75.75v7.584c0 .414-.337.75-.75.75h-7.584c-.414 0-.751-.337-.751-.75zm8.601 11.301h-8.118c-.267 0-.483-.217-.483-.483s.217-.483.483-.483h.268 7.584.267c.267 0 .483.217.483.483s-.217.483-.484.483z"/><path d="m54.231 87.635h-7.585c-1.517 0-2.75 1.233-2.75 2.75v7.584c0 .628.22 1.201.575 1.664-.354.429-.575.971-.575 1.57 0 1.369 1.114 2.483 2.483 2.483h8.118c1.369 0 2.483-1.114 2.483-2.483 0-.598-.221-1.141-.575-1.57.356-.464.575-1.036.575-1.664v-7.584c.001-1.516-1.232-2.75-2.749-2.75zm-8.335 2.75c0-.414.337-.75.75-.75h7.585c.413 0 .75.336.75.75v7.584c0 .414-.337.75-.75.75h-7.585c-.413 0-.75-.337-.75-.75zm8.602 11.301h-8.118c-.267 0-.483-.217-.483-.483s.217-.483.483-.483h.267 7.585.267c.267 0 .483.217.483.483s-.217.483-.484.483z"/><path d="m69.769 36.365h7.584c1.517 0 2.75-1.234 2.75-2.75v-7.584c0-.628-.22-1.2-.575-1.664.354-.429.575-.971.575-1.57 0-1.369-1.114-2.483-2.483-2.483h-8.118c-1.369 0-2.483 1.114-2.483 2.483 0 .598.221 1.141.575 1.57-.356.463-.575 1.036-.575 1.664v7.584c0 1.516 1.234 2.75 2.75 2.75zm8.334-2.75c0 .414-.337.75-.75.75h-7.584c-.414 0-.751-.337-.751-.75v-7.584c0-.414.337-.75.751-.75h7.584c.413 0 .75.336.75.75zm-8.601-11.301h8.118c.267 0 .483.217.483.483s-.217.483-.483.483h-.267-7.584-.268c-.267 0-.483-.217-.483-.483s.217-.483.484-.483z"/><path d="m46.646 36.365h7.585c1.517 0 2.75-1.234 2.75-2.75v-7.584c0-.628-.22-1.2-.575-1.664.354-.429.575-.971.575-1.57 0-1.369-1.114-2.483-2.483-2.483h-8.118c-1.369 0-2.483 1.114-2.483 2.483 0 .598.221 1.14.575 1.57-.355.463-.575 1.036-.575 1.664v7.584c-.001 1.516 1.233 2.75 2.749 2.75zm8.335-2.75c0 .414-.337.75-.75.75h-7.585c-.413 0-.75-.337-.75-.75v-7.584c0-.414.337-.75.75-.75h7.585c.413 0 .75.336.75.75zm-8.601-11.301h8.118c.267 0 .483.217.483.483s-.217.483-.483.483h-.267-7.585-.266c-.267 0-.483-.217-.483-.483s.216-.483.483-.483z"/></g></svg>