<svg id="Layer_1" enable-background="new 0 0 128 128" height="512" viewBox="0 0 128 128" width="512" xmlns="http://www.w3.org/2000/svg"><path d="m101.637 89.411h-2.037v-7.019c0-1.181-.634-2.285-1.654-2.881l-4.008-2.342c.055-.453-.003-.924-.17-1.385-.115-2.586-.66-5.061-1.56-7.361.645-1.341 1.161-2.918 1.079-4.463-.181-3.387-1.607-5.789-2.589-7.06l2.555-1.318c.341-.176.55-.533.54-.916-.01-.384-.241-.729-.591-.886-.158-.071-3.872-1.79-4.746-6.283-.354-1.823.004-4.346.418-7.267.654-4.605 1.467-10.336-.461-15.586-3.521-9.583-9.58-13.572-12.31-14.943-.084-.128-.174-.251-.276-.363-1.768-1.921-6.093-2.28-8.513-2.323-4.027-.059-9.149.657-10.895 2.422-.138.14-.26.287-.37.44-2.637 1.401-8.544 5.44-11.971 14.767-1.923 5.235-1.15 9.644-.469 13.533.419 2.387.78 4.449.426 6.274-.913 4.697-4.104 7.766-4.136 7.796-.271.256-.376.642-.274 1s.394.631.758.706l1.429.296c-1.142 2.062-3.131 6.344-2.65 10.454.127 1.085.464 2.144.875 3.104-1.05 2.47-1.679 5.159-1.805 7.978-.166.461-.224.932-.17 1.385l-4.008 2.342c-1.02.596-1.654 1.7-1.654 2.881v7.019h-2.038c-2.315 0-4.199 1.884-4.199 4.199v3.599c0 2.315 1.883 4.199 4.199 4.199h3.754v20.581c0 1.654 1.346 3 3 3h20.039 17.688 20.038c1.654 0 3-1.346 3-3v-20.581h3.754c2.315 0 4.199-1.884 4.199-4.199v-3.6c.002-2.315-1.882-4.199-4.197-4.199zm-4.037-7.019v7.019h-3.805v-10.009l3.143 1.836c.408.238.662.681.662 1.154zm-63.2 0c0-.473.254-.916.663-1.154l3.143-1.836v10.009h-3.806z" fill="#e6e7e8"/><path d="m45.849 69.689c-.752-.181-1.513-.532-2.183-1.169-2.014-1.915-2.559-5.933-2.559-5.933l-1.842 4.664s-1.212-1.463-2.135-3.448c-1.233 2.756-1.924 5.808-1.924 9.022v13.586h10.643v-16.722c-.001-.001 0-.001 0 0z" fill="#fff"/><path d="m87.12 64.375c-.866 1.667-1.894 2.875-1.894 2.875l-2.665-2.285s-.49 1.872-1.736 3.554c-.722.975-1.853 1.209-2.677 1.234h.005v16.657h10.643v-13.585c-.002-2.994-.599-5.846-1.676-8.45z" fill="#fff"/><path d="m77.111 69.682s.563-3.32-1.912-7.064c-1.958-2.962-6.155-4.759-6.443-12.844v4.774c0 2.221-1.076 4.185-2.731 5.417 1.256.75 2.106 2.108 2.106 3.677v9.516c0 2.372-1.923 4.295-4.295 4.295h-3.673c-2.372 0-4.295-1.923-4.295-4.295v-9.516c0-1.569.85-2.927 2.106-3.677-1.654-1.231-2.731-3.196-2.731-5.417v-4.774c.134.057.275.098.41.152-.533-.213-1.056-.446-1.562-.708.305.161.614.316.93.456-.426 8.785-4.698 9.235-6.413 13.449-1.294 3.18 1.216 6.283 1.216 6.283s-1.959.77-3.978.283v16.723h32.304v-16.658c-.598.019-1.039-.072-1.039-.072z" fill="#0089ef"/><path d="m62 51.152c-2.398 0-4.681-.492-6.756-1.378v4.774c0 2.221 1.076 4.185 2.73 5.417.643-.384 1.386-.618 2.189-.618h3.673c.803 0 1.546.234 2.189.618 1.654-1.231 2.73-3.196 2.73-5.417v-4.774c-2.074.886-4.357 1.378-6.755 1.378z" fill="#fff"/><path d="m85.099 52.601 3.696-1.907s-4.33-1.91-5.32-7.006 3.02-14.478 0-22.699c-3.525-9.595-9.647-13.362-12.091-14.53.882 1.748-.191 5.362-2.035 7.074-.267.247-.686.471-1.212.669.617 1.152 2.041 3.56 4.002 5.311.951.849 2.124 1.57 3.239 2.148 2.369 1.225 3.839 3.685 3.839 6.352v5.923c0 7.11-4.311 13.212-10.46 15.839.288 8.084 4.485 9.881 6.443 12.844 2.475 3.744 1.912 7.064 1.912 7.064s2.467.52 3.713-1.162 1.736-3.554 1.736-3.554l2.665 2.285s3.245-3.814 3.063-7.236c-.254-4.761-3.19-7.415-3.19-7.415z" fill="#ffd7e5"/><path d="m55.023 49.674c-6.031-2.678-10.239-8.715-10.239-15.739v-6.219c0-2.607 1.416-4.995 3.689-6.271 1.216-.683 2.553-1.522 3.708-2.455 2.083-1.683 3.192-3.598 3.69-4.653-.524-.22-.945-.486-1.219-.804-1.918-2.223-2.962-5.138-1.896-6.901-2.639 1.346-8.375 5.195-11.741 14.357-3.02 8.221.99 14.557 0 19.653s-4.431 8.332-4.431 8.332l2.806.581s-3.853 5.765-3.236 11.032c.399 3.403 3.109 6.663 3.109 6.663l1.842-4.664s.545 4.018 2.559 5.933c2.47 2.348 6.161.886 6.161.886s-2.51-3.102-1.216-6.282c1.716-4.214 5.988-4.664 6.414-13.449z" fill="#ffd7e5"/><path d="m80.229 30.054c-.36 0-.702.106-1.013.295v3.586c0 .982-.087 1.943-.244 2.88.373.298.798.483 1.257.483 1.417 0 2.566-1.622 2.566-3.622s-1.149-3.622-2.566-3.622z" fill="#fff"/><path d="m44.784 33.935v-3.586c-.311-.189-.653-.295-1.013-.295-1.417 0-2.566 1.622-2.566 3.622s1.149 3.622 2.566 3.622c.459 0 .884-.184 1.257-.483-.158-.937-.244-1.898-.244-2.88z" fill="#fff"/><path d="m75.377 21.661c-1.116-.577-2.289-1.299-3.239-2.148-1.961-1.751-3.385-4.159-4.002-5.311-2.936 1.105-9.296 1.379-12.264.135-.498 1.055-1.608 2.97-3.69 4.653-1.155.934-2.492 1.772-3.708 2.455-2.273 1.276-3.689 3.664-3.689 6.271v6.219c0 9.508 7.708 17.216 17.216 17.216 9.508 0 17.216-7.708 17.216-17.216v-5.923c-.001-2.666-1.471-5.126-3.84-6.351z" fill="#fff"/><ellipse cx="71.819" cy="35.958" fill="#ffd7e5" rx="1.529" ry=".964"/><path d="m52.181 34.78c-.844 0-1.529.431-1.529.964s.685.964 1.529.964c.845 0 1.529-.432 1.529-.964s-.684-.964-1.529-.964z" fill="#ffd7e5"/><path d="m62 44.688c-2.743 0-4.146-1.902-4.205-1.983-.323-.448-.222-1.073.226-1.396.445-.32 1.065-.223 1.391.219.045.06.906 1.161 2.588 1.161 1.663 0 2.588-1.161 2.597-1.172.333-.439.959-.528 1.401-.193.44.333.526.961.193 1.401-.061.079-1.519 1.963-4.191 1.963z" fill="#fa759e"/><path d="m71.09 6.016c-2.733-2.97-15.468-2.399-17.96.124-1.646 1.666-.585 4.95 1.523 7.393s12.678 1.872 14.695 0 3.117-6.024 1.742-7.517z" fill="#ffd7e5"/><path d="m97.637 86.411h-71.274c-1.767 0-3.199 1.432-3.199 3.199v3.599c0 1.767 1.432 3.199 3.199 3.199h71.274c1.767 0 3.199-1.432 3.199-3.199v-3.599c0-1.767-1.432-3.199-3.199-3.199z" fill="#fa759e"/><path d="m97.637 86.411h-71.274c-1.767 0-3.199 1.432-3.199 3.199v3c0-1.767 1.432-3.199 3.199-3.199h71.274c1.767 0 3.199 1.432 3.199 3.199v-3c0-1.767-1.432-3.199-3.199-3.199z" fill="#fff"/><path d="m31.117 96.408v21.581c0 1.105.895 2 2 2h57.765c1.105 0 2-.895 2-2v-21.581z" fill="#ffd7e5"/><path d="m63.836 59.346h-3.673c-2.372 0-4.295 1.923-4.295 4.295v9.516c0 2.372 1.923 4.295 4.295 4.295h3.673c2.372 0 4.295-1.923 4.295-4.295v-9.516c.001-2.372-1.922-4.295-4.295-4.295z" fill="#d4fbff"/><g fill="#6dc9f7"><path d="m55.868 63.511h12.263v1.416h-12.263z"/><path d="m55.868 66.298h12.263v1.416h-12.263z"/><path d="m55.868 69.085h12.263v1.416h-12.263z"/><path d="m55.868 71.872h12.263v1.416h-12.263z"/><path d="m64.079 59.354v1.938c0 .391.317.708.708.708s.708-.317.708-.708v-1.613c-.44-.185-.917-.298-1.416-.325z"/><path d="m61.292 59.346v1.945c0 .392.317.709.708.709s.708-.317.708-.708v-1.945h-1.416z"/><path d="m58.505 59.679v1.613c0 .391.317.708.708.708s.708-.317.708-.708v-1.938c-.499.027-.976.14-1.416.325z"/><path d="m64.787 74.799c-.391 0-.708.317-.708.708v1.938c.5-.028.976-.141 1.416-.325v-1.613c0-.391-.317-.708-.708-.708z"/><path d="m62 74.799c-.391 0-.708.317-.708.708v1.945h1.416v-1.945c0-.391-.317-.708-.708-.708z"/><path d="m59.213 74.799c-.391 0-.708.317-.708.708v1.613c.44.184.917.297 1.416.325v-1.938c0-.391-.317-.708-.708-.708z"/></g><path d="m41.127 71.059c-.479-1.181-2.203-1.596-3.85-.928s-2.594 2.167-2.115 3.348 2.203 1.596 3.85.928c1.648-.668 2.595-2.167 2.115-3.348z" fill="#fa759e"/><path d="m86.722 70.131c-1.647-.668-3.37-.253-3.85.928-.479 1.181.468 2.68 2.115 3.348s3.37.253 3.85-.928c.479-1.181-.468-2.68-2.115-3.348z" fill="#fa759e"/><path d="m54.405 29.804c-.951 0-1.722.771-1.722 1.722s.771 1.722 1.722 1.722 1.722-.771 1.722-1.722c-.001-.951-.772-1.722-1.722-1.722z" fill="#3a2c60"/><circle cx="69.595" cy="31.526" fill="#3a2c60" r="1.722"/><path d="m62 40.189c1.631 0 2.958-1.327 2.958-2.958v-1.148c0-.552-.448-1-1-1s-1 .448-1 1v1.148c0 .528-.43.958-.958.958s-.958-.43-.958-.958v-1.148c0-.552-.448-1-1-1s-1 .448-1 1v1.148c0 1.631 1.327 2.958 2.958 2.958z" fill="#3a2c60"/><path d="m68.244 28.426 3.372.587c.058.01.116.015.173.015.477 0 .899-.342.984-.828.095-.544-.27-1.062-.813-1.157l-3.372-.587c-.546-.088-1.062.27-1.157.813-.095.545.269 1.062.813 1.157z" fill="#3a2c60"/><path d="m55.412 26.456-3.372.587c-.544.095-.908.613-.813 1.157.085.486.507.828.984.828.057 0 .115-.005.173-.015l3.372-.587c.544-.095.908-.613.813-1.157-.094-.543-.609-.901-1.157-.813z" fill="#3a2c60"/><path d="m97.637 85.411h-2.037v-7.019c0-1.181-.634-2.285-1.654-2.881l-4.008-2.342c.055-.456-.003-.932-.172-1.396-.117-2.581-.659-5.052-1.558-7.347.646-1.341 1.163-2.92 1.08-4.466-.181-3.387-1.607-5.789-2.589-7.06l2.555-1.318c.341-.176.55-.533.54-.916-.01-.384-.241-.729-.591-.886-.158-.071-3.872-1.79-4.746-6.283-.354-1.823.004-4.346.418-7.267.654-4.605 1.467-10.336-.461-15.586-3.521-9.583-9.58-13.572-12.31-14.943-.084-.128-.174-.251-.276-.363-1.768-1.921-6.093-2.28-8.513-2.323-4.027-.059-9.149.657-10.895 2.422-.138.14-.26.287-.37.44-2.637 1.401-8.544 5.44-11.971 14.767-1.923 5.235-1.15 9.644-.469 13.533.419 2.387.78 4.449.426 6.274-.913 4.697-4.104 7.766-4.136 7.796-.271.256-.376.642-.274 1s.394.631.758.706l1.429.296c-1.142 2.062-3.131 6.344-2.65 10.454.127 1.088.466 2.15.878 3.112-1.047 2.463-1.676 5.143-1.803 7.952-.171.466-.23.944-.175 1.402l-4.008 2.342c-1.02.596-1.654 1.7-1.654 2.881v7.019h-2.038c-2.315 0-4.199 1.884-4.199 4.199v3.599c0 2.315 1.883 4.199 4.199 4.199h3.754v20.581c0 1.654 1.346 3 3 3h20.039 17.688 20.038c1.654 0 3-1.346 3-3v-20.581h3.754c2.315 0 4.199-1.884 4.199-4.199v-3.599c.001-2.315-1.883-4.199-4.198-4.199zm-4.037-7.019v7.019h-3.805v-10.009l3.143 1.836c.408.238.662.681.662 1.154zm-5.869-6.245c.128.204.323.6.178.956-.145.357-.56.505-.794.562-.518.125-1.157.057-1.752-.184-1.211-.491-1.796-1.472-1.564-2.045.145-.356.56-.504.794-.561.519-.125 1.157-.057 1.752.184.597.241 1.102.637 1.386 1.088zm-.235-2.747c-.132-.066-.259-.139-.398-.196-.989-.401-2.043-.498-2.973-.275-1.034.249-1.828.888-2.179 1.753-.697 1.718.474 3.761 2.666 4.651.641.26 1.31.393 1.955.393.35 0 .692-.039 1.019-.118.075-.018.138-.052.21-.074v9.877h-8.643v-14.777c.857-.178 1.79-.595 2.476-1.52.628-.847 1.079-1.733 1.383-2.446l1.564 1.341c.202.173.462.262.729.238.265-.021.511-.146.683-.349.045-.053.41-.488.883-1.174.263.87.473 1.763.625 2.676zm-51.406 3.702c-.145-.356.05-.751.179-.956.285-.451.79-.847 1.385-1.089.399-.162.817-.246 1.206-.246.191 0 .375.02.546.062.235.057.65.205.794.561.232.573-.353 1.554-1.564 2.045-.596.242-1.234.311-1.752.184-.234-.055-.649-.203-.794-.561zm7.694-39.167c0 .403.016.809.043 1.217.01.143.027.284.04.427.013.144.027.288.044.431.01.09.015.179.026.269-.818.192-1.731-.943-1.731-2.603 0-1.545.825-2.622 1.565-2.622h.013zm16.178-17.816c.106.006.221.004.328.009.204.009.409.012.616.016.18.003.352.014.534.014.13 0 .264-.007.395-.009.14-.002.279-.005.419-.009.384-.011.767-.03 1.152-.056.08-.006.16-.01.24-.016.116-.009.233-.013.348-.023.045.007.084.029.131.03h.027c.147 0 .284-.037.41-.094.803-.089 1.573-.213 2.287-.373.001 0 .003-.001.004-.001.277-.063.553-.126.809-.199.792 1.364 2.101 3.327 3.808 4.851.896.8 2.055 1.571 3.446 2.29 2.035 1.053 3.299 3.146 3.299 5.464v2.336 3.586c0 .503-.03 1-.076 1.491-.02.214-.053.427-.081.641-1.048 7.936-7.841 14.085-16.058 14.085s-15.01-6.149-16.06-14.084c-.028-.214-.061-.427-.081-.641-.045-.492-.076-.988-.076-1.491v-3.586-2.633c0-2.23 1.218-4.298 3.179-5.399 1.504-.844 2.798-1.702 3.848-2.549 1.785-1.442 2.907-3.055 3.552-4.203.026.008.058.012.085.02.374.106.759.193 1.151.264.026.005.053.008.079.013.779.135 1.57.216 2.285.256zm3.038 69.292v-6.958h.836c2.92 0 5.295-2.375 5.295-5.295v-9.516c0-1.456-.591-2.776-1.546-3.734.031-.032.059-.067.09-.1.002-.003.005-.005.007-.008.237-.255.455-.527.656-.812.028-.04.057-.078.085-.118.202-.299.39-.607.549-.933.005-.01.008-.021.013-.03.144-.297.263-.606.369-.922.014-.043.036-.082.05-.125.026.05.055.09.081.139.191.365.393.707.601 1.031.05.077.099.155.149.23.22.327.446.633.675.925.043.055.085.111.128.165.246.305.495.592.742.867.027.03.053.06.08.09.269.296.536.578.794.852.019.02.037.04.056.06.628.664 1.219 1.294 1.654 1.951.137.208.264.414.381.618.058.101.107.2.161.301.055.102.114.205.164.306.051.104.094.204.141.306.044.095.091.191.131.284.046.109.085.215.126.322.032.083.068.168.098.249.041.115.075.225.111.336.023.07.049.142.069.211.034.114.062.223.091.333.016.062.036.127.051.188.03.123.054.24.078.357.009.043.02.088.028.13.023.123.042.239.06.354.005.033.012.068.017.101.017.121.03.235.042.347.002.022.006.047.008.068.012.121.02.235.027.344.001.01.002.02.002.03.04.705-.022 1.138-.026 1.164-.014.083.001.163.007.243.004.047-.006.096.004.141.016.069.054.128.083.192.023.05.035.105.066.151.041.06.101.104.154.154.038.036.067.08.111.11.064.043.143.064.217.092.047.018.087.048.137.058h.003.001c.011.002.043.008.088.016.016.003.037.005.056.009.031.005.058.01.098.015v14.71h-14.149zm-4.893-26.649c-1.14-1.051-1.863-2.545-1.863-4.214v-3.325c.076.025.154.042.231.066.135.043.274.078.411.118.389.113.779.216 1.175.303.195.043.391.082.589.119.351.065.704.118 1.059.162.214.027.427.057.644.077.439.039.879.059 1.32.067.11.002.217.017.328.017s.218-.015.328-.017c.441-.008.881-.028 1.32-.067.217-.02.43-.05.644-.077.355-.044.707-.097 1.059-.162.197-.037.393-.075.589-.119.396-.087.787-.189 1.175-.303.137-.04.275-.075.411-.118.076-.024.155-.041.231-.066v3.325c0 1.669-.723 3.163-1.863 4.214-.633-.268-1.328-.416-2.057-.416h-3.673c-.73 0-1.425.149-2.058.416zm-1.239 4.88c0-1.817 1.479-3.295 3.295-3.295h3.673c1.817 0 3.295 1.479 3.295 3.295v9.516c0 1.817-1.479 3.295-3.295 3.295h-3.673c-1.817 0-3.295-1.479-3.295-3.295zm23.221-27.632c.016-.138.03-.276.043-.416.013-.146.031-.291.04-.438.028-.409.044-.817.044-1.221v-2.881c.768-.002 1.578 1.067 1.578 2.622 0 1.66-.917 2.793-1.731 2.603.012-.09.016-.18.026-.269zm-32.839 34.847c1.571 0 2.81-.469 2.935-.518.001 0 .007-.002.007-.003s.002-.001.002-.001c.052-.021.086-.065.134-.094.22-.133.398-.327.465-.581.081-.306.011-.632-.186-.879-.001-.001-.001-.002-.001-.003-.021-.027-2.12-2.698-1.069-5.279.525-1.291 1.319-2.184 2.238-3.218.224-.252.451-.508.678-.774.018-.022.037-.044.055-.066.216-.255.432-.519.645-.799.028-.037.055-.076.083-.113.2-.268.396-.547.586-.848.036-.056.07-.117.105-.174.179-.293.354-.601.519-.933.014-.029.031-.052.045-.081.015.059.043.113.06.172.082.287.179.566.292.838.04.096.077.191.121.285.151.326.319.642.512.942.035.055.077.104.113.158.172.252.358.493.558.723.069.079.137.157.209.233.019.021.037.043.057.064-.954.958-1.546 2.278-1.546 3.734v9.516c0 2.92 2.375 5.295 5.295 5.295h.838v6.958h-14.152v-14.567c.136.007.271.013.402.013zm39.513-20.24-2.123 1.095c-.292.15-.491.435-.533.76s.078.651.321.871c.026.024 2.632 2.427 2.862 6.725.113 2.12-1.354 4.517-2.218 5.734l-1.861-1.595c-.261-.225-.623-.297-.949-.195-.329.103-.582.368-.669.702-.004.017-.454 1.702-1.573 3.211-.469.634-1.252.804-1.854.83-.006-1.392-.317-3.941-2.132-6.687-.544-.823-1.215-1.532-1.926-2.283-1.867-1.973-3.974-4.198-4.318-9.378.273-.129.535-.272.8-.414.04-.021.081-.041.121-.062 1.996-1.086 3.744-2.51 5.174-4.192.503 1.4 1.52 3.199 3.571 4.347.155.086.322.127.488.127.35 0 .69-.184.874-.511.27-.482.098-1.091-.384-1.361-2.416-1.352-2.933-4.055-3.022-4.682.511-.81.951-1.664 1.329-2.547.034-.078.064-.157.097-.235.182-.443.348-.892.495-1.35.029-.088.06-.175.088-.264.103-.336.192-.678.275-1.021.177.036.356.058.536.058.994 0 1.881-.503 2.521-1.327-.371 2.668-.629 4.996-.258 6.908.677 3.495 2.767 5.621 4.268 6.736zm-4.227-29.283c1.228 3.344 1.232 6.907.9 10.326-.569-1.55-1.771-2.606-3.207-2.606-.004 0-.008.002-.013.002v-1.043c0-.935-.173-1.835-.466-2.685.301.305.583.632.8 1.011.185.323.522.504.869.504.168 0 .339-.042.495-.132.479-.274.646-.885.372-1.364-1.546-2.705-4.871-3.843-5.62-4.07-.266-.181-.539-.355-.83-.505-1.242-.643-2.262-1.317-3.033-2.005-.321-.287-.623-.599-.914-.917-.071-.078-.142-.156-.211-.234-.274-.312-.538-.629-.778-.946-.019-.025-.035-.049-.054-.074-.229-.305-.439-.604-.634-.893-.051-.076-.102-.152-.151-.226-.191-.291-.369-.573-.52-.823-.003-.005-.006-.01-.009-.015.189-.118.354-.241.495-.373.176-.163.344-.344.507-.534.009-.011.018-.022.027-.033.099-.117.199-.233.293-.358.713.943 1.888 2.158 3.729 3.19.155.086.322.127.488.127.35 0 .69-.184.874-.511.27-.482.098-1.091-.384-1.361-2.161-1.21-3.211-2.707-3.602-3.384.428-1.001.693-2.069.738-3.066 2.807 1.787 7.113 5.578 9.839 12.998zm-19.812-16.324c.183 0 .368.001.553.005 3.417.061 6.195.719 7.077 1.678.046.05.085.111.122.174.006.014.007.029.013.042.462.915.136 2.901-.749 4.486-.005.009-.01.017-.015.025-.143.254-.301.498-.472.724-.009.012-.02.024-.029.036-.173.225-.358.435-.557.62-.002.002-.006.005-.008.006-.035.031-.08.063-.123.094-.1.069-.26.157-.493.258.285-1.12.573-2.599.573-4.004 0-.552-.448-1-1-1s-1 .448-1 1c0 1.743-.542 3.711-.829 4.631-.197.036-.397.071-.604.102l.005-.201c.015-.552-.421-1.011-.973-1.026-.557-.044-1.012.421-1.026.973l-.012.465c-.229.015-.458.027-.688.037l-.377-1.49c-.136-.536-.676-.857-1.215-.725-.535.135-.86.679-.725 1.215l.253 1.002c-.092-.004-.185-.006-.277-.011-.05-.003-.1-.006-.15-.009-.284-.017-.552-.038-.808-.063-.055-.005-.11-.01-.164-.016-.092-.01-.172-.023-.261-.034-.425-.83-1.192-2.539-1.192-3.579 0-.552-.448-1-1-1s-1 .448-1 1c0 .951.354 2.077.73 3.008-.012-.005-.025-.009-.037-.013-.033-.014-.06-.028-.091-.042-.136-.06-.249-.118-.346-.174-.062-.036-.124-.073-.175-.109-.027-.019-.049-.037-.072-.055-.067-.053-.13-.106-.175-.158-.43-.498-.817-1.046-1.139-1.607-.061-.107-.107-.212-.163-.319-.083-.159-.17-.317-.241-.476-.344-.774-.526-1.519-.529-2.158 0-.022-.002-.046-.002-.068.003-.172.026-.331.057-.484.013-.064.027-.127.046-.188.035-.119.081-.23.135-.334.076-.143.152-.286.268-.403.897-.908 4.501-1.835 8.885-1.835zm-20.77 16.324c2.59-7.048 6.652-10.83 9.382-12.691.006.098.025.199.036.298.005.044.01.088.016.133.023.174.053.348.09.523.001.004.002.008.003.012.128.586.33 1.176.594 1.755.004.009.008.019.012.028.001.003.002.005.003.008-.387.671-1.436 2.172-3.605 3.387-.482.27-.654.879-.384 1.361.183.327.523.511.874.511.166 0 .333-.041.488-.127 1.859-1.042 3.039-2.27 3.75-3.217.026.037.053.073.08.109.046.063.09.126.137.188.15.196.304.389.465.576.165.191.364.36.582.516.019.013.03.03.049.044-.124.213-.274.448-.436.689-.04.06-.083.121-.126.183-.174.249-.362.506-.579.77-.004.005-.007.01-.011.015-.215.261-.46.529-.719.795-.066.068-.134.135-.202.203-.278.273-.571.546-.9.811-.962.777-2.164 1.572-3.569 2.361-2.591 1.454-4.2 4.191-4.2 7.143v1.34c-.004 0-.008-.002-.013-.002-1.092 0-2.043.619-2.692 1.591-.35-2.823-.375-5.911.875-9.313zm-1.731 28.777c.185-.277.22-.627.093-.935-.126-.308-.396-.532-.722-.6l-1.115-.231c1.168-1.478 2.854-4.093 3.518-7.513.192-.989.209-2.01.135-3.058.49.324 1.041.524 1.639.524.181 0 .361-.022.54-.059.076.31.154.62.246.924.052.174.112.344.169.516.115.344.239.683.373 1.018.03.074.052.151.082.224-.21.422-.895 1.716-2.028 3.059-.356.422-.303 1.053.119 1.409.188.158.417.236.645.236.284 0 .567-.121.765-.355.674-.798 1.188-1.561 1.577-2.196.17.292.347.58.533.863.073.11.146.219.221.328.268.389.549.769.847 1.136.073 1.137.148 5.947-3.24 10.758-.318.451-.21 1.075.242 1.393.175.124.376.183.575.183.314 0 .624-.147.818-.424 2.633-3.738 3.389-7.451 3.573-9.83.162.146.333.283.5.423.05.042.099.085.149.126.836.684 1.738 1.297 2.7 1.83.115.064.232.125.349.187.153.08.301.168.457.244-.371 4.912-2.063 6.817-3.703 8.662-.954 1.074-1.941 2.184-2.596 3.792-.97 2.382-.164 4.67.558 6.029-1.09.167-2.699.15-3.888-.98-1.731-1.646-2.252-5.307-2.257-5.344-.062-.45-.42-.803-.871-.857-.041-.005-.081-.007-.12-.007-.406 0-.777.247-.93.632l-1.164 2.946c-.745-1.181-1.659-2.936-1.865-4.694-.565-4.83 3.04-10.305 3.076-10.359zm-1.728 17.779c.226.271.576.404.927.348.349-.056.642-.292.772-.62l.713-1.805c.44 1.204 1.102 2.512 2.069 3.432.587.558 1.226.93 1.872 1.18v14.987h-8.643v-9.877c.072.022.135.056.21.074.327.079.669.118 1.019.118.645 0 1.313-.133 1.955-.393 2.191-.89 3.362-2.933 2.666-4.651-.351-.865-1.146-1.504-2.179-1.753-.928-.223-1.984-.126-2.973.275-.141.057-.27.131-.403.198.183-1.101.449-2.174.795-3.212.622.994 1.15 1.639 1.2 1.699zm-8.095 10.502c0-.473.254-.916.663-1.154l3.143-1.836v10.009h-3.806zm1.717 39.596v-20.58h20.039v21.581h-19.039c-.551-.001-1-.449-1-1.001zm59.765 0c0 .551-.449 1-1 1h-19.038v-4.787c0-.552-.448-1-1-1s-1 .448-1 1v4.787h-15.688v-21.58h15.688v3.632c0 .552.448 1 1 1s1-.448 1-1v-3.632h20.038zm7.954-24.779c0 1.212-.986 2.199-2.199 2.199h-71.274c-1.212 0-2.199-.986-2.199-2.199v-3.599c0-1.213.986-2.199 2.199-2.199h8.84.002 10.643 32.304 10.643.002 8.84c1.213 0 2.199.986 2.199 2.199z" fill="#3a2c60"/><path d="m70.844 104.222c-.552 0-1 .448-1 1v4.119c0 .552.448 1 1 1s1-.448 1-1v-4.119c0-.552-.448-1-1-1z" fill="#3a2c60"/><path d="m81.418 35.371c-.738 0-1.336.598-1.336 1.336s.598 1.336 1.336 1.336 1.336-.598 1.336-1.336-.598-1.336-1.336-1.336z" fill="#0089ef"/><path d="m42.582 35.371c-.738 0-1.336.598-1.336 1.336s.598 1.336 1.336 1.336 1.336-.598 1.336-1.336-.598-1.336-1.336-1.336z" fill="#0089ef"/></svg>