<svg id="Layer_1" enable-background="new 0 0 128 128" height="512" viewBox="0 0 128 128" width="512" xmlns="http://www.w3.org/2000/svg"><circle cx="67.256" cy="65.56" fill="#e6e7e8" r="44"/><path d="m25.681 24.692c0-1.554-1.264-2.817-2.817-2.817h-.03c-1.554 0-2.817 1.264-2.817 2.817v15.196c0 .24-.436.24-.436 0v-15.196c0-1.554-1.264-2.817-2.817-2.817-1.554 0-2.817 1.264-2.817 2.817v15.196c0 .24-.436.24-.436 0v-15.196c0-1.554-1.264-2.817-2.847-2.817-1.554 0-2.817 1.264-2.817 2.817v22.463c0 1.597 1.694 4.365 4.217 5.94.032.02.065.081.065.159v53.465c0 2.582 1.927 4.706 4.387 4.834.084.004.168.007.252.007 1.192 0 2.316-.447 3.186-1.272.918-.872 1.445-2.097 1.445-3.363v-53.667c0-.079.032-.14.064-.16 2.523-1.572 4.217-4.342 4.217-5.943v-22.463z" fill="#e6e7e8"/><path d="m122.084 20.55c-1.247-.352-2.539.156-3.216 1.262-1.36 2.22-5.293 13.537-6.421 24.454-1.072 10.372.53 20.586 2.191 23.704v36.638c0 2.556 1.904 4.723 4.335 4.935.138.012.275.018.413.018 1.189 0 2.346-.444 3.225-1.25.98-.899 1.543-2.178 1.543-3.508v-83.516c0-1.288-.832-2.388-2.07-2.737z" fill="#e6e7e8"/><ellipse cx="63.256" cy="61.56" fill="#0089ef" rx="43" ry="43" transform="matrix(.987 -.16 .16 .987 -9.044 10.927)"/><ellipse cx="63.256" cy="61.56" fill="#6dc9f7" rx="37.5" ry="37.5" transform="matrix(.987 -.16 .16 .987 -9.044 10.927)"/><path d="m79.964 48.613c-2.616.833-5.81 1.122-7.791 1.221-1.717 1.313-4.797 2.672-6.762 3.468-.439.669-.996 1.268-1.689 1.733l-5.828 3.913c-.71.477-1.495.775-2.3.924-1.475 1.514-3.939 3.9-5.83 5.008-.482 1.028-1.175 2.402-2.008 3.784.123 12.159 10.013 21.979 22.201 21.979 12.265 0 22.207-9.942 22.207-22.207 0-8.663-4.964-16.163-12.2-19.823z" fill="#fff"/><circle cx="69.957" cy="68.436" fill="#fa759e" r="9.388"/><path d="m74.122 69.84c-.957 0-1.732.776-1.732 1.732 0 .957.776 1.732 1.732 1.732.957 0 1.732-.776 1.732-1.732 0-.957-.776-1.732-1.732-1.732z" fill="#fff"/><path d="m63.356 68.437c0-4.71 3.472-8.599 7.995-9.274-.456-.068-.919-.115-1.393-.115-5.185 0-9.388 4.203-9.388 9.388s4.203 9.388 9.388 9.388c.475 0 .937-.047 1.393-.115-4.523-.674-7.995-4.562-7.995-9.272z" fill="#fff"/><path d="m74.512 35.626c1.817 3.561-.49 11.185-2.525 13.064-.055.051-.132.103-.192.154 2.92-.147 10.388-.796 11.407-3.592.972-2.665-5.556-7.495-8.69-9.626z" fill="#fa759e"/><path d="m74.175 35.063c-3.005-4.033-12.368-3.637-18.03-2.976 1.61.794 2.963 2.147 3.708 3.974l5.218 11.894c.62 1.522.453 3.187-.327 4.538 2.068-.827 5.738-2.413 7.243-3.802 2.148-1.984 4.608-10.38 2.188-13.628z" fill="#ffd7e5"/><path d="m48.774 64.276c-2.509 1.172-10.439.422-13.047-2.608.786 3.707 2.785 11.578 5.619 11.688 2.974.115 6.402-6.552 7.643-9.199-.07.035-.147.087-.215.119z" fill="#fa759e"/><path d="m50.828 57.518-9.033-9.332c-1.44-1.412-2.183-3.224-2.283-5.055-2.76 4.961-6.809 13.648-4.18 18.013 2.09 3.469 10.792 4.371 13.442 3.133 1.884-.88 4.798-3.747 6.329-5.335-1.53.193-3.113-.286-4.275-1.424z" fill="#ffd7e5"/><path d="m65.072 47.955-5.218-11.894c-1.838-4.508-7.353-6.191-11.395-3.478l-5.568 3.739c-4.042 2.714-4.572 8.456-1.095 11.864l9.033 9.332c1.753 1.718 4.471 1.969 6.508.601l5.827-3.913c2.037-1.368 2.834-3.979 1.908-6.251z" fill="#fa759e"/><path d="m18.834 18.875c-1.004 0-1.817.814-1.817 1.817v15.197c0 .673-.545 1.218-1.218 1.218s-1.218-.545-1.218-1.218v-15.197c0-1.004-.814-1.817-1.817-1.817-1.004 0-1.817.814-1.817 1.817v15.197c0 .673-.545 1.218-1.218 1.218s-1.218-.545-1.218-1.218v-15.197c0-1.004-.814-1.817-1.817-1.817h-.031c-1.004 0-1.817.814-1.817 1.817v22.463c0 1.205 1.504 3.691 3.747 5.091.343.214.535.604.535 1.008v53.465c0 1.968 1.474 3.733 3.44 3.836 2.096.11 3.831-1.558 3.831-3.63v-53.667c0-.404.193-.794.536-1.008 2.245-1.399 3.746-3.887 3.746-5.094v-22.464c0-1.004-.814-1.817-1.817-1.817z" fill="#6dc9f7"/><path d="m115.721 18.334c-1.202 1.962-5.141 13.023-6.279 24.035-1.069 10.348.569 20.653 2.191 23.327.004.006.005.012.005.019v1.651 35.242c0 1.982 1.447 3.767 3.422 3.938 2.227.194 4.094-1.557 4.094-3.743v-83.516c0-1.872-2.455-2.55-3.433-.953z" fill="#6dc9f7"/><g fill="#3a2c60"><path d="m63.256 17.56c-24.262 0-44 19.738-44 44s19.738 44 44 44 44-19.738 44-44-19.738-44-44-44zm0 86c-23.159 0-42-18.841-42-42s18.841-42 42-42 42 18.841 42 42-18.841 42-42 42z"/><path d="m63.256 23.06c-21.229 0-38.5 17.271-38.5 38.5s17.271 38.5 38.5 38.5 38.5-17.271 38.5-38.5-17.271-38.5-38.5-38.5zm0 75c-20.126 0-36.5-16.374-36.5-36.5s16.374-36.5 36.5-36.5 36.5 16.374 36.5 36.5-16.374 36.5-36.5 36.5z"/><path d="m84.914 83.472c-1.184 1.178-2.505 2.215-3.929 3.083-.471.288-.62.903-.333 1.375.188.309.518.479.854.479.177 0 .357-.047.52-.146 1.557-.95 3.003-2.084 4.297-3.373.392-.39.394-1.023.004-1.414-.389-.393-1.023-.394-1.413-.004z"/><path d="m81.205 48.147c-.024.01-.052.018-.076.028 1.453-.615 2.598-1.444 3.013-2.581 1.207-3.312-5.142-8.175-8.911-10.709-.083-.142-.158-.291-.254-.421-3.253-4.366-12.772-4.069-18.66-3.408-.338-.152-.684-.29-1.043-.399-2.508-.765-5.195-.366-7.374 1.096l-5.568 3.738c-2.177 1.462-3.564 3.799-3.806 6.41-.031.335-.041.668-.034 1-2.85 5.175-6.863 14.035-4.017 18.757.089.147.192.287.299.426.921 4.452 3.018 12.134 6.532 12.269.037.001.073.002.109.002 1.961 0 3.895-2.026 5.477-4.35-.027.039-.049.08-.076.119.869 12.01 10.911 21.518 23.139 21.518 2.533 0 5.024-.406 7.404-1.207.523-.176.805-.743.629-1.267s-.741-.805-1.267-.629c-2.174.731-4.451 1.102-6.767 1.102-11.693 0-21.207-9.514-21.207-21.207 0-.57.041-1.129.085-1.687.364-.691.672-1.323.928-1.869 1.891-1.108 4.355-3.493 5.83-5.008.805-.15 1.59-.448 2.3-.924l5.828-3.913c.693-.466 1.25-1.064 1.689-1.733 1.965-.797 5.044-2.155 6.762-3.468 1.618-.081 4.032-.29 6.297-.818-.005.001-.009.003-.013.004 7.471 3.284 12.708 10.746 12.708 19.416 0 4.256-1.255 8.36-3.63 11.87-.31.458-.19 1.079.268 1.389s1.079.19 1.389-.268c2.6-3.842 3.974-8.334 3.974-12.991.002-8.715-4.831-16.321-11.957-20.287zm1.058-3.237c-.548 1.502-4.527 2.416-8.341 2.787 1.359-2.458 2.453-6.476 2.193-9.718 3.708 2.769 6.598 5.698 6.148 6.931zm-43.126 1.061c.439 1.08 1.087 2.075 1.939 2.91l9.052 9.352c.781.765 1.735 1.26 2.742 1.526-1.531 1.481-3.322 3.051-4.52 3.611-2.255 1.052-10.401.178-12.162-2.744-1.922-3.191.395-9.565 2.949-14.655zm2.248 26.385c-1.31-.051-2.928-3.836-4.088-8.318 2.344 1.186 5.494 1.752 8.091 1.752.623 0 1.199-.042 1.738-.105-1.781 3.387-4.117 6.716-5.741 6.671zm6.495-3.9c.022-.037.043-.073.064-.11-.021.037-.041.072-.064.11zm8.899-11.167c-1.635 1.098-3.844.894-5.232-.466l-9.052-9.352c-1.442-1.413-2.162-3.375-1.977-5.385.186-2.01 1.253-3.809 2.929-4.934l5.568-3.738c1.117-.75 2.408-1.136 3.717-1.136.655 0 1.314.097 1.958.293 1.93.589 3.475 1.999 4.247 3.893l5.208 11.869c.743 1.824.096 3.945-1.54 5.044zm9.208-9.736-5.208-11.869c-.444-1.089-1.101-2.049-1.908-2.856 5.641-.418 12.299-.125 14.503 2.833 2.038 2.735-.236 10.607-2.065 12.295-.948.875-3.005 1.912-4.918 2.758.138-1.044.016-2.132-.404-3.161z"/><path d="m69.957 58.048c-5.728 0-10.388 4.66-10.388 10.388s4.66 10.388 10.388 10.388 10.388-4.66 10.388-10.388-4.66-10.388-10.388-10.388zm0 18.777c-4.625 0-8.388-3.763-8.388-8.388s3.763-8.388 8.388-8.388 8.388 3.763 8.388 8.388-3.762 8.388-8.388 8.388z"/><path d="m21.681 20.692c0-1.554-1.264-2.817-2.817-2.817h-.03c-1.554 0-2.817 1.264-2.817 2.817v15.196c0 .24-.436.24-.436 0v-15.196c0-1.554-1.264-2.817-2.817-2.817-1.554 0-2.817 1.264-2.817 2.817v15.196c0 .24-.436.24-.436 0v-15.196c0-1.554-1.264-2.817-2.847-2.817-1.554 0-2.817 1.264-2.817 2.817v22.463c0 1.597 1.694 4.365 4.217 5.94.032.02.065.081.065.159v53.465c0 2.582 1.927 4.706 4.387 4.834.084.004.168.007.252.007 1.192 0 2.316-.447 3.186-1.272.918-.872 1.445-2.097 1.445-3.363v-53.667c0-.079.032-.14.064-.16 2.523-1.572 4.217-4.342 4.217-5.943v-22.463zm-2 22.463c0 .777-1.244 2.979-3.275 4.246-.621.387-1.007 1.099-1.007 1.857v53.667c0 .73-.292 1.409-.822 1.912-.529.502-1.221.755-1.957.719-1.374-.072-2.492-1.345-2.492-2.837v-53.465c0-.758-.386-1.469-1.006-1.856-2.032-1.268-3.276-3.468-3.276-4.243v-22.463c0-.451.367-.817.847-.817.451 0 .817.367.817.817v15.196c0 1.223.995 2.218 2.218 2.218s2.218-.995 2.218-2.218v-15.196c0-.451.367-.817.817-.817s.817.367.817.817v15.196c0 1.223.995 2.218 2.218 2.218s2.218-.995 2.218-2.218v-15.196c0-.451.367-.817.817-.817h.03c.45 0 .817.367.817.817v22.463z"/><path d="m118.084 16.55c-1.247-.352-2.539.156-3.216 1.262-1.36 2.22-5.293 13.537-6.421 24.454-1.072 10.372.53 20.586 2.191 23.704v36.638c0 2.556 1.904 4.723 4.335 4.935.138.012.275.018.413.018 1.189 0 2.346-.444 3.225-1.25.98-.899 1.543-2.178 1.543-3.508v-83.516c0-1.288-.832-2.388-2.07-2.737zm.07 86.252c0 .771-.326 1.512-.895 2.034-.576.528-1.328.783-2.112.714-1.407-.123-2.508-1.415-2.508-2.942v-36.893c0-.183-.056-.381-.15-.538-1.532-2.525-3.093-12.626-2.052-22.706 1.109-10.731 4.995-21.75 6.137-23.615.317-.517.821-.423.968-.382.144.041.613.219.613.813v83.515z"/></g></svg>