<svg id="Layer_1" enable-background="new 0 0 128 128" height="512" viewBox="0 0 128 128" width="512" xmlns="http://www.w3.org/2000/svg"><path d="m109.606 23.253c0-2.687-2.186-4.872-4.872-4.872h-18.453c-1.045-.815-2.356-1.306-3.781-1.306h-6v-.677c0-5.79-4.71-10.5-10.5-10.5s-10.5 4.71-10.5 10.5v.677h-6c-1.425 0-2.736.491-3.781 1.306h-18.453c-2.687 0-4.872 2.186-4.872 4.872v97.978c0 2.686 2.186 4.872 4.872 4.872h77.469c2.687 0 4.872-2.186 4.872-4.872v-97.978z" fill="#e6e7e8"/><path d="m100.734 15.381h-18.832c1.074.947 1.765 2.317 1.765 3.861v6.167h-43.334v-6.167c0-1.544.691-2.914 1.765-3.861h-18.832c-2.138 0-3.872 1.734-3.872 3.872v97.978c0 2.138 1.734 3.872 3.872 3.872h77.469c2.138 0 3.872-1.734 3.872-3.872v-97.978c-.001-2.139-1.734-3.872-3.873-3.872z" fill="#fff"/><path d="m100.734 18.381h-17.154c.047.281.087.566.087.861v6.167h-43.334v-6.167c0-.295.039-.579.087-.861h-17.154c-2.138 0-3.872 1.734-3.872 3.872v94.978c0 2.138 1.734 3.872 3.872 3.872h77.469c2.138 0 3.872-1.734 3.872-3.872v-94.978c-.001-2.139-1.734-3.872-3.873-3.872z" fill="#6dc9f7"/><path d="m95.056 23.659h-11.389v1.749h-43.334v-1.749h-11.389c-.934 0-1.692.757-1.692 1.692v85.781c0 .934.757 1.692 1.692 1.692h66.112c.934 0 1.692-.757 1.692-1.692v-85.781c0-.935-.758-1.692-1.692-1.692z" fill="#fff"/><path d="m71.619 45.732c0-5.385-4.222-9.761-9.463-9.846-5.29-.086-9.765 4.411-9.775 9.828-.005 3.065 1.358 5.803 3.498 7.612 1.243 1.051 2.128 2.479 2.596 4.058l.225.762h6.6l.26-.879c.451-1.522 1.309-2.896 2.514-3.901 2.163-1.806 3.545-4.554 3.545-7.634z" fill="#ffd7e5"/><path d="m58.672 58.146c-.293 0-.531.243-.531.544v2.396c0 1.425.991 2.612 2.306 2.881v.299c0 .594.47 1.075 1.05 1.075h1.006c.58 0 1.05-.481 1.05-1.075v-.299c1.315-.269 2.306-1.456 2.306-2.881v-2.396c0-.3-.238-.544-.531-.544z" fill="#0089ef"/><path d="m78.5 14.075h-7v-1.677c0-5.247-4.253-9.5-9.5-9.5s-9.5 4.253-9.5 9.5v1.677h-7c-2.853 0-5.167 2.313-5.167 5.167v6.167h43.333v-6.167c.001-2.854-2.313-5.167-5.166-5.167z" fill="#0089ef"/><circle cx="62" cy="11.825" fill="#fff" r="3"/><g fill="#3a2c60"><path d="m100.734 14.381h-18.452c-1.046-.816-2.356-1.307-3.782-1.307h-6v-.677c0-5.79-4.71-10.5-10.5-10.5s-10.5 4.71-10.5 10.5v.677h-6c-1.426 0-2.737.491-3.782 1.307h-18.452c-2.687 0-4.872 2.186-4.872 4.871v97.979c0 2.687 2.186 4.872 4.872 4.872h77.469c2.687 0 4.872-2.186 4.872-4.872v-75.094c0-.553-.447-1-1-1s-1 .447-1 1v75.094c0 1.584-1.288 2.872-2.872 2.872h-77.469c-1.584 0-2.872-1.288-2.872-2.872v-97.979c0-1.583 1.288-2.871 2.872-2.871h16.776c-.45.856-.708 1.828-.708 2.86v3.418h-10.39c-1.484 0-2.692 1.207-2.692 2.691v85.781c0 1.484 1.208 2.691 2.692 2.691h66.111c1.484 0 2.692-1.207 2.692-2.691v-85.78c0-1.484-1.208-2.691-2.692-2.691h-10.388v-3.418c0-1.032-.258-2.004-.708-2.86h16.776c1.584 0 2.872 1.288 2.872 2.871v5.659c0 .553.447 1 1 1s1-.447 1-1v-5.659c-.001-2.686-2.186-4.872-4.873-4.872zm-48.234.693c.553 0 1-.447 1-1v-1.677c0-4.687 3.813-8.5 8.5-8.5s8.5 3.813 8.5 8.5v1.677c0 .553.447 1 1 1h7c2.298 0 4.167 1.869 4.167 4.167v5.167h-41.334v-5.167c0-2.298 1.869-4.167 4.167-4.167zm42.556 9.585c.382 0 .692.311.692.691v85.781c0 .381-.311.691-.692.691h-66.112c-.382 0-.692-.311-.692-.691v-85.78c0-.381.311-.691.692-.691h10.389v.749c0 .553.447 1 1 1h43.334c.553 0 1-.447 1-1v-.749h10.389z"/><path d="m104.606 28.252c-.553 0-1 .447-1 1v8.361c0 .553.447 1 1 1s1-.447 1-1v-8.361c0-.553-.447-1-1-1z"/><path d="m55.233 54.089c1.066.901 1.855 2.14 2.282 3.579l.004.015c-.233.271-.379.62-.379 1.006v2.396c0 1.597.953 3.015 2.354 3.623.201.932 1.023 1.632 2.003 1.632h1.006c.979 0 1.802-.7 2.003-1.632 1.4-.608 2.354-2.026 2.354-3.623v-2.395c0-.386-.146-.735-.379-1.006l.039-.133c.407-1.377 1.166-2.559 2.195-3.417 2.481-2.07 3.904-5.132 3.904-8.4 0-5.887-4.687-10.752-10.446-10.847-.057-.001-.112-.001-.168-.001-2.725 0-5.324 1.081-7.334 3.056-2.086 2.048-3.285 4.881-3.29 7.771-.005 3.249 1.399 6.302 3.852 8.376zm9.626 5.057v.939h-5.719v-.939zm-1.506 3.841c-.466.095-.8.504-.8.979l-.05.374-1.056-.075v-.299c0-.476-.334-.885-.8-.979-.529-.108-.968-.447-1.234-.901h5.172c-.264.453-.703.792-1.232.901zm-7.281-23.62c1.667-1.637 3.842-2.504 6.067-2.481 4.676.076 8.479 4.045 8.479 8.847 0 2.674-1.161 5.176-3.186 6.865-1.333 1.111-2.313 2.628-2.832 4.385l-.048.163h-1.552v-8.216h2.957c.553 0 1-.447 1-1s-.447-1-1-1h-7.914c-.553 0-1 .447-1 1s.447 1 1 1h2.957v8.216h-1.553l-.013-.046c-.538-1.814-1.544-3.384-2.909-4.538-2.002-1.692-3.147-4.188-3.144-6.846.004-2.359.985-4.673 2.691-6.349z"/><path d="m48.815 45.168h-2.255c-.553 0-1 .447-1 1s.447 1 1 1h2.255c.553 0 1-.447 1-1s-.447-1-1-1z"/><path d="m75.185 47.168h2.255c.553 0 1-.447 1-1s-.447-1-1-1h-2.255c-.553 0-1 .447-1 1s.447 1 1 1z"/><path d="m51.963 37.322c.195.2.455.301.715.301.252 0 .505-.095.699-.285.395-.386.402-1.019.016-1.414l-1.596-1.633c-.385-.394-1.02-.401-1.414-.016s-.402 1.019-.016 1.414z"/><path d="m72.038 55.014c-.386-.396-1.019-.401-1.414-.018-.396.387-.403 1.02-.018 1.414l1.595 1.633c.196.201.456.302.716.302.252 0 .504-.095.698-.284.396-.387.403-1.02.018-1.414z"/><path d="m51.797 58.044 1.596-1.633c.387-.396.379-1.028-.016-1.414-.394-.386-1.028-.378-1.414.016l-1.596 1.633c-.387.396-.379 1.028.016 1.414.194.19.447.285.699.285.26 0 .52-.101.715-.301z"/><path d="m71.322 37.623c.26 0 .52-.101.716-.302l1.595-1.633c.386-.395.378-1.027-.018-1.414-.395-.384-1.027-.378-1.414.018l-1.595 1.633c-.386.395-.378 1.027.018 1.414.194.19.446.284.698.284z"/><path d="m62 33.67c.553 0 1-.447 1-1v-2.309c0-.553-.447-1-1-1s-1 .447-1 1v2.309c0 .553.447 1 1 1z"/><path d="m62 15.824c2.206 0 4-1.794 4-4s-1.794-4-4-4-4 1.794-4 4 1.794 4 4 4zm0-6c1.103 0 2 .897 2 2s-.897 2-2 2-2-.897-2-2 .897-2 2-2z"/><path d="m43.888 72.296h-5.288c-.755 0-1.367.612-1.367 1.367v5.288c0 .755.612 1.367 1.367 1.367h5.287c.755 0 1.367-.612 1.367-1.367v-5.288c.001-.755-.611-1.367-1.366-1.367z"/><path d="m43.888 83.841h-5.288c-.755 0-1.367.612-1.367 1.367v5.287c0 .755.612 1.367 1.367 1.367h5.287c.755 0 1.367-.612 1.367-1.367v-5.287c.001-.755-.611-1.367-1.366-1.367z"/><path d="m43.888 95.386h-5.288c-.755 0-1.367.612-1.367 1.367v5.288c0 .755.612 1.367 1.367 1.367h5.287c.755 0 1.367-.612 1.367-1.367v-5.288c.001-.755-.611-1.367-1.366-1.367z"/><path d="m50.99 79.318c0 .553.447 1 1 1h34.648c.553 0 1-.447 1-1s-.447-1-1-1h-34.648c-.552 0-1 .447-1 1z"/><path d="m86.639 89.863h-34.649c-.553 0-1 .447-1 1s.447 1 1 1h34.648c.553 0 1-.447 1-1s-.447-1-.999-1z"/><path d="m86.639 101.407h-34.649c-.553 0-1 .447-1 1s.447 1 1 1h34.648c.553 0 1-.447 1-1s-.447-1-.999-1z"/></g><path d="m41.167 78.739c-.41 0-.804-.168-1.088-.467l-3.167-3.334c-.57-.601-.546-1.55.055-2.121.6-.57 1.55-.548 2.121.055l2.02 2.127 5.752-6.734c.538-.629 1.483-.705 2.115-.166.63.538.704 1.485.166 2.115l-6.833 8c-.276.322-.676.514-1.101.524-.014.001-.027.001-.04.001z" fill="#fa759e"/><path d="m41.167 90.739c-.41 0-.804-.168-1.088-.467l-3.167-3.334c-.57-.601-.546-1.55.055-2.121.6-.57 1.55-.547 2.121.055l2.02 2.127 5.752-6.734c.538-.63 1.483-.704 2.115-.166.63.538.704 1.485.166 2.115l-6.833 8c-.276.322-.676.514-1.101.524-.014.001-.027.001-.04.001z" fill="#fa759e"/><path d="m41.167 101.739c-.41 0-.804-.168-1.088-.467l-3.167-3.334c-.57-.601-.546-1.55.055-2.121.6-.57 1.55-.548 2.121.055l2.02 2.127 5.752-6.734c.538-.629 1.483-.704 2.115-.166.63.538.704 1.485.166 2.115l-6.833 8c-.276.322-.676.514-1.101.524-.014.001-.027.001-.04.001z" fill="#fa759e"/></svg>