<svg id="Layer_1" enable-background="new 0 0 128 128" height="512" viewBox="0 0 128 128" width="512" xmlns="http://www.w3.org/2000/svg"><path d="m119.777 85.575-20.166-19.046c3.081-4.576 4.666-9.98 4.504-15.604-.203-7.119-3.166-13.732-8.344-18.623-5.176-4.89-11.946-7.463-19.067-7.269-7.119.203-13.732 3.167-18.622 8.344-2.829 2.995-4.827 6.479-6.003 10.165h-15.429v-1.102c0-2.872-2.336-5.208-5.208-5.208h-.405c-2.872 0-5.208 2.336-5.208 5.208v1.102h-9.478c-3.589 0-6.509 2.92-6.509 6.509v11.146 39.271c0 3.589 2.92 6.509 6.509 6.509h65.307c3.589 0 6.509-2.92 6.509-6.509v-24.371c1.886-.824 3.693-1.872 5.38-3.149l20.166 19.048c.852.804 1.942 1.203 3.031 1.203 1.173 0 2.344-.463 3.211-1.381h.001c1.67-1.771 1.59-4.571-.179-6.243z" fill="#e6e7e8"/><path d="m56.844 66.341c-7.23-6.829-9.607-16.86-7.025-25.799h-17.169v5.99c0 2.324-1.884 4.208-4.208 4.208h-.406c-2.324 0-4.208-1.884-4.208-4.208v-5.99h-10.477c-3.043 0-5.509 2.466-5.509 5.509v50.417c0 3.043 2.466 5.509 5.509 5.509h65.306c3.043 0 5.509-2.466 5.509-5.509v-25.027c-9.03 3.681-19.77 2.033-27.322-5.1z" fill="#fff"/><path d="m49.819 40.542h-17.169v5.99c0 2.324-1.884 4.208-4.208 4.208h-.406c-2.324 0-4.208-1.884-4.208-4.208v-5.99h-10.477c-3.043 0-5.509 2.466-5.509 5.509v11.146h42.788c-2.113-5.306-2.392-11.184-.811-16.655z" fill="#fa759e"/><path d="m28.442 34.232h-.406c-2.324 0-4.208 1.884-4.208 4.208v8.092c0 2.324 1.884 4.208 4.208 4.208h.406c2.324 0 4.208-1.884 4.208-4.208v-8.092c0-2.324-1.884-4.208-4.208-4.208z" fill="#ffd7e5"/><path d="m47.966 65.147 2.467 7.592c.276.85 1.068 1.425 1.961 1.425h7.982c1.998 0 2.828 2.556 1.212 3.73l-6.458 4.692c-.723.525-1.025 1.456-.749 2.305l2.467 7.592c.617 1.9-1.557 3.48-3.173 2.305l-6.458-4.692c-.723-.525-1.701-.525-2.424 0l-6.458 4.692c-1.616 1.174-3.79-.406-3.173-2.305l2.467-7.592c.276-.85-.026-1.78-.749-2.305l-6.458-4.692c-1.616-1.174-.786-3.73 1.212-3.73h7.982c.893 0 1.685-.575 1.961-1.425l2.467-7.592c.617-1.9 3.304-1.9 3.922 0z" fill="#fa759e"/><path d="m116.09 82.302-20.793-19.64c-.66.915-1.38 1.801-2.176 2.643s-1.639 1.612-2.515 2.323l20.793 19.64c1.371 1.295 3.533 1.234 4.828-.138s1.234-3.532-.137-4.828z" fill="#fa759e"/><ellipse cx="74.465" cy="47.685" fill="#0089ef" rx="25.662" ry="25.662" transform="matrix(.857 -.515 .515 .857 -13.922 45.124)"/><path d="m59.844 66.341c-10.303-9.732-10.767-25.974-1.035-36.277 4.684-4.959 10.875-7.631 17.187-7.992-7.314-.433-14.762 2.249-20.187 7.992-9.732 10.303-9.268 26.545 1.035 36.277 5.345 5.048 12.3 7.353 19.103 6.964-5.807-.345-11.543-2.657-16.103-6.964z" fill="#fff"/><circle cx="74.465" cy="47.685" fill="#d4fbff" r="18.556"/><g fill="#fa759e"><path d="m66.321 50.129h-.004c-.66 0-1.195.535-1.195 1.195v4.536h2.393v-4.536c.001-.66-.534-1.195-1.194-1.195z"/><path d="m69.72 47.892c-.66 0-1.195.535-1.195 1.195v6.773h2.389v-6.773c.001-.66-.534-1.195-1.194-1.195z"/><path d="m73.123 46.296h-.004c-.66 0-1.195.535-1.195 1.195v8.369h2.393v-8.37c.001-.659-.534-1.194-1.194-1.194z"/><path d="m79.902 46.17h-.004c-.66 0-1.195.535-1.195 1.195v8.495h2.393v-8.495c.001-.66-.534-1.195-1.194-1.195z"/><path d="m76.526 47.454h-.004c-.66 0-1.195.535-1.195 1.195v7.211h2.393v-7.211c.001-.66-.534-1.195-1.194-1.195z"/></g><path d="m26.235 56.197h-5.532c-.553 0-1 .448-1 1s.447 1 1 1h5.532c.553 0 1-.448 1-1s-.448-1-1-1z" fill="#3a2c60"/><path d="m116.777 81.575-20.169-19.05c7.11-10.604 5.747-25.151-3.834-34.223-5.165-4.891-11.948-7.467-19.052-7.269-7.12.203-13.739 3.166-18.64 8.343-2.788 2.946-4.823 6.412-6.023 10.166h-15.409v-1.102c0-2.872-2.336-5.208-5.208-5.208h-.405c-2.872 0-5.208 2.336-5.208 5.208v1.102h-9.477c-3.59 0-6.51 2.92-6.51 6.509v8.699 2.447 39.271c0 3.589 2.92 6.509 6.51 6.509h65.306c3.59 0 6.51-2.92 6.51-6.509v-24.353c1.905-.834 3.708-1.896 5.38-3.167l20.166 19.047c.852.805 1.941 1.204 3.03 1.204 1.173 0 2.344-.463 3.211-1.382 1.671-1.769 1.591-4.57-.178-6.242zm-60.242-50.824c4.533-4.79 10.656-7.531 17.243-7.718.241-.007.481-.011.722-.011 6.32 0 12.297 2.375 16.898 6.732 9.875 9.351 10.321 24.991.995 34.865-4.523 4.789-10.641 7.53-17.226 7.717-6.593.181-12.85-2.2-17.638-6.723-4.796-4.529-7.538-10.655-7.723-17.249-.183-6.58 2.207-12.835 6.729-17.613zm-31.707 7.689c0-1.769 1.439-3.208 3.208-3.208h.405c1.769 0 3.208 1.439 3.208 3.208v8.092c0 1.769-1.439 3.208-3.208 3.208h-.405c-1.769 0-3.208-1.439-3.208-3.208zm58.339 58.028c0 2.486-2.023 4.509-4.51 4.509h-65.305c-2.486 0-4.51-2.022-4.51-4.509v-38.271h6.499c.553 0 1-.448 1-1s-.447-1-1-1h-6.499v-1.447-8.699c0-2.486 2.023-4.509 4.51-4.509h9.477v4.99c0 2.872 2.336 5.208 5.208 5.208h.405c2.872 0 5.208-2.336 5.208-5.208v-4.99h14.859c-.523 2.226-.766 4.532-.7 6.879.075 2.685.543 5.299 1.374 7.775h-17.374c-.553 0-1 .448-1 1s.447 1 1 1h18.144c1.419 3.308 3.508 6.325 6.205 8.871 4.987 4.711 11.455 7.279 18.288 7.279.259 0 .52-.003.779-.011 2.747-.078 5.416-.572 7.942-1.441zm32.334-10.024c-.915.968-2.448 1.01-3.415.097l-19.979-18.87c.6-.532 1.182-1.089 1.739-1.679.56-.592 1.081-1.207 1.576-1.835l19.981 18.872c.968.915 1.012 2.447.098 3.415z" fill="#3a2c60"/><path d="m74.459 67.231c5.195 0 10.382-2.053 14.222-6.119 3.587-3.797 5.48-8.764 5.332-13.986-.149-5.221-2.322-10.072-6.12-13.659s-8.787-5.5-13.985-5.331c-5.222.149-10.072 2.322-13.659 6.12-7.405 7.839-7.051 20.24.788 27.645 3.773 3.564 8.601 5.331 13.422 5.33zm-12.758-31.601c3.221-3.409 7.575-5.36 12.263-5.494.172-.005.343-.007.514-.007 4.498 0 8.758 1.691 12.042 4.793 3.409 3.22 5.36 7.574 5.494 12.262.133 4.688-1.566 9.146-4.786 12.556-6.647 7.036-17.78 7.354-24.818.708-3.409-3.22-5.36-7.575-5.494-12.262-.134-4.688 1.566-9.147 4.785-12.556z" fill="#3a2c60"/><path d="m86.279 57.935c.573 0 1.038-.464 1.038-1.038s-.465-1.038-1.038-1.038h-22.591v-5.29l3.209-1.828 3.326-2.343 2.847-1.334 2.947 1.729c.314.185.702.184 1.015-.001l6.08-3.629-.152 1.28c-.064.548.327 1.046.876 1.111.039.004.079.007.118.007.5 0 .932-.374.992-.882l.391-3.297c.007-.063-.002-.124-.007-.186-.002-.031.002-.061-.003-.092-.019-.118-.059-.229-.118-.332-.004-.007-.004-.015-.008-.022-.012-.02-.031-.03-.044-.048-.052-.075-.112-.142-.184-.201-.032-.026-.063-.049-.097-.07-.026-.017-.046-.04-.074-.054l-2.483-1.28c-.49-.253-1.095-.06-1.347.431-.253.491-.061 1.094.431 1.347l.884.455-5.763 3.443-2.895-1.698c-.285-.167-.632-.182-.93-.043l-3.403 1.595c-.053.024-.103.054-.15.087l-3.317 2.342-2.139 1.215v-9.797c0-.573-.465-1.038-1.038-1.038s-1.038.464-1.038 1.038v18.425c0 .573.465 1.038 1.038 1.038h23.627z" fill="#3a2c60"/></svg>