<svg id="Layer_1" enable-background="new 0 0 128 128" height="512" viewBox="0 0 128 128" width="512" xmlns="http://www.w3.org/2000/svg"><path d="m111.034 26.065h-13.61v-1.931c0-3.787-3.081-6.867-6.868-6.867h-.566c-3.787 0-6.867 3.081-6.867 6.867v1.931h-35.246v-1.931c0-3.787-3.081-6.867-6.867-6.867h-.566c-3.787 0-6.868 3.081-6.868 6.867v1.931h-13.61c-4.787 0-8.682 3.895-8.682 8.682v15.543 54.762c0 4.787 3.895 8.682 8.682 8.682h91.067c4.787 0 8.682-3.895 8.682-8.682v-54.762-15.543c.001-4.787-3.894-8.682-8.681-8.682z" fill="#e6e7e8"/><path d="m9.284 102.052c0 4.243 3.439 7.682 7.682 7.682h91.067c4.243 0 7.682-3.439 7.682-7.682v-54.763h-106.431z" fill="#fff"/><path d="m108.033 24.065h-14.61v8.353c0 3.24-2.627 5.867-5.867 5.867h-.566c-3.24 0-5.867-2.627-5.867-5.867v-8.353h-37.246v8.353c0 3.24-2.627 5.867-5.867 5.867h-.566c-3.24 0-5.867-2.627-5.867-5.867v-8.353h-14.61c-4.243 0-7.682 3.439-7.682 7.682v15.542h106.431v-15.542c0-4.243-3.44-7.682-7.683-7.682z" fill="#fff"/><path d="m108.033 27.065h-14.61v5.353c0 3.24-2.627 5.867-5.867 5.867h-.566c-3.24 0-5.867-2.627-5.867-5.867v-5.353h-37.246v5.353c0 3.24-2.627 5.867-5.867 5.867h-.566c-3.24 0-5.867-2.627-5.867-5.867v-5.353h-14.61c-4.243 0-7.682 3.439-7.682 7.682v12.542h106.431v-12.542c0-4.243-3.44-7.682-7.683-7.682z" fill="#fa759e"/><path d="m38.01 15.266h-.566c-3.24 0-5.867 2.627-5.867 5.867v11.284c0 3.24 2.627 5.867 5.867 5.867h.566c3.24 0 5.867-2.627 5.867-5.867v-11.283c0-3.241-2.627-5.868-5.867-5.868z" fill="#ffd7e5"/><path d="m87.556 15.266h-.566c-3.24 0-5.867 2.627-5.867 5.867v11.284c0 3.24 2.627 5.867 5.867 5.867h.566c3.24 0 5.867-2.627 5.867-5.867v-11.283c.001-3.241-2.626-5.868-5.867-5.868z" fill="#ffd7e5"/><path d="m39.68 64.134h-21.14c-2.193 0-3.97 1.777-3.97 3.97v21.14c0 2.193 1.777 3.97 3.97 3.97h21.14c2.193 0 3.97-1.777 3.97-3.97v-21.14c0-2.192-1.777-3.97-3.97-3.97z" fill="#0089ef"/><path d="m35.442 80.356h-12.443c-1.105 0-2 .895-2 2v5.214c0 1.105.895 2 2 2h12.443c1.105 0 2-.895 2-2v-5.214c0-1.105-.895-2-2-2z" fill="#fff"/><path d="m28.245 72.632c-.39 0-.706.316-.706.706v6.395h3.363v-6.395c0-.39-.316-.706-.706-.706z" fill="#fff"/><path d="m29.221 71.895c1.013 0 1.834-.821 1.834-1.834s-1.834-3.459-1.834-3.459-1.835 2.445-1.835 3.459c0 1.013.822 1.834 1.835 1.834z" fill="#fff"/><path d="m72.999 64.134h-21.14c-2.193 0-3.97 1.777-3.97 3.97v21.14c0 2.193 1.777 3.97 3.97 3.97h21.14c2.193 0 3.97-1.777 3.97-3.97v-21.14c0-2.192-1.778-3.97-3.97-3.97z" fill="#0089ef"/><path d="m106.317 64.134h-21.14c-2.193 0-3.97 1.777-3.97 3.97v21.14c0 2.193 1.777 3.97 3.97 3.97h21.14c2.193 0 3.97-1.777 3.97-3.97v-21.14c0-2.192-1.777-3.97-3.97-3.97z" fill="#0089ef"/><g fill="#3a2c60"><path d="m59.138 48.29h7.934c.552 0 1-.448 1-1s-.448-1-1-1h-7.934c-.552 0-1 .448-1 1s.448 1 1 1z"/><path d="m108.033 23.065h-13.609v-1.931c0-3.787-3.081-6.867-6.868-6.867h-.566c-3.787 0-6.867 3.081-6.867 6.867v1.931h-35.246v-1.931c0-3.787-3.081-6.867-6.868-6.867h-.565c-3.787 0-6.868 3.081-6.868 6.867v1.931h-13.61c-4.787 0-8.682 3.895-8.682 8.682v12.086 3.456 54.762c0 4.787 3.895 8.682 8.682 8.682h91.067c4.787 0 8.682-3.895 8.682-8.682v-54.761-3.456-12.087c0-4.787-3.895-8.682-8.682-8.682zm-25.91-1.931c0-2.684 2.184-4.867 4.867-4.867h.566c2.684 0 4.868 2.184 4.868 4.867v11.284c0 2.684-2.184 4.868-4.868 4.868h-.566c-2.684 0-4.867-2.184-4.867-4.868zm-49.547 0c0-2.684 2.184-4.867 4.868-4.867h.565c2.684 0 4.868 2.184 4.868 4.867v11.284c0 2.684-2.184 4.868-4.868 4.868h-.565c-2.684 0-4.868-2.184-4.868-4.868zm82.139 25.156h-42.746c-.552 0-1 .448-1 1s.448 1 1 1h42.747v53.762c0 3.685-2.998 6.682-6.682 6.682h-91.068c-3.685 0-6.682-2.998-6.682-6.682v-53.762h43.366c.552 0 1-.448 1-1s-.448-1-1-1h-43.366v-2.456-12.087c0-3.685 2.998-6.682 6.682-6.682h13.61v7.353c0 3.787 3.081 6.868 6.868 6.868h.565c3.787 0 6.868-3.081 6.868-6.868v-7.353h35.246v7.353c0 3.787 3.081 6.868 6.867 6.868h.566c3.787 0 6.868-3.081 6.868-6.868v-7.353h13.609c3.685 0 6.682 2.998 6.682 6.682v12.086z"/><path d="m39.68 63.134h-21.14c-2.741 0-4.97 2.229-4.97 4.97v21.14c0 2.741 2.229 4.97 4.97 4.97h21.14c2.741 0 4.97-2.229 4.97-4.97v-21.14c0-2.74-2.229-4.97-4.97-4.97zm2.97 26.11c0 1.638-1.333 2.97-2.97 2.97h-21.14c-1.638 0-2.97-1.333-2.97-2.97v-21.14c0-1.638 1.333-2.97 2.97-2.97h21.14c1.638 0 2.97 1.332 2.97 2.97z"/><path d="m46.889 68.104v21.14c0 2.741 2.229 4.97 4.97 4.97h21.14c2.741 0 4.97-2.229 4.97-4.97v-21.14c0-2.74-2.229-4.97-4.97-4.97h-21.14c-2.741 0-4.97 2.23-4.97 4.97zm29.08 0v21.14c0 1.638-1.333 2.97-2.97 2.97h-21.14c-1.638 0-2.97-1.333-2.97-2.97v-21.14c0-1.638 1.332-2.97 2.97-2.97h21.14c1.637 0 2.97 1.332 2.97 2.97z"/><path d="m85.177 94.214h21.14c2.741 0 4.97-2.229 4.97-4.97v-21.14c0-2.74-2.229-4.97-4.97-4.97h-21.14c-2.74 0-4.97 2.229-4.97 4.97v21.14c0 2.741 2.23 4.97 4.97 4.97zm-2.97-26.11c0-1.638 1.332-2.97 2.97-2.97h21.14c1.638 0 2.97 1.332 2.97 2.97v21.14c0 1.638-1.333 2.97-2.97 2.97h-21.14c-1.638 0-2.97-1.333-2.97-2.97z"/></g><path d="m103.3 75.078h-3.937v-1.378c0-1.037-.843-1.88-1.881-1.88h-3.821c-1.037 0-1.88.844-1.88 1.88v1.378h-3.937c-.912 0-1.651.739-1.651 1.651v8.742c0 .912.739 1.651 1.651 1.651h15.456c.912 0 1.651-.739 1.651-1.651v-8.742c0-.912-.739-1.651-1.651-1.651zm-5.276 5.93h-4.903v-1.537h4.903zm.275-5.93h-5.454v-1.378c0-.45.366-.816.816-.816h3.821c.45 0 .817.366.817.816z" fill="#fff"/><path d="m69.903 71.482h-5.43l2.715 2.714z" fill="#fff"/><path d="m74.293 81.203c-.178-2.735-1.899-5.208-4.408-6.314-1.597-.704-3.439-.813-5.11-.312-.74-1.533-2.002-2.823-3.678-3.562-3.741-1.649-8.126.053-9.775 3.794s.053 8.126 3.794 9.775c1.681.741 3.49.8 5.125.307.862 1.772 2.408 3.185 4.323 3.821 2.292.761 4.871.328 6.799-1.124 1.97-1.483 3.09-3.924 2.93-6.385zm-14.753 1.325c.031.259.08.514.137.766-1.241.356-2.607.298-3.878-.262-2.885-1.272-4.198-4.654-2.926-7.539s4.654-4.198 7.539-2.926c1.27.56 2.209 1.541 2.783 2.696-2.535 1.459-4 4.354-3.655 7.265zm1.718.035c-.206-1.304.042-2.66.716-3.798.333-.562.756-1.061 1.259-1.479.113-.094.493-.365.515-.381.168 1.05.05 2.157-.409 3.2-.459 1.042-1.195 1.874-2.081 2.458zm10.452 2.195c-1.158 1.81-3.308 2.834-5.443 2.6-1.939-.213-3.619-1.439-4.476-3.137 1.328-.76 2.437-1.927 3.1-3.43.687-1.558.785-3.226.404-4.764.012.05.032.098.043.148 2.426-.693 5.09.343 6.415 2.485 1.147 1.855 1.134 4.258-.043 6.098z" fill="#fff"/></svg>