<svg id="Layer_1" enable-background="new 0 0 128 128" height="512" viewBox="0 0 128 128" width="512" xmlns="http://www.w3.org/2000/svg"><path d="m119.024 73.237c0-9.157-6.439-16.826-15.023-18.751v-9.092-13.001c0-4.095-3.331-7.426-7.425-7.426h-11.221v-1.451c0-3.258-2.65-5.908-5.908-5.908h-.473c-3.258 0-5.908 2.65-5.908 5.908v1.451h-29.155v-1.451c0-3.258-2.65-5.908-5.908-5.908h-.474c-3.257 0-5.907 2.65-5.907 5.908v1.451h-11.22c-4.095 0-7.426 3.331-7.426 7.426v13.001 45.806c0 4.095 3.331 7.426 7.426 7.426h70.809c1.749 3.004 3.429 5.734 4.775 7.868-4.88.243-12.631 1.074-12.631 3.899 0 3.888 14.682 4 16.355 4s16.355-.112 16.355-4c0-2.794-7.584-3.638-12.472-3.892 4.94-7.833 14.358-23.655 15.343-31.911.06-.521.088-.95.088-1.353z" fill="#e6e7e8"/><path d="m77.555 69.238c0-10.071 8.164-18.234 18.234-18.234 1.098 0 2.167.114 3.212.3v-9.911h-89.025v45.806c0 3.549 2.877 6.426 6.426 6.426h71.392c-4.9-8.466-10.239-18.937-10.239-24.387z" fill="#fff"/><path d="m95.789 51.004c-10.07 0-18.234 8.164-18.234 18.234s18.234 37.302 18.234 37.302 18.234-27.232 18.234-37.302c0-10.071-8.164-18.234-18.234-18.234z" fill="#fff"/><path d="m92.575 21.967h-12.22v6.986c0 2.711-2.197 4.908-4.908 4.908h-.473c-2.711 0-4.908-2.197-4.908-4.908v-6.986h-31.155v6.986c0 2.711-2.197 4.908-4.908 4.908h-.473c-2.71 0-4.908-2.197-4.908-4.908v-6.986h-12.22c-3.549 0-6.426 2.877-6.426 6.426v13h89.025v-13c0-3.549-2.877-6.426-6.426-6.426z" fill="#fa759e"/><path d="m34.003 14.607h-.473c-2.71 0-4.908 2.197-4.908 4.908v9.438c0 2.711 2.197 4.908 4.908 4.908h.473c2.71 0 4.908-2.197 4.908-4.908v-9.438c0-2.71-2.197-4.908-4.908-4.908z" fill="#ffd7e5"/><path d="m75.447 14.607h-.473c-2.711 0-4.908 2.197-4.908 4.908v9.438c0 2.711 2.197 4.908 4.908 4.908h.473c2.711 0 4.908-2.197 4.908-4.908v-9.438c-.001-2.71-2.198-4.908-4.908-4.908z" fill="#ffd7e5"/><path d="m56.776 50.666 2.877 8.855c.322.991 1.245 1.662 2.287 1.662h9.311c2.33 0 3.299 2.981 1.414 4.351l-7.532 5.473c-.843.612-1.196 1.698-.874 2.689l2.877 8.855c.72 2.216-1.816 4.059-3.701 2.689l-7.532-5.473c-.843-.612-1.984-.612-2.827 0l-7.532 5.473c-1.885 1.37-4.421-.473-3.701-2.689l2.877-8.855c.322-.991-.031-2.077-.874-2.689l-7.532-5.473c-1.885-1.37-.916-4.351 1.414-4.351h9.311c1.042 0 1.965-.671 2.287-1.662l2.877-8.855c.718-2.216 3.853-2.216 4.573 0z" fill="#fa759e"/><path d="m97.818 103.424c-1.24 1.941-2.024 3.114-2.024 3.114s-.786-1.174-2.029-3.119c-7.56.187-13.411 1.446-13.411 2.973 0 1.657 6.875 3 15.355 3s15.355-1.343 15.355-3c.001-1.516-5.766-2.767-13.246-2.968z" fill="#6dc9f7"/><path d="m95.789 51.004c-10.07 0-18.234 8.164-18.234 18.234s18.234 37.302 18.234 37.302 18.234-27.232 18.234-37.302c0-10.071-8.164-18.234-18.234-18.234z" fill="#fff"/><path d="m113.944 70.478c-1.3 10.89-18.15 36.06-18.15 36.06s-16.86-25.17-18.16-36.06c.89-9.25 8.68-16.47 18.16-16.47 9.47 0 17.26 7.22 18.15 16.47z" fill="#0089ef"/><path d="m95.789 57.813c-6.389 0-11.567 5.179-11.567 11.568 0 6.388 5.179 11.567 11.567 11.567s11.567-5.179 11.567-11.567c0-6.389-5.179-11.568-11.567-11.568z" fill="#d4fbff"/><g fill="#3a2c60"><path d="m36.273 92.625h-7.651c-.553 0-1 .447-1 1s.447 1 1 1h7.651c.553 0 1-.447 1-1s-.447-1-1-1z"/><path d="m115.023 69.237c0-9.157-6.438-16.826-15.022-18.751v-9.092-1.894-11.107c0-4.095-3.331-7.426-7.426-7.426h-11.221v-1.451c0-3.258-2.65-5.908-5.907-5.908h-.474c-3.258 0-5.908 2.65-5.908 5.908v1.451h-29.154v-1.451c0-3.258-2.65-5.908-5.907-5.908h-.474c-3.258 0-5.908 2.65-5.908 5.908v1.451h-11.22c-4.095 0-7.426 3.331-7.426 7.426v11.107 1.894 45.806c0 4.095 3.331 7.426 7.426 7.426h7.703c.553 0 1-.447 1-1s-.447-1-1-1h-7.703c-2.992 0-5.426-2.434-5.426-5.426v-44.806h87.024v7.751c-.725-.083-1.46-.137-2.207-.137-10.609 0-19.24 8.626-19.24 19.229 0 .401.027.831.087 1.358.658 5.511 5.081 14.4 9.418 22.029h-45.12c-.553 0-1 .447-1 1s.447 1 1 1h46.272c1.75 3.004 3.43 5.735 4.776 7.869-4.879.243-12.633 1.072-12.633 3.899 0 3.888 14.682 4 16.355 4s16.355-.112 16.355-4c0-2.796-7.585-3.637-12.472-3.891 4.94-7.832 14.358-23.655 15.343-31.91.061-.505.089-.947.089-1.354zm-43.958-49.721c0-2.155 1.753-3.908 3.908-3.908h.474c2.154 0 3.907 1.753 3.907 3.908v9.438c0 2.155-1.753 3.908-3.907 3.908h-.474c-2.155 0-3.908-1.753-3.908-3.908zm-41.443 0c0-2.155 1.753-3.908 3.908-3.908h.474c2.154 0 3.907 1.753 3.907 3.908v9.438c0 2.155-1.753 3.908-3.907 3.908h-.474c-2.155 0-3.908-1.753-3.908-3.908zm-18.646 20.878v-.894-11.107c0-2.992 2.434-5.426 5.426-5.426h11.22v5.986c0 3.258 2.65 5.908 5.908 5.908h.474c3.257 0 5.907-2.65 5.907-5.908v-5.986h29.154v5.986c0 3.258 2.65 5.908 5.908 5.908h.474c3.257 0 5.907-2.65 5.907-5.908v-5.986h11.221c2.992 0 5.426 2.434 5.426 5.426v11.107.894zm98.959 65.999c-1.027.762-5.828 2-14.226 2s-13.198-1.238-14.226-2c.921-.683 4.882-1.745 11.74-1.959.97 1.507 1.613 2.472 1.739 2.66.186.277.498.443.831.443.334 0 .646-.166.831-.443.126-.188.768-1.151 1.735-2.656 6.76.225 10.663 1.277 11.576 1.955zm3.015-36.034c-1.093 9.155-13.763 29.14-17.156 34.356-3.396-5.217-16.074-25.198-17.166-34.351-.051-.445-.074-.804-.074-1.128 0-9.5 7.734-17.229 17.24-17.229 9.5 0 17.229 7.729 17.229 17.229 0 .329-.024.698-.073 1.123z"/><path d="m95.789 56.813c-6.93 0-12.567 5.638-12.567 12.567s5.638 12.567 12.567 12.567 12.567-5.638 12.567-12.567-5.637-12.567-12.567-12.567zm0 23.135c-5.827 0-10.567-4.74-10.567-10.567s4.74-10.567 10.567-10.567 10.567 4.74 10.567 10.567-4.74 10.567-10.567 10.567z"/></g></svg>