<svg id="Layer_1" enable-background="new 0 0 128 128" height="512" viewBox="0 0 128 128" width="512" xmlns="http://www.w3.org/2000/svg"><path d="m121.81 91.056c.064-.362.103-.733.103-1.113v-14.842c0-1.81-.733-3.581-2.013-4.858l-15.607-15.607c-1.215-1.215-2.829-1.884-4.547-1.884h-14.298c-.822 0-1.584.245-2.234.653v-.795c1.703-.115 3.058-1.522 3.058-3.254v-5.589c0-1.807-1.47-3.276-3.276-3.276h-12.9c1.391-.812 2.522-2.038 3.216-3.548 1.116-2.425.946-5.229-.453-7.5-1.284-2.087-3.416-3.447-5.851-3.733-2.432-.286-4.824.546-6.556 2.277l-2.546 2.546c-.131-1.08-.56-2.114-1.263-2.99-1.131-1.407-2.815-2.215-4.621-2.215s-3.49.808-4.621 2.215c-.703.875-1.132 1.91-1.263 2.99l-2.546-2.546c-1.734-1.734-4.124-2.562-6.557-2.277-2.434.286-4.566 1.646-5.85 3.732-1.399 2.272-1.568 5.076-.453 7.501.695 1.51 1.826 2.737 3.217 3.548h-12.898c-1.807 0-3.277 1.47-3.277 3.276v5.589c0 1.807 1.47 3.276 3.277 3.276h.178v1.644h-12.393c-1.564-.001-2.836 1.272-2.836 2.836s1.272 2.837 2.836 2.837h12.393v9.02h-12.393c-1.564 0-2.836 1.272-2.836 2.836s1.272 2.837 2.836 2.837h12.393v8.101h-12.393c-1.564-.001-2.836 1.272-2.836 2.836s1.272 2.837 2.836 2.837h12.393v2.65c-2.298.292-4.086 2.238-4.086 4.614 0 2.577 2.097 4.674 4.673 4.674h13.678c1.479 3.697 5.091 6.319 9.31 6.319 5.531 0 10.03-4.499 10.03-10.029 0-.098-.012-.193-.015-.29h3.181 22.018c1.001 0 1.885-.472 2.472-1.195.764.749 1.807 1.214 2.959 1.214h2.874c-.002.091-.014.179-.014.271 0 5.53 4.5 10.029 10.03 10.029 4.219 0 7.831-2.622 9.31-6.319h13.679c2.576 0 4.673-2.097 4.673-4.674-.001-2.411-1.844-4.379-4.191-4.624zm-81.603-53.964-2.724-.431c-1.266-.199-2.215-1.089-2.539-2.381-.109-.437-.111-.895-.004-1.325.329-1.328 1.351-2.249 2.668-2.403.122-.015.243-.021.364-.021.818 0 1.59.321 2.173.903l5.855 5.854c-1.928.172-3.87.107-5.793-.196zm10.79-5.612c-.069-.313.006-.636.206-.886.201-.249.5-.393.82-.393s.619.144.819.393c.201.25.276.572.207.886l-.467 2.111c-.181-.037-.367-.057-.559-.057-.191 0-.378.02-.559.057zm7.048 5.808 5.854-5.854c.899-.898 2.209-1.147 3.419-.653.41.169.784.442 1.08.792.8.945.992 2.167.514 3.269-.418.961-1.391 1.67-2.541 1.852l-2.532.398c-1.923.303-3.865.368-5.794.196z" fill="#e6e7e8"/><path d="m102.077 88.007h14.424c.262-.636.408-1.331.408-2.06v-14.85c0-1.55-.61-3.05-1.72-4.15l-14.29-14.29-1.31-1.32c-1.02-1.01-2.4-1.59-3.84-1.59h-14.3c-1.79 0-3.24 1.45-3.24 3.24v35.15c0 1.79 1.45 3.24 3.24 3.24h3.958c.617-4.386 4.375-7.763 8.931-7.763 3.326 0 6.221 1.804 7.784 4.483-.016-.03-.028-.061-.045-.09z" fill="#fa759e"/><path d="m111.703 72.173c0 .85.02 1.085-1.896 1.085h-21.7c-1.567 0-2.849-1.282-2.849-2.849v-13.652c0-1.567 1.282-2.849 2.849-2.849h5.287c1.469 0 2.878.584 3.916 1.622l12.803 12.803c1.018 1.019 1.59 2.4 1.59 3.84z" fill="#6dc9f7"/><path d="m100.745 73.259h-6.05l-6.295-19.35h5.96c.032 0 .065 0 .097.006z" fill="#d4fbff"/><path d="m104.782 73.259h-3.025l-6.211-19.124c.4.161.774.406 1.084.716l3.212 3.212z" fill="#d4fbff"/><path d="m18.229 47.628v3.647h8.483c1.014 0 1.837.822 1.837 1.836s-.822 1.837-1.837 1.837h-8.483v11.019h4.809c1.014 0 1.837.822 1.837 1.837 0 1.014-.822 1.836-1.837 1.836h-4.809v10.101h.218c1.014 0 1.837.822 1.837 1.837 0 1.014-.822 1.836-1.837 1.836h-.218v4.592h14.836c1.579-2.629 4.449-4.394 7.738-4.394.007 0 .014 0 .021.001v-35.985z" fill="#0089ef"/><path d="m55.219 47.628v42.505c0 .674-.546 1.22-1.22 1.22h22.018c1.213 0 2.196-.983 2.196-2.196v-41.529z" fill="#0089ef"/><path d="m31.774 92.643c0-1.697.477-3.28 1.292-4.636h-15.25c-2.02 0-3.673 1.653-3.673 3.673s1.653 3.673 3.673 3.673h14.373c-.269-.855-.415-1.765-.415-2.71z" fill="#d4fbff"/><path d="m117.327 88.007h-15.25c.815 1.356 1.292 2.939 1.292 4.636 0 .945-.146 1.854-.415 2.71h14.373c2.02 0 3.673-1.653 3.673-3.673s-1.653-3.673-3.673-3.673z" fill="#d4fbff"/><path d="m23.039 65.968h-18.203c-1.014 0-1.836.823-1.836 1.837s.822 1.836 1.837 1.836h18.202c1.014 0 1.837-.822 1.837-1.836-.001-1.014-.823-1.837-1.837-1.837z" fill="#ffd7e5"/><path d="m18.447 79.742h-13.611c-1.014 0-1.836.823-1.836 1.837s.822 1.836 1.837 1.836h13.611c1.014 0 1.837-.822 1.837-1.836-.001-1.014-.824-1.837-1.838-1.837z" fill="#ffd7e5"/><path d="m26.712 51.276h-21.876c-1.014 0-1.836.822-1.836 1.836s.822 1.837 1.837 1.837h21.875c1.014 0 1.837-.822 1.837-1.837-.001-1.014-.823-1.836-1.837-1.836z" fill="#ffd7e5"/><path d="m40.825 37.488h-23.773c-1.26 0-2.28 1.02-2.28 2.28v5.59c0 1.25 1.02 2.27 2.28 2.27h23.773z" fill="#fff"/><path d="m78.992 37.488h-23.773v10.14h23.773c1.26 0 2.28-1.02 2.28-2.27v-5.59c0-1.26-1.02-2.28-2.28-2.28z" fill="#fff"/><path d="m40.825 40.488h-23.773c-1.26 0-2.28 1.02-2.28 2.28v2.59c0 1.25 1.02 2.27 2.28 2.27h23.773z" fill="#6dc9f7"/><path d="m78.992 40.488h-23.773v7.14h23.773c1.26 0 2.28-1.02 2.28-2.27v-2.59c0-1.26-1.02-2.28-2.28-2.28z" fill="#6dc9f7"/><g fill="#fa759e"><path d="m51.864 24.168c-.94-1.17-2.34-1.842-3.841-1.842s-2.901.671-3.841 1.842-1.293 2.683-.969 4.149l.2.903 2.838 2.838c.061-.391.242-.741.512-1.006l-.742-3.355c-.135-.61.012-1.24.403-1.727s.974-.767 1.599-.767 1.208.279 1.599.767c.391.487.538 1.117.403 1.727l-.742 3.355c.27.265.451.615.512 1.006l2.838-2.838.2-.903c.324-1.466-.029-2.978-.969-4.149z"/><path d="m49.824 34.531h4.175c.674 0 1.22.546 1.22 1.22v1.737h1.62l6.326-.998c2.305-.364 4.263-1.846 5.239-3.966.975-2.12.827-4.571-.396-6.557-1.123-1.825-2.987-3.015-5.115-3.265-2.126-.248-4.217.476-5.733 1.991l-7.364 7.364c.014.092.028.184.028.279zm9.369-7.805c1.16-1.16 2.894-1.532 4.506-.871.564.231 1.069.606 1.463 1.071 1.062 1.256 1.295 2.87.668 4.313-.578 1.33-1.87 2.215-3.302 2.441l-2.533.399c-2.682.423-5.415.401-8.089-.064z"/><path d="m32.88 36.49 6.326.998h1.619v-1.737c0-.674.546-1.22 1.22-1.22h4.176v-2.195c0-.096.014-.188.028-.279l-7.364-7.364c-1.516-1.516-3.605-2.242-5.733-1.991-2.128.25-3.992 1.44-5.115 3.264-1.223 1.987-1.372 4.438-.396 6.558.975 2.12 2.934 3.602 5.239 3.966zm-2.911-7.775c.437-1.761 1.837-2.959 3.519-3.156.162-.019.324-.028.484-.028 1.077 0 2.107.423 2.881 1.196l7.288 7.288c-2.675.466-5.408.488-8.09.064l-2.724-.43c-1.644-.259-2.927-1.426-3.354-3.125-.147-.59-.151-1.218-.004-1.809z"/><path d="m49.824 34.531v-2.195c0-.995-.806-1.801-1.801-1.801s-1.801.806-1.801 1.801v2.195z"/><path d="m53.999 34.531h-11.954c-.674 0-1.22.546-1.22 1.22v47.863c4.538.011 8.28 3.372 8.906 7.739h4.268c.674 0 1.22-.546 1.22-1.22v-54.382c0-.674-.546-1.22-1.22-1.22z"/></g><path d="m40.804 83.613c-4.987 0-9.03 4.043-9.03 9.03s4.043 9.03 9.03 9.03 9.03-4.043 9.03-9.03-4.043-9.03-9.03-9.03z" fill="#0089ef"/><circle cx="40.804" cy="92.643" fill="#ffd7e5" r="2.58"/><path d="m94.339 83.613c-4.987 0-9.03 4.043-9.03 9.03s4.043 9.03 9.03 9.03 9.03-4.043 9.03-9.03-4.043-9.03-9.03-9.03z" fill="#0089ef"/><circle cx="94.339" cy="92.643" fill="#ffd7e5" r="2.58"/><path d="m112.703 72.173c0-1.693-.687-3.351-1.884-4.546l-12.801-12.803c-1.234-1.235-2.877-1.915-4.624-1.915h-5.287c-2.122 0-3.849 1.727-3.849 3.849v13.652c0 2.122 1.727 3.849 3.85 3.849h21.699c1.067 0 1.737-.063 2.223-.393.674-.46.674-1.158.674-1.668v-.025zm-2 .025v.028c-.172.018-.449.032-.896.032h-21.7c-1.02 0-1.85-.829-1.85-1.849v-13.651c0-1.02.829-1.849 1.849-1.849h5.287c1.213 0 2.353.472 3.21 1.329l12.802 12.803c.825.824 1.298 1.966 1.298 3.132z" fill="#3a2c60"/><path d="m68.667 90.354h-4.417c-.552 0-1 .447-1 1s.448 1 1 1h4.417c.553 0 1-.447 1-1s-.447-1-1-1z" fill="#3a2c60"/><path d="m117.81 87.056c.065-.362.103-.733.103-1.113v-14.842c0-1.81-.733-3.581-2.013-4.858l-15.607-15.607c-1.215-1.215-2.829-1.884-4.547-1.884h-14.298c-.83 0-1.585.265-2.234.682v-.824c1.703-.115 3.058-1.522 3.058-3.254v-5.589c0-1.807-1.47-3.276-3.276-3.276h-12.9c1.391-.812 2.522-2.038 3.216-3.548 1.116-2.425.946-5.229-.453-7.5-1.284-2.087-3.416-3.447-5.851-3.733-2.432-.286-4.824.546-6.556 2.277l-2.554 2.554c-.129-1.083-.551-2.12-1.255-2.998-1.131-1.407-2.815-2.215-4.621-2.215s-3.49.808-4.621 2.215c-.704.877-1.126 1.915-1.255 2.999l-2.554-2.554c-1.734-1.734-4.124-2.562-6.557-2.277-2.434.286-4.566 1.646-5.85 3.732-1.399 2.272-1.568 5.076-.453 7.501.695 1.51 1.826 2.737 3.217 3.548h-12.898c-1.807 0-3.277 1.47-3.277 3.276v5.589c0 1.807 1.47 3.276 3.277 3.276h.178v1.644h-12.393c-1.564-.002-2.836 1.271-2.836 2.835s1.272 2.837 2.836 2.837h12.393v9.02h-12.393c-1.564 0-2.836 1.272-2.836 2.836s1.272 2.837 2.836 2.837h12.393v8.101h-12.393c-1.564-.001-2.836 1.272-2.836 2.836s1.272 2.837 2.836 2.837h12.393v2.65c-2.298.292-4.086 2.238-4.086 4.614 0 2.577 2.097 4.674 4.673 4.674h13.678c1.479 3.697 5.091 6.319 9.31 6.319 5.531 0 10.03-4.499 10.03-10.029 0-.098-.012-.193-.015-.29h3.181 6.417c.552 0 1-.447 1-1s-.448-1-1-1h-4.22c.007-.074.022-.145.022-.221v-41.501h20.995v40.525c0 .659-.537 1.196-1.196 1.196h-3.601c-.553 0-1 .447-1 1s.447 1 1 1h3.601c1.004 0 1.891-.475 2.477-1.202.761.752 1.8 1.221 2.953 1.221h2.874c-.002.091-.014.179-.014.271 0 5.53 4.5 10.029 10.03 10.029 4.219 0 7.831-2.622 9.31-6.319h13.679c2.576 0 4.673-2.097 4.673-4.674 0-2.41-1.843-4.378-4.19-4.623zm-37.539-47.289v5.589c0 .704-.572 1.276-1.276 1.276h-.762c-.007 0-.013-.004-.019-.004h-21.995v-8.138h22.776c.704 0 1.276.573 1.276 1.277zm-26.226-6.479 5.854-5.854c.899-.898 2.209-1.147 3.419-.653.41.169.784.442 1.08.792.8.945.992 2.167.514 3.269-.418.961-1.391 1.67-2.541 1.852l-2.532.398c-1.923.303-3.865.368-5.794.196zm3.822-7.888c1.129-1.129 2.632-1.746 4.206-1.746.233 0 .468.014.704.041 1.823.214 3.418 1.233 4.38 2.796 1.048 1.701 1.175 3.8.34 5.615s-2.512 3.085-4.486 3.396l-6.26.987h-.531v-.739c0-.127-.017-.25-.037-.371 1.325-.002 2.651-.106 3.969-.314l2.532-.398c1.818-.287 3.376-1.447 4.063-3.03.788-1.814.481-3.817-.821-5.357-.503-.594-1.142-1.061-1.847-1.35-1.94-.799-4.135-.369-5.592 1.089l-7.288 7.288c-.067.067-.123.143-.168.224h-.206v-1.088zm-10.87 2.08c-.069-.313.006-.636.206-.886.201-.249.5-.393.82-.393s.619.144.819.393c.201.25.276.572.207.886l-.467 2.111c-.181-.037-.367-.057-.559-.057-.191 0-.378.02-.559.057zm.225 4.856c0-.441.359-.801.801-.801s.801.359.801.801v1.195h-1.603v-1.195zm-3.033-4.235c-.258-1.168.023-2.373.772-3.307.749-.932 1.865-1.467 3.062-1.467 1.196 0 2.312.535 3.061 1.467.75.934 1.031 2.139.772 3.307l-.137.619-1.151 1.151.433-1.957c.201-.908-.017-1.845-.6-2.57-.582-.725-1.449-1.141-2.378-1.141s-1.796.416-2.379 1.141c-.582.725-.8 1.661-.6 2.569l.433 1.958-1.151-1.151zm-11.153 7.401c-1.974-.311-3.651-1.58-4.486-3.396s-.708-3.915.339-5.616c.961-1.563 2.558-2.581 4.381-2.795.237-.028.473-.042.708-.042 1.57 0 3.071.617 4.201 1.747l7.043 7.043v1.088h-.206c-.045-.081-.1-.156-.168-.224l-7.288-7.287c-1.103-1.104-2.642-1.644-4.188-1.454-2.13.25-3.847 1.784-4.374 3.909-.185.747-.183 1.54.006 2.293.518 2.063 2.115 3.547 4.167 3.869l2.724.431c1.318.207 2.642.311 3.967.313-.021.121-.037.244-.037.371v.739h-.496zm3.171-2.41-2.724-.431c-1.266-.199-2.215-1.089-2.539-2.381-.109-.437-.111-.895-.004-1.325.329-1.328 1.351-2.249 2.668-2.403.122-.015.243-.021.364-.021.818 0 1.59.321 2.173.903l5.855 5.854c-1.928.172-3.87.107-5.793-.196zm-20.433 12.263v-5.589c0-.704.573-1.276 1.277-1.276h22.774v8.138h-21.596c-.007 0-.013.004-.019.004h-1.159c-.704 0-1.277-.572-1.277-1.277zm-11.774 7.757c0-.462.375-.837.836-.837h21.875c.461 0 .837.375.837.837s-.375.837-.837.837h-21.875c-.461 0-.836-.375-.836-.837zm0 14.693c0-.461.375-.836.836-.836h18.202c.461 0 .836.375.836.836 0 .462-.375.837-.836.837h-18.202c-.461 0-.836-.375-.836-.837zm19.039 2.837c1.564 0 2.836-1.272 2.836-2.837 0-1.563-1.272-2.836-2.836-2.836h-3.81v-9.02h7.482c1.564 0 2.837-1.272 2.837-2.837s-1.272-2.837-2.837-2.837h-7.482v-1.644h20.596v34.031c-3.035.295-5.678 1.949-7.311 4.344h-13.285v-2.714c1.182-.342 2.055-1.422 2.055-2.714s-.872-2.372-2.055-2.714v-8.224h3.81zm-19.039 10.937c0-.462.375-.837.836-.837h13.611c.461 0 .836.375.836.837s-.375.837-.836.837h-13.611c-.461 0-.836-.375-.836-.837zm13.816 12.775c-1.474 0-2.673-1.199-2.673-2.674 0-1.474 1.199-2.673 2.673-2.673h13.651c-.441 1.129-.693 2.353-.693 3.637 0 .584.061 1.153.157 1.71zm22.988 6.319c-4.428 0-8.03-3.602-8.03-8.029s3.602-8.03 8.03-8.03 8.03 3.603 8.03 8.03-3.603 8.029-8.03 8.029zm9.756-10.319c-.964-4.107-4.451-7.253-8.735-7.688v-46.915c0-.121.099-.22.22-.22h11.955c.121 0 .22.099.22.22v54.382c0 .122-.099.221-.22.221zm30.888.019c-1.232 0-2.234-1.003-2.234-2.235v-35.153c0-1.232 1.002-2.234 2.234-2.234h14.298c1.184 0 2.296.461 3.133 1.298l15.607 15.607c.907.906 1.427 2.161 1.427 3.444v14.842c0 .369-.051.724-.14 1.064h-13.144c-1.807-2.649-4.848-4.394-8.29-4.394-4.748 0-8.728 3.321-9.761 7.76h-3.13zm12.891 10.3c-4.428 0-8.03-3.602-8.03-8.029s3.603-8.03 8.03-8.03 8.029 3.603 8.029 8.03-3.601 8.029-8.029 8.029zm22.988-6.319h-13.116c.096-.557.157-1.126.157-1.71 0-1.284-.251-2.508-.693-3.637h13.652c1.474 0 2.673 1.199 2.673 2.673s-1.199 2.674-2.673 2.674z" fill="#3a2c60"/><path d="m40.804 89.063c-1.974 0-3.58 1.606-3.58 3.58s1.606 3.58 3.58 3.58 3.58-1.606 3.58-3.58-1.606-3.58-3.58-3.58zm0 5.161c-.871 0-1.58-.709-1.58-1.58s.708-1.58 1.58-1.58 1.58.709 1.58 1.58-.709 1.58-1.58 1.58z" fill="#3a2c60"/><path d="m94.339 89.063c-1.974 0-3.58 1.606-3.58 3.58s1.606 3.58 3.58 3.58 3.58-1.606 3.58-3.58-1.606-3.58-3.58-3.58zm0 5.161c-.871 0-1.58-.709-1.58-1.58s.709-1.58 1.58-1.58 1.58.709 1.58 1.58-.709 1.58-1.58 1.58z" fill="#3a2c60"/></svg>