<svg id="Layer_1" enable-background="new 0 0 128 128" height="512" viewBox="0 0 128 128" width="512" xmlns="http://www.w3.org/2000/svg"><path d="m118.908 78.974h-2.411c-.255-.82-.587-1.619-.987-2.38l1.706-1.706c.333-.333.516-.775.516-1.246s-.183-.913-.516-1.246l-3.491-3.491c-.687-.688-1.805-.688-2.491 0l-.159.159v-41.692c0-1.73-1.408-3.138-3.138-3.138h-93.469c-1.73 0-3.139 1.408-3.139 3.138v61.085c0 1.73 1.408 3.138 3.139 3.138h41.138v7.362h-4.787c-3.836 0-6.958 3.121-6.958 6.957v.851c0 .552.448 1 1 1h32.681c.552 0 1-.448 1-1v-.851c0-3.836-3.121-6.957-6.958-6.957h-4.787v-7.362h21.758c-.618.691-.602 1.752.061 2.416l3.491 3.491c.665.666 1.826.666 2.491 0l1.706-1.706c.761.4 1.56.731 2.38.987v2.411c0 .972.791 1.762 1.762 1.762h4.937c.972 0 1.762-.791 1.762-1.762v-2.411c.819-.255 1.618-.586 2.38-.986l1.706 1.705c.665.666 1.826.666 2.491 0l3.491-3.491c.333-.333.516-.775.516-1.246s-.183-.913-.516-1.246l-1.705-1.706c.4-.761.731-1.56.986-2.38h2.411c.972 0 1.762-.791 1.762-1.762v-4.937c.003-.97-.787-1.76-1.759-1.76z" fill="#e6e7e8"/><path d="m52.606 86.596h9.192v9.362h-9.192z" fill="#6dc9f7"/><path d="m67.585 95.957h-20.766c-3.29 0-5.957 2.667-5.957 5.958v.851h32.681v-.851c-.001-3.29-2.668-5.958-5.958-5.958z" fill="#0089ef"/><path d="m102.572 82.6c.39-.42.695-.909.912-1.437.578-1.403.533-3.074-.209-4.405-1.028-1.844-3.309-2.893-5.378-2.467-2.04.42-3.714 2.236-3.963 4.305-.251 2.082.962 4.258 2.864 5.14s4.348.4 5.774-1.136z" fill="#6dc9f7"/><path d="m87.156 86.396c.236-.236.294-.6.134-.893-.433-.798-.787-1.646-1.05-2.532-.095-.32-.393-.536-.726-.536h-2.589c-.421 0-.762-.341-.762-.762v-4.938c0-.421.341-.762.762-.762h2.589c.333 0 .632-.216.726-.536.263-.887.617-1.734 1.05-2.533.159-.293.102-.657-.134-.893l-1.831-1.831c-.298-.298-.298-.78 0-1.077l3.491-3.491c.297-.297.78-.297 1.077 0l1.831 1.831c.236.236.6.293.893.134.798-.433 1.646-.787 2.533-1.05.32-.095.536-.393.536-.726v-2.589c0-.421.341-.762.762-.762h4.937c.421 0 .762.341.762.762v2.589c0 .333.216.631.536.726.887.263 1.734.617 2.533 1.05.281.152.623.102.859-.109v-44.096c0-1.181-.957-2.138-2.138-2.138h-93.469c-1.181 0-2.138.957-2.138 2.138v61.085c0 1.181.957 2.138 2.138 2.138h76.488z" fill="#6dc9f7"/><path d="m94.177 77.617h3.961v-3.354c-.08.012-.161.012-.24.028-1.709.353-3.148 1.688-3.721 3.326z" fill="#d4fbff"/><path d="m82.163 76.735c0-.421.341-.762.762-.762h2.589c.333 0 .632-.216.726-.536.263-.887.617-1.734 1.05-2.533.159-.293.102-.657-.134-.893l-1.831-1.831c-.298-.298-.298-.78 0-1.077l3.491-3.491c.297-.297.78-.297 1.077 0l1.831 1.831c.236.236.6.293.893.134.798-.433 1.646-.787 2.533-1.05.32-.095.536-.393.536-.726v-2.589c0-.421.341-.762.762-.762h1.69v-36.067h-81.915v51.234h65.94z" fill="#d4fbff"/><path d="m57.521 79.617c-.94 0-1.702.762-1.702 1.702s.762 1.702 1.702 1.702 1.702-.762 1.702-1.702-.762-1.702-1.702-1.702z" fill="#fa759e"/><path d="m35.652 67.511c0 1.718 1.393 3.111 3.111 3.111h36.878c1.718 0 3.111-1.393 3.111-3.111v-22.176h-43.1z" fill="#fff"/><path d="m75.641 35.93h-5.916v3.382c0 1.312-1.064 2.376-2.376 2.376h-.229c-1.312 0-2.376-1.064-2.376-2.376v-3.382h-15.083v3.382c0 1.312-1.064 2.376-2.376 2.376h-.229c-1.312 0-2.376-1.064-2.376-2.376v-3.382h-5.916c-1.718 0-3.111 1.393-3.111 3.111v6.294h43.1v-6.294c-.001-1.718-1.394-3.111-3.112-3.111z" fill="#fa759e"/><path d="m44.679 35.93h-5.916c-1.718 0-3.111 1.393-3.111 3.111v3c0-1.718 1.393-3.111 3.111-3.111h5.916z" fill="#fff"/><path d="m49.661 35.93h15.083v3h-15.083z" fill="#fff"/><path d="m75.641 35.93h-5.916v3h5.916c1.718 0 3.111 1.393 3.111 3.111v-3c0-1.718-1.393-3.111-3.111-3.111z" fill="#fff"/><path d="m47.284 32.367h-.229c-1.312 0-2.376 1.064-2.376 2.376v4.569c0 1.312 1.064 2.376 2.376 2.376h.229c1.312 0 2.376-1.064 2.376-2.376v-4.569c.001-1.312-1.063-2.376-2.376-2.376z" fill="#ffd7e5"/><path d="m67.349 32.367h-.229c-1.312 0-2.376 1.064-2.376 2.376v4.569c0 1.312 1.064 2.376 2.376 2.376h.229c1.312 0 2.376-1.064 2.376-2.376v-4.569c0-1.312-1.064-2.376-2.376-2.376z" fill="#ffd7e5"/><path d="m58.31 49.824 1.393 4.287c.156.48.603.805 1.107.805h4.508c1.128 0 1.597 1.443.684 2.106l-3.647 2.65c-.408.297-.579.822-.423 1.302l1.393 4.287c.349 1.073-.879 1.965-1.792 1.302l-3.647-2.649c-.408-.297-.961-.297-1.369 0l-3.647 2.649c-.913.663-2.14-.229-1.792-1.302l1.393-4.287c.156-.48-.015-1.005-.423-1.302l-3.647-2.65c-.913-.663-.444-2.106.684-2.106h4.508c.504 0 .952-.325 1.107-.805l1.393-4.287c.35-1.072 1.868-1.072 2.217 0z" fill="#fa759e"/><path d="m115.67 81.673v-4.937c0-.421-.341-.762-.762-.762h-2.589c-.334 0-.632-.216-.726-.536-.263-.887-.617-1.734-1.05-2.533-.159-.294-.102-.657.134-.893l1.831-1.831c.298-.298.298-.78 0-1.077l-3.491-3.491c-.298-.298-.78-.298-1.077 0l-1.831 1.831c-.236.236-.6.294-.893.134-.798-.433-1.646-.787-2.533-1.05-.32-.095-.536-.393-.536-.726v-2.589c0-.421-.341-.762-.762-.762h-4.937c-.421 0-.762.341-.762.762v2.589c0 .334-.216.632-.536.726-.887.263-1.734.617-2.533 1.05-.294.159-.657.102-.893-.134l-1.831-1.831c-.298-.298-.78-.298-1.077 0l-3.491 3.491c-.298.298-.298.78 0 1.077l1.831 1.831c.236.236.294.6.134.893-.433.798-.787 1.646-1.05 2.533-.095.32-.393.536-.726.536h-2.589c-.421 0-.762.341-.762.762v4.937c0 .421.341.762.762.762h2.589c.334 0 .632.216.726.536.263.887.617 1.734 1.05 2.533.159.294.102.657-.134.893l-1.831 1.831c-.298.298-.298.78 0 1.077l3.491 3.491c.298.298.78.298 1.077 0l1.831-1.831c.236-.236.6-.294.893-.134.798.433 1.646.787 2.533 1.05.32.095.536.393.536.726v2.589c0 .421.341.762.762.762h4.937c.421 0 .762-.341.762-.762v-2.589c0-.334.216-.632.536-.726.887-.263 1.734-.617 2.533-1.05.294-.159.657-.102.893.134l1.831 1.831c.298.298.78.298 1.077 0l3.491-3.491c.298-.298.298-.78 0-1.077l-1.831-1.831c-.236-.236-.294-.6-.134-.893.433-.798.787-1.646 1.05-2.533.095-.32.393-.536.726-.536h2.589c.421 0 .762-.342.762-.762zm-12.185-.51c-.217.527-.523 1.017-.912 1.437-1.426 1.537-3.871 2.018-5.773 1.136s-3.115-3.058-2.864-5.139c.249-2.069 1.923-3.884 3.963-4.305 2.069-.426 4.35.623 5.378 2.467.741 1.331.786 3.001.208 4.404z" fill="#fa759e"/><g fill="#3a2c60"><path d="m59.521 44.335h-5.069c-.552 0-1 .448-1 1s.448 1 1 1h5.069c.552 0 1-.448 1-1s-.448-1-1-1z"/><path d="m79.752 67.512v-22.177-2.168-4.126c0-2.267-1.844-4.111-4.111-4.111h-4.917v-.187c0-1.861-1.515-3.376-3.376-3.376h-.228c-1.861 0-3.376 1.515-3.376 3.376v.187h-13.083v-.187c0-1.861-1.515-3.376-3.376-3.376h-.229c-1.861 0-3.376 1.515-3.376 3.376v.187h-4.917c-2.267 0-4.111 1.844-4.111 4.111v4.126 2.168 22.177c0 2.267 1.844 4.111 4.111 4.111h36.878c2.267-.001 4.111-1.845 4.111-4.111zm-14.008-32.769c0-.759.617-1.376 1.376-1.376h.229c.759 0 1.376.617 1.376 1.376v4.569c0 .759-.617 1.376-1.376 1.376h-.229c-.759 0-1.376-.618-1.376-1.376zm-20.065 0c0-.759.617-1.376 1.376-1.376h.229c.759 0 1.376.617 1.376 1.376v4.569c0 .759-.617 1.376-1.376 1.376h-.229c-.759 0-1.376-.618-1.376-1.376zm-9.027 32.769v-21.177h13.772c.552 0 1-.448 1-1s-.448-1-1-1h-13.772v-1.168-4.126c0-1.164.947-2.111 2.111-2.111h4.917v2.382c0 1.862 1.515 3.376 3.376 3.376h.229c1.861 0 3.376-1.515 3.376-3.376v-2.382h13.083v2.382c0 1.862 1.515 3.376 3.376 3.376h.229c1.861 0 3.376-1.515 3.376-3.376v-2.382h4.917c1.164 0 2.111.947 2.111 2.111v4.126 1.168h-14.423c-.552 0-1 .448-1 1s.448 1 1 1h14.422v21.177c0 1.164-.947 2.111-2.111 2.111h-36.878c-1.164-.001-2.111-.947-2.111-2.111z"/><path d="m114.908 74.974h-2.411c-.255-.819-.586-1.618-.987-2.381l1.706-1.705c.687-.687.687-1.804 0-2.491l-3.491-3.491c-.665-.667-1.826-.667-2.492 0l-.159.159v-41.693c0-1.73-1.408-3.138-3.138-3.138h-93.468c-1.73 0-3.138 1.408-3.138 3.138v61.085c0 1.73 1.408 3.138 3.138 3.138h41.139v7.362h-4.788c-3.836 0-6.957 3.121-6.957 6.958v.851c0 .552.448 1 1 1h32.681c.552 0 1-.448 1-1v-.851c0-3.836-3.121-6.958-6.958-6.958h-4.787v-7.362h21.758c-.618.69-.602 1.752.061 2.417l3.491 3.491c.687.688 1.805.688 2.491 0l1.706-1.706c.761.4 1.56.731 2.38.987v2.411c0 .971.791 1.762 1.762 1.762h4.937c.971 0 1.762-.791 1.762-1.762v-2.411c.821-.256 1.62-.587 2.38-.987l1.706 1.706c.688.687 1.805.686 2.491 0l3.492-3.492c.687-.688.686-1.805 0-2.491l-1.706-1.705c.4-.762.731-1.561.987-2.381h2.411c.971 0 1.762-.791 1.762-1.762v-4.938c.001-.97-.79-1.76-1.761-1.76zm-105.578 9.483v-61.085c0-.627.511-1.138 1.138-1.138h93.468c.627 0 1.138.511 1.138 1.138v43.025c-.625-.301-1.267-.569-1.927-.774v-2.411c0-.971-.791-1.762-1.762-1.762h-4.937c-.972 0-1.762.791-1.762 1.762v2.411c-.82.255-1.619.586-2.38.987l-1.705-1.705c-.665-.667-1.828-.667-2.492 0l-3.491 3.491c-.333.333-.516.775-.516 1.246s.183.913.516 1.246l1.706 1.706c-.4.761-.731 1.561-.987 2.38h-2.411c-.972 0-1.762.791-1.762 1.762v4.938c0 .971.791 1.762 1.762 1.762h2.411c.231.742.533 1.464.884 2.161h-24.423-9.191-42.139c-.628-.001-1.138-.512-1.138-1.14zm63.21 17.309h-30.676c.079-2.665 2.271-4.809 4.955-4.809h5.788 9.191 5.787c2.684 0 4.876 2.144 4.955 4.809zm-11.742-6.809h-7.191v-7.362h7.191zm53.872-13.523h-2.35c-.774 0-1.467.515-1.685 1.251-.24.809-.567 1.597-.97 2.339-.368.676-.242 1.53.305 2.079l1.663 1.663-3.154 3.154-1.663-1.663c-.546-.546-1.401-.672-2.078-.306-.742.403-1.529.729-2.339.97-.737.219-1.252.911-1.252 1.685v2.351h-4.461v-2.351c0-.774-.515-1.467-1.251-1.685-.81-.24-1.597-.567-2.341-.971-.677-.368-1.531-.242-2.077.306l-1.663 1.663-3.154-3.153 1.663-1.663c.548-.548.673-1.402.306-2.078-.403-.744-.73-1.531-.97-2.34-.218-.737-.911-1.251-1.685-1.251h-2.351v-4.461h2.351c.774 0 1.467-.515 1.685-1.251.24-.809.567-1.597.97-2.339.368-.676.242-1.531-.306-2.079l-1.663-1.662 3.154-3.154 1.662 1.662c.546.547 1.402.674 2.078.307.744-.404 1.531-.73 2.341-.97.736-.219 1.25-.912 1.25-1.685v-2.351h4.461v2.351c0 .773.514 1.466 1.252 1.686.809.239 1.596.566 2.34.97.675.367 1.53.242 2.077-.306l1.663-1.663 3.155 3.154-1.664 1.663c-.546.548-.672 1.402-.305 2.077.403.744.73 1.531.97 2.34.218.737.912 1.251 1.686 1.251h2.35z"/><path d="m97.696 73.312c-2.456.506-4.455 2.678-4.754 5.165-.303 2.51 1.143 5.104 3.437 6.166.773.359 1.617.531 2.462.531 1.66 0 3.324-.666 4.464-1.894.464-.5.835-1.083 1.104-1.735.713-1.73.617-3.701-.259-5.273-1.243-2.23-3.957-3.472-6.454-2.96zm4.864 7.47c-.178.431-.42.813-.721 1.138-1.129 1.216-3.114 1.605-4.62.909-1.505-.697-2.491-2.465-2.292-4.112.197-1.632 1.56-3.113 3.172-3.445.242-.05.488-.074.735-.074 1.426 0 2.873.801 3.568 2.048.573 1.027.634 2.383.158 3.536z"/></g></svg>