<svg id="Layer_1" enable-background="new 0 0 128 128" height="512" viewBox="0 0 128 128" width="512" xmlns="http://www.w3.org/2000/svg"><path d="m112.646 102.586v-9.312-7.176c0-2.507-2.04-4.547-4.547-4.547h-5.745v-.354c0-2.045-1.664-3.708-3.709-3.708h-.261c-2.045 0-3.709 1.664-3.709 3.708v.354h-15.197v-.354c0-2.045-1.664-3.708-3.709-3.708h-.261c-1.849 0-3.373 1.363-3.651 3.135-3.443-3.217-7.686-5.587-12.396-6.771-.004-.001-.007-.005-.012-.006-.107-.027-.217-.046-.325-.072-.357-.085-.714-.167-1.076-.238-.084-.016-.169-.03-.253-.045-.397-.074-.796-.143-1.198-.2 5.912-2.909 10.347-8.368 11.869-14.933.273.075.549.125.828.125 2.335 0 4.164-2.401 4.164-5.466 0-2.617-1.338-4.736-3.181-5.303v-13.728c0-9.78-7.928-17.709-17.709-17.709h-.485c.244-.617.559-1.322.939-1.939.233-.378.551-.79.88-1.178.566-.668.083-1.685-.792-1.654-1.227.044-2.779.208-4.234.674-3.051.978-5.086 2.66-5.086 2.66s.236-1.441.792-2.787c.23-.557.539-1.134.846-1.652.436-.736-.187-1.642-1.029-1.49-1.815.327-4.531 1.009-7.299 2.409-5.223 2.641-13.74 9.506-13.74 21.732v.935 2.034 11.693c-1.843.568-3.181 2.687-3.181 5.303 0 3.065 1.829 5.466 4.164 5.466.278 0 .555-.051.828-.125 1.522 6.565 5.958 12.024 11.869 14.933-.402.058-.801.126-1.198.2-.084.016-.169.029-.253.045-.362.071-.72.153-1.076.238-.108.026-.218.045-.325.072-.004.001-.007.005-.012.006-5.273 1.326-9.959 4.138-13.594 7.96-.048.039-.087.085-.127.133-4.752 5.063-7.672 11.865-7.672 19.34v18.818c0 1.654 1.346 3 3 3h92.319c.052 0 .099-.013.151-.015.101.003.199.015.301.015 5.883 0 10.669-4.786 10.669-10.669-.003-4.432-2.721-8.24-6.577-9.849z" fill="#e6e7e8"/><path d="m65.293 44.552c-.444 0-.865.131-1.249.364v4.422c0 1.211-.107 2.396-.301 3.551.46.368.984.595 1.55.595 1.747 0 3.163-1.999 3.163-4.466s-1.416-4.466-3.163-4.466z" fill="#fff"/><path d="m65.292 43.552c-.434 0-.855.09-1.261.257.003.123.013.246.013.37v5.159c0 1.586-.187 3.125-.517 4.612.558.346 1.159.534 1.766.534 2.335 0 4.164-2.401 4.164-5.466-.001-3.065-1.83-5.466-4.165-5.466zm-.461 8.836c.141-1.022.213-2.046.213-3.051v-3.76c1.249-.258 2.412 1.428 2.412 3.44 0 2.123-1.269 3.928-2.625 3.371z" fill="#3a2c60"/><path d="m21.59 49.338v-4.422c-.383-.233-.805-.364-1.249-.364-1.747 0-3.163 1.999-3.163 4.466s1.416 4.466 3.163 4.466c.566 0 1.09-.227 1.55-.595-.194-1.156-.301-2.341-.301-3.551z" fill="#fff"/><path d="m21.59 49.338v-5.159c0-.124.01-.246.013-.37-.406-.168-.828-.257-1.261-.257-2.335 0-4.164 2.401-4.164 5.466s1.829 5.466 4.164 5.466c.606 0 1.207-.189 1.766-.534-.331-1.487-.518-3.027-.518-4.612zm-3.412-.32c0-1.879.991-3.466 2.164-3.466.083 0 .166.008.249.025v3.76c0 1.005.072 2.028.213 3.051-1.357.557-2.626-1.248-2.626-3.37z" fill="#3a2c60"/><path d="m58.507 114.558v-32.46c0-1.959 1.588-3.547 3.547-3.547h6.341c-4.975-5.262-12.015-8.551-19.828-8.551h-.955c-1.543.357-3.144.564-4.795.564s-3.252-.207-4.796-.564h-.955c-15.069 0-27.286 12.217-27.286 27.287v20.818h52.273c-1.958 0-3.546-1.588-3.546-3.547z" fill="#6dc9f7"/><path d="m45.081 84.615 1.751-4.553-3.801-5.515h-.428l-3.802 5.515 1.751 4.553-2.369 25.336 4.634 8.154 4.634-8.154z" fill="#fa759e"/><path d="m41.183 109.951 2.369-25.336-2.397-6.232 2.397-3.836h-.949l-3.802 5.515 1.751 4.553-2.369 25.336 4.634 8.154 1.5-2.64z" fill="#fff"/><path d="m45.082 85.615h-4.529c-.552 0-1-.448-1-1s.448-1 1-1h4.529c.552 0 1 .448 1 1s-.448 1-1 1z" fill="#3a2c60"/><path d="m46.099 84.756 1.421-3.695-1.375-1.995-1.997 5.192c-.055.144-.076.298-.062.452l2.34 25.022-3.609 6.35-3.609-6.35 2.34-25.022c.014-.154-.007-.308-.062-.452l-1.997-5.192-1.375 1.995 1.421 3.695-2.347 25.103c-.019.204.025.409.126.587l4.634 8.153c.178.313.51.506.87.506s.692-.193.87-.506l4.634-8.153c.101-.178.145-.383.126-.587z" fill="#3a2c60"/><path d="m62.054 118.105c-.957 0-1.823-.383-2.461-1h-47.813c-.551 0-1-.449-1-1v-18.818c0-14.495 11.792-26.287 26.286-26.287h11.501c7.166 0 13.668 2.885 18.414 7.551h1.817v-.998c-4.701-4.817-11.099-7.97-18.22-8.474-2.407.947-5.019 1.485-7.762 1.485s-5.356-.538-7.762-1.485c-14.66 1.037-26.274 13.288-26.274 28.208v18.818c0 1.654 1.346 3 3 3h64.073c.552 0 1-.448 1-1z" fill="#3a2c60"/><path d="m61.623 35.704-5.425-8.72c-2.15-2.941-5.574-4.68-9.218-4.68h-8.327c-3.643 0-7.068 1.739-9.218 4.68l-5.425 8.72c-1.583 2.544-2.421 5.48-2.421 8.475v5.159c0 11.723 9.504 21.227 21.227 21.227s21.227-9.504 21.227-21.227v-5.159c.001-2.996-.838-5.932-2.42-8.475z" fill="#fff"/><g fill="#3a2c60"><path d="m42.817 71.565c-12.256 0-22.227-9.971-22.227-22.227v-5.159c0-3.186.89-6.299 2.572-9.003l5.425-8.72c2.372-3.249 6.119-5.151 10.066-5.151h8.327c3.947 0 7.695 1.903 10.024 5.089l5.467 8.782c1.683 2.705 2.572 5.818 2.572 9.003v5.159c.001 12.255-9.97 22.227-22.226 22.227zm-4.164-48.261c-3.312 0-6.456 1.596-8.41 4.27l-5.383 8.658c-1.485 2.387-2.271 5.135-2.271 7.947v5.159c0 11.153 9.074 20.227 20.227 20.227s20.227-9.074 20.227-20.227v-5.159c0-2.812-.785-5.56-2.271-7.947l-5.425-8.72c-1.913-2.612-5.057-4.208-8.368-4.208z"/><path d="m25.719 119.105c-.552 0-1-.448-1-1v-8.082c0-.552.448-1 1-1s1 .448 1 1v8.082c0 .552-.448 1-1 1z"/><path d="m25.719 107.172c-.552 0-1-.448-1-1v-6.934c0-.552.448-1 1-1s1 .448 1 1v6.934c0 .552-.448 1-1 1z"/><path d="m25.719 96.079c-.552 0-1-.448-1-1v-3.64c0-5.214-3.101-9.903-7.899-11.944-.508-.216-.745-.804-.529-1.312s.802-.746 1.312-.529c5.538 2.356 9.116 7.767 9.116 13.785v3.64c0 .553-.448 1-1 1z"/><circle cx="33.452" cy="46.367" r="2.123"/><circle cx="52.182" cy="46.367" r="2.123"/><path d="m42.817 56.815c-1.882 0-3.414-1.532-3.414-3.414v-1.415c0-.552.448-1 1-1s1 .448 1 1v1.415c0 .78.634 1.414 1.414 1.414s1.414-.634 1.414-1.414v-1.415c0-.552.448-1 1-1s1 .448 1 1v1.415c0 1.882-1.532 3.414-3.414 3.414z"/><path d="m54.885 43.054c-.057 0-.115-.005-.172-.015l-4.157-.724c-.544-.095-.909-.613-.814-1.157s.616-.903 1.157-.814l4.157.724c.544.095.909.613.814 1.157-.085.487-.508.829-.985.829z"/><path d="m30.749 43.054c-.477 0-.899-.342-.984-.829-.095-.544.27-1.062.814-1.157l4.157-.724c.546-.089 1.062.27 1.157.814s-.27 1.062-.814 1.157l-4.157.724c-.059.011-.117.015-.173.015z"/><path d="m42.817 62.363c-3.606 0-5.438-2.482-5.515-2.588-.323-.448-.222-1.073.226-1.396.446-.321 1.067-.223 1.392.221.062.083 1.352 1.763 3.896 1.763 2.531 0 3.893-1.759 3.907-1.777.333-.44.959-.528 1.401-.193.44.333.526.96.193 1.401-.079.105-1.986 2.569-5.5 2.569z"/><path d="m48.566 12.278h-.485c.244-.617.559-1.322.939-1.939.233-.378.551-.79.88-1.178.566-.668.083-1.685-.792-1.654-1.227.044-2.779.208-4.234.674-3.051.978-5.086 2.66-5.086 2.66s.236-1.441.792-2.787c.23-.557.539-1.134.846-1.652.436-.736-.187-1.642-1.029-1.49-1.815.327-4.531 1.009-7.299 2.409-5.223 2.641-13.74 9.506-13.74 21.732v.935 2.034 12.772c.311-.144.637-.242.983-.242.444 0 .865.131 1.249.364v-.737c0-2.996.839-5.932 2.421-8.475l5.425-8.719c2.15-2.941 5.574-4.68 9.218-4.68h8.327c3.643 0 7.068 1.739 9.218 4.68l5.425 8.719c1.583 2.544 2.421 5.48 2.421 8.475v.737c.383-.233.805-.364 1.249-.364.345 0 .672.098.983.242v-14.807c-.002-9.78-7.93-17.709-17.711-17.709z"/></g><path d="m49.438 70.022-6.621 4.215 5.35 7.761 7.04-11.18c-1.855-.464-3.786-.733-5.769-.796z" fill="#d4fbff"/><path d="m55.449 69.847c-1.587-.396-3.227-.646-4.887-.761-.953.374-1.939.681-2.954.916l-5.328 3.392c-.229.146-.389.379-.443.645s.002.542.157.766l5.35 7.761c.187.271.495.433.823.433h.021c.336-.007.646-.183.825-.467l7.04-11.18c.171-.271.201-.608.082-.905-.12-.3-.375-.522-.686-.6zm-7.32 10.334-3.9-5.657 5.483-3.491c1.314.057 2.617.208 3.891.454z" fill="#3a2c60"/><path d="m30.427 70.818 7.04 11.18 5.35-7.761-6.621-4.215c-1.983.063-3.914.332-5.769.796z" fill="#d4fbff"/><path d="m43.354 73.393-5.328-3.392c-1.015-.234-2.001-.541-2.954-.916-1.66.115-3.3.365-4.887.761-.311.078-.566.3-.686.598-.12.297-.089.634.082.905l7.04 11.18c.179.285.489.46.825.467h.021c.329 0 .636-.161.823-.433l5.35-7.761c.154-.224.211-.5.157-.766-.054-.264-.214-.497-.443-.643zm-5.849 6.788-5.475-8.694c1.274-.246 2.577-.397 3.891-.454l5.483 3.491z" fill="#3a2c60"/><path d="m42.817 70.565c-2.846 0-5.559-.564-8.039-1.58v.13l8.039 5.123 8.047-5.123v-.133c-2.482 1.017-5.198 1.583-8.047 1.583z" fill="#fff"/><path d="m42.817 70.565c-3.183 0-6.192-.721-8.902-1.976-.057.123-.092.257-.092.396v.13c0 .326.167.629.441.805l8.04 5.123c.156.1.334.149.513.149s.356-.05.512-.149l8.047-5.123c.275-.175.442-.479.442-.805v-.133c0-.14-.035-.273-.092-.396-2.712 1.257-5.723 1.979-8.909 1.979zm0 2.541-2.758-1.757c1.821.227 3.698.226 5.519 0z" fill="#3a2c60"/><path d="m94.881 108.435c0-5.34 4.329-9.669 9.669-9.669 1.084 0 2.123.186 3.096.515v-10.007h-49.139v25.284c0 1.959 1.588 3.547 3.547 3.547h42.046c.052 0 .1-.013.151-.015-5.201-.161-9.37-4.416-9.37-9.655z" fill="#fff"/><path d="m104.099 78.552h-6.745v3.856c0 1.496-1.213 2.709-2.709 2.709h-.261c-1.496 0-2.709-1.213-2.709-2.709v-3.856h-17.197v3.856c0 1.496-1.213 2.709-2.709 2.709h-.261c-1.496 0-2.709-1.213-2.709-2.709v-3.856h-6.745c-1.959 0-3.547 1.588-3.547 3.547v7.176h49.139v-7.176c0-1.96-1.588-3.547-3.547-3.547z" fill="#fa759e"/><path d="m74.478 77.551h17.196v2h-17.196z" fill="#3a2c60"/><path d="m104.099 77.551h-6.745v2h6.745c1.404 0 2.547 1.143 2.547 2.547v6.176h-47.139v-6.176c0-1.404 1.143-2.547 2.547-2.547h6.745v-2h-6.745c-2.507 0-4.547 2.04-4.547 4.547v7.176c0 .552.448 1 1 1h49.139c.552 0 1-.448 1-1v-7.176c0-2.507-2.04-4.547-4.547-4.547z" fill="#3a2c60"/><path d="m108.646 99.686v-12.073h-2v11.387c.699.155 1.367.389 2 .686z" fill="#3a2c60"/><path d="m104.55 118.105c-1.532 0-2.975-.366-4.262-1h-38.234c-1.404 0-2.547-1.143-2.547-2.547v-26.945h-2v26.945c0 2.507 2.04 4.547 4.547 4.547h42.045c1.297 0 2.461-.552 3.29-1.425-.898.275-1.851.425-2.839.425z" fill="#3a2c60"/><path d="m71.769 85.117h-.261c-1.496 0-2.709-1.213-2.709-2.709v-5.21c0-1.496 1.213-2.709 2.709-2.709h.261c1.496 0 2.709 1.213 2.709 2.709v5.21c0 1.496-1.213 2.709-2.709 2.709z" fill="#ffd7e5"/><path d="m71.769 86.117h-.261c-2.045 0-3.709-1.664-3.709-3.709v-5.21c0-2.045 1.664-3.708 3.709-3.708h.261c2.045 0 3.709 1.664 3.709 3.708v5.21c0 2.045-1.664 3.709-3.709 3.709zm-.261-10.628c-.942 0-1.709.767-1.709 1.708v5.21c0 .942.767 1.709 1.709 1.709h.261c.942 0 1.709-.767 1.709-1.709v-5.21c0-.942-.767-1.708-1.709-1.708z" fill="#3a2c60"/><path d="m94.645 85.117h-.261c-1.496 0-2.709-1.213-2.709-2.709v-5.21c0-1.496 1.213-2.709 2.709-2.709h.261c1.496 0 2.709 1.213 2.709 2.709v5.21c0 1.496-1.213 2.709-2.709 2.709z" fill="#ffd7e5"/><path d="m94.645 86.117h-.261c-2.045 0-3.709-1.664-3.709-3.709v-5.21c0-2.045 1.664-3.708 3.709-3.708h.261c2.045 0 3.709 1.664 3.709 3.708v5.21c0 2.045-1.664 3.709-3.709 3.709zm-.261-10.628c-.942 0-1.709.767-1.709 1.708v5.21c0 .942.767 1.709 1.709 1.709h.261c.942 0 1.709-.767 1.709-1.709v-5.21c0-.942-.767-1.708-1.709-1.708z" fill="#3a2c60"/><path d="m84.339 94.392 1.588 4.888c.178.547.687.917 1.263.917h5.139c1.286 0 1.821 1.646.78 2.402l-4.158 3.021c-.465.338-.66.937-.482 1.484l1.588 4.888c.397 1.223-1.003 2.24-2.043 1.484l-4.158-3.021c-.465-.338-1.095-.338-1.561 0l-4.158 3.021c-1.04.756-2.44-.261-2.043-1.484l1.588-4.888c.178-.547-.017-1.146-.482-1.484l-4.158-3.021c-1.04-.756-.506-2.402.78-2.402h5.139c.575 0 1.085-.37 1.263-.917l1.588-4.888c.399-1.223 2.13-1.223 2.527 0z" fill="#fa759e"/><circle cx="104.55" cy="108.435" fill="#6dc9f7" r="9.669"/><path d="m104.55 119.105c-5.883 0-10.669-4.786-10.669-10.669s4.786-10.669 10.669-10.669 10.669 4.786 10.669 10.669-4.785 10.669-10.669 10.669zm0-19.339c-4.78 0-8.669 3.889-8.669 8.669s3.889 8.669 8.669 8.669 8.669-3.889 8.669-8.669-3.888-8.669-8.669-8.669z" fill="#3a2c60"/><path d="m103.617 109.397-2.623-2.623c-.712-.712-1.866-.712-2.578 0-.712.712-.712 1.866 0 2.578l3.85 3.85c.746.746 1.956.746 2.703 0l5.717-5.717c.712-.712.712-1.866 0-2.578-.712-.712-1.866-.712-2.578 0z" fill="#fa759e"/><path d="m103.617 114.76c-.746 0-1.491-.284-2.058-.851l-3.85-3.85c-1.101-1.101-1.101-2.892 0-3.993s2.893-1.1 3.993 0l1.916 1.916 3.783-3.783c1.101-1.101 2.892-1.101 3.992 0 1.101 1.101 1.101 2.892 0 3.993l-5.717 5.717c-.568.568-1.314.851-2.059.851zm-3.912-7.52c-.22 0-.427.086-.582.241-.156.156-.241.362-.241.582s.085.427.241.583l3.85 3.85c.355.354.933.355 1.289 0l5.717-5.716c.321-.321.321-.843 0-1.165-.31-.311-.852-.311-1.164 0l-4.49 4.49c-.188.188-.442.293-.707.293-.265 0-.52-.105-.707-.293l-2.623-2.623c-.156-.156-.363-.242-.583-.242z" fill="#3a2c60"/></svg>