<svg id="Layer_1" enable-background="new 0 0 128 128" height="512" viewBox="0 0 128 128" width="512" xmlns="http://www.w3.org/2000/svg"><path d="m101.742 72.67v-28.786-13.001c0-4.095-3.331-7.426-7.426-7.426h-11.22v-1.451c0-3.258-2.65-5.908-5.908-5.908h-.473c-3.257 0-5.908 2.65-5.908 5.908v1.451h-29.155v-1.451c0-3.258-2.65-5.908-5.908-5.908h-.473c-3.257 0-5.908 2.65-5.908 5.908v1.451h-11.22c-4.095 0-7.426 3.331-7.426 7.426v13.001 45.806c0 4.095 3.331 7.426 7.426 7.426h60c1.414 10.59 10.501 18.787 21.472 18.787 11.948 0 21.669-9.721 21.669-21.669-.001-11.231-8.589-20.491-19.542-21.564z" fill="#e6e7e8"/><path d="m74.945 90.233c0-11.396 9.272-20.669 20.669-20.669.381 0 .752.037 1.127.057v-29.704h-89.024v45.773c0 3.549 2.877 6.426 6.426 6.426h60.898c-.057-.622-.096-1.248-.096-1.883z" fill="#fff"/><path d="m90.32 20.46h-12.225v6.983c0 2.711-2.197 4.908-4.908 4.908h-.473c-2.711 0-4.908-2.197-4.908-4.908v-6.983h-31.154v6.983c0 2.711-2.197 4.908-4.908 4.908h-.473c-2.71 0-4.908-2.197-4.908-4.908v-6.983h-12.223c-3.55 0-6.42 2.87-6.42 6.42v13h89.02v-13c0-3.549-2.88-6.42-6.42-6.42z" fill="#fff"/><path d="m90.32 23.46h-12.225v3.983c0 2.711-2.197 4.908-4.908 4.908h-.473c-2.711 0-4.908-2.197-4.908-4.908v-3.983h-31.154v3.983c0 2.711-2.197 4.908-4.908 4.908h-.473c-2.71 0-4.908-2.197-4.908-4.908v-3.983h-12.223c-3.55 0-6.42 2.87-6.42 6.42v10h89.02v-10c0-3.549-2.88-6.42-6.42-6.42z" fill="#fa759e"/><path d="m31.744 13.098h-.473c-2.71 0-4.908 2.197-4.908 4.908v9.438c0 2.711 2.197 4.908 4.908 4.908h.473c2.71 0 4.908-2.197 4.908-4.908v-9.438c0-2.711-2.197-4.908-4.908-4.908z" fill="#ffd7e5"/><path d="m73.188 13.098h-.473c-2.711 0-4.908 2.197-4.908 4.908v9.438c0 2.711 2.197 4.908 4.908 4.908h.473c2.711 0 4.908-2.197 4.908-4.908v-9.438c-.001-2.711-2.198-4.908-4.908-4.908z" fill="#ffd7e5"/><path d="m54.517 49.156 2.877 8.855c.322.991 1.245 1.662 2.287 1.662h9.311c2.33 0 3.299 2.981 1.414 4.351l-7.532 5.473c-.843.612-1.196 1.698-.874 2.689l2.877 8.855c.72 2.216-1.816 4.059-3.701 2.689l-7.532-5.473c-.843-.612-1.984-.612-2.827 0l-7.532 5.473c-1.885 1.37-4.421-.473-3.701-2.689l2.877-8.855c.322-.991-.031-2.077-.874-2.689l-7.532-5.473c-1.885-1.37-.916-4.351 1.414-4.351h9.311c1.042 0 1.965-.671 2.287-1.662l2.877-8.855c.718-2.216 3.853-2.216 4.573 0z" fill="#fa759e"/><circle cx="95.614" cy="90.233" fill="#0089ef" r="20.669"/><ellipse cx="95.614" cy="90.233" fill="#fff" rx="16.669" ry="16.669" transform="matrix(.998 -.071 .071 .998 -6.156 7.005)"/><g fill="#3a2c60"><path d="m96.742 48.494c-.552 0-1 .447-1 1v7.202c0 .553.448 1 1 1s1-.447 1-1v-7.202c0-.553-.448-1-1-1z"/><path d="m97.741 68.67v-8.253c0-.553-.448-1-1-1s-1 .448-1 1v8.151c-.042 0-.084-.003-.126-.003-11.948 0-21.669 9.721-21.669 21.669 0 .296.011.589.022.882h-59.825c-2.992 0-5.426-2.434-5.426-5.426v-44.806h87.025v4.759c0 .553.448 1 1 1s1-.447 1-1v-5.759-2.551-10.45c0-4.095-3.331-7.426-7.426-7.426h-11.221v-1.451c0-3.258-2.65-5.908-5.908-5.908h-.473c-3.257 0-5.908 2.65-5.908 5.908v1.451h-29.154v-1.451c0-3.258-2.65-5.908-5.908-5.908h-.473c-3.257 0-5.908 2.65-5.908 5.908v1.451h-11.22c-4.095 0-7.426 3.331-7.426 7.426v10.45 2.551 45.806c0 4.095 3.331 7.426 7.426 7.426h60c1.414 10.59 10.501 18.787 21.472 18.787 11.948 0 21.669-9.721 21.669-21.669-.001-11.231-8.589-20.492-19.543-21.564zm-28.934-50.664c0-2.155 1.753-3.908 3.908-3.908h.473c2.155 0 3.908 1.753 3.908 3.908v9.438c0 2.155-1.753 3.908-3.908 3.908h-.473c-2.155 0-3.908-1.753-3.908-3.908zm-41.444 0c0-2.155 1.753-3.908 3.908-3.908h.473c2.155 0 3.908 1.753 3.908 3.908v9.438c0 2.155-1.753 3.908-3.908 3.908h-.473c-2.155 0-3.908-1.753-3.908-3.908zm-18.646 8.877c0-2.992 2.434-5.426 5.426-5.426h11.221v5.986c0 3.258 2.65 5.908 5.908 5.908h.473c3.257 0 5.908-2.65 5.908-5.908v-5.986h29.155v5.986c0 3.258 2.65 5.908 5.908 5.908h.473c3.257 0 5.908-2.65 5.908-5.908v-5.986h11.221c2.992 0 5.426 2.434 5.426 5.426v10.45 1.551h-87.027v-1.551zm86.897 83.019c-10.846 0-19.669-8.823-19.669-19.669s8.823-19.669 19.669-19.669 19.669 8.823 19.669 19.669-8.823 19.669-19.669 19.669z"/><path d="m95.614 72.563c-9.743 0-17.669 7.926-17.669 17.669s7.926 17.67 17.669 17.67 17.669-7.927 17.669-17.67-7.926-17.669-17.669-17.669zm0 33.339c-8.64 0-15.669-7.029-15.669-15.67 0-8.64 7.029-15.669 15.669-15.669s15.669 7.029 15.669 15.669c0 8.641-7.029 15.67-15.669 15.67z"/><path d="m95.614 79.893c.552 0 1-.447 1-1v-2.063c0-.553-.448-1-1-1s-1 .447-1 1v2.063c0 .552.448 1 1 1z"/><path d="m84.274 89.232h-2.063c-.552 0-1 .447-1 1s.448 1 1 1h2.063c.552 0 1-.447 1-1s-.448-1-1-1z"/><path d="m95.614 100.573c-.552 0-1 .447-1 1v2.063c0 .553.448 1 1 1s1-.447 1-1v-2.063c0-.552-.447-1-1-1z"/><path d="m109.017 89.232h-2.063c-.552 0-1 .447-1 1s.448 1 1 1h2.063c.552 0 1-.447 1-1s-.448-1-1-1z"/><path d="m95.614 88.203c-.154 0-.303.02-.447.053l-4.273-4.696c-.371-.408-1.003-.439-1.413-.066-.409.371-.438 1.004-.067 1.412l4.278 4.701c-.065.198-.109.406-.109.626 0 1.121.909 2.03 2.03 2.03s2.03-.909 2.03-2.03-.908-2.03-2.029-2.03z"/></g></svg>