<svg id="Layer_1" enable-background="new 0 0 128 128" height="512" viewBox="0 0 128 128" width="512" xmlns="http://www.w3.org/2000/svg"><path d="m98.536 72.881c-.044-.055-.089-.105-.142-.149-4.751-5.001-10.962-8.598-17.948-10.095-.013-.003-.023-.012-.036-.015-.047-.01-.094-.016-.141-.026-.198-.041-.398-.075-.597-.113 4.637-3.305 8.031-8.24 9.341-13.965.306.09.617.149.93.149 2.45 0 4.369-2.528 4.369-5.757s-1.919-5.757-4.369-5.757c-.111 0-.22.012-.33.023v-5.11c0-13.018-10.591-23.608-23.608-23.608s-23.609 10.592-23.609 23.609v5.11c-.11-.011-.219-.023-.33-.023-2.45 0-4.369 2.528-4.369 5.757s1.919 5.757 4.369 5.757c.031 0 .062-.008.093-.009l.478 1.813c.459 1.74 1.475 3.334 3.088 4.849 1.685 2.821 3.943 5.259 6.61 7.16-7.307 1.39-13.809 5.068-18.737 10.259-.044.037-.079.078-.117.122-5.866 6.239-9.472 14.628-9.472 23.847v23.83c0 1.448 1.032 2.66 2.399 2.939.196.04.399.062.606.062h17.772.001s.001 0 .001 0c.002 0 .003-.001.005-.001h42.417c.002 0 .003.001.005.001h.001s.001 0 .001 0h17.771c.827 0 1.578-.337 2.121-.88.544-.543.88-1.293.88-2.121v-23.829c.001-9.21-3.597-17.591-9.453-23.829z" fill="#e6e7e8"/><path d="m76.203 59.603c-.911 7.138-7 12.497-14.2 12.497-7.21 0-13.29-5.35-14.21-12.49 1.091-.234 2.203-.413 3.331-.539-.001-.001-.003-.001-.004-.002-16.933 1.862-30.11 16.21-30.11 33.641v23.83c0 1.104.895 2 2 2h77.98c1.105 0 2-.896 2-2v-23.83c0-16.272-11.483-29.857-26.787-33.107z" fill="#fff"/><path d="m75.523 62.469c-1.958 5.657-7.323 9.632-13.519 9.632-6.208 0-11.569-3.971-13.529-9.631-15.641 2.987-27.465 16.729-27.465 33.24v20.83c0 1.104.895 2 2 2h77.98c1.105 0 2-.896 2-2v-20.83c0-16.512-11.825-30.255-27.467-33.241z" fill="#0089ef"/><path d="m85.943 34.154c-.473 0-.922.14-1.33.388v4.709c0 1.289-.114 2.552-.321 3.782.49.392 1.048.634 1.651.634 1.861 0 3.369-2.13 3.369-4.757s-1.509-4.756-3.369-4.756z" fill="#fff"/><path d="m39.396 39.252v-4.709c-.408-.248-.857-.388-1.33-.388-1.861 0-3.369 2.13-3.369 4.757s1.508 4.757 3.369 4.757c.603 0 1.161-.242 1.651-.634-.207-1.232-.321-2.494-.321-3.783z" fill="#fff"/><path d="m62.004 61.86c-3.944 0-7.651-1.012-10.879-2.788-1.128.126-2.24.304-3.331.538.92 7.14 7 12.49 14.21 12.49 7.2 0 13.29-5.36 14.2-12.5-1.088-.229-2.196-.404-3.32-.529-3.228 1.777-6.935 2.789-10.88 2.789z" fill="#d4fbff"/><path d="m62.004 61.86c-3.665 0-7.123-.877-10.184-2.425.8 4.911 5.044 8.666 10.181 8.666s9.38-3.753 10.181-8.664c-3.059 1.546-6.515 2.423-10.178 2.423z" fill="#fff"/><path d="m21.015 105.137v11.404c0 1.104.895 2 2 2h17.772v-13.404z" fill="#fff"/><path d="m83.217 105.137v13.404h17.772c1.105 0 2-.896 2-2v-11.404z" fill="#fff"/><path d="m79.266 83.88c.036-.836-.529-1.58-1.346-1.759l-5.415-1.185v-.001l-.003.001-.003-.001v.001l-5.415 1.185c-.817.179-1.382.923-1.346 1.759.404 9.374 6.652 12.528 6.761 12.583v.003h.005c.001-.001 6.358-3.212 6.762-12.586z" fill="#d4fbff"/><path d="m62.004 5.459c-12.486 0-22.608 10.122-22.608 22.608v11.184c0 12.486 10.122 22.608 22.608 22.608 12.486 0 22.608-10.122 22.608-22.608v-11.184c.001-12.486-10.121-22.608-22.608-22.608z" fill="#fff"/><path d="m84.158 23.539c-2.097-10.316-11.218-18.08-22.154-18.08s-20.057 7.764-22.154 18.08c1.748-.302 3.813-1.448 5.765-3.364 1.154-1.134 2.134-2.404 2.899-3.701 1.219-2.065 3.54-3.229 5.923-2.964 2.366.263 4.912.407 7.567.407s5.201-.143 7.567-.407c2.383-.265 4.705.899 5.923 2.964.765 1.297 1.744 2.568 2.899 3.701 1.952 1.917 4.018 3.062 5.765 3.364z" fill="#d4fbff"/><g fill="#3a2c60"><path d="m72.012 97.337c.146.082.314.129.493.129.156 0 .312-.037.451-.107.28-.142 6.884-3.59 7.309-13.436.058-1.327-.839-2.496-2.132-2.778l-5.414-1.186c-.145-.032-.298-.031-.444.003l-5.403 1.183c-1.293.282-2.189 1.451-2.132 2.778.413 9.592 6.651 13.089 7.272 13.414zm-4.713-14.239 5.201-1.139 5.205 1.139c.341.075.577.386.562.739-.315 7.312-4.388 10.571-5.768 11.471-1.379-.883-5.443-4.098-5.762-11.471-.015-.354.221-.664.562-.739z"/><path d="m94.521 68.859c-.032-.038-.061-.076-.099-.108-4.747-5.005-10.964-8.599-17.949-10.102-.023-.006-.04-.021-.063-.026-.096-.02-.193-.031-.289-.051-.149-.03-.297-.062-.447-.09 4.634-3.304 8.026-8.235 9.337-13.955.306.093.618.142.931.142 2.45 0 4.369-2.528 4.369-5.757s-1.919-5.757-4.369-5.757c-.112 0-.22.023-.33.034v-5.121c0-13.018-10.591-23.608-23.608-23.608s-23.608 10.59-23.608 23.607v5.121c-.11-.011-.218-.034-.329-.034-2.45 0-4.369 2.528-4.369 5.757s1.919 5.757 4.369 5.757c.031 0 .062-.006.093-.007l.478 1.812c.459 1.74 1.474 3.333 3.086 4.847 1.685 2.821 3.942 5.259 6.609 7.16-.224.043-.445.092-.667.139-.027.006-.054.009-.081.014-.006.001-.01.005-.016.007-7.004 1.498-13.238 5.099-17.995 10.117-.029.026-.051.056-.077.085-5.877 6.24-9.485 14.639-9.485 23.868v23.83c0 1.448 1.032 2.66 2.399 2.939.196.04.399.062.606.062h17.771.001s.001 0 .001 0c.002 0 .003-.001.005-.001h42.415c.002 0 .003.001.005.001h.001s.001 0 .001 0h17.771c.827 0 1.578-.337 2.121-.88.544-.543.88-1.293.88-2.121v-23.83c.001-9.22-3.601-17.613-9.468-23.851zm7.469 35.278h-17.775v-18.679c0-6.326 3.631-12.03 9.302-14.737 5.262 5.826 8.474 13.538 8.474 21.989v11.427zm-62.204 13.403h-16.776c-.549-.003-.995-.449-.995-.999v-10.404h17.771zm-7.841-48.334c4.12-4.016 9.286-6.96 15.048-8.382 1.435 7.07 7.697 12.277 15.011 12.277 7.315 0 13.571-5.207 15-12.277 5.763 1.422 10.931 4.367 15.052 8.384-6.023 3.146-9.841 9.374-9.841 16.251v32.082h-40.426v-32.083c0-6.878-3.82-13.107-9.844-16.252zm43.117-8.809c-1.229 6.164-6.687 10.704-13.058 10.704-6.369 0-11.83-4.537-13.066-10.698.657-.121 1.318-.219 1.982-.298 1.088 5.192 5.688 8.997 11.082 8.997 5.397 0 9.996-3.805 11.083-8.998.66.077 1.32.173 1.977.293zm-13.06 6.704c-3.899 0-7.287-2.416-8.665-5.896 2.685 1.064 5.608 1.655 8.667 1.655 3.058 0 5.978-.591 8.662-1.653-1.377 3.478-4.765 5.894-8.664 5.894zm38.988 50.439h-16.772v-11.403h17.771v10.404c0 .276-.112.525-.293.706-.18.181-.43.293-.706.293zm-12.678-78.629c0 2.33-1.438 4.305-2.932 3.63.004-.026.005-.051.008-.077.063-.464.112-.933.148-1.405.008-.096.016-.192.022-.288.032-.503.054-1.008.054-1.519v-4.058c1.381-.335 2.7 1.506 2.7 3.717zm-26.308-32.452c11.915 0 21.608 9.693 21.608 21.608v4.283l-2.076-.61c-.129-.037-.259-.045-.384-.032-.419-3.053-3.03-5.407-6.198-5.407h-7.686c-1.92 0-3.477 1.557-3.477 3.477v.576h-3.568c-.002 0-.003.001-.005.001v-.577c0-1.92-1.557-3.477-3.477-3.477h-7.686c-3.182 0-5.804 2.375-6.205 5.448-.095-.002-.191-.007-.287.02l-2.167.602v-4.303c0-11.916 9.693-21.609 21.608-21.609zm-23.938 28.695c.11 0 .22.014.329.04v.899c-.253-.191-.536-.309-.841-.309-.581 0-1.092.399-1.428 1.01.433-.981 1.148-1.64 1.94-1.64zm-2.369 3.757c0-.141.017-.276.027-.414.018 1.27.649 2.319 1.483 2.551l.411 1.559c-1.07-.331-1.921-1.906-1.921-3.696zm10.649 15.208c1.179.385 2.419.595 3.68.595h1.876c.533 1.02 1.588 1.724 2.818 1.724 1.763 0 3.192-1.429 3.192-3.192s-1.429-3.192-3.192-3.192c-1.581 0-2.884 1.152-3.138 2.66h-1.556c-2.276 0-4.482-.786-6.212-2.215-.18-.149-.349-.298-.514-.448-1.843-3.18-2.904-6.867-2.904-10.799v-4.805l2.395-.665v.866c0 3.91 3.17 7.08 7.08 7.08h3.267c3.91 0 7.08-3.17 7.08-7.08v-2.294c.002 0 .003.001.005.001h3.568v2.293c0 3.91 3.17 7.08 7.08 7.08h3.267c3.91 0 7.08-3.17 7.08-7.08v-.916l2.395.703v4.816c0 11.914-9.693 21.607-21.608 21.607-6.159.001-11.719-2.592-15.659-6.739zm-15.861 16.601c5.672 2.707 9.304 8.411 9.304 14.738v18.679h-17.779v-11.427c0-8.452 3.212-16.164 8.475-21.99z"/><path d="m62.004 47.15c1.969 0 3.571-1.603 3.571-3.571v-1.508c0-.553-.447-1-1-1s-1 .447-1 1v1.508c0 .866-.705 1.571-1.571 1.571s-1.57-.705-1.57-1.571v-1.508c0-.553-.447-1-1-1s-1 .447-1 1v1.508c0 1.969 1.601 3.571 3.57 3.571z"/><path d="m64.575 53.071c0-.553-.447-1-1-1h-3.142c-.553 0-1 .447-1 1s.447 1 1 1h3.142c.553 0 1-.447 1-1z"/></g></svg>