<svg id="Layer_1" enable-background="new 0 0 128 128" height="512" viewBox="0 0 128 128" width="512" xmlns="http://www.w3.org/2000/svg"><path d="m116.832 92.457-8.19-18.948c-.401-.928-1.14-1.645-2.08-2.017-.938-.371-1.97-.356-2.896.044l-1.012.437v-14.97c0-5.437-4.165-9.916-9.472-10.422v-4.745-11.144c0-3.589-2.92-6.509-6.51-6.509h-9.477v-1.102c0-2.872-2.336-5.208-5.208-5.208h-.405c-2.872 0-5.208 2.336-5.208 5.208v1.102h-24.71v-1.102c0-2.872-2.336-5.208-5.208-5.208h-.405c-2.872 0-5.208 2.336-5.208 5.208v1.102h-9.477c-3.59 0-6.51 2.92-6.51 6.509v11.146 39.271c0 3.589 2.92 6.509 6.51 6.509h27.659c-.776 1.492-1.222 3.182-1.222 4.978 0 5.972 4.858 10.83 10.83 10.83h1.035c.186.739.418 1.47.726 2.184 1.495 3.458 4.248 6.128 7.751 7.517 1.684.667 3.442 1 5.201 1 1.899 0 3.798-.389 5.594-1.166l35.919-15.527c1.916-.828 2.801-3.061 1.973-4.977zm-51.629 9.097c.239-.693.748-1.29 1.472-1.603.349-.15.711-.222 1.068-.222 1.045 0 2.043.61 2.483 1.629.591 1.367-.041 2.96-1.407 3.551-1.368.589-2.961-.041-3.552-1.407-.029-.067-.042-.137-.065-.205.315-.168.537-.49.537-.872s-.221-.702-.536-.871zm35.45-44.55v15.834l-7.472 3.23v-27.472c4.201.498 7.472 4.076 7.472 8.408zm-42.02 44.421c-4.869 0-8.83-3.961-8.83-8.83 0-1.846.571-3.559 1.543-4.978h15.27c-2.909 1.572-5.154 4.085-6.388 7.195-.846 2.134-1.148 4.391-.921 6.612h-.674z" fill="#e6e7e8"/><path d="m88.182 73.59v-35.752h-76.325v39.271c0 3.043 2.466 5.509 5.509 5.509h49.929z" fill="#fff"/><path d="m82.672 21.183h-10.477v5.99c0 2.324-1.884 4.208-4.208 4.208h-.406c-2.324 0-4.208-1.884-4.208-4.208v-5.99h-26.71v5.99c0 2.324-1.884 4.208-4.208 4.208h-.406c-2.324 0-4.208-1.884-4.208-4.208v-5.99h-10.475c-3.043 0-5.509 2.466-5.509 5.509v11.146h76.324v-11.146c.001-3.042-2.466-5.509-5.509-5.509z" fill="#fa759e"/><path d="m36.664 21.183h26.71v3h-26.71z" fill="#fff"/><path d="m27.843 21.183h-10.477c-3.043 0-5.509 2.466-5.509 5.509v3c0-3.043 2.466-5.509 5.509-5.509h10.477z" fill="#fff"/><path d="m82.672 21.183h-10.477v3h10.477c3.043 0 5.509 2.466 5.509 5.509v-3c0-3.042-2.466-5.509-5.509-5.509z" fill="#fff"/><path d="m32.457 14.874h-.406c-2.324 0-4.208 1.884-4.208 4.208v8.092c0 2.324 1.884 4.208 4.208 4.208h.406c2.324 0 4.208-1.884 4.208-4.208v-8.092c-.001-2.324-1.885-4.208-4.208-4.208z" fill="#ffd7e5"/><path d="m67.988 14.874h-.406c-2.324 0-4.208 1.884-4.208 4.208v8.092c0 2.324 1.884 4.208 4.208 4.208h.406c2.324 0 4.208-1.884 4.208-4.208v-8.092c-.001-2.324-1.884-4.208-4.208-4.208z" fill="#ffd7e5"/><path d="m51.98 45.788 2.467 7.592c.276.85 1.068 1.425 1.961 1.425h7.982c1.998 0 2.828 2.556 1.212 3.73l-6.458 4.692c-.723.525-1.025 1.456-.749 2.305l2.467 7.592c.617 1.9-1.557 3.48-3.173 2.305l-6.458-4.692c-.723-.525-1.701-.525-2.424 0l-6.458 4.692c-1.616 1.174-3.79-.406-3.173-2.305l2.467-7.592c.276-.85-.026-1.78-.749-2.305l-6.458-4.692c-1.616-1.174-.786-3.73 1.212-3.73h7.982c.893 0 1.685-.575 1.961-1.425l2.467-7.592c.617-1.9 3.305-1.9 3.922 0z" fill="#fa759e"/><path d="m100.062 68.455-35.92 15.527c-6.644 2.872-9.702 10.587-6.83 17.231 2.872 6.644 10.587 9.702 17.231 6.83l35.92-15.527c1.412-.61 2.062-2.25 1.451-3.662l-8.19-18.948c-.611-1.412-2.25-2.062-3.662-1.451zm-34.846 33.373c-1.876.811-4.055-.053-4.866-1.929s.053-4.055 1.929-4.865c1.876-.811 4.055.052 4.866 1.929.81 1.875-.053 4.054-1.929 4.865z" fill="#6dc9f7"/><g fill="#fff"><path d="m76.234 89.218-3.33 1.44.923 2.135 2.784-1.204c.258-.111.476-.137.652-.076.178.062.308.188.391.381.084.194.086.375.006.545-.08.169-.246.309-.5.419l-2.785 1.204 1.189 2.75c.15.35.184.643.1.879-.084.237-.25.409-.497.516-.25.108-.491.111-.722.008-.232-.103-.423-.327-.572-.672l-2.775-6.422c-.105-.242-.154-.456-.148-.642.005-.185.069-.345.193-.482.123-.136.304-.256.544-.359l3.985-1.723c.269-.116.495-.144.678-.08.183.063.315.19.399.385.085.197.089.384.009.56s-.255.322-.524.438z"/><path d="m82.062 90.821-.592.256 1.159 2.681c.152.353.187.647.103.881-.082.234-.25.405-.5.514-.27.117-.517.12-.74.009-.223-.11-.408-.335-.554-.673l-2.776-6.422c-.157-.363-.189-.663-.096-.897.092-.234.32-.429.685-.586l2.75-1.188c.379-.164.71-.288.994-.373s.555-.124.813-.119c.31-.003.609.054.898.172.29.118.545.291.768.517.221.227.398.491.53.795.269.623.308 1.196.117 1.719-.19.524-.608 1.017-1.255 1.481.369.03.758.141 1.165.334.408.193.795.419 1.161.677.366.259.67.504.912.734.241.231.385.4.432.506.047.11.06.234.035.373-.022.139-.082.266-.176.38-.095.116-.223.208-.381.276-.189.082-.368.106-.536.073s-.328-.098-.479-.195c-.152-.096-.365-.243-.64-.44l-1.165-.834c-.422-.309-.775-.53-1.061-.663-.285-.134-.543-.197-.775-.192-.231.007-.497.074-.796.204zm-.549-3.926-1.559.674.991 2.294 1.515-.654c.405-.176.732-.358.979-.548.246-.19.406-.401.479-.633s.046-.497-.082-.792c-.1-.231-.247-.41-.44-.536-.194-.125-.414-.187-.661-.184-.233.002-.64.128-1.222.379z"/><path d="m92.174 82.328-3.81 1.646.887 2.05 3.508-1.517c.258-.111.475-.137.652-.075.178.061.307.186.389.375.082.19.086.372.014.545-.074.174-.242.317-.504.431l-3.508 1.516 1.026 2.374 3.94-1.703c.266-.115.492-.139.68-.075.189.065.328.201.416.405.085.197.088.387.006.568s-.255.33-.521.445l-4.594 1.986c-.369.159-.668.192-.9.099-.231-.093-.426-.322-.584-.687l-2.712-6.274c-.104-.242-.155-.456-.148-.642.005-.185.069-.345.193-.482.123-.136.305-.256.544-.359l4.463-1.929c.27-.117.496-.144.678-.081.184.063.316.191.4.385.085.197.088.385.009.561s-.254.321-.524.438z"/><path d="m99.95 78.966-3.809 1.646.887 2.05 3.507-1.516c.259-.112.476-.137.653-.076s.307.187.389.376.086.372.014.545c-.074.174-.242.317-.504.43l-3.508 1.516 1.026 2.374 3.939-1.703c.267-.115.493-.14.681-.074.189.064.327.2.416.405.085.197.088.387.005.569-.081.182-.254.329-.521.444l-4.594 1.986c-.369.159-.668.191-.9.099-.231-.094-.427-.323-.584-.688l-2.712-6.273c-.105-.243-.155-.457-.148-.642.005-.185.069-.346.193-.482.123-.137.305-.256.544-.359l4.463-1.93c.27-.116.495-.144.678-.08.183.063.315.19.399.385.085.197.089.384.009.56-.078.176-.252.321-.523.438z"/></g><path d="m50.541 37.838c0-.552-.447-1-1-1h-6.515c-.553 0-1 .448-1 1s.447 1 1 1h6.515c.553 0 1-.447 1-1z" fill="#3a2c60"/><path d="m112.832 88.457-8.19-18.948c-.828-1.915-3.062-2.8-4.977-1.973l-1.011.437v-14.969c0-5.437-4.166-9.916-9.473-10.422v-4.745-11.145c0-.255-.018-.505-.047-.753-.002-.015-.005-.029-.007-.044-.395-3.214-3.136-5.712-6.455-5.712h-9.478v-1.102c0-2.872-2.336-5.208-5.207-5.208h-.406c-2.872 0-5.208 2.336-5.208 5.208v1.102h-24.71v-1.102c0-2.872-2.336-5.208-5.207-5.208h-.406c-2.871 0-5.207 2.336-5.207 5.208v1.102h-9.478c-3.589 0-6.509 2.92-6.509 6.509v8.974 2.172 39.271c0 3.589 2.92 6.509 6.509 6.509h27.658c-.776 1.492-1.222 3.182-1.222 4.977 0 5.972 4.858 10.83 10.83 10.83h1.039c.184.735.412 1.466.722 2.184 2.301 5.322 7.508 8.509 12.968 8.509 1.865 0 3.76-.372 5.577-1.158l35.921-15.526c1.917-.829 2.802-3.061 1.974-4.977zm-16.178-35.453v15.834l-7.473 3.23v-27.471c4.202.497 7.473 4.075 7.473 8.407zm-32.28-33.923c0-1.769 1.439-3.208 3.208-3.208h.406c1.769 0 3.207 1.439 3.207 3.208v8.092c0 1.769-1.438 3.208-3.207 3.208h-.406c-1.769 0-3.208-1.439-3.208-3.208zm-35.53 0c0-1.769 1.438-3.208 3.207-3.208h.406c1.769 0 3.207 1.439 3.207 3.208v8.092c0 1.769-1.438 3.208-3.207 3.208h-.406c-1.769 0-3.207-1.439-3.207-3.208zm-11.478 62.538c-2.486 0-4.509-2.023-4.509-4.509v-38.272h25.483c.553 0 1-.448 1-1s-.447-1-1-1h-25.483v-1.172-8.974c0-2.486 2.022-4.509 4.509-4.509h9.478v4.99c0 2.872 2.336 5.208 5.207 5.208h.406c2.871 0 5.207-2.336 5.207-5.208v-4.99h24.71v4.99c0 2.872 2.336 5.208 5.208 5.208h.406c2.871 0 5.207-2.336 5.207-5.208v-4.99h9.478c2.486 0 4.509 2.022 4.509 4.509v8.974 1.172h-33.079c-.553 0-1 .448-1 1s.447 1 1 1h33.078v34.094l-11.181 4.833h-21.367c-3.314 0-6.282 1.5-8.27 3.853h-28.997zm49.722 0h-17.847c1.493-1.157 3.361-1.853 5.391-1.853h16.741zm-12.455 15.807c-4.869 0-8.83-3.961-8.83-8.83 0-1.845.571-3.559 1.543-4.977h15.276c-5.065 2.742-7.866 8.258-7.311 13.807zm55.433-5.828-35.92 15.526c-6.125 2.646-13.267-.18-15.916-6.309-.197-.456-.355-.921-.494-1.39h1.417c.065.295.157.586.279.87.498 1.153 1.415 2.042 2.582 2.505.562.223 1.148.333 1.734.333.633 0 1.265-.129 1.863-.388 1.153-.499 2.043-1.416 2.505-2.583.463-1.167.443-2.445-.055-3.598s-1.415-2.042-2.582-2.505c-1.168-.463-2.444-.444-3.598.055s-2.043 1.416-2.505 2.583c-.094.238-.155.482-.209.728h-1.852c-.234-1.97.021-3.979.773-5.875 1.191-3.006 3.482-5.368 6.45-6.651l35.919-15.527c.904-.39 1.957.026 2.348.931l8.19 18.948c.392.904-.025 1.956-.929 2.347zm-48.864 5.956c.014-.039.019-.08.034-.119.267-.67.777-1.198 1.439-1.484.344-.149.707-.223 1.071-.223.337 0 .674.064.996.191.671.266 1.197.777 1.483 1.439s.298 1.396.032 2.067c-.267.67-.777 1.198-1.439 1.484-.663.287-1.396.297-2.067.032-.671-.266-1.197-.777-1.483-1.439-.029-.067-.042-.137-.066-.205.315-.168.536-.489.536-.871.001-.383-.221-.704-.536-.872z" fill="#3a2c60"/></svg>