<svg id="Layer_1" enable-background="new 0 0 128 128" height="512" viewBox="0 0 128 128" width="512" xmlns="http://www.w3.org/2000/svg"><path d="m119.31 42.556c1.214-.27 2.095-1.389 2.095-2.662v-5.341c0-1.513-1.231-2.745-2.745-2.745h-105.319c-1.514 0-2.745 1.231-2.745 2.745v5.341c0 1.272.881 2.392 2.095 2.662 2.27.505 3.917 2.563 3.917 4.892s-1.647 4.387-3.917 4.892c-1.214.27-2.095 1.389-2.095 2.662v3.445c0 1.272.881 2.392 2.095 2.662 2.27.505 3.917 2.563 3.917 4.892s-1.647 4.387-3.917 4.892c-1.214.27-2.095 1.389-2.095 2.662v3.445c0 1.272.881 2.392 2.095 2.662 2.27.505 3.917 2.563 3.917 4.892s-1.647 4.387-3.917 4.892c-1.214.27-2.095 1.389-2.095 2.662v5.341c0 1.513 1.231 2.745 2.745 2.745h105.318c1.514 0 2.745-1.231 2.745-2.745v-5.341c0-1.272-.881-2.392-2.095-2.662-2.27-.505-3.917-2.563-3.917-4.892s1.647-4.387 3.917-4.892c1.214-.27 2.095-1.389 2.095-2.662v-3.445c0-1.272-.881-2.392-2.095-2.662-2.27-.505-3.917-2.563-3.917-4.892s1.647-4.387 3.917-4.892c1.214-.27 2.095-1.389 2.095-2.662v-3.445c0-1.272-.881-2.392-2.095-2.662-2.27-.505-3.917-2.563-3.917-4.892s1.648-4.387 3.918-4.892z" fill="#e6e7e8"/><path d="m116.404 35.894v-5.341c0-.964-.781-1.745-1.745-1.745h-105.319c-.964 0-1.745.781-1.745 1.745v5.341c0 .796.535 1.513 1.312 1.686 2.689.599 4.7 2.999 4.7 5.868 0 2.87-2.011 5.27-4.7 5.868-.777.173-1.312.89-1.312 1.686v3.444c0 .796.535 1.513 1.312 1.686 2.689.599 4.7 2.999 4.7 5.868 0 2.87-2.011 5.27-4.7 5.868-.777.173-1.312.89-1.312 1.686v3.444c0 .796.535 1.513 1.312 1.686 2.689.599 4.7 2.998 4.7 5.868s-2.011 5.27-4.7 5.868c-.777.173-1.312.89-1.312 1.686v5.341c0 .964.781 1.745 1.745 1.745h105.32c.964 0 1.745-.781 1.745-1.745v-5.341c0-.796-.535-1.513-1.312-1.686-2.689-.599-4.7-2.999-4.7-5.868 0-2.87 2.011-5.27 4.7-5.868.777-.173 1.312-.89 1.312-1.686v-3.445c0-.796-.535-1.513-1.312-1.686-2.689-.599-4.7-2.999-4.7-5.868s2.011-5.27 4.7-5.868c.777-.173 1.312-.89 1.312-1.686v-3.445c0-.796-.535-1.513-1.312-1.686-2.689-.599-4.7-2.998-4.7-5.868s2.011-5.27 4.7-5.868c.777-.171 1.311-.888 1.311-1.684zm-83.436 53.106c-1.657 0-3-1.343-3-3s1.343-3 3-3 3 1.343 3 3-1.343 3-3 3zm0-12c-1.657 0-3-1.343-3-3s1.343-3 3-3 3 1.343 3 3-1.343 3-3 3zm0-12c-1.657 0-3-1.343-3-3s1.343-3 3-3 3 1.343 3 3-1.343 3-3 3zm0-12c-1.657 0-3-1.343-3-3s1.343-3 3-3 3 1.343 3 3-1.343 3-3 3zm0-12c-1.657 0-3-1.343-3-3s1.343-3 3-3 3 1.343 3 3-1.343 3-3 3z" fill="#fff"/><path d="m8.907 37.58c2.689.599 4.7 2.999 4.7 5.868 0 2.87-2.011 5.27-4.7 5.868-.777.173-1.312.89-1.312 1.686v3.445c0 .796.535 1.513 1.312 1.686 2.689.599 4.7 2.999 4.7 5.868 0 2.87-2.011 5.27-4.7 5.868-.777.173-1.312.89-1.312 1.686v3.445c0 .796.535 1.513 1.312 1.686 2.689.599 4.7 2.998 4.7 5.868s-2.011 5.27-4.7 5.868c-.777.173-1.312.89-1.312 1.686v5.341c0 .964.781 1.745 1.745 1.745h105.32c.964 0 1.745-.781 1.745-1.745v-5.341c0-.796-.535-1.513-1.312-1.686-2.689-.599-4.7-2.999-4.7-5.868s2.011-5.27 4.7-5.868c.777-.173 1.312-.89 1.312-1.686v-3.445c0-.796-.535-1.513-1.312-1.686-2.689-.599-4.7-2.999-4.7-5.868 0-2.87 2.011-5.27 4.7-5.868.777-.173 1.312-.89 1.312-1.686v-3.445c0-.796-.535-1.513-1.312-1.686-2.689-.599-4.7-2.998-4.7-5.868s2.011-5.27 4.7-5.868c.777-.173 1.312-.89 1.312-1.686v-.894-1.447c0-.964-.781-1.745-1.745-1.745h-105.32c-.964 0-1.745.781-1.745 1.745v1.447.894c.001.796.535 1.513 1.312 1.686zm24.061-2.58c1.657 0 3 1.343 3 3s-1.343 3-3 3-3-1.343-3-3 1.343-3 3-3zm0 12c1.657 0 3 1.343 3 3s-1.343 3-3 3-3-1.343-3-3 1.343-3 3-3zm0 12c1.657 0 3 1.343 3 3s-1.343 3-3 3-3-1.343-3-3 1.343-3 3-3zm0 12c1.657 0 3 1.343 3 3s-1.343 3-3 3-3-1.343-3-3 1.343-3 3-3zm0 12c1.657 0 3 1.343 3 3s-1.343 3-3 3-3-1.343-3-3 1.343-3 3-3z" fill="#fa759e"/><circle cx="32.968" cy="62" fill="#fff" r="3"/><circle cx="32.968" cy="74" fill="#fff" r="3"/><circle cx="32.968" cy="86" fill="#fff" r="3"/><circle cx="32.968" cy="38" fill="#fff" r="3"/><circle cx="32.968" cy="50" fill="#fff" r="3"/><path d="m115.31 38.556c1.214-.27 2.095-1.389 2.095-2.662v-5.341c0-1.513-1.231-2.745-2.745-2.745h-28.91c-.553 0-1 .448-1 1s.447 1 1 1h28.909c.411 0 .745.334.745.745v5.341c0 .343-.223.641-.528.709-3.178.707-5.483 3.585-5.483 6.844s2.306 6.137 5.483 6.844c.306.068.528.367.528.709v3.445c0 .343-.223.641-.528.709-3.178.707-5.483 3.585-5.483 6.844s2.306 6.137 5.483 6.844c.306.068.528.367.528.709v3.445c0 .343-.223.641-.528.709-3.178.707-5.483 3.585-5.483 6.844s2.306 6.137 5.483 6.844c.306.068.528.367.528.709v5.341c0 .411-.334.745-.745.745h-105.318c-.411 0-.745-.334-.745-.745v-5.341c0-.343.223-.641.528-.709 3.178-.707 5.483-3.585 5.483-6.844s-2.306-6.137-5.483-6.844c-.306-.068-.528-.367-.528-.709v-3.445c0-.343.223-.641.528-.709 3.178-.707 5.483-3.585 5.483-6.844s-2.306-6.137-5.483-6.844c-.306-.068-.528-.367-.528-.709v-3.445c0-.343.223-.641.528-.709 3.178-.707 5.483-3.585 5.483-6.844s-2.306-6.137-5.483-6.844c-.306-.068-.528-.367-.528-.709v-5.341c0-.411.334-.745.745-.745h56.909c.553 0 1-.448 1-1s-.447-1-1-1h-56.909c-1.514 0-2.745 1.231-2.745 2.745v5.341c0 1.272.881 2.392 2.095 2.662 2.27.505 3.917 2.563 3.917 4.892s-1.648 4.386-3.918 4.892c-1.214.27-2.095 1.389-2.095 2.662v3.445c0 1.272.881 2.392 2.095 2.662 2.27.505 3.917 2.563 3.917 4.892s-1.647 4.387-3.917 4.892c-1.214.27-2.095 1.389-2.095 2.662v3.445c0 1.272.881 2.392 2.095 2.662 2.27.505 3.917 2.563 3.917 4.892s-1.647 4.387-3.917 4.892c-1.214.27-2.095 1.389-2.095 2.662v5.341c0 1.513 1.231 2.745 2.745 2.745h105.318c1.514 0 2.745-1.231 2.745-2.745v-5.341c0-1.272-.881-2.392-2.095-2.662-2.27-.505-3.917-2.563-3.917-4.892s1.647-4.387 3.917-4.892c1.214-.27 2.095-1.389 2.095-2.662v-3.445c0-1.272-.881-2.392-2.095-2.662-2.27-.505-3.917-2.563-3.917-4.892s1.647-4.387 3.917-4.892c1.214-.27 2.095-1.389 2.095-2.662v-3.445c0-1.272-.881-2.392-2.095-2.662-2.27-.505-3.917-2.563-3.917-4.892s1.649-4.387 3.919-4.892z" fill="#3a2c60"/><path d="m71 29.809h10c.553 0 1-.448 1-1s-.447-1-1-1h-10c-.553 0-1 .448-1 1s.447 1 1 1z" fill="#3a2c60"/><path d="m32.968 70c-2.206 0-4 1.794-4 4s1.794 4 4 4 4-1.794 4-4-1.794-4-4-4zm0 6c-1.103 0-2-.897-2-2s.897-2 2-2 2 .897 2 2-.898 2-2 2z" fill="#3a2c60"/><path d="m32.968 34c-2.206 0-4 1.794-4 4s1.794 4 4 4 4-1.794 4-4-1.794-4-4-4zm0 6c-1.103 0-2-.897-2-2s.897-2 2-2 2 .897 2 2-.898 2-2 2z" fill="#3a2c60"/><path d="m32.968 46c-2.206 0-4 1.794-4 4s1.794 4 4 4 4-1.794 4-4-1.794-4-4-4zm0 6c-1.103 0-2-.897-2-2s.897-2 2-2 2 .897 2 2-.898 2-2 2z" fill="#3a2c60"/><path d="m32.968 82c-2.206 0-4 1.794-4 4s1.794 4 4 4 4-1.794 4-4-1.794-4-4-4zm0 6c-1.103 0-2-.897-2-2s.897-2 2-2 2 .897 2 2-.898 2-2 2z" fill="#3a2c60"/><path d="m32.968 58c-2.206 0-4 1.794-4 4s1.794 4 4 4 4-1.794 4-4-1.794-4-4-4zm0 6c-1.103 0-2-.897-2-2s.897-2 2-2 2 .897 2 2-.898 2-2 2z" fill="#3a2c60"/><g fill="#fff"><path d="m56.748 65.819h-5.762v3.694h4.816c.446 0 .78.1 1 .301.22.2.33.468.33.803s-.112.601-.335.798-.555.296-.995.296h-4.816v4.757c0 .605-.136 1.053-.409 1.345s-.623.438-1.049.438c-.434 0-.786-.147-1.059-.443s-.409-.742-.409-1.34v-11.112c0-.42.062-.763.187-1.029s.321-.459.586-.581.606-.182 1.02-.182h6.895c.466 0 .813.103 1.039.31.227.207.341.478.341.812 0 .341-.114.616-.341.822-.226.208-.572.311-1.039.311z"/><path d="m64.234 71.828h-1.024v4.639c0 .611-.134 1.061-.403 1.349-.27.289-.622.434-1.054.434-.466 0-.828-.151-1.084-.453-.255-.302-.383-.746-.383-1.33v-11.111c0-.63.141-1.087.423-1.369.282-.283.739-.424 1.369-.424h4.757c.657 0 1.218.028 1.685.083.466.056.886.169 1.261.34.454.19.853.463 1.202.817.348.355.612.767.792 1.236.181.47.271.967.271 1.492 0 1.077-.304 1.938-.911 2.581-.607.644-1.529 1.1-2.764 1.369.519.276 1.015.683 1.488 1.221.472.538.894 1.112 1.265 1.718.371.607.66 1.156.867 1.645s.31.826.31 1.01c0 .19-.061.379-.182.566-.122.187-.288.335-.497.444-.21.108-.454.162-.73.162-.328 0-.604-.077-.827-.231s-.416-.35-.576-.586c-.161-.237-.38-.585-.656-1.045l-1.171-1.95c-.421-.716-.797-1.261-1.128-1.636-.333-.374-.669-.63-1.01-.768-.341-.134-.771-.203-1.29-.203zm1.674-6.067h-2.698v3.969h2.62c.703 0 1.294-.061 1.773-.182s.846-.328 1.099-.62.38-.694.38-1.207c0-.401-.102-.754-.305-1.059s-.486-.533-.847-.685c-.344-.144-1.017-.216-2.022-.216z"/><path d="m84.327 65.819h-6.589v3.546h6.068c.446 0 .78.1 1 .3s.33.465.33.793-.108.596-.325.803c-.216.207-.551.311-1.005.311h-6.068v4.107h6.816c.459 0 .806.107 1.04.32.233.213.349.498.349.852 0 .342-.116.619-.349.832-.234.213-.58.32-1.04.32h-7.949c-.637 0-1.095-.141-1.374-.424-.28-.282-.419-.738-.419-1.369v-10.854c0-.42.062-.763.188-1.029.125-.266.32-.459.585-.581.267-.122.606-.182 1.02-.182h7.722c.466 0 .813.103 1.04.31s.34.478.34.812c0 .341-.113.616-.34.822s-.573.311-1.04.311z"/><path d="m97.782 65.819h-6.589v3.546h6.068c.446 0 .78.1 1 .3s.33.465.33.793-.108.596-.325.803c-.216.207-.551.311-1.005.311h-6.068v4.107h6.816c.459 0 .806.107 1.04.32.233.213.349.498.349.852 0 .342-.116.619-.349.832-.234.213-.58.32-1.04.32h-7.949c-.637 0-1.095-.141-1.374-.424-.28-.282-.419-.738-.419-1.369v-10.854c0-.42.062-.763.188-1.029.125-.266.32-.459.585-.581.267-.122.606-.182 1.02-.182h7.722c.466 0 .813.103 1.04.31s.34.478.34.812c0 .341-.113.616-.34.822s-.574.311-1.04.311z"/><path d="m54.721 47.292.666 2.048c.091.28.352.47.646.47h2.154c.658 0 .932.842.399 1.229l-1.742 1.266c-.238.173-.338.48-.247.76l.666 2.048c.203.626-.513 1.147-1.046.76l-1.742-1.266c-.238-.173-.561-.173-.799 0l-1.742 1.266c-.533.387-1.249-.134-1.046-.76l.666-2.048c.091-.28-.009-.587-.247-.76l-1.742-1.266c-.533-.387-.259-1.229.399-1.229h2.154c.294 0 .555-.19.646-.47l.666-2.048c.202-.626 1.087-.626 1.291 0z"/><path d="m74.211 45.889.892 2.745c.122.375.472.629.866.629h2.886c.882 0 1.249 1.129.535 1.648l-2.335 1.697c-.319.232-.453.643-.331 1.018l.892 2.745c.273.839-.688 1.537-1.402 1.018l-2.335-1.697c-.319-.232-.752-.232-1.071 0l-2.335 1.697c-.714.519-1.674-.179-1.402-1.018l.892-2.745c.122-.375-.012-.786-.331-1.018l-2.335-1.697c-.714-.519-.347-1.648.535-1.648h2.886c.395 0 .744-.254.866-.629l.892-2.745c.275-.839 1.463-.839 1.735 0z"/><path d="m93.262 47.292.666 2.048c.091.28.352.47.646.47h2.154c.658 0 .932.842.399 1.229l-1.742 1.266c-.238.173-.338.48-.247.76l.666 2.048c.203.626-.513 1.147-1.046.76l-1.742-1.266c-.238-.173-.561-.173-.799 0l-1.742 1.266c-.533.387-1.249-.134-1.046-.76l.666-2.048c.091-.28-.009-.587-.247-.76l-1.742-1.266c-.533-.387-.259-1.229.399-1.229h2.154c.294 0 .555-.19.646-.47l.666-2.048c.202-.626 1.088-.626 1.291 0z"/></g></svg>