<svg id="Layer_1" enable-background="new 0 0 128 128" height="512" viewBox="0 0 128 128" width="512" xmlns="http://www.w3.org/2000/svg"><path d="m114.94 16.324h-14.733v-1.953c0-4.029-3.277-7.307-7.307-7.307h-.608c-4.028 0-7.306 3.277-7.306 7.307v1.953h-38.033v-1.953c0-4.029-3.277-7.307-7.307-7.307h-.607c-4.029 0-7.307 3.277-7.307 7.307v1.953h-14.672c-5.104 0-9.257 4.152-9.257 9.257v16.705 58.859c0 5.104 4.152 9.257 9.257 9.257h62.435l-2.356 9.177c-.101.393.045.806.368 1.049.324.242.763.267 1.109.061l9.201-5.442 5.443 9.199c.182.308.511.491.86.491.047 0 .094-.003.141-.01.4-.058.728-.35.828-.741l1.864-7.261 1.864 7.261c.101.392.428.684.828.741.047.007.094.01.141.01.35 0 .679-.184.86-.491l5.443-9.199 9.201 5.442c.347.206.785.183 1.109-.061.323-.243.469-.656.368-1.049l-2.356-9.177h.526c5.104 0 9.257-4.152 9.257-9.257v-58.859-16.705c.003-5.105-4.15-9.257-9.254-9.257z" fill="#e6e7e8"/><path d="m110.941 13.324h-97.88c-4.56 0-8.257 3.697-8.257 8.257v75.564c0 4.56 3.697 8.257 8.257 8.257h97.881c4.56 0 8.257-3.697 8.257-8.257v-75.564c-.001-4.56-3.698-8.257-8.258-8.257z" fill="#fff"/><path d="m110.94 13.324h-97.88c-4.56 0-8.257 3.697-8.257 8.257v16.705h114.394v-16.705c0-4.56-3.697-8.257-8.257-8.257z" fill="#fa759e"/><path d="m110.94 13.324h-97.88c-4.56 0-8.257 3.697-8.257 8.257v3c0-4.56 3.697-8.257 8.257-8.257h97.881c4.56 0 8.257 3.697 8.257 8.257v-3c-.001-4.56-3.698-8.257-8.258-8.257z" fill="#fff"/><path d="m35.646 4.064h-.608c-3.483 0-6.306 2.823-6.306 6.306v12.128c0 3.483 2.823 6.306 6.306 6.306h.608c3.483 0 6.306-2.823 6.306-6.306v-12.127c.001-3.483-2.823-6.307-6.306-6.307z" fill="#ffd7e5"/><path d="m88.9 4.064h-.608c-3.483 0-6.306 2.823-6.306 6.306v12.128c0 3.483 2.823 6.306 6.306 6.306h.608c3.483 0 6.306-2.823 6.306-6.306v-12.127c0-3.483-2.823-6.307-6.306-6.307z" fill="#ffd7e5"/><path d="m27.458 44.288h-8.412c-1.042 0-1.888.845-1.888 1.887v8.412c0 1.042.845 1.887 1.888 1.887h8.412c1.042 0 1.888-.845 1.888-1.887v-8.412c-.001-1.042-.846-1.887-1.888-1.887z" fill="#6dc9f7"/><path d="m46.824 44.288h-8.412c-1.042 0-1.888.845-1.888 1.887v8.412c0 1.042.845 1.887 1.888 1.887h8.412c1.042 0 1.888-.845 1.888-1.887v-8.412c0-1.042-.845-1.887-1.888-1.887z" fill="#6dc9f7"/><path d="m66.191 44.288h-8.412c-1.042 0-1.888.845-1.888 1.887v8.412c0 1.042.845 1.887 1.888 1.887h8.412c1.042 0 1.888-.845 1.888-1.887v-8.412c0-1.042-.845-1.887-1.888-1.887z" fill="#6dc9f7"/><path d="m85.558 44.288h-8.412c-1.042 0-1.888.845-1.888 1.887v8.412c0 1.042.845 1.887 1.888 1.887h8.412c1.042 0 1.888-.845 1.888-1.887v-8.412c-.001-1.042-.846-1.887-1.888-1.887z" fill="#6dc9f7"/><path d="m104.924 44.288h-8.412c-1.042 0-1.888.845-1.888 1.887v8.412c0 1.042.845 1.887 1.888 1.887h8.412c1.042 0 1.888-.845 1.888-1.887v-8.412c0-1.042-.845-1.887-1.888-1.887z" fill="#6dc9f7"/><path d="m27.458 64.288h-8.412c-1.042 0-1.888.845-1.888 1.887v8.412c0 1.042.845 1.887 1.888 1.887h8.412c1.042 0 1.888-.845 1.888-1.887v-8.412c-.001-1.042-.846-1.887-1.888-1.887z" fill="#fa759e"/><g fill="#6dc9f7"><path d="m46.824 64.288h-8.412c-1.042 0-1.888.845-1.888 1.887v8.412c0 1.042.845 1.887 1.888 1.887h8.412c1.042 0 1.888-.845 1.888-1.887v-8.412c0-1.042-.845-1.887-1.888-1.887z"/><path d="m66.191 64.288h-8.412c-1.042 0-1.888.845-1.888 1.887v8.412c0 1.042.845 1.887 1.888 1.887h8.412c1.042 0 1.888-.845 1.888-1.887v-8.412c0-1.042-.845-1.887-1.888-1.887z"/><path d="m27.458 84.288h-8.412c-1.042 0-1.888.845-1.888 1.887v8.412c0 1.042.845 1.887 1.888 1.887h8.412c1.042 0 1.888-.845 1.888-1.887v-8.412c-.001-1.042-.846-1.887-1.888-1.887z"/><path d="m46.824 84.288h-8.412c-1.042 0-1.888.845-1.888 1.887v8.412c0 1.042.845 1.887 1.888 1.887h8.412c1.042 0 1.888-.845 1.888-1.887v-8.412c0-1.042-.845-1.887-1.888-1.887z"/><path d="m66.191 84.288h-8.412c-1.042 0-1.888.845-1.888 1.887v8.412c0 1.042.845 1.887 1.888 1.887h8.412c1.042 0 1.888-.845 1.888-1.887v-8.412c0-1.042-.845-1.887-1.888-1.887z"/><path d="m85.558 84.288h-8.412c-1.042 0-1.888.845-1.888 1.887v8.412c0 1.042.845 1.887 1.888 1.887h8.412c1.042 0 1.888-.845 1.888-1.887v-8.412c-.001-1.042-.846-1.887-1.888-1.887z"/></g><path d="m92.378 95.736c-3.441 0-6.403-2.015-7.794-4.925-1.332.354-2.73.371-4.074.079l-6.402 24.938 10.061-5.952 5.952 10.061 6.502-25.326c-1.253.711-2.699 1.125-4.245 1.125z" fill="#0089ef"/><path d="m99.852 91.421c-1.496 2.577-4.279 4.315-7.474 4.315-1.037 0-2.022-.202-2.942-.538l6.351 24.738 5.952-10.061 10.061 5.952-6.26-24.385c-1.841.629-3.85.628-5.688-.021z" fill="#0089ef"/><path d="m116.005 73.262c0-3.195-1.738-5.978-4.315-7.474 1.074-3.041.404-6.561-2.029-8.994-2.259-2.259-5.456-2.998-8.336-2.234-1.391-2.91-4.353-4.925-7.794-4.925-3.195 0-5.978 1.738-7.474 4.315-3.041-1.074-6.561-.404-8.994 2.029-2.259 2.259-2.998 5.456-2.234 8.336-2.91 1.391-4.925 4.353-4.925 7.794 0 3.195 1.738 5.978 4.315 7.474-1.074 3.041-.404 6.561 2.029 8.994 2.259 2.259 5.456 2.998 8.336 2.233 1.391 2.91 4.354 4.925 7.794 4.925 3.195 0 5.978-1.738 7.474-4.315 3.041 1.074 6.561.404 8.994-2.029 2.259-2.259 2.998-5.456 2.234-8.336 2.91-1.39 4.925-4.353 4.925-7.793z" fill="#fa759e"/><path d="m41.722 104.402h-10.751c-.553 0-1 .447-1 1s.447 1 1 1h10.751c.553 0 1-.447 1-1s-.447-1-1-1z" fill="#3a2c60"/><path d="m110.94 12.324h-14.733v-1.953c0-4.029-3.277-7.307-7.307-7.307h-.608c-4.028 0-7.306 3.277-7.306 7.307v1.953h-38.033v-1.953c0-4.029-3.277-7.307-7.307-7.307h-.607c-4.029 0-7.307 3.277-7.307 7.307v1.953h-14.672c-5.104 0-9.257 4.152-9.257 9.257v75.564c0 5.104 4.152 9.257 9.257 9.257h12.357c.553 0 1-.447 1-1s-.447-1-1-1h-12.357c-4.001 0-7.257-3.256-7.257-7.257v-57.859h112.394v57.859c0 4.001-3.256 7.257-7.257 7.257h-1.039l-3.176-12.369c1.037-.469 2.003-1.108 2.828-1.934 2.229-2.229 3.216-5.431 2.666-8.517 2.932-1.718 4.786-4.902 4.786-8.321 0-3.152-1.567-6.113-4.138-7.907.859-3.287-.081-6.85-2.499-9.268-2.229-2.229-5.43-3.213-8.518-2.666-1.717-2.932-4.9-4.786-8.32-4.786-3.152 0-6.113 1.567-7.908 4.138-3.288-.856-6.851.082-9.267 2.5-2.229 2.228-3.216 5.43-2.667 8.517-2.931 1.718-4.785 4.901-4.785 8.32 0 3.153 1.566 6.115 4.138 7.908-.858 3.286.081 6.849 2.499 9.268 1.068 1.068 2.362 1.841 3.757 2.306l-3.289 12.811h-28.756c-.553 0-1 .447-1 1s.447 1 1 1h28.243l-2.356 9.177c-.101.393.045.806.368 1.049.324.242.762.267 1.109.061l9.201-5.442 5.443 9.199c.182.308.511.491.86.491.047 0 .094-.003.141-.01.4-.058.728-.35.828-.741l1.864-7.261 1.864 7.261c.101.392.428.684.828.741.047.007.094.01.141.01.35 0 .679-.184.86-.491l5.443-9.199 9.201 5.442c.347.207.786.183 1.109-.061s.469-.656.368-1.049l-2.356-9.177h.526c5.104 0 9.257-4.152 9.257-9.257v-75.564c.003-5.105-4.15-9.257-9.254-9.257zm-35.777 67.593c.16-.453-.025-.957-.441-1.198-2.354-1.366-3.817-3.898-3.817-6.609 0-2.921 1.71-5.626 4.356-6.892.434-.208.658-.694.535-1.158-.698-2.633.059-5.458 1.975-7.373 2.065-2.065 5.187-2.77 7.953-1.793.453.159.956-.024 1.197-.441 1.368-2.354 3.901-3.817 6.61-3.817 2.922 0 5.627 1.71 6.892 4.357.207.433.689.655 1.159.535 2.628-.698 5.455.057 7.373 1.974 2.065 2.065 2.77 5.188 1.792 7.954-.159.453.025.956.441 1.198 2.354 1.366 3.817 3.898 3.817 6.608 0 2.922-1.71 5.627-4.357 6.893-.434.208-.658.694-.535 1.159.699 2.631-.058 5.456-1.974 7.372-2.065 2.066-5.191 2.771-7.954 1.792-.452-.156-.956.025-1.198.441-1.366 2.354-3.898 3.817-6.608 3.817-2.922 0-5.627-1.71-6.892-4.356-.169-.354-.524-.568-.902-.568-.085 0-.171.011-.257.033-2.629.696-5.457-.058-7.373-1.974-2.066-2.067-2.77-5.189-1.792-7.954zm14.59 37.432-4.724-7.982c-.187-.316-.52-.491-.861-.491-.173 0-.349.045-.508.14l-7.983 4.723 5.574-21.712c.003 0 .007-.006.01-.007.924.106 1.865.097 2.796-.069 1.054 1.799 2.663 3.186 4.537 3.994l3.327 12.957zm12.496-8.334c-.473-.281-1.088-.125-1.369.352l-4.724 7.982-5.327-20.747c.003 0 .005-.006.007-.007.507.084 1.02.141 1.543.141 3.152 0 6.114-1.567 7.907-4.138 1.497.392 3.047.392 4.524.067.005.003.012.015.016.014l5.406 21.059zm-19.263-98.644c0-2.926 2.38-5.307 5.306-5.307h.608c2.926 0 5.307 2.381 5.307 5.307v12.128c0 2.926-2.381 5.307-5.307 5.307h-.608c-2.926 0-5.306-2.381-5.306-5.307zm-53.254 0c0-2.926 2.381-5.307 5.307-5.307h.607c2.926 0 5.307 2.381 5.307 5.307v12.128c0 2.926-2.381 5.307-5.307 5.307h-.607c-2.926 0-5.307-2.381-5.307-5.307zm88.465 26.915h-112.394v-15.705c0-4.001 3.256-7.257 7.257-7.257h14.672v8.175c0 4.029 3.277 7.307 7.307 7.307h.607c4.029 0 7.307-3.277 7.307-7.307v-8.175h38.033v8.175c0 4.029 3.277 7.307 7.306 7.307h.608c4.029 0 7.307-3.277 7.307-7.307v-8.175h14.733c4.001 0 7.257 3.256 7.257 7.257v14.587z" fill="#3a2c60"/><ellipse cx="92.954" cy="72.685" fill="#fff" rx="15.703" ry="15.703" transform="matrix(.987 -.16 .16 .987 -10.443 15.828)"/><path d="m94.548 62.18 2.022 4.098c.259.525.759.888 1.338.972l4.522.657c1.458.212 2.04 2.003.985 3.032l-3.272 3.19c-.419.408-.61.997-.511 1.573l.772 4.504c.249 1.452-1.275 2.559-2.579 1.874l-4.045-2.126c-.518-.272-1.136-.272-1.654 0l-4.045 2.126c-1.304.685-2.828-.422-2.579-1.874l.772-4.504c.099-.577-.092-1.165-.511-1.573l-3.272-3.19c-1.055-1.028-.473-2.82.985-3.032l4.524-.657c.579-.084 1.079-.448 1.338-.972l2.022-4.098c.653-1.321 2.536-1.321 3.188 0z" fill="#fa759e"/></svg>