<svg id="Layer_1" enable-background="new 0 0 128 128" height="512" viewBox="0 0 128 128" width="512" xmlns="http://www.w3.org/2000/svg"><path d="m50.102 39.697c.249 0 .498-.092.691-.277.399-.382.413-1.015.031-1.414-7.982-8.34-7.689-21.62.651-29.602.399-.382.413-1.015.031-1.414s-1.015-.412-1.414-.031c-9.138 8.745-9.458 23.292-.714 32.43.198.204.46.308.724.308z" fill="#e6e7e8"/><path d="m52.991 35.931c.197.205.459.309.723.309.249 0 .498-.092.691-.277.399-.382.413-1.015.031-1.414-6.075-6.349-5.853-16.457.496-22.532.399-.382.413-1.015.031-1.414-.383-.398-1.015-.412-1.414-.031-7.145 6.837-7.395 18.213-.558 25.359z" fill="#e6e7e8"/><path d="m56.604 32.474c.197.205.459.309.723.309.249 0 .498-.092.691-.277.399-.382.413-1.015.031-1.414-2.017-2.107-3.091-4.877-3.027-7.802.064-2.924 1.261-5.645 3.368-7.661.399-.382.413-1.015.031-1.414-.383-.399-1.015-.413-1.414-.031-2.493 2.386-3.908 5.604-3.984 9.063-.076 3.456 1.196 6.734 3.581 9.227z" fill="#e6e7e8"/><path d="m81.176 38.005c-.382.399-.368 1.032.031 1.414.193.185.442.277.691.277.263 0 .526-.104.723-.309 8.743-9.138 8.424-23.685-.714-32.43-.397-.38-1.032-.368-1.414.031s-.368 1.032.031 1.414c8.341 7.983 8.633 21.262.652 29.603z" fill="#e6e7e8"/><path d="m81.975 23.179c.094 4.261-1.473 8.298-4.411 11.369-.382.399-.368 1.032.031 1.414.193.185.442.277.691.277.263 0 .526-.104.723-.309 6.838-7.145 6.587-18.521-.559-25.36-.397-.38-1.032-.368-1.414.031s-.368 1.032.031 1.414c3.071 2.939 4.813 6.904 4.908 11.164z" fill="#e6e7e8"/><path d="m76.978 23.289c.065 2.924-1.01 5.695-3.026 7.802-.382.399-.368 1.032.031 1.414.193.185.442.277.691.277.263 0 .526-.104.723-.309 2.386-2.493 3.657-5.771 3.581-9.229s-1.491-6.677-3.984-9.063c-.397-.38-1.031-.368-1.414.031-.382.399-.368 1.032.031 1.414 2.107 2.018 3.302 4.739 3.367 7.663z" fill="#e6e7e8"/><path d="m109.911 123.319h-9.635v-3.138c0-3.995-3.25-7.245-7.244-7.245h-2.88v-31.615-4.875-24.66c0-3.369-2.74-6.109-6.109-6.109h-17.043v-14.281c3.905-.494 6.937-3.83 6.937-7.867 0-4.376-3.561-7.937-7.937-7.937s-7.937 3.561-7.937 7.937c0 4.037 3.032 7.373 6.937 7.867v14.281h-17.043c-3.369 0-6.109 2.74-6.109 6.109v61.15h-2.88c-3.995 0-7.245 3.25-7.245 7.245v3.138h-9.635c-.552 0-1 .448-1 1s.448 1 1 1h10.635 66.553 10.635c.553 0 1-.448 1-1s-.447-1-1-1z" fill="#e6e7e8"/><path d="m80.043 42.677h-36.086c-2.822 0-5.109 2.287-5.109 5.109v62.151h46.304v-62.151c0-2.822-2.287-5.109-5.109-5.109z" fill="#6dc9f7"/><ellipse cx="62" cy="71.87" fill="#d4fbff" rx="14.188" ry="14.188" transform="matrix(.987 -.16 .16 .987 -10.712 10.859)"/><path d="m50.812 71.87c0-7.329 5.558-13.358 12.688-14.107-.493-.052-.993-.081-1.5-.081-7.836 0-14.188 6.352-14.188 14.188s6.352 14.188 14.188 14.188c.507 0 1.007-.029 1.5-.081-7.13-.749-12.688-6.778-12.688-14.107z" fill="#fff"/><ellipse cx="62" cy="19.53" fill="#fa759e" rx="6.937" ry="6.937" transform="matrix(.973 -.23 .23 .973 -2.829 14.767)"/><path d="m89.032 109.936h-54.064c-3.449 0-6.245 2.796-6.245 6.245v4.138h66.553v-4.138c.001-3.449-2.795-6.245-6.244-6.245z" fill="#fa759e"/><g fill="#3a2c60"><path d="m85.152 71.445c-.553 0-1 .448-1 1v4.875c0 .552.447 1 1 1s1-.448 1-1v-4.875c0-.552-.447-1-1-1z"/><path d="m46.812 71.87c0 8.375 6.813 15.188 15.188 15.188 8.374 0 15.188-6.813 15.188-15.188s-6.814-15.188-15.188-15.188c-8.375 0-15.188 6.814-15.188 15.188zm20.35-6.45h-10.324c1.092-4.189 3.175-6.738 5.162-6.738s4.069 2.549 5.162 6.738zm.775 6.45c0 1.6-.131 3.086-.357 4.451h-11.16c-.225-1.364-.357-2.851-.357-4.451s.131-3.086.357-4.45h11.16c.225 1.364.357 2.85.357 4.45zm-5.937 13.188c-1.987 0-4.07-2.549-5.162-6.737h10.323c-1.092 4.188-3.174 6.737-5.161 6.737zm-4.69-25.499c-1.082 1.497-1.948 3.505-2.512 5.86h-4.288c1.503-2.668 3.908-4.754 6.8-5.86zm-7.709 7.861h4.798c-.217 1.403-.336 2.895-.336 4.45 0 1.556.119 3.048.336 4.451h-4.798c-.502-1.393-.789-2.887-.789-4.451 0-1.563.288-3.057.789-4.45zm.908 10.901h4.288c.565 2.355 1.431 4.363 2.512 5.86-2.89-1.106-5.296-3.192-6.8-5.86zm16.181 5.86c1.082-1.497 1.948-3.505 2.512-5.86h4.288c-1.504 2.668-3.909 4.754-6.8 5.86zm7.708-7.86h-4.798c.217-1.403.336-2.895.336-4.451 0-1.555-.119-3.047-.336-4.45h4.798c.502 1.393.789 2.887.789 4.45 0 1.564-.287 3.058-.789 4.451zm-.907-10.901h-4.288c-.565-2.355-1.431-4.364-2.512-5.861 2.89 1.106 5.296 3.192 6.8 5.861z"/><path d="m46.102 35.697c.249 0 .498-.092.691-.277.399-.382.413-1.015.031-1.414-7.981-8.341-7.689-21.62.651-29.602.399-.382.413-1.015.031-1.414-.383-.399-1.015-.412-1.414-.031-9.138 8.745-9.458 23.292-.714 32.43.198.204.46.308.724.308z"/><path d="m48.991 31.931c.197.205.459.309.723.309.249 0 .498-.092.691-.277.399-.382.413-1.015.031-1.414-6.076-6.349-5.853-16.457.496-22.532.399-.382.413-1.015.031-1.414s-1.015-.412-1.414-.031c-7.145 6.837-7.396 18.214-.558 25.359z"/><path d="m52.604 28.474c.197.205.459.309.723.309.249 0 .498-.092.691-.277.399-.382.413-1.015.031-1.414-4.169-4.357-4.017-11.293.34-15.463.399-.382.413-1.015.031-1.414-.383-.398-1.015-.412-1.414-.031-5.153 4.931-5.334 13.137-.402 18.29z"/><path d="m77.176 34.005c-.382.399-.368 1.032.031 1.414.193.185.442.277.691.277.263 0 .526-.104.723-.309 8.743-9.138 8.424-23.686-.714-32.43-.396-.38-1.031-.368-1.414.031-.382.399-.368 1.032.031 1.414 8.341 7.983 8.633 21.262.652 29.603z"/><path d="m77.975 19.18c.094 4.261-1.473 8.298-4.411 11.369-.382.399-.368 1.032.031 1.414.193.185.442.277.691.277.263 0 .526-.104.723-.309 3.308-3.456 5.07-8 4.965-12.795s-2.068-9.258-5.524-12.565c-.397-.38-1.032-.368-1.414.031s-.368 1.032.031 1.414c3.071 2.938 4.813 6.903 4.908 11.164z"/><path d="m72.978 19.289c.065 2.924-1.01 5.695-3.026 7.802-.382.399-.368 1.032.031 1.414.193.185.442.277.691.277.263 0 .526-.104.723-.309 2.386-2.493 3.657-5.771 3.581-9.229s-1.491-6.677-3.984-9.063c-.397-.38-1.031-.368-1.414.031-.382.399-.368 1.032.031 1.414 2.107 2.018 3.302 4.739 3.367 7.663z"/><path d="m105.911 119.319h-9.635v-3.138c0-3.995-3.25-7.245-7.244-7.245h-2.88v-26.468c0-.552-.447-1-1-1s-1 .448-1 1v26.468h-44.304v-61.15c0-2.266 1.843-4.109 4.109-4.109h36.086c2.266 0 4.109 1.843 4.109 4.109v18.725c0 .552.447 1 1 1s1-.448 1-1v-18.725c0-3.369-2.74-6.109-6.109-6.109h-17.043v-14.28c3.905-.494 6.937-3.83 6.937-7.867 0-4.376-3.561-7.937-7.937-7.937s-7.937 3.561-7.937 7.937c0 4.037 3.032 7.373 6.937 7.867v14.28h-17.043c-3.369 0-6.109 2.74-6.109 6.109v61.151h-2.88c-3.995 0-7.245 3.25-7.245 7.245v3.138h-9.635c-.552 0-1 .448-1 1s.448 1 1 1h10.635 66.553 10.635c.553 0 1-.448 1-1s-.447-1.001-1-1.001zm-49.848-99.789c0-3.273 2.664-5.937 5.937-5.937s5.937 2.664 5.937 5.937-2.664 5.937-5.937 5.937-5.937-2.664-5.937-5.937zm-26.339 96.651c0-2.892 2.353-5.245 5.245-5.245h54.064c2.892 0 5.244 2.353 5.244 5.245v3.138h-64.553z"/></g></svg>