<svg id="Layer_1" enable-background="new 0 0 128 128" height="512" viewBox="0 0 128 128" width="512" xmlns="http://www.w3.org/2000/svg"><path d="m106.757 75.417c-.003-1.679-.229-3.349-.67-4.965l-2.943-10.778c-.108-.394-.445-.666-.843-.716v-.812c0-2.54-1.823-4.659-4.229-5.127v-23.689c0-7.994-6.503-14.497-14.497-14.497h-.432c-7.994 0-14.497 6.503-14.497 14.497v61.215c0 6.891-5.606 12.497-12.497 12.497s-12.496-5.606-12.496-12.497v-6.2h13.034c1.875 0 3.4-1.525 3.4-3.4v-8.694c0-1.875-1.525-3.399-3.4-3.399h-13.034v-8.622h.601c3.971 0 7.201-3.23 7.201-7.201v-.306c2.901-.48 5.123-2.999 5.123-6.034v-6.679c1.865-2.715 2.961-5.997 2.961-9.532 0-9.311-7.575-16.886-16.886-16.886s-16.886 7.575-16.886 16.886c0 6.084 3.245 11.41 8.084 14.383v8.169c0 3.971 3.23 7.201 7.201 7.201h.601v8.622h-13.035c-1.874 0-3.399 1.525-3.399 3.399v8.694c0 1.875 1.525 3.4 3.399 3.4h6.012 3.947 3.076v6.2c0 7.994 6.503 14.497 14.496 14.497 7.994 0 14.497-6.503 14.497-14.497v-61.216c0-6.891 5.606-12.497 12.497-12.497h.432c6.891 0 12.497 5.606 12.497 12.497v23.689c-2.406.469-4.229 2.587-4.229 5.127v.812c-.397.05-.735.322-.843.716l-2.944 10.779c-.441 1.621-.667 3.291-.669 4.965l-.024 16.781c-.001.63.244 1.222.688 1.668.445.445 1.036.69 1.666.69h.739l.014 6.58c.003 1.581 1.292 2.867 2.873 2.867h.729v11.404c0 1.654 1.346 3 3 3s3-1.346 3-3v-11.404h.729c1.581 0 2.87-1.286 2.873-2.867l.014-6.58h.738c.63 0 1.222-.246 1.667-.691.444-.446.689-1.038.688-1.667zm-55.302-24.742v-5.815c1.132-.696 2.187-1.505 3.123-2.44v4.268c0 1.928-1.334 3.537-3.123 3.987z" fill="#e6e7e8"/><path d="m38.653 10.592c-8.773 0-15.886 7.112-15.886 15.886 0 5.996 3.324 11.212 8.228 13.917h15.315c4.904-2.704 8.228-7.921 8.228-13.917.001-8.774-7.111-15.886-15.885-15.886z" fill="#0089ef"/><path d="m30.851 40.394v8.634c0 3.425 2.776 6.201 6.201 6.201h3.201c3.425 0 6.201-2.776 6.201-6.201v-8.634z" fill="#fa759e"/><path d="m97.301 55.937v-1.792c0-2.335-1.893-4.229-4.229-4.229-2.335 0-4.229 1.893-4.229 4.229v1.792z" fill="#ffd7e5"/><path d="m101.122 66.716-2.944-10.778h-10.212l-2.944 10.778c-.419 1.533-.632 3.114-.634 4.703l-.025 16.781c-.001.749.606 1.357 1.355 1.357h14.708c.749 0 1.356-.608 1.355-1.357l-.025-16.781c-.002-1.589-.215-3.171-.634-4.703z" fill="#fa759e"/><g fill="#ffd7e5"><path d="m90.03 72.598h-5.65v3.745h5.65c1.034 0 1.872-.838 1.872-1.872.001-1.035-.837-1.873-1.872-1.873z"/><path d="m96.133 77.61c-1.034 0-1.872.838-1.872 1.872s.838 1.872 1.872 1.872h5.65v-3.744z"/><path d="m90.03 82.622h-5.65v3.745h5.65c1.034 0 1.872-.838 1.872-1.872s-.837-1.873-1.872-1.873z"/></g><path d="m95.072 99.004v12.404c0 1.104-.896 2-2 2s-2-.896-2-2v-12.404z" fill="#6dc9f7"/><path d="m87.455 89.557.016 7.578c.002 1.033.84 1.869 1.873 1.869h7.457c1.033 0 1.871-.836 1.873-1.869l.016-7.578z" fill="#fa759e"/><path d="m52.688 65.852h-28.069c-1.325 0-2.4 1.074-2.4 2.4v8.694c0 1.325 1.074 2.4 2.4 2.4h28.069c1.325 0 2.4-1.074 2.4-2.4v-8.694c-.001-1.326-1.075-2.4-2.4-2.4z" fill="#fa759e"/><path d="m52.688 65.852h-28.069c-1.325 0-2.4 1.074-2.4 2.4v3c0-1.325 1.074-2.4 2.4-2.4h28.069c1.325 0 2.4 1.074 2.4 2.4v-3c-.001-1.326-1.075-2.4-2.4-2.4z" fill="#fff"/><path d="m102.756 71.418c-.002-1.678-.228-3.348-.669-4.966l-2.943-10.778c-.108-.394-.445-.666-.843-.716v-.812c0-2.541-1.823-4.659-4.229-5.128v-23.688c0-7.994-6.503-14.497-14.497-14.497h-.433c-7.993 0-14.496 6.503-14.496 14.497v61.215c0 6.891-5.606 12.497-12.497 12.497s-12.496-5.606-12.496-12.497v-6.201h13.034c1.874 0 3.399-1.525 3.399-3.399v-8.694c0-1.875-1.525-3.399-3.399-3.399h-13.034v-8.622h.601c3.971 0 7.201-3.23 7.201-7.201v-.306c2.901-.48 5.123-2.999 5.123-6.034v-6.693c1.863-2.711 2.961-5.986 2.961-9.518 0-9.311-7.575-16.886-16.886-16.886s-16.886 7.575-16.886 16.886c0 6.086 3.242 11.422 8.084 14.393v8.159c0 3.971 3.23 7.201 7.201 7.201h.601v8.622h-13.035c-1.874 0-3.399 1.525-3.399 3.399v8.694c0 1.875 1.525 3.399 3.399 3.399h1.021c.553 0 1-.448 1-1s-.447-1-1-1h-1.021c-.771 0-1.399-.628-1.399-1.399v-8.694c0-.771.628-1.399 1.399-1.399h28.069c.771 0 1.399.628 1.399 1.399v8.694c0 .771-.628 1.399-1.399 1.399h-16.034c-.553 0-1 .448-1 1s.447 1 1 1h1v6.201c0 7.994 6.503 14.497 14.496 14.497 7.994 0 14.497-6.503 14.497-14.497v-61.216c0-6.891 5.605-12.497 12.496-12.497h.433c6.891 0 12.497 5.606 12.497 12.497v23.688c-2.406.469-4.229 2.587-4.229 5.128v.812c-.397.05-.735.322-.843.716l-2.944 10.779c-.441 1.621-.667 3.291-.669 4.965l-.024 16.781c-.001.63.244 1.222.688 1.668.445.445 1.036.69 1.666.69h.739l.014 6.58c.003 1.581 1.291 2.867 2.872 2.867h.729v11.404c0 1.654 1.346 3 3 3s3-1.346 3-3v-11.404h.729c1.58 0 2.868-1.286 2.873-2.867l.013-6.58h.739c.63 0 1.222-.246 1.667-.691.444-.446.689-1.038.688-1.667zm-55.301-24.743v-5.805c1.139-.699 2.183-1.534 3.123-2.474v4.292c0 1.928-1.334 3.537-3.123 3.987zm-23.687-20.197c0-8.208 6.678-14.886 14.886-14.886s14.886 6.678 14.886 14.886c0 5.532-3.041 10.354-7.532 12.917h-14.708c-4.492-2.564-7.532-7.386-7.532-12.917zm8.084 22.551v-7.635h13.604v7.635c0 2.868-2.333 5.201-5.201 5.201h-3.201c-2.869 0-5.202-2.333-5.202-5.201zm61.22 1.888c1.78 0 3.229 1.449 3.229 3.229v.792h-6.457v-.792c0-1.78 1.448-3.229 3.228-3.229zm1 60.491c0 .551-.448 1-1 1s-1-.449-1-1v-11.404h2zm3.602-14.276c-.001.481-.393.872-.873.872h-7.458c-.479 0-.871-.391-.872-.871l-.014-6.576h9.229zm3.004-8.68c-.039.039-.124.104-.252.104h-14.708c-.128 0-.212-.065-.251-.104-.038-.039-.104-.123-.104-.251l.024-16.781c.002-1.498.203-2.992.599-4.441l2.743-10.042h8.686l2.742 10.042c.396 1.446.597 2.94.599 4.441l.025 16.781c0 .128-.065.213-.103.251z" fill="#3a2c60"/><path d="m33.577 78.344h-3.947c-.553 0-1 .448-1 1s.447 1 1 1h3.947c.553 0 1-.448 1-1s-.447-1-1-1z" fill="#3a2c60"/></svg>