<svg id="Layer_1" enable-background="new 0 0 128 128" height="512" viewBox="0 0 128 128" width="512" xmlns="http://www.w3.org/2000/svg"><path d="m110.495 68.77c-2.457 0-4.456 1.999-4.456 4.456v29.375c0 .552.447 1 1 1h6.911c.553 0 1-.448 1-1v-29.375c0-2.457-1.999-4.456-4.455-4.456z" fill="#e6e7e8"/><path d="m21.505 68.77c-2.456 0-4.455 1.999-4.455 4.456v29.375c0 .552.447 1 1 1h6.911c.553 0 1-.448 1-1v-29.375c0-2.457-1.999-4.456-4.456-4.456z" fill="#e6e7e8"/><path d="m34.416 67.892c5.417 0 9.823-4.407 9.823-9.823 0-5.417-4.406-9.824-9.823-9.824s-9.823 4.407-9.823 9.824c0 5.416 4.406 9.823 9.823 9.823z" fill="#e6e7e8"/><path d="m87.761 58.068c0 5.417 4.406 9.823 9.823 9.823s9.823-4.407 9.823-9.823c0-5.417-4.406-9.824-9.823-9.824s-9.823 4.407-9.823 9.824z" fill="#e6e7e8"/><path d="m99.231 68.951c-2.933 0-5.319 2.386-5.319 5.32v19.478h-11.793v-2.392h6.557c2.036 0 3.692-1.656 3.692-3.692s-1.656-3.692-3.692-3.692h-6.557v-8.803c0-3.529-2.871-6.4-6.399-6.4h-.849c-2.295-2.234-5.423-3.617-8.871-3.617s-6.576 1.383-8.871 3.617h-.849c-3.528 0-6.399 2.871-6.399 6.4v8.803h-6.557c-2.036 0-3.692 1.656-3.692 3.692s1.656 3.692 3.692 3.692h6.557v2.392h-11.792v-19.478c0-2.934-2.387-5.32-5.319-5.32-2.934 0-5.32 2.386-5.32 5.32v24.878c0 2.889 2.351 5.239 5.239 5.239h15.862v11.536c0 2.934 2.387 5.32 5.32 5.32s5.319-2.386 5.319-5.32v-16.831c0-1.673-.789-3.151-1.997-4.132h5.639v24.268c0 .552.447 1 1 1h4.334c.553 0 1-.448 1-1v-24.268h5.639c-1.208.981-1.997 2.458-1.997 4.132v16.831c0 2.934 2.387 5.32 5.319 5.32 2.934 0 5.32-2.386 5.32-5.32v-11.536h15.862c2.889 0 5.239-2.35 5.239-5.239v-24.878c.003-2.934-2.384-5.32-5.317-5.32z" fill="#e6e7e8"/><path d="m56.177 54.346c0 5.417 4.406 9.824 9.823 9.824s9.823-4.407 9.823-9.824-4.406-9.823-9.823-9.823-9.823 4.406-9.823 9.823z" fill="#e6e7e8"/><path d="m37.9 37.317-2.612 5.906c-.189.43-.055.934.325 1.211.176.129.383.193.59.193.237 0 .475-.084.663-.251l7.76-6.874h8.25c6.26 0 11.353-5.093 11.353-11.353v-4.041c0-6.26-5.093-11.353-11.353-11.353h-12.999c-6.259 0-11.352 5.093-11.352 11.353v4.041c0 5.573 4.016 10.231 9.375 11.168z" fill="#e6e7e8"/><path d="m79.125 37.502h8.25l7.76 6.874c.188.167.426.251.663.251.207 0 .414-.064.59-.193.38-.277.515-.782.325-1.211l-2.612-5.906c5.358-.938 9.374-5.596 9.374-11.167v-4.041c0-6.26-5.093-11.353-11.352-11.353h-12.998c-6.26 0-11.353 5.093-11.353 11.353v4.041c.001 6.26 5.093 11.352 11.353 11.352z" fill="#e6e7e8"/><path d="m71.72 65.77h-1.26c2.022 2.108 3.271 4.962 3.271 8.114v3.135h-23.462v-3.135c0-3.151 1.249-6.006 3.271-8.114h-1.26c-2.982 0-5.4 2.417-5.4 5.4v9.803h30.24v-9.803c0-2.983-2.418-5.4-5.4-5.4z" fill="#fa759e"/><path d="m46.881 86.356h12.953v3.604h-12.953z" fill="#fa759e"/><path d="m64.167 86.356h12.953v3.604h-12.953z" fill="#fa759e"/><path d="m59.833 86.356h4.334v28.872h-4.334z" fill="#fa759e"/><path d="m106.495 65.77c-1.909 0-3.456 1.547-3.456 3.456v29.375h6.912v-29.376c0-1.908-1.548-3.455-3.456-3.455z" fill="#fa759e"/><path d="m17.505 65.77c-1.909 0-3.456 1.547-3.456 3.456v29.375h6.912v-29.376c0-1.908-1.547-3.455-3.456-3.455z" fill="#fa759e"/><path d="m59.833 86.356h4.334v28.872h-4.334z" fill="#fa759e"/><path d="m84.676 80.973h-45.352c-1.487 0-2.692 1.205-2.692 2.692s1.205 2.692 2.692 2.692h45.352c1.487 0 2.692-1.205 2.692-2.692s-1.205-2.692-2.692-2.692z" fill="#fff"/><path d="m84.676 83.564h-45.352c-1.014 0-1.887.568-2.346 1.396.459.828 1.332 1.396 2.346 1.396h45.352c1.014 0 1.887-.568 2.346-1.396-.459-.828-1.332-1.396-2.346-1.396z" fill="#fa759e"/><ellipse cx="30.416" cy="54.068" fill="#6dc9f7" rx="8.824" ry="8.824" transform="matrix(.924 -.383 .383 .924 -18.376 15.755)"/><path d="m49.871 116.244c-2.386 0-4.32-1.934-4.32-4.32v-12.389c0-.081-.066-.147-.147-.147h-16.716c-2.341 0-4.239-1.898-4.239-4.239v-24.878c0-2.386 1.934-4.32 4.32-4.32 2.386 0 4.32 1.934 4.32 4.32v20.477h16.757c2.399 0 4.344 1.945 4.344 4.344v16.831c.001 2.386-1.933 4.321-4.319 4.321z" fill="#6dc9f7"/><ellipse cx="93.584" cy="54.068" fill="#6dc9f7" rx="8.824" ry="8.824" transform="matrix(.924 -.383 .383 .924 -13.567 39.929)"/><path d="m74.129 116.244c2.386 0 4.32-1.934 4.32-4.32v-12.389c0-.081.066-.147.147-.147h16.715c2.341 0 4.239-1.898 4.239-4.239v-24.878c0-2.386-1.934-4.32-4.32-4.32-2.386 0-4.32 1.934-4.32 4.32v20.477h-16.756c-2.399 0-4.344 1.945-4.344 4.344v16.831c0 2.386 1.934 4.321 4.319 4.321z" fill="#6dc9f7"/><path d="m62 62.152c-6.479 0-11.731 5.252-11.731 11.731v3.135h23.462v-3.135c0-6.479-5.252-11.731-11.731-11.731z" fill="#6dc9f7"/><ellipse cx="62" cy="50.346" fill="#6dc9f7" rx="8.824" ry="8.824" transform="matrix(.987 -.16 .16 .987 -7.264 10.581)"/><path d="m48.875 7.756h-12.997c-5.717 0-10.352 4.635-10.352 10.352v4.041c0 5.544 4.362 10.057 9.839 10.326l-3.161 7.151 8.043-7.125h8.629c5.717 0 10.352-4.635 10.352-10.352v-4.041c-.001-5.717-4.635-10.352-10.353-10.352z" fill="#ffd7e5"/><path d="m75.125 7.756h12.998c5.717 0 10.352 4.635 10.352 10.352v4.041c0 5.544-4.362 10.057-9.839 10.326l3.161 7.151-8.043-7.125h-8.629c-5.717 0-10.352-4.635-10.352-10.352v-4.041c0-5.717 4.635-10.352 10.352-10.352z" fill="#ffd7e5"/><g fill="#3a2c60"><path d="m106.495 64.77c-2.457 0-4.456 1.999-4.456 4.456v29.375c0 .552.447 1 1 1h6.912c.553 0 1-.448 1-1v-29.375c0-2.457-1.999-4.456-4.456-4.456zm2.456 32.831h-4.912v-28.375c0-1.354 1.102-2.456 2.456-2.456s2.456 1.102 2.456 2.456z"/><path d="m17.506 64.77c-2.457 0-4.456 1.999-4.456 4.456v29.375c0 .552.447 1 1 1h6.911c.553 0 1-.448 1-1v-29.375c0-2.457-1.999-4.456-4.455-4.456zm2.455 32.831h-4.911v-28.375c0-1.354 1.102-2.456 2.456-2.456s2.455 1.102 2.455 2.456z"/><path d="m64.851 79.973h-5.439c-.553 0-1 .448-1 1s.447 1 1 1h5.439c.553 0 1-.448 1-1s-.447-1-1-1z"/><path d="m30.416 63.892c5.417 0 9.823-4.407 9.823-9.823 0-5.417-4.406-9.824-9.823-9.824s-9.823 4.407-9.823 9.824c0 5.416 4.406 9.823 9.823 9.823zm0-17.647c4.313 0 7.823 3.51 7.823 7.824s-3.51 7.823-7.823 7.823-7.823-3.509-7.823-7.823 3.509-7.824 7.823-7.824z"/><path d="m83.761 54.068c0 5.417 4.406 9.823 9.823 9.823s9.824-4.407 9.824-9.823c0-5.417-4.407-9.824-9.824-9.824s-9.823 4.407-9.823 9.824zm17.647 0c0 4.314-3.51 7.823-7.824 7.823-4.313 0-7.823-3.509-7.823-7.823s3.51-7.824 7.823-7.824c4.314.001 7.824 3.51 7.824 7.824z"/><path d="m95.231 64.951c-2.934 0-5.32 2.386-5.32 5.32v19.477h-11.791v-2.392h6.556c2.036 0 3.692-1.656 3.692-3.692s-1.656-3.692-3.692-3.692h-6.556v-8.803c0-3.529-2.871-6.4-6.4-6.4h-.849c-2.295-2.234-5.423-3.617-8.871-3.617s-6.575 1.383-8.87 3.617h-.85c-3.528 0-6.399 2.871-6.399 6.4v8.803h-6.557c-2.035 0-3.691 1.656-3.691 3.692s1.656 3.692 3.691 3.692h6.557v2.392h-11.792v-19.477c0-2.934-2.387-5.32-5.319-5.32-2.934 0-5.32 2.386-5.32 5.32v24.878c0 2.889 2.351 5.239 5.239 5.239h15.862v11.536c0 2.934 2.387 5.32 5.32 5.32s5.319-2.386 5.319-5.32v-16.831c0-1.673-.789-3.151-1.996-4.132h5.639v24.268c0 .552.447 1 1 1h4.334c.553 0 1-.448 1-1v-24.268h5.639c-1.208.981-1.996 2.458-1.996 4.132v16.831c0 2.934 2.387 5.32 5.32 5.32s5.319-2.386 5.319-5.32v-11.536h15.862c2.889 0 5.239-2.35 5.239-5.239v-24.878c.001-2.934-2.386-5.32-5.319-5.32zm-22.5 8.932v2.135h-21.462v-2.135c0-5.917 4.813-10.731 10.73-10.731s10.732 4.814 10.732 10.731zm-35.098 9.782c0-.933.759-1.692 1.691-1.692h16.498c.553 0 1-.448 1-1s-.447-1-1-1h-7.941v-8.803c0-2.122 1.51-3.897 3.511-4.31-1.338 2.015-2.123 4.428-2.123 7.023v3.135c0 .552.447 1 1 1h23.462c.553 0 1-.448 1-1v-3.135c0-2.595-.784-5.008-2.122-7.023 2.002.412 3.511 2.188 3.511 4.309v8.803h-7.62c-.553 0-1 .448-1 1s.447 1 1 1h16.176c.934 0 1.692.759 1.692 1.692s-.759 1.692-1.692 1.692h-45.352c-.932 0-1.691-.758-1.691-1.691zm15.557 28.259c0 1.831-1.489 3.32-3.319 3.32-1.831 0-3.32-1.489-3.32-3.32v-12.389c0-.632-.515-1.147-1.146-1.147h-16.717c-1.786 0-3.239-1.453-3.239-3.239v-24.878c0-1.831 1.489-3.32 3.32-3.32 1.83 0 3.319 1.489 3.319 3.32v20.477c0 .552.447 1 1 1h16.758c1.844 0 3.344 1.5 3.344 3.345zm-5.309-22.963v-1.604h10.952v1.604zm15.286 25.268h-2.334v-26.873h2.334zm2-26.873h10.953v1.604h-10.953zm33.384 7.793c0 1.786-1.453 3.239-3.239 3.239h-16.715c-.633 0-1.147.515-1.147 1.147v12.389c0 1.831-1.489 3.32-3.319 3.32-1.831 0-3.32-1.489-3.32-3.32v-16.831c0-1.844 1.5-3.345 3.345-3.345h16.757c.553 0 1-.448 1-1v-20.477c0-1.831 1.489-3.32 3.32-3.32 1.83 0 3.319 1.489 3.319 3.32v24.878z"/><path d="m52.177 50.346c0 5.417 4.406 9.824 9.823 9.824s9.824-4.407 9.824-9.824-4.407-9.823-9.824-9.823-9.823 4.406-9.823 9.823zm9.823-7.824c4.314 0 7.824 3.509 7.824 7.823s-3.51 7.824-7.824 7.824c-4.313 0-7.823-3.51-7.823-7.824s3.509-7.823 7.823-7.823z"/><path d="m33.899 33.317-2.611 5.906c-.189.43-.055.935.325 1.212.176.129.383.192.59.192.237 0 .475-.084.663-.251l7.759-6.874h8.25c6.26 0 11.353-5.093 11.353-11.353v-4.041c0-6.26-5.093-11.353-11.353-11.353h-12.997c-6.26 0-11.353 5.093-11.353 11.353v4.041c0 5.573 4.016 10.231 9.374 11.168zm-7.374-15.208c0-5.157 4.195-9.353 9.353-9.353h12.997c5.157 0 9.353 4.195 9.353 9.353v4.041c0 5.157-4.195 9.353-9.353 9.353h-8.629c-.244 0-.48.089-.663.251l-4.612 4.085 1.309-2.958c.133-.301.109-.649-.063-.929-.174-.28-.474-.458-.803-.474-4.983-.245-8.888-4.342-8.888-9.328v-4.041z"/><path d="m75.125 33.502h8.25l7.76 6.874c.188.167.426.251.663.251.207 0 .414-.064.59-.193.38-.277.515-.782.325-1.211l-2.613-5.906c5.358-.938 9.374-5.596 9.374-11.167v-4.041c0-6.26-5.093-11.353-11.352-11.353h-12.997c-6.26 0-11.353 5.093-11.353 11.353v4.041c0 6.26 5.093 11.352 11.353 11.352zm-9.353-15.393c0-5.157 4.195-9.353 9.353-9.353h12.998c5.156 0 9.352 4.195 9.352 9.353v4.041c0 4.985-3.904 9.083-8.888 9.328-.329.017-.629.194-.803.474-.173.28-.196.628-.063.929l1.309 2.958-4.612-4.085c-.183-.162-.419-.251-.663-.251h-8.629c-5.157 0-9.353-4.195-9.353-9.353v-4.041z"/></g></svg>