<svg id="Layer_1" enable-background="new 0 0 128 128" height="512" viewBox="0 0 128 128" width="512" xmlns="http://www.w3.org/2000/svg"><path d="m89.3 7.47h-46.6c-4.775 0-8.66 3.885-8.66 8.66v99.74c0 4.775 3.885 8.66 8.66 8.66h46.6c4.775 0 8.66-3.885 8.66-8.66v-99.74c-.001-4.775-3.885-8.66-8.66-8.66z" fill="#e6e7e8"/><path d="m85.3 4.47h-46.6c-4.23 0-7.66 3.429-7.66 7.66v99.74c0 4.23 3.429 7.66 7.66 7.66h46.6c4.23 0 7.66-3.429 7.66-7.66v-99.74c-.001-4.231-3.43-7.66-7.66-7.66z" fill="#6dc9f7"/><path d="m81.4 14.438h-38.8c-4.23 0-7.66 3.429-7.66 7.66v71.139c0 4.23 3.429 7.66 7.66 7.66h38.8c4.23 0 7.66-3.429 7.66-7.66v-71.14c-.001-4.23-3.43-7.659-7.66-7.659z" fill="#d4fbff"/><path d="m82.734 25.436v-1.583c0-.286-.231-.517-.517-.517h-40.434c-.286 0-.517.231-.517.517v1.583c0 .236.158.448.389.5.797.177 1.393.889 1.393 1.739s-.596 1.562-1.393 1.739c-.23.051-.389.264-.389.5v1.021c0 .236.158.448.389.5.797.177 1.393.889 1.393 1.739s-.596 1.562-1.393 1.739c-.23.051-.389.264-.389.5v1.021c0 .236.158.448.389.5.797.177 1.393.889 1.393 1.739s-.596 1.562-1.393 1.739c-.23.051-.389.264-.389.5v1.583c0 .286.231.517.517.517h40.434c.286 0 .517-.231.517-.517v-1.583c0-.236-.158-.448-.389-.5-.797-.177-1.393-.889-1.393-1.739s.596-1.562 1.393-1.739c.23-.051.389-.264.389-.5v-1.021c0-.236-.158-.448-.389-.5-.797-.177-1.393-.889-1.393-1.739s.596-1.562 1.393-1.739c.23-.051.389-.264.389-.5v-1.021c0-.236-.158-.448-.389-.5-.797-.177-1.393-.889-1.393-1.739s.596-1.562 1.393-1.739c.23-.052.389-.264.389-.5z" fill="#fa759e"/><path d="m48.563 32.422c-.414 0-.75.336-.75.75s.336.75.75.75.75-.336.75-.75-.335-.75-.75-.75z" fill="#d4fbff"/><circle cx="48.563" cy="36.729" fill="#d4fbff" r=".75"/><circle cx="48.563" cy="40.285" fill="#d4fbff" r=".75"/><circle cx="48.563" cy="29.616" fill="#d4fbff" r=".75"/><circle cx="48.563" cy="26.06" fill="#d4fbff" r=".75"/><path d="m58.222 27.53.243.748c.033.102.128.171.236.171h.786c.24 0 .34.308.146.449l-.636.462c-.087.063-.123.175-.09.277l.243.748c.074.229-.187.419-.382.277l-.636-.462c-.087-.063-.205-.063-.292 0l-.636.462c-.194.141-.456-.049-.382-.277l.243-.748c.033-.102-.003-.214-.09-.277l-.636-.462c-.194-.141-.095-.449.146-.449h.786c.108 0 .203-.069.236-.171l.243-.748c.074-.228.398-.228.472 0z" fill="#fff"/><path d="m65.725 26.791.362 1.115c.05.152.192.256.352.256h1.173c.358 0 .507.459.217.669l-.949.689c-.13.094-.184.261-.134.414l.362 1.115c.111.341-.279.624-.569.414l-.949-.689c-.13-.094-.305-.094-.435 0l-.949.689c-.29.211-.68-.073-.569-.414l.363-1.115c.05-.152-.005-.319-.134-.414l-.949-.689c-.29-.211-.141-.669.217-.669h1.173c.16 0 .302-.103.352-.256l.362-1.115c.111-.341.594-.341.704 0z" fill="#fff"/><path d="m72.997 27.53.243.748c.033.102.129.171.236.171h.786c.24 0 .34.308.146.449l-.636.462c-.087.063-.123.175-.09.277l.243.748c.074.229-.187.419-.382.277l-.636-.462c-.087-.063-.205-.063-.292 0l-.636.462c-.194.141-.456-.049-.382-.277l.243-.748c.033-.102-.003-.214-.09-.277l-.636-.462c-.194-.141-.095-.449.146-.449h.786c.108 0 .203-.069.236-.171l.243-.748c.075-.228.398-.228.472 0z" fill="#fff"/><path d="m55.959 34.143h-2.766c-.172 0-.31.042-.408.127-.102.087-.156.211-.156.358 0 .144.05.262.149.352.096.086.235.13.415.13h.824v2.995c0 .209.052.372.155.483.105.114.242.172.407.172.163 0 .298-.058.402-.171.102-.11.153-.273.153-.484v-2.995h.824c.179 0 .319-.043.417-.129.101-.088.154-.21.154-.353 0-.144-.051-.263-.151-.354-.096-.087-.237-.131-.419-.131z" fill="#fff"/><path d="m57.583 34.242c-.102.111-.153.272-.153.479v3.384c0 .207.052.369.154.481.105.115.24.174.401.174.167 0 .305-.058.41-.172.103-.111.155-.274.155-.483v-3.384c0-.209-.052-.372-.155-.482-.208-.223-.602-.229-.812.003z" fill="#fff"/><path d="m63.279 36.703c-.162 0-.284.052-.363.156-.063.082-.116.188-.156.31-.079.215-.195.379-.347.488-.15.108-.339.163-.562.163-.205 0-.386-.049-.537-.145-.149-.095-.267-.243-.35-.44-.087-.205-.131-.469-.131-.785 0-.469.098-.833.292-1.08.188-.242.436-.359.755-.359.198 0 .365.046.496.136.136.093.257.239.36.433.075.142.144.242.21.305.155.146.488.17.683-.041.092-.1.139-.217.139-.349 0-.207-.081-.426-.24-.651-.156-.22-.381-.406-.669-.553s-.619-.222-.985-.222c-.3 0-.587.054-.853.162-.267.107-.503.267-.702.473s-.354.457-.459.746c-.105.286-.159.613-.159.972 0 .221.021.432.063.629.042.198.105.388.189.563s.188.337.308.479c.135.158.286.288.448.385s.344.169.542.215c.194.045.412.068.646.068.314 0 .595-.052.834-.153.24-.102.44-.238.596-.403.154-.164.269-.334.342-.506.074-.174.111-.34.111-.493 0-.142-.05-.263-.149-.359-.096-.096-.215-.144-.352-.144z" fill="#fff"/><path d="m68.549 37.626-1.157-1.658.98-.928c.156-.149.235-.307.235-.468 0-.141-.052-.261-.155-.359-.101-.096-.231-.144-.389-.144-.122 0-.224.028-.302.084-.065.046-.139.114-.228.206l-1.493 1.557v-1.195c0-.209-.052-.372-.155-.482-.105-.113-.243-.17-.409-.17-.17 0-.307.059-.409.174-.098.111-.147.272-.147.478v3.193c0 .141.003.249.009.324.007.088.028.167.065.241.048.086.117.155.205.206.236.135.516.084.683-.094.104-.111.157-.274.157-.486v-.834l.564-.541.943 1.45c.042.071.089.15.142.237.062.101.139.183.229.245.097.066.22.099.366.099.161 0 .293-.047.392-.139.101-.095.152-.209.152-.34 0-.104-.026-.211-.077-.318-.043-.098-.112-.212-.201-.338z" fill="#fff"/><path d="m72.978 37.746h-1.902v-.972h1.68c.167 0 .297-.042.385-.127.09-.085.135-.196.135-.329 0-.132-.048-.246-.139-.328-.089-.081-.217-.122-.381-.122h-1.68v-.805h1.835c.17 0 .303-.042.394-.125.094-.086.142-.199.142-.337 0-.134-.049-.25-.142-.334-.091-.083-.223-.125-.394-.125h-2.297c-.141 0-.26.022-.355.065-.106.049-.186.127-.236.233-.044.096-.067.216-.067.359v3.229c0 .221.054.387.161.495s.274.163.498.163h2.364c.168 0 .301-.043.394-.128.095-.087.145-.204.145-.34 0-.142-.049-.258-.145-.346-.094-.083-.227-.126-.395-.126z" fill="#fff"/><path d="m77.967 34.274c-.097-.087-.238-.132-.419-.132h-2.766c-.172 0-.31.042-.408.127-.102.087-.156.211-.156.358 0 .144.05.262.149.352.096.086.235.13.415.13h.824v2.995c0 .209.052.372.155.483.105.114.242.172.407.172.163 0 .298-.058.402-.171.102-.11.153-.273.153-.484v-2.994h.824c.179 0 .319-.043.417-.129.101-.088.154-.21.154-.353 0-.144-.051-.263-.151-.354z" fill="#fff"/><path d="m69.456 113.742h-14.912c-1.292 0-2.34-1.048-2.34-2.34v-4.508c0-1.292 1.048-2.34 2.34-2.34h14.911c1.292 0 2.34 1.048 2.34 2.34v4.508c.001 1.292-1.047 2.34-2.339 2.34z" fill="#0089ef"/><path d="m69.456 104.554h-14.912c-1.292 0-2.34 1.048-2.34 2.34v3c0-1.292 1.048-2.34 2.34-2.34h14.911c1.292 0 2.34 1.048 2.34 2.34v-3c.001-1.292-1.047-2.34-2.339-2.34z" fill="#fff"/><path d="m70.013 8.479h-16.026c-.615 0-1.113.498-1.113 1.113v1.113c0 .615.498 1.113 1.113 1.113h16.025c.615 0 1.113-.498 1.113-1.113v-1.113c0-.614-.498-1.113-1.112-1.113z" fill="#ffd7e5"/><path d="m74.003 8.479c-.922 0-1.669.747-1.669 1.669s.747 1.669 1.669 1.669 1.669-.747 1.669-1.669c0-.921-.747-1.669-1.669-1.669z" fill="#ffd7e5"/><g fill="#3a2c60"><path d="m31.041 39.299c.552 0 1-.448 1-1v-7.46c0-.552-.448-1-1-1s-1 .448-1 1v7.46c0 .552.447 1 1 1z"/><path d="m85.3 3.47h-46.6c-4.775 0-8.66 3.885-8.66 8.66v14.509c0 .552.448 1 1 1s1-.448 1-1v-14.509c0-3.672 2.987-6.66 6.66-6.66h46.6c3.672 0 6.66 2.987 6.66 6.66v99.74c0 3.672-2.987 6.66-6.66 6.66h-46.6c-3.672 0-6.66-2.987-6.66-6.66v-69.591c0-.552-.448-1-1-1s-1 .448-1 1v69.591c0 4.775 3.885 8.66 8.66 8.66h46.6c4.775 0 8.66-3.885 8.66-8.66v-99.74c-.001-4.775-3.885-8.66-8.66-8.66z"/><path d="m51.205 106.895v4.507c0 1.842 1.498 3.34 3.34 3.34h14.911c1.842 0 3.34-1.499 3.34-3.34v-4.507c0-1.842-1.498-3.34-3.34-3.34h-14.912c-1.841-.001-3.339 1.498-3.339 3.34zm19.59 0v4.507c0 .739-.601 1.34-1.34 1.34h-14.911c-.739 0-1.34-.601-1.34-1.34v-4.507c0-.739.601-1.34 1.34-1.34h14.911c.739-.001 1.34.6 1.34 1.34z"/><path d="m54.344 50.625h-7.873c-2.962 0-5.373 2.41-5.373 5.373v7.873c0 .552.448 1 1 1s1-.448 1-1v-7.873c0-1.86 1.513-3.373 3.373-3.373h7.873c.552 0 1-.448 1-1s-.448-1-1-1z"/><path d="m82.902 55.997c0-2.962-2.41-5.373-5.373-5.373h-7.873c-.552 0-1 .448-1 1s.448 1 1 1h7.873c1.86 0 3.373 1.513 3.373 3.373v7.873c0 .552.448 1 1 1s1-.448 1-1z"/><path d="m68.656 92.375c0 .552.448 1 1 1h7.873c2.962 0 5.373-2.41 5.373-5.373v-7.872c0-.552-.448-1-1-1s-1 .448-1 1v7.873c0 1.86-1.513 3.373-3.373 3.373h-7.873c-.552-.001-1 .447-1 .999z"/><path d="m41.098 88.003c0 2.962 2.41 5.373 5.373 5.373h7.873c.552 0 1-.448 1-1s-.448-1-1-1h-7.873c-1.86 0-3.373-1.513-3.373-3.373v-7.873c0-.552-.448-1-1-1s-1 .448-1 1z"/><path d="m46.447 72.317h3.191v10.019h-3.191z"/><path d="m53.699 72.317h3.191v10.019h-3.191z"/><path d="m51.282 72.317h1.596v10.019h-1.596z"/><path d="m57.712 72.317h1.596v10.019h-1.596z"/><path d="m76.253 72.317h1.596v10.019h-1.596z"/><path d="m59.73 72.317h.798v10.019h-.798z"/><path d="m62.148 72.317h.798v10.019h-.798z"/><path d="m64.565 72.317h.798v10.019h-.798z"/><path d="m69.4 72.317h.798v10.019h-.798z"/><path d="m71.817 72.317h.798v10.019h-.798z"/><path d="m65.786 72.317h3.191v10.019h-3.191z"/></g><path d="m46.447 61.664h3.191v10.019h-3.191z" fill="#fa759e"/><path d="m53.699 61.664h3.191v10.019h-3.191z" fill="#fa759e"/><path d="m51.282 61.664h1.596v10.019h-1.596z" fill="#fa759e"/><path d="m57.712 61.664h1.596v10.019h-1.596z" fill="#fa759e"/><path d="m76.253 61.664h1.596v10.019h-1.596z" fill="#fa759e"/><path d="m59.73 61.664h.798v10.019h-.798z" fill="#fa759e"/><path d="m62.148 61.664h.798v10.019h-.798z" fill="#fa759e"/><path d="m64.565 61.664h.798v10.019h-.798z" fill="#fa759e"/><path d="m69.4 61.664h.798v10.019h-.798z" fill="#fa759e"/><path d="m71.817 61.664h.798v10.019h-.798z" fill="#fa759e"/><path d="m65.786 61.664h3.191v10.019h-3.191z" fill="#fa759e"/><path d="m41.957 71.683h40.085v.634h-40.085z" fill="#fa759e"/></svg>