<svg id="Layer_1" enable-background="new 0 0 128 128" height="512" viewBox="0 0 128 128" width="512" xmlns="http://www.w3.org/2000/svg"><path d="m93.901 79.757c-3.796-3.993-8.67-6.95-14.156-8.389-.007-.002-.013-.008-.02-.01-.026-.007-.052-.012-.077-.018-.1-.026-.202-.046-.302-.071-.344-.085-.689-.168-1.039-.24-.356-.075-.717-.138-1.078-.2-.087-.015-.173-.033-.26-.047-.134-.022-.267-.045-.401-.065 6.274-3.155 10.955-9.023 12.493-16.056.29.081.583.135.879.135 2.45 0 4.369-2.529 4.369-5.757s-1.919-5.756-4.369-5.756c-.111 0-.22.012-.33.023v-3.927-3.183-11.38c0-5.204-4.233-9.438-9.438-9.438h-1.574c-1.067-1.726-4.918-7-12.191-7-4.167 0-7.345 1.742-10.418 3.427-2.309 1.266-4.696 2.575-7.488 3.103-3.823.719-9.303-2.367-9.358-2.398-.313-.178-.695-.175-1.005.009s-.496.519-.49.878c.006.364.198 7.371 4.746 12.723v10.076 3.183 3.927c-.11-.011-.219-.023-.33-.023-2.449 0-4.368 2.528-4.368 5.756s1.919 5.757 4.368 5.757c.295 0 .589-.054.879-.135 1.538 7.034 6.219 12.902 12.493 16.056-.13.019-.258.042-.388.063-.158.025-.31.056-.466.083-.282.05-.566.098-.846.156-.495.101-.979.211-1.437.333-.008.002-.013.008-.021.01-5.495 1.437-10.376 4.397-14.177 8.395-.049.041-.09.087-.131.137-5.051 5.38-8.155 12.61-8.155 20.554v10.666 9.507c0 1.654 1.346 3 3 3h66.373c1.654 0 3-1.346 3-3v-9.507-10.666c0-7.944-3.103-15.173-8.154-20.554-.043-.049-.084-.096-.133-.137z" fill="#e6e7e8"/><path d="m30.813 78.937c.479 0 .891-.34.981-.81 0 0 .566-2.928.998-5.323.212-1.178 1.146-2.112 2.324-2.324 2.396-.432 5.323-.998 5.323-.998.471-.091.811-.503.811-.982s-.34-.891-.811-.982c0 0-2.928-.565-5.322-.997-1.179-.213-2.113-1.147-2.325-2.325-.432-2.396-.998-5.323-.998-5.323-.091-.47-.502-.81-.981-.81s-.891.34-.981.81c0 0-.566 2.928-.998 5.323-.212 1.178-1.147 2.112-2.324 2.324-2.395.432-5.322.998-5.322.998-.471.091-.811.503-.811.982s.34.891.811.982c0 0 2.928.565 5.322.997 1.178.213 2.112 1.147 2.324 2.324.432 2.396.998 5.324.998 5.324.09.47.501.81.981.81z" fill="#e6e7e8"/><path d="m110.813 57.494s-2.928-.565-5.323-.997c-1.178-.213-2.112-1.147-2.324-2.324-.432-2.396-.998-5.324-.998-5.324-.091-.47-.502-.81-.981-.81s-.891.34-.981.81c0 0-.566 2.928-.998 5.323-.212 1.178-1.146 2.112-2.324 2.324-2.396.432-5.322.998-5.322.998-.471.091-.811.503-.811.982s.34.891.811.982c0 0 2.927.565 5.322.997 1.178.213 2.112 1.147 2.324 2.324.432 2.396.998 5.324.998 5.324.091.47.502.81.981.81s.891-.34.981-.81c0 0 .566-2.928.998-5.323.212-1.178 1.146-2.112 2.324-2.324 2.396-.432 5.323-.998 5.323-.998.471-.091.811-.503.811-.982s-.34-.891-.811-.982z" fill="#e6e7e8"/><path d="m85.938 40.282c-.473 0-.922.14-1.33.388v4.709c0 1.289-.114 2.552-.321 3.782.49.392 1.048.634 1.651.634 1.861 0 3.369-2.13 3.369-4.757s-1.508-4.756-3.369-4.756z" fill="#fff"/><path d="m39.391 45.38v-4.71c-.408-.248-.857-.388-1.33-.388-1.861 0-3.369 2.13-3.369 4.757s1.508 4.757 3.369 4.757c.603 0 1.161-.242 1.651-.634-.207-1.231-.321-2.493-.321-3.782z" fill="#fff"/><path d="m68.124 67.387h-.051c-1.933.541-3.969.837-6.073.837-2.105 0-4.14-.295-6.073-.837h-.051c-16.05 0-29.062 13.011-29.062 29.062v20.173c0 1.105.895 2 2 2h66.373c1.105 0 2-.895 2-2v-20.173c-.001-16.051-13.012-29.062-29.063-29.062z" fill="#6dc9f7"/><path d="m26.813 107.114v9.507c0 1.105.895 2 2 2h14.974v-11.507z" fill="#fff"/><path d="m70.662 66.501c-2.668 1.108-5.593 1.722-8.662 1.722-3.05 0-5.958-.608-8.613-1.703l6.23 11.208-.916.897c.842 1.253 1.625 2.353 2.219 3.168.545.748 1.653.748 2.198 0 .594-.814 1.377-1.914 2.219-3.168l-.916-.897z" fill="#fff"/><path d="m48.548 68.32 3.273 17.036 7.797-7.627-5.713-10.268c-1.838.123-3.629.41-5.357.859z" fill="#fff"/><path d="m51.531 68.233 2.815 14.652 5.271-5.157-5.563-9.997c-.853.132-1.695.298-2.523.502z" fill="#fa759e"/><path d="m70.127 67.464-5.694 10.242 7.784 7.65 3.256-17.029c-1.724-.45-3.513-.738-5.346-.863z" fill="#fa759e"/><path d="m82.46 35.434c-4.66 0-8.438-3.799-8.438-8.485v-1.571s-12.003 5.339-24.077 2.211c-.327 4.386-3.961 7.844-8.406 7.844h-2.148v10.057c0 12.555 10.122 22.733 22.608 22.733 12.486 0 22.608-10.178 22.608-22.733v-10.056z" fill="#fff"/><path d="m80.213 107.114v11.507h14.974c1.105 0 2-.895 2-2v-9.507z" fill="#fff"/><path d="m42.982 24.712c-1.429-.847-2.609-1.871-3.591-2.98v13.647h2.148c4.445 0 8.079-3.44 8.406-7.801-2.348-.606-4.698-1.523-6.963-2.866z" fill="#ffd7e5"/><path d="m76.17 12.378h-2.148v14.562c0 4.66 3.778 8.438 8.438 8.438h2.148v-14.562c0-4.66-3.778-8.438-8.438-8.438z" fill="#ffd7e5"/><path d="m62.405 5.378c-7.003 0-11.045 5.25-17.721 6.512-4.237.801-10.039-2.512-10.039-2.512s.188 10.502 8.337 15.333c13.917 8.25 31.04.667 31.04.667v-13s-3.62-7-11.617-7z" fill="#ffd7e5"/><path d="m36.25 64.5s-2.921-.564-5.311-.995c-1.596-.288-2.843-1.535-3.131-3.131-.431-2.39-.995-5.311-.995-5.311s-.564 2.921-.995 5.311c-.288 1.596-1.535 2.843-3.131 3.131-2.39.431-5.311.995-5.311.995s2.921.564 5.311.995c1.596.288 2.843 1.535 3.131 3.131.431 2.39.995 5.311.995 5.311s.564-2.921.995-5.311c.288-1.596 1.535-2.843 3.131-3.131 2.391-.431 5.311-.995 5.311-.995z" fill="#d4fbff"/><path d="m106.623 54.476s-2.921-.564-5.311-.995c-1.596-.288-2.843-1.535-3.131-3.131-.431-2.39-.995-5.311-.995-5.311s-.564 2.921-.995 5.311c-.288 1.596-1.535 2.843-3.131 3.131-2.39.431-5.311.995-5.311.995s2.921.564 5.311.995c1.596.288 2.843 1.535 3.131 3.131.431 2.39.995 5.311.995 5.311s.564-2.921.995-5.311c.288-1.596 1.535-2.843 3.131-3.131 2.39-.431 5.311-.995 5.311-.995z" fill="#d4fbff"/><g fill="#3a2c60"><path d="m57.583 117.622h-5.146c-.553 0-1 .448-1 1s.447 1 1 1h5.146c.553 0 1-.448 1-1s-.447-1-1-1z"/><path d="m89.893 75.752c-3.779-3.971-8.629-6.91-14.084-8.354-.03-.011-.053-.032-.084-.04-.141-.037-.289-.057-.431-.091-.646-.159-1.299-.3-1.962-.416-.108-.018-.216-.033-.324-.051-.154-.025-.308-.049-.463-.072 6.283-3.151 10.971-9.022 12.512-16.061.29.083.584.129.88.129 2.45 0 4.369-2.529 4.369-5.757s-1.919-5.756-4.369-5.756c-.112 0-.22.023-.33.034v-3.938-3.183-11.38c0-5.204-4.233-9.438-9.438-9.438h-1.574c-1.067-1.726-4.918-7-12.191-7-4.167 0-7.345 1.742-10.418 3.427-2.309 1.266-4.696 2.575-7.488 3.103-3.823.719-9.303-2.367-9.358-2.398-.313-.178-.695-.175-1.005.009s-.496.519-.49.878c.006.364.198 7.371 4.746 12.723v13.259 3.938c-.11-.011-.219-.034-.33-.034-2.449 0-4.368 2.528-4.368 5.756s1.919 5.757 4.368 5.757c.296 0 .59-.046.88-.129 1.541 7.039 6.23 12.909 12.512 16.061-.009.001-.018.003-.027.004-.3.044-.599.088-.893.14-.022.004-.043.008-.065.012-.755.133-1.49.287-2.172.468-.032.008-.056.03-.086.042-5.463 1.442-10.32 4.383-14.104 8.359-.053.043-.097.091-.14.145-5.052 5.378-8.153 12.607-8.153 20.552v10.666 9.507c0 1.654 1.346 3 3 3h14.974 4.213c.553 0 1-.448 1-1s-.447-1-1-1h-3.21v-27.4c0-5.892-3.238-11.228-8.354-13.982 3.163-3.044 7.033-5.355 11.341-6.656l3.062 15.961c.069.361.332.656.684.766.099.031.199.046.299.046.258 0 .51-.1.699-.285l6.03-5.898c.506.733 1.024 1.471 1.562 2.21.236.324.542.57.888.736v35.503c0 .552.447 1 1 1h18.213 14.974c1.654 0 3-1.346 3-3v-9.507-10.668c0-7.944-3.101-15.173-8.152-20.551-.046-.054-.09-.103-.143-.146zm-10.683 14.469v27.4h-16.21v-34.488c.361-.166.681-.415.926-.751.539-.74 1.062-1.484 1.573-2.226l6.017 5.913c.19.187.443.287.701.287.1 0 .2-.015.298-.045.353-.11.615-.405.685-.767l3.05-15.953c4.297 1.302 8.158 3.611 11.314 6.649-5.116 2.753-8.354 8.09-8.354 13.981zm-4.9-21.139-2.725 14.251-5.908-5.807.681-1.225 4.33-7.79c1.164.105 2.309.284 3.426.526.066.014.131.03.196.045zm13.997-24.043c0 2.317-1.413 4.271-2.905 3.64.131-1.004.205-2.025.205-3.064v-.235-4.058c1.386-.333 2.7 1.506 2.7 3.717zm-4.699-24.223v13.562h-1.148c-4.102 0-7.438-3.337-7.438-7.438v-1.562-12h1.148c4.101 0 7.438 3.337 7.438 7.438zm-38.738-7.943c3.104-.586 5.633-1.973 8.078-3.313 2.983-1.636 5.802-3.181 9.457-3.181 6.625 0 9.973 5.149 10.617 6.259v4.647c-1.932-2.177-5.39-4.906-10.617-4.906-.553 0-1 .448-1 1s.447 1 1 1c6.652 0 9.992 5.179 10.617 6.261v4.066c-2.544.989-12.835 4.539-23.028 1.844-.471-.125-.936-.262-1.394-.41-.095-.031-.19-.06-.284-.091-.532-.179-1.056-.372-1.57-.582-.05-.021-.1-.044-.151-.065-.456-.19-.902-.395-1.342-.609-.112-.055-.223-.108-.335-.165-.485-.245-.963-.501-1.427-.776-.333-.198-.65-.407-.956-.625-.13-.092-.253-.194-.38-.291-.173-.132-.347-.263-.51-.401-.133-.112-.26-.232-.389-.349-.151-.137-.304-.274-.447-.415-.108-.107-.211-.221-.317-.332-3.241-3.428-4.323-7.927-4.677-10.353 2.136.976 5.924 2.38 9.055 1.787zm-4.479 11.228c.294.244.603.48.923.709.057.041.113.081.17.121.318.221.644.438.988.642.555.329 1.128.633 1.711.923.268.134.538.254.808.378.285.13.57.259.861.38.374.156.747.303 1.123.442.148.054.296.106.445.157.474.166.947.323 1.422.462-.649 3.46-3.712 6.064-7.302 6.064h-1.148v-10.278zm-4.698 20.938c0-2.036 1.085-3.756 2.368-3.756.11 0 .221.013.33.04v4.058.235c0 1.039.075 2.06.205 3.064-1.484.623-2.903-1.323-2.903-3.641zm4.698.576v-9.237h1.148c4.51 0 8.356-3.243 9.233-7.567 2.474.547 4.926.776 7.261.776 6.704 0 12.433-1.792 14.988-2.736v.089c0 5.204 4.234 9.438 9.438 9.438h1.147v9.237c0 11.915-9.693 21.608-21.608 21.608s-21.607-9.693-21.607-21.608zm-11.578 72.007c-.552 0-1-.449-1-1v-8.507h14.974v9.507zm13.977-27.401v15.893h-14.977v-9.666c0-7.181 2.714-13.738 7.167-18.707 4.764 2.32 7.81 7.139 7.81 12.48zm9.663-6.882-2.737-14.263c.081-.018.16-.038.241-.056 1.071-.227 2.216-.406 3.362-.512.009-.001.019-.001.028-.002l5.026 9.041-.371.363c-.001.001-.002.002-.002.002zm7.545-4.583.319-.312c.322-.315.394-.806.176-1.2l-4.907-8.85c.068-.001.135-.005.204-.005.382.104.767.199 1.156.284.077.017.153.037.229.053.485.101.977.184 1.472.255.092.013.184.023.276.035.43.056.863.101 1.3.133.084.006.168.014.252.019.505.032 1.012.055 1.524.055.524 0 1.042-.023 1.558-.057.09-.006.18-.014.27-.021.436-.034.869-.079 1.298-.136.087-.012.175-.021.262-.033.491-.071.978-.155 1.459-.256.102-.021.202-.048.304-.07.356-.08.709-.166 1.059-.262.085 0 .169.005.254.006l-4.918 8.847c-.219.394-.147.885.175 1.201l.318.312c-.557.814-1.137 1.635-1.73 2.449-.095.13-.223.15-.29.15-.068 0-.196-.02-.291-.149-.595-.818-1.175-1.639-1.729-2.448zm36.188 37.866c0 .551-.448 1-1 1h-13.974v-9.507h14.974zm0-10.508h-14.976v-15.893c0-5.342 3.045-10.16 7.809-12.479 4.453 4.968 7.167 11.525 7.167 18.707z"/><path d="m52.132 39.954c-1.249 0-2.261 1.012-2.261 2.261s1.012 2.261 2.261 2.261 2.261-1.012 2.261-2.261c0-1.248-1.013-2.261-2.261-2.261z"/><path d="m71.868 39.954c-1.249 0-2.261 1.012-2.261 2.261s1.012 2.261 2.261 2.261 2.261-1.012 2.261-2.261c0-1.248-1.013-2.261-2.261-2.261z"/><path d="m62 53.278c1.969 0 3.571-1.602 3.571-3.571v-1.507c0-.552-.447-1-1-1s-1 .448-1 1v1.507c0 .866-.705 1.571-1.571 1.571s-1.571-.705-1.571-1.571v-1.507c0-.552-.447-1-1-1s-1 .448-1 1v1.507c-.001 1.969 1.602 3.571 3.571 3.571z"/><path d="m70.253 37.836 4.428.771c.059.01.116.015.173.015.478 0 .899-.342.984-.828.095-.544-.27-1.062-.813-1.157l-4.428-.771c-.553-.091-1.063.271-1.157.813-.095.545.269 1.062.813 1.157z"/><path d="m53.402 35.866-4.427.771c-.544.095-.908.613-.813 1.157.085.486.507.828.984.828.057 0 .114-.005.173-.015l4.427-.771c.544-.095.908-.613.813-1.157-.096-.543-.605-.905-1.157-.813z"/><path d="m67.806 57.477c.332-.438.246-1.06-.189-1.395-.437-.334-1.063-.253-1.4.182-.062.079-1.526 1.923-4.217 1.923-2.753 0-4.143-1.825-4.202-1.904-.323-.443-.945-.543-1.392-.221-.448.323-.549.948-.227 1.396.081.111 2.013 2.729 5.82 2.729 3.71 0 5.723-2.6 5.807-2.71z"/><path d="m65 86.753c-.72 0-1.304.584-1.304 1.304s.584 1.304 1.304 1.304 1.304-.584 1.304-1.304-.584-1.304-1.304-1.304z"/><path d="m65 94.628c-.72 0-1.304.584-1.304 1.304s.584 1.304 1.304 1.304 1.304-.584 1.304-1.304-.584-1.304-1.304-1.304z"/><path d="m65 102.503c-.72 0-1.304.584-1.304 1.304s.584 1.304 1.304 1.304 1.304-.584 1.304-1.304-.584-1.304-1.304-1.304z"/><path d="m65 110.378c-.72 0-1.304.584-1.304 1.304s.584 1.304 1.304 1.304 1.304-.584 1.304-1.304-.584-1.304-1.304-1.304z"/><path d="m26.813 74.937c.479 0 .891-.34.981-.81 0 0 .566-2.928.998-5.323.212-1.178 1.146-2.112 2.324-2.324 2.396-.432 5.323-.998 5.323-.998.471-.091.811-.503.811-.982s-.34-.891-.811-.982c0 0-2.928-.565-5.322-.997-1.179-.213-2.113-1.147-2.325-2.325-.432-2.396-.998-5.323-.998-5.323-.091-.47-.502-.81-.981-.81s-.891.34-.981.81c0 0-.566 2.928-.998 5.323-.212 1.178-1.146 2.112-2.324 2.324-2.395.432-5.322.998-5.322.998-.471.091-.811.503-.811.982s.34.891.811.982c0 0 2.928.565 5.322.997 1.178.213 2.112 1.147 2.324 2.324.432 2.396.998 5.324.998 5.324.09.47.501.81.981.81zm-3.948-10.426c-.021-.003-.041-.007-.062-.011.021-.004.041-.007.062-.011 1.995-.36 3.577-1.942 3.938-3.938.004-.021.007-.041.011-.061.004.021.008.041.011.061.36 1.995 1.943 3.578 3.938 3.938.021.003.041.007.061.011-.021.003-.041.007-.062.011-1.995.36-3.577 1.942-3.938 3.938-.004.02-.007.041-.011.061-.004-.021-.008-.041-.011-.061-.36-1.996-1.942-3.578-3.937-3.938z"/><path d="m106.813 53.494s-2.928-.565-5.323-.997c-1.178-.213-2.112-1.147-2.324-2.324-.432-2.396-.998-5.324-.998-5.324-.091-.47-.502-.81-.981-.81s-.891.34-.981.81c0 0-.566 2.928-.998 5.323-.212 1.178-1.146 2.112-2.324 2.324-2.396.432-5.322.998-5.322.998-.471.091-.811.503-.811.982s.34.891.811.982c0 0 2.927.565 5.322.997 1.178.213 2.112 1.147 2.324 2.324.432 2.396.998 5.324.998 5.324.091.47.502.81.981.81s.891-.34.981-.81c0 0 .566-2.928.998-5.323.212-1.178 1.146-2.112 2.324-2.324 2.396-.432 5.323-.998 5.323-.998.471-.091.811-.503.811-.982s-.34-.891-.811-.982zm-5.679.993c-1.995.36-3.577 1.942-3.938 3.938-.004.02-.007.041-.011.061-.004-.021-.008-.041-.011-.061-.36-1.995-1.942-3.577-3.938-3.938-.021-.003-.041-.007-.062-.011.021-.004.041-.007.062-.011 1.995-.36 3.577-1.942 3.938-3.938.004-.02.007-.041.011-.061.004.021.008.041.011.061.36 1.995 1.942 3.577 3.938 3.938.021.003.041.007.062.011-.021.004-.041.007-.062.011z"/></g></svg>