<svg id="Layer_1" enable-background="new 0 0 128 128" height="512" viewBox="0 0 128 128" width="512" xmlns="http://www.w3.org/2000/svg"><path d="m116.949 101.077c-.045-.057-.088-.111-.142-.157-2.33-2.431-5.488-4.06-9.022-4.408 3.147-1.413 5.471-4.329 6.058-7.841.226.179.505.313.782.313.864 0 1.564-.989 1.564-2.208 0-.447-.15-1.208-.15-1.208v-5.373c0-3.217-1.44-6.094-3.705-8.035v-4.426c0-1.674-1.362-3.036-3.037-3.036h-7.601v-6.86c0-1.289-.691-2.494-1.805-3.144l-4.059-2.371c.491-1.799-.763-3.828-3.03-4.748-1.641-.665-3.302-.536-4.444.195-.31-.874-.688-1.577-1.02-2.093l1.72-.887c.34-.176.548-.532.538-.915s-.24-.728-.589-.887c-.113-.051-2.789-1.298-3.418-4.533-.258-1.327.008-3.2.316-5.369.494-3.482 1.109-7.815-.359-11.812-2.648-7.211-7.205-10.254-9.306-11.322-.059-.084-.117-.168-.186-.243-1.39-1.51-4.711-1.791-6.567-1.823-3.161-.057-6.984.506-8.353 1.891-.098.099-.184.203-.265.311-2.405 1.284-6.547 4.375-9.05 11.187-1.466 3.99-.854 7.478-.363 10.28.31 1.766.577 3.292.32 4.616-.668 3.438-3.005 5.692-3.027 5.712-.271.256-.378.642-.276 1 .101.359.394.632.759.708l.743.153c-.499.94-1.128 2.335-1.527 3.899-1.133-.624-2.704-.697-4.251-.069-2.267.919-3.52 2.948-3.031 4.747l-4.059 2.371c-1.112.65-1.804 1.854-1.804 3.144v6.86h-12.6c-1.674 0-3.036 1.362-3.036 3.036v4.449c-2.26 1.94-3.706 4.799-3.706 8.012v5.373s-.15.762-.15 1.208c0 1.22.7 2.208 1.564 2.208.28 0 .556-.124.784-.306.589 3.508 2.912 6.422 6.057 7.833-3.537.348-6.697 1.979-9.026 4.412-.048.041-.086.089-.126.139-2.418 2.591-3.91 6.056-3.91 9.871v10.183c0 1.654 1.346 3 3 3h28.676c1.654 0 3-1.346 3-3v-9.178h2.833v9.178c0 1.654 1.346 3 3 3h28.676c1.654 0 3-1.346 3-3v-9.178h2.834v9.178c0 1.654 1.346 3 3 3h28.675c1.654 0 3-1.346 3-3v-10.183c-.001-3.805-1.489-7.265-3.899-9.854zm-17.253-43.24v6.86h-10.096v-4.194c0-2.292-.454-4.476-1.254-6.486.084-.21.161-.427.233-.648.434.353.938.66 1.511.893.734.298 1.476.439 2.174.439.93 0 1.775-.259 2.428-.729l4.191 2.448c.502.293.813.836.813 1.417zm-62.392 0c0-.581.312-1.124.813-1.417l4.192-2.448c.653.47 1.498.729 2.429.729.698 0 1.439-.142 2.174-.439.637-.259 1.19-.609 1.653-1.014.061.168.124.333.192.494-.87 2.083-1.355 4.366-1.355 6.761v4.194h-10.098z" fill="#e6e7e8"/><path d="m50.747 53.274c-1.511-1.437-1.92-4.451-1.92-4.451l-1.382 3.499s-.905-1.092-1.597-2.577c-.923 2.066-1.448 4.349-1.448 6.759v5.199h7.983v-7.552c-.563-.136-1.133-.399-1.636-.877z" fill="#fff"/><path d="m83.271 49.991c-.594 1.338-1.348 2.33-1.348 2.33l-1.999-1.714s-.367 1.404-1.302 2.666c-.564.761-1.457.918-2.08.925.026 0 .048.001.075.001v7.503h7.983v-5.199c0-2.312-.475-4.512-1.329-6.512z" fill="#fff"/><path d="m75.835 54.146s.422-2.49-1.434-5.299c-1.469-2.222-4.617-3.57-4.833-9.635v3.581c0 1.406-.574 2.677-1.498 3.595.206.384.334.817.334 1.283v6.057c0 1.51-1.224 2.734-2.734 2.734h-2.338c-1.51 0-2.734-1.224-2.734-2.734v-6.057c0-.466.128-.899.334-1.283-.925-.918-1.499-2.189-1.499-3.595v-3.581c.1.043.206.073.308.114-.4-.16-.792-.334-1.171-.531.229.121.46.237.698.342-.32 6.59-3.524 6.927-4.81 10.088-.971 2.386.912 4.713.912 4.713s-1.47.577-2.984.212v7.552h24.232v-7.502c-.452.014-.783-.054-.783-.054z" fill="#0089ef"/><path d="m64.5 40.246c-1.799 0-3.512-.369-5.068-1.033v3.581c0 1.406.574 2.677 1.498 3.595.461-.86 1.357-1.451 2.4-1.451h2.338c1.044 0 1.94.591 2.4 1.451.925-.918 1.499-2.189 1.499-3.595v-3.581c-1.555.664-3.268 1.033-5.067 1.033z" fill="#fff"/><path d="m81.827 41.333 2.772-1.431s-3.248-1.433-3.991-5.255c-.743-3.823 2.266-10.861 0-17.027-2.644-7.197-7.237-10.023-9.07-10.9.661 1.312-.143 4.022-1.527 5.306-.2.186-.515.354-.909.502.463.864 1.531 2.671 3.002 3.984.713.637 1.593 1.178 2.43 1.611 1.777.919 2.88 2.764 2.88 4.765v4.443c0 5.333-3.234 9.911-7.847 11.881.216 6.064 3.365 7.412 4.834 9.634 1.856 2.809 1.434 5.299 1.434 5.299s1.85.39 2.785-.872 1.302-2.666 1.302-2.666l1.999 1.714s2.183-2.861 2.046-5.428c-.189-3.569-2.14-5.56-2.14-5.56z" fill="#ffd7e5"/><path d="m59.266 39.137c-4.524-2.009-7.681-6.537-7.681-11.806v-4.665c0-1.955 1.062-3.747 2.767-4.704.913-.512 1.915-1.141 2.782-1.842 1.562-1.262 2.395-2.699 2.768-3.49-.393-.165-.709-.364-.915-.603-1.439-1.668-2.222-3.854-1.422-5.177-1.979 1.01-6.282 3.897-8.807 10.77-2.266 6.167.743 10.92 0 14.742-.743 3.823-3.324 6.25-3.324 6.25l2.105.436s-2.89 4.324-2.428 8.275c.299 2.553 2.333 4.998 2.333 4.998l1.382-3.499s.409 3.014 1.92 4.451c1.853 1.761 4.621.665 4.621.665s-1.883-2.327-.912-4.713c1.287-3.16 4.492-3.498 4.811-10.088z" fill="#ffd7e5"/><path d="m78.174 24.419c-.27 0-.526.08-.76.222v2.69c0 .737-.065 1.458-.183 2.16.28.224.599.362.943.362 1.063 0 1.925-1.217 1.925-2.717s-.862-2.717-1.925-2.717z" fill="#fff"/><path d="m51.585 27.331v-2.69c-.233-.142-.49-.222-.76-.222-1.063 0-1.925 1.216-1.925 2.717s.862 2.717 1.925 2.717c.345 0 .663-.138.943-.362-.118-.702-.183-1.423-.183-2.16z" fill="#fff"/><circle cx="79.066" cy="29.411" fill="#0089ef" r="1.002"/><circle cx="49.934" cy="29.411" fill="#0089ef" r="1.002"/><path d="m74.535 18.124c-.837-.433-1.717-.974-2.43-1.611-1.471-1.314-2.539-3.12-3.002-3.984-2.203.829-6.973 1.034-9.199.101-.374.791-1.206 2.228-2.768 3.49-.867.7-1.869 1.33-2.782 1.842-1.705.957-2.767 2.749-2.767 4.704v4.665c0 7.133 5.782 12.915 12.915 12.915 7.133 0 12.915-5.782 12.915-12.915v-4.443c-.002-2-1.105-3.845-2.882-4.764z" fill="#fff"/><path d="m71.865 28.125c-.634 0-1.147.324-1.147.723s.514.723 1.147.723 1.147-.324 1.147-.723-.513-.723-1.147-.723z" fill="#ffd7e5"/><ellipse cx="57.135" cy="28.688" fill="#ffd7e5" rx="1.147" ry=".723"/><path d="m64.5 35.397c-2.058 0-3.11-1.427-3.154-1.487-.242-.336-.166-.805.17-1.047.333-.24.799-.166 1.042.164.031.041.677.871 1.942.871 1.247 0 1.941-.87 1.948-.879.25-.33.719-.396 1.051-.146.33.25.395.721.145 1.051-.045.06-1.139 1.473-3.144 1.473z" fill="#fa759e"/><path d="m71.319 6.387c-2.05-2.227-11.603-1.799-13.473.093-1.235 1.25-.439 3.713 1.142 5.546s9.51 1.404 11.023 0c1.514-1.404 2.34-4.518 1.308-5.639z" fill="#ffd7e5"/><path d="m44.662 106.939v-.005c0-3.815 1.492-7.279 3.91-9.87.04-.05.078-.099.127-.139 2.33-2.433 5.49-4.064 9.027-4.412-3.145-1.412-5.468-4.325-6.057-7.833-.227.182-.504.306-.784.306-.864 0-1.564-.989-1.564-2.208 0-.447.15-1.208.15-1.208v-5.373c0-1.424.298-2.773.808-4.012h-14.051c.508 1.238.792 2.591.792 4.012v5.373s.15.762.15 1.208c0 1.22-.7 2.208-1.564 2.208-.277 0-.556-.134-.782-.313-.587 3.511-2.911 6.428-6.058 7.841 3.536.348 6.694 1.977 9.024 4.409.053.044.095.097.138.152 2.412 2.59 3.901 6.051 3.901 9.861v.005h2.833z" fill="#ffd7e5"/><path d="m82.172 106.939v-.005c0-3.815 1.492-7.28 3.91-9.87.04-.05.078-.099.127-.14 2.33-2.433 5.49-4.064 9.026-4.412-3.145-1.412-5.468-4.325-6.057-7.833-.227.182-.504.306-.784.306-.864 0-1.564-.989-1.564-2.208 0-.447.15-1.208.15-1.208v-5.373c0-1.424.298-2.773.808-4.012h-14.051c.508 1.238.792 2.591.792 4.012v5.373s.15.762.15 1.208c0 1.22-.7 2.208-1.564 2.208-.277 0-.556-.134-.782-.313-.587 3.511-2.911 6.428-6.058 7.841 3.535.348 6.694 1.977 9.024 4.409.053.044.094.096.138.151 2.413 2.59 3.902 6.051 3.902 9.861v.005z" fill="#ffd7e5"/><path d="m17.729 66.776c-.405-.671-.361-1.463.138-1.851.416-.323 1.026-.274 1.536.073.183-.587.628-1.004 1.153-1.011.698-.009 1.275.709 1.287 1.604 0 .018-.003.035-.003.053.235-.016.469-.036.708-.036h3.885c4.426 0 8.214 2.719 9.795 6.575h14.051c.963-2.336 2.723-4.26 4.959-5.406-.405-.671-.361-1.463.138-1.851.416-.323 1.026-.274 1.536.073.183-.587.628-1.004 1.154-1.011.698-.009 1.275.709 1.287 1.604 0 .018-.003.035-.003.053.235-.016.469-.036.708-.036h3.885c4.426 0 8.213 2.719 9.795 6.575h14.051c.963-2.336 2.723-4.26 4.959-5.406-.405-.671-.361-1.463.138-1.851.416-.323 1.026-.274 1.536.073.183-.587.628-1.004 1.153-1.011.698-.009 1.275.709 1.287 1.604 0 .018-.003.035-.003.053.235-.016.469-.036.708-.036h3.885c2.175 0 4.196.658 5.878 1.783v-3.658c0-1.12-.91-2.03-2.03-2.03h-86.6c-1.12 0-2.03.91-2.03 2.03v3.68c.342-.231.691-.45 1.059-.639z" fill="#fff"/><path d="m96.862 65.59c0 .018-.003.035-.003.053.235-.016.469-.036.708-.036h3.885c2.175 0 4.196.658 5.878 1.783v-.658c0-1.12-.91-2.03-2.03-2.03h-8.659c.135.254.217.559.221.888z" fill="#fa759e"/><path d="m92.747 66.776c-.405-.671-.361-1.463.138-1.851.416-.323 1.026-.274 1.536.073.033-.107.084-.201.134-.295h-35.423c.135.254.217.559.221.888 0 .018-.003.035-.003.053.235-.016.469-.036.708-.036h3.885c4.426 0 8.213 2.719 9.795 6.575h14.051c.962-2.337 2.722-4.26 4.958-5.407z" fill="#fa759e"/><path d="m55.238 66.776c-.405-.671-.361-1.463.138-1.851.416-.323 1.026-.274 1.536.073.033-.107.084-.201.134-.295h-35.424c.135.254.217.559.221.888 0 .018-.003.035-.003.053.235-.016.469-.036.708-.036h3.885c4.426 0 8.214 2.719 9.795 6.575h14.051c.963-2.337 2.723-4.26 4.959-5.407z" fill="#fa759e"/><path d="m17.729 66.776c-.405-.671-.361-1.463.138-1.851.077-.06.165-.093.253-.128-.836.251-1.45 1.018-1.45 1.936v.68c.342-.229.691-.448 1.059-.637z" fill="#fa759e"/><path d="m19.403 64.998c.033-.107.084-.201.134-.295h-.837c-.031 0-.06.008-.091.009.265.017.542.114.794.286z" fill="#fa759e"/><path d="m65.669 56.463h-2.338c-1.51 0-2.734-1.224-2.734-2.734v-6.057c0-1.51 1.224-2.734 2.734-2.734h2.338c1.51 0 2.734 1.224 2.734 2.734v6.057c0 1.51-1.224 2.734-2.734 2.734z" fill="#d4fbff"/><g fill="#6dc9f7"><path d="m60.597 47.589h7.806v.901h-7.806z"/><path d="m60.597 49.363h7.806v.901h-7.806z"/><path d="m60.597 51.136h7.806v.901h-7.806z"/><path d="m60.597 52.91h7.806v.901h-7.806z"/><path d="m65.823 44.942v1.234c0 .249.202.451.451.451s.451-.202.451-.451v-1.027c-.28-.117-.584-.189-.902-.207z"/><path d="m64.049 44.938v1.238c0 .249.202.451.451.451s.451-.202.451-.451v-1.238z"/><path d="m62.275 45.149v1.027c0 .249.202.451.451.451s.451-.202.451-.451v-1.234c-.318.018-.622.09-.902.207z"/><path d="m66.274 54.774c-.249 0-.451.202-.451.451v1.234c.318-.018.622-.09.901-.207v-1.027c.001-.249-.201-.451-.45-.451z"/><path d="m64.5 54.774c-.249 0-.451.202-.451.451v1.238h.901v-1.238c.001-.249-.201-.451-.45-.451z"/><path d="m62.726 54.774c-.249 0-.451.202-.451.451v1.027c.28.117.583.189.901.207v-1.234c.001-.249-.201-.451-.45-.451z"/></g><path d="m44.924 45.551c-.541-1.334-2.489-1.804-4.35-1.049s-2.931 2.449-2.389 3.783c.541 1.334 2.489 1.804 4.35 1.049 1.86-.755 2.93-2.449 2.389-3.783z" fill="#fa759e"/><path d="m88.427 44.502c-1.861-.755-3.809-.286-4.35 1.049s.528 3.028 2.389 3.783 3.809.286 4.35-1.049c.542-1.334-.528-3.028-2.389-3.783z" fill="#fa759e"/><path d="m8.153 119.117h32.675v-12.183c0-7.453-6.041-13.494-13.494-13.494h-5.687c-7.453 0-13.494 6.041-13.494 13.494z" fill="#0089ef"/><path d="m45.663 119.117h32.675v-12.183c0-7.453-6.041-13.494-13.494-13.494h-5.687c-7.453 0-13.494 6.041-13.494 13.494z" fill="#0089ef"/><path d="m83.172 119.117h32.675v-12.183c0-7.453-6.041-13.494-13.494-13.494h-5.687c-7.453 0-13.494 6.041-13.494 13.494z" fill="#0089ef"/><path d="m58.802 24.232c-.713 0-1.291.578-1.291 1.292 0 .713.578 1.291 1.291 1.291s1.292-.578 1.292-1.291c0-.714-.578-1.292-1.292-1.292z" fill="#3a2c60"/><path d="m70.198 24.232c-.713 0-1.291.578-1.291 1.292 0 .713.578 1.291 1.291 1.291s1.291-.578 1.291-1.291c0-.714-.578-1.292-1.291-1.292z" fill="#3a2c60"/><path d="m64.5 32.271c1.361 0 2.469-1.107 2.469-2.469v-.861c0-.552-.447-1-1-1s-1 .448-1 1v.861c0 .258-.21.469-.469.469s-.469-.21-.469-.469v-.861c0-.552-.447-1-1-1s-1 .448-1 1v.861c0 1.362 1.108 2.469 2.469 2.469z" fill="#3a2c60"/><path d="m69.142 23.445 2.528.44c.059.01.116.015.173.015.478 0 .899-.342.984-.829.095-.544-.27-1.062-.813-1.157l-2.528-.44c-.55-.094-1.063.27-1.157.814s.269 1.062.813 1.157z" fill="#3a2c60"/><path d="m59.516 21.474-2.529.44c-.544.095-.908.613-.813 1.157.085.486.507.829.984.829.057 0 .114-.005.173-.015l2.529-.44c.544-.095.908-.613.813-1.157s-.603-.908-1.157-.814z" fill="#3a2c60"/><path d="m112.946 97.073c-.043-.055-.085-.107-.138-.151-2.33-2.432-5.489-4.061-9.024-4.409 3.147-1.413 5.471-4.329 6.058-7.841.226.179.505.313.782.313.864 0 1.564-.989 1.564-2.208 0-.447-.15-1.208-.15-1.208v-5.373c0-3.218-1.44-6.094-3.706-8.036h.001v-4.425c0-1.674-1.362-3.036-3.037-3.036h-7.601v-6.86c0-1.289-.691-2.494-1.805-3.144l-4.059-2.371c.49-1.799-.763-3.828-3.03-4.748-1.641-.665-3.302-.536-4.444.195-.31-.874-.688-1.577-1.02-2.093l1.72-.887c.34-.176.548-.532.538-.915s-.24-.728-.589-.887c-.113-.051-2.789-1.298-3.418-4.533-.257-1.327.009-3.199.316-5.368.494-3.483 1.109-7.817-.359-11.814-2.648-7.211-7.205-10.254-9.306-11.322-.059-.084-.117-.168-.186-.243-1.39-1.51-4.711-1.791-6.567-1.823-3.161-.057-6.984.506-8.353 1.891-.098.099-.184.203-.265.311-2.405 1.284-6.547 4.375-9.05 11.187-1.466 3.99-.854 7.478-.363 10.28.31 1.766.577 3.292.32 4.616-.668 3.438-3.005 5.692-3.027 5.712-.271.256-.378.642-.276 1 .101.359.394.632.759.708l.743.153c-.499.94-1.128 2.335-1.527 3.899-1.133-.624-2.704-.697-4.251-.069-2.267.919-3.52 2.948-3.031 4.747l-4.059 2.371c-1.112.65-1.804 1.854-1.804 3.144v6.86h-12.599c-1.674 0-3.036 1.362-3.036 3.036v4.449c-2.26 1.939-3.706 4.799-3.706 8.012v5.373s-.15.762-.15 1.208c0 1.22.7 2.208 1.564 2.208.28 0 .556-.124.784-.306.589 3.508 2.912 6.422 6.057 7.833-3.537.348-6.697 1.979-9.026 4.412-.048.041-.086.089-.126.139-2.418 2.591-3.91 6.056-3.91 9.871v10.183c0 1.654 1.346 3 3 3h28.676c1.654 0 3-1.346 3-3v-9.178h2.833v9.178c0 1.654 1.346 3 3 3h28.676c1.654 0 3-1.346 3-3v-9.178h2.834v9.178c0 1.654 1.346 3 3 3h28.676c1.654 0 3-1.346 3-3v-10.183c-.001-3.807-1.491-7.268-3.903-9.858zm-17.25-43.236v6.86h-10.096v-4.194c0-2.289-.457-4.468-1.259-6.474.086-.214.165-.435.239-.661.434.353.938.66 1.511.893.734.298 1.476.439 2.174.439.93 0 1.775-.259 2.428-.729l4.191 2.448c.501.294.812.837.812 1.418zm-49.646-1.727c.34.501.597.815.627.851.226.271.578.405.927.348.349-.056.643-.292.771-.62l.302-.763c.329.748.777 1.499 1.381 2.073.418.397.869.677 1.326.874v5.825h-5.984v-4.194c0-1.528.235-2.999.65-4.394zm7.384 3.166c.937 0 1.723-.213 2.088-.332.096-.031.153-.052.184-.064.01-.004.027-.01.031-.012.087-.034.15-.101.223-.156.051-.039.114-.062.157-.11.041-.046.055-.11.087-.163.048-.08.108-.153.132-.246.041-.154.043-.313.011-.465s-.1-.296-.2-.419c-.004-.005-.099-.127-.228-.335-.387-.626-1.081-2.03-.535-3.372.377-.929.96-1.584 1.634-2.342.126-.142.253-.286.381-.433.033-.038.066-.076.1-.115.123-.144.246-.292.368-.444.041-.051.081-.102.121-.154.117-.151.233-.305.347-.469.042-.059.082-.122.123-.184.09-.135.179-.276.265-.421.029-.048.06-.09.088-.14.021.056.051.107.073.162.066.164.137.324.217.48.032.061.065.12.099.18.103.186.215.365.337.538.011.015.021.031.032.046.068.095.135.191.209.282-.106.345-.179.704-.179 1.083v6.057c0 2.059 1.675 3.734 3.734 3.734h.167v3.235h-10.116v-5.424c.016.001.033.003.05.003zm-2.767-26.455c-.383-.154-.766-.836-.766-1.685 0-.789.331-1.433.685-1.644v1.838c0 .422.026.839.063 1.254.007.073.009.148.017.221.001.006 0 .011.001.016zm20.047 17.245c.143.196.288.385.435.563.042.051.084.1.126.15.154.182.308.359.461.527.035.039.069.075.105.113.159.173.318.341.472.504.479.506.932.984 1.256 1.474 1.595 2.413 1.295 4.5 1.282 4.581-.022.132-.017.263.011.386.004.019.017.033.022.052.029.103.067.203.126.29.02.029.052.049.074.076.057.068.114.137.188.188.039.027.09.037.133.058.069.034.134.076.213.093v5.577h-10.118v-3.235h.169c2.06 0 3.734-1.675 3.734-3.734v-6.057c0-.379-.074-.738-.179-1.083.049-.061.095-.123.142-.186.012-.016.023-.034.035-.05.116-.159.225-.322.325-.491.045-.076.085-.154.127-.232.064-.12.125-.24.181-.364.02-.045.046-.086.065-.131.024.041.05.074.074.114.13.218.265.426.403.624.045.066.091.129.138.193zm8.711 7.803c.396-.535.701-1.09.928-1.577l.92.789c.209.18.483.263.756.235.273-.029.522-.169.689-.388.021-.028.151-.201.332-.474.353 1.292.549 2.646.549 4.049v4.194h-5.983v-5.636c.66-.176 1.321-.535 1.809-1.192zm-18.443-9.077c-.34-.592-.55-1.268-.55-1.999v-2.152c.384.118.775.213 1.169.296.104.022.209.038.313.058.308.058.617.105.929.142.135.016.27.033.407.045.376.033.753.054 1.13.057.04 0 .079.006.12.006s.08-.006.121-.006c.377-.003.753-.024 1.128-.057.137-.012.273-.029.409-.045.311-.037.619-.084.927-.142.105-.02.21-.036.314-.058.394-.083.785-.178 1.169-.296v2.152c0 .731-.21 1.407-.55 1.999-.644-.526-1.455-.855-2.349-.855h-2.338c-.894.001-1.705.329-2.349.855zm.615 2.88c0-.957.778-1.734 1.734-1.734h2.338c.956 0 1.734.778 1.734 1.734v6.057c0 .957-.778 1.734-1.734 1.734h-2.338c-.956 0-1.734-.778-1.734-1.734zm16.736-18.856c.008-.073.011-.147.018-.22.038-.418.064-.839.064-1.265v-1.838c.354.211.684.855.684 1.644 0 .849-.383 1.531-.766 1.685 0-.003 0-.005 0-.006zm-15.376-14.601c.125.007.258.006.386.01.067.002.133.004.2.006.173.004.341.014.518.014.14 0 .284-.007.426-.01.032-.001.063-.001.094-.002.328-.008.655-.023.984-.046.04-.003.08-.005.12-.008.1-.007.2-.012.299-.02.036.005.067.023.103.024h.027c.139 0 .271-.031.392-.082.034-.004.068-.008.102-.012.049-.006.098-.011.146-.017.264-.034.521-.075.774-.119.086-.015.174-.028.258-.044.125-.024.245-.051.366-.078.028-.007.056-.011.084-.02.021-.005.041-.01.062-.015.108-.025.226-.046.329-.073.61 1.028 1.572 2.431 2.81 3.536.687.614 1.574 1.204 2.636 1.753h.001c1.443.747 2.34 2.232 2.34 3.876v4.443c0 6.57-5.345 11.915-11.915 11.915-6.569 0-11.914-5.345-11.914-11.915v-4.666c0-1.583.864-3.051 2.256-3.832 1.137-.638 2.12-1.289 2.922-1.936 1.282-1.037 2.12-2.189 2.628-3.056h.002c.718.192 1.568.319 2.564.374zm22.046 31.711c.287-.704 1.607-1.081 3.048-.497 1.439.584 2.125 1.776 1.839 2.48-.285.705-1.61 1.083-3.048.499-1.44-.584-2.125-1.777-1.839-2.482zm-2.388-6.125-1.247.644c-.28.145-.474.415-.525.726-.052.312.048.631.267.858.017.018 1.694 1.803 1.86 4.918.074 1.38-.689 2.931-1.256 3.879l-1.141-.977c-.261-.223-.62-.297-.947-.195-.328.102-.581.367-.67.699-.003.012-.338 1.245-1.139 2.326-.235.318-.605.451-.948.5-.002-.062-.009-.133-.013-.199-.005-.074-.008-.145-.015-.224-.008-.084-.021-.177-.031-.267-.01-.081-.017-.159-.03-.244-.015-.102-.037-.21-.057-.318-.015-.082-.027-.161-.046-.246-.026-.12-.06-.246-.092-.371-.021-.08-.037-.157-.061-.24-.04-.139-.09-.285-.139-.43-.025-.074-.045-.145-.072-.22-.058-.158-.128-.322-.198-.486-.029-.067-.051-.131-.082-.199-.085-.187-.184-.379-.286-.571-.025-.047-.044-.092-.07-.139-.133-.24-.279-.484-.441-.729-.244-.369-.524-.706-.817-1.035-.211-.237-.427-.472-.653-.711-.02-.021-.041-.043-.061-.065-.131-.138-.261-.278-.392-.419-.031-.034-.063-.067-.094-.101-.153-.168-.304-.341-.453-.519-.024-.029-.048-.057-.072-.086-.148-.18-.291-.368-.431-.564-.023-.032-.047-.065-.07-.098-.137-.198-.269-.407-.395-.628-.022-.038-.043-.076-.065-.114-.124-.225-.24-.463-.349-.716-.018-.042-.036-.085-.053-.128-.107-.261-.206-.537-.294-.833-.013-.044-.025-.089-.037-.133-.087-.307-.163-.633-.227-.983-.007-.041-.013-.084-.02-.125-.062-.367-.112-.755-.145-1.174-.001-.008-.001-.017-.001-.026.149-.073.29-.155.435-.232.048-.026.096-.05.143-.076 1.388-.76 2.614-1.738 3.645-2.882.435 1.024 1.221 2.22 2.642 3.016.154.086.322.127.487.127.351 0 .69-.184.874-.512.27-.482.098-1.091-.385-1.361-1.63-.912-2.038-2.698-2.127-3.243.371-.598.693-1.225.97-1.875.024-.055.045-.112.068-.168.138-.335.263-.676.375-1.022.025-.076.051-.151.074-.227.056-.185.105-.371.154-.559.071.007.14.029.212.029.574 0 1.1-.209 1.547-.559-.224 1.724-.346 3.249-.095 4.543.479 2.464 1.867 4.049 2.989 4.964zm-2.945-21.837c.801 2.182.894 4.502.734 6.767-.484-.728-1.183-1.201-1.989-1.282v-.561c0-.319-.027-.633-.072-.942.191.202.453.315.724.315.168 0 .339-.042.495-.132.479-.274.646-.885.372-1.364-1.183-2.069-3.689-2.959-4.332-3.159-.196-.131-.395-.26-.609-.37-.914-.473-1.662-.967-2.224-1.468-.22-.197-.428-.41-.629-.627-.052-.057-.103-.114-.154-.171-.161-.182-.316-.366-.462-.552-.031-.039-.063-.078-.093-.116-.173-.225-.335-.449-.484-.665-.028-.041-.054-.08-.081-.121-.119-.177-.23-.348-.33-.509-.016-.026-.033-.052-.048-.078.073-.054.141-.11.204-.168.125-.116.246-.243.362-.376.023-.026.044-.055.067-.083.007-.008.014-.017.02-.025.564.69 1.412 1.511 2.676 2.218.154.086.322.127.487.127.351 0 .69-.184.874-.512.27-.482.098-1.091-.385-1.361-1.494-.837-2.239-1.83-2.549-2.344.025-.062.049-.124.072-.186.01-.026.018-.052.028-.079.189-.516.329-1.049.393-1.572 2.07 1.403 5.022 4.194 6.933 9.396zm-14.637-12.081c.139 0 .278.001.419.003 3.036.054 4.662.668 5.132 1.178.033.036.05.099.074.149.041.092.074.195.094.314.002.013.003.028.005.042.016.119.021.251.018.39-.002.056-.006.114-.011.172-.008.105-.02.213-.037.325-.016.1-.038.204-.061.309-.02.089-.039.178-.064.269-.032.115-.072.232-.112.349-.032.092-.062.183-.098.274-.044.109-.096.216-.147.323-.046.096-.088.193-.139.286-.06.11-.13.213-.199.317-.051.079-.099.162-.154.236-.103.138-.218.261-.336.379.162-.75.297-1.617.297-2.456 0-.552-.447-1-1-1s-1 .448-1 1c0 1.195-.348 2.528-.565 3.249-.01.002-.021.003-.031.005-.063-.479-.448-.861-.947-.875-.009 0-.018 0-.027 0-.539 0-.984.43-.999.973l-.003.115c-.027.001-.054.002-.082.004l-.231-.914c-.135-.536-.68-.857-1.215-.725-.535.135-.859.679-.725 1.214l.106.419c-.076-.004-.153-.008-.228-.013-.039-.003-.078-.006-.116-.009-.14-.011-.278-.025-.413-.039-.365-.726-.806-1.812-.806-2.452 0-.552-.447-1-1-1s-1 .448-1 1c0 .532.142 1.129.327 1.69-.003-.003-.009-.007-.011-.01-.159-.185-.305-.374-.441-.565-.112-.158-.214-.319-.31-.479-.016-.026-.035-.053-.05-.079-.322-.556-.541-1.112-.638-1.607-.003-.015-.006-.03-.009-.044-.026-.141-.038-.274-.043-.403-.001-.036-.003-.073-.002-.108.001-.106.011-.205.028-.3.009-.049.02-.096.034-.142.022-.079.05-.153.086-.221.045-.087.09-.174.157-.241.632-.645 3.254-1.302 6.473-1.302zm-15.336 12.081c1.815-4.939 4.601-7.71 6.604-9.161.007.044.025.089.033.133.046.253.11.509.191.765.025.078.049.155.077.233.056.158.119.315.187.471-.311.513-1.054 1.506-2.548 2.343-.482.27-.654.879-.385 1.361.184.328.523.512.874.512.165 0 .333-.041.487-.127 1.267-.709 2.116-1.532 2.68-2.223.107.14.219.276.334.409.096.112.206.217.328.317.001.001.002.002.003.003-.015.024-.029.047-.044.072-.079.125-.166.256-.26.391-.025.035-.046.069-.072.104-.122.169-.258.343-.406.52-.037.044-.077.088-.116.132-.122.14-.253.282-.392.423-.051.052-.102.104-.155.156-.189.183-.389.366-.609.545-.715.577-1.604 1.164-2.644 1.747-2.021 1.135-3.277 3.271-3.277 5.576v.784c-.607.061-1.153.344-1.594.793-.188-1.926-.129-4.011.704-6.279zm-1.232 20.704c-.126-.308-.396-.533-.722-.6l-.447-.092c.871-1.17 1.982-3.042 2.444-5.423.122-.625.155-1.262.132-1.912.299.128.616.212.954.212.072 0 .142-.022.214-.029.042.163.085.325.133.486.04.134.085.265.129.398.089.266.185.529.289.788.008.019.014.04.021.059-.2.385-.691 1.263-1.441 2.15-.356.422-.304 1.053.118 1.409.188.159.417.236.645.236.285 0 .567-.121.765-.354.392-.464.716-.918.984-1.327.061.099.129.193.193.29.054.082.107.164.163.245.193.281.396.556.609.823.051.935.045 4.374-2.39 7.832-.318.451-.21 1.075.241 1.393.176.124.376.183.575.183.314 0 .624-.147.818-.424 1.834-2.604 2.475-5.2 2.679-7.018.017.014.033.029.049.042s.03.027.046.04c.329.271.671.527 1.026.768.039.027.08.051.119.077.297.198.604.383.919.559.086.048.173.097.26.143.078.041.153.088.232.128-.104 1.239-.324 2.196-.616 2.988-.015.04-.026.087-.041.125-.051.133-.111.248-.167.372-.51 1.137-1.181 1.913-1.879 2.698-.729.821-1.484 1.67-1.991 2.917-.69 1.696-.242 3.325.268 4.409-.346.029-.74.016-1.132-.072-.432-.097-.862-.286-1.23-.636-1.024-.973-1.515-3.118-1.617-3.861-.063-.451-.421-.803-.872-.857-.04-.005-.08-.007-.12-.007-.405 0-.777.247-.929.632l-.688 1.742c-.479-.83-.978-1.912-1.104-2.99-.413-3.529 2.239-7.564 2.267-7.604.185-.28.22-.63.094-.938zm-7.516 6.761c.493-.2.972-.288 1.4-.288.822 0 1.459.322 1.647.785.286.705-.399 1.897-1.839 2.481-1.44.585-2.762.207-3.048-.498-.285-.704.401-1.896 1.84-2.48zm-7.645 8.408c0-.581.312-1.124.813-1.417l4.192-2.448c.653.47 1.498.729 2.429.729.698 0 1.439-.142 2.174-.439.637-.259 1.19-.609 1.653-1.014.063.176.13.347.201.516-.87 2.078-1.364 4.35-1.364 6.74v4.194h-10.098zm-15.637 12.976v-.183c.024.048.033.099.062.146-.022.011-.041.026-.062.037zm1.736-1.815c-.51-.347-1.12-.396-1.536-.073-.086.067-.141.16-.2.248v-1.439c0-.571.465-1.036 1.036-1.036h86.594c.572 0 1.037.465 1.037 1.036v3.072c-1.462-.762-3.12-1.199-4.883-1.199h-3.885c-.239 0-.473.02-.708.036 0-.018.004-.035.003-.053-.012-.895-.588-1.614-1.287-1.604-.526.007-.97.424-1.153 1.011-.51-.347-1.12-.396-1.536-.073-.5.389-.543 1.18-.138 1.851-1.906.978-3.458 2.527-4.477 4.407h-15.002s.001.001.001.002c-1.787-3.32-5.293-5.577-9.327-5.577h-3.885c-.239 0-.473.02-.708.036 0-.018.004-.035.003-.053-.012-.895-.588-1.614-1.287-1.604-.526.007-.97.424-1.154 1.011-.51-.347-1.12-.396-1.536-.073-.5.389-.543 1.18-.138 1.851-1.906.978-3.458 2.527-4.477 4.407h-15.001s.001.001.001.002c-1.787-3.32-5.293-5.577-9.327-5.577h-3.885c-.239 0-.473.02-.708.036 0-.018.004-.035.003-.053-.012-.895-.588-1.614-1.287-1.604-.525.007-.969.424-1.153 1.012zm-1.885.515.009-.036c-.003.012-.006.024-.009.036zm56.21 6.644c0 .001.001.002.001.003 0-.001 0-.002-.001-.003zm-4.271 45.96h-14.911v-14.075c0-2.679-1.354-5.119-3.527-6.569 2.189-1.885 5.029-3.034 8.138-3.034h5.687c3.109 0 5.95 1.149 8.139 3.035-2.173 1.45-3.526 3.889-3.526 6.568zm-33.238-45.96c0 .001.001.002.001.003 0-.001-.001-.002-.001-.003zm-4.272 45.96h-14.911v-14.075c0-2.679-1.354-5.119-3.527-6.568 2.189-1.886 5.029-3.034 8.138-3.034h5.688c3.109 0 5.95 1.149 8.139 3.035-2.173 1.45-3.526 3.889-3.526 6.568v14.074zm-22.794-1v-10.183c0-3.046 1.098-5.838 2.916-8.008 1.82 1.047 2.967 2.98 2.967 5.116v14.075h-4.883c-.551 0-1-.449-1-1zm30.676 0c0 .551-.448 1-1 1h-4.882v-14.075c0-2.136 1.148-4.07 2.967-5.116 1.817 2.17 2.915 4.962 2.915 8.007zm4.833-10.183c0-.336.026-.665.048-.995h-2.93c.023.33.048.659.048.995 0-3.81-1.489-7.271-3.901-9.861-.043-.055-.085-.108-.138-.152-2.33-2.432-5.489-4.061-9.024-4.409 3.147-1.413 5.471-4.329 6.058-7.841.226.179.505.313.782.313.864 0 1.564-.989 1.564-2.208 0-.447-.15-1.208-.15-1.208v-5.373c0-1.047-.158-2.056-.441-3.011h13.33v-.001c.105-.352.231-.693.375-1.026.004-.008.008-.016.012-.024-.523 1.252-.826 2.62-.826 4.062v5.373s-.15.762-.15 1.208c0 1.22.7 2.208 1.564 2.208.28 0 .556-.124.784-.306.589 3.508 2.912 6.422 6.057 7.833-3.537.348-6.697 1.979-9.027 4.412-.048.041-.086.089-.127.139-2.416 2.593-3.908 6.058-3.908 9.872zm2 10.183v-10.183c0-3.046 1.098-5.838 2.916-8.008 1.82 1.046 2.968 2.98 2.968 5.116v14.075h-4.884c-.552 0-1-.449-1-1zm30.676 0c0 .551-.448 1-1 1h-4.881v-14.075c0-2.136 1.147-4.069 2.966-5.116 1.817 2.17 2.915 4.962 2.915 8.007zm4.834-10.183c0-.336.026-.665.048-.995h-2.931c.023.33.048.659.048.995 0-3.811-1.489-7.272-3.902-9.861-.043-.055-.085-.108-.138-.151-2.33-2.432-5.488-4.061-9.024-4.409 3.147-1.413 5.471-4.329 6.058-7.841.226.179.505.313.782.313.864 0 1.564-.989 1.564-2.208 0-.447-.15-1.208-.15-1.208v-5.373c0-1.047-.158-2.056-.441-3.011h13.33v-.001c.105-.352.231-.693.375-1.026.004-.008.008-.016.012-.024-.523 1.252-.826 2.62-.826 4.062v5.373s-.15.762-.15 1.208c0 1.22.7 2.208 1.564 2.208.28 0 .556-.124.784-.306.589 3.508 2.912 6.422 6.057 7.833-3.537.348-6.696 1.979-9.026 4.412-.048.041-.086.089-.127.14-2.415 2.591-3.907 6.055-3.907 9.87zm2 10.183v-10.183c0-3.046 1.098-5.838 2.916-8.008 1.82 1.047 2.967 2.98 2.967 5.116v14.075h-4.883c-.552 0-1-.449-1-1zm30.676 0c0 .551-.448 1-1 1h-4.882v-2.056c0-.552-.447-1-1-1s-1 .448-1 1v2.056h-14.911v-14.075c0-2.679-1.354-5.119-3.527-6.568 2.189-1.886 5.029-3.034 8.138-3.034h5.688c3.109 0 5.95 1.149 8.139 3.035-2.173 1.45-3.526 3.889-3.526 6.568v2.5c0 .552.447 1 1 1s1-.448 1-1v-2.5c0-2.136 1.148-4.07 2.967-5.116 1.817 2.17 2.915 4.962 2.915 8.007v10.183z" fill="#3a2c60"/><path d="m107.966 108.399c-.553 0-1 .448-1 1v3.606c0 .552.447 1 1 1s1-.448 1-1v-3.606c0-.552-.447-1-1-1z" fill="#3a2c60"/></svg>