<svg id="Layer_1" enable-background="new 0 0 128 128" height="512" viewBox="0 0 128 128" width="512" xmlns="http://www.w3.org/2000/svg"><path d="m124.662 100.313h-5.249c-.552 0-1 .448-1 1s.448 1 1 1h5.249c.552 0 1-.448 1-1s-.448-1-1-1z" fill="#e6e7e8"/><path d="m116.301 95.097c.256 0 .512-.098.707-.293l3.711-3.711c.391-.391.391-1.023 0-1.414s-1.023-.391-1.414 0l-3.711 3.711c-.391.391-.391 1.023 0 1.414.195.196.451.293.707.293z" fill="#e6e7e8"/><path d="m116.925 107.788c-.391-.391-1.023-.391-1.414 0s-.391 1.023 0 1.414l3.711 3.711c.195.195.451.293.707.293s.512-.098.707-.293c.391-.391.391-1.023 0-1.414z" fill="#e6e7e8"/><path d="m117.061 101.375c0-2.967-2.167-5.431-5-5.91v-7.08c0-1.297-.594-2.488-1.629-3.268s-2.342-1.022-3.59-.666l-14.942 4.282c-1.398-3.322-3.38-6.337-5.811-8.928-.043-.053-.085-.101-.137-.144-3.627-3.815-8.241-6.679-13.43-8.181-.017-.006-.029-.022-.047-.027-.148-.042-.302-.075-.452-.115-.173-.047-.344-.094-.518-.138-.005-.001-.009-.006-.014-.007-.096-.024-.195-.042-.292-.065-.233-.056-.466-.111-.701-.161-.161-.035-.322-.069-.484-.101-.106-.021-.213-.038-.32-.057-.078-.015-.157-.028-.235-.042-.144-.026-.286-.06-.43-.083-.033-.005-.067-.007-.101-.012-.173-.028-.348-.051-.522-.076-.057-.008-.114-.014-.171-.022-.002 0-.005-.001-.007-.001 6.388-3.077 11.181-8.949 12.799-16.017.306.09.617.149.93.149 2.45 0 4.369-2.528 4.369-5.756s-1.919-5.757-4.369-5.757c-.111 0-.22.013-.33.023v-3.925-14.562c0-5.204-4.234-9.438-9.438-9.438h-1.356c-.175-.113-.354-.219-.532-.327-1.538-1.895-6.164-6.491-14.853-6.491-8.75 0-14.43 4.57-17.655 8.404-2.181 2.592-3.382 5.905-3.382 9.327v3.114c-3.181 1.251-5.908 1.86-5.956 1.871-.415.091-.727.433-.779.854s.167.83.548 1.019c.252.125 2.622 1.276 6.195 2.463l-.004 7.693c-.111-.011-.221-.023-.333-.023-2.45 0-4.369 2.529-4.369 5.757s1.919 5.756 4.369 5.756c.313 0 .623-.059.929-.149 1.619 7.074 6.418 12.948 12.813 16.023-.04.005-.081.011-.121.016-.174.025-.349.048-.522.076-.033.005-.067.007-.101.012-.144.023-.286.057-.43.083-.078.014-.157.028-.235.042-.106.02-.214.036-.32.057-.162.032-.323.066-.484.101-.236.05-.468.106-.701.161-.097.023-.196.041-.292.065-.005.001-.009.005-.014.007-.144.036-.286.075-.429.113h-31.759c-3.351 0-6.077 2.726-6.077 6.077v17.971c0 3.351 2.726 6.077 6.077 6.077h9.451v11.643 7.447c0 1.654 1.346 3 3 3h4.127 22.244 13.63 22.244 4.127c1.654 0 3-1.346 3-3v-5.842l12.601 3.612c.377.108.76.161 1.139.161.875 0 1.729-.283 2.452-.827 1.036-.781 1.629-1.972 1.629-3.269v-7.08c2.834-.478 5.001-2.942 5.001-5.909z" fill="#e6e7e8"/><path d="m60.177 67.294h-.971c-1.667.392-3.402.605-5.189.605s-3.522-.214-5.189-.605h-.9c-16.05 0-29.062 13.011-29.062 29.062v20.173c0 1.105.895 2 2 2h66.373c1.105 0 2-.895 2-2v-20.173c0-16.051-13.011-29.062-29.062-29.062z" fill="#ffd7e5"/><path d="m59.206 67.294c-1.667.392-3.402.605-5.188.605s-3.522-.214-5.188-.605h-.901c-1.597 0-3.164.131-4.691.379l4 25.946v24.91h13.63v-24.91l4-25.946c-1.527-.248-3.093-.379-4.691-.379z" fill="#fff"/><path d="m46.086 86.144v5.217c0 1.703-.846 3.202-2.133 4.123l3.285 5.661v-7.527z" fill="#ffd7e5"/><path d="m62.073 97.374c0-2.485 1.646-4.669 4.035-5.354l.067-.019 1.504-2.591-2.292-5.292 6.877-3.473-4.064-12.23c-.314-.09-.636-.163-.954-.243l-3.684 7.979-2.693 17.467v7.527l1.394-2.402c-.113-.442-.19-.897-.19-1.369z" fill="#ffd7e5"/><path d="m61.105 67.317-7.052 4.489 7.698 8.266 5.498-11.908c-1.976-.494-4.032-.78-6.144-.847z" fill="#fff"/><path d="m47.001 67.317c-2.112.066-4.168.353-6.144.847l.069.149h.082c2.804 0 5.077 2.273 5.077 5.077v6.097l.27.584 7.698-8.266z" fill="#fff"/><path d="m54.053 67.895c-3.031 0-5.921-.601-8.563-1.683v.138l8.563 5.456 8.571-5.456v-.142c-2.644 1.085-5.537 1.687-8.571 1.687z" fill="#fff"/><path d="m77.956 40.194c-.473 0-.922.14-1.33.388v4.709c0 1.289-.114 2.552-.321 3.782.49.392 1.048.634 1.651.634 1.861 0 3.369-2.13 3.369-4.757s-1.508-4.756-3.369-4.756z" fill="#fff"/><path d="m31.409 45.291v-4.709c-.408-.248-.857-.388-1.33-.388-1.861 0-3.369 2.13-3.369 4.757s1.508 4.757 3.369 4.757c.603 0 1.161-.242 1.651-.634-.207-1.232-.321-2.494-.321-3.783z" fill="#fff"/><path d="m38.083 22.123c3.853-3.33 8.602-8.145 14.417-9.167 7.876-1.383 13.54 2.743 13.54 2.743v-3.409h.509c-3.587-2.394-7.896-3.791-12.532-3.791-10.627 0-19.537 7.334-21.956 17.216 2.114-.921 4.306-2.109 6.022-3.592z" fill="#fff"/><path d="m74.478 35.29c-4.66 0-8.438-3.778-8.438-8.438v-2.153s-3.554 4.887-11.023 7.257c-8.287 2.63-17.518.756-23.6-1.174-.002.108-.008.216-.008.324v14.184c0 12.486 10.122 22.608 22.608 22.608s22.608-10.122 22.608-22.608v-10z" fill="#fff"/><path d="m51.447 5.472c-8.385 0-13.824 4.403-16.89 8.048-2.044 2.43-3.147 5.508-3.147 8.683v3.79c2.308-.955 4.78-2.232 6.674-3.87 3.853-3.33 8.602-8.145 14.417-9.167 7.876-1.383 13.54 2.743 13.54 2.743v-3.409c-.001 0-4.31-6.818-14.594-6.818z" fill="#6dc9f7"/><path d="m52.5 12.956c-5.815 1.021-10.564 5.836-14.417 9.167-4.824 4.17-13.417 6.042-13.417 6.042s16.498 8.188 30.351 3.792c7.468-2.37 11.023-7.257 11.023-7.257v-9c0-.001-5.664-4.127-13.54-2.744z" fill="#6dc9f7"/><path d="m76.626 35.29h-2.148c-4.66 0-8.438-3.778-8.438-8.438v-14.562h2.148c4.66 0 8.438 3.778 8.438 8.438z" fill="#6dc9f7"/><path d="m56.282 81.874 1.282-6.232-3.511-3.836-3.512 3.836 1.212 6.232-2.369 25.336 4.634 8.154 4.633-8.154z" fill="#fa759e"/><path d="m24.994 106.273c.629 0 1.235.095 1.806.271.091-.243.147-.504.147-.779v-9.327h-4.471v9.327c0 .175.025.344.063.507h2.455z" fill="#6dc9f7"/><path d="m24.994 106.273h-3.319c-1.551 0-2.809 1.257-2.809 2.808v7.447c0 1.105.895 2 2 2h4.128c3.384 0 6.128-2.743 6.128-6.128 0-3.384-2.744-6.127-6.128-6.127z" fill="#fff"/><path d="m41.008 68.314h-32.592c-2.804 0-5.077 2.273-5.077 5.077v17.971c0 2.804 2.273 5.077 5.077 5.077h32.593c2.804 0 5.077-2.273 5.077-5.077v-17.971c0-2.804-2.274-5.077-5.078-5.077z" fill="#d4fbff"/><path d="m76.984 112.401c0-.467.057-.92.156-1.358-.95-.177-1.673-1.01-1.673-2.01v-3.621l-3.135-.899c-.04.141-.069.286-.069.44v4.08c0 2.813 2.228 5.098 5.01 5.228-.187-.588-.289-1.212-.289-1.86z" fill="#6dc9f7"/><path d="m80.513 106.857c-2.083.979-3.529 3.089-3.529 5.543 0 3.384 2.743 6.128 6.128 6.128h4.128c1.105 0 2-.895 2-2v-7.169z" fill="#fff"/><path d="m107.061 92.374v10c2.761 0 5-2.239 5-5s-2.239-5-5-5z" fill="#0089ef"/><path d="m103.116 81.412-33.107 9.49v12.944l33.107 9.491c1.976.566 3.945-.917 3.945-2.973v-25.979c0-2.056-1.969-3.539-3.945-2.973z" fill="#fff"/><path d="m107.06 110.364v-22.979c0-2.056-1.969-3.539-3.945-2.973l-33.107 9.49v9.944l33.107 9.491c1.977.566 3.945-.917 3.945-2.973z" fill="#6dc9f7"/><path d="m62.073 97.374c0 2.485 1.646 4.669 4.035 5.354l3.901 1.118v-12.944l-3.901 1.118c-2.389.685-4.035 2.87-4.035 5.354z" fill="#fff"/><path d="m62.295 98.874c.512 1.826 1.922 3.312 3.813 3.854l3.901 1.118v-9.944l-3.901 1.118c-1.891.543-3.301 2.029-3.813 3.854z" fill="#0089ef"/><g fill="#3a2c60"><path d="m44.043 39.865c-1.249 0-2.261 1.012-2.261 2.261s1.012 2.261 2.261 2.261 2.261-1.012 2.261-2.261c0-1.248-1.012-2.261-2.261-2.261z"/><path d="m63.992 39.865c-1.249 0-2.261 1.012-2.261 2.261s1.012 2.261 2.261 2.261 2.261-1.012 2.261-2.261c0-1.248-1.012-2.261-2.261-2.261z"/><path d="m54.018 53.189c1.969 0 3.571-1.602 3.571-3.571v-1.507c0-.552-.448-1-1-1s-1 .448-1 1v1.507c0 .866-.705 1.571-1.571 1.571s-1.571-.705-1.571-1.571v-1.507c0-.552-.448-1-1-1s-1 .448-1 1v1.507c0 1.969 1.602 3.571 3.571 3.571z"/><path d="m62.271 37.748 4.427.771c.058.01.116.015.173.015.477 0 .899-.342.984-.828.095-.544-.27-1.062-.813-1.157l-4.427-.771c-.546-.09-1.062.271-1.157.813-.095.544.27 1.061.813 1.157z"/><path d="m45.42 35.777-4.427.771c-.544.095-.908.613-.813 1.157.085.486.507.828.984.828.057 0 .115-.005.173-.015l4.427-.771c.544-.095.908-.613.813-1.157-.094-.543-.606-.903-1.157-.813z"/><path d="m59.824 56.388c.332-.438.246-1.06-.19-1.395-.436-.334-1.063-.251-1.4.182-.061.079-1.525 1.923-4.216 1.923-2.749 0-4.139-1.819-4.202-1.904-.324-.443-.946-.542-1.392-.221-.448.323-.549.948-.226 1.396.081.112 2.013 2.729 5.82 2.729 3.71 0 5.723-2.6 5.806-2.71z"/><path d="m17.687 69.314h8.025c.552 0 1-.448 1-1s-.448-1-1-1h-8.025c-.552 0-1 .448-1 1s.447 1 1 1z"/><path d="m38.914 78.571h-28.403c-.552 0-1 .448-1 1s.448 1 1 1h28.403c.552 0 1-.448 1-1s-.448-1-1-1z"/><path d="m38.914 84.181h-28.403c-.552 0-1 .448-1 1s.448 1 1 1h28.403c.552 0 1-.448 1-1s-.448-1-1-1z"/><path d="m120.662 96.313h-5.249c-.552 0-1 .448-1 1s.448 1 1 1h5.249c.552 0 1-.448 1-1s-.448-1-1-1z"/><path d="m112.301 91.097c.256 0 .512-.098.707-.293l3.711-3.711c.391-.391.391-1.023 0-1.414s-1.023-.391-1.414 0l-3.711 3.711c-.391.391-.391 1.023 0 1.414.195.196.451.293.707.293z"/><path d="m112.925 103.788c-.391-.391-1.023-.391-1.414 0s-.391 1.023 0 1.414l3.711 3.711c.195.195.451.293.707.293s.512-.098.707-.293c.391-.391.391-1.023 0-1.414z"/><path d="m113.061 97.375c0-2.967-2.167-5.431-5-5.91v-7.08c0-1.297-.594-2.488-1.629-3.268s-2.342-1.022-3.59-.666l-14.966 4.29c-1.381-3.278-3.323-6.259-5.711-8.826-.073-.12-.165-.217-.276-.294-3.614-3.783-8.193-6.633-13.35-8.13-.023-.009-.039-.03-.064-.037-.31-.089-.629-.161-.944-.24-.014-.004-.025-.016-.039-.02-.108-.027-.218-.048-.326-.073-.252-.06-.504-.117-.759-.171-.213-.044-.427-.084-.642-.124-.246-.046-.489-.102-.735-.142-.019-.003-.038.004-.057.002-.12-.019-.241-.035-.361-.052-.131-.019-.261-.038-.392-.056 6.391-3.074 11.187-8.946 12.807-16.015.306.093.618.142.931.142 2.45 0 4.369-2.528 4.369-5.756s-1.919-5.757-4.369-5.757c-.112 0-.22.023-.33.034v-3.936-14.562c0-5.204-4.234-9.438-9.438-9.438h-1.633c-1.214-1.61-5.853-6.818-15.108-6.818-8.75 0-14.43 4.57-17.655 8.404-2.181 2.592-3.382 5.905-3.382 9.327v3.114c-3.181 1.251-5.908 1.86-5.956 1.871-.415.091-.727.433-.779.854s.167.83.548 1.019c.252.125 2.622 1.276 6.195 2.463l-.004 7.704c-.111-.011-.221-.034-.333-.034-2.45 0-4.369 2.529-4.369 5.757s1.919 5.756 4.369 5.756c.313 0 .625-.049.931-.142 1.622 7.077 6.428 12.953 12.83 16.025-.13.018-.261.033-.391.052-.106.015-.212.029-.318.045-.018.002-.036-.005-.054-.002-.246.04-.488.095-.732.141-.219.04-.437.081-.655.126-.251.053-.498.109-.747.168-.109.026-.22.047-.329.074-.014.004-.025.015-.039.02-.131.033-.263.065-.393.1h-10.12c-.552 0-1 .448-1 1s.448 1 1 1h11.269c2 0 3.754 1.905 3.754 4.077v17.971c0 2.248-1.829 4.077-4.077 4.077h-32.596c-2.248 0-4.077-1.829-4.077-4.077v-17.971c0-2.248 1.829-4.077 4.077-4.077h4.654c.552 0 1-.448 1-1s-.448-1-1-1h-4.654c-3.351 0-6.077 2.726-6.077 6.077v17.971c0 3.351 2.726 6.077 6.077 6.077h9.451v11.643 7.447c0 1.654 1.346 3 3 3h4.127 22.244 13.63 22.244 4.127c1.654 0 3-1.346 3-3v-5.842l12.601 3.612c.377.108.76.161 1.139.161.875 0 1.729-.283 2.452-.827 1.036-.781 1.629-1.972 1.629-3.269v-7.08c2.834-.478 5.001-2.942 5.001-5.909zm-27.124-12.079-12.615 3.616c.422-4.845 3.346-9.115 7.738-11.258 2.017 2.25 3.665 4.83 4.877 7.642zm-6.326-9.146c-4.928 2.655-8.101 7.709-8.324 13.346l-1.554.445-1.448.415.258-.444c.16-.274.179-.608.053-.899l-1.917-4.426 6.036-3.048c.443-.224.655-.737.498-1.208l-3.43-10.32c3.701 1.354 7.041 3.456 9.828 6.139zm-3.006 33.37c-.08-.148-.138-.31-.138-.488v-2.295l1.753.502c-.679.645-1.23 1.416-1.615 2.281zm-.597 3.472c-1.612-.607-2.745-2.154-2.745-3.959v-3.212l1.204.345v2.867c0 1.124.616 2.127 1.554 2.654-.025.24-.038.478-.038.713.001.198.009.395.025.592zm-4.744-3.959v8.496h-9.396v-16.114l.282-.486c.844 1.302 2.124 2.314 3.682 2.761l3.901 1.118 1.53.439v3.786zm-6.795-24.517 2.091 4.829-1.07 1.844c-1.572.549-2.854 1.657-3.621 3.074v-.567l2.66-17.253 3.073-6.656 3.442 10.356-6.107 3.084c-.474.238-.679.803-.468 1.289zm4.54 18.004-2.626-.753c-1.949-.559-3.31-2.365-3.31-4.392s1.361-3.834 3.31-4.393l2.626-.753zm-14.991-33.621c1.038 0 2.059-.075 3.062-.205l-3.027 1.927-3.009-1.916c.974.123 1.966.194 2.974.194zm1.449 11.976h-2.89l-.959-4.929 2.435-2.658 2.429 2.653zm-2.803 2h2.707l2.255 24.116-3.609 6.35-3.608-6.35zm2.94-10.871 5.757-3.664c.106.004.213.007.32.013.514.027 1.025.07 1.534.125.247.027.494.054.739.087.452.06.9.136 1.346.218.172.032.344.066.515.102l-4.348 9.415zm24.721-27.054c0 2.331-1.441 4.292-2.932 3.63.003-.019.003-.039.006-.058.065-.472.115-.95.151-1.43.007-.094.015-.187.021-.281.032-.503.054-1.009.054-1.52v-4.057c1.391-.34 2.7 1.505 2.7 3.716zm-4.699-24.222v13.562h-.376-.771c-4.102 0-7.438-3.337-7.438-7.438v-1.562h1.148c1.491 0 2.928.439 4.158 1.27.171.116.366.171.559.171.321 0 .636-.154.83-.44.309-.458.189-1.079-.269-1.388-1.561-1.055-3.386-1.612-5.277-1.612h-1.15v-4h1.148c1.128 0 2.211.246 3.219.73.14.067.287.099.433.099.372 0 .729-.208.902-.567.239-.498.03-1.095-.468-1.334-1.28-.616-2.655-.928-4.085-.928h-1.149v-1.591-2.41h1.148c4.102 0 7.438 3.336 7.438 7.438zm-43.217 3.735v-2.26c0-2.952 1.034-5.807 2.913-8.04 2.952-3.508 8.145-7.691 16.125-7.691 8.652 0 12.763 4.984 13.593 6.128v1.339c-.034-.018-.074-.037-.11-.055-.054-.028-.108-.055-.164-.083-.16-.08-.33-.162-.509-.245-.045-.021-.086-.041-.132-.062-.224-.102-.462-.205-.712-.307-.052-.021-.107-.042-.16-.064-.215-.086-.438-.17-.671-.254-.064-.023-.126-.046-.192-.069-.29-.101-.59-.2-.906-.293-.021-.006-.044-.012-.066-.018-.292-.086-.596-.166-.909-.242-.077-.019-.155-.037-.233-.055-.322-.075-.652-.144-.994-.206-.023-.004-.045-.009-.068-.013-.366-.064-.744-.118-1.131-.164-.082-.01-.166-.017-.249-.026-.327-.034-.661-.061-1.002-.079-.08-.004-.157-.01-.238-.014-.409-.017-.827-.023-1.254-.013-.069.001-.139.007-.208.009-.361.012-.729.035-1.103.068-.115.01-.229.02-.345.032-.446.047-.898.105-1.359.186-5.356.941-9.814 4.896-13.396 8.075-.515.457-1.015.9-1.501 1.32-.304.262-.634.52-.983.775-.09.065-.185.126-.276.19-.267.187-.541.373-.833.555-.115.072-.232.141-.349.211-.297.179-.604.355-.924.529-.104.057-.208.114-.313.169-.428.227-.872.449-1.341.667zm6.328-1.584c.492-.425.999-.875 1.521-1.337 3.57-3.168 7.617-6.758 12.415-7.601 6.178-1.084 10.974 1.45 12.367 2.3v8.111c-.809.981-4.187 4.703-10.325 6.651-10.127 3.213-21.906-.587-27.019-2.618 3.017-.918 7.796-2.7 11.041-5.506zm-8.094 25.701c-1.497.666-2.932-1.299-2.932-3.63 0-2.037 1.085-3.757 2.369-3.757.11 0 .22.013.33.04v4.058c0 .513.022 1.02.055 1.525.006.09.014.179.021.269.037.491.088.977.154 1.459 0 .012.001.024.003.036zm1.766-3.289v-13.143c3.81 1.121 8.589 2.116 13.578 2.116 3.094 0 6.268-.383 9.333-1.355 4.724-1.499 7.929-3.948 9.74-5.667.207 5.022 4.346 9.047 9.419 9.047h.771.376v9.001c0 11.915-9.693 21.608-21.608 21.608s-21.609-9.692-21.609-21.607zm12.283 23.212c.674-.082 1.351-.146 2.035-.175l5.775 3.676-5.417 5.816v-4.429c0-1.98-.956-3.771-2.393-4.888zm1.546 25.939v2.987l-.996-1.716c.386-.376.72-.804.996-1.271zm-2.646 2.412 2.646 4.56v16.114h-9.396v-20.089h4.166c.925 0 1.798-.214 2.584-.585zm-17.645 8.49c-.313-.042-.629-.071-.953-.071h-1.518v-7.834h2.471zm-4.47-7.905v7.854c-.582.031-1.125.193-1.61.458v-8.312zm-.61 20.089c-.551 0-1-.449-1-1v-7.447c0-.997.812-1.809 1.809-1.809h3.319c2.828 0 5.128 2.3 5.128 5.127 0 2.828-2.3 5.128-5.128 5.128h-4.128zm11.255-5.128c0-2.882-1.723-5.364-4.19-6.486.003-.05.015-.098.015-.149v-8.327h6.895v20.089h-4.91c1.347-1.296 2.19-3.113 2.19-5.127zm16.116 5.128v-16.383-7.527c0-.051-.004-.102-.012-.152l-1.141-7.399v-5.313s.001-.001.001-.001l2.837-3.047.82 4.217-2.356 25.193c-.019.204.025.409.126.587l4.633 8.153c.178.313.51.506.87.506s.692-.193.87-.506l4.634-8.153c.101-.178.145-.383.126-.587l-2.346-25.098c.007-.049.029-.092.029-.143 0-.022-.011-.041-.013-.063l.848-4.123 2.855 3.065c.191.205.457.318.732.318.013 0 .027-.003.04-.003l-1.911 12.397c-.008.05-.012.102-.012.152v7.527 16.383zm25.026 0v-3.931c.891.825 2.023 1.397 3.29 1.592.379.887.935 1.679 1.62 2.339zm14.975-1c0 .551-.449 1-1 1h-4.127c-2.828 0-5.128-2.3-5.128-5.128 0-1.927 1.074-3.596 2.651-4.468l7.604 2.18zm17.822-6.164c0 .663-.304 1.272-.833 1.671-.53.399-1.2.522-1.836.34l-32.382-9.283v-11.436l32.383-9.282c.637-.184 1.306-.059 1.836.34.529.399.833 1.008.833 1.671v25.979zm5-12.989c0 1.858-1.28 3.411-3 3.858v-7.716c1.72.447 3 1.999 3 3.858z"/></g></svg>