<svg id="Layer_1" enable-background="new 0 0 128 128" height="512" viewBox="0 0 128 128" width="512" xmlns="http://www.w3.org/2000/svg"><path d="m106.174 22.163h-1.574c-.943-3.388-4.048-5.885-7.732-5.885h-3.356c-.916-3.429-4.04-5.965-7.753-5.965h-42.81c-.023 0-.043.012-.065.013-.087.006-.171.023-.254.051-.033.011-.065.02-.097.035-.106.049-.207.11-.292.196l-23.721 23.858c-.085.086-.146.187-.195.293-.014.031-.022.062-.033.094-.028.084-.045.168-.051.256-.001.021-.012.041-.012.062v66.634c0 4.429 3.604 8.033 8.033 8.033h3.355c.916 3.429 4.04 5.965 7.753 5.965h1.575c.943 3.388 4.048 5.885 7.733 5.885h59.496c4.429 0 8.033-3.604 8.033-8.033v-83.46c0-4.429-3.603-8.032-8.033-8.032z" fill="#e6e7e8"/><path d="m102.174 19.163h-2.376c.062.374.102.756.102 1.148v83.46c0 3.884-3.149 7.033-7.033 7.033h-57.12c.549 3.337 3.439 5.885 6.931 5.885h59.496c3.884 0 7.033-3.149 7.033-7.033v-83.46c0-3.885-3.149-7.033-7.033-7.033z" fill="#d4fbff"/><path d="m92.867 13.277h-4.602c.053.349.089.704.089 1.068v83.46c0 3.884-3.149 7.033-7.033 7.033h-54.894c.516 3.376 3.423 5.965 6.943 5.965h59.496c3.884 0 7.033-3.149 7.033-7.033v-83.46c.001-3.884-3.148-7.033-7.032-7.033z" fill="#d4fbff"/><path d="m81.322 7.312h-42.809l-23.72 23.859v66.633c0 3.884 3.149 7.033 7.033 7.033h59.496c3.884 0 7.033-3.149 7.033-7.033v-83.46c0-3.883-3.149-7.032-7.033-7.032z" fill="#fff"/><path d="m38.516 7.312v16.823c0 3.884-3.153 7.037-7.037 7.037h-16.689z" fill="#d4fbff"/><path d="m14.79 31.172h2.983l20.743-20.86v-3z" fill="#fff"/><g fill="#3a2c60"><path d="m102.174 18.163h-1.574c-.943-3.388-4.048-5.885-7.732-5.885h-3.792c-.916-3.429-4.04-5.965-7.754-5.965h-42.809c-.024 0-.046.012-.071.014-.084.006-.165.022-.244.049-.036.012-.07.021-.104.037-.103.048-.2.108-.283.19-.002.002-.005.003-.007.005l-23.72 23.859c-.001.001-.002.004-.003.005-.083.084-.143.183-.191.287-.014.031-.023.063-.034.096-.028.083-.045.167-.051.255-.001.021-.012.041-.012.062v66.633c0 4.429 3.604 8.033 8.033 8.033h3.799c.915 3.428 4.033 5.965 7.746 5.965h1.584c.942 3.387 4.04 5.885 7.723 5.885h59.496c4.429 0 8.033-3.604 8.033-8.033v-83.46c0-4.429-3.603-8.032-8.033-8.032zm-64.661-8.426v14.402c0 3.327-2.706 6.033-6.033 6.033h-14.283zm-9.802 96.1h53.611c4.43 0 8.033-3.604 8.033-8.033v-46.84c0-.552-.448-1-1-1s-1 .448-1 1v46.841c0 3.327-2.707 6.033-6.033 6.033h-59.496c-3.327 0-6.033-2.706-6.033-6.033v-65.633h15.687c4.429 0 8.033-3.604 8.033-8.033v-15.827h41.809c3.327 0 6.033 2.706 6.033 6.033v18.869c0 .552.448 1 1 1s1-.448 1-1v-18.869c0-.023-.003-.045-.003-.067h3.516c3.327 0 6.033 2.706 6.033 6.033v83.46c0 3.327-2.706 6.033-6.033 6.033h-59.497c-2.6-.001-4.815-1.656-5.66-3.967zm80.496 3.818c0 3.327-2.706 6.033-6.033 6.033h-59.496c-2.57 0-4.767-1.616-5.634-3.885h55.823c4.429 0 8.033-3.604 8.033-8.033v-83.46c0-.05-.007-.098-.007-.147h1.282c3.327 0 6.033 2.706 6.033 6.033v83.459z"/><path d="m88.355 37.214c-.552 0-1 .448-1 1v7.33c0 .552.448 1 1 1s1-.448 1-1v-7.33c0-.552-.448-1-1-1z"/><path d="m75.144 38.963h-35.466c-.552 0-1 .448-1 1s.448 1 1 1h35.465c.552 0 1-.448 1-1s-.447-1-.999-1z"/><path d="m31.396 36.384c-1.977 0-3.58 1.603-3.58 3.58s1.603 3.58 3.58 3.58 3.58-1.603 3.58-3.58c0-1.978-1.603-3.58-3.58-3.58z"/><path d="m75.144 52.522h-35.466c-.552 0-1 .448-1 1s.448 1 1 1h35.465c.552 0 1-.448 1-1s-.447-1-.999-1z"/><circle cx="31.396" cy="53.522" r="3.58"/><path d="m75.144 66.08h-35.466c-.552 0-1 .448-1 1s.448 1 1 1h35.465c.552 0 1-.448 1-1s-.447-1-.999-1z"/><circle cx="31.396" cy="67.079" r="3.58"/><path d="m75.144 79.637h-35.466c-.552 0-1 .448-1 1s.448 1 1 1h35.465c.552 0 1-.448 1-1s-.447-1-.999-1z"/><circle cx="31.396" cy="80.637" r="3.58"/></g><path d="m50.389 22.436h-.837v3.791c0 .499-.11.867-.33 1.103s-.507.354-.861.354c-.381 0-.676-.123-.885-.37s-.314-.609-.314-1.087v-9.078c0-.515.115-.888.346-1.119s.604-.346 1.119-.346h3.887c.537 0 .995.023 1.376.068.381.046.724.138 1.03.278.37.156.698.378.982.668s.5.626.648 1.01.221.79.221 1.219c0 .88-.248 1.583-.744 2.109s-1.249.899-2.258 1.119c.424.225.829.558 1.215.998s.731.908 1.034 1.404.539.944.708 1.344.254.675.254.825c0 .156-.05.31-.149.463s-.235.274-.406.362c-.172.089-.37.133-.596.133-.268 0-.494-.063-.676-.189s-.339-.286-.471-.479-.31-.478-.535-.853l-.958-1.594c-.343-.585-.651-1.03-.922-1.336s-.546-.515-.825-.628-.629-.169-1.053-.169zm1.368-4.958h-2.205v3.243h2.141c.574 0 1.057-.05 1.449-.149s.691-.268.897-.507.31-.567.31-.986c0-.327-.083-.616-.249-.865s-.397-.436-.692-.559c-.28-.118-.83-.177-1.651-.177z" fill="#0089ef"/><path d="m66.083 17.527h-4.708v3.018h3.936c.365 0 .637.082.817.245.18.164.27.382.27.656s-.091.491-.274.652c-.182.161-.453.241-.813.241h-3.936v3.887c0 .494-.111.86-.334 1.099s-.508.358-.857.358c-.354 0-.643-.121-.865-.362-.223-.241-.334-.606-.334-1.095v-9.078c0-.343.051-.624.153-.841s.262-.376.479-.475.495-.149.833-.149h5.634c.381 0 .664.085.849.254s.278.39.278.664c0 .279-.093.503-.278.672-.186.169-.469.254-.85.254z" fill="#0089ef"/><path d="m73.568 22.887h-2.189v3.34c0 .478-.113.84-.338 1.087s-.51.37-.853.37c-.359 0-.649-.122-.869-.366s-.33-.602-.33-1.074v-9.095c0-.526.121-.901.362-1.127.241-.225.625-.338 1.151-.338h3.066c.907 0 1.604.07 2.093.209.483.134.9.357 1.252.668.351.311.618.692.801 1.143.182.451.274.958.274 1.521 0 1.202-.37 2.113-1.111 2.732-.742.62-1.844.93-3.309.93zm-.58-5.409h-1.61v3.606h1.61c.563 0 1.034-.059 1.412-.177s.667-.311.865-.579.298-.62.298-1.054c0-.52-.153-.944-.459-1.272-.342-.349-1.048-.524-2.116-.524z" fill="#0089ef"/></svg>