<svg id="Layer_1" enable-background="new 0 0 128 128" height="512" viewBox="0 0 128 128" width="512" xmlns="http://www.w3.org/2000/svg"><path d="m123.954 22.16c-.603-1.877-2.335-3.138-4.311-3.138h-30.931c.097-.213.153-.447.153-.694v-.958c0-.932-.763-1.695-1.695-1.695h-8.17c-.932 0-1.695.763-1.695 1.695v.958c0 .248.057.482.153.694h-30.93c-1.219 0-2.358.474-3.199 1.325-.86.85-1.333 1.988-1.333 3.208 0 1.977 1.261 3.709 3.127 4.307.449.149.921.225 1.405.225h.264v6.029c-2.737-2.36-6.291-3.799-10.18-3.799h-13.168c-8.613 0-15.62 7.007-15.62 15.619v23.032c0 2.223 1.558 4.17 3.623 4.529 1.301.225 2.618-.126 3.616-.965s1.57-2.068 1.57-3.372v-22.783c0-.468.312-.884.709-.949.353-.059.597.095.711.192.193.164.304.404.304.657v71.408c0 3.005 2.444 5.45 5.449 5.45s5.45-2.445 5.45-5.45v-39.19c0-.559.362-1.061.75-1.164.453.134.793.623.793 1.164v39.19c0 3.005 2.444 5.45 5.449 5.45s5.45-2.445 5.45-5.45v-71.407c0-.253.111-.493.304-.657.113-.096.357-.251.71-.192.398.064.71.481.71.949v11.072c0 1.185.465 2.294 1.311 3.124.579.568 1.289.949 2.059 1.133v16.735c0 5.104 4.152 9.255 9.255 9.255h26.039v28.969h-9.977c-3.016 0-5.47 2.454-5.47 5.47 0 .552.448 1 1 1h30.893c.553 0 1-.448 1-1 0-3.016-2.454-5.47-5.47-5.47h-9.977v-28.969h26.038c5.104 0 9.256-4.152 9.256-9.255v-50.355h.264c1.219 0 2.357-.474 3.199-1.325.859-.85 1.333-1.989 1.333-3.207.001-.484-.075-.956-.221-1.395z" fill="#e6e7e8"/><path d="m29.808 29.227c5.614 0 10.182-4.567 10.182-10.181s-4.567-10.182-10.182-10.182c-5.614 0-10.181 4.567-10.181 10.182-.001 5.614 4.567 10.181 10.181 10.181z" fill="#e6e7e8"/><path d="m43.792 23.088v9.439c2.143 2.543 3.439 5.824 3.439 9.41v7.69h8.798c1.957 0 3.71 1.465 3.813 3.419.109 2.084-1.548 3.807-3.608 3.807h-12.328l-.008-.02c-.036.001-.07-.008-.106-.009v17.616c0 4.559 3.696 8.255 8.255 8.255h54.078c4.559 0 8.255-3.696 8.255-8.255v-51.352z" fill="#ffd7e5"/><path d="m119.176 19.551c0 .976-.393 1.861-1.036 2.496-.635.643-1.52 1.036-2.496 1.036h-73.116c-1.952 0-3.532-1.581-3.532-3.532 0-.976.393-1.861 1.036-2.496.635-.643 1.52-1.036 2.496-1.036h73.115c1.952 0 3.533 1.581 3.533 3.532z" fill="#fa759e"/><path d="m40.032 20.055c.635-.643 1.52-1.036 2.496-1.036h73.115c1.413 0 2.623.835 3.188 2.033.216-.457.345-.962.345-1.501 0-1.952-1.581-3.532-3.533-3.532h-73.115c-.976 0-1.861.393-2.496 1.036-.643.635-1.036 1.521-1.036 2.496 0 .538.13 1.043.345 1.499.175-.37.403-.71.691-.995z" fill="#fff"/><path d="m90.063 113.666h-21.954c-2.469 0-4.47 2.001-4.47 4.47h30.894c0-2.469-2.002-4.47-4.47-4.47z" fill="#fa759e"/><ellipse cx="25.808" cy="15.046" fill="#6dc9f7" rx="9.181" ry="9.181" transform="matrix(.383 -.924 .924 .383 2.031 33.131)"/><path d="m56.029 49.627h-8.798v-7.69c0-8.074-6.545-14.619-14.619-14.619h-13.168c-8.074 0-14.619 6.545-14.619 14.619v23.031c0 1.685 1.134 3.255 2.794 3.544 2.149.374 4.015-1.271 4.015-3.351v-22.784c0-.928.634-1.788 1.55-1.936 1.167-.19 2.175.706 2.175 1.837v71.408c0 2.457 1.992 4.449 4.449 4.449 2.457 0 4.449-1.992 4.449-4.449v-39.191c0-1.042.712-2.008 1.74-2.175h.063c1.028.168 1.74 1.134 1.74 2.175v39.191c0 2.457 1.992 4.449 4.449 4.449 2.457 0 4.449-1.992 4.449-4.449v-71.408c0-1.131 1.008-2.026 2.175-1.837.916.149 1.55 1.009 1.55 1.936v11.072c0 1.903 1.565 3.421 3.476 3.384l.008.02h12.328c2.06 0 3.717-1.724 3.608-3.808-.104-1.953-1.857-3.418-3.814-3.418z" fill="#6dc9f7"/><g fill="#3a2c60"><path d="m71.664 22.087h-4.71c-.553 0-1 .448-1 1s.447 1 1 1h4.71c.553 0 1-.448 1-1s-.447-1-1-1z"/><path d="m119.954 18.16c-.603-1.877-2.335-3.138-4.311-3.138h-30.931c.097-.213.153-.447.153-.694v-.958c0-.932-.763-1.695-1.695-1.695h-8.17c-.932 0-1.695.763-1.695 1.695v.958c0 .248.057.482.153.694h-30.93c-1.219 0-2.358.474-3.199 1.325-.86.85-1.333 1.988-1.333 3.208 0 1.977 1.261 3.709 3.127 4.307.449.149.921.225 1.405.225h.264v6.029c-2.737-2.36-6.291-3.799-10.18-3.799h-13.168c-8.613 0-15.62 7.007-15.62 15.619v23.032c0 2.223 1.558 4.17 3.623 4.529 1.301.225 2.618-.126 3.616-.965s1.57-2.068 1.57-3.372v-22.783c0-.468.312-.884.709-.949.353-.059.597.095.711.192.193.164.304.404.304.657v71.408c0 3.005 2.444 5.45 5.449 5.45s5.45-2.445 5.45-5.45v-39.19c0-.559.362-1.061.75-1.164.453.134.793.623.793 1.164v39.19c0 3.005 2.444 5.45 5.449 5.45s5.45-2.445 5.45-5.45v-29.71c0-.552-.448-1-1-1s-1 .448-1 1v29.711c0 1.902-1.547 3.45-3.45 3.45-1.902 0-3.449-1.547-3.449-3.45v-39.19c0-1.563-1.108-2.922-2.579-3.163-.106-.018-.279-.018-.385 0-1.47.24-2.579 1.6-2.579 3.163v39.19c0 1.902-1.547 3.45-3.45 3.45-1.902 0-3.449-1.547-3.449-3.45v-71.408c0-.841-.367-1.635-1.008-2.18-.642-.545-1.49-.78-2.327-.644-1.362.221-2.389 1.478-2.389 2.923v22.784c0 .711-.313 1.382-.858 1.841-.552.465-1.258.651-1.986.525-1.121-.195-1.965-1.294-1.965-2.559v-23.031c0-7.51 6.11-13.619 13.62-13.619h13.167c7.51 0 13.62 6.11 13.62 13.62v7.69c0 .552.448 1 1 1h8.798c1.48 0 2.742 1.108 2.814 2.471.038.727-.215 1.416-.713 1.94-.499.525-1.172.815-1.896.815h-12.139c-.07-.014-.147-.022-.216-.02-.667.008-1.28-.232-1.746-.689-.459-.45-.711-1.052-.711-1.696v-11.072c0-1.446-1.027-2.702-2.39-2.923-.839-.136-1.686.099-2.326.644-.641.545-1.008 1.339-1.008 2.18v28.697c0 .552.448 1 1 1s1-.448 1-1v-28.697c0-.253.111-.493.304-.657.113-.096.357-.251.71-.192.398.064.71.481.71.949v11.072c0 1.185.465 2.294 1.311 3.124.579.568 1.289.949 2.059 1.133v16.735c0 5.104 4.152 9.255 9.255 9.255h26.039v28.969h-9.977c-3.016 0-5.47 2.454-5.47 5.47 0 .552.448 1 1 1h30.893c.553 0 1-.448 1-1 0-3.016-2.454-5.47-5.47-5.47h-9.977v-28.969h26.038c5.104 0 9.256-4.152 9.256-9.255v-50.355h.264c1.219 0 2.357-.474 3.199-1.325.859-.85 1.333-1.989 1.333-3.207.001-.484-.075-.956-.221-1.395zm-26.568 98.976h-28.6c.43-1.428 1.757-2.47 3.323-2.47h21.953c1.566 0 2.893 1.042 3.324 2.47zm24.043-95.788c-.472.477-1.105.739-1.785.739h-39.683c-.553 0-1 .448-1 1s.447 1 1 1h37.419v50.354c0 4-3.255 7.255-7.256 7.255h-54.077c-4 0-7.255-3.255-7.255-7.255v-16.587h11.442c1.26 0 2.479-.524 3.347-1.438.879-.927 1.327-2.143 1.26-3.422-.015-.292-.063-.575-.132-.85l20.08-13.84c.455-.313.569-.936.256-1.391-.313-.454-.936-.57-1.391-.256l-19.877 13.7c-.884-1.052-2.23-1.731-3.747-1.731h-7.798v-6.69c0-3.689-1.293-7.078-3.439-9.754v-8.096h17.929c.552 0 1-.448 1-1s-.448-1-1-1h-20.194c-.265 0-.532-.042-.784-.126-1.046-.335-1.749-1.302-1.749-2.406 0-.68.262-1.314.748-1.793.471-.477 1.105-.739 1.785-.739h73.116c1.104 0 2.07.703 2.409 1.759.081.241.123.508.123.773 0 .681-.263 1.315-.747 1.794z"/><path d="m25.808 25.227c5.614 0 10.182-4.567 10.182-10.181s-4.567-10.182-10.182-10.182c-5.614 0-10.181 4.567-10.181 10.182-.001 5.614 4.567 10.181 10.181 10.181zm0-18.363c4.511 0 8.182 3.67 8.182 8.182s-3.67 8.181-8.182 8.181-8.181-3.67-8.181-8.181 3.669-8.182 8.181-8.182z"/><path d="m36.698 73.975c-.552 0-1 .448-1 1v4.917c0 .552.448 1 1 1s1-.448 1-1v-4.917c0-.553-.448-1-1-1z"/></g></svg>