<svg id="Layer_1" enable-background="new 0 0 128 128" height="512" viewBox="0 0 128 128" width="512" xmlns="http://www.w3.org/2000/svg"><path d="m103.245 105.833h-.386v-1.952c0-7.944-3.103-15.172-8.153-20.552-.042-.051-.083-.099-.134-.14-4.176-4.392-9.657-7.531-15.82-8.775-.004-.001-.007-.004-.011-.004-.188-.038-.378-.065-.567-.099-.292-.053-.583-.109-.878-.154-.142-.021-.286-.035-.428-.055 4.344-2.089 7.949-5.471 10.325-9.64h.038l4.818-6.548c1.722-.768 2.931-2.882 2.931-5.443 0-1.651-.504-3.117-1.323-4.157v-.659c4.555-3.558 7.28-8.032 7.28-12.89 0-6.213-4.449-11.8-11.496-15.641-4.011-8.988-12.911-14.783-22.768-14.783s-18.756 5.795-22.769 14.783c-7.047 3.841-11.495 9.428-11.495 15.641 0 4.717 2.563 9.074 6.88 12.58v1.555c-.579.976-.923 2.21-.923 3.572 0 2.511 1.163 4.592 2.831 5.396l4.896 6.595h.059c2.377 4.17 5.982 7.552 10.325 9.64-.352.048-.702.102-1.05.162-.275.047-.551.09-.823.145-.004.001-.007.004-.011.004-6.163 1.244-11.644 4.382-15.82 8.775-.05.041-.092.089-.134.14-5.05 5.38-8.153 12.609-8.153 20.552v1.952h-.386c-.552 0-1 .448-1 1v5.713c0 .552.448 1 1 1h.386v5.507c0 1.654 1.346 3 3 3h.002 47.082l1.462 3.225c.672 1.481 2.161 2.381 3.717 2.381.45 0 .906-.076 1.35-.234l.981-.351c1.975-.706 3.097-2.847 2.554-4.874l-.039-.147h9.265c1.654 0 3-1.346 3-3v-5.507h.386c.553 0 1-.448 1-1v-5.713c-.001-.552-.448-1-1.001-1z" fill="#e6e7e8"/><path d="m108.759 77.756c-.544 0-1.077.06-1.595.179v-7.805c0-1.177-.958-2.134-2.135-2.134h-6.958c-1.177 0-2.134.958-2.134 2.134v1.935c0 1.177.957 2.134 2.134 2.134h4.065v9.66c0 3.365 2.971 6.102 6.622 6.102s6.621-2.737 6.621-6.102-2.969-6.103-6.62-6.103z" fill="#e6e7e8"/><path d="m29.864 63.216h4.065c1.177 0 2.134-.958 2.134-2.134v-1.935c0-1.177-.958-2.134-2.134-2.134h-6.958c-1.177 0-2.134.957-2.134 2.134v7.806c-.518-.119-1.05-.179-1.595-.179-3.651 0-6.622 2.737-6.622 6.102s2.97 6.102 6.622 6.102 6.622-2.737 6.622-6.102z" fill="#e6e7e8"/><path d="m71.545 70.952v1.906c0 4.9-3.972 8.872-8.872 8.872s-8.872-3.972-8.872-8.872v-1.906c-14.761 1.385-26.314 13.805-26.314 28.929v17.173h70.373v-17.173c-.001-15.124-11.554-27.544-26.315-28.929z" fill="#6dc9f7"/><path d="m27.489 108.547v6.507c0 1.105.895 2 2 2h14.974v-8.507z" fill="#fff"/><path d="m88.093 108.547.756 2.751c.61 2.224-.555 4.505-2.622 5.383l.1.373h9.533c1.105 0 2-.895 2-2v-6.507z" fill="#fff"/><path d="m85.814 102.833c.611.569 1.064 1.289 1.29 2.115l.989 3.599h11.152v-5.713h-13.431z" fill="#fa759e"/><path d="m26.101 102.833h18.362v5.713h-18.362z" fill="#fa759e"/><path d="m73.485 77.734c.675-1.49 1.06-3.137 1.06-4.876v-1.468c-.983-.197-1.984-.342-3-.438v1.906c0 1.599-.429 3.094-1.169 4.39 1.051-.015 2.099.145 3.109.486z" fill="#d4fbff"/><path d="m62.011 82.618c.147-.31.312-.608.489-.897-4.819-.093-8.698-4.022-8.698-8.863v-1.899c-1.016.094-2.018.234-3 .431v1.468c0 6.091 4.612 11.12 10.527 11.79.15-.692.371-1.374.682-2.03z" fill="#d4fbff"/><path d="m62.673 10.81c8.429 0 16.12 1.884 21.982 4.984-3.674-8.501-12.131-14.453-21.982-14.453s-18.308 5.952-21.982 14.454c5.862-3.1 13.553-4.985 21.982-4.985z" fill="#fa759e"/><path d="m62.673 10.81c8.419 0 16.102 1.88 21.961 4.973-.625-1.441-1.374-2.816-2.257-4.094-5.516-2.437-12.328-3.88-19.704-3.88s-14.189 1.443-19.704 3.88c-.883 1.278-1.632 2.653-2.257 4.094 5.859-3.093 13.542-4.973 21.961-4.973z" fill="#6dc9f7"/><path d="m62.673 10.811c-18.371 0-33.264 8.934-33.264 19.955 0 4.355 2.333 8.381 6.279 11.662v-2.101c0-14.903 12.082-26.985 26.985-26.985 14.903 0 26.985 12.081 26.985 26.985v2.101c3.947-3.281 6.279-7.307 6.279-11.662 0-11.022-14.893-19.955-33.264-19.955z" fill="#fa759e"/><path d="m86.611 43.714c-.473 0-.922.14-1.33.388v4.709c0 1.289-.114 2.552-.321 3.782.49.392 1.048.634 1.651.634 1.861 0 3.369-2.13 3.369-4.757s-1.508-4.756-3.369-4.756z" fill="#fff"/><path d="m40.065 48.812v-4.709c-.408-.248-.857-.388-1.33-.388-1.861 0-3.369 2.13-3.369 4.757s1.508 4.757 3.369 4.757c.603 0 1.161-.242 1.651-.634-.208-1.232-.321-2.494-.321-3.783z" fill="#fff"/><path d="m67.337 77.791c.992-.355 2.017-.528 3.039-.543.74-1.295 1.169-2.791 1.169-4.39v-3.27c-2.724 1.164-5.722 1.809-8.872 1.809-3.15 0-6.148-.646-8.872-1.809v3.27c0 4.841 3.88 8.77 8.698 8.863 1.114-1.822 2.799-3.201 4.838-3.93z" fill="#fff"/><path d="m85.234 39.471s-2.751-2.271-4.003-4.4-1.68-4.466-1.68-4.466-21.63 11.341-39.47 6.368c-.006.218-.017.435-.017.655v6.475 4.709c0 12.486 10.122 22.608 22.608 22.608 12.486 0 22.608-10.122 22.608-22.608v-4.715z" fill="#fff"/><path d="m92.937 66.129c0-.626.508-1.134 1.134-1.134h5.065 1.893c.626 0 1.134.508 1.134 1.134v3.069 6.136c.777-.368 1.658-.579 2.595-.579 3.105 0 5.622 2.284 5.622 5.102s-2.517 5.102-5.622 5.102-5.622-2.284-5.622-5.102v-10.66h-5.065c-.626 0-1.134-.508-1.134-1.134z" fill="#fa759e"/><path d="m31.063 55.147c0-.626-.508-1.134-1.134-1.134h-5.065-1.893c-.626 0-1.134.508-1.134 1.134v3.069 6.136c-.777-.368-1.658-.579-2.595-.579-3.105 0-5.622 2.284-5.622 5.102s2.517 5.102 5.622 5.102 5.622-2.284 5.622-5.102v-10.66h5.065c.626 0 1.134-.508 1.134-1.134z" fill="#fa759e"/><path d="m66.638 93.724 11.321-4.051.139.521c.907-1.936 1.08-4.216.303-6.387-1.562-4.364-6.365-6.636-10.729-5.074s-6.636 6.365-5.074 10.729c.772 2.157 2.337 3.8 4.248 4.724z" fill="#fa759e"/><path d="m67.844 81.727c4.364-1.562 9.167.71 10.729 5.074.1.279.183.561.252.843.154-1.256.033-2.565-.423-3.838-1.562-4.364-6.365-6.636-10.729-5.074-4.085 1.462-6.335 5.763-5.326 9.886.373-3.05 2.406-5.785 5.497-6.891z" fill="#fff"/><path d="m85.668 118.459-7.708-28.786-11.321 4.051 12.305 27.142c.658 1.451 2.319 2.155 3.819 1.618l.981-.351c1.499-.538 2.336-2.135 1.924-3.674z" fill="#0089ef"/><path d="m77.908 103.408-1.575-4.403c-.249-.695-1.013-1.056-1.708-.808-.695.249-1.056 1.013-.808 1.708l1.575 4.403c.249.695 1.013 1.056 1.708.808.695-.249 1.057-1.013.808-1.708z" fill="#d4fbff"/><path d="m87.884 111.562-1.743-6.349c-.52-1.895-2.479-3.01-4.374-2.489l-3.175.872c-3.648 1.002-5.794 4.772-4.792 8.42s4.772 5.794 8.42 4.792l3.175-.872c1.895-.521 3.01-2.479 2.489-4.374z" fill="#fff"/><g fill="#3a2c60"><path d="m65.673 98.199c-.72 0-1.304.584-1.304 1.304s.584 1.304 1.304 1.304 1.304-.584 1.304-1.304-.584-1.304-1.304-1.304z"/><path d="m65.673 106.074c-.72 0-1.304.584-1.304 1.304s.584 1.304 1.304 1.304 1.304-.584 1.304-1.304-.584-1.304-1.304-1.304z"/><path d="m99.245 101.833h-.386v-1.952c0-7.932-3.093-15.149-8.132-20.522-.054-.071-.111-.134-.179-.187-4.144-4.345-9.571-7.451-15.67-8.71-.046-.017-.087-.043-.137-.053-.626-.125-1.258-.219-1.892-.298 4.352-2.088 7.965-5.474 10.345-9.649h.038l4.818-6.548c1.722-.768 2.931-2.882 2.931-5.443 0-1.651-.504-3.117-1.323-4.157v-.659c4.555-3.558 7.28-8.032 7.28-12.89 0-6.213-4.449-11.8-11.496-15.641-4.012-8.988-12.912-14.783-22.769-14.783s-18.756 5.795-22.769 14.783c-7.047 3.841-11.495 9.428-11.495 15.641 0 4.858 2.725 9.332 7.279 12.89v.659c-.818 1.04-1.322 2.506-1.322 4.157 0 2.51 1.163 4.592 2.832 5.396l4.896 6.595h.059c2.38 4.176 5.993 7.562 10.345 9.649-.026.003-.052.005-.078.009-.611.078-1.218.169-1.815.289-.049.01-.09.036-.136.053-6.1 1.258-11.529 4.366-15.673 8.712-.067.052-.122.113-.174.181-5.04 5.374-8.134 12.592-8.134 20.525v1.952h-.386c-.552 0-1 .448-1 1v5.713c0 .552.448 1 1 1h.386v5.507c0 1.654 1.346 3 3 3h.002 14.974 11.715c.552 0 1-.448 1-1s-.448-1-1-1h-10.717v-7.507-5.713-9.18c0-5.891-3.238-11.227-8.353-13.981 3.491-3.358 7.843-5.827 12.692-7.028v.214c0 6.588 4.977 12.028 11.367 12.776-.15 1.391.005 2.808.49 4.164.006.016.013.031.019.047-.001-.004-.003-.007-.005-.011v26.22h-1.079c-.552 0-1 .448-1 1s.448 1 1 1h4.25c.552 0 1-.448 1-1s-.448-1-1-1h-1.171v-22.974c.689.729 1.498 1.344 2.403 1.827l6.535 14.416c-.11.965-.048 1.966.225 2.959.407 1.48 1.22 2.776 2.34 3.773h-5.666c-.553 0-1 .448-1 1s.447 1 1 1h7.059l1.462 3.225c.672 1.481 2.161 2.381 3.717 2.381.45 0 .906-.076 1.35-.234l.981-.351c1.975-.706 3.097-2.847 2.554-4.874l-.039-.147h9.265c1.654 0 3-1.346 3-3v-5.507h.386c.553 0 1-.448 1-1v-5.713c.001-.553-.446-1.001-.999-1.001zm-55.783 14.22h-13.973c-.551 0-1-.449-1-1v-5.507h14.974v6.507zm0-8.507h-15.973-.388v-3.713h16.362v3.713zm0-13.893v8.18h-14.976v-1.952c0-7.182 2.715-13.738 7.169-18.706 4.763 2.319 7.807 7.137 7.807 12.478zm53.397 6.228v1.952h-12.7c-.63-.213-1.296-.271-1.96-.194l-.315-1.178v-6.808c0-5.341 3.044-10.159 7.807-12.478 4.453 4.968 7.168 11.524 7.168 18.706zm-22.442-21.779c.719-1.604 1.128-3.375 1.128-5.244v-.214c4.849 1.202 9.201 3.67 12.692 7.029-4.944 2.662-8.126 7.74-8.332 13.399l-.753-2.812c.911-2.169.989-4.562.191-6.791-.845-2.362-2.56-4.253-4.827-5.326-.033-.016-.068-.027-.101-.042.001 0 .001 0 .002.001zm-1.109-5.911c.079.013.158.027.237.04v.627c0 1.648-.379 3.205-1.038 4.606-.341-.075-.684-.129-1.029-.166.677-1.337 1.067-2.842 1.067-4.441v-.764c.254.033.51.058.763.098zm12.74-20.09c.002-.012.002-.024.004-.036.066-.478.117-.962.154-1.449.007-.095.016-.19.022-.285.032-.503.054-1.009.054-1.52v-4.057c1.383-.337 2.699 1.505 2.699 3.717-.001 2.33-1.43 4.295-2.933 3.63zm-23.375-49.76c8.193 0 15.672 4.348 19.761 11.286-1.94-.834-4.018-1.528-6.183-2.097-.093-.025-.184-.052-.277-.076-.362-.093-.727-.179-1.094-.264-.406-.095-.816-.184-1.229-.27-.256-.053-.51-.11-.768-.159-.677-.13-1.365-.242-2.06-.346-.208-.031-.417-.06-.626-.089-.711-.098-1.427-.186-2.154-.256-.037-.004-.074-.009-.112-.012-.768-.073-1.547-.125-2.332-.165-.185-.01-.37-.018-.555-.026-.784-.033-1.573-.056-2.371-.056-.799 0-1.588.023-2.374.056-.183.008-.366.016-.549.026-.786.041-1.567.093-2.337.166-.033.003-.064.008-.097.011-.733.071-1.456.16-2.173.258-.204.028-.408.056-.612.087-.699.105-1.392.218-2.073.349-.249.047-.493.103-.741.154-.424.088-.845.18-1.262.277-.36.084-.719.168-1.075.26-.125.032-.248.069-.372.102-.902.239-1.786.503-2.653.789-.001 0-.002.001-.004.001-1.181.39-2.337.809-3.439 1.283 4.089-6.941 11.568-11.289 19.761-11.289zm-26.985 37.985v.812c-3.333-2.983-5.279-6.546-5.279-10.372 0-10.452 14.474-18.955 32.264-18.955 17.791 0 32.265 8.503 32.265 18.955 0 3.827-1.947 7.39-5.28 10.372v-.812c0-14.903-12.081-26.985-26.985-26.985-14.903 0-26.985 12.081-26.985 26.985zm.678 8.145c0-2.037 1.085-3.757 2.369-3.757.11 0 .22.013.33.04v4.058c0 .513.022 1.02.055 1.525.006.09.014.179.021.269.037.491.088.977.154 1.459.002.012.002.024.004.036-1.499.665-2.933-1.3-2.933-3.63zm4.698.341v-11.185c0-.136.008-.271.01-.407-.332-.081-.664-.156-.994-.248 17.84 4.973 39.47-6.368 39.47-6.368s.427 2.337 1.68 4.466c.778 1.323 2.134 2.7 3.05 3.553v10.187c0 11.915-9.693 21.608-21.608 21.608s-21.608-9.691-21.608-21.606zm20.53 34.863c-5.49-.544-9.793-5.187-9.793-10.817v-.627c.078-.013.155-.027.233-.04.253-.04.511-.067.766-.099v.766c0 5.209 4.059 9.478 9.178 9.837.012-.025.02-.051.032-.077-.163.346-.297.7-.416 1.057zm-6.793-10.817v-1.793c2.464.874 5.112 1.355 7.872 1.355s5.408-.48 7.872-1.355v1.793c0 1.664-.522 3.207-1.407 4.48-.607.09-1.21.241-1.801.453-1.637.586-3.039 1.596-4.108 2.911-.184.013-.368.028-.556.028-4.341 0-7.872-3.531-7.872-7.872zm8.74 16.266c-.665-1.859-.566-3.866.277-5.651.844-1.785 2.333-3.134 4.192-3.8.813-.291 1.655-.436 2.495-.436 1.078 0 2.151.239 3.155.714 1.785.844 3.135 2.333 3.8 4.192.538 1.504.567 3.103.116 4.604l-11.204 4.009c-1.301-.873-2.293-2.128-2.831-3.632zm4.457 5.175 9.276-3.32 2.978 11.122-1.925.528c-2.144.589-3.831 2.019-4.815 3.834zm15.408 26.892-.981.351c-1 .359-2.131-.121-2.57-1.09l-1.18-2.603c.565.129 1.14.206 1.72.206.697 0 1.399-.094 2.091-.284l1.829-.502.388 1.448c.275 1.029-.295 2.116-1.297 2.474zm1.725-6.22-3.175.872c-1.509.413-3.086.215-4.443-.557-1.358-.773-2.334-2.029-2.748-3.536-.413-1.507-.216-3.085.558-4.443.772-1.358 2.028-2.334 3.535-2.748l3.175-.872c.226-.062.454-.092.682-.092.438 0 .87.113 1.261.336.594.338 1.021.887 1.202 1.546l1.743 6.349c.372 1.361-.431 2.772-1.79 3.145zm13.114-7.425h-.386-10.041l.549 2h8.492v5.507c0 .551-.448 1-1 1h-8.553c1.369-1.105 2.036-2.954 1.542-4.756l-1.744-6.35c-.11-.401-.288-.767-.494-1.115v.001h11.634v3.713z"/><path d="m104.759 73.756c-.544 0-1.077.06-1.595.179v-7.805c0-1.177-.958-2.134-2.135-2.134h-6.958c-1.177 0-2.134.958-2.134 2.134v1.935c0 1.177.957 2.134 2.134 2.134h4.065v9.66c0 3.365 2.971 6.102 6.622 6.102s6.621-2.737 6.621-6.102-2.969-6.103-6.62-6.103zm0 10.204c-2.549 0-4.622-1.84-4.622-4.102v-10.66c0-.552-.447-1-1-1h-5.065c-.074 0-.134-.06-.134-.134v-1.935c0-.074.06-.134.134-.134h6.958c.074 0 .135.06.135.134v9.205c0 .343.176.662.465.845.29.183.653.206.963.059.676-.32 1.405-.482 2.167-.482 2.548 0 4.621 1.84 4.621 4.102s-2.074 4.102-4.622 4.102z"/><path d="m25.864 59.216h4.065c1.177 0 2.134-.958 2.134-2.134v-1.935c0-1.177-.958-2.134-2.134-2.134h-6.958c-1.177 0-2.134.957-2.134 2.134v7.806c-.518-.119-1.05-.179-1.595-.179-3.651 0-6.622 2.737-6.622 6.102s2.97 6.102 6.622 6.102 6.622-2.737 6.622-6.102zm-2-1v10.66c0 2.262-2.073 4.102-4.622 4.102-2.548 0-4.622-1.84-4.622-4.102s2.073-4.102 4.622-4.102c.762 0 1.491.162 2.167.482.311.146.673.124.963-.059.29-.184.465-.502.465-.845v-9.206c0-.074.06-.134.134-.134h6.958c.074 0 .134.06.134.134v1.935c0 .074-.06.134-.134.134h-5.065c-.552.001-1 .449-1 1.001z"/><path d="m62.673 56.71c1.969 0 3.571-1.602 3.571-3.571v-1.507c0-.552-.447-1-1-1-.552 0-1 .448-1 1v1.507c0 .866-.705 1.571-1.571 1.571s-1.571-.705-1.571-1.571v-1.507c0-.552-.448-1-1-1s-1 .448-1 1v1.507c0 1.969 1.602 3.571 3.571 3.571z"/><path d="m70.527 41.269 4.428.771c.059.01.116.015.173.015.478 0 .899-.342.984-.828.095-.544-.27-1.062-.813-1.157l-4.428-.771c-.554-.093-1.063.27-1.157.813-.095.544.269 1.061.813 1.157z"/><path d="m49.42 42.055c.057 0 .115-.005.173-.015l4.427-.771c.544-.095.908-.613.813-1.157-.095-.543-.608-.905-1.157-.813l-4.427.771c-.544.095-.908.613-.813 1.157.085.485.507.828.984.828z"/><path d="m68.621 60.367c.113-.307.068-.649-.118-.917-.188-.268-.493-.428-.82-.428h-10.019c-.324 0-.628.157-.815.421-.188.264-.235.603-.128.909.078.222 1.95 5.449 5.953 5.449 3.908 0 5.866-5.212 5.947-5.434zm-9.385.655h6.865c-.733 1.28-1.949 2.779-3.429 2.779-1.583 0-2.765-1.578-3.436-2.779z"/><path d="m53.813 45.865c-.008.011-.883 1.108-2.46 1.108-1.603 0-2.418-1.054-2.446-1.09-.322-.447-.948-.548-1.396-.226-.448.323-.549.948-.226 1.396.057.079 1.415 1.92 4.068 1.92 2.585 0 3.996-1.824 4.055-1.901.333-.44.247-1.067-.194-1.401s-1.068-.246-1.401.194z"/><path d="m71.545 45.883c-.322-.447-.947-.549-1.396-.226-.448.323-.549.948-.226 1.396.057.079 1.415 1.92 4.068 1.92 2.585 0 3.995-1.824 4.054-1.901.334-.44.247-1.067-.193-1.401-.442-.334-1.068-.246-1.4.194-.009.011-.884 1.108-2.46 1.108-1.603 0-2.419-1.054-2.447-1.09z"/></g></svg>