<svg id="Layer_1" enable-background="new 0 0 128 128" height="512" viewBox="0 0 128 128" width="512" xmlns="http://www.w3.org/2000/svg"><path d="m120.49 60.309h-1.977c-2.647-24.589-22.232-44.174-46.822-46.822v-1.977c0-3.104-2.526-5.631-5.631-5.631h-.122c-3.105 0-5.631 2.526-5.631 5.631v1.977c-24.59 2.647-44.175 22.232-46.822 46.822h-1.975c-3.105 0-5.631 2.526-5.631 5.631v.121c0 3.104 2.526 5.631 5.631 5.631h1.977c2.647 24.589 22.232 44.175 46.821 46.822v1.977c0 3.104 2.526 5.631 5.631 5.631h.122c3.105 0 5.631-2.526 5.631-5.631v-1.977c24.589-2.647 44.174-22.232 46.821-46.822h1.977c3.105 0 5.631-2.526 5.631-5.631v-.121c0-3.105-2.526-5.631-5.631-5.631zm-54.429 38.469h-.122c-3.105 0-5.631 2.526-5.631 5.631v2.632c-18.304-2.527-32.823-17.045-35.349-35.35h2.632c3.105 0 5.631-2.526 5.631-5.631v-.121c0-3.104-2.526-5.631-5.631-5.631h-2.632c2.526-18.304 17.045-32.824 35.35-35.351v2.633c0 3.104 2.526 5.631 5.631 5.631h.122c3.105 0 5.631-2.526 5.631-5.631v-2.633c18.304 2.527 32.824 17.046 35.35 35.35h-2.632c-3.105 0-5.631 2.526-5.631 5.631v.121c0 3.104 2.526 5.631 5.631 5.631h2.632c-2.527 18.304-17.046 32.823-35.349 35.35v-2.632c-.002-3.103-2.528-5.63-5.633-5.63z" fill="#e6e7e8"/><path d="m48.117 66.504c3.356 0 6.366-1.474 8.444-3.799 2.35 2.55 5.706 4.159 9.438 4.159 3.733 0 7.089-1.61 9.439-4.159 2.077 2.325 5.088 3.799 8.444 3.799 6.25 0 11.336-5.085 11.336-11.336 0-6.25-5.085-11.335-11.336-11.335-2.829 0-5.413 1.049-7.401 2.769-2.33-3.287-6.155-5.442-10.481-5.442s-8.151 2.155-10.481 5.441c-1.988-1.72-4.572-2.768-7.401-2.768-6.25 0-11.336 5.085-11.336 11.335-.001 6.251 5.085 11.336 11.335 11.336z" fill="#e6e7e8"/><path d="m82.757 89.84v-2.427h14.867c.552 0 1-.447 1-1v-3.673c0-8.129-6.613-14.742-14.742-14.742-3.507 0-6.728 1.236-9.261 3.288-2.523-1.522-5.466-2.415-8.622-2.415-3.155 0-6.099.893-8.621 2.415-2.533-2.052-5.754-3.288-9.261-3.288-8.128 0-14.742 6.613-14.742 14.742v3.673c0 .553.448 1 1 1h14.867v2.427c0 .553.448 1 1 1h31.515c.552 0 1-.447 1-1z" fill="#e6e7e8"/><g fill="#fa759e"><path d="m19.825 66.691h-9.433c2.24 24.838 22.077 44.67 46.916 46.911v-9.425c-19.689-2.166-35.316-17.797-37.483-37.486z"/><path d="m66.691 10.392v9.432c19.689 2.167 35.32 17.794 37.486 37.484h9.424c-2.239-24.838-22.072-44.675-46.91-46.916z"/><path d="m57.309 10.392c-24.838 2.24-44.67 22.078-46.911 46.916h9.424c2.166-19.69 17.798-35.317 37.486-37.484v-9.432z"/><path d="m66.691 104.174v9.433c24.838-2.24 44.67-22.077 46.911-46.916h-9.424c-2.167 19.69-17.798 35.317-37.487 37.483z"/><path d="m62.061 2.879h-.121c-2.547 0-4.631 2.084-4.631 4.631v16.081c0 2.547 2.084 4.631 4.631 4.631h.121c2.547 0 4.631-2.084 4.631-4.631v-16.081c-.001-2.547-2.084-4.631-4.631-4.631z"/><path d="m62.061 95.778h-.121c-2.547 0-4.631 2.084-4.631 4.631v16.081c0 2.547 2.084 4.631 4.631 4.631h.121c2.547 0 4.631-2.084 4.631-4.631v-16.081c-.001-2.547-2.084-4.631-4.631-4.631z"/><path d="m23.591 57.309h-16.081c-2.547 0-4.631 2.084-4.631 4.631v.121c0 2.547 2.084 4.631 4.631 4.631h16.081c2.547 0 4.631-2.084 4.631-4.631v-.121c0-2.548-2.084-4.631-4.631-4.631z"/><path d="m116.49 57.309h-16.081c-2.547 0-4.631 2.084-4.631 4.631v.121c0 2.547 2.084 4.631 4.631 4.631h16.081c2.547 0 4.631-2.084 4.631-4.631v-.121c0-2.548-2.084-4.631-4.631-4.631z"/></g><path d="m50.248 51.51c-.07-.49-.1-.99-.1-1.5 0-2.128.57-4.12 1.553-5.847-1.888-2.043-4.582-3.33-7.584-3.33-5.708 0-10.336 4.628-10.336 10.336s4.628 10.336 10.336 10.336c3.481 0 6.554-1.727 8.427-4.365-1.214-1.608-2.033-3.531-2.296-5.63z" fill="#6dc9f7"/><path d="m46.243 81.628c0-5.474 2.793-10.292 7.029-13.116-2.432-2.178-5.633-3.514-9.155-3.514-7.589 0-13.742 6.152-13.742 13.742v3.673h15.867v-.785z" fill="#6dc9f7"/><path d="m79.883 40.833c-3.002 0-5.697 1.288-7.585 3.331.982 1.727 1.55 3.719 1.55 5.846 0 .51-.03 1.01-.1 1.5-.262 2.099-1.081 4.021-2.293 5.629 1.873 2.639 4.946 4.366 8.428 4.366 5.708 0 10.336-4.628 10.336-10.336-.001-5.709-4.628-10.336-10.336-10.336z" fill="#6dc9f7"/><path d="m79.883 64.998c-3.521 0-6.723 1.336-9.155 3.514 4.236 2.824 7.029 7.643 7.029 13.116v.784h15.867v-3.672c0-7.589-6.152-13.742-13.741-13.742z" fill="#6dc9f7"/><path d="m73.848 50.01c0 .51-.03 1.01-.1 1.5-.73 5.84-5.71 10.35-11.75 10.35-6.03 0-11.02-4.51-11.75-10.35-.07-.49-.1-.99-.1-1.5 0-6.54 5.31-11.85 11.85-11.85 6.55 0 11.85 5.31 11.85 11.85z" fill="#fff"/><path d="m73.748 51.51c-.73 5.84-5.71 10.35-11.75 10.35-6.03 0-11.02-4.51-11.75-10.35.73-5.83 5.72-10.35 11.75-10.35 6.04 0 11.02 4.52 11.75 10.35z" fill="#6dc9f7"/><path d="m62 65.871c-8.703 0-15.757 7.055-15.757 15.757v4.211h31.515v-4.211c-.001-8.702-7.055-15.757-15.758-15.757z" fill="#6dc9f7"/><path d="m84.271 16.319c2.148 1.052 4.242 2.268 6.224 3.615.172.117.368.173.561.173.32 0 .635-.153.828-.438.311-.457.192-1.079-.265-1.39-2.06-1.4-4.236-2.664-6.468-3.758-.497-.241-1.095-.036-1.338.459-.243.498-.038 1.096.458 1.339z" fill="#3a2c60"/><path d="m116.49 56.309h-2.006c-1.473-13.669-8.185-26.243-18.977-35.118-.426-.352-1.057-.29-1.408.138-.351.426-.289 1.057.137 1.407 10.328 8.493 16.773 20.506 18.238 33.573h-7.42c-2.552-19.407-17.956-34.806-37.363-37.36v-7.431c4.045.452 8.011 1.362 11.838 2.773.517.191 1.093-.074 1.284-.593s-.074-1.093-.593-1.284c-4.05-1.492-8.246-2.467-12.529-2.927v-1.977c0-3.104-2.526-5.631-5.631-5.631h-.122c-3.105 0-5.631 2.526-5.631 5.631v1.992c-24.583 2.649-44.152 22.221-46.801 46.807h-1.996c-3.105 0-5.631 2.526-5.631 5.631v.121c0 3.104 2.526 5.631 5.631 5.631h1.992c2.649 24.584 22.221 44.153 46.807 46.802v1.997c0 3.104 2.526 5.631 5.631 5.631h.122c3.105 0 5.631-2.526 5.631-5.631v-1.992c24.584-2.649 44.153-22.222 46.802-46.807h1.997c3.105 0 5.631-2.526 5.631-5.631v-.121c-.002-3.105-2.528-5.631-5.633-5.631zm-58.182-48.799c0-2.002 1.629-3.631 3.631-3.631h.122c2.002 0 3.631 1.629 3.631 3.631v16.081c0 2.002-1.629 3.631-3.631 3.631h-.122c-2.002 0-3.631-1.629-3.631-3.631zm-2 4v7.439c-19.406 2.553-34.81 17.952-37.363 37.36h-7.431c2.632-23.483 21.313-42.168 44.794-44.799zm-52.429 50.551v-.121c0-2.002 1.629-3.631 3.631-3.631h16.081c2.002 0 3.631 1.629 3.631 3.631v.121c0 2.002-1.629 3.631-3.631 3.631h-16.081c-2.002-.001-3.631-1.629-3.631-3.631zm7.631 5.63h7.44c2.554 19.406 17.952 34.81 37.359 37.363v7.431c-23.482-2.631-42.168-21.312-44.799-44.794zm54.182 48.799c0 2.002-1.629 3.631-3.631 3.631h-.122c-2.002 0-3.631-1.629-3.631-3.631v-16.081c0-2.002 1.629-3.631 3.631-3.631h.122c2.002 0 3.631 1.629 3.631 3.631zm-3.631-21.712h-.122c-3.105 0-5.631 2.526-5.631 5.631v2.624c-18.302-2.527-32.812-17.041-35.34-35.342h2.622c3.105 0 5.631-2.526 5.631-5.631v-.121c0-3.104-2.526-5.631-5.631-5.631h-2.624c2.527-18.302 17.041-32.813 35.342-35.341v2.623c0 3.104 2.526 5.631 5.631 5.631h.122c3.105 0 5.631-2.526 5.631-5.631v-2.623c18.301 2.528 32.815 17.039 35.342 35.341h-2.624c-3.105 0-5.631 2.526-5.631 5.631v.121c0 3.104 2.526 5.631 5.631 5.631h2.624c-2.527 18.302-17.041 32.812-35.342 35.34v-2.622c0-3.104-2.526-5.631-5.631-5.631zm5.631 17.712v-7.44c19.406-2.553 34.809-17.952 37.362-37.359h7.431c-2.632 23.483-21.312 42.168-44.793 44.799zm52.429-50.429c0 2.002-1.629 3.631-3.631 3.631h-16.081c-2.002 0-3.631-1.629-3.631-3.631v-.121c0-2.002 1.629-3.631 3.631-3.631h16.081c2.002 0 3.631 1.629 3.631 3.631z" fill="#3a2c60"/><path d="m44.117 62.504c3.357 0 6.359-1.481 8.435-3.809 2.35 2.555 5.71 4.169 9.447 4.169s7.097-1.614 9.448-4.169c2.076 2.327 5.079 3.809 8.435 3.809 6.25 0 11.336-5.085 11.336-11.336 0-6.25-5.085-11.335-11.336-11.335-2.829 0-5.412 1.049-7.4 2.77-2.33-3.287-6.156-5.443-10.482-5.443-4.327 0-8.152 2.156-10.483 5.443-1.987-1.721-4.571-2.77-7.4-2.77-6.25 0-11.336 5.085-11.336 11.335 0 6.251 5.086 11.336 11.336 11.336zm35.766-20.671c5.148 0 9.336 4.188 9.336 9.335s-4.188 9.336-9.336 9.336c-2.888 0-5.467-1.323-7.18-3.391 1.355-2.036 2.149-4.477 2.149-7.1 0-2.032-.487-3.949-1.33-5.659 1.668-1.56 3.902-2.521 6.361-2.521zm-17.883-2.673c5.984 0 10.852 4.868 10.852 10.853 0 5.983-4.868 10.852-10.852 10.852-5.983 0-10.852-4.868-10.852-10.852 0-5.985 4.868-10.853 10.852-10.853zm-17.883 2.673c2.459 0 4.693.961 6.361 2.521-.843 1.71-1.33 3.627-1.33 5.659 0 2.624.794 5.064 2.149 7.101-1.713 2.067-4.292 3.391-7.18 3.391-5.148 0-9.336-4.188-9.336-9.336s4.188-9.336 9.336-9.336z" fill="#3a2c60"/><path d="m78.757 85.84v-2.427h14.867c.552 0 1-.447 1-1v-3.673c0-8.129-6.613-14.742-14.742-14.742-3.505 0-6.712 1.247-9.243 3.299-2.527-1.529-5.477-2.426-8.64-2.426s-6.113.897-8.639 2.426c-2.531-2.052-5.738-3.299-9.243-3.299-8.128 0-14.742 6.613-14.742 14.742v3.673c0 .553.448 1 1 1h14.867v2.427c0 .553.448 1 1 1h31.515c.552 0 1-.447 1-1zm1.126-19.842c7.026 0 12.742 5.716 12.742 12.742v2.673h-13.879c-.067-5.242-2.552-9.903-6.389-12.932 2.111-1.555 4.709-2.483 7.526-2.483zm-48.507 12.742c0-7.026 5.716-12.742 12.742-12.742 2.817 0 5.415.927 7.525 2.482-3.838 3.03-6.323 7.69-6.389 12.933h-13.878zm45.381 6.1h-29.515v-3.212c0-8.137 6.62-14.757 14.758-14.757 8.137 0 14.757 6.62 14.757 14.757z" fill="#3a2c60"/></svg>