<svg id="Layer_1" enable-background="new 0 0 128 128" height="512" viewBox="0 0 128 128" width="512" xmlns="http://www.w3.org/2000/svg"><path d="m104.782 22.638h-4.623l-.329-1.071c-.112-.365-.342-.667-.638-.877-.106-1.766-1.563-3.174-3.355-3.174-1.861 0-3.375 1.514-3.375 3.375v1.747h-13.777l-.329-1.071c-.112-.365-.342-.667-.638-.877-.106-1.766-1.563-3.174-3.355-3.174-1.861 0-3.375 1.514-3.375 3.375v1.747h-13.778l-.329-1.071c-.112-.365-.342-.666-.638-.877-.106-1.766-1.563-3.175-3.355-3.175-1.861 0-3.375 1.514-3.375 3.375v1.747h-13.778l-.329-1.071c-.112-.365-.342-.666-.638-.877-.106-1.766-1.563-3.174-3.355-3.174-1.861 0-3.375 1.514-3.375 3.375v1.747h-.819c-8.392.001-15.219 6.827-15.219 15.218v61.419c0 .552.448 1 1 1h6.246v9.516c0 2.589 2.106 4.695 4.695 4.695h52.854c2.589 0 4.695-2.106 4.695-4.695v-9.516h5.874v8.945h-2.088c-1.452 0-2.633 1.181-2.633 2.632s1.181 2.633 2.633 2.633h30.926c1.452 0 2.633-1.181 2.633-2.633s-1.181-2.632-2.633-2.632h-2.088v-8.945h4.886c.552 0 1-.448 1-1v-61.419c0-8.391-6.827-15.217-15.218-15.217zm-10.32-1.747c0-.758.617-1.375 1.375-1.375.698 0 1.271.525 1.358 1.2-.277.209-.492.502-.6.851l-.329 1.071h-1.804zm-21.475 0c0-.758.617-1.375 1.375-1.375.698 0 1.27.525 1.357 1.2-.277.209-.492.502-.6.851l-.329 1.071h-1.804v-1.747zm-21.475 0c0-.758.617-1.375 1.375-1.375.698 0 1.27.525 1.358 1.2-.277.209-.492.502-.6.851l-.329 1.071h-1.804zm-21.475 0c0-.758.617-1.375 1.375-1.375.698 0 1.271.525 1.358 1.2-.277.209-.492.502-.6.851l-.329 1.071h-1.804z" fill="#e6e7e8"/><path d="m94.462 20.891c0-.758.617-1.375 1.375-1.375.698 0 1.271.525 1.358 1.201-.277.209-.492.502-.6.851l-.329 1.071h-1.803v-1.748zm-21.475 0c0-.758.617-1.375 1.375-1.375.698 0 1.27.526 1.357 1.201-.277.209-.492.502-.6.851l-.329 1.071h-1.804v-1.748zm-21.475 0c0-.758.617-1.375 1.375-1.375.698 0 1.271.525 1.358 1.2-.278.209-.493.502-.6.851l-.329 1.071h-1.804zm-21.475 0c0-.758.617-1.375 1.375-1.375.698 0 1.271.525 1.358 1.2-.277.209-.492.502-.6.851l-.329 1.071h-1.804z" fill="#e6e7e8"/><path d="m100.782 19.638h-4.569l.563 1.831c.335 1.088-.479 2.19-1.618 2.19h-1.917c-1.139 0-1.953-1.102-1.618-2.19l.563-1.831h-17.448l.563 1.831c.335 1.088-.479 2.19-1.618 2.19h-1.917c-1.139 0-1.953-1.102-1.618-2.19l.563-1.831h-17.447l.563 1.831c.335 1.088-.479 2.19-1.618 2.19h-1.917c-1.139 0-1.953-1.102-1.618-2.19l.563-1.831h-17.448l.563 1.831c.335 1.088-.479 2.19-1.618 2.19h-1.917c-1.139 0-1.952-1.102-1.618-2.19l.563-1.831h-4.545c-7.852 0-14.217 6.365-14.217 14.217v61.419h6.245v-17.581c-1.424-.146-2.543-1.339-2.543-2.801v-4.34c0-1.561 1.27-2.83 2.83-2.83h19.323v-1.833c0-6.348 5.164-11.512 11.512-11.512s11.512 5.164 11.512 11.512v1.833h19.323c1.561 0 2.83 1.27 2.83 2.83v4.34c0 1.462-1.119 2.655-2.543 2.801v17.581h5.874v-56.674c-1.3-.096-2.331-1.172-2.331-2.496v-.237c0-1.386 1.128-2.514 2.515-2.514h26.383c1.386 0 2.514 1.128 2.514 2.514v.237c0 1.323-1.032 2.4-2.331 2.496v56.674h4.887v-61.419c0-7.852-6.365-14.217-14.218-14.217zm-54.415 34.066c-4.911 0-8.907-3.996-8.907-8.907s3.996-8.907 8.907-8.907 8.906 3.996 8.906 8.907-3.995 8.907-8.906 8.907z" fill="#d4fbff"/><g fill="#fa759e"><path d="m32.352 21.468-.958-3.115c-.219-.71-.875-1.195-1.618-1.195s-1.399.485-1.618 1.195l-.958 3.115c-.335 1.088.479 2.19 1.618 2.19h1.917c1.138.001 1.952-1.101 1.617-2.19z"/><path d="m53.827 21.468-.958-3.115c-.219-.71-.875-1.195-1.618-1.195s-1.399.485-1.618 1.195l-.958 3.115c-.335 1.088.479 2.19 1.618 2.19h1.917c1.138.001 1.952-1.101 1.617-2.19z"/><path d="m75.302 21.468-.958-3.115c-.219-.71-.875-1.195-1.618-1.195s-1.399.485-1.618 1.195l-.958 3.115c-.335 1.088.479 2.19 1.618 2.19h1.917c1.138.001 1.952-1.101 1.617-2.19z"/><path d="m96.777 21.468-.958-3.115c-.219-.71-.875-1.195-1.618-1.195s-1.399.485-1.618 1.195l-.958 3.115c-.335 1.088.479 2.19 1.618 2.19h1.917c1.138.001 1.952-1.101 1.617-2.19z"/></g><path d="m23.504 61.536h12.212c1.408-3.433 4.428-6.034 8.114-6.868v-1.337c-3.678-1.096-6.369-4.504-6.369-8.534s2.691-7.438 6.369-8.534v-.887c0-2.398-1.944-4.341-4.341-4.341h-15.985c-2.398 0-4.341 1.944-4.341 4.341v21.818c0 2.398 1.944 4.342 4.341 4.342z" fill="#ffd7e5"/><path d="m55.273 44.797c0 4.03-2.691 7.438-6.37 8.534v1.337c3.687.833 6.706 3.435 8.115 6.868h12.211c2.398 0 4.341-1.944 4.341-4.341v-21.818c0-2.398-1.944-4.341-4.341-4.341h-15.984c-2.398 0-4.341 1.944-4.341 4.341v.886c3.678 1.096 6.369 4.505 6.369 8.534z" fill="#ffd7e5"/><circle cx="46.367" cy="44.797" fill="#6dc9f7" r="7.906"/><path d="m46.367 55.377c-5.806 0-10.512 4.706-10.512 10.512v2.81h21.024v-2.81c0-5.806-4.707-10.512-10.512-10.512z" fill="#6dc9f7"/><path d="m16.245 76.722v29.068c0 2.041 1.654 3.695 3.695 3.695h52.854c2.041 0 3.695-1.654 3.695-3.695v-29.068z" fill="#fa759e"/><path d="m77.2 68.724h-61.667c-1.013 0-1.833.821-1.833 1.833v4.333c0 1.013.821 1.833 1.833 1.833h61.667c1.013 0 1.833-.821 1.833-1.833v-4.333c0-1.012-.821-1.833-1.833-1.833z" fill="#fff"/><path d="m79.032 73.552v1.34c0 1.01-.82 1.83-1.83 1.83h-61.67c-1.01 0-1.83-.82-1.83-1.83v-1.34c0-1.01.82-1.83 1.83-1.83h61.67c1.01 0 1.83.82 1.83 1.83z" fill="#ffd7e5"/><path d="m84.363 37.619h24.75v68.601h-24.75z" fill="#6dc9f7"/><path d="m112.201 106.22h-30.926c-.902 0-1.633.731-1.633 1.633s.731 1.633 1.633 1.633h30.926c.902 0 1.633-.731 1.633-1.633s-.731-1.633-1.633-1.633z" fill="#fa759e"/><path d="m109.93 34.354h-26.384c-.836 0-1.514.678-1.514 1.514v.237c0 .836.678 1.514 1.514 1.514h26.384c.836 0 1.514-.678 1.514-1.514v-.237c0-.836-.678-1.514-1.514-1.514z" fill="#fa759e"/><path d="m100.782 18.638h-3.83l-.178-.579c-.251-.815-.857-1.433-1.617-1.72-.266-1.598-1.647-2.823-3.32-2.823-1.861 0-3.375 1.514-3.375 3.375v1.747h-12.985l-.178-.579c-.251-.816-.857-1.434-1.618-1.721-.266-1.598-1.647-2.823-3.319-2.823-1.861 0-3.375 1.514-3.375 3.375v1.747h-12.985l-.178-.579c-.251-.816-.857-1.433-1.617-1.721-.266-1.598-1.647-2.823-3.32-2.823-1.861 0-3.375 1.514-3.375 3.375v1.747h-12.985l-.178-.579c-.251-.815-.857-1.433-1.617-1.72-.266-1.598-1.647-2.823-3.32-2.823-1.861 0-3.375 1.514-3.375 3.375v1.747h-.819c-8.391.002-15.218 6.828-15.218 15.219v61.419c0 .552.448 1 1 1h6.245v9.516c0 2.589 2.106 4.695 4.695 4.695h19.082c.552 0 1-.448 1-1s-.448-1-1-1h-19.082c-1.486 0-2.695-1.209-2.695-2.695v-28.068h58.244v28.068c0 1.486-1.209 2.695-2.695 2.695h-15.916c-.552 0-1 .448-1 1s.448 1 1 1h15.917c2.589 0 4.695-2.106 4.695-4.695v-9.516h5.874v8.945h-2.088c-1.452 0-2.633 1.181-2.633 2.633s1.181 2.633 2.633 2.633h30.926c1.452 0 2.633-1.181 2.633-2.633s-1.181-2.633-2.633-2.633h-2.088v-8.945h4.886c.552 0 1-.448 1-1v-61.419c0-8.391-6.827-15.217-15.218-15.217zm-5.066 3.74c-.132.179-.335.281-.557.281h-1.917c-.222 0-.425-.103-.557-.281s-.17-.403-.105-.615l.958-3.115c.09-.292.356-.489.662-.489s.572.196.662.488l.958 3.115c.066.213.028.437-.104.616zm-5.254-5.487c0-.758.617-1.375 1.375-1.375.582 0 1.079.365 1.279.878-.698.307-1.252.897-1.488 1.666l-.178.579h-.987v-1.748zm-16.221 5.487c-.132.179-.335.281-.557.281h-1.917c-.222 0-.425-.103-.557-.281-.132-.179-.17-.403-.105-.616l.958-3.115c.09-.292.356-.489.662-.489s.572.196.662.488l.958 3.115c.066.214.028.438-.104.617zm-5.254-5.487c0-.758.617-1.375 1.375-1.375.582 0 1.078.365 1.278.878-.699.307-1.252.897-1.488 1.666l-.178.579h-.987zm-16.221 5.487c-.132.179-.335.281-.557.281h-1.917c-.222 0-.425-.103-.557-.281-.132-.179-.17-.403-.105-.616l.959-3.115c.089-.292.355-.488.661-.488s.572.196.662.488l.958 3.115c.066.213.028.437-.104.616zm-5.254-5.487c0-.758.617-1.375 1.375-1.375.582 0 1.078.365 1.279.878-.699.307-1.252.897-1.488 1.666l-.178.578h-.988zm-16.221 5.487c-.132.178-.335.281-.557.281h-1.917c-.222 0-.425-.103-.557-.281s-.17-.403-.105-.615l.959-3.115c.089-.292.355-.488.662-.488.306 0 .572.196.662.488l.958 3.115c.065.212.027.436-.105.615zm-5.254-5.487c0-.758.617-1.375 1.375-1.375.582 0 1.078.365 1.279.878-.699.307-1.252.897-1.488 1.666l-.178.579h-.988zm-9.792 58.831h-.713c-.458 0-.83-.373-.83-.83v-4.34c0-.458.372-.83.83-.83h61.67c.458 0 .83.373.83.83v4.34c0 .458-.373.83-.83.83h-.713zm20.61-8.024v-1.81c0-5.245 4.267-9.512 9.512-9.512s9.512 4.267 9.512 9.512v1.81zm73.075-31.079h-26.384c-.284 0-.515-.23-.515-.514v-.237c0-.284.231-.514.515-.514h26.383c.284 0 .514.23.514.514v.237c.001.283-.23.514-.513.514zm2.904 71.233c0 .349-.284.633-.633.633h-30.926c-.349 0-.633-.284-.633-.633s.284-.633.633-.633h30.926c.349 0 .633.284.633.633zm-27.471-2.633v-66.6h22.75v66.601h-22.75zm28.637-10.944h-3.887v-55.675c1.299-.096 2.331-1.172 2.331-2.496v-.237c0-1.386-1.128-2.514-2.514-2.514h-26.384c-1.387 0-2.515 1.128-2.515 2.514v.237c0 1.323 1.031 2.4 2.331 2.496v55.674h-5.874v-16.581c1.424-.146 2.543-1.339 2.543-2.801v-4.34c0-1.561-1.27-2.83-2.83-2.83h-19.322v-1.833c0-6.348-5.164-11.512-11.512-11.512s-11.512 5.164-11.512 11.512v1.833h-19.323c-1.56 0-2.83 1.27-2.83 2.83v4.34c0 1.462 1.119 2.655 2.543 2.801v16.581h-5.245v-60.419c0-7.288 5.93-13.217 13.218-13.217h3.191l-.165.537c-.254.825-.105 1.697.407 2.392.513.694 1.303 1.093 2.166 1.093h1.917c.863 0 1.652-.398 2.165-1.092.513-.695.662-1.566.408-2.392l-.165-.537h14.742l-.165.537c-.254.825-.105 1.697.407 2.392.513.694 1.302 1.093 2.166 1.093h1.917c.864 0 1.653-.398 2.166-1.093s.662-1.566.407-2.392l-.165-.537h14.741l-.165.537c-.253.826-.104 1.697.409 2.392.513.694 1.302 1.092 2.165 1.092h1.917c.863 0 1.653-.398 2.166-1.093s.662-1.566.407-2.392l-.165-.537h14.742l-.165.537c-.254.825-.105 1.697.407 2.392.513.694 1.303 1.093 2.166 1.093h1.917c.863 0 1.653-.398 2.166-1.093s.662-1.566.407-2.392l-.165-.537h3.215c7.288 0 13.218 5.929 13.218 13.217z" fill="#3a2c60"/><path d="m46.367 35.891c-4.911 0-8.907 3.996-8.907 8.907s3.996 8.907 8.907 8.907 8.906-3.996 8.906-8.907-3.995-8.907-8.906-8.907zm0 15.813c-3.809 0-6.907-3.098-6.907-6.907s3.098-6.907 6.907-6.907c3.808 0 6.906 3.098 6.906 6.907s-3.098 6.907-6.906 6.907z" fill="#3a2c60"/><path d="m51.263 108.485h-6.408c-.552 0-1 .448-1 1s.448 1 1 1h6.408c.552 0 1-.448 1-1s-.448-1-1-1z" fill="#3a2c60"/><path d="m103.153 49.206h-12.607c-.552 0-1-.448-1-1s.448-1 1-1h12.607c.552 0 1 .448 1 1s-.447 1-1 1z" fill="#fff"/><path d="m103.153 53.456h-12.607c-.552 0-1-.448-1-1s.448-1 1-1h12.607c.552 0 1 .448 1 1s-.447 1-1 1z" fill="#fff"/><path d="m103.153 57.706h-12.607c-.552 0-1-.448-1-1s.448-1 1-1h12.607c.552 0 1 .448 1 1s-.447 1-1 1z" fill="#fff"/><path d="m101.104 61.592h-8.509c-.665 0-1.204.539-1.204 1.204v11.091c0 .665.539 1.204 1.204 1.204h8.509c.665 0 1.204-.539 1.204-1.204v-11.091c0-.665-.539-1.204-1.204-1.204z" fill="#ffd7e5"/></svg>