<svg id="Layer_1" enable-background="new 0 0 128 128" height="512" viewBox="0 0 128 128" width="512" xmlns="http://www.w3.org/2000/svg"><path d="m119.117 72.997c0-16.265-11.831-29.81-27.338-32.504l6.02-3.469c.27-.155.451-.427.492-.735s-.064-.618-.284-.838l-5.69-5.69c-.188-.188-.441-.293-.707-.293h-10.984c-.035 0-.067.017-.102.02-.034.003-.067-.007-.101 0-.032.007-.056.028-.087.037-.064.02-.122.045-.18.077-.059.032-.113.067-.164.11-.023.019-.051.027-.072.048l-5.69 5.69c-.1.1-.173.224-.224.359-.017.046-.018.093-.028.141-.015.069-.042.134-.042.208 0 .026.013.047.015.072.001.02-.008.039-.006.059.005.036.029.065.038.1.022.09.051.173.095.252.026.046.053.086.086.127.058.074.125.134.202.189.027.019.042.05.071.067l6.011 3.464c-1.777.31-3.527.763-5.24 1.364-5.633-10.876-17.043-17.854-29.326-17.854-18.196 0-33 14.804-33 33s14.804 33 33 33c3.736 0 7.402-.623 10.91-1.854 5.632 10.875 17.043 17.854 29.325 17.854 18.196-.001 33-14.805 33-33.001zm-55.096 11.678c-.015-.027-.027-.056-.041-.084 9.35-6.132 14.902-16.379 14.902-27.594 0-2.57-.3-5.135-.894-7.636 2.621-.905 5.351-1.364 8.129-1.364 13.785 0 25 11.215 25 25s-11.215 25-25 25c-9.216 0-17.782-5.198-22.096-13.322zm-10.009-4.042c-2.618.905-5.348 1.363-8.129 1.363-13.785 0-25-11.215-25-25s11.215-25 25-25c9.248 0 17.843 5.232 22.143 13.403-9.353 6.133-14.908 16.38-14.908 27.597 0 2.572.3 5.136.894 7.637zm7.106-7.636c0-7.647 3.525-14.86 9.503-19.597.174 1.191.261 2.396.261 3.597 0 7.648-3.525 14.861-9.503 19.598-.174-1.193-.261-2.398-.261-3.598z" fill="#e6e7e8"/><path d="m73.789 31.174c.195.195.451.293.707.293s.512-.098.707-.293c.391-.391.391-1.023 0-1.414l-4.305-4.305c-.391-.391-1.023-.391-1.414 0s-.391 1.023 0 1.414z" fill="#e6e7e8"/><path d="m97.739 31.467c.256 0 .512-.098.707-.293l4.305-4.305c.391-.391.391-1.023 0-1.414s-1.023-.391-1.414 0l-4.305 4.305c-.391.391-.391 1.023 0 1.414.196.196.451.293.707.293z" fill="#e6e7e8"/><path d="m86.118 28.023c.553 0 1-.447 1-1v-6.025c0-.553-.447-1-1-1s-1 .447-1 1v6.025c0 .553.447 1 1 1z" fill="#e6e7e8"/><path d="m17.5 32.06c.729 0 1.414-.283 1.928-.799l4.616-4.616c.875-.875 1.348-2.039 1.329-3.277-.019-1.237-.526-2.388-1.428-3.236-1.766-1.665-4.647-1.574-6.422.201l-.023.021-.022-.021c-1.775-1.774-4.656-1.864-6.423-.201-.902.85-1.409 2-1.428 3.237-.018 1.237.454 2.401 1.329 3.276l4.616 4.616c.514.516 1.199.799 1.928.799z" fill="#e6e7e8"/><path d="m120.944 101.131c-1.767-1.664-4.646-1.573-6.423.201 0 0 0 0-.001 0l-.021.021-.022-.021c-1.773-1.773-4.655-1.866-6.422-.201-.902.85-1.41 1.999-1.429 3.236-.019 1.238.453 2.402 1.329 3.277l4.615 4.616c.516.516 1.2.799 1.929.799s1.413-.284 1.928-.799l4.616-4.616c.876-.876 1.348-2.04 1.329-3.278-.018-1.236-.525-2.386-1.428-3.235z" fill="#e6e7e8"/><path d="m82.118 36.997c-4.019 0-7.861.748-11.405 2.1-5.173-10.711-16.139-18.1-28.831-18.1-17.673 0-32 14.327-32 32s14.327 32 32 32c4.019 0 7.861-.748 11.405-2.1 5.173 10.711 16.139 18.1 28.831 18.1 17.673 0 32-14.327 32-32s-14.327-32-32-32zm-40.236 42c-14.336 0-26-11.663-26-26s11.664-26 26-26c10.313 0 19.243 6.036 23.443 14.761-9.124 5.637-15.207 15.726-15.207 27.239 0 2.859.38 5.629 1.084 8.266-2.896 1.116-6.036 1.734-9.32 1.734zm26-26c0 8.843-4.441 16.664-11.205 21.363-.365-1.731-.559-3.525-.559-5.363 0-8.843 4.441-16.664 11.205-21.363.365 1.732.559 3.525.559 5.363zm14.236 42c-10.313 0-19.243-6.036-23.443-14.761 9.124-5.637 15.207-15.726 15.207-27.239 0-2.859-.38-5.629-1.084-8.266 2.895-1.116 6.036-1.734 9.319-1.734 14.336 0 26 11.663 26 26s-11.663 26-25.999 26z" fill="#ffd7e5"/><path d="m73.394 47.516c-.199.071-.399.139-.596.215.58 2.174.925 4.441 1.034 6.77.023-.5.05-.998.05-1.504 0-1.871-.178-3.698-.488-5.481z" fill="#fff"/><path d="m41.882 23.997c12.692 0 23.658 7.389 28.831 18.1 3.544-1.353 7.386-2.1 11.405-2.1 17.17 0 31.178 13.524 31.962 30.5.023-.497.038-.997.038-1.5 0-17.673-14.327-32-32-32-4.019 0-7.861.748-11.405 2.1-5.173-10.711-16.139-18.1-28.831-18.1-17.673 0-32 14.327-32 32 0 .503.015 1.003.038 1.5.784-16.976 14.792-30.5 31.962-30.5z" fill="#fff"/><path d="m76.626 26.467-5.691 5.691 11.183 6.443 11.182-6.443-5.69-5.691z" fill="#d4fbff"/><path d="m14.229 17.04-.729.729-.729-.729c-1.37-1.37-3.62-1.509-5.03-.181-1.459 1.374-1.485 3.672-.078 5.079l.834.834 3.782 3.782c.674.674 1.768.674 2.442 0l3.782-3.782.834-.834c1.407-1.407 1.381-3.705-.078-5.079-1.41-1.328-3.66-1.189-5.03.181z" fill="#fa759e"/><path d="m111.229 98.04-.729.729-.729-.729c-1.37-1.37-3.62-1.509-5.03-.181-1.459 1.374-1.485 3.672-.078 5.079l.834.834 3.782 3.782c.674.674 1.768.674 2.442 0l3.782-3.782.834-.834c1.407-1.407 1.381-3.705-.078-5.079-1.41-1.328-3.66-1.189-5.03.181z" fill="#fa759e"/><g fill="#3a2c60"><path d="m115.117 68.997c0-16.266-11.834-29.811-27.342-32.503l6.024-3.471c.27-.155.451-.427.492-.735s-.064-.618-.284-.838l-5.69-5.69c-.188-.188-.441-.293-.707-.293h-10.984c-.035 0-.067.016-.101.02-.034.003-.067-.007-.102 0-.032.007-.056.028-.087.037-.064.02-.123.046-.182.078-.058.032-.112.066-.162.108-.023.019-.052.028-.074.049l-5.69 5.689c-.1.1-.173.224-.224.359-.017.046-.018.093-.028.141-.015.069-.042.134-.042.208 0 .026.013.047.015.072.001.02-.008.039-.006.059.005.036.029.065.038.1.022.09.051.173.095.252.026.046.053.086.086.127.058.074.125.134.202.189.027.019.042.05.071.067l6.016 3.466c-1.778.309-3.53.761-5.244 1.362-5.633-10.876-17.043-17.854-29.326-17.854-18.196 0-33 14.804-33 33s14.804 33 33 33c3.735 0 7.4-.624 10.91-1.854 5.633 10.876 17.044 17.854 29.325 17.854 18.198.001 33.001-14.802 33.001-32.999zm-39.094-40.513.556 2.674h-3.229zm9.201 2.673h-6.602l-.767-3.69h8.136zm-.965 2-2.182 3.585-2.397-3.585zm-6.984 0 1.631 2.438-4.232-2.438zm9.325 0h2.961l-4.56 2.627zm4.285-2h-3.617l.622-2.995zm-80.003 21.84c0-17.094 13.907-31 31-31 11.822 0 22.786 6.883 27.93 17.535.001.002.003.003.004.005.841 1.742 1.518 3.568 2.015 5.432.002.006 0 .013.001.019.696 2.611 1.049 5.307 1.049 8.009 0 2.394-.273 4.774-.812 7.077-.126.537.208 1.075.746 1.201.536.124 1.075-.209 1.201-.746.573-2.451.864-4.986.864-7.532 0-2.571-.3-5.136-.894-7.637 2.619-.905 5.35-1.363 8.129-1.363 13.785 0 25 11.215 25 25s-11.215 25-25 25c-9.216 0-17.782-5.199-22.096-13.323-.015-.028-.027-.056-.041-.084 1.401-.921 2.737-1.952 3.984-3.074.41-.37.443-1.002.074-1.412-.37-.411-1.001-.443-1.413-.074-1.099.99-2.29 1.879-3.518 2.703-.545-1.284-.979-2.609-1.301-3.965 6.944-5.091 11.077-13.173 11.077-21.771 0-1.861-.195-3.728-.577-5.552-.001-.006.001-.011 0-.017-.443-2.106-1.143-4.159-2.078-6.104-.001-.002-.002-.003-.003-.004-4.483-9.308-14.036-15.323-24.341-15.323-14.888 0-27 12.112-27 27s12.112 27 27 27c2.957 0 5.855-.507 8.645-1.455.388 1.285.855 2.548 1.398 3.777-3.235 1.11-6.607 1.678-10.044 1.678-17.092 0-30.999-13.906-30.999-31zm55.739-3.597c.174 1.192.261 2.396.261 3.598 0 7.648-3.525 14.861-9.504 19.598-.173-1.191-.26-2.396-.26-3.598 0-7.649 3.525-14.862 9.503-19.598zm-17.503 19.597c0 2.57.3 5.135.894 7.637-2.619.905-5.35 1.363-8.129 1.363-13.785 0-25-11.215-25-25s11.215-25 25-25c9.248 0 17.842 5.232 22.143 13.402-9.354 6.133-14.908 16.381-14.908 27.598zm32.999 31c-11.822 0-22.785-6.883-27.93-17.535-.001-.002-.002-.003-.003-.004-.839-1.739-1.517-3.563-2.015-5.426-.002-.009 0-.017-.002-.026-.697-2.613-1.05-5.308-1.05-8.009 0-10.439 5.134-19.975 13.774-25.754.548 1.288.983 2.621 1.306 3.98-6.946 5.091-11.081 13.173-11.081 21.774 0 1.862.195 3.73.578 5.553.001.006-.001.011 0 .017.439 2.085 1.139 4.103 2.058 6.027.01.025.009.052.021.077.08.166.174.323.257.488.096.189.18.382.28.569.02.037.048.064.071.098 4.696 8.646 13.865 14.173 23.735 14.173 14.888 0 27-12.112 27-27s-12.112-27-27-27c-2.957 0-5.855.507-8.645 1.455-.386-1.278-.85-2.535-1.39-3.759 2.354-.806 4.779-1.323 7.25-1.543l2.285 1.317c.004.002.009.003.013.005.056.031.116.053.177.073.02.007.038.017.058.023.081.021.165.033.251.033h.021c.051-.001.099-.014.149-.022.031-.005.062-.006.092-.014.083-.023.163-.055.238-.098l2.306-1.328c15.782 1.424 28.194 14.713 28.194 30.859.002 17.091-13.904 30.997-30.998 30.997z"/><path d="m66.994 72.853c.18.133.389.197.596.197.306 0 .607-.14.804-.403 1.344-1.81 2.504-3.762 3.449-5.803.232-.501.014-1.096-.487-1.327-.501-.233-1.096-.014-1.327.487-.888 1.917-1.979 3.751-3.24 5.449-.33.444-.238 1.071.205 1.4z"/><path d="m69.789 27.174c.195.195.451.293.707.293s.512-.098.707-.293c.391-.391.391-1.023 0-1.414l-4.305-4.305c-.391-.391-1.023-.391-1.414 0s-.391 1.023 0 1.414z"/><path d="m93.739 27.467c.256 0 .512-.098.707-.293l4.305-4.305c.391-.391.391-1.023 0-1.414s-1.023-.391-1.414 0l-4.305 4.305c-.391.391-.391 1.023 0 1.414.196.195.451.293.707.293z"/><path d="m82.117 24.024c.553 0 1-.447 1-1v-6.026c0-.553-.447-1-1-1s-1 .447-1 1v6.026c0 .552.447 1 1 1z"/><path d="m13.5 28.06c.729 0 1.414-.283 1.928-.799l4.616-4.615c.875-.875 1.348-2.039 1.329-3.277-.019-1.237-.526-2.388-1.428-3.236-1.767-1.665-4.648-1.575-6.422.201l-.023.021-.022-.021c-1.775-1.774-4.656-1.865-6.423-.201-.902.85-1.41 1.999-1.428 3.236-.019 1.238.453 2.402 1.329 3.277l4.616 4.615c.514.516 1.2.799 1.928.799zm-5.873-8.661c.01-.692.294-1.335.799-1.812.464-.438 1.071-.653 1.69-.653.697 0 1.409.274 1.948.813l.729.729c.391.391 1.023.391 1.414 0l.729-.729c1.017-1.018 2.649-1.09 3.637-.159.505.476.789 1.118.8 1.811.01.692-.253 1.344-.744 1.833l-4.616 4.615c-.274.275-.752.275-1.028 0l-4.615-4.615c-.49-.49-.754-1.141-.743-1.833z"/><path d="m116.944 97.132c-1.767-1.665-4.648-1.572-6.423.201l-.021.021-.022-.021c-1.775-1.776-4.656-1.863-6.422-.202-.902.85-1.41 1.999-1.429 3.236-.019 1.238.453 2.402 1.329 3.278l4.615 4.615c.516.516 1.2.799 1.929.799s1.413-.284 1.928-.799l4.616-4.615c.875-.875 1.347-2.039 1.328-3.277-.018-1.237-.525-2.386-1.428-3.236zm-1.314 5.1-4.617 4.615c-.273.275-.752.275-1.027 0l-4.615-4.615c-.49-.49-.754-1.142-.743-1.834.011-.691.294-1.334.8-1.811.465-.438 1.071-.653 1.689-.653.697 0 1.408.274 1.947.814l.729.729c.391.389 1.023.39 1.414-.001l.729-.729c1.019-1.019 2.65-1.088 3.638-.16.505.477.789 1.119.8 1.812.009.692-.255 1.343-.744 1.833z"/></g></svg>