<svg id="Layer_1" enable-background="new 0 0 128 128" height="512" viewBox="0 0 128 128" width="512" xmlns="http://www.w3.org/2000/svg"><path d="m109.606 23.252c0-2.687-2.186-4.872-4.872-4.872h-18.453c-1.045-.815-2.356-1.306-3.781-1.306h-6v-.677c0-5.79-4.71-10.5-10.5-10.5s-10.5 4.71-10.5 10.5v.677h-6c-1.425 0-2.736.491-3.781 1.306h-18.453c-2.687 0-4.872 2.186-4.872 4.872v97.978c0 2.686 2.186 4.872 4.872 4.872h77.469c2.687 0 4.872-2.186 4.872-4.872v-97.978z" fill="#e6e7e8"/><path d="m100.734 15.38h-18.832c1.074.947 1.765 2.317 1.765 3.861v6.167h-43.334v-6.167c0-1.544.691-2.914 1.765-3.861h-18.832c-2.138 0-3.872 1.734-3.872 3.872v97.978c0 2.138 1.734 3.872 3.872 3.872h77.469c2.138 0 3.872-1.734 3.872-3.872v-97.978c-.001-2.138-1.734-3.872-3.873-3.872z" fill="#fff"/><path d="m100.734 18.38h-17.154c.047.281.087.566.087.861v6.167h-43.334v-6.167c0-.295.039-.58.087-.861h-17.154c-2.138 0-3.872 1.734-3.872 3.872v94.978c0 2.138 1.734 3.872 3.872 3.872h77.469c2.138 0 3.872-1.734 3.872-3.872v-94.978c-.001-2.138-1.734-3.872-3.873-3.872z" fill="#6dc9f7"/><path d="m95.056 23.659h-11.389v1.749h-43.334v-1.749h-11.389c-.934 0-1.692.757-1.692 1.692v85.782c0 .934.757 1.692 1.692 1.692h66.112c.934 0 1.692-.757 1.692-1.692v-85.782c0-.935-.758-1.692-1.692-1.692z" fill="#fff"/><path d="m78.5 14.075h-7v-1.677c0-5.247-4.253-9.5-9.5-9.5s-9.5 4.253-9.5 9.5v1.677h-7c-2.853 0-5.167 2.313-5.167 5.167v6.167h43.333v-6.167c.001-2.854-2.313-5.167-5.166-5.167z" fill="#0089ef"/><circle cx="62" cy="11.825" fill="#fff" r="3"/><path d="m86.564 63.457-.477.477-.477-.477c-.897-.897-2.37-.988-3.293-.118-.955.9-.972 2.404-.051 3.325l.546.546 2.476 2.476c.442.442 1.157.442 1.599 0l2.476-2.476.546-.546c.921-.921.904-2.426-.051-3.325-.924-.87-2.397-.779-3.294.118z" fill="#fa759e"/><path d="m36.934 37.223-.396.396-.396-.396c-.743-.743-1.965-.819-2.73-.098-.792.746-.806 1.993-.042 2.757l.453.453 2.053 2.053c.366.366.96.366 1.326 0l2.053-2.053.453-.453c.764-.764.75-2.011-.042-2.757-.768-.721-1.989-.645-2.732.098z" fill="#fa759e"/><path d="m55.673 58.155c-.737.184-1.504.292-2.298.292-5.247 0-9.5-4.253-9.5-9.5s4.253-9.5 9.5-9.5 9.5 4.253 9.5 9.5c0 3.149-1.538 5.931-3.898 7.66.119 1.224.474 2.412 1.043 3.498 3.801-2.269 6.355-6.41 6.355-11.158 0-.844-.087-1.667-.241-2.466h-.001c-.04-.208-.091-.411-.141-.615-.033-.136-.067-.272-.104-.406-.061-.218-.124-.434-.196-.647-.026-.078-.057-.154-.085-.231-.16-.447-.342-.882-.548-1.305-2.108-4.334-6.54-7.328-11.684-7.328-7.18 0-13 5.82-13 13s5.82 13 13 13c1.186 0 2.329-.172 3.42-.47-.522-1.054-.898-2.17-1.122-3.324z" fill="#ffd7e5"/><path d="m80.7 41.783-6.541 2.233-2.233-6.541z" fill="#6dc9f7"/><path d="m74.153 44.027c-2.959-1.453-6.197-1.665-9.144-.86.517 1.034.899 2.145 1.124 3.314 2.098-.523 4.385-.34 6.478.688 4.71 2.312 6.653 8.005 4.341 12.714s-8.005 6.653-12.714 4.341-6.653-8.005-4.341-12.714c.703-1.433 1.723-2.605 2.929-3.484-.121-1.253-.485-2.433-1.046-3.495-2.096 1.245-3.87 3.085-5.025 5.436-3.164 6.445-.505 14.235 5.94 17.399s14.234.505 17.399-5.94c3.164-6.445.504-14.235-5.941-17.399z" fill="#ffd7e5"/><g fill="#3a2c60"><path d="m100.734 14.38h-18.453c-1.045-.815-2.356-1.306-3.781-1.306h-6v-.677c0-5.79-4.71-10.5-10.5-10.5s-10.5 4.71-10.5 10.5v.677h-6c-1.425 0-2.736.491-3.781 1.306h-18.453c-2.687 0-4.872 2.186-4.872 4.872v97.978c0 2.687 2.186 4.872 4.872 4.872h77.469c2.687 0 4.872-2.186 4.872-4.872v-75.093c0-.552-.448-1-1-1s-1 .448-1 1v75.093c0 1.583-1.289 2.872-2.872 2.872h-77.469c-1.583 0-2.872-1.289-2.872-2.872v-97.978c0-1.583 1.289-2.872 2.872-2.872h16.776c-.45.856-.709 1.828-.709 2.861v3.418h-10.39c-1.484 0-2.691 1.208-2.691 2.691v85.782c0 1.484 1.208 2.691 2.691 2.691h66.112c1.484 0 2.691-1.208 2.691-2.691v-85.781c0-1.484-1.208-2.691-2.691-2.691h-10.39v-3.418c0-1.033-.258-2.005-.709-2.861h16.776c1.583 0 2.872 1.289 2.872 2.872v5.659c0 .552.448 1 1 1s1-.448 1-1v-5.659c.002-2.687-2.183-4.873-4.87-4.873zm-48.234.695c.552 0 1-.448 1-1v-1.677c0-4.687 3.813-8.5 8.5-8.5s8.5 3.813 8.5 8.5v1.677c0 .552.448 1 1 1h7c2.297 0 4.167 1.869 4.167 4.167v5.167h-41.333v-5.167c0-2.297 1.869-4.167 4.167-4.167zm42.556 9.584c.381 0 .691.31.691.691v85.782c0 .381-.31.691-.691.691h-66.112c-.381 0-.691-.31-.691-.691v-85.781c0-.381.31-.691.691-.691h10.39v.749c0 .552.448 1 1 1h43.333c.552 0 1-.448 1-1v-.749h10.389z"/><path d="m104.606 28.252c-.552 0-1 .448-1 1v8.362c0 .552.448 1 1 1s1-.448 1-1v-8.362c0-.552-.447-1-1-1z"/><path d="m62 15.825c2.206 0 4-1.794 4-4s-1.794-4-4-4-4 1.794-4 4 1.794 4 4 4zm0-6c1.103 0 2 .897 2 2s-.897 2-2 2-2-.897-2-2 .897-2 2-2z"/><path d="m43.888 72.295h-5.288c-.755 0-1.367.612-1.367 1.367v5.287c0 .755.612 1.367 1.367 1.367h5.287c.755 0 1.367-.612 1.367-1.367v-5.287c.001-.754-.611-1.367-1.366-1.367z"/><path d="m43.888 83.841h-5.288c-.755 0-1.367.612-1.367 1.367v5.287c0 .755.612 1.367 1.367 1.367h5.287c.755 0 1.367-.612 1.367-1.367v-5.287c.001-.755-.611-1.367-1.366-1.367z"/><path d="m43.888 95.386h-5.288c-.755 0-1.367.612-1.367 1.367v5.287c0 .755.612 1.367 1.367 1.367h5.287c.755 0 1.367-.612 1.367-1.367v-5.287c.001-.755-.611-1.367-1.366-1.367z"/><path d="m86.638 78.317h-34.648c-.552 0-1 .448-1 1s.448 1 1 1h34.648c.552 0 1-.448 1-1s-.448-1-1-1z"/><path d="m86.638 89.862h-34.648c-.552 0-1 .448-1 1s.448 1 1 1h34.648c.552 0 1-.448 1-1s-.448-1-1-1z"/><path d="m86.638 101.408h-34.648c-.552 0-1 .448-1 1s.448 1 1 1h34.648c.552 0 1-.448 1-1s-.448-1-1-1z"/><path d="m81.631 62.61c-.659.621-1.03 1.461-1.043 2.365-.014.905.332 1.755.971 2.395l3.022 3.022c.415.416.96.623 1.506.623.545 0 1.091-.208 1.507-.623l3.022-3.022c.64-.64.985-1.49.971-2.396-.014-.904-.385-1.744-1.044-2.365-1.217-1.146-3.155-1.157-4.456-.071-1.301-1.084-3.239-1.074-4.456.072zm3.271 1.553 1.184 1.186 1.185-1.185c.535-.536 1.388-.58 1.9-.097.262.247.41.581.415.939.005.359-.131.697-.385.951l-3.021 3.021c-.052.051-.135.051-.186 0l-3.022-3.022c-.254-.254-.391-.592-.385-.951.005-.359.152-.692.415-.939.238-.225.551-.335.87-.335.367 0 .744.146 1.03.432z"/><path d="m40.414 40.589c.563-.563.867-1.313.854-2.109s-.338-1.536-.919-2.083c-1.039-.978-2.67-1.018-3.811-.153-1.14-.864-2.773-.823-3.812.153-.581.547-.907 1.287-.919 2.083s.292 1.545.855 2.109l2.505 2.504c.377.378.874.566 1.37.566.497 0 .993-.188 1.37-.566zm-6.337-1.414c-.177-.178-.273-.414-.269-.665.003-.251.106-.484.29-.657.165-.155.381-.232.604-.232.26 0 .529.104.734.31l1.103 1.102 1.102-1.102c.378-.38.979-.415 1.337-.077.183.173.287.406.29.657.004.251-.092.487-.269.665l-2.417 2.505z"/><path d="m53.375 62.947c.994 0 1.962-.112 2.897-.312 1.34 2.355 3.372 4.347 5.982 5.628 1.979.972 4.079 1.432 6.148 1.432 5.175 0 10.159-2.879 12.589-7.829 3.07-6.253 1.021-13.695-4.498-17.591l4.53-1.547c.383-.131.649-.479.675-.883.026-.403-.194-.783-.557-.961l-8.774-4.308c-.362-.178-.797-.121-1.102.147-.304.267-.417.691-.286 1.074l1.544 4.524c-2.26-.69-4.665-.793-7.002-.295-2.412-4.222-6.946-7.08-12.147-7.08-7.72 0-14 6.28-14 14s6.281 14.001 14.001 14.001zm14-14c0-.564-.047-1.116-.114-1.662 1.673-.232 3.386.034 4.909.781 4.208 2.066 5.95 7.169 3.885 11.376-2.067 4.207-7.171 5.949-11.376 3.884-1.393-.684-2.509-1.705-3.312-2.912 3.624-2.531 6.008-6.72 6.008-11.467zm-12.838 8.411c-.38.055-.767.089-1.162.089-4.687 0-8.5-3.813-8.5-8.5s3.813-8.5 8.5-8.5c2.935 0 5.515 1.503 7.042 3.772-1.946 1.353-3.511 3.171-4.559 5.307-1.238 2.52-1.636 5.234-1.321 7.832zm23.555-15.742-3.31 1.13-1.13-3.31zm-4.38 3.308c5.94 2.917 8.4 10.121 5.484 16.061-2.916 5.941-10.121 8.399-16.061 5.483-5.939-2.916-8.399-10.121-5.483-16.061.86-1.751 2.126-3.254 3.696-4.397.188.509.326 1.035.413 1.574-1.155.949-2.104 2.143-2.762 3.484-2.551 5.197-.399 11.501 4.798 14.053 5.196 2.553 11.501.4 14.053-4.798 2.551-5.197.399-11.501-4.798-14.053-1.912-.938-4.065-1.267-6.162-.958-.131-.487-.289-.966-.472-1.435 2.478-.425 5.03-.065 7.294 1.047zm-11.989 5.563c-.253 1.365-.827 2.616-1.65 3.669.138-.748.37-1.49.721-2.206.259-.526.576-1.009.929-1.463zm-8.348-13.54c4.732 0 8.822 2.761 10.774 6.75.213.433.398.878.556 1.333.013.039.029.076.042.115.167.499.304 1.008.404 1.525 0 .001.001.002.002.004.142.737.223 1.496.223 2.274 0 3.967-1.954 7.464-4.93 9.648-.183-.505-.318-1.026-.404-1.558 2.336-1.927 3.834-4.833 3.834-8.09 0-1.001-.149-1.967-.412-2.884-.013-.046-.022-.093-.036-.139-.081-.269-.178-.532-.28-.792-.022-.055-.039-.112-.061-.167-.114-.277-.243-.545-.379-.81-.016-.03-.027-.062-.043-.092-.001-.002-.002-.002-.003-.004-1.762-3.333-5.26-5.612-9.285-5.612-5.79 0-10.5 4.71-10.5 10.5s4.71 10.5 10.5 10.5c.527 0 1.04-.055 1.545-.134.131.486.289.964.471 1.433-.657.117-1.325.2-2.016.2-6.617 0-12-5.383-12-12s5.381-12 11.998-12z"/></g><path d="m41.167 78.739c-.411 0-.804-.168-1.087-.467l-3.167-3.333c-.571-.601-.546-1.55.054-2.121.602-.571 1.551-.546 2.121.054l2.02 2.126 5.752-6.734c.538-.631 1.485-.705 2.115-.167s.705 1.485.167 2.115l-6.833 8c-.276.323-.676.514-1.101.525-.015.002-.028.002-.041.002z" fill="#fa759e"/><path d="m41.167 90.739c-.411 0-.804-.168-1.087-.467l-3.167-3.333c-.571-.601-.546-1.55.054-2.121.602-.571 1.551-.546 2.121.054l2.02 2.126 5.752-6.734c.538-.631 1.485-.705 2.115-.167s.705 1.485.167 2.115l-6.833 8c-.276.323-.676.514-1.101.525-.015.002-.028.002-.041.002z" fill="#fa759e"/><path d="m41.167 101.739c-.411 0-.804-.168-1.087-.467l-3.167-3.333c-.571-.601-.546-1.55.054-2.121.602-.571 1.551-.546 2.121.054l2.02 2.126 5.752-6.734c.538-.631 1.485-.705 2.115-.167s.705 1.485.167 2.115l-6.833 8c-.276.323-.676.514-1.101.525-.015.002-.028.002-.041.002z" fill="#fa759e"/></svg>